<svg xmlns="http://www.w3.org/2000/svg" width="313.927" height="318.103" viewBox="0 0 313.927 318.103">
  <g id="data6_pc" transform="translate(-232.075 -214.999)">
    <g id="Group_1777" data-name="Group 1777" transform="translate(-20 -5)">
      <path id="內文p" d="M13.2,7.592c-.128,2.7-.288,3.808-.512,4.1a.629.629,0,0,1-.512.192c-.288,0-.88-.016-1.488-.064a4.594,4.594,0,0,1,.5,1.632,11.245,11.245,0,0,0,1.856-.032,1.6,1.6,0,0,0,1.168-.64c.432-.528.624-2.08.784-6.064.032-.208.048-.72.048-.72H6.88v1.6H9.952A10.328,10.328,0,0,1,9.584,9.4C8.992,8.888,8.256,8.312,7.7,7.864L6.688,8.872c.672.592,1.6,1.392,2.208,1.984a5.345,5.345,0,0,1-2.464,1.92A4.519,4.519,0,0,1,7.488,14.12c3.024-1.408,3.84-3.744,4.16-6.528ZM9.456,13.96a13.326,13.326,0,0,1,1.7,2.448l1.184-.816a10.494,10.494,0,0,0-1.776-2.368ZM6.272,8.088H3.5l1.072-.416A15.613,15.613,0,0,0,3.6,5.5L2,6.056a16.48,16.48,0,0,1,.832,2.032H.512v1.5h5.76Zm-.336,2.24H.976v1.44h4.96Zm-4.96,3.6h4.96V12.5H.976ZM4.3,18.056H2.528v-1.84H4.3Zm1.584-3.344H.96v5.472H2.528v-.64h3.36V18.456l1.1.464A10.538,10.538,0,0,0,8,15.24l-1.328-.384a11.269,11.269,0,0,1-.784,3.136Zm4.384,3.856c-.48,0-.56-.064-.56-.528V14.568H8.08v3.488c0,1.5.384,1.984,1.952,1.984h1.76c1.28,0,1.712-.576,1.872-2.8a5.1,5.1,0,0,1-1.456-.608c-.048,1.68-.128,1.936-.592,1.936Zm2.624-3.92a14.329,14.329,0,0,1,1.28,3.472l1.392-.512a14.681,14.681,0,0,0-1.392-3.424Zm7.9,2.224a11,11,0,0,1,.32,2.96l1.648-.208a11.11,11.11,0,0,0-.432-2.944Zm2.416-.16a13.936,13.936,0,0,1,.736,2.656l1.52-.384a12.7,12.7,0,0,0-.768-2.592Zm4.72-3.952c-.1.464-.192.912-.288,1.3H21.536a15.148,15.148,0,0,0,1.2-1.3ZM26.688,9.848c-.08.448-.176.88-.272,1.264H23.968c.272-.416.528-.832.768-1.264Zm4.4,4.208H29.376c.192-.864.4-1.984.576-2.944H28.128c.208-.88.448-1.968.608-2.928H25.6q.5-1.08.912-2.208l-1.9-.528a18.124,18.124,0,0,1-1.1,2.736h-2.32l.8-.336a11.042,11.042,0,0,0-1.232-2.336l-1.648.64a13.313,13.313,0,0,1,1.008,2.032H17.424V9.848H22.56a14.59,14.59,0,0,1-6.128,5.488A11.707,11.707,0,0,1,17.424,17c.4-.208.8-.416,1.184-.656a5.774,5.774,0,0,1-1.728,3.024l1.488.944A6.684,6.684,0,0,0,20.24,16.7l-1.456-.464c.288-.176.56-.352.816-.544h9.52c-.192,1.824-.4,2.624-.656,2.88a.687.687,0,0,1-.528.176,12.527,12.527,0,0,1-1.552-.08,4.16,4.16,0,0,1,.512,1.7,13.819,13.819,0,0,0,1.9-.032,1.7,1.7,0,0,0,1.2-.592c.5-.512.768-1.856,1.04-4.96ZM27.92,18.04a8.311,8.311,0,0,0-1.04-2.112l-1.312.448a9.06,9.06,0,0,1,.944,2.16Zm8.336-.224V16.152h7.6v1.664Zm7.6-5.072v1.648h-7.6V12.744Zm0-3.408v1.648h-7.6V9.336ZM40.4,7.512c.256-.576.512-1.2.752-1.84l-2.3-.256a18.108,18.108,0,0,1-.432,2.1h-4.1V20.376h1.936v-.8h7.6v.784h2.032V7.512ZM54.336,18.2c-1.712,0-2-.144-2-.992V13.352h7.136v.912H61.5V6.36H50.16V8.312h9.312V11.48h-9.12v5.76c0,2.288.976,2.864,3.968,2.864H59.5c2.864,0,3.568-.832,3.92-3.888a7.267,7.267,0,0,1-1.936-.72c-.208,2.3-.432,2.7-2.032,2.7Zm16.848-6.16V14.6h-3.04V12.04Zm1.888,4.384V10.232H66.288V17.64h1.856V16.424Zm6.16-9.9H64.816V8.44H75.392v9.5c0,.336-.144.448-.512.448-.384,0-1.776.016-2.912-.048a8.63,8.63,0,0,1,.784,2.016,10.8,10.8,0,0,0,3.616-.352c.752-.32,1.024-.88,1.024-2.032V8.44h1.84Zm10.656,4.656a16.313,16.313,0,0,0-2.528-3.84L85.632,8.2a16.306,16.306,0,0,1,2.384,3.968ZM86.96,14.008c-.8.32-1.616.656-2.416.992l-.288-8.656-1.984.08.32,9.344c-.8.32-1.52.576-2.128.784l.64,2.032c1.808-.752,4.176-1.76,6.288-2.7Zm8.688,4.784A34.9,34.9,0,0,0,92.1,14.68a24.731,24.731,0,0,0,1.952-8.128l-2.1-.192c-.592,6.576-2.24,10.448-7.312,12.368a11.187,11.187,0,0,1,1.52,1.68,11.424,11.424,0,0,0,4.864-3.888,28.033,28.033,0,0,1,2.992,3.856Zm9.856-5.264v2.208h-2.992V13.528Zm1.76,3.776V11.96h-6.512v6.4h1.76V17.3Zm.72-8.176H100v1.6h7.984ZM110.8,6.2H97.232V20.392h1.856V8.008h9.84V18.184c0,.256-.112.352-.384.368s-1.2.016-2.048-.032a6.471,6.471,0,0,1,.656,1.888,6.5,6.5,0,0,0,2.832-.368c.608-.3.816-.848.816-1.84Zm5.472,1.92v2.816H114.8V8.12ZM114.8,15.608V12.6h1.472v3.008Zm3.248-9.184H113.04V18.712h1.76V17.3h3.248Zm.928,9.536a22.562,22.562,0,0,1,1.84,2.688l1.664-.976a20.5,20.5,0,0,0-1.92-2.56Zm8.432-7.136V7.16h-3.6V5.448h-1.872V7.16h-3.6V8.824h3.6v1.52h-3.088v1.648h5.1V13.24h-5.6v1.648h5.6v3.44c0,.224-.08.288-.336.288-.24,0-1.12,0-1.888-.032a6.928,6.928,0,0,1,.592,1.792,7.035,7.035,0,0,0,2.672-.32c.64-.288.816-.768.816-1.68V14.888h1.536V13.24h-1.536V11.992h1.168V10.344h-3.168V8.824Zm6.288,6.352h1.232a6.114,6.114,0,0,1-.72,1.568,7.187,7.187,0,0,1-.64-1.36Zm2.08-1.312-.288.032H134.32a6.452,6.452,0,0,0,.336-.832l-1.424-.352a8.752,8.752,0,0,1-1.792,3.12,26.878,26.878,0,0,0,.24-3.744V9.768h3.232v.688l-2.688.144.064,1.168,2.624-.144c.048,1.216.528,1.76,2.24,1.76h3.472a9.4,9.4,0,0,0,1.968-.128c-.064-.4-.112-.864-.16-1.36a11.857,11.857,0,0,1-1.984.144h-3.072c-.56,0-.656-.16-.672-.528l3.712-.208-.048-1.152-3.664.208V9.768h4.3a11.743,11.743,0,0,1-.416,1.216l1.584.448a17.747,17.747,0,0,0,1.056-2.864l-1.344-.32-.3.08h-4.752v-.7h5.12V6.3h-5.12V5.464h-1.92V8.328h-5.04v3.744c0,2.112-.1,5.136-1.392,7.216a6.8,6.8,0,0,1,1.488,1.136,10.373,10.373,0,0,0,1.328-3.7c.256.272.528.576.672.752a5.483,5.483,0,0,0,.688-.784,5.862,5.862,0,0,0,.64,1.136,6.187,6.187,0,0,1-2.384,1.312,4.923,4.923,0,0,1,.832,1.312,7.958,7.958,0,0,0,2.56-1.5,7.448,7.448,0,0,0,4.72,1.168h3.968a5.141,5.141,0,0,1,.56-1.552c-.9.032-3.76.032-4.448.032a7.035,7.035,0,0,1-3.808-.8,9.232,9.232,0,0,0,1.392-3.712Zm6.016,4.192c.768,0,1.088-.4,1.184-1.712a3.406,3.406,0,0,1-1.1-.448c-.048.96-.1,1.152-.272,1.152h-.32c-.16,0-.192-.032-.192-.384v-2.72H137.28v1.088a2.71,2.71,0,0,1-1.168,2.416,6.288,6.288,0,0,1,1.168.992,3.863,3.863,0,0,0,1.488-3.12h.944v1.344c0,1.072.288,1.392,1.3,1.392Zm7.952-2.656c-.512.176-1.04.336-1.568.5V12.7h1.44V10.952h-1.44V8.136h1.712V6.36h-5.28V8.136h1.76v2.816h-1.616V12.7h1.616v3.76c-.736.208-1.392.384-1.952.528l.432,1.936c1.536-.5,3.456-1.1,5.216-1.728Zm2.464-4.832h1.648v1.376h-1.648Zm0-2.832h1.648V9.064h-1.648Zm4.832,1.328h-1.584V7.736h1.584Zm0,2.88h-1.584V10.568h1.584Zm-1.408,6.224v-1.52h3.392V14.936h-3.392V13.56h3.216V6.12H150.5v7.44h3.2v1.376h-3.312v1.712H153.7v1.52H149.28V19.9h10.288V18.168Zm14.48-9.744a10.67,10.67,0,0,1-2.64,1.872,12.821,12.821,0,0,0-1.808-1.552c.16-.112.32-.208.464-.32Zm1.776-1.76-.336.08h-3.376q.456-.432.864-.864l-2.048-.48a13.742,13.742,0,0,1-5.552,3.568,5.831,5.831,0,0,1,1.3,1.36c.512-.224.992-.464,1.456-.72a20.183,20.183,0,0,1,1.568,1.44,21.984,21.984,0,0,1-4.72,1.216,7.025,7.025,0,0,1,.88,1.68c4.608-.864,9.152-2.848,11.216-6.528Zm.448,7.664a8.549,8.549,0,0,1-2.688,2.208,15.7,15.7,0,0,0-1.872-1.584c.3-.208.624-.416.928-.624Zm1.6-1.776-.352.1H170.72c.352-.352.656-.7.976-1.072l-2.064-.48a13.51,13.51,0,0,1-6.72,4.144,5.994,5.994,0,0,1,1.168,1.472,17.4,17.4,0,0,0,2.064-.88c.576.48,1.216,1.024,1.664,1.488a26.432,26.432,0,0,1-6.928,1.264,8.007,8.007,0,0,1,.768,1.84c6.1-.576,11.344-2.256,13.6-7.12Zm5.968-7.04a16.943,16.943,0,0,1-3.552,5.984,13,13,0,0,1,1.024,1.984c.32-.352.64-.752.96-1.152v8.048h1.808V9.5a27.106,27.106,0,0,0,1.568-3.408Zm11.5,7.648h-4.1V10.408h3.344V8.552h-3.344v-2.9h-1.92v2.9h-1.328c.176-.608.336-1.216.464-1.84l-1.84-.384A14.686,14.686,0,0,1,180.8,11.56a12.3,12.3,0,0,1,1.648.912,11.29,11.29,0,0,0,.992-2.064h1.952V13.16h-4.32v1.856h4.32v5.376h1.92V15.016h4.1ZM203.792,16.7h-2.88v-.752h2.88Zm-2.88-2.9h2.88v.688h-2.88Zm-4.448-3.184V9.848h2.512v.768Zm7.04-.768v.768h-2.592V9.848Zm3.888,4.64h-1.664V12.52h-4.816v-.7h4.544V8.648h-4.544V7.992h6.112v-1.5h-6.112V5.448h-1.936v1.04h-5.968v1.5h5.968v.656H194.64v3.168h4.336v.7H194.24V13.8h4.736v.688H192.64v1.456h6.336V16.7h-4.864v1.376h4.864v.5c0,.288-.1.384-.4.4-.256,0-1.2,0-1.968-.032a5.865,5.865,0,0,1,.624,1.5,8.426,8.426,0,0,0,2.832-.272c.624-.272.848-.656.848-1.6v-.5h2.88v.656h1.936V15.944h1.664Z" transform="translate(259 221)" fill="#4891f2"/>
      <rect id="Rectangle_2239" data-name="Rectangle 2239" width="262.8" height="20" rx="2" transform="translate(252.075 258)" fill="#4d505a"/>
      <path id="Rectangle_2238" data-name="Rectangle 2238" d="M2,0H147.7a0,0,0,0,1,0,0V20a0,0,0,0,1,0,0H2a2,2,0,0,1-2-2V2A2,2,0,0,1,2,0Z" transform="translate(252.075 258)" fill="#4891f2"/>
      <line id="Line_321" data-name="Line 321" y2="20" transform="translate(486.5 258.5)" fill="none" stroke="#aaa" stroke-width="1" stroke-dasharray="1"/>
      <path id="內文p-2" data-name="內文p" d="M11.344,15.176v2.56H4.56v-2.56Zm-8.736,5.2H4.56V19.56h6.784v.8h2.048V13.352H2.608Zm6.7-12.464C9.9,8.5,10.544,9.176,11.168,9.88l-6.56.208A26.3,26.3,0,0,0,8.1,6.008l-1.92-.816A21.349,21.349,0,0,1,2.784,9.544a3.3,3.3,0,0,1-1.328.928A14.567,14.567,0,0,1,2.08,12.3c.848-.288,1.984-.32,10.48-.736a14,14,0,0,1,.832,1.216l1.616-1.168A29.081,29.081,0,0,0,10.8,6.92Zm22.08,2.752a9.864,9.864,0,0,0-.72-1.712l-.784.288c.064.128.128.272.192.416l-.9.1A14.542,14.542,0,0,0,30.88,7.4L29.9,6.968c-.112.24-.24.48-.368.72L28.8,7.72a10.685,10.685,0,0,0,1.008-1.744l-1.024-.384a7.138,7.138,0,0,1-.976,2.048c-.176.24-.32.4-.512.432a5.14,5.14,0,0,1,.352.768,6.091,6.091,0,0,1,1.264-.192,10.039,10.039,0,0,1-.8.992,1.338,1.338,0,0,1-.752.56,3.412,3.412,0,0,1,.368.784,10.848,10.848,0,0,1,2.7-.5c.064.192.128.368.16.512Zm-1.5,2.672a8.746,8.746,0,0,0-.352-1.936l-.816.224a9.921,9.921,0,0,1,.32,2ZM27.68,11.32a5.2,5.2,0,0,1-.528,1.808,4.747,4.747,0,0,1,.768.56,6.8,6.8,0,0,0,.656-2.128Zm-.288-4.288H25.776l.64-.16A10.28,10.28,0,0,0,25.84,5.64L24.592,5.9a7.79,7.79,0,0,1,.48,1.136h-1.5v.992h3.824Zm-.32,2.64h-3.04v.864h3.04ZM25.12,11.816h.8v.7h-.8Zm-1.1,1.536h3.056V10.968H24.016ZM27.072,8.44h-3.04V9.3h3.04ZM23.84,10.632a10.843,10.843,0,0,0-.7-1.68l-.8.288c.064.128.144.272.208.416l-.912.1a13.633,13.633,0,0,0,1.712-2.336l-.976-.464a7.865,7.865,0,0,1-.384.72l-.72.032a8.271,8.271,0,0,0,.992-1.744l-1.024-.368a7.966,7.966,0,0,1-.96,2.048.838.838,0,0,1-.528.432,4.189,4.189,0,0,1,.384.752,4.247,4.247,0,0,1,1.248-.208,8.17,8.17,0,0,1-.8,1.024c-.288.3-.5.512-.752.544a5.5,5.5,0,0,1,.368.784,13.086,13.086,0,0,1,2.688-.5,5.1,5.1,0,0,1,.144.5Zm-.16,2.112A7.127,7.127,0,0,0,23.2,11.1l-.736.288A6.889,6.889,0,0,1,22.9,13.1Zm-1.312.448a7.145,7.145,0,0,0-.336-1.792l-.816.208a8.588,8.588,0,0,1,.3,1.856ZM20.16,7.256A11.586,11.586,0,0,0,17.84,5.64L16.752,6.92a10.706,10.706,0,0,1,2.24,1.76Zm-.32,4.08a10.684,10.684,0,0,0-2.384-1.5l-1.04,1.328a11.381,11.381,0,0,1,2.3,1.632ZM18.48,20.2c.624-1.552,1.28-3.392,1.792-5.1l-1.5-.96a48.82,48.82,0,0,1-1.984,5.12Zm1.648-8.8a5.408,5.408,0,0,1-.528,1.808,5.377,5.377,0,0,1,.784.56,7.364,7.364,0,0,0,.656-2.144Zm2.72,5.552.128-.512h7.088V13.8H20.992v1.056H28.3v.512H21.472a27.066,27.066,0,0,1-.72,2.736h8.1a1.612,1.612,0,0,1-.464.832,1.145,1.145,0,0,1-.688.128c-.384,0-1.456-.016-2.4-.112a3.217,3.217,0,0,1,.512,1.392c.992.032,1.952.048,2.48.032a2.518,2.518,0,0,0,1.488-.416,3.992,3.992,0,0,0,.976-2.336,4.277,4.277,0,0,0,.1-.672Zm7.136-5.568a8.846,8.846,0,0,1,.544,2.016l.8-.368a9.206,9.206,0,0,0-.576-1.936Zm6.432,7.84a4,4,0,0,0,4.144-4.16,3.438,3.438,0,0,0-3.648-3.76,3.062,3.062,0,0,0-1.424.336l.224-2.512h4.3V7.16H33.68L33.36,12.9l1.072.7a2.833,2.833,0,0,1,1.776-.624,1.916,1.916,0,0,1,2,2.144,1.988,1.988,0,0,1-2.1,2.176A3.68,3.68,0,0,1,33.5,16.1l-1.088,1.5A5.4,5.4,0,0,0,36.416,19.224ZM44.4,19h2.384c.192-4.64.56-7.056,3.312-10.416V7.16H42.224V9.128h5.328C45.3,12.264,44.608,14.888,44.4,19Zm9.84-4.56c1.7,0,2.9-1.392,2.9-3.776,0-2.368-1.2-3.728-2.9-3.728s-2.88,1.36-2.88,3.728C51.36,13.048,52.544,14.44,54.24,14.44Zm0-1.328c-.688,0-1.216-.7-1.216-2.448s.528-2.4,1.216-2.4,1.232.656,1.232,2.4S54.928,13.112,54.24,13.112Zm.4,6.112h1.376L62.464,6.936H61.072Zm8.208,0c1.68,0,2.9-1.408,2.9-3.776,0-2.384-1.216-3.744-2.9-3.744s-2.88,1.36-2.88,3.744C59.968,17.816,61.168,19.224,62.848,19.224Zm0-1.344c-.688,0-1.232-.688-1.232-2.432s.544-2.416,1.232-2.416,1.232.672,1.232,2.416S63.536,17.88,62.848,17.88Z" transform="translate(470 221)" fill="#4891f2"/>
      <path id="內文p-3" data-name="內文p" d="M5.936,19.208c2.944,0,5.008-2.352,5.008-6.112S8.88,7.048,5.936,7.048.928,9.336.928,13.1,2.992,19.208,5.936,19.208Zm0-1.3c-2.112,0-3.488-1.888-3.488-4.816,0-2.944,1.376-4.752,3.488-4.752,2.1,0,3.488,1.808,3.488,4.752C9.424,16.024,8.032,17.912,5.936,17.912ZM13.472,19h6.944V17.736H14.96V13.464h4.448V12.2H14.96V8.52h5.28V7.256H13.472Zm13.84.208a4.534,4.534,0,0,0,3.6-1.68L30.1,16.6a3.565,3.565,0,0,1-2.72,1.312c-2.24,0-3.648-1.856-3.648-4.816,0-2.928,1.472-4.752,3.7-4.752a3.2,3.2,0,0,1,2.4,1.12l.8-.96a4.337,4.337,0,0,0-3.216-1.456c-2.976,0-5.2,2.3-5.2,6.1C22.208,16.952,24.4,19.208,27.312,19.208ZM33.088,19H36.1c3.536,0,5.472-2.192,5.472-5.9,0-3.728-1.936-5.84-5.536-5.84H33.088Zm1.488-1.216V8.472H35.9c2.768,0,4.128,1.648,4.128,4.624,0,2.96-1.36,4.688-4.128,4.688Zm23.04-4.336h-6.56V7.864H56.72V6.7H44.208V7.864H49.84v5.584H43.376v1.168H49.84v5.6h1.216v-5.6h6.56ZM45.328,8.968a18.724,18.724,0,0,1,1.44,3.664l1.12-.384a15.328,15.328,0,0,0-1.52-3.6Zm8.48,3.712a31.414,31.414,0,0,0,1.968-3.76l-1.248-.352A23.876,23.876,0,0,1,52.8,12.344ZM65.36,16.36h5.408V15.288H65.36Zm.368-4.7v1.088H70.5V11.656Zm1.424-3.392a22.725,22.725,0,0,0,.9-2.336l-1.2-.3a16.858,16.858,0,0,1-2.432,5.024V9.624H62.56V5.96H61.408V9.624H59.344V10.76h2.064v5.456c-.88.4-1.7.768-2.336,1.024l.448,1.2c1.488-.72,3.472-1.7,5.328-2.608l-.32-1.088c-.656.3-1.328.624-1.968.928V10.76h1.792a10.04,10.04,0,0,1-.752.864c.3.176.848.512,1.088.688a16.022,16.022,0,0,0,1.936-2.928H72.3c-.208,6.448-.448,8.912-.976,9.456a.793.793,0,0,1-.688.256,23.424,23.424,0,0,1-2.416-.112,2.991,2.991,0,0,1,.384,1.216,18.479,18.479,0,0,0,2.48.016A1.607,1.607,0,0,0,72.4,19.56c.64-.8.848-3.328,1.1-10.672,0-.16.016-.624.016-.624ZM77.648,19h1.52c.176-4.592.688-7.328,3.44-10.848v-.9H75.264V8.52h5.68C78.656,11.72,77.84,14.552,77.648,19Zm10.16.208c2.224,0,3.648-2.032,3.648-6.112,0-4.064-1.424-6.048-3.648-6.048-2.24,0-3.664,1.968-3.664,6.048S85.568,19.208,87.808,19.208Zm0-1.168c-1.344,0-2.24-1.488-2.24-4.944,0-3.424.9-4.88,2.24-4.88,1.328,0,2.224,1.456,2.224,4.88C90.032,16.552,89.136,18.04,87.808,18.04Zm7.712-3.584c1.616,0,2.672-1.36,2.672-3.728,0-2.352-1.056-3.68-2.672-3.68-1.6,0-2.656,1.328-2.656,3.68C92.864,13.1,93.92,14.456,95.52,14.456Zm0-.912c-.912,0-1.552-.944-1.552-2.816s.64-2.784,1.552-2.784c.928,0,1.568.912,1.568,2.784S96.448,13.544,95.52,13.544Zm.352,5.664h.976l6.48-12.16h-.992Zm7.824,0c1.6,0,2.656-1.344,2.656-3.712,0-2.352-1.056-3.68-2.656-3.68s-2.672,1.328-2.672,3.68C101.024,17.864,102.1,19.208,103.7,19.208Zm0-.9c-.928,0-1.552-.944-1.552-2.816s.624-2.784,1.552-2.784c.912,0,1.552.912,1.552,2.784S104.608,18.312,103.7,18.312Z" transform="translate(428 282)" fill="#c0c3c9"/>
    </g>
    <g id="Union_5" data-name="Union 5" transform="translate(-3904.999 -12227)" fill="none">
      <path d="M4283.605,12476.212,4280,12469H4140a2,2,0,0,1-2-2v-23a2,2,0,0,1,2-2h288a2,2,0,0,1,2,2v23a2,2,0,0,1-2,2H4289l-3.606,7.211a1,1,0,0,1-1.788,0Z" stroke="none"/>
      <path d="M 4284.49951171875 12475.763671875 L 4288.1044921875 12468.5537109375 L 4288.380859375 12468.0009765625 L 4288.9990234375 12468.0009765625 L 4427.9990234375 12468.0009765625 C 4428.55078125 12468.0009765625 4429 12467.5517578125 4429 12467 L 4429 12444 C 4429 12443.4482421875 4428.55078125 12442.9990234375 4427.9990234375 12442.9990234375 L 4140.00048828125 12442.9990234375 C 4139.44873046875 12442.9990234375 4139 12443.4482421875 4139 12444 L 4139 12467 C 4139 12467.5517578125 4139.44873046875 12468.0009765625 4140.00048828125 12468.0009765625 L 4279.99951171875 12468.0009765625 L 4280.61767578125 12468.0009765625 L 4280.89404296875 12468.5537109375 L 4284.49951171875 12475.763671875 M 4284.50048828125 12476.763671875 C 4284.1455078125 12476.763671875 4283.7900390625 12476.580078125 4283.60546875 12476.2119140625 L 4279.99951171875 12469.0009765625 L 4140.00048828125 12469.0009765625 C 4138.8955078125 12469.0009765625 4138 12468.10546875 4138 12467 L 4138 12444 C 4138 12442.89453125 4138.8955078125 12441.9990234375 4140.00048828125 12441.9990234375 L 4427.9990234375 12441.9990234375 C 4429.1044921875 12441.9990234375 4430 12442.89453125 4430 12444 L 4430 12467 C 4430 12468.10546875 4429.1044921875 12469.0009765625 4427.9990234375 12469.0009765625 L 4288.9990234375 12469.0009765625 L 4285.39306640625 12476.2119140625 C 4285.2099609375 12476.580078125 4284.85546875 12476.763671875 4284.50048828125 12476.763671875 Z" stroke="none" fill="#4891f2"/>
    </g>
    <g id="Group_2140" data-name="Group 2140" transform="translate(0 8)">
      <g id="Group_1780" data-name="Group 1780" transform="translate(-20 -19)">
        <rect id="Rectangle_2243" data-name="Rectangle 2243" width="262.8" height="20" rx="2" transform="translate(252.075 382)" fill="#4d505a"/>
        <path id="Rectangle_2241" data-name="Rectangle 2241" d="M2,0H211a0,0,0,0,1,0,0V20a0,0,0,0,1,0,0H2a2,2,0,0,1-2-2V2A2,2,0,0,1,2,0Z" transform="translate(252.075 382)" fill="#4891f2"/>
        <path id="Path_1769" data-name="Path 1769" d="M0,8V27.947" transform="translate(473.5 374)" fill="none" stroke="#aaa" stroke-width="1" stroke-dasharray="1"/>
        <path id="內文p-4" data-name="內文p" d="M11.344,15.176v2.56H4.56v-2.56Zm-8.736,5.2H4.56V19.56h6.784v.8h2.048V13.352H2.608Zm6.7-12.464C9.9,8.5,10.544,9.176,11.168,9.88l-6.56.208A26.3,26.3,0,0,0,8.1,6.008l-1.92-.816A21.349,21.349,0,0,1,2.784,9.544a3.3,3.3,0,0,1-1.328.928A14.567,14.567,0,0,1,2.08,12.3c.848-.288,1.984-.32,10.48-.736a14,14,0,0,1,.832,1.216l1.616-1.168A29.081,29.081,0,0,0,10.8,6.92Zm22.08,2.752a9.864,9.864,0,0,0-.72-1.712l-.784.288c.064.128.128.272.192.416l-.9.1A14.542,14.542,0,0,0,30.88,7.4L29.9,6.968c-.112.24-.24.48-.368.72L28.8,7.72a10.685,10.685,0,0,0,1.008-1.744l-1.024-.384a7.138,7.138,0,0,1-.976,2.048c-.176.24-.32.4-.512.432a5.14,5.14,0,0,1,.352.768,6.091,6.091,0,0,1,1.264-.192,10.039,10.039,0,0,1-.8.992,1.338,1.338,0,0,1-.752.56,3.412,3.412,0,0,1,.368.784,10.848,10.848,0,0,1,2.7-.5c.064.192.128.368.16.512Zm-1.5,2.672a8.746,8.746,0,0,0-.352-1.936l-.816.224a9.921,9.921,0,0,1,.32,2ZM27.68,11.32a5.2,5.2,0,0,1-.528,1.808,4.747,4.747,0,0,1,.768.56,6.8,6.8,0,0,0,.656-2.128Zm-.288-4.288H25.776l.64-.16A10.28,10.28,0,0,0,25.84,5.64L24.592,5.9a7.79,7.79,0,0,1,.48,1.136h-1.5v.992h3.824Zm-.32,2.64h-3.04v.864h3.04ZM25.12,11.816h.8v.7h-.8Zm-1.1,1.536h3.056V10.968H24.016ZM27.072,8.44h-3.04V9.3h3.04ZM23.84,10.632a10.843,10.843,0,0,0-.7-1.68l-.8.288c.064.128.144.272.208.416l-.912.1a13.633,13.633,0,0,0,1.712-2.336l-.976-.464a7.865,7.865,0,0,1-.384.72l-.72.032a8.271,8.271,0,0,0,.992-1.744l-1.024-.368a7.966,7.966,0,0,1-.96,2.048.838.838,0,0,1-.528.432,4.189,4.189,0,0,1,.384.752,4.247,4.247,0,0,1,1.248-.208,8.17,8.17,0,0,1-.8,1.024c-.288.3-.5.512-.752.544a5.5,5.5,0,0,1,.368.784,13.086,13.086,0,0,1,2.688-.5,5.1,5.1,0,0,1,.144.5Zm-.16,2.112A7.127,7.127,0,0,0,23.2,11.1l-.736.288A6.889,6.889,0,0,1,22.9,13.1Zm-1.312.448a7.145,7.145,0,0,0-.336-1.792l-.816.208a8.588,8.588,0,0,1,.3,1.856ZM20.16,7.256A11.586,11.586,0,0,0,17.84,5.64L16.752,6.92a10.706,10.706,0,0,1,2.24,1.76Zm-.32,4.08a10.684,10.684,0,0,0-2.384-1.5l-1.04,1.328a11.381,11.381,0,0,1,2.3,1.632ZM18.48,20.2c.624-1.552,1.28-3.392,1.792-5.1l-1.5-.96a48.82,48.82,0,0,1-1.984,5.12Zm1.648-8.8a5.408,5.408,0,0,1-.528,1.808,5.377,5.377,0,0,1,.784.56,7.364,7.364,0,0,0,.656-2.144Zm2.72,5.552.128-.512h7.088V13.8H20.992v1.056H28.3v.512H21.472a27.066,27.066,0,0,1-.72,2.736h8.1a1.612,1.612,0,0,1-.464.832,1.145,1.145,0,0,1-.688.128c-.384,0-1.456-.016-2.4-.112a3.217,3.217,0,0,1,.512,1.392c.992.032,1.952.048,2.48.032a2.518,2.518,0,0,0,1.488-.416,3.992,3.992,0,0,0,.976-2.336,4.277,4.277,0,0,0,.1-.672Zm7.136-5.568a8.846,8.846,0,0,1,.544,2.016l.8-.368a9.206,9.206,0,0,0-.576-1.936Zm6.72,7.84c2.4,0,3.984-1.376,3.984-3.168A3.444,3.444,0,0,0,38.7,12.888v-.08a3.449,3.449,0,0,0,1.52-2.7,3.107,3.107,0,0,0-3.44-3.152c-2.064,0-3.568,1.216-3.568,3.12a3.373,3.373,0,0,0,1.568,2.816v.08a3.445,3.445,0,0,0-2.032,3.088C32.752,17.912,34.448,19.224,36.7,19.224Zm.752-6.992c-1.248-.5-2.16-1.04-2.16-2.16A1.377,1.377,0,0,1,36.736,8.6,1.508,1.508,0,0,1,38.3,10.248,2.836,2.836,0,0,1,37.456,12.232Zm-.688,5.328a1.815,1.815,0,0,1-1.984-1.76,2.847,2.847,0,0,1,1.088-2.192c1.536.624,2.624,1.136,2.624,2.368A1.552,1.552,0,0,1,36.768,17.56Zm9.376,1.664c2.4,0,4-2.112,4-6.192s-1.6-6.1-4-6.1c-2.416,0-4.016,2-4.016,6.1C42.128,17.112,43.728,19.224,46.144,19.224Zm0-1.84c-1.024,0-1.792-1.024-1.792-4.352,0-3.312.768-4.272,1.792-4.272,1.008,0,1.776.96,1.776,4.272C47.92,16.36,47.152,17.384,46.144,17.384Zm8.1-2.944c1.7,0,2.9-1.392,2.9-3.776,0-2.368-1.2-3.728-2.9-3.728s-2.88,1.36-2.88,3.728C51.36,13.048,52.544,14.44,54.24,14.44Zm0-1.328c-.688,0-1.216-.7-1.216-2.448s.528-2.4,1.216-2.4,1.232.656,1.232,2.4S54.928,13.112,54.24,13.112Zm.4,6.112h1.376L62.464,6.936H61.072Zm8.208,0c1.68,0,2.9-1.408,2.9-3.776,0-2.384-1.216-3.744-2.9-3.744s-2.88,1.36-2.88,3.744C59.968,17.816,61.168,19.224,62.848,19.224Zm0-1.344c-.688,0-1.232-.688-1.232-2.432s.544-2.416,1.232-2.416,1.232.672,1.232,2.416S63.536,17.88,62.848,17.88Z" transform="translate(438 346)" fill="#4891f2"/>
        <path id="內文p-5" data-name="內文p" d="M5.936,19.208c2.944,0,5.008-2.352,5.008-6.112S8.88,7.048,5.936,7.048.928,9.336.928,13.1,2.992,19.208,5.936,19.208Zm0-1.3c-2.112,0-3.488-1.888-3.488-4.816,0-2.944,1.376-4.752,3.488-4.752,2.1,0,3.488,1.808,3.488,4.752C9.424,16.024,8.032,17.912,5.936,17.912ZM13.472,19h6.944V17.736H14.96V13.464h4.448V12.2H14.96V8.52h5.28V7.256H13.472Zm13.84.208a4.534,4.534,0,0,0,3.6-1.68L30.1,16.6a3.565,3.565,0,0,1-2.72,1.312c-2.24,0-3.648-1.856-3.648-4.816,0-2.928,1.472-4.752,3.7-4.752a3.2,3.2,0,0,1,2.4,1.12l.8-.96a4.337,4.337,0,0,0-3.216-1.456c-2.976,0-5.2,2.3-5.2,6.1C22.208,16.952,24.4,19.208,27.312,19.208ZM33.088,19H36.1c3.536,0,5.472-2.192,5.472-5.9,0-3.728-1.936-5.84-5.536-5.84H33.088Zm1.488-1.216V8.472H35.9c2.768,0,4.128,1.648,4.128,4.624,0,2.96-1.36,4.688-4.128,4.688Zm23.04-4.336h-6.56V7.864H56.72V6.7H44.208V7.864H49.84v5.584H43.376v1.168H49.84v5.6h1.216v-5.6h6.56ZM45.328,8.968a18.724,18.724,0,0,1,1.44,3.664l1.12-.384a15.328,15.328,0,0,0-1.52-3.6Zm8.48,3.712a31.414,31.414,0,0,0,1.968-3.76l-1.248-.352A23.876,23.876,0,0,1,52.8,12.344ZM65.36,16.36h5.408V15.288H65.36Zm.368-4.7v1.088H70.5V11.656Zm1.424-3.392a22.725,22.725,0,0,0,.9-2.336l-1.2-.3a16.858,16.858,0,0,1-2.432,5.024V9.624H62.56V5.96H61.408V9.624H59.344V10.76h2.064v5.456c-.88.4-1.7.768-2.336,1.024l.448,1.2c1.488-.72,3.472-1.7,5.328-2.608l-.32-1.088c-.656.3-1.328.624-1.968.928V10.76h1.792a10.04,10.04,0,0,1-.752.864c.3.176.848.512,1.088.688a16.022,16.022,0,0,0,1.936-2.928H72.3c-.208,6.448-.448,8.912-.976,9.456a.793.793,0,0,1-.688.256,23.424,23.424,0,0,1-2.416-.112,2.991,2.991,0,0,1,.384,1.216,18.479,18.479,0,0,0,2.48.016A1.607,1.607,0,0,0,72.4,19.56c.64-.8.848-3.328,1.1-10.672,0-.16.016-.624.016-.624ZM78.944,19.208c2.208,0,3.68-1.328,3.68-3.04A3.422,3.422,0,0,0,80.64,13.1v-.08a3.846,3.846,0,0,0,1.568-2.832,3.222,3.222,0,0,0-6.432-.112,3.261,3.261,0,0,0,1.584,2.7v.08a3.757,3.757,0,0,0-2.16,3.232C75.2,17.9,76.784,19.208,78.944,19.208Zm.8-6.576c-1.376-.544-2.64-1.152-2.64-2.56a1.806,1.806,0,0,1,1.872-1.9,1.944,1.944,0,0,1,1.984,2.1A3.146,3.146,0,0,1,79.744,12.632Zm-.768,5.488a2.249,2.249,0,0,1-2.448-2.16,3.188,3.188,0,0,1,1.6-2.656c1.664.672,3.1,1.264,3.1,2.832A2.032,2.032,0,0,1,78.976,18.12ZM85.2,14.6l2.672-4c.336-.576.656-1.152.944-1.728h.064c-.032.608-.08,1.552-.08,2.128v3.6ZM88.8,19h1.376V15.768h1.552V14.6H90.176V7.256H88.56l-4.88,7.552v.96H88.8Zm6.72-4.544c1.616,0,2.672-1.36,2.672-3.728,0-2.352-1.056-3.68-2.672-3.68-1.6,0-2.656,1.328-2.656,3.68C92.864,13.1,93.92,14.456,95.52,14.456Zm0-.912c-.912,0-1.552-.944-1.552-2.816s.64-2.784,1.552-2.784c.928,0,1.568.912,1.568,2.784S96.448,13.544,95.52,13.544Zm.352,5.664h.976l6.48-12.16h-.992Zm7.824,0c1.6,0,2.656-1.344,2.656-3.712,0-2.352-1.056-3.68-2.656-3.68s-2.672,1.328-2.672,3.68C101.024,17.864,102.1,19.208,103.7,19.208Zm0-.9c-.928,0-1.552-.944-1.552-2.816s.624-2.784,1.552-2.784c.912,0,1.552.912,1.552,2.784S104.608,18.312,103.7,18.312Z" transform="translate(426 406)" fill="#c0c3c9"/>
        <g id="Group_1778" data-name="Group 1778" transform="translate(-90 -9)">
          <text id="內文p-6" data-name="內文p" transform="translate(349 355)" fill="#4891f2" font-size="16" font-family="SourceHanSansTW-Bold, Source Han Sans TW" font-weight="700"><tspan x="0" y="19">能在艱困處境中找到出路　</tspan></text>
        </g>
      </g>
      <g id="Union_6" data-name="Union 6" transform="translate(-3904.999 -12116)" fill="none">
        <path d="M4283.605,12476.212,4280,12469H4140a2,2,0,0,1-2-2v-23a2,2,0,0,1,2-2h254a2,2,0,0,1,2,2v23a2,2,0,0,1-2,2H4289l-3.606,7.211a1,1,0,0,1-1.788,0Z" stroke="none"/>
        <path d="M 4284.49951171875 12475.763671875 L 4288.1044921875 12468.5537109375 L 4288.380859375 12468.0009765625 L 4288.9990234375 12468.0009765625 L 4393.99951171875 12468.0009765625 C 4394.55126953125 12468.0009765625 4395.00048828125 12467.5517578125 4395.00048828125 12467 L 4395.00048828125 12444 C 4395.00048828125 12443.4482421875 4394.55126953125 12442.9990234375 4393.99951171875 12442.9990234375 L 4140.00048828125 12442.9990234375 C 4139.44873046875 12442.9990234375 4139 12443.4482421875 4139 12444 L 4139 12467 C 4139 12467.5517578125 4139.44873046875 12468.0009765625 4140.00048828125 12468.0009765625 L 4279.99951171875 12468.0009765625 L 4280.61767578125 12468.0009765625 L 4280.89404296875 12468.5537109375 L 4284.49951171875 12475.763671875 M 4284.50048828125 12476.763671875 C 4284.1455078125 12476.763671875 4283.7900390625 12476.580078125 4283.60546875 12476.2119140625 L 4279.99951171875 12469.0009765625 L 4140.00048828125 12469.0009765625 C 4138.8955078125 12469.0009765625 4138 12468.10546875 4138 12467 L 4138 12444 C 4138 12442.89453125 4138.8955078125 12441.9990234375 4140.00048828125 12441.9990234375 L 4393.99951171875 12441.9990234375 C 4395.1044921875 12441.9990234375 4396.00048828125 12442.89453125 4396.00048828125 12444 L 4396.00048828125 12467 C 4396.00048828125 12468.10546875 4395.1044921875 12469.0009765625 4393.99951171875 12469.0009765625 L 4288.9990234375 12469.0009765625 L 4285.39306640625 12476.2119140625 C 4285.2099609375 12476.580078125 4284.85546875 12476.763671875 4284.50048828125 12476.763671875 Z" stroke="none" fill="#4891f2"/>
      </g>
    </g>
    <g id="Group_2139" data-name="Group 2139" transform="translate(0 8)">
      <g id="Group_1781" data-name="Group 1781" transform="translate(-20 -9)">
        <path id="內文p-7" data-name="內文p" d="M11.344,15.176v2.56H4.56v-2.56Zm-8.736,5.2H4.56V19.56h6.784v.8h2.048V13.352H2.608Zm6.7-12.464C9.9,8.5,10.544,9.176,11.168,9.88l-6.56.208A26.3,26.3,0,0,0,8.1,6.008l-1.92-.816A21.349,21.349,0,0,1,2.784,9.544a3.3,3.3,0,0,1-1.328.928A14.567,14.567,0,0,1,2.08,12.3c.848-.288,1.984-.32,10.48-.736a14,14,0,0,1,.832,1.216l1.616-1.168A29.081,29.081,0,0,0,10.8,6.92Zm22.08,2.752a9.864,9.864,0,0,0-.72-1.712l-.784.288c.064.128.128.272.192.416l-.9.1A14.542,14.542,0,0,0,30.88,7.4L29.9,6.968c-.112.24-.24.48-.368.72L28.8,7.72a10.685,10.685,0,0,0,1.008-1.744l-1.024-.384a7.138,7.138,0,0,1-.976,2.048c-.176.24-.32.4-.512.432a5.14,5.14,0,0,1,.352.768,6.091,6.091,0,0,1,1.264-.192,10.039,10.039,0,0,1-.8.992,1.338,1.338,0,0,1-.752.56,3.412,3.412,0,0,1,.368.784,10.848,10.848,0,0,1,2.7-.5c.064.192.128.368.16.512Zm-1.5,2.672a8.746,8.746,0,0,0-.352-1.936l-.816.224a9.921,9.921,0,0,1,.32,2ZM27.68,11.32a5.2,5.2,0,0,1-.528,1.808,4.747,4.747,0,0,1,.768.56,6.8,6.8,0,0,0,.656-2.128Zm-.288-4.288H25.776l.64-.16A10.28,10.28,0,0,0,25.84,5.64L24.592,5.9a7.79,7.79,0,0,1,.48,1.136h-1.5v.992h3.824Zm-.32,2.64h-3.04v.864h3.04ZM25.12,11.816h.8v.7h-.8Zm-1.1,1.536h3.056V10.968H24.016ZM27.072,8.44h-3.04V9.3h3.04ZM23.84,10.632a10.843,10.843,0,0,0-.7-1.68l-.8.288c.064.128.144.272.208.416l-.912.1a13.633,13.633,0,0,0,1.712-2.336l-.976-.464a7.865,7.865,0,0,1-.384.72l-.72.032a8.271,8.271,0,0,0,.992-1.744l-1.024-.368a7.966,7.966,0,0,1-.96,2.048.838.838,0,0,1-.528.432,4.189,4.189,0,0,1,.384.752,4.247,4.247,0,0,1,1.248-.208,8.17,8.17,0,0,1-.8,1.024c-.288.3-.5.512-.752.544a5.5,5.5,0,0,1,.368.784,13.086,13.086,0,0,1,2.688-.5,5.1,5.1,0,0,1,.144.5Zm-.16,2.112A7.127,7.127,0,0,0,23.2,11.1l-.736.288A6.889,6.889,0,0,1,22.9,13.1Zm-1.312.448a7.145,7.145,0,0,0-.336-1.792l-.816.208a8.588,8.588,0,0,1,.3,1.856ZM20.16,7.256A11.586,11.586,0,0,0,17.84,5.64L16.752,6.92a10.706,10.706,0,0,1,2.24,1.76Zm-.32,4.08a10.684,10.684,0,0,0-2.384-1.5l-1.04,1.328a11.381,11.381,0,0,1,2.3,1.632ZM18.48,20.2c.624-1.552,1.28-3.392,1.792-5.1l-1.5-.96a48.82,48.82,0,0,1-1.984,5.12Zm1.648-8.8a5.408,5.408,0,0,1-.528,1.808,5.377,5.377,0,0,1,.784.56,7.364,7.364,0,0,0,.656-2.144Zm2.72,5.552.128-.512h7.088V13.8H20.992v1.056H28.3v.512H21.472a27.066,27.066,0,0,1-.72,2.736h8.1a1.612,1.612,0,0,1-.464.832,1.145,1.145,0,0,1-.688.128c-.384,0-1.456-.016-2.4-.112a3.217,3.217,0,0,1,.512,1.392c.992.032,1.952.048,2.48.032a2.518,2.518,0,0,0,1.488-.416,3.992,3.992,0,0,0,.976-2.336,4.277,4.277,0,0,0,.1-.672Zm7.136-5.568a8.846,8.846,0,0,1,.544,2.016l.8-.368a9.206,9.206,0,0,0-.576-1.936Zm4.64,2.752,1.84-2.944c.336-.64.656-1.3.944-1.92h.064c-.032.688-.1,1.76-.1,2.448v2.416Zm6.352,0H39.568V7.16H36.752l-4.416,7.168v1.6h5.04V19h2.192V15.928h1.408Zm4.832,5.088c2.256,0,4.16-1.264,4.16-3.44A2.959,2.959,0,0,0,47.6,12.872v-.08a2.805,2.805,0,0,0,1.984-2.7c0-2.032-1.552-3.152-3.84-3.152a5.253,5.253,0,0,0-3.552,1.456l1.2,1.44a3.379,3.379,0,0,1,2.24-1.056,1.415,1.415,0,0,1,1.584,1.488c0,1.056-.7,1.808-2.88,1.808v1.7c2.576,0,3.264.72,3.264,1.888,0,1.056-.816,1.648-2.016,1.648a3.761,3.761,0,0,1-2.64-1.216l-1.1,1.488A5.033,5.033,0,0,0,45.808,19.224ZM54.24,14.44c1.7,0,2.9-1.392,2.9-3.776,0-2.368-1.2-3.728-2.9-3.728s-2.88,1.36-2.88,3.728C51.36,13.048,52.544,14.44,54.24,14.44Zm0-1.328c-.688,0-1.216-.7-1.216-2.448s.528-2.4,1.216-2.4,1.232.656,1.232,2.4S54.928,13.112,54.24,13.112Zm.4,6.112h1.376L62.464,6.936H61.072Zm8.208,0c1.68,0,2.9-1.408,2.9-3.776,0-2.384-1.216-3.744-2.9-3.744s-2.88,1.36-2.88,3.744C59.968,17.816,61.168,19.224,62.848,19.224Zm0-1.344c-.688,0-1.232-.688-1.232-2.432s.544-2.416,1.232-2.416,1.232.672,1.232,2.416S63.536,17.88,62.848,17.88Z" transform="translate(492 456)" fill="#4891f2"/>
        <path id="內文p-8" data-name="內文p" d="M.773,11.422A6.224,6.224,0,0,1,2.3,6.957,5.206,5.206,0,0,1,6.258,5.344,5.484,5.484,0,0,1,9.117,6.1a4.949,4.949,0,0,1,1.941,2.113,6.864,6.864,0,0,1,.668,3.074,6.749,6.749,0,0,1-.7,3.117,4.8,4.8,0,0,1-1.992,2.082A5.692,5.692,0,0,1,6.25,17.2a5.416,5.416,0,0,1-2.891-.781,5.027,5.027,0,0,1-1.93-2.133A6.464,6.464,0,0,1,.773,11.422Zm1.563.023a4.588,4.588,0,0,0,1.113,3.262A3.662,3.662,0,0,0,6.242,15.9a3.656,3.656,0,0,0,2.816-1.2,4.865,4.865,0,0,0,1.105-3.414A5.867,5.867,0,0,0,9.691,8.84,3.632,3.632,0,0,0,8.309,7.223a3.749,3.749,0,0,0-2.043-.574A3.875,3.875,0,0,0,3.5,7.754,4.937,4.937,0,0,0,2.336,11.445ZM13.711,17V5.547h8.281V6.9H15.227v3.508h6.336V11.75H15.227v3.9h7.031V17Zm18.813-4.016,1.516.383a5.1,5.1,0,0,1-1.715,2.848,4.725,4.725,0,0,1-3.027.98,5.44,5.44,0,0,1-3.012-.754,4.707,4.707,0,0,1-1.766-2.184,7.791,7.791,0,0,1-.605-3.07A6.749,6.749,0,0,1,24.6,8.066a4.684,4.684,0,0,1,1.945-2.023,5.684,5.684,0,0,1,2.777-.691,4.7,4.7,0,0,1,2.891.875,4.544,4.544,0,0,1,1.633,2.461l-1.492.352A3.54,3.54,0,0,0,31.2,7.219a3.081,3.081,0,0,0-1.906-.57,3.7,3.7,0,0,0-2.207.633,3.342,3.342,0,0,0-1.246,1.7,6.841,6.841,0,0,0-.359,2.2A6.989,6.989,0,0,0,25.9,13.73a3.172,3.172,0,0,0,1.324,1.629,3.714,3.714,0,0,0,1.945.539,3.26,3.26,0,0,0,2.156-.734A3.758,3.758,0,0,0,32.523,12.984ZM35.906,17V5.547h3.945a9.57,9.57,0,0,1,2.039.164,3.879,3.879,0,0,1,1.68.82,4.66,4.66,0,0,1,1.355,1.957,7.682,7.682,0,0,1,.449,2.723,8,8,0,0,1-.3,2.313,5.61,5.61,0,0,1-.781,1.668,4.15,4.15,0,0,1-1.043,1.039,4.251,4.251,0,0,1-1.367.574,7.8,7.8,0,0,1-1.84.2Zm1.516-1.352h2.445a5.934,5.934,0,0,0,1.777-.211,2.543,2.543,0,0,0,1.027-.594,3.613,3.613,0,0,0,.84-1.449,7.085,7.085,0,0,0,.3-2.207,5.33,5.33,0,0,0-.59-2.762,2.969,2.969,0,0,0-1.434-1.293A5.926,5.926,0,0,0,39.828,6.9H37.422Zm23.813-3.32q0,.125-.133.125l-2.094-.031H54.672v3.859l.031,1.7a.11.11,0,0,1-.125.125h-.852a.11.11,0,0,1-.125-.125l.031-1.7V12.422H49.422l-2.078.031a.11.11,0,0,1-.125-.125V11.57a.11.11,0,0,1,.125-.125l2.078.031h4.211V5.625H50.32l-2.211.031a.11.11,0,0,1-.125-.125V4.789a.11.11,0,0,1,.125-.125L50.32,4.7h7.922l2.188-.031q.133,0,.133.125v.742q0,.125-.133.125l-2.187-.031h-3.57v5.852h4.336l2.094-.031q.133,0,.133.125Zm-1.7-5.375q0,.07-.141.188a1.239,1.239,0,0,0-.289.438,19.213,19.213,0,0,1-1.75,2.906q-.156.211-.219.211a.9.9,0,0,1-.242-.125,2.088,2.088,0,0,0-.578-.273A14.129,14.129,0,0,0,58.211,7.18a3.453,3.453,0,0,0,.242-.8,6.8,6.8,0,0,1,.945.4Q59.539,6.852,59.539,6.953ZM51.75,10.1a.331.331,0,0,1,.016.078q0,.063-.148.117l-.539.227a.755.755,0,0,1-.2.063q-.047,0-.086-.117A16.119,16.119,0,0,0,49.055,7a.136.136,0,0,1-.039-.078q0-.055.188-.148l.445-.234a.33.33,0,0,1,.133-.055q.039,0,.094.086A15.808,15.808,0,0,1,51.75,10.1ZM76.836,6.711Q76.8,7.117,76.8,7.93a53.056,53.056,0,0,1-.492,7.648,3.859,3.859,0,0,1-.719,1.859,1.654,1.654,0,0,1-1.3.555q-.508,0-1.5-.094a.542.542,0,0,1-.289-.086.775.775,0,0,1-.078-.281,2.588,2.588,0,0,0-.258-.742,11.714,11.714,0,0,0,2.094.227.859.859,0,0,0,.773-.578,4.741,4.741,0,0,0,.336-1.211A49.358,49.358,0,0,0,75.813,7.5H70.148a13.512,13.512,0,0,1-1.586,2.43q-.133.164-.211.164-.062,0-.219-.18a1.635,1.635,0,0,0-.5-.414A12.661,12.661,0,0,0,70.18,5.148a6.653,6.653,0,0,0,.32-1.43,7.873,7.873,0,0,1,.961.273q.219.078.219.2a.454.454,0,0,1-.156.273,2.617,2.617,0,0,0-.383.8q-.352.906-.562,1.344h4.211l1.9-.031Q76.836,6.57,76.836,6.711ZM68.219,12.7a2.9,2.9,0,0,0-.039.461,1.505,1.505,0,0,0,.008.164q.008.148.008.156a.276.276,0,0,1-.043.176.856.856,0,0,1-.238.145,29.63,29.63,0,0,1-3.523,1.6,3.493,3.493,0,0,0-.562.258.35.35,0,0,1-.234.125q-.109,0-.18-.156a5.634,5.634,0,0,1-.352-.914,7.457,7.457,0,0,0,1.555-.383l.625-.227V9.031H64.8l-1.453.031q-.133,0-.133-.125V8.266q0-.148.133-.148l1.453.031h.438V6.25a15.468,15.468,0,0,0-.117-2.211q.539.023,1.039.094.18.031.18.148a1.963,1.963,0,0,1-.062.273,8.29,8.29,0,0,0-.1,1.664v1.93h.2l1.438-.031q.133,0,.133.148v.672q0,.125-.133.125l-1.437-.031h-.2v4.688A18.172,18.172,0,0,0,68.219,12.7Zm6.2-.4a2.983,2.983,0,0,0-.023.4q0,.125.008.273v.055q.008.07.008.094a.267.267,0,0,1-.062.2,1.147,1.147,0,0,1-.219.133,23.89,23.89,0,0,1-3.875,1.828,1.641,1.641,0,0,0-.555.289.376.376,0,0,1-.242.125q-.109,0-.18-.156a4.333,4.333,0,0,1-.352-.93,6.669,6.669,0,0,0,1.555-.414A29.911,29.911,0,0,0,74.422,12.3Zm-.437-1.7a.11.11,0,0,1-.125.125L72.5,10.7H71.234l-1.344.031a.11.11,0,0,1-.125-.125V9.914q0-.133.125-.133l1.344.031H72.5l1.359-.031q.125,0,.125.133Zm5-3.555V5.7H86.4V6.789A15.624,15.624,0,0,0,84.23,9.883a18.842,18.842,0,0,0-1.66,3.969A14.751,14.751,0,0,0,82.031,17H80.586a14.035,14.035,0,0,1,.531-3.266,17.147,17.147,0,0,1,1.457-3.691,15.824,15.824,0,0,1,2.02-3ZM93.086,17H91.68V8.039a7.268,7.268,0,0,1-1.332.969,9.442,9.442,0,0,1-1.48.727V8.375A8.493,8.493,0,0,0,90.93,7.031,5.286,5.286,0,0,0,92.18,5.5h.906Zm3.867-8.7a3.481,3.481,0,0,1,.617-2.086,2.066,2.066,0,0,1,1.789-.859,2.32,2.32,0,0,1,1.785.77,3.234,3.234,0,0,1,.707,2.262,3.209,3.209,0,0,1-.715,2.238,2.289,2.289,0,0,1-1.762.785,2.224,2.224,0,0,1-1.73-.773A3.415,3.415,0,0,1,96.953,8.3ZM99.4,6.32a1.058,1.058,0,0,0-.871.453,2.871,2.871,0,0,0-.348,1.664,2.58,2.58,0,0,0,.352,1.551,1.07,1.07,0,0,0,1.746,0,2.853,2.853,0,0,0,.348-1.656,2.6,2.6,0,0,0-.352-1.559A1.071,1.071,0,0,0,99.4,6.32Zm.008,11.1,6.266-12.07h1.141l-6.242,12.07Zm4.953-3.109a3.477,3.477,0,0,1,.617-2.09,2.077,2.077,0,0,1,1.8-.855,2.32,2.32,0,0,1,1.785.77,3.234,3.234,0,0,1,.707,2.262,3.209,3.209,0,0,1-.715,2.238,2.3,2.3,0,0,1-1.77.785,2.22,2.22,0,0,1-1.73-.777A3.418,3.418,0,0,1,104.359,14.313Zm2.453-1.977a1.065,1.065,0,0,0-.879.453,2.871,2.871,0,0,0-.348,1.664A2.582,2.582,0,0,0,105.938,16a1.075,1.075,0,0,0,1.754,0,2.853,2.853,0,0,0,.348-1.656,2.6,2.6,0,0,0-.352-1.559A1.071,1.071,0,0,0,106.813,12.336Z" transform="translate(426 516)" fill="#c0c3c9"/>
        <g id="Group_1779" data-name="Group 1779" transform="translate(-91 99)">
          <text id="內文p-9" data-name="內文p" transform="translate(350 357)" fill="#4891f2" font-size="16" font-family="SourceHanSansTW-Bold, Source Han Sans TW" font-weight="700"><tspan x="0" y="19">生活中有「自豪」(pround)感受 </tspan></text>
        </g>
        <rect id="Rectangle_2250" data-name="Rectangle 2250" width="263.8" height="20" rx="2" transform="translate(252.075 491.5)" fill="#4d505a"/>
        <path id="Rectangle_2248" data-name="Rectangle 2248" d="M2,0H113.4a0,0,0,0,1,0,0V20a0,0,0,0,1,0,0H2a2,2,0,0,1-2-2V2A2,2,0,0,1,2,0Z" transform="translate(252.075 491.301)" fill="#4891f2"/>
        <line id="Line_358" data-name="Line 358" y2="20" transform="translate(439.5 491.5)" fill="none" stroke="#aaa" stroke-width="1" stroke-dasharray="1"/>
      </g>
      <g id="Union_7" data-name="Union 7" transform="translate(-3904.999 -11996)" fill="none">
        <path d="M4251.606,12476.212,4248,12469H4140a2,2,0,0,1-2-2v-23a2,2,0,0,1,2-2h309a2,2,0,0,1,2,2v23a2,2,0,0,1-2,2H4257l-3.605,7.211a1,1,0,0,1-1.788,0Z" stroke="none"/>
        <path d="M 4252.50048828125 12475.763671875 C 4252.50048828125 12475.763671875 4252.50048828125 12475.763671875 4252.50048828125 12475.763671875 L 4256.10546875 12468.5537109375 L 4256.3818359375 12468.0009765625 L 4257 12468.0009765625 L 4449.00048828125 12468.0009765625 C 4449.55224609375 12468.0009765625 4450.00146484375 12467.5517578125 4450.00146484375 12467 L 4450.00146484375 12444 C 4450.00146484375 12443.4482421875 4449.55224609375 12442.9990234375 4449.00048828125 12442.9990234375 L 4140.00048828125 12442.9990234375 C 4139.44873046875 12442.9990234375 4139 12443.4482421875 4139 12444 L 4139 12467 C 4139 12467.5517578125 4139.44873046875 12468.0009765625 4140.00048828125 12468.0009765625 L 4248.0009765625 12468.0009765625 L 4248.619140625 12468.0009765625 L 4248.8955078125 12468.5537109375 L 4252.50048828125 12475.763671875 M 4252.49951171875 12476.763671875 C 4252.14453125 12476.763671875 4251.78955078125 12476.580078125 4251.6064453125 12476.2119140625 L 4248.0009765625 12469.0009765625 L 4140.00048828125 12469.0009765625 C 4138.8955078125 12469.0009765625 4138 12468.10546875 4138 12467 L 4138 12444 C 4138 12442.89453125 4138.8955078125 12441.9990234375 4140.00048828125 12441.9990234375 L 4449.00048828125 12441.9990234375 C 4450.10595703125 12441.9990234375 4451.00146484375 12442.89453125 4451.00146484375 12444 L 4451.00146484375 12467 C 4451.00146484375 12468.10546875 4450.10595703125 12469.0009765625 4449.00048828125 12469.0009765625 L 4257 12469.0009765625 L 4253.39453125 12476.2119140625 C 4253.2099609375 12476.580078125 4252.8544921875 12476.763671875 4252.49951171875 12476.763671875 Z" stroke="none" fill="#4891f2"/>
      </g>
    </g>
  </g>
</svg>
