<svg xmlns="http://www.w3.org/2000/svg" width="373" height="339" viewBox="0 0 373 339">
  <g id="data6" transform="translate(7041 12983)">
    <g id="Group_1910" data-name="Group 1910" transform="translate(-7257 -13202)">
      <path id="Path_1560" data-name="Path 1560" d="M2,0H217a2,2,0,0,1,2,2V25a2,2,0,0,1-2,2H2a2,2,0,0,1-2-2V2A2,2,0,0,1,2,0Z" transform="translate(216 219)" fill="#eeeeef"/>
      <path id="內文p" d="M13.2,7.592c-.128,2.7-.288,3.808-.512,4.1a.629.629,0,0,1-.512.192c-.288,0-.88-.016-1.488-.064a4.594,4.594,0,0,1,.5,1.632,11.245,11.245,0,0,0,1.856-.032,1.6,1.6,0,0,0,1.168-.64c.432-.528.624-2.08.784-6.064.032-.208.048-.72.048-.72H6.88v1.6H9.952A10.328,10.328,0,0,1,9.584,9.4C8.992,8.888,8.256,8.312,7.7,7.864L6.688,8.872c.672.592,1.6,1.392,2.208,1.984a5.345,5.345,0,0,1-2.464,1.92A4.519,4.519,0,0,1,7.488,14.12c3.024-1.408,3.84-3.744,4.16-6.528ZM9.456,13.96a13.326,13.326,0,0,1,1.7,2.448l1.184-.816a10.494,10.494,0,0,0-1.776-2.368ZM6.272,8.088H3.5l1.072-.416A15.613,15.613,0,0,0,3.6,5.5L2,6.056a16.48,16.48,0,0,1,.832,2.032H.512v1.5h5.76Zm-.336,2.24H.976v1.44h4.96Zm-4.96,3.6h4.96V12.5H.976ZM4.3,18.056H2.528v-1.84H4.3Zm1.584-3.344H.96v5.472H2.528v-.64h3.36V18.456l1.1.464A10.538,10.538,0,0,0,8,15.24l-1.328-.384a11.269,11.269,0,0,1-.784,3.136Zm4.384,3.856c-.48,0-.56-.064-.56-.528V14.568H8.08v3.488c0,1.5.384,1.984,1.952,1.984h1.76c1.28,0,1.712-.576,1.872-2.8a5.1,5.1,0,0,1-1.456-.608c-.048,1.68-.128,1.936-.592,1.936Zm2.624-3.92a14.329,14.329,0,0,1,1.28,3.472l1.392-.512a14.681,14.681,0,0,0-1.392-3.424Zm7.9,2.224a11,11,0,0,1,.32,2.96l1.648-.208a11.11,11.11,0,0,0-.432-2.944Zm2.416-.16a13.936,13.936,0,0,1,.736,2.656l1.52-.384a12.7,12.7,0,0,0-.768-2.592Zm4.72-3.952c-.1.464-.192.912-.288,1.3H21.536a15.148,15.148,0,0,0,1.2-1.3ZM26.688,9.848c-.08.448-.176.88-.272,1.264H23.968c.272-.416.528-.832.768-1.264Zm4.4,4.208H29.376c.192-.864.4-1.984.576-2.944H28.128c.208-.88.448-1.968.608-2.928H25.6q.5-1.08.912-2.208l-1.9-.528a18.124,18.124,0,0,1-1.1,2.736h-2.32l.8-.336a11.042,11.042,0,0,0-1.232-2.336l-1.648.64a13.313,13.313,0,0,1,1.008,2.032H17.424V9.848H22.56a14.59,14.59,0,0,1-6.128,5.488A11.707,11.707,0,0,1,17.424,17c.4-.208.8-.416,1.184-.656a5.774,5.774,0,0,1-1.728,3.024l1.488.944A6.684,6.684,0,0,0,20.24,16.7l-1.456-.464c.288-.176.56-.352.816-.544h9.52c-.192,1.824-.4,2.624-.656,2.88a.687.687,0,0,1-.528.176,12.527,12.527,0,0,1-1.552-.08,4.16,4.16,0,0,1,.512,1.7,13.819,13.819,0,0,0,1.9-.032,1.7,1.7,0,0,0,1.2-.592c.5-.512.768-1.856,1.04-4.96ZM27.92,18.04a8.311,8.311,0,0,0-1.04-2.112l-1.312.448a9.06,9.06,0,0,1,.944,2.16Zm8.336-.224V16.152h7.6v1.664Zm7.6-5.072v1.648h-7.6V12.744Zm0-3.408v1.648h-7.6V9.336ZM40.4,7.512c.256-.576.512-1.2.752-1.84l-2.3-.256a18.108,18.108,0,0,1-.432,2.1h-4.1V20.376h1.936v-.8h7.6v.784h2.032V7.512ZM54.336,18.2c-1.712,0-2-.144-2-.992V13.352h7.136v.912H61.5V6.36H50.16V8.312h9.312V11.48h-9.12v5.76c0,2.288.976,2.864,3.968,2.864H59.5c2.864,0,3.568-.832,3.92-3.888a7.267,7.267,0,0,1-1.936-.72c-.208,2.3-.432,2.7-2.032,2.7Zm16.848-6.16V14.6h-3.04V12.04Zm1.888,4.384V10.232H66.288V17.64h1.856V16.424Zm6.16-9.9H64.816V8.44H75.392v9.5c0,.336-.144.448-.512.448-.384,0-1.776.016-2.912-.048a8.63,8.63,0,0,1,.784,2.016,10.8,10.8,0,0,0,3.616-.352c.752-.32,1.024-.88,1.024-2.032V8.44h1.84Zm10.656,4.656a16.313,16.313,0,0,0-2.528-3.84L85.632,8.2a16.306,16.306,0,0,1,2.384,3.968ZM86.96,14.008c-.8.32-1.616.656-2.416.992l-.288-8.656-1.984.08.32,9.344c-.8.32-1.52.576-2.128.784l.64,2.032c1.808-.752,4.176-1.76,6.288-2.7Zm8.688,4.784A34.9,34.9,0,0,0,92.1,14.68a24.731,24.731,0,0,0,1.952-8.128l-2.1-.192c-.592,6.576-2.24,10.448-7.312,12.368a11.187,11.187,0,0,1,1.52,1.68,11.424,11.424,0,0,0,4.864-3.888,28.033,28.033,0,0,1,2.992,3.856Zm9.856-5.264v2.208h-2.992V13.528Zm1.76,3.776V11.96h-6.512v6.4h1.76V17.3Zm.72-8.176H100v1.6h7.984ZM110.8,6.2H97.232V20.392h1.856V8.008h9.84V18.184c0,.256-.112.352-.384.368s-1.2.016-2.048-.032a6.471,6.471,0,0,1,.656,1.888,6.5,6.5,0,0,0,2.832-.368c.608-.3.816-.848.816-1.84Zm5.472,1.92v2.816H114.8V8.12ZM114.8,15.608V12.6h1.472v3.008Zm3.248-9.184H113.04V18.712h1.76V17.3h3.248Zm.928,9.536a22.562,22.562,0,0,1,1.84,2.688l1.664-.976a20.5,20.5,0,0,0-1.92-2.56Zm8.432-7.136V7.16h-3.6V5.448h-1.872V7.16h-3.6V8.824h3.6v1.52h-3.088v1.648h5.1V13.24h-5.6v1.648h5.6v3.44c0,.224-.08.288-.336.288-.24,0-1.12,0-1.888-.032a6.928,6.928,0,0,1,.592,1.792,7.035,7.035,0,0,0,2.672-.32c.64-.288.816-.768.816-1.68V14.888h1.536V13.24h-1.536V11.992h1.168V10.344h-3.168V8.824Zm6.288,6.352h1.232a6.114,6.114,0,0,1-.72,1.568,7.187,7.187,0,0,1-.64-1.36Zm2.08-1.312-.288.032H134.32a6.452,6.452,0,0,0,.336-.832l-1.424-.352a8.752,8.752,0,0,1-1.792,3.12,26.878,26.878,0,0,0,.24-3.744V9.768h3.232v.688l-2.688.144.064,1.168,2.624-.144c.048,1.216.528,1.76,2.24,1.76h3.472a9.4,9.4,0,0,0,1.968-.128c-.064-.4-.112-.864-.16-1.36a11.857,11.857,0,0,1-1.984.144h-3.072c-.56,0-.656-.16-.672-.528l3.712-.208-.048-1.152-3.664.208V9.768h4.3a11.743,11.743,0,0,1-.416,1.216l1.584.448a17.747,17.747,0,0,0,1.056-2.864l-1.344-.32-.3.08h-4.752v-.7h5.12V6.3h-5.12V5.464h-1.92V8.328h-5.04v3.744c0,2.112-.1,5.136-1.392,7.216a6.8,6.8,0,0,1,1.488,1.136,10.373,10.373,0,0,0,1.328-3.7c.256.272.528.576.672.752a5.483,5.483,0,0,0,.688-.784,5.862,5.862,0,0,0,.64,1.136,6.187,6.187,0,0,1-2.384,1.312,4.923,4.923,0,0,1,.832,1.312,7.958,7.958,0,0,0,2.56-1.5,7.448,7.448,0,0,0,4.72,1.168h3.968a5.141,5.141,0,0,1,.56-1.552c-.9.032-3.76.032-4.448.032a7.035,7.035,0,0,1-3.808-.8,9.232,9.232,0,0,0,1.392-3.712Zm6.016,4.192c.768,0,1.088-.4,1.184-1.712a3.406,3.406,0,0,1-1.1-.448c-.048.96-.1,1.152-.272,1.152h-.32c-.16,0-.192-.032-.192-.384v-2.72H137.28v1.088a2.71,2.71,0,0,1-1.168,2.416,6.288,6.288,0,0,1,1.168.992,3.863,3.863,0,0,0,1.488-3.12h.944v1.344c0,1.072.288,1.392,1.3,1.392Zm7.952-2.656c-.512.176-1.04.336-1.568.5V12.7h1.44V10.952h-1.44V8.136h1.712V6.36h-5.28V8.136h1.76v2.816h-1.616V12.7h1.616v3.76c-.736.208-1.392.384-1.952.528l.432,1.936c1.536-.5,3.456-1.1,5.216-1.728Zm2.464-4.832h1.648v1.376h-1.648Zm0-2.832h1.648V9.064h-1.648Zm4.832,1.328h-1.584V7.736h1.584Zm0,2.88h-1.584V10.568h1.584Zm-1.408,6.224v-1.52h3.392V14.936h-3.392V13.56h3.216V6.12H150.5v7.44h3.2v1.376h-3.312v1.712H153.7v1.52H149.28V19.9h10.288V18.168Zm14.48-9.744a10.67,10.67,0,0,1-2.64,1.872,12.821,12.821,0,0,0-1.808-1.552c.16-.112.32-.208.464-.32Zm1.776-1.76-.336.08h-3.376q.456-.432.864-.864l-2.048-.48a13.742,13.742,0,0,1-5.552,3.568,5.831,5.831,0,0,1,1.3,1.36c.512-.224.992-.464,1.456-.72a20.183,20.183,0,0,1,1.568,1.44,21.984,21.984,0,0,1-4.72,1.216,7.025,7.025,0,0,1,.88,1.68c4.608-.864,9.152-2.848,11.216-6.528Zm.448,7.664a8.549,8.549,0,0,1-2.688,2.208,15.7,15.7,0,0,0-1.872-1.584c.3-.208.624-.416.928-.624Zm1.6-1.776-.352.1H170.72c.352-.352.656-.7.976-1.072l-2.064-.48a13.51,13.51,0,0,1-6.72,4.144,5.994,5.994,0,0,1,1.168,1.472,17.4,17.4,0,0,0,2.064-.88c.576.48,1.216,1.024,1.664,1.488a26.432,26.432,0,0,1-6.928,1.264,8.007,8.007,0,0,1,.768,1.84c6.1-.576,11.344-2.256,13.6-7.12Zm5.968-7.04a16.943,16.943,0,0,1-3.552,5.984,13,13,0,0,1,1.024,1.984c.32-.352.64-.752.96-1.152v8.048h1.808V9.5a27.106,27.106,0,0,0,1.568-3.408Zm11.5,7.648h-4.1V10.408h3.344V8.552h-3.344v-2.9h-1.92v2.9h-1.328c.176-.608.336-1.216.464-1.84l-1.84-.384A14.686,14.686,0,0,1,180.8,11.56a12.3,12.3,0,0,1,1.648.912,11.29,11.29,0,0,0,.992-2.064h1.952V13.16h-4.32v1.856h4.32v5.376h1.92V15.016h4.1ZM203.792,16.7h-2.88v-.752h2.88Zm-2.88-2.9h2.88v.688h-2.88Zm-4.448-3.184V9.848h2.512v.768Zm7.04-.768v.768h-2.592V9.848Zm3.888,4.64h-1.664V12.52h-4.816v-.7h4.544V8.648h-4.544V7.992h6.112v-1.5h-6.112V5.448h-1.936v1.04h-5.968v1.5h5.968v.656H194.64v3.168h4.336v.7H194.24V13.8h4.736v.688H192.64v1.456h6.336V16.7h-4.864v1.376h4.864v.5c0,.288-.1.384-.4.4-.256,0-1.2,0-1.968-.032a5.865,5.865,0,0,1,.624,1.5,8.426,8.426,0,0,0,2.832-.272c.624-.272.848-.656.848-1.6v-.5h2.88v.656h1.936V15.944h1.664Z" transform="translate(221 219)" fill="#303236"/>
      <path id="Path_1561" data-name="Path 1561" d="M2,0H260.8a2,2,0,0,1,2,2V18a2,2,0,0,1-2,2H2a2,2,0,0,1-2-2V2A2,2,0,0,1,2,0Z" transform="translate(252.075 258)" fill="#4d505a"/>
      <path id="Path_1562" data-name="Path 1562" d="M2,0H147.7V20H2a2,2,0,0,1-2-2V2A2,2,0,0,1,2,0Z" transform="translate(252.075 258)" fill="#4891f2"/>
      <path id="Path_1564" data-name="Path 1564" d="M0,0V34" transform="translate(486.5 251.5)" fill="none" stroke="#aaa" stroke-width="1" stroke-dasharray="1"/>
      <path id="內文p-2" data-name="內文p" d="M11.344,15.176v2.56H4.56v-2.56Zm-8.736,5.2H4.56V19.56h6.784v.8h2.048V13.352H2.608Zm6.7-12.464C9.9,8.5,10.544,9.176,11.168,9.88l-6.56.208A26.3,26.3,0,0,0,8.1,6.008l-1.92-.816A21.349,21.349,0,0,1,2.784,9.544a3.3,3.3,0,0,1-1.328.928A14.567,14.567,0,0,1,2.08,12.3c.848-.288,1.984-.32,10.48-.736a14,14,0,0,1,.832,1.216l1.616-1.168A29.081,29.081,0,0,0,10.8,6.92Zm22.08,2.752a9.864,9.864,0,0,0-.72-1.712l-.784.288c.064.128.128.272.192.416l-.9.1A14.542,14.542,0,0,0,30.88,7.4L29.9,6.968c-.112.24-.24.48-.368.72L28.8,7.72a10.685,10.685,0,0,0,1.008-1.744l-1.024-.384a7.138,7.138,0,0,1-.976,2.048c-.176.24-.32.4-.512.432a5.14,5.14,0,0,1,.352.768,6.091,6.091,0,0,1,1.264-.192,10.039,10.039,0,0,1-.8.992,1.338,1.338,0,0,1-.752.56,3.412,3.412,0,0,1,.368.784,10.848,10.848,0,0,1,2.7-.5c.064.192.128.368.16.512Zm-1.5,2.672a8.746,8.746,0,0,0-.352-1.936l-.816.224a9.921,9.921,0,0,1,.32,2ZM27.68,11.32a5.2,5.2,0,0,1-.528,1.808,4.747,4.747,0,0,1,.768.56,6.8,6.8,0,0,0,.656-2.128Zm-.288-4.288H25.776l.64-.16A10.28,10.28,0,0,0,25.84,5.64L24.592,5.9a7.79,7.79,0,0,1,.48,1.136h-1.5v.992h3.824Zm-.32,2.64h-3.04v.864h3.04ZM25.12,11.816h.8v.7h-.8Zm-1.1,1.536h3.056V10.968H24.016ZM27.072,8.44h-3.04V9.3h3.04ZM23.84,10.632a10.843,10.843,0,0,0-.7-1.68l-.8.288c.064.128.144.272.208.416l-.912.1a13.633,13.633,0,0,0,1.712-2.336l-.976-.464a7.865,7.865,0,0,1-.384.72l-.72.032a8.271,8.271,0,0,0,.992-1.744l-1.024-.368a7.966,7.966,0,0,1-.96,2.048.838.838,0,0,1-.528.432,4.189,4.189,0,0,1,.384.752,4.247,4.247,0,0,1,1.248-.208,8.17,8.17,0,0,1-.8,1.024c-.288.3-.5.512-.752.544a5.5,5.5,0,0,1,.368.784,13.086,13.086,0,0,1,2.688-.5,5.1,5.1,0,0,1,.144.5Zm-.16,2.112A7.127,7.127,0,0,0,23.2,11.1l-.736.288A6.889,6.889,0,0,1,22.9,13.1Zm-1.312.448a7.145,7.145,0,0,0-.336-1.792l-.816.208a8.588,8.588,0,0,1,.3,1.856ZM20.16,7.256A11.586,11.586,0,0,0,17.84,5.64L16.752,6.92a10.706,10.706,0,0,1,2.24,1.76Zm-.32,4.08a10.684,10.684,0,0,0-2.384-1.5l-1.04,1.328a11.381,11.381,0,0,1,2.3,1.632ZM18.48,20.2c.624-1.552,1.28-3.392,1.792-5.1l-1.5-.96a48.82,48.82,0,0,1-1.984,5.12Zm1.648-8.8a5.408,5.408,0,0,1-.528,1.808,5.377,5.377,0,0,1,.784.56,7.364,7.364,0,0,0,.656-2.144Zm2.72,5.552.128-.512h7.088V13.8H20.992v1.056H28.3v.512H21.472a27.066,27.066,0,0,1-.72,2.736h8.1a1.612,1.612,0,0,1-.464.832,1.145,1.145,0,0,1-.688.128c-.384,0-1.456-.016-2.4-.112a3.217,3.217,0,0,1,.512,1.392c.992.032,1.952.048,2.48.032a2.518,2.518,0,0,0,1.488-.416,3.992,3.992,0,0,0,.976-2.336,4.277,4.277,0,0,0,.1-.672Zm7.136-5.568a8.846,8.846,0,0,1,.544,2.016l.8-.368a9.206,9.206,0,0,0-.576-1.936Zm6.432,7.84a4,4,0,0,0,4.144-4.16,3.438,3.438,0,0,0-3.648-3.76,3.062,3.062,0,0,0-1.424.336l.224-2.512h4.3V7.16H33.68L33.36,12.9l1.072.7a2.833,2.833,0,0,1,1.776-.624,1.916,1.916,0,0,1,2,2.144,1.988,1.988,0,0,1-2.1,2.176A3.68,3.68,0,0,1,33.5,16.1l-1.088,1.5A5.4,5.4,0,0,0,36.416,19.224ZM44.4,19h2.384c.192-4.64.56-7.056,3.312-10.416V7.16H42.224V9.128h5.328C45.3,12.264,44.608,14.888,44.4,19Zm9.84-4.56c1.7,0,2.9-1.392,2.9-3.776,0-2.368-1.2-3.728-2.9-3.728s-2.88,1.36-2.88,3.728C51.36,13.048,52.544,14.44,54.24,14.44Zm0-1.328c-.688,0-1.216-.7-1.216-2.448s.528-2.4,1.216-2.4,1.232.656,1.232,2.4S54.928,13.112,54.24,13.112Zm.4,6.112h1.376L62.464,6.936H61.072Zm8.208,0c1.68,0,2.9-1.408,2.9-3.776,0-2.384-1.216-3.744-2.9-3.744s-2.88,1.36-2.88,3.744C59.968,17.816,61.168,19.224,62.848,19.224Zm0-1.344c-.688,0-1.232-.688-1.232-2.432s.544-2.416,1.232-2.416,1.232.672,1.232,2.416S63.536,17.88,62.848,17.88Z" transform="translate(516 256)" fill="#4891f2"/>
      <path id="內文p-3" data-name="內文p" d="M6.16,19.224c3.136,0,5.3-2.352,5.3-6.192s-2.16-6.1-5.3-6.1-5.3,2.24-5.3,6.1C.864,16.872,3.024,19.224,6.16,19.224Zm0-2.048c-1.76,0-2.88-1.616-2.88-4.144,0-2.544,1.12-4.064,2.88-4.064s2.88,1.52,2.88,4.064C9.04,15.56,7.92,17.176,6.16,17.176ZM13.776,19h7.44V17.016H16.144V13.848H20.3V11.864h-4.16V9.128h4.9V7.16H13.776Zm14.672.224a4.792,4.792,0,0,0,3.776-1.744l-1.248-1.472a3.292,3.292,0,0,1-2.448,1.168c-1.872,0-3.088-1.552-3.088-4.128,0-2.544,1.344-4.08,3.136-4.08a3.053,3.053,0,0,1,2.176.992L32,8.456a4.83,4.83,0,0,0-3.472-1.52c-2.992,0-5.5,2.288-5.5,6.192C23.024,17.08,25.456,19.224,28.448,19.224ZM34.128,19H37.5c3.488,0,5.728-1.984,5.728-5.968,0-4-2.24-5.872-5.856-5.872H34.128ZM36.5,17.1V9.048h.736c2.208,0,3.584,1.088,3.584,3.984,0,2.88-1.376,4.064-3.584,4.064Zm22.88-3.92H53.088V8.328h5.36V6.44H45.712V8.328H51.1v4.848H44.88v1.936H51.1v5.28h1.984v-5.28h6.288ZM46.688,9.352a16.046,16.046,0,0,1,1.168,3.328l1.856-.576a14.6,14.6,0,0,0-1.28-3.264Zm9.344,3.3A31.305,31.305,0,0,0,57.792,9.3L55.76,8.792a18.959,18.959,0,0,1-1.392,3.376Zm8.256,1.808v-3.52h1.52V9.128h-1.52V5.656H62.512V9.128h-1.68v1.808h1.68v4.272c-.768.288-1.44.56-2,.752l.768,1.92c1.44-.672,3.216-1.52,4.88-2.352l-.448-1.664Zm3.344,1.856h4.88V14.68h-4.88Zm.784-4.72v1.632H72.16V11.592Zm6.928-3.744H69.616c.256-.656.48-1.3.672-1.968l-1.76-.432A15.109,15.109,0,0,1,65.84,11a11.15,11.15,0,0,1,1.584,1.008,14.791,14.791,0,0,0,1.44-2.432H73.52c-.144,5.712-.3,8.272-.8,8.784a.793.793,0,0,1-.688.256c-.464,0-1.456,0-2.592-.1a4.4,4.4,0,0,1,.656,1.856,19.86,19.86,0,0,0,2.64-.032,2.117,2.117,0,0,0,1.616-.928c.64-.88.816-3.392.992-10.656ZM79.072,19h2.384c.192-4.64.56-7.056,3.312-10.416V7.16H76.9V9.128h5.328C79.968,12.264,79.28,14.888,79.072,19Zm11.168.224c2.4,0,4-2.112,4-6.192s-1.6-6.1-4-6.1c-2.416,0-4.016,2-4.016,6.1C86.224,17.112,87.824,19.224,90.24,19.224Zm0-1.84c-1.024,0-1.792-1.024-1.792-4.352,0-3.312.768-4.272,1.792-4.272,1.008,0,1.776.96,1.776,4.272C92.016,16.36,91.248,17.384,90.24,17.384Zm8.1-2.944c1.7,0,2.9-1.392,2.9-3.776,0-2.368-1.2-3.728-2.9-3.728s-2.88,1.36-2.88,3.728C95.456,13.048,96.64,14.44,98.336,14.44Zm0-1.328c-.688,0-1.216-.7-1.216-2.448s.528-2.4,1.216-2.4,1.232.656,1.232,2.4S99.024,13.112,98.336,13.112Zm.4,6.112h1.376L106.56,6.936h-1.392Zm8.208,0c1.68,0,2.9-1.408,2.9-3.776,0-2.384-1.216-3.744-2.9-3.744s-2.88,1.36-2.88,3.744C104.064,17.816,105.264,19.224,106.944,19.224Zm0-1.344c-.688,0-1.232-.688-1.232-2.432s.544-2.416,1.232-2.416,1.232.672,1.232,2.416S107.632,17.88,106.944,17.88Z" transform="translate(428 284)" fill="#7e8391"/>
      <path id="Path_1563" data-name="Path 1563" d="M5.606,1.789a1,1,0,0,1,1.789,0l4.882,9.764A1,1,0,0,1,11.382,13H1.618a1,1,0,0,1-.894-1.447Z" transform="translate(406 255) rotate(180)" fill="#eeeeef"/>
    </g>
    <g id="Group_1909" data-name="Group 1909" transform="translate(-7257 -13204)">
      <rect id="Rectangle_2243" data-name="Rectangle 2243" width="262.8" height="20" rx="2" transform="translate(252.075 382)" fill="#4d505a"/>
      <path id="Rectangle_2241" data-name="Rectangle 2241" d="M2,0H211a0,0,0,0,1,0,0V20a0,0,0,0,1,0,0H2a2,2,0,0,1-2-2V2A2,2,0,0,1,2,0Z" transform="translate(252.075 382)" fill="#4891f2"/>
      <line id="Line_332" data-name="Line 332" y2="34" transform="translate(473.5 373.5)" fill="none" stroke="#aaa" stroke-width="1" stroke-dasharray="1"/>
      <text id="內文p-4" data-name="內文p" transform="translate(517 379)" fill="#4891f2" font-size="16" font-family="SourceHanSansTW-Bold, Source Han Sans TW" font-weight="700"><tspan x="0" y="19">台灣80% </tspan></text>
      <text id="內文p-5" data-name="內文p" transform="translate(413 407)" fill="#7e8391" font-size="16" font-family="SourceHanSansTW-Bold, Source Han Sans TW" font-weight="700"><tspan x="0" y="19">OECD平均84%</tspan></text>
      <g id="Group_1778" data-name="Group 1778" transform="translate(-97 -1)">
        <rect id="Rectangle_2244" data-name="Rectangle 2244" width="190" height="27" rx="2" transform="translate(394 344)" fill="#eeeeef"/>
        <path id="Polygon_4" data-name="Polygon 4" d="M5.606,1.789a1,1,0,0,1,1.789,0l4.882,9.764A1,1,0,0,1,11.382,13H1.618a1,1,0,0,1-.894-1.447Z" transform="translate(566 380) rotate(180)" fill="#eeeeef"/>
        <text id="內文p-6" data-name="內文p" transform="translate(400 345)" fill="#303236" font-size="16" font-family="SourceHanSansTW-Bold, Source Han Sans TW" font-weight="700"><tspan x="0" y="19">能在艱困處境中找到出路　</tspan></text>
      </g>
    </g>
    <g id="Group_1908" data-name="Group 1908" transform="translate(-7257 -13190)">
      <text id="內文p-7" data-name="內文p" transform="translate(518 489)" fill="#4891f2" font-size="16" font-family="SourceHanSansTW-Bold, Source Han Sans TW" font-weight="700"><tspan x="0" y="19">台灣43% </tspan></text>
      <text id="內文p-8" data-name="內文p" transform="translate(391 519)" fill="#7e8391" font-size="16" font-family="SourceHanSansTW-Bold, Source Han Sans TW" font-weight="700"><tspan x="0" y="19">OECD平均71%</tspan></text>
      <g id="Group_1779" data-name="Group 1779" transform="translate(-97 108)">
        <rect id="Rectangle_2244-2" data-name="Rectangle 2244" width="242" height="27" rx="2" transform="translate(434 344)" fill="#eeeeef"/>
        <path id="Polygon_4-2" data-name="Polygon 4" d="M5.606,1.789a1,1,0,0,1,1.789,0l4.882,9.764A1,1,0,0,1,11.382,13H1.618a1,1,0,0,1-.894-1.447Z" transform="translate(469 380) rotate(180)" fill="#eeeeef"/>
        <text id="內文p-9" data-name="內文p" transform="translate(440 345)" fill="#303236" font-size="16" font-family="SourceHanSansTW-Bold, Source Han Sans TW" font-weight="700"><tspan x="0" y="19">生活中有「自豪」(pround)感受 </tspan></text>
      </g>
      <rect id="Rectangle_2250" data-name="Rectangle 2250" width="263.8" height="20" rx="2" transform="translate(252.075 491.5)" fill="#4d505a"/>
      <path id="Rectangle_2248" data-name="Rectangle 2248" d="M2,0H113.4a0,0,0,0,1,0,0V20a0,0,0,0,1,0,0H2a2,2,0,0,1-2-2V2A2,2,0,0,1,2,0Z" transform="translate(252.075 491.301)" fill="#4891f2"/>
      <line id="Line_358" data-name="Line 358" y2="34" transform="translate(439.5 485.5)" fill="none" stroke="#aaa" stroke-width="1" stroke-dasharray="1"/>
    </g>
  </g>
</svg>
