<svg xmlns="http://www.w3.org/2000/svg" width="292.001" height="322.252" viewBox="0 0 292.001 322.252">
  <g id="data5_pc" transform="translate(-251.999 -214)">
    <g id="Union_3" data-name="Union 3" transform="translate(-3789 -12343)" fill="none">
      <path d="M4275.606,12591.212,4272,12584H4043a2,2,0,0,1-2-2v-23a2,2,0,0,1,2-2h252a2,2,0,0,1,2,2v23a2,2,0,0,1-2,2h-14l-3.606,7.212a1,1,0,0,1-1.789,0Z" stroke="none"/>
      <path d="M 4276.5 12590.763671875 C 4276.5 12590.763671875 4276.50048828125 12590.763671875 4276.50048828125 12590.763671875 L 4280.10595703125 12583.552734375 L 4280.38232421875 12583 L 4281.00048828125 12583 L 4295 12583 C 4295.55126953125 12583 4296 12582.5517578125 4296 12582 L 4296 12559 C 4296 12558.4482421875 4295.55126953125 12558 4295 12558 L 4042.9990234375 12558 C 4042.447265625 12558 4041.99853515625 12558.4482421875 4041.99853515625 12559 L 4041.99853515625 12582 C 4041.99853515625 12582.5517578125 4042.447265625 12583 4042.9990234375 12583 L 4272 12583 L 4272.6181640625 12583 L 4272.89453125 12583.552734375 L 4276.5 12590.763671875 C 4276.5 12590.763671875 4276.5 12590.763671875 4276.5 12590.763671875 M 4276.5 12591.763671875 C 4276.1455078125 12591.763671875 4275.79052734375 12591.580078125 4275.60595703125 12591.2119140625 L 4272 12584 L 4042.9990234375 12584 C 4041.89599609375 12584 4040.99853515625 12583.10546875 4040.99853515625 12582 L 4040.99853515625 12559 C 4040.99853515625 12557.89453125 4041.89599609375 12557 4042.9990234375 12557 L 4295 12557 C 4296.10595703125 12557 4297 12557.89453125 4297 12559 L 4297 12582 C 4297 12583.10546875 4296.10595703125 12584 4295 12584 L 4281.00048828125 12584 L 4277.39453125 12591.2119140625 C 4277.20947265625 12591.580078125 4276.85498046875 12591.763671875 4276.5 12591.763671875 Z" stroke="none" fill="#4891f2"/>
    </g>
    <path id="內文p" d="M15.2-4.64V-6.56H8.832a15.587,15.587,0,0,0,.1-1.92v-.608H13.84v-1.936H8.928v-2.528h-2v2.528H4.7c.224-.624.432-1.264.608-1.92L3.3-13.376A12.383,12.383,0,0,1,.7-8.032,13.8,13.8,0,0,1,2.56-7.008a11.937,11.937,0,0,0,1.3-2.08H6.928v.608A13.047,13.047,0,0,1,6.8-6.56H.816v1.92h5.44C5.488-2.88,3.872-1.3.512-.3A7.377,7.377,0,0,1,1.728,1.36c3.616-1.1,5.44-2.912,6.336-4.944a9.273,9.273,0,0,0,6.352,4.976A7.135,7.135,0,0,1,15.7-.416,8.207,8.207,0,0,1,9.632-4.64Zm3.168,2.064a7.1,7.1,0,0,1-2,2.928,10.732,10.732,0,0,1,1.52,1.072,10.237,10.237,0,0,0,2.288-3.552ZM28.32-8.912a16.491,16.491,0,0,1-1.008,3.92,19.029,19.029,0,0,1-1.2-3.92ZM21.472-9.984H19.2v-1.44h2.272Zm0,2.88H19.2V-8.56h2.272Zm0,2.9H19.2V-5.68h2.272Zm10-4.7V-10.7H26.688a24.618,24.618,0,0,0,.608-2.544l-1.984-.3a15.441,15.441,0,0,1-1.984,5.728v-5.1h-5.92V-2.7h5.92V-6.192c.32.256.624.528.8.688a9.047,9.047,0,0,0,.72-.976,17.722,17.722,0,0,0,1.328,3.5,8.286,8.286,0,0,1-2.7,2.3,13.226,13.226,0,0,0-1.408-1.936l-1.536.672A12.678,12.678,0,0,1,22.176.72L23.2.192a8.824,8.824,0,0,1,.7,1.232A10.565,10.565,0,0,0,27.28-1.2a9.309,9.309,0,0,0,3.088,2.576A7.329,7.329,0,0,1,31.7-.336,7.95,7.95,0,0,1,28.48-2.96a18.484,18.484,0,0,0,1.856-5.952Zm4.8-1.968v2.816H34.8V-10.88ZM34.8-3.392V-6.4h1.472v3.008Zm3.248-9.184H33.04V-.288H34.8V-1.7h3.248Zm.928,9.536a22.563,22.563,0,0,1,1.84,2.688l1.664-.976a20.5,20.5,0,0,0-1.92-2.56Zm8.432-7.136V-11.84h-3.6v-1.712H41.936v1.712h-3.6v1.664h3.6v1.52H38.848v1.648h5.1V-5.76h-5.6v1.648h5.6v3.44c0,.224-.08.288-.336.288-.24,0-1.12,0-1.888-.032a6.928,6.928,0,0,1,.592,1.792,7.035,7.035,0,0,0,2.672-.32c.64-.288.816-.768.816-1.68V-4.112h1.536V-5.76H45.808V-7.008h1.168V-8.656H43.808v-1.52ZM61.072-.832V-.16H57.68V-.832ZM56.016,1.376H57.68V.832h3.392v.544h1.744V-1.792h-6.8Zm.16-3.68h6.512V-3.28H56.176Zm6.512-2.464H56.176v.992h6.512ZM58.64-11.3a7.838,7.838,0,0,1-.336.736H55.968c.16-.24.336-.48.48-.736ZM55.6-9.248h1.776c-.144.7-.544,1.088-1.776,1.3Zm4.592,2.9c-.144-.4-.352-.9-.528-1.264L58.192-7.2c.1.256.224.56.32.848H55.584c.016-.3.016-.608.016-.88v-.352a3.415,3.415,0,0,1,.464.832c2.128-.352,2.736-1.136,2.9-2.5h.928v.624c0,1.008.192,1.568,1.344,1.568h1.1a3.232,3.232,0,0,0,.944-.1c-.064-.384-.08-.72-.112-1.1a3.865,3.865,0,0,1-.864.1h-.592c-.256,0-.272-.144-.272-.448v-.64h1.728V-10.56H60.112a13.465,13.465,0,0,0,.72-1.3l-1.184-.768-.256.064h-2.24c.112-.24.224-.5.336-.736l-1.712-.272a10.176,10.176,0,0,1-2.288,3.424v-.384H52.064v-3.008H50.32v3.008H48.64v1.76h1.68v2.752c-.736.192-1.376.336-1.936.464L48.8-3.728l1.52-.448V-.624c0,.208-.08.272-.272.272a12.618,12.618,0,0,1-1.312-.016,7.078,7.078,0,0,1,.48,1.76,4.086,4.086,0,0,0,2.208-.352c.48-.3.64-.784.64-1.664V-4.672c.5-.144,1.008-.3,1.5-.464l-.224-1.712-1.28.352V-8.768h1.3a4.15,4.15,0,0,1,.448.528l.16-.128v1.152c0,2.208-.128,5.44-1.424,7.728a5.837,5.837,0,0,1,1.424.864,16.3,16.3,0,0,0,1.584-6.768v.144h7.792v-1.1Zm8.672-1.472H75.12v.48H68.864Zm6.256-2.512v.464H68.864v-.464Zm0,1.712H68.864v-.448H75.12ZM66.512-6.24h5.072l-.528.352a5.728,5.728,0,0,1,1.456,1.072l.992-.7a4.02,4.02,0,0,0-.944-.72h4.832v1.28h1.7V-7.344H77.04v-3.872H72.592a2.709,2.709,0,0,0,.208-.5h6.176v-1.344H64.992v1.344H70.8c-.032.16-.08.336-.128.5H67.04v3.872H64.88V-4.96h1.632Zm8.416.672a11.215,11.215,0,0,1,1.52,2.048l1.392-.624a12.407,12.407,0,0,0-1.616-1.984ZM67.184-3.28A7.151,7.151,0,0,0,68.864-5.3l-1.248-.64a5.751,5.751,0,0,1-1.648,1.76ZM69.7-2.08h4.4a7.389,7.389,0,0,1-2.048.992A12.56,12.56,0,0,1,69.6-2Zm6.032-1.168-.352.08h-4.3a3.948,3.948,0,0,0,.448-.448h2.032c1.1,0,1.5-.32,1.632-1.5a4.534,4.534,0,0,1-1.216-.416c-.048.72-.16.848-.608.848H71.376c-.608,0-.72-.048-.72-.4v-.944h-1.5v.944c0,.624.112.992.48,1.2a9.955,9.955,0,0,1-1.376,1.04c-.192-.16-.352-.3-.512-.464L66.4-2.72c.176.176.352.368.528.528a12.463,12.463,0,0,1-1.664.64,4.33,4.33,0,0,1,1.1,1.184c.672-.272,1.312-.544,1.9-.832a13.561,13.561,0,0,0,1.36.72A34.168,34.168,0,0,1,64.5-.048a6.445,6.445,0,0,1,.624,1.456A30.942,30.942,0,0,0,72.112.416a31.849,31.849,0,0,0,6.432.944,7.2,7.2,0,0,1,.864-1.424,38.377,38.377,0,0,1-4.944-.48A7.129,7.129,0,0,0,76.848-2.56ZM83.1-11.136h3.008v2.192H83.1Zm1.632,5.2c.032-.432.064-.88.1-1.312h3.12v-5.568H81.376v5.568h1.6c-.128,2.656-.448,5.536-2.544,7.264A5,5,0,0,1,81.7,1.408a9.077,9.077,0,0,0,2.816-5.68h1.776c-.112,2.528-.256,3.552-.5,3.824a.576.576,0,0,1-.528.208A12.891,12.891,0,0,1,83.7-.32a3.9,3.9,0,0,1,.48,1.648,11.806,11.806,0,0,0,1.936-.048,1.674,1.674,0,0,0,1.2-.592c.448-.544.608-2.08.768-5.936,0-.224.016-.688.016-.688Zm6.272-5.68H89.152v9.008h1.856Zm1.9-1.616V-.912c0,.288-.128.384-.432.384-.336,0-1.36,0-2.4-.032a6.953,6.953,0,0,1,.656,1.968A8.5,8.5,0,0,0,93.92,1.04c.656-.3.88-.832.88-1.952v-12.32Zm9.84-.3c-.064,2.7.24,9.872-6.256,13.344A6.106,6.106,0,0,1,98.08,1.36,13.034,13.034,0,0,0,103.968-6.3a12.382,12.382,0,0,0,6.256,7.568,5.075,5.075,0,0,1,1.392-1.648c-5.584-2.464-6.56-8.5-6.784-10.656.064-.96.1-1.824.112-2.5Zm15.392,3.2v6.1h1.024l-.56.544A30.848,30.848,0,0,1,121.2-1.44l1.248-1.328c-.528-.512-1.584-1.3-2.384-1.9v-.752h6.352V-6.976h-6.352v-.96h5.92V-9.424h-5.92v-.912H126.9v-1.632h-9.328c.144-.384.288-.784.416-1.168l-1.936-.448a10.986,10.986,0,0,1-3.28,5.312,10.867,10.867,0,0,1,1.568,1.328,13.1,13.1,0,0,0,2.48-3.392ZM114.48.8a33.087,33.087,0,0,0,1.3-3.92l-1.68-.672a18.591,18.591,0,0,1-1.408,3.776ZM127.568.144c-.384-1.088-1.216-2.8-1.856-4.112l-1.792.5c.272.64.592,1.376.9,2.1a5.391,5.391,0,0,1-1.712-.672c-.08,1.3-.224,1.5-.992,1.5h-2.864c-.96,0-1.136-.08-1.136-.56v-2.48h-1.888v2.512c0,1.68.576,2.224,2.864,2.224h3.168c1.744,0,2.336-.512,2.576-2.5.32.784.608,1.552.784,2.1Zm14.944-5.92c-.192,0-.208-.1-.208-.352V-7.744h-1.072v1.6c0,.8.144,1.168.976,1.168h.56a2.52,2.52,0,0,0,.656-.064c-.032-.256-.048-.56-.064-.8a2.756,2.756,0,0,1-.624.064Zm-1.7.928V-8.224h2.272V-9.648h-2.272v-.736h-1.424v.736h-1.92v1.424h1.92v3.376ZM143.2-10.72v-1.648h-5.456a12.578,12.578,0,0,0-.432-1.312l-1.92.352c.08.272.176.624.256.96h-6v4.4c0,2.384-.08,5.808-1.12,8.192a7.154,7.154,0,0,1,1.52,1.12c1.184-2.592,1.408-6.7,1.408-9.312V-10.72Zm-8.08,5.84V-8.224h1.936V-9.648H135.12v-.736H133.7v.736h-1.744v1.424H133.7V-4.88Zm-1.856-2.848h-1.04V-7.1a2.164,2.164,0,0,1-.7,1.792,4.09,4.09,0,0,1,.912.736,3.286,3.286,0,0,0,.832-2.48ZM139.2-2.016c.272.336.592.72.912,1.088l-4.5.3a33.015,33.015,0,0,0,5.152-3.056l-1.408-.944a20.32,20.32,0,0,1-2.128,1.5l-2.384.112a19.683,19.683,0,0,0,2.528-1.584l-.976-.624h.3a1.858,1.858,0,0,0,.56-.064l-.016-.16a3.535,3.535,0,0,1,.832.688,2.985,2.985,0,0,0,.848-2.352V-7.76h-1.04v.608a2.014,2.014,0,0,1-.64,1.616c-.016-.176-.016-.336-.032-.5a1.911,1.911,0,0,1-.512.048c-.16,0-.176-.08-.176-.32v-1.36H135.52V-6.32c0,.56.08.88.432,1.024A14.29,14.29,0,0,1,133.264-3.5a3.053,3.053,0,0,1-1.04.4,12.225,12.225,0,0,1,.432,1.408,11.343,11.343,0,0,1,2.7-.3,17.132,17.132,0,0,1-1.808.912,6.146,6.146,0,0,1-1.9.7,14.908,14.908,0,0,1,.448,1.52c.592-.192,1.472-.208,9.008-.752.224.3.432.592.592.832l1.456-.768c-.608-.816-1.76-2.16-2.592-3.1Zm16.48-2.368h-5.792v-.688h5.792ZM149.888-.576v-.736h5.792v.736ZM155.68-2.5h-5.792v-.7h5.792ZM159.1-7.168v-1.5h-7.92c.1-.224.192-.464.272-.688h6.784V-10.8h-6.272c.08-.256.16-.512.224-.768a53.941,53.941,0,0,0,5.984-.576l-1.12-1.36a81.029,81.029,0,0,1-11.216.64,4.891,4.891,0,0,1,.352,1.424c1.248.016,2.576,0,3.9-.048-.048.24-.112.464-.176.688h-3.9v1.44h3.392c-.1.224-.192.464-.3.688H144.9v1.5H148.3a10.662,10.662,0,0,1-3.9,3.728A11.028,11.028,0,0,1,145.6-1.9a12.245,12.245,0,0,0,2.464-1.92V1.44h1.824V.864h5.792V1.44h1.92V-6.512h-7.488c.128-.224.256-.432.368-.656Zm15.952-3.392a13.806,13.806,0,0,0-2.368-2.544l-1.44.976a12.69,12.69,0,0,1,2.272,2.64Zm-2.048,3.872a13.3,13.3,0,0,1-1.52,2.176c-.176-.816-.336-1.744-.464-2.7h4.16V-9.024h-4.352a39.425,39.425,0,0,1-.16-4.384h-2c.016,1.456.064,2.944.192,4.384h-3.072v-2.16c.928-.192,1.808-.4,2.608-.64l-1.28-1.616a40.629,40.629,0,0,1-6.352,1.344,7.265,7.265,0,0,1,.544,1.6c.816-.1,1.7-.208,2.56-.352v1.824h-3.024v1.808h3.024v2.144c-1.264.224-2.416.4-3.328.544l.464,1.92c.848-.16,1.84-.368,2.864-.576v2.32c0,.256-.1.336-.384.336-.288.016-1.216.032-2.112-.016a7.642,7.642,0,0,1,.672,1.92,6.877,6.877,0,0,0,2.88-.368c.64-.3.864-.816.864-1.856V-3.584l2.608-.528-.144-1.728c-.816.144-1.648.3-2.464.448V-7.216h3.248a29.652,29.652,0,0,0,.816,4.288,16.3,16.3,0,0,1-3.568,2.256A8.341,8.341,0,0,1,167.552.864a16.6,16.6,0,0,0,2.96-1.952C171.2.48,172.1,1.44,173.264,1.44c1.456,0,2.048-.7,2.352-3.5a4.865,4.865,0,0,1-1.568-1.088c-.08,1.888-.272,2.656-.608,2.656-.48,0-.976-.736-1.408-1.968a15.807,15.807,0,0,0,2.656-3.5Z" transform="translate(257 233)" fill="#4891f2"/>
    <rect id="Rectangle_2239" data-name="Rectangle 2239" width="262.8" height="20" rx="2" transform="translate(252.075 253)" fill="#4d505a"/>
    <path id="內文p-2" data-name="內文p" d="M11.344-3.824v2.56H4.56v-2.56Zm-8.736,5.2H4.56V.56h6.784v.8h2.048V-5.648H2.608Zm6.7-12.464c.592.592,1.232,1.264,1.856,1.968l-6.56.208A26.3,26.3,0,0,0,8.1-12.992l-1.92-.816A21.349,21.349,0,0,1,2.784-9.456a3.3,3.3,0,0,1-1.328.928A14.567,14.567,0,0,1,2.08-6.7c.848-.288,1.984-.32,10.48-.736a14,14,0,0,1,.832,1.216l1.616-1.168A29.081,29.081,0,0,0,10.8-12.08Zm22.08,2.752a9.864,9.864,0,0,0-.72-1.712l-.784.288c.064.128.128.272.192.416l-.9.1a14.542,14.542,0,0,0,1.7-2.352l-.976-.432c-.112.24-.24.48-.368.72l-.736.032a10.685,10.685,0,0,0,1.008-1.744l-1.024-.384a7.138,7.138,0,0,1-.976,2.048c-.176.24-.32.4-.512.432a5.14,5.14,0,0,1,.352.768,6.091,6.091,0,0,1,1.264-.192,10.039,10.039,0,0,1-.8.992,1.338,1.338,0,0,1-.752.56,3.412,3.412,0,0,1,.368.784,10.848,10.848,0,0,1,2.7-.5c.064.192.128.368.16.512Zm-1.5,2.672A8.746,8.746,0,0,0,29.536-7.6l-.816.224a9.921,9.921,0,0,1,.32,2ZM27.68-7.68a5.2,5.2,0,0,1-.528,1.808,4.747,4.747,0,0,1,.768.56,6.8,6.8,0,0,0,.656-2.128Zm-.288-4.288H25.776l.64-.16a10.28,10.28,0,0,0-.576-1.232l-1.248.256a7.79,7.79,0,0,1,.48,1.136h-1.5v.992h3.824Zm-.32,2.64h-3.04v.864h3.04ZM25.12-7.184h.8v.7h-.8Zm-1.1,1.536h3.056V-8.032H24.016Zm3.056-4.912h-3.04V-9.7h3.04ZM23.84-8.368a10.843,10.843,0,0,0-.7-1.68l-.8.288c.064.128.144.272.208.416l-.912.1a13.633,13.633,0,0,0,1.712-2.336l-.976-.464a7.865,7.865,0,0,1-.384.72l-.72.032a8.271,8.271,0,0,0,.992-1.744l-1.024-.368a7.966,7.966,0,0,1-.96,2.048.838.838,0,0,1-.528.432,4.189,4.189,0,0,1,.384.752,4.247,4.247,0,0,1,1.248-.208,8.17,8.17,0,0,1-.8,1.024c-.288.3-.5.512-.752.544a5.5,5.5,0,0,1,.368.784,13.086,13.086,0,0,1,2.688-.5,5.1,5.1,0,0,1,.144.5Zm-.16,2.112A7.127,7.127,0,0,0,23.2-7.9l-.736.288A6.889,6.889,0,0,1,22.9-5.9Zm-1.312.448A7.145,7.145,0,0,0,22.032-7.6l-.816.208a8.588,8.588,0,0,1,.3,1.856ZM20.16-11.744a11.586,11.586,0,0,0-2.32-1.616l-1.088,1.28a10.706,10.706,0,0,1,2.24,1.76Zm-.32,4.08a10.684,10.684,0,0,0-2.384-1.5L16.416-7.84a11.381,11.381,0,0,1,2.3,1.632ZM18.48,1.2c.624-1.552,1.28-3.392,1.792-5.1l-1.5-.96A48.82,48.82,0,0,1,16.784.256Zm1.648-8.8A5.408,5.408,0,0,1,19.6-5.792a5.377,5.377,0,0,1,.784.56,7.364,7.364,0,0,0,.656-2.144Zm2.72,5.552.128-.512h7.088V-5.2H20.992v1.056H28.3v.512H21.472A27.066,27.066,0,0,1,20.752-.9h8.1a1.612,1.612,0,0,1-.464.832A1.145,1.145,0,0,1,27.7.064c-.384,0-1.456-.016-2.4-.112a3.217,3.217,0,0,1,.512,1.392c.992.032,1.952.048,2.48.032A2.518,2.518,0,0,0,29.776.96a3.992,3.992,0,0,0,.976-2.336,4.277,4.277,0,0,0,.1-.672Zm7.136-5.568A8.846,8.846,0,0,1,30.528-5.6l.8-.368A9.206,9.206,0,0,0,30.752-7.9ZM36.7.224c2.4,0,3.984-1.376,3.984-3.168A3.444,3.444,0,0,0,38.7-6.112v-.08a3.449,3.449,0,0,0,1.52-2.7,3.107,3.107,0,0,0-3.44-3.152c-2.064,0-3.568,1.216-3.568,3.12a3.373,3.373,0,0,0,1.568,2.816v.08a3.445,3.445,0,0,0-2.032,3.088C32.752-1.088,34.448.224,36.7.224Zm.752-6.992c-1.248-.5-2.16-1.04-2.16-2.16a1.377,1.377,0,0,1,1.44-1.472A1.508,1.508,0,0,1,38.3-8.752,2.836,2.836,0,0,1,37.456-6.768ZM36.768-1.44A1.815,1.815,0,0,1,34.784-3.2a2.847,2.847,0,0,1,1.088-2.192c1.536.624,2.624,1.136,2.624,2.368A1.552,1.552,0,0,1,36.768-1.44ZM45.9-6.064c-1.024,0-1.68-.656-1.68-2.048,0-1.456.72-2.176,1.6-2.176,1.008,0,1.824.8,2.032,2.96A2.363,2.363,0,0,1,45.9-6.064ZM42.256-1.12A4.441,4.441,0,0,0,45.5.224c2.352,0,4.544-1.936,4.544-6.416,0-4.112-2.016-5.872-4.256-5.872a3.711,3.711,0,0,0-3.728,3.952c0,2.512,1.424,3.728,3.392,3.728a3.292,3.292,0,0,0,2.432-1.3C47.792-2.7,46.688-1.7,45.36-1.7a2.716,2.716,0,0,1-1.872-.832ZM54.24-4.56c1.7,0,2.9-1.392,2.9-3.776,0-2.368-1.2-3.728-2.9-3.728s-2.88,1.36-2.88,3.728C51.36-5.952,52.544-4.56,54.24-4.56Zm0-1.328c-.688,0-1.216-.7-1.216-2.448s.528-2.4,1.216-2.4,1.232.656,1.232,2.4S54.928-5.888,54.24-5.888Zm.4,6.112h1.376l6.448-12.288H61.072Zm8.208,0c1.68,0,2.9-1.408,2.9-3.776,0-2.384-1.216-3.744-2.9-3.744s-2.88,1.36-2.88,3.744C59.968-1.184,61.168.224,62.848.224Zm0-1.344c-.688,0-1.232-.688-1.232-2.432s.544-2.416,1.232-2.416S64.08-5.3,64.08-3.552,63.536-1.12,62.848-1.12Z" transform="translate(437 233)" fill="#4891f2"/>
    <path id="內文p-3" data-name="內文p" d="M5.936.208c2.944,0,5.008-2.352,5.008-6.112S8.88-11.952,5.936-11.952.928-9.664.928-5.9,2.992.208,5.936.208Zm0-1.3c-2.112,0-3.488-1.888-3.488-4.816,0-2.944,1.376-4.752,3.488-4.752,2.1,0,3.488,1.808,3.488,4.752C9.424-2.976,8.032-1.088,5.936-1.088ZM13.472,0h6.944V-1.264H14.96V-5.536h4.448V-6.8H14.96v-3.68h5.28v-1.264H13.472Zm13.84.208a4.534,4.534,0,0,0,3.6-1.68L30.1-2.4a3.565,3.565,0,0,1-2.72,1.312c-2.24,0-3.648-1.856-3.648-4.816,0-2.928,1.472-4.752,3.7-4.752a3.2,3.2,0,0,1,2.4,1.12l.8-.96a4.337,4.337,0,0,0-3.216-1.456c-2.976,0-5.2,2.3-5.2,6.1C22.208-2.048,24.4.208,27.312.208ZM33.088,0H36.1c3.536,0,5.472-2.192,5.472-5.9,0-3.728-1.936-5.84-5.536-5.84H33.088Zm1.488-1.216v-9.312H35.9c2.768,0,4.128,1.648,4.128,4.624,0,2.96-1.36,4.688-4.128,4.688Zm23.04-4.336h-6.56v-5.584H56.72V-12.3H44.208v1.168H49.84v5.584H43.376v1.168H49.84v5.6h1.216v-5.6h6.56Zm-12.288-4.48a18.724,18.724,0,0,1,1.44,3.664l1.12-.384a15.328,15.328,0,0,0-1.52-3.6Zm8.48,3.712a31.414,31.414,0,0,0,1.968-3.76l-1.248-.352A23.876,23.876,0,0,1,52.8-6.656ZM65.36-2.64h5.408V-3.712H65.36Zm.368-4.7v1.088H70.5V-7.344Zm1.424-3.392a22.725,22.725,0,0,0,.9-2.336l-1.2-.3a16.858,16.858,0,0,1-2.432,5.024V-9.376H62.56V-13.04H61.408v3.664H59.344V-8.24h2.064v5.456c-.88.4-1.7.768-2.336,1.024l.448,1.2c1.488-.72,3.472-1.7,5.328-2.608l-.32-1.088c-.656.3-1.328.624-1.968.928V-8.24h1.792a10.04,10.04,0,0,1-.752.864c.3.176.848.512,1.088.688a16.022,16.022,0,0,0,1.936-2.928H72.3C72.1-3.168,71.856-.7,71.328-.16A.793.793,0,0,1,70.64.1a23.424,23.424,0,0,1-2.416-.112A2.991,2.991,0,0,1,68.608,1.2a18.479,18.479,0,0,0,2.48.016A1.607,1.607,0,0,0,72.4.56c.64-.8.848-3.328,1.1-10.672,0-.16.016-.624.016-.624ZM78.656.208A3.809,3.809,0,0,0,82.5-3.824c0-2.576-1.584-3.728-3.536-3.728a3.411,3.411,0,0,0-1.744.464L77.5-10.48h4.432v-1.264H76.224l-.368,5.5.784.48a3.191,3.191,0,0,1,1.952-.688,2.373,2.373,0,0,1,2.432,2.672,2.535,2.535,0,0,1-2.5,2.768,3.858,3.858,0,0,1-2.88-1.3l-.72.96A4.982,4.982,0,0,0,78.656.208Zm9.392-6.4c1.424,0,2.128,1.008,2.128,2.592,0,1.6-.88,2.672-2,2.672-1.472,0-2.352-1.328-2.528-3.76A3.032,3.032,0,0,1,88.048-6.192Zm.128,6.4A3.522,3.522,0,0,0,91.536-3.6c0-2.448-1.264-3.68-3.248-3.68a3.648,3.648,0,0,0-2.672,1.424c.064-3.648,1.424-4.88,3.024-4.88a2.48,2.48,0,0,1,1.888.9l.8-.912a3.6,3.6,0,0,0-2.736-1.2c-2.272,0-4.336,1.76-4.336,6.352C84.256-1.728,85.92.208,88.176.208ZM95.52-4.544c1.616,0,2.672-1.36,2.672-3.728,0-2.352-1.056-3.68-2.672-3.68-1.6,0-2.656,1.328-2.656,3.68C92.864-5.9,93.92-4.544,95.52-4.544Zm0-.912c-.912,0-1.552-.944-1.552-2.816s.64-2.784,1.552-2.784c.928,0,1.568.912,1.568,2.784S96.448-5.456,95.52-5.456ZM95.872.208h.976l6.48-12.16h-.992Zm7.824,0c1.6,0,2.656-1.344,2.656-3.712,0-2.352-1.056-3.68-2.656-3.68s-2.672,1.328-2.672,3.68C101.024-1.136,102.1.208,103.7.208Zm0-.9c-.928,0-1.552-.944-1.552-2.816s.624-2.784,1.552-2.784c.912,0,1.552.912,1.552,2.784S104.608-.688,103.7-.688Z" transform="translate(343 294)" fill="#7e8391"/>
    <path id="Rectangle_2251" data-name="Rectangle 2251" d="M2,0H234.8a0,0,0,0,1,0,0V20a0,0,0,0,1,0,0H2a2,2,0,0,1-2-2V2A2,2,0,0,1,2,0Z" transform="translate(252.075 253)" fill="#4891f2"/>
    <line id="Line_369" data-name="Line 369" y2="20" transform="translate(399.5 253.5)" fill="none" stroke="#f8f8f8" stroke-width="1" stroke-dasharray="1"/>
    <g id="Group_1780" data-name="Group 1780" transform="translate(0 -11)">
      <rect id="Rectangle_2243" data-name="Rectangle 2243" width="262.8" height="20" rx="2" transform="translate(252.075 382)" fill="#4d505a"/>
      <path id="Rectangle_2241" data-name="Rectangle 2241" d="M2,0H221.6a0,0,0,0,1,0,0V20a0,0,0,0,1,0,0H2a2,2,0,0,1-2-2V2A2,2,0,0,1,2,0Z" transform="translate(252.075 382)" fill="#4891f2"/>
      <line id="Line_332" data-name="Line 332" y2="20" transform="translate(397.5 382.5)" fill="none" stroke="#f8f8f8" stroke-width="1" stroke-dasharray="1"/>
      <path id="內文p-4" data-name="內文p" d="M5.936,19.208c2.944,0,5.008-2.352,5.008-6.112S8.88,7.048,5.936,7.048.928,9.336.928,13.1,2.992,19.208,5.936,19.208Zm0-1.3c-2.112,0-3.488-1.888-3.488-4.816,0-2.944,1.376-4.752,3.488-4.752,2.1,0,3.488,1.808,3.488,4.752C9.424,16.024,8.032,17.912,5.936,17.912ZM13.472,19h6.944V17.736H14.96V13.464h4.448V12.2H14.96V8.52h5.28V7.256H13.472Zm13.84.208a4.534,4.534,0,0,0,3.6-1.68L30.1,16.6a3.565,3.565,0,0,1-2.72,1.312c-2.24,0-3.648-1.856-3.648-4.816,0-2.928,1.472-4.752,3.7-4.752a3.2,3.2,0,0,1,2.4,1.12l.8-.96a4.337,4.337,0,0,0-3.216-1.456c-2.976,0-5.2,2.3-5.2,6.1C22.208,16.952,24.4,19.208,27.312,19.208ZM33.088,19H36.1c3.536,0,5.472-2.192,5.472-5.9,0-3.728-1.936-5.84-5.536-5.84H33.088Zm1.488-1.216V8.472H35.9c2.768,0,4.128,1.648,4.128,4.624,0,2.96-1.36,4.688-4.128,4.688Zm23.04-4.336h-6.56V7.864H56.72V6.7H44.208V7.864H49.84v5.584H43.376v1.168H49.84v5.6h1.216v-5.6h6.56ZM45.328,8.968a18.724,18.724,0,0,1,1.44,3.664l1.12-.384a15.328,15.328,0,0,0-1.52-3.6Zm8.48,3.712a31.414,31.414,0,0,0,1.968-3.76l-1.248-.352A23.876,23.876,0,0,1,52.8,12.344ZM65.36,16.36h5.408V15.288H65.36Zm.368-4.7v1.088H70.5V11.656Zm1.424-3.392a22.725,22.725,0,0,0,.9-2.336l-1.2-.3a16.858,16.858,0,0,1-2.432,5.024V9.624H62.56V5.96H61.408V9.624H59.344V10.76h2.064v5.456c-.88.4-1.7.768-2.336,1.024l.448,1.2c1.488-.72,3.472-1.7,5.328-2.608l-.32-1.088c-.656.3-1.328.624-1.968.928V10.76h1.792a10.04,10.04,0,0,1-.752.864c.3.176.848.512,1.088.688a16.022,16.022,0,0,0,1.936-2.928H72.3c-.208,6.448-.448,8.912-.976,9.456a.793.793,0,0,1-.688.256,23.424,23.424,0,0,1-2.416-.112,2.991,2.991,0,0,1,.384,1.216,18.479,18.479,0,0,0,2.48.016A1.607,1.607,0,0,0,72.4,19.56c.64-.8.848-3.328,1.1-10.672,0-.16.016-.624.016-.624Zm11.5,10.944a3.809,3.809,0,0,0,3.84-4.032c0-2.576-1.584-3.728-3.536-3.728a3.411,3.411,0,0,0-1.744.464L77.5,8.52h4.432V7.256H76.224l-.368,5.5.784.48a3.191,3.191,0,0,1,1.952-.688,2.373,2.373,0,0,1,2.432,2.672,2.535,2.535,0,0,1-2.5,2.768,3.858,3.858,0,0,1-2.88-1.3l-.72.96A4.982,4.982,0,0,0,78.656,19.208Zm8.88,0a3.809,3.809,0,0,0,3.84-4.032c0-2.576-1.584-3.728-3.536-3.728a3.411,3.411,0,0,0-1.744.464l.288-3.392h4.432V7.256H85.1l-.368,5.5.784.48a3.191,3.191,0,0,1,1.952-.688A2.373,2.373,0,0,1,89.9,15.224a2.535,2.535,0,0,1-2.5,2.768,3.858,3.858,0,0,1-2.88-1.3l-.72.96A4.982,4.982,0,0,0,87.536,19.208Zm7.984-4.752c1.616,0,2.672-1.36,2.672-3.728,0-2.352-1.056-3.68-2.672-3.68-1.6,0-2.656,1.328-2.656,3.68C92.864,13.1,93.92,14.456,95.52,14.456Zm0-.912c-.912,0-1.552-.944-1.552-2.816s.64-2.784,1.552-2.784c.928,0,1.568.912,1.568,2.784S96.448,13.544,95.52,13.544Zm.352,5.664h.976l6.48-12.16h-.992Zm7.824,0c1.6,0,2.656-1.344,2.656-3.712,0-2.352-1.056-3.68-2.656-3.68s-2.672,1.328-2.672,3.68C101.024,17.864,102.1,19.208,103.7,19.208Zm0-.9c-.928,0-1.552-.944-1.552-2.816s.624-2.784,1.552-2.784c.912,0,1.552.912,1.552,2.784S104.608,18.312,103.7,18.312Z" transform="translate(341 405)" fill="#7e8391"/>
      <g id="Group_1778" data-name="Group 1778" transform="translate(-156 -1)">
        <g id="Union_4" data-name="Union 4" transform="translate(-3730 -12221)" fill="none">
          <path d="M4359.606,12599.212,4356,12592H4140a2,2,0,0,1-2-2v-23a2,2,0,0,1,2-2h251a2,2,0,0,1,2,2v23a2,2,0,0,1-2,2h-26l-3.6,7.213a1,1,0,0,1-1.79,0Z" stroke="none"/>
          <path d="M 4360.50048828125 12598.7646484375 C 4360.5009765625 12598.7646484375 4360.50146484375 12598.7646484375 4360.50146484375 12598.7646484375 L 4364.10546875 12591.5517578125 L 4364.3818359375 12590.9990234375 L 4365 12590.9990234375 L 4391 12590.9990234375 C 4391.55078125 12590.9990234375 4391.99853515625 12590.55078125 4391.99853515625 12590 L 4391.99853515625 12566.9990234375 C 4391.99853515625 12566.4482421875 4391.55078125 12566 4391 12566 L 4139.99951171875 12566 C 4139.44873046875 12566 4139.0009765625 12566.4482421875 4139.0009765625 12566.9990234375 L 4139.0009765625 12590 C 4139.0009765625 12590.55078125 4139.44873046875 12590.9990234375 4139.99951171875 12590.9990234375 L 4355.99951171875 12590.9990234375 L 4356.61767578125 12590.9990234375 L 4356.89404296875 12591.5517578125 L 4360.50048828125 12598.7646484375 M 4360.5 12599.7646484375 C 4360.14453125 12599.7646484375 4359.78955078125 12599.580078125 4359.60595703125 12599.2119140625 L 4355.99951171875 12591.9990234375 L 4139.99951171875 12591.9990234375 C 4138.89599609375 12591.9990234375 4138.0009765625 12591.103515625 4138.0009765625 12590 L 4138.0009765625 12566.9990234375 C 4138.0009765625 12565.8955078125 4138.89599609375 12565 4139.99951171875 12565 L 4391 12565 C 4392.103515625 12565 4392.99853515625 12565.8955078125 4392.99853515625 12566.9990234375 L 4392.99853515625 12590 C 4392.99853515625 12591.103515625 4392.103515625 12591.9990234375 4391 12591.9990234375 L 4365 12591.9990234375 L 4361.39599609375 12599.2119140625 C 4361.2109375 12599.580078125 4360.85498046875 12599.7646484375 4360.5 12599.7646484375 Z" stroke="none" fill="#4891f2"/>
        </g>
        <path id="內文p-5" data-name="內文p" d="M15.2,14.36V12.44H8.832a15.587,15.587,0,0,0,.1-1.92V9.912H13.84V7.976H8.928V5.448h-2V7.976H4.7c.224-.624.432-1.264.608-1.92L3.3,5.624A12.383,12.383,0,0,1,.7,10.968,13.8,13.8,0,0,1,2.56,11.992a11.937,11.937,0,0,0,1.3-2.08H6.928v.608A13.047,13.047,0,0,1,6.8,12.44H.816v1.92h5.44C5.488,16.12,3.872,17.7.512,18.7A7.377,7.377,0,0,1,1.728,20.36c3.616-1.1,5.44-2.912,6.336-4.944a9.273,9.273,0,0,0,6.352,4.976,7.135,7.135,0,0,1,1.28-1.808A8.207,8.207,0,0,1,9.632,14.36Zm3.168,2.064a7.1,7.1,0,0,1-2,2.928,10.732,10.732,0,0,1,1.52,1.072,10.237,10.237,0,0,0,2.288-3.552Zm9.952-6.336a16.491,16.491,0,0,1-1.008,3.92,19.029,19.029,0,0,1-1.2-3.92ZM21.472,9.016H19.2V7.576h2.272Zm0,2.88H19.2V10.44h2.272Zm0,2.9H19.2V13.32h2.272Zm10-4.7V8.3H26.688A24.618,24.618,0,0,0,27.3,5.752l-1.984-.3a15.441,15.441,0,0,1-1.984,5.728v-5.1h-5.92V16.3h5.92V12.808c.32.256.624.528.8.688a9.048,9.048,0,0,0,.72-.976,17.722,17.722,0,0,0,1.328,3.5,8.286,8.286,0,0,1-2.7,2.3,13.226,13.226,0,0,0-1.408-1.936l-1.536.672a12.678,12.678,0,0,1,1.648,2.656l1.024-.528a8.824,8.824,0,0,1,.7,1.232A10.565,10.565,0,0,0,27.28,17.8a9.309,9.309,0,0,0,3.088,2.576A7.329,7.329,0,0,1,31.7,18.664,7.95,7.95,0,0,1,28.48,16.04a18.484,18.484,0,0,0,1.856-5.952Zm4.8-1.968v2.816H34.8V8.12ZM34.8,15.608V12.6h1.472v3.008Zm3.248-9.184H33.04V18.712H34.8V17.3h3.248Zm.928,9.536a22.562,22.562,0,0,1,1.84,2.688l1.664-.976a20.5,20.5,0,0,0-1.92-2.56Zm8.432-7.136V7.16h-3.6V5.448H41.936V7.16h-3.6V8.824h3.6v1.52H38.848v1.648h5.1V13.24h-5.6v1.648h5.6v3.44c0,.224-.08.288-.336.288-.24,0-1.12,0-1.888-.032a6.928,6.928,0,0,1,.592,1.792,7.035,7.035,0,0,0,2.672-.32c.64-.288.816-.768.816-1.68V14.888h1.536V13.24H45.808V11.992h1.168V10.344H43.808V8.824Zm2.448,4.464a22.367,22.367,0,0,0,.72-4.5L49.184,8.6a18.26,18.26,0,0,1-.784,4.176ZM56.528,17.8V14.744h4.528V17.8Zm4.528-7.712v2.9H56.528v-2.9ZM59.344,8.264c.256-.784.528-1.664.768-2.544L57.872,5.5a23.4,23.4,0,0,1-.48,2.768h-2.72v2.848a19.968,19.968,0,0,0-1.136-3.024l-1.072.432V5.448h-1.84V20.392h1.84V9.32a14.569,14.569,0,0,1,.784,2.512l1.424-.656v9.216h1.856V19.64h4.528v.624h1.952v-12Zm8.912,9.552V16.152h7.6v1.664Zm7.6-5.072v1.648h-7.6V12.744Zm0-3.408v1.648h-7.6V9.336ZM72.4,7.512c.256-.576.512-1.2.752-1.84l-2.3-.256a18.108,18.108,0,0,1-.432,2.1h-4.1V20.376h1.936v-.8h7.6v.784h2.032V7.512ZM86.336,18.2c-1.712,0-2-.144-2-.992V13.352h7.136v.912H93.5V6.36H82.16V8.312h9.312V11.48h-9.12v5.76c0,2.288.976,2.864,3.968,2.864H91.5c2.864,0,3.568-.832,3.92-3.888a7.267,7.267,0,0,1-1.936-.72c-.208,2.3-.432,2.7-2.032,2.7Zm15.1-4.16h5.04v1.168h-5.04Zm5.04-5.248v.992h-5.04V8.792Zm-5.04,2.576h5.04V12.44h-5.04Zm9.712,5.584V15.208h-2.736V8.792h2.336V7.048h-2.336V5.5H106.48V7.048h-5.04V5.5H99.552V7.048H97.328V8.792h2.224v6.416h-2.7v1.744h4.672a21.527,21.527,0,0,1-4.88,2.016,9.955,9.955,0,0,1,1.232,1.408,28.122,28.122,0,0,0,5.312-2.224l-1.52-1.2Zm-6.352,1.28a30.6,30.6,0,0,1,4.608,2.112l1.824-1.2a46.161,46.161,0,0,0-5.072-2.08ZM114.912,8.216H125.04V9.528h1.776V6.744h-5.84a8.585,8.585,0,0,0-.736-1.424l-1.664.464a7.632,7.632,0,0,1,.464.96H113.2V9.528h1.712Zm1.76,8.528h6.656v.512h-6.656Zm0-1.392h6.656v.5h-6.656Zm0-1.376h6.656v.464h-6.656Zm8.592,4.224V13.016H114.832V18.2h2.288a21.343,21.343,0,0,1-4.208.992,9.16,9.16,0,0,1,1.008,1.3,19.777,19.777,0,0,0,5.44-1.584l-.96-.7h2.928l-.656.72c1.84.48,3.712,1.12,4.864,1.552l1.3-1.168c-.944-.3-2.352-.72-3.76-1.1Zm-4.672-6.592.064-.512H122.7l-.048.512Zm-3.6-.512H119.1l-.064.512h-2.112Zm2.256-1.408-.048.464h-2.1l.064-.464Zm3.536.464h-2.016l.032-.464h2.016Zm1.776-.208.112-1.216h-9.056l-.16,1.216h-2.7V11.3h2.512l-.16,1.248h9.2l.128-1.248h2.9V9.944Zm16.048-1.392c-.1,1.216-.24,1.792-.432,1.984a.781.781,0,0,1-.56.16,17.311,17.311,0,0,1-1.76-.1,3.988,3.988,0,0,1,.56,1.76,20.257,20.257,0,0,0,2.08-.032,1.81,1.81,0,0,0,1.28-.576c.432-.48.64-1.632.8-4.208.032-.256.048-.7.048-.7h-5.216c.08-.384.144-.768.208-1.168l-1.968-.224c-.32,2.64-1.152,4.848-2.784,6.128a10.918,10.918,0,0,1,1.648,1.2,9.55,9.55,0,0,0,2.464-4.224Zm-7.12-1.392a11.871,11.871,0,0,0-3.008-1.648L129.44,6.92a11.749,11.749,0,0,1,2.928,1.792Zm-.96,4.24A12.772,12.772,0,0,0,129.5,9.8l-.992,1.424a13.139,13.139,0,0,1,2.96,1.744Zm-.592,2.512a50.087,50.087,0,0,1-2.9,5.024l1.632,1.248c.928-1.536,1.888-3.36,2.688-5.04Zm8.112.64a6.811,6.811,0,0,1-1.648,1.872,7.84,7.84,0,0,1-1.712-1.872Zm1.36-1.76-.336.064h-7.1v1.7h2.16l-1.232.416a10.737,10.737,0,0,0,1.92,2.464,13.837,13.837,0,0,1-4.032,1.232,6.392,6.392,0,0,1,.944,1.712,15.417,15.417,0,0,0,4.672-1.7,12.715,12.715,0,0,0,4,1.68,7.348,7.348,0,0,1,1.248-1.712,13.87,13.87,0,0,1-3.584-1.184,9.416,9.416,0,0,0,2.608-4.16Zm17.536.48V11.32h-6.1c.016-.416.032-.816.032-1.2V8.472h5.44V6.52H145.648V8.472h5.232v1.616c0,.4-.016.8-.048,1.232h-5.76v1.952h5.36c-.656,2.032-2.224,4.1-5.92,5.408a7.335,7.335,0,0,1,1.248,1.648c3.6-1.344,5.408-3.36,6.288-5.488a10.256,10.256,0,0,0,6.288,5.44,6.817,6.817,0,0,1,1.312-1.776,9.031,9.031,0,0,1-6.288-5.232Zm8.176-7.584V7.464h2.544a13.289,13.289,0,0,0,2.416,3.824h-8.288A16.576,16.576,0,0,0,166.3,6.472l-2-.48a11.3,11.3,0,0,1-3.968,5.84,12.428,12.428,0,0,1,1.6,1.408,13.511,13.511,0,0,0,1.2-1.152v1.056h2.7c-.32,2.32-1.152,4.432-4.768,5.6a6.375,6.375,0,0,1,1.264,1.76c4.144-1.552,5.184-4.288,5.584-7.36h3.152c-.144,3.328-.32,4.752-.64,5.1a.742.742,0,0,1-.64.224c-.4,0-1.232-.016-2.112-.08a4.6,4.6,0,0,1,.624,1.92,16.007,16.007,0,0,0,2.416-.048,1.9,1.9,0,0,0,1.456-.768c.56-.656.752-2.5.928-7.216a11.109,11.109,0,0,0,1.216.928,10.849,10.849,0,0,1,1.344-1.76,9.869,9.869,0,0,1-4.592-5.76Z" transform="translate(414 345)" fill="#4891f2"/>
      </g>
      <path id="內文p-6" data-name="內文p" d="M11.344,15.176v2.56H4.56v-2.56Zm-8.736,5.2H4.56V19.56h6.784v.8h2.048V13.352H2.608Zm6.7-12.464C9.9,8.5,10.544,9.176,11.168,9.88l-6.56.208A26.3,26.3,0,0,0,8.1,6.008l-1.92-.816A21.349,21.349,0,0,1,2.784,9.544a3.3,3.3,0,0,1-1.328.928A14.567,14.567,0,0,1,2.08,12.3c.848-.288,1.984-.32,10.48-.736a14,14,0,0,1,.832,1.216l1.616-1.168A29.081,29.081,0,0,0,10.8,6.92Zm22.08,2.752a9.864,9.864,0,0,0-.72-1.712l-.784.288c.064.128.128.272.192.416l-.9.1A14.542,14.542,0,0,0,30.88,7.4L29.9,6.968c-.112.24-.24.48-.368.72L28.8,7.72a10.685,10.685,0,0,0,1.008-1.744l-1.024-.384a7.138,7.138,0,0,1-.976,2.048c-.176.24-.32.4-.512.432a5.14,5.14,0,0,1,.352.768,6.091,6.091,0,0,1,1.264-.192,10.039,10.039,0,0,1-.8.992,1.338,1.338,0,0,1-.752.56,3.412,3.412,0,0,1,.368.784,10.848,10.848,0,0,1,2.7-.5c.064.192.128.368.16.512Zm-1.5,2.672a8.746,8.746,0,0,0-.352-1.936l-.816.224a9.921,9.921,0,0,1,.32,2ZM27.68,11.32a5.2,5.2,0,0,1-.528,1.808,4.747,4.747,0,0,1,.768.56,6.8,6.8,0,0,0,.656-2.128Zm-.288-4.288H25.776l.64-.16A10.28,10.28,0,0,0,25.84,5.64L24.592,5.9a7.79,7.79,0,0,1,.48,1.136h-1.5v.992h3.824Zm-.32,2.64h-3.04v.864h3.04ZM25.12,11.816h.8v.7h-.8Zm-1.1,1.536h3.056V10.968H24.016ZM27.072,8.44h-3.04V9.3h3.04ZM23.84,10.632a10.843,10.843,0,0,0-.7-1.68l-.8.288c.064.128.144.272.208.416l-.912.1a13.633,13.633,0,0,0,1.712-2.336l-.976-.464a7.865,7.865,0,0,1-.384.72l-.72.032a8.271,8.271,0,0,0,.992-1.744l-1.024-.368a7.966,7.966,0,0,1-.96,2.048.838.838,0,0,1-.528.432,4.189,4.189,0,0,1,.384.752,4.247,4.247,0,0,1,1.248-.208,8.17,8.17,0,0,1-.8,1.024c-.288.3-.5.512-.752.544a5.5,5.5,0,0,1,.368.784,13.086,13.086,0,0,1,2.688-.5,5.1,5.1,0,0,1,.144.5Zm-.16,2.112A7.127,7.127,0,0,0,23.2,11.1l-.736.288A6.889,6.889,0,0,1,22.9,13.1Zm-1.312.448a7.145,7.145,0,0,0-.336-1.792l-.816.208a8.588,8.588,0,0,1,.3,1.856ZM20.16,7.256A11.586,11.586,0,0,0,17.84,5.64L16.752,6.92a10.706,10.706,0,0,1,2.24,1.76Zm-.32,4.08a10.684,10.684,0,0,0-2.384-1.5l-1.04,1.328a11.381,11.381,0,0,1,2.3,1.632ZM18.48,20.2c.624-1.552,1.28-3.392,1.792-5.1l-1.5-.96a48.82,48.82,0,0,1-1.984,5.12Zm1.648-8.8a5.408,5.408,0,0,1-.528,1.808,5.377,5.377,0,0,1,.784.56,7.364,7.364,0,0,0,.656-2.144Zm2.72,5.552.128-.512h7.088V13.8H20.992v1.056H28.3v.512H21.472a27.066,27.066,0,0,1-.72,2.736h8.1a1.612,1.612,0,0,1-.464.832,1.145,1.145,0,0,1-.688.128c-.384,0-1.456-.016-2.4-.112a3.217,3.217,0,0,1,.512,1.392c.992.032,1.952.048,2.48.032a2.518,2.518,0,0,0,1.488-.416,3.992,3.992,0,0,0,.976-2.336,4.277,4.277,0,0,0,.1-.672Zm7.136-5.568a8.846,8.846,0,0,1,.544,2.016l.8-.368a9.206,9.206,0,0,0-.576-1.936Zm6.72,7.84c2.4,0,3.984-1.376,3.984-3.168A3.444,3.444,0,0,0,38.7,12.888v-.08a3.449,3.449,0,0,0,1.52-2.7,3.107,3.107,0,0,0-3.44-3.152c-2.064,0-3.568,1.216-3.568,3.12a3.373,3.373,0,0,0,1.568,2.816v.08a3.445,3.445,0,0,0-2.032,3.088C32.752,17.912,34.448,19.224,36.7,19.224Zm.752-6.992c-1.248-.5-2.16-1.04-2.16-2.16A1.377,1.377,0,0,1,36.736,8.6,1.508,1.508,0,0,1,38.3,10.248,2.836,2.836,0,0,1,37.456,12.232Zm-.688,5.328a1.815,1.815,0,0,1-1.984-1.76,2.847,2.847,0,0,1,1.088-2.192c1.536.624,2.624,1.136,2.624,2.368A1.552,1.552,0,0,1,36.768,17.56Zm7.28-3.424,1.84-2.944c.336-.64.656-1.3.944-1.92H46.9c-.032.688-.1,1.76-.1,2.448v2.416Zm6.352,0H48.992V7.16H46.176L41.76,14.328v1.6H46.8V19h2.192V15.928H50.4Zm3.84.3c1.7,0,2.9-1.392,2.9-3.776,0-2.368-1.2-3.728-2.9-3.728s-2.88,1.36-2.88,3.728C51.36,13.048,52.544,14.44,54.24,14.44Zm0-1.328c-.688,0-1.216-.7-1.216-2.448s.528-2.4,1.216-2.4,1.232.656,1.232,2.4S54.928,13.112,54.24,13.112Zm.4,6.112h1.376L62.464,6.936H61.072Zm8.208,0c1.68,0,2.9-1.408,2.9-3.776,0-2.384-1.216-3.744-2.9-3.744s-2.88,1.36-2.88,3.744C59.968,17.816,61.168,19.224,62.848,19.224Zm0-1.344c-.688,0-1.232-.688-1.232-2.432s.544-2.416,1.232-2.416,1.232.672,1.232,2.416S63.536,17.88,62.848,17.88Z" transform="translate(436 344)" fill="#4891f2"/>
    </g>
    <g id="Group_1781" data-name="Group 1781" transform="translate(0 1)">
      <path id="內文p-7" data-name="內文p" d="M11.344-3.824v2.56H4.56v-2.56Zm-8.736,5.2H4.56V.56h6.784v.8h2.048V-5.648H2.608Zm6.7-12.464c.592.592,1.232,1.264,1.856,1.968l-6.56.208A26.3,26.3,0,0,0,8.1-12.992l-1.92-.816A21.349,21.349,0,0,1,2.784-9.456a3.3,3.3,0,0,1-1.328.928A14.567,14.567,0,0,1,2.08-6.7c.848-.288,1.984-.32,10.48-.736a14,14,0,0,1,.832,1.216l1.616-1.168A29.081,29.081,0,0,0,10.8-12.08Zm22.08,2.752a9.864,9.864,0,0,0-.72-1.712l-.784.288c.064.128.128.272.192.416l-.9.1a14.542,14.542,0,0,0,1.7-2.352l-.976-.432c-.112.24-.24.48-.368.72l-.736.032a10.685,10.685,0,0,0,1.008-1.744l-1.024-.384a7.138,7.138,0,0,1-.976,2.048c-.176.24-.32.4-.512.432a5.14,5.14,0,0,1,.352.768,6.091,6.091,0,0,1,1.264-.192,10.039,10.039,0,0,1-.8.992,1.338,1.338,0,0,1-.752.56,3.412,3.412,0,0,1,.368.784,10.848,10.848,0,0,1,2.7-.5c.064.192.128.368.16.512Zm-1.5,2.672A8.746,8.746,0,0,0,29.536-7.6l-.816.224a9.921,9.921,0,0,1,.32,2ZM27.68-7.68a5.2,5.2,0,0,1-.528,1.808,4.747,4.747,0,0,1,.768.56,6.8,6.8,0,0,0,.656-2.128Zm-.288-4.288H25.776l.64-.16a10.28,10.28,0,0,0-.576-1.232l-1.248.256a7.79,7.79,0,0,1,.48,1.136h-1.5v.992h3.824Zm-.32,2.64h-3.04v.864h3.04ZM25.12-7.184h.8v.7h-.8Zm-1.1,1.536h3.056V-8.032H24.016Zm3.056-4.912h-3.04V-9.7h3.04ZM23.84-8.368a10.843,10.843,0,0,0-.7-1.68l-.8.288c.064.128.144.272.208.416l-.912.1a13.633,13.633,0,0,0,1.712-2.336l-.976-.464a7.865,7.865,0,0,1-.384.72l-.72.032a8.271,8.271,0,0,0,.992-1.744l-1.024-.368a7.966,7.966,0,0,1-.96,2.048.838.838,0,0,1-.528.432,4.189,4.189,0,0,1,.384.752,4.247,4.247,0,0,1,1.248-.208,8.17,8.17,0,0,1-.8,1.024c-.288.3-.5.512-.752.544a5.5,5.5,0,0,1,.368.784,13.086,13.086,0,0,1,2.688-.5,5.1,5.1,0,0,1,.144.5Zm-.16,2.112A7.127,7.127,0,0,0,23.2-7.9l-.736.288A6.889,6.889,0,0,1,22.9-5.9Zm-1.312.448A7.145,7.145,0,0,0,22.032-7.6l-.816.208a8.588,8.588,0,0,1,.3,1.856ZM20.16-11.744a11.586,11.586,0,0,0-2.32-1.616l-1.088,1.28a10.706,10.706,0,0,1,2.24,1.76Zm-.32,4.08a10.684,10.684,0,0,0-2.384-1.5L16.416-7.84a11.381,11.381,0,0,1,2.3,1.632ZM18.48,1.2c.624-1.552,1.28-3.392,1.792-5.1l-1.5-.96A48.82,48.82,0,0,1,16.784.256Zm1.648-8.8A5.408,5.408,0,0,1,19.6-5.792a5.377,5.377,0,0,1,.784.56,7.364,7.364,0,0,0,.656-2.144Zm2.72,5.552.128-.512h7.088V-5.2H20.992v1.056H28.3v.512H21.472A27.066,27.066,0,0,1,20.752-.9h8.1a1.612,1.612,0,0,1-.464.832A1.145,1.145,0,0,1,27.7.064c-.384,0-1.456-.016-2.4-.112a3.217,3.217,0,0,1,.512,1.392c.992.032,1.952.048,2.48.032A2.518,2.518,0,0,0,29.776.96a3.992,3.992,0,0,0,.976-2.336,4.277,4.277,0,0,0,.1-.672Zm7.136-5.568A8.846,8.846,0,0,1,30.528-5.6l.8-.368A9.206,9.206,0,0,0,30.752-7.9ZM34.976,0H37.36c.192-4.64.56-7.056,3.312-10.416V-11.84H32.8v1.968h5.328C35.872-6.736,35.184-4.112,34.976,0ZM44.4,0h2.384c.192-4.64.56-7.056,3.312-10.416V-11.84H42.224v1.968h5.328C45.3-6.736,44.608-4.112,44.4,0Zm9.84-4.56c1.7,0,2.9-1.392,2.9-3.776,0-2.368-1.2-3.728-2.9-3.728s-2.88,1.36-2.88,3.728C51.36-5.952,52.544-4.56,54.24-4.56Zm0-1.328c-.688,0-1.216-.7-1.216-2.448s.528-2.4,1.216-2.4,1.232.656,1.232,2.4S54.928-5.888,54.24-5.888Zm.4,6.112h1.376l6.448-12.288H61.072Zm8.208,0c1.68,0,2.9-1.408,2.9-3.776,0-2.384-1.216-3.744-2.9-3.744s-2.88,1.36-2.88,3.744C59.968-1.184,61.168.224,62.848.224Zm0-1.344c-.688,0-1.232-.688-1.232-2.432s.544-2.416,1.232-2.416S64.08-5.3,64.08-3.552,63.536-1.12,62.848-1.12Z" transform="translate(470 471)" fill="#4891f2"/>
      <path id="內文p-8" data-name="內文p" d="M5.936.208c2.944,0,5.008-2.352,5.008-6.112S8.88-11.952,5.936-11.952.928-9.664.928-5.9,2.992.208,5.936.208Zm0-1.3c-2.112,0-3.488-1.888-3.488-4.816,0-2.944,1.376-4.752,3.488-4.752,2.1,0,3.488,1.808,3.488,4.752C9.424-2.976,8.032-1.088,5.936-1.088ZM13.472,0h6.944V-1.264H14.96V-5.536h4.448V-6.8H14.96v-3.68h5.28v-1.264H13.472Zm13.84.208a4.534,4.534,0,0,0,3.6-1.68L30.1-2.4a3.565,3.565,0,0,1-2.72,1.312c-2.24,0-3.648-1.856-3.648-4.816,0-2.928,1.472-4.752,3.7-4.752a3.2,3.2,0,0,1,2.4,1.12l.8-.96a4.337,4.337,0,0,0-3.216-1.456c-2.976,0-5.2,2.3-5.2,6.1C22.208-2.048,24.4.208,27.312.208ZM33.088,0H36.1c3.536,0,5.472-2.192,5.472-5.9,0-3.728-1.936-5.84-5.536-5.84H33.088Zm1.488-1.216v-9.312H35.9c2.768,0,4.128,1.648,4.128,4.624,0,2.96-1.36,4.688-4.128,4.688Zm23.04-4.336h-6.56v-5.584H56.72V-12.3H44.208v1.168H49.84v5.584H43.376v1.168H49.84v5.6h1.216v-5.6h6.56Zm-12.288-4.48a18.724,18.724,0,0,1,1.44,3.664l1.12-.384a15.328,15.328,0,0,0-1.52-3.6Zm8.48,3.712a31.414,31.414,0,0,0,1.968-3.76l-1.248-.352A23.876,23.876,0,0,1,52.8-6.656ZM65.36-2.64h5.408V-3.712H65.36Zm.368-4.7v1.088H70.5V-7.344Zm1.424-3.392a22.725,22.725,0,0,0,.9-2.336l-1.2-.3a16.858,16.858,0,0,1-2.432,5.024V-9.376H62.56V-13.04H61.408v3.664H59.344V-8.24h2.064v5.456c-.88.4-1.7.768-2.336,1.024l.448,1.2c1.488-.72,3.472-1.7,5.328-2.608l-.32-1.088c-.656.3-1.328.624-1.968.928V-8.24h1.792a10.04,10.04,0,0,1-.752.864c.3.176.848.512,1.088.688a16.022,16.022,0,0,0,1.936-2.928H72.3C72.1-3.168,71.856-.7,71.328-.16A.793.793,0,0,1,70.64.1a23.424,23.424,0,0,1-2.416-.112A2.991,2.991,0,0,1,68.608,1.2a18.479,18.479,0,0,0,2.48.016A1.607,1.607,0,0,0,72.4.56c.64-.8.848-3.328,1.1-10.672,0-.16.016-.624.016-.624ZM78.656.208A3.809,3.809,0,0,0,82.5-3.824c0-2.576-1.584-3.728-3.536-3.728a3.411,3.411,0,0,0-1.744.464L77.5-10.48h4.432v-1.264H76.224l-.368,5.5.784.48a3.191,3.191,0,0,1,1.952-.688,2.373,2.373,0,0,1,2.432,2.672,2.535,2.535,0,0,1-2.5,2.768,3.858,3.858,0,0,1-2.88-1.3l-.72.96A4.982,4.982,0,0,0,78.656.208ZM85.2-4.4l2.672-4c.336-.576.656-1.152.944-1.728h.064C88.848-9.52,88.8-8.576,88.8-8v3.6ZM88.8,0h1.376V-3.232h1.552V-4.4H90.176v-7.344H88.56L83.68-4.192v.96H88.8Zm5.664.208A1.057,1.057,0,0,0,95.52-.9a1.075,1.075,0,0,0-1.056-1.136A1.075,1.075,0,0,0,93.408-.9,1.057,1.057,0,0,0,94.464.208Zm6.4,0a3.809,3.809,0,0,0,3.84-4.032c0-2.576-1.584-3.728-3.536-3.728a3.411,3.411,0,0,0-1.744.464l.288-3.392h4.432v-1.264H98.432l-.368,5.5.784.48a3.191,3.191,0,0,1,1.952-.688,2.373,2.373,0,0,1,2.432,2.672,2.535,2.535,0,0,1-2.5,2.768,3.858,3.858,0,0,1-2.88-1.3l-.72.96A4.982,4.982,0,0,0,100.864.208Zm7.984-4.752c1.616,0,2.672-1.36,2.672-3.728,0-2.352-1.056-3.68-2.672-3.68-1.6,0-2.656,1.328-2.656,3.68C106.192-5.9,107.248-4.544,108.848-4.544Zm0-.912c-.912,0-1.552-.944-1.552-2.816s.64-2.784,1.552-2.784c.928,0,1.568.912,1.568,2.784S109.776-5.456,108.848-5.456ZM109.2.208h.976l6.48-12.16h-.992Zm7.824,0c1.6,0,2.656-1.344,2.656-3.712,0-2.352-1.056-3.68-2.656-3.68s-2.672,1.328-2.672,3.68C114.352-1.136,115.424.208,117.024.208Zm0-.9c-.928,0-1.552-.944-1.552-2.816s.624-2.784,1.552-2.784c.912,0,1.552.912,1.552,2.784S117.936-.688,117.024-.688Z" transform="translate(329 534)" fill="#7e8391"/>
      <g id="Group_1779" data-name="Group 1779" transform="translate(-108 108)">
        <g id="Union_5" data-name="Union 5" transform="translate(-3778 -12098)" fill="none">
          <path d="M4340.6,12476.212,4337,12469H4140a2,2,0,0,1-2-2v-23a2,2,0,0,1,2-2h288a2,2,0,0,1,2,2v23a2,2,0,0,1-2,2h-82l-3.605,7.211a1,1,0,0,1-1.791,0Z" stroke="none"/>
          <path d="M 4341.5 12475.763671875 C 4341.50048828125 12475.763671875 4341.5009765625 12475.763671875 4341.50146484375 12475.763671875 L 4345.1064453125 12468.5537109375 L 4345.3828125 12468.0009765625 L 4346.0009765625 12468.0009765625 L 4427.9990234375 12468.0009765625 C 4428.55078125 12468.0009765625 4429 12467.5517578125 4429 12467 L 4429 12444 C 4429 12443.4482421875 4428.55078125 12442.9990234375 4427.9990234375 12442.9990234375 L 4140.00048828125 12442.9990234375 C 4139.44873046875 12442.9990234375 4139 12443.4482421875 4139 12444 L 4139 12467 C 4139 12467.5517578125 4139.44873046875 12468.0009765625 4140.00048828125 12468.0009765625 L 4336.99853515625 12468.0009765625 L 4337.61669921875 12468.0009765625 L 4337.89306640625 12468.5537109375 L 4341.49853515625 12475.763671875 C 4341.4990234375 12475.763671875 4341.49951171875 12475.763671875 4341.5 12475.763671875 M 4341.5 12476.763671875 C 4341.14453125 12476.763671875 4340.7890625 12476.580078125 4340.6044921875 12476.2119140625 L 4336.99853515625 12469.0009765625 L 4140.00048828125 12469.0009765625 C 4138.8955078125 12469.0009765625 4138 12468.10546875 4138 12467 L 4138 12444 C 4138 12442.89453125 4138.8955078125 12441.9990234375 4140.00048828125 12441.9990234375 L 4427.9990234375 12441.9990234375 C 4429.1044921875 12441.9990234375 4430 12442.89453125 4430 12444 L 4430 12467 C 4430 12468.10546875 4429.1044921875 12469.0009765625 4427.9990234375 12469.0009765625 L 4346.0009765625 12469.0009765625 L 4342.3955078125 12476.2119140625 C 4342.2109375 12476.580078125 4341.85546875 12476.763671875 4341.5 12476.763671875 Z" stroke="none" fill="#4891f2"/>
        </g>
        <path id="內文p-9" data-name="內文p" d="M15.2-4.64V-6.56H8.832a15.587,15.587,0,0,0,.1-1.92v-.608H13.84v-1.936H8.928v-2.528h-2v2.528H4.7c.224-.624.432-1.264.608-1.92L3.3-13.376A12.383,12.383,0,0,1,.7-8.032,13.8,13.8,0,0,1,2.56-7.008a11.937,11.937,0,0,0,1.3-2.08H6.928v.608A13.047,13.047,0,0,1,6.8-6.56H.816v1.92h5.44C5.488-2.88,3.872-1.3.512-.3A7.377,7.377,0,0,1,1.728,1.36c3.616-1.1,5.44-2.912,6.336-4.944a9.273,9.273,0,0,0,6.352,4.976A7.135,7.135,0,0,1,15.7-.416,8.207,8.207,0,0,1,9.632-4.64Zm3.168,2.064a7.1,7.1,0,0,1-2,2.928,10.732,10.732,0,0,1,1.52,1.072,10.237,10.237,0,0,0,2.288-3.552ZM28.32-8.912a16.491,16.491,0,0,1-1.008,3.92,19.029,19.029,0,0,1-1.2-3.92ZM21.472-9.984H19.2v-1.44h2.272Zm0,2.88H19.2V-8.56h2.272Zm0,2.9H19.2V-5.68h2.272Zm10-4.7V-10.7H26.688a24.618,24.618,0,0,0,.608-2.544l-1.984-.3a15.441,15.441,0,0,1-1.984,5.728v-5.1h-5.92V-2.7h5.92V-6.192c.32.256.624.528.8.688a9.047,9.047,0,0,0,.72-.976,17.722,17.722,0,0,0,1.328,3.5,8.286,8.286,0,0,1-2.7,2.3,13.226,13.226,0,0,0-1.408-1.936l-1.536.672A12.678,12.678,0,0,1,22.176.72L23.2.192a8.824,8.824,0,0,1,.7,1.232A10.565,10.565,0,0,0,27.28-1.2a9.309,9.309,0,0,0,3.088,2.576A7.329,7.329,0,0,1,31.7-.336,7.95,7.95,0,0,1,28.48-2.96a18.484,18.484,0,0,0,1.856-5.952Zm4.8-1.968v2.816H34.8V-10.88ZM34.8-3.392V-6.4h1.472v3.008Zm3.248-9.184H33.04V-.288H34.8V-1.7h3.248Zm.928,9.536a22.563,22.563,0,0,1,1.84,2.688l1.664-.976a20.5,20.5,0,0,0-1.92-2.56Zm8.432-7.136V-11.84h-3.6v-1.712H41.936v1.712h-3.6v1.664h3.6v1.52H38.848v1.648h5.1V-5.76h-5.6v1.648h5.6v3.44c0,.224-.08.288-.336.288-.24,0-1.12,0-1.888-.032a6.928,6.928,0,0,1,.592,1.792,7.035,7.035,0,0,0,2.672-.32c.64-.288.816-.768.816-1.68V-4.112h1.536V-5.76H45.808V-7.008h1.168V-8.656H43.808v-1.52ZM58.8-2.832v.64H53.216v-.64ZM53.216-.3v-.64H58.8V-.3Zm-1.872,1.68h1.872V.944H58.8v.384h1.952V-4.08H51.344Zm-.08-10.32a19.31,19.31,0,0,0,1.936-.88v.32h5.616V-9.92a17.7,17.7,0,0,0,2.176.976ZM59.872-5.76h-1.3c.256-.448.56-1.072.88-1.712l-1.248-.3h1.664Zm-7.84,0V-7.776H53.84l-1.232.352a6.319,6.319,0,0,1,.544,1.664Zm3.136,0H53.536l1.024-.32a7.239,7.239,0,0,0-.64-1.7h1.248Zm2.688-2.016a12.516,12.516,0,0,1-.624,1.744l.96.272H56.7V-7.776Zm-3.088-2.96c.48-.336.944-.688,1.36-1.04a15.627,15.627,0,0,0,1.344,1.04Zm.912-2.944c-1.456,1.856-4.3,3.184-7.248,3.872a10.21,10.21,0,0,1,1.024,1.472c.32-.08.656-.192.992-.3v4.032h11.12V-8.736c.336.1.672.208.992.288A6.541,6.541,0,0,1,63.76-9.9a15.382,15.382,0,0,1-6.64-2.88c.08-.1.16-.208.24-.3ZM68.672-9.76v1.632h1.68V-9.76h1.536v-1.392H67.536c.016-.176.016-.352.016-.512A17.8,17.8,0,0,0,71.68-12.4l-1.056-1.1a20.514,20.514,0,0,1-4.7.72v1.072a3.417,3.417,0,0,1-1.392,2.976A6.816,6.816,0,0,1,65.76-7.52a4.652,4.652,0,0,0,1.52-2.24Zm6.592,3.792H68.656v-.72h6.608Zm0,1.792H68.656v-.736h6.608Zm0,1.792H68.656V-3.1h6.608Zm1.648-5.7V-9.76h2.256v-1.392H74.032c.016-.16.016-.32.016-.48v-.08a19.332,19.332,0,0,0,4.528-.768l-1.184-1.056a20.9,20.9,0,0,1-4.944.7v1.168A3.741,3.741,0,0,1,71.3-8.672a7.935,7.935,0,0,1,1.264.848H66.832v6.592h2.112a25.614,25.614,0,0,1-4.128,1.12,12.923,12.923,0,0,1,.912,1.6A28.967,28.967,0,0,0,70.88-.624l-1.04-.608h4.144L73.408-.3a45.554,45.554,0,0,1,4.816,1.776L79.1.144c-1.008-.4-2.528-.928-4.032-1.376h2.112V-7.824H72.768A4.359,4.359,0,0,0,73.824-9.76H75.2v1.68Zm8.88-.112a6.272,6.272,0,0,0,1.472-.128c-.064-.432-.128-1.088-.176-1.584a6.775,6.775,0,0,1-1.36.128H83.776c-.416,0-.5-.176-.5-.672v-.528h3.808v-1.472H83.28v-1.024H81.44v3.008c0,1.632.448,2.272,2.224,2.272Zm-3.648,4c.208-.368.432-.8.64-1.264h.832v1.264Zm4.992,3.008c-.256-.24-1.168-.976-1.808-1.44h2.1V-4.192H85.392V-5.456h1.776V-6.992H83.312c.08-.32.16-.624.224-.944l-1.7-.32a7.756,7.756,0,0,1-1.28,3.328,10.234,10.234,0,0,1,1.344.736H80.672v1.568h2.64A5.008,5.008,0,0,1,80.56.144a6.583,6.583,0,0,1,1.248,1.248,6.849,6.849,0,0,0,2.832-2.72A17.943,17.943,0,0,1,86.048.288Zm5.056-1.488h2.624V-4.24H92.192V-6.368H93.44a10.252,10.252,0,0,1-.4,1.28L94.4-4.7a16.255,16.255,0,0,0,1.024-3.024l-1.168-.256L94-7.936H92.928l.864-.96c-.32-.208-.736-.464-1.2-.72a12.689,12.689,0,0,0,2.592-2.832l-1.136-.736-.336.1H87.888v1.472h4.56a9.153,9.153,0,0,1-1.408,1.2c-.56-.272-1.088-.5-1.568-.688L88.336-9.936a28.067,28.067,0,0,1,3.712,2h-4.48v1.568h2.944v4.992a4.637,4.637,0,0,1-.976-1.712,22.071,22.071,0,0,0,.192-2.432l-1.664-.064c-.048,2.608-.352,4.72-1.7,6.016a7.363,7.363,0,0,1,1.424,1.024A6.4,6.4,0,0,0,89.1-1.008,4.395,4.395,0,0,0,93.376,1.2h1.712a5.544,5.544,0,0,1,.48-1.536c-.48.016-1.728.016-2.064.016a6.08,6.08,0,0,1-1.312-.128Zm8.064,1.488V-2.848h7.6v1.664Zm7.6-5.072v1.648h-7.6V-6.256Zm0-3.408v1.648h-7.6V-9.664ZM104.4-11.488c.256-.576.512-1.2.752-1.84l-2.3-.256a18.108,18.108,0,0,1-.432,2.1h-4.1V1.376h1.936v-.8h7.6V1.36h2.032V-11.488ZM118.336-.8c-1.712,0-2-.144-2-.992V-5.648h7.136v.912H125.5v-7.9H114.16v1.952h9.312V-7.52h-9.12v5.76c0,2.288.976,2.864,3.968,2.864H123.5c2.864,0,3.568-.832,3.92-3.888a7.267,7.267,0,0,1-1.936-.72c-.208,2.3-.432,2.7-2.032,2.7Zm12.608-1.136V-5.072h2.544v3.136Zm2.544-4.784h-2.544V-9.312h2.544Zm5.072-4.368a18.569,18.569,0,0,0,.624-2.032l-1.808-.416a16.55,16.55,0,0,1-2.16,5.152v-2.592h-2.48c.272-.688.56-1.488.832-2.288l-2.08-.288a17.163,17.163,0,0,1-.464,2.576h-1.808V.912h1.728V-.256h4.272V-7.728a11.884,11.884,0,0,1,1.232.9,13.8,13.8,0,0,0,1.408-2.528h3.424c-.176,5.648-.384,8.048-.848,8.56a.853.853,0,0,1-.7.272c-.416,0-1.36,0-2.384-.1a4.483,4.483,0,0,1,.624,1.856A17.935,17.935,0,0,0,140.48,1.2a2.135,2.135,0,0,0,1.536-.88c.656-.848.832-3.392,1.04-10.544.016-.224.016-.864.016-.864Zm1.856,7.3a38.615,38.615,0,0,0-2.352-3.552l-1.488.848A34.238,34.238,0,0,1,138.8-2.8Zm18.752-1.536V-7.216h-6.16V-9.264h5.008v-1.888h-5.008v-2.384h-2.032v2.384h-4.864v1.888h4.864v2.048h-6.064v1.888H150.1a15.513,15.513,0,0,1-5.728,4.384A9.73,9.73,0,0,1,145.776.7a17.571,17.571,0,0,0,5.2-4.288V1.408h2.032V-3.68a16.86,16.86,0,0,0,5.2,4.4,9.067,9.067,0,0,1,1.376-1.648,15.613,15.613,0,0,1-5.7-4.4ZM163.712-9.6a7.745,7.745,0,0,1-2.832,4.64,11.4,11.4,0,0,1,1.472,1.248,8.586,8.586,0,0,0,1.84-2.192,12.953,12.953,0,0,1,1.072,1.12l1.28-1.328c-.368-.384-.976-.912-1.552-1.408a15.623,15.623,0,0,0,.576-1.728Zm11.424,4.144c-.592-.544-1.7-1.392-2.608-2.1a14.218,14.218,0,0,0,.528-1.712L171.2-9.6a7.13,7.13,0,0,1-2.016,3.856c-.08-.128-.16-.24-.24-.368V-9.7h6.032v-1.872h-6.032v-1.968h-2v1.968H161.12V-9.7h5.824V-6a14.161,14.161,0,0,1-6.48,5.152A11.742,11.742,0,0,1,161.808.784a15.435,15.435,0,0,0,5.136-3.952v4.56h2V-3.264A15.38,15.38,0,0,0,174.128.784,8.738,8.738,0,0,1,175.536-.96a14,14,0,0,1-6.112-4.464,8.9,8.9,0,0,1,1.248.816,6.713,6.713,0,0,0,1.072-1.376,21.869,21.869,0,0,1,2.064,1.856Zm8.08,3.136c-.384-.464-1.968-2.368-2.608-3.008l.032-.352h2.368V-7.408h-2.256c.016-.336.016-.656.016-.96V-9.424h2V-11.1h-2v-2.288h-1.776V-11.1h-2.08v1.68h2.08v1.04c0,.3,0,.64-.016.976h-2.32V-5.68h2.208a8.275,8.275,0,0,1-2.416,5.52,7.018,7.018,0,0,1,1.36,1.3,9.372,9.372,0,0,0,2.448-4.5c.624.816,1.28,1.792,1.664,2.416Zm2.048-4.112h3.5v.96h-3.5Zm0-2.432h3.5v.944h-3.5Zm0-2.448h3.5v.944h-3.5Zm3.9,10.752c-.24,0-.272-.048-.272-.464V-3.792h1.712v-9.2h-7.1v9.2h1.2A3.931,3.931,0,0,1,181.648,0a4.364,4.364,0,0,1,1.04,1.424c2.816-1.072,3.52-2.848,3.792-5.216h.656v2.784c0,1.584.3,2.1,1.712,2.1h1.088c1.024,0,1.472-.448,1.664-2.08a4.6,4.6,0,0,1-1.536-.656c-.048.944-.112,1.088-.336,1.088Zm3.552,1.584C194.992.944,198.4.8,201.6.656l.048-1.424c-3.28.144-6.784.256-9.056.32Zm6.64-4.352h-1.408v-.528h1.408Zm0,1.36h-1.408V-2.48h1.408ZM194.9-2.48h1.472v.512H194.9Zm0-1.376h1.472v.528H194.9Zm-1.472-.88v3.664h7.488V-4.736Zm5.808-4.688h-1.344V-10h1.344Zm-1.344-2.24h1.344v.512h-1.344Zm2.944-1.024h-2.944v-.864h-1.7v.864h-2.736v1.024h2.736v.512h-3.6V-10h3.6v.576h-2.784V-8.4h2.784v.48h-2.816v1.04h2.816v.48h-3.5v1.2H201.6V-6.4h-3.712v-.48h3.12V-7.92h-3.12V-8.4h2.944V-10h.848v-1.152h-.848Zm3.024,1.072h-1.728v9.008h1.728Zm1.28-1.616V-.816c0,.256-.1.336-.352.336-.272,0-1.056,0-1.9-.032a7.369,7.369,0,0,1,.576,1.872,5.952,5.952,0,0,0,2.7-.368c.576-.288.784-.8.784-1.808V-13.232Z" transform="translate(366 364)" fill="#4891f2"/>
      </g>
      <rect id="Rectangle_2250" data-name="Rectangle 2250" width="263.8" height="20" rx="2" transform="translate(252.075 491.5)" fill="#4d505a"/>
      <path id="Rectangle_2248" data-name="Rectangle 2248" d="M2,0H203.1a0,0,0,0,1,0,0V20a0,0,0,0,1,0,0H2a2,2,0,0,1-2-2V2A2,2,0,0,1,2,0Z" transform="translate(252.075 491.301)" fill="#4891f2"/>
      <line id="Line_358" data-name="Line 358" y2="20" transform="translate(394.5 491.5)" fill="none" stroke="#f8f8f8" stroke-width="1" stroke-dasharray="1"/>
    </g>
  </g>
</svg>
