<svg xmlns="http://www.w3.org/2000/svg" width="394.555" height="275.828" viewBox="0 0 394.555 275.828">
  <g id="data4" transform="translate(6212.353 13287.671)">
    <g id="Group_1904" data-name="Group 1904" transform="translate(-6222 -13718)">
      <g id="Group_1577" data-name="Group 1577" transform="translate(-573 -559)">
        <path id="內文p" d="M9.422,7.95h1.036V6.592h2.534v-.91H10.458V4.3H9.422V5.682h-2.1v.91h2.1ZM3.7,7.978H4.718V6.606H6.636V5.7H4.718V4.3H3.7V5.7h-2.6v.91H3.7Zm3.5,6.1a36.592,36.592,0,0,1,5.558,2.982l.518-.868A34.849,34.849,0,0,0,7.7,13.354Zm.252-4.564h3.318v2.534H7.392a7.381,7.381,0,0,0,.056-.952ZM3.29,12.052V9.518H6.412V11.1a7.381,7.381,0,0,1-.056.952Zm8.512,0V8.594H7.448V7.236H6.412V8.594H2.282v3.458H.714v.966H6.1c-.56,1.274-1.946,2.422-5.516,3.22a4.077,4.077,0,0,1,.616.854c3.99-.966,5.474-2.422,5.992-4.074h6.09v-.966Zm10.29-5.7A11.487,11.487,0,0,0,21,4.212l-1.078.308a10.911,10.911,0,0,1,1.036,2.2Zm1.834,1.414a12.843,12.843,0,0,1-2.884,4.69,14.151,14.151,0,0,1-3.052-4.69Zm3.374,0V6.746H14.756V7.768h2.156a15.772,15.772,0,0,0,3.36,5.418,15.058,15.058,0,0,1-5.712,2.9,5.8,5.8,0,0,1,.644.966,16.1,16.1,0,0,0,5.824-3.122,14.153,14.153,0,0,0,5.74,3.066,4.789,4.789,0,0,1,.714-.966,13.75,13.75,0,0,1-5.656-2.842A14.774,14.774,0,0,0,25.1,7.768Zm3.878,2.492c.364-1.162.7-2.268,1.022-3.472h.056c.336,1.19.658,2.31,1.036,3.472l.49,1.568H30.674ZM28.042,16h1.316l.994-3.136H34.1L35.084,16h1.372L32.97,5.724H31.528Zm18.186-5.32a9.3,9.3,0,0,0,2.786,6.664l.84-.434a8.755,8.755,0,0,1,0-12.46l-.84-.434A9.3,9.3,0,0,0,46.228,10.68Zm9.1-5.46A21.823,21.823,0,0,1,54.376,8.2l.672.238c.364-.728.8-1.946,1.162-2.912ZM52.78,8.146A24.953,24.953,0,0,0,52,5.22l-.77.182a26.257,26.257,0,0,1,.756,2.954Zm-.42,2.6a11.016,11.016,0,0,1-1.442,3.612,5.335,5.335,0,0,1,.5,1.022,12.527,12.527,0,0,0,1.624-4.41Zm3.5-.812v-.98H54.138V4.3H53.2V8.958H51.156v.98H53.2v7.14h.938V9.938Zm-1.554,1.218c.28.546,1.022,2.212,1.26,2.9l.714-.77c-.2-.42-1.148-2.156-1.4-2.52Zm3.556,2.9c.028-.364.042-.714.042-1.036h4.2v1.036ZM62.1,11.24v1.036H57.9V11.24Zm.98-.826H56.952V12.99a5.718,5.718,0,0,1-.924,3.57,3.369,3.369,0,0,1,.728.686,5.14,5.14,0,0,0,1.008-2.45H62.1v1.19c0,.154-.042.21-.224.21s-.742.014-1.372-.014a3.346,3.346,0,0,1,.294.868,5.3,5.3,0,0,0,1.806-.154c.378-.154.476-.406.476-.91ZM60.452,8.79V7.838H63.5V7.082H60.452V6.228h3.3v-.8h-3.3V4.3H59.43V5.43H56.28v.8h3.15v.854h-2.8v.756h2.8V8.79h-3.3v.8H63.9v-.8ZM71.68,5.346H69.3a5.712,5.712,0,0,0-.6-1.106l-.9.238a8.293,8.293,0,0,1,.42.868H65.3V6.1H71.68Zm-4.648,1.96H70.14v.952H67.032ZM71.05,8.888V6.676h-4.9V8.888Zm-4.676,8.12a7.6,7.6,0,0,0,1.54-2.534l-.952-.224a6.931,6.931,0,0,1-1.54,2.366Zm5.152-5.838c-.812.056-1.638.112-2.436.154V10.96a9.43,9.43,0,0,0,2.156-1.092L70.7,9.42l-.182.042h-4.76v.7h3.6a9.878,9.878,0,0,1-1.218.462v.756c-1.078.056-2.072.1-2.856.14l.084.784c.784-.042,1.736-.112,2.772-.168v.826c0,.14-.042.182-.224.2s-.7.014-1.372-.014a3.132,3.132,0,0,1,.294.756,6.32,6.32,0,0,0,1.792-.126c.378-.126.462-.322.462-.8v-.91l2.422-.168Zm-2.212,3.416a15.671,15.671,0,0,1,.266,2.366l1.022-.14a12.94,12.94,0,0,0-.336-2.31Zm2.884-.014a13.179,13.179,0,0,1,.77,2.366l1.008-.224a11.418,11.418,0,0,0-.826-2.324Zm2.87-.1a14.867,14.867,0,0,1,1.47,2.52l1.008-.322a13.838,13.838,0,0,0-1.526-2.45ZM74.228,6.4V4.282H73.29V6.4H71.82v.9h1.47v.1a10.882,10.882,0,0,1-.14,1.876c-.378-.28-.756-.532-1.12-.77l-.5.7c.448.308.938.644,1.4,1.008a6.236,6.236,0,0,1-2.38,3.178,3.743,3.743,0,0,1,.686.644,6.976,6.976,0,0,0,2.478-3.164,8.242,8.242,0,0,1,1.106,1.148l.56-.812A9.136,9.136,0,0,0,73.99,9.9a11.776,11.776,0,0,0,.238-2.506v-.1h1.358c.014,4.368.07,6.594,1.456,6.594.714,0,.9-.546.994-2.184a4.154,4.154,0,0,1-.644-.588c-.014,1.036-.07,1.848-.266,1.848-.616,0-.6-2.324-.574-6.566Zm8.54,4.284a9.3,9.3,0,0,0-2.786-6.664l-.84.434a8.755,8.755,0,0,1,0,12.46l.84.434A9.3,9.3,0,0,0,82.768,10.68Z" transform="translate(881 1066)" fill="#aca4a4"/>
        <path id="內文p-2" data-name="內文p" d="M7.042,16.084c-.448-.238-1.05-.532-1.694-.812A3.027,3.027,0,0,0,6.4,13.536H7.882V12.78h-1.4v-.56H5.628v.56H3.864c.154-.308.308-.6.448-.9H7.476v-1.3c.21.182.5.434.63.574A10.044,10.044,0,0,0,8.876,9.6a19.894,19.894,0,0,0,1.036,3.7,6.943,6.943,0,0,1-2.9,2.814ZM5.516,13.536a2.689,2.689,0,0,1-1.05,1.386c-.518-.21-1.05-.392-1.554-.546.168-.266.336-.546.518-.84ZM2.184,10.288H3.92v.924H2.184Zm4.368,0v.924H4.746v-.924ZM11.4,7.978a16.438,16.438,0,0,1-.966,4.27,19.112,19.112,0,0,1-1.022-4.1l.07-.168Zm-8.96.308v-.9H3.92v.9ZM3.92,5.92v.77H2.436V5.92Zm2.422,0v.77h-1.6V5.92Zm-1.6,2.366v-.9h1.6v.9Zm8.638-.308V7.04H9.758c.224-.84.434-1.722.6-2.576l-.91-.182a18.544,18.544,0,0,1-1.974,6.09V9.63H4.746V9.014H7.2V7.432h.8V6.648H7.2V5.192H4.746v-.91H3.92v.91h-2.3V6.648H.658v.784h.966V9.014h2.3V9.63H1.288v2.254H3.36c-.14.294-.28.588-.448.9H.672v.756H2.478c-.294.448-.588.9-.854,1.232a19.41,19.41,0,0,1,1.988.658,13.044,13.044,0,0,1-3.052.938,2.375,2.375,0,0,1,.448.7,12.464,12.464,0,0,0,3.57-1.232A14.416,14.416,0,0,1,6.37,16.7l.336-.308a4.439,4.439,0,0,1,.476.7,8.283,8.283,0,0,0,3.192-2.828,7.091,7.091,0,0,0,2.45,2.744,3.759,3.759,0,0,1,.672-.8,6.415,6.415,0,0,1-2.59-2.87A16.323,16.323,0,0,0,12.32,7.978Zm9.254.672a6.3,6.3,0,0,0-1.008-.77,7.962,7.962,0,0,0,.812-.9l-.728-.238a5,5,0,0,1-.7.742c-.364-.2-.728-.406-1.078-.56l-.518.462a10.291,10.291,0,0,1,1.008.546,8.416,8.416,0,0,1-1.33.77,3.612,3.612,0,0,1,.574.546,9.907,9.907,0,0,0,1.4-.91,7.634,7.634,0,0,1,1.008.812ZM22.6,6.144c-.252-.2-.588-.42-.966-.658a7.19,7.19,0,0,0,.77-.854l-.728-.2a5.963,5.963,0,0,1-.658.686c-.364-.2-.714-.378-1.05-.518l-.5.462a9.329,9.329,0,0,1,.98.5,8.438,8.438,0,0,1-1.246.714,4.385,4.385,0,0,1,.588.5,9.727,9.727,0,0,0,1.3-.84,6.928,6.928,0,0,1,.966.714Zm-6.51,3.92h9.842V11.8H26.95V9.266H25.858c.112-1.246.238-3.052.308-4.438H22.932v.714h2.226l-.042.756H23v.714h2.072L25,7.768H22.918v.714h2.03c-.028.28-.056.532-.084.784H17.192l-.056-.784h1.946V7.768H17.094l-.056-.756h1.988V6.3H17l-.056-.686A14.678,14.678,0,0,0,19.1,5.066l-.462-.644a26.2,26.2,0,0,1-2.7.686l.28,4.158h-1.12V11.8h.994Zm11.144,3.4h-5.6v-.252a14.589,14.589,0,0,0,3.164-1.736l-.63-.518-.21.056h-6.58V11.8h5.474a13,13,0,0,1-2.226,1.064v.6H14.784v.882h5.838V15.93c0,.2-.056.238-.294.252-.21,0-.994,0-1.862-.028a3.92,3.92,0,0,1,.364.882,8.377,8.377,0,0,0,2.254-.14c.434-.154.546-.392.546-.938v-1.61h5.6Zm3.948-3.206c.364-1.162.7-2.268,1.022-3.472h.056c.336,1.19.658,2.31,1.036,3.472l.49,1.568H30.674ZM28.042,16h1.316l.994-3.136H34.1L35.084,16h1.372L32.97,5.724H31.528Zm18.186-5.32a9.3,9.3,0,0,0,2.786,6.664l.84-.434a8.755,8.755,0,0,1,0-12.46l-.84-.434A9.3,9.3,0,0,0,46.228,10.68Zm9.1-5.46A21.823,21.823,0,0,1,54.376,8.2l.672.238c.364-.728.8-1.946,1.162-2.912ZM52.78,8.146A24.953,24.953,0,0,0,52,5.22l-.77.182a26.257,26.257,0,0,1,.756,2.954Zm-.42,2.6a11.016,11.016,0,0,1-1.442,3.612,5.335,5.335,0,0,1,.5,1.022,12.527,12.527,0,0,0,1.624-4.41Zm3.5-.812v-.98H54.138V4.3H53.2V8.958H51.156v.98H53.2v7.14h.938V9.938Zm-1.554,1.218c.28.546,1.022,2.212,1.26,2.9l.714-.77c-.2-.42-1.148-2.156-1.4-2.52Zm3.556,2.9c.028-.364.042-.714.042-1.036h4.2v1.036ZM62.1,11.24v1.036H57.9V11.24Zm.98-.826H56.952V12.99a5.718,5.718,0,0,1-.924,3.57,3.369,3.369,0,0,1,.728.686,5.14,5.14,0,0,0,1.008-2.45H62.1v1.19c0,.154-.042.21-.224.21s-.742.014-1.372-.014a3.346,3.346,0,0,1,.294.868,5.3,5.3,0,0,0,1.806-.154c.378-.154.476-.406.476-.91ZM60.452,8.79V7.838H63.5V7.082H60.452V6.228h3.3v-.8h-3.3V4.3H59.43V5.43H56.28v.8h3.15v.854h-2.8v.756h2.8V8.79h-3.3v.8H63.9v-.8ZM71.68,5.346H69.3a5.712,5.712,0,0,0-.6-1.106l-.9.238a8.293,8.293,0,0,1,.42.868H65.3V6.1H71.68Zm-4.648,1.96H70.14v.952H67.032ZM71.05,8.888V6.676h-4.9V8.888Zm-4.676,8.12a7.6,7.6,0,0,0,1.54-2.534l-.952-.224a6.931,6.931,0,0,1-1.54,2.366Zm5.152-5.838c-.812.056-1.638.112-2.436.154V10.96a9.43,9.43,0,0,0,2.156-1.092L70.7,9.42l-.182.042h-4.76v.7h3.6a9.878,9.878,0,0,1-1.218.462v.756c-1.078.056-2.072.1-2.856.14l.084.784c.784-.042,1.736-.112,2.772-.168v.826c0,.14-.042.182-.224.2s-.7.014-1.372-.014a3.132,3.132,0,0,1,.294.756,6.32,6.32,0,0,0,1.792-.126c.378-.126.462-.322.462-.8v-.91l2.422-.168Zm-2.212,3.416a15.671,15.671,0,0,1,.266,2.366l1.022-.14a12.94,12.94,0,0,0-.336-2.31Zm2.884-.014a13.179,13.179,0,0,1,.77,2.366l1.008-.224a11.418,11.418,0,0,0-.826-2.324Zm2.87-.1a14.867,14.867,0,0,1,1.47,2.52l1.008-.322a13.838,13.838,0,0,0-1.526-2.45ZM74.228,6.4V4.282H73.29V6.4H71.82v.9h1.47v.1a10.882,10.882,0,0,1-.14,1.876c-.378-.28-.756-.532-1.12-.77l-.5.7c.448.308.938.644,1.4,1.008a6.236,6.236,0,0,1-2.38,3.178,3.743,3.743,0,0,1,.686.644,6.976,6.976,0,0,0,2.478-3.164,8.242,8.242,0,0,1,1.106,1.148l.56-.812A9.136,9.136,0,0,0,73.99,9.9a11.776,11.776,0,0,0,.238-2.506v-.1h1.358c.014,4.368.07,6.594,1.456,6.594.714,0,.9-.546.994-2.184a4.154,4.154,0,0,1-.644-.588c-.014,1.036-.07,1.848-.266,1.848-.616,0-.6-2.324-.574-6.566Zm8.54,4.284a9.3,9.3,0,0,0-2.786-6.664l-.84.434a8.755,8.755,0,0,1,0,12.46l.84.434A9.3,9.3,0,0,0,82.768,10.68Z" transform="translate(881 1089)" fill="#aca4a4"/>
      </g>
      <path id="內文p-3" data-name="內文p" d="M9.422,7.95h1.036V6.592h2.534v-.91H10.458V4.3H9.422V5.682h-2.1v.91h2.1ZM3.7,7.978H4.718V6.606H6.636V5.7H4.718V4.3H3.7V5.7h-2.6v.91H3.7Zm3.5,6.1a36.592,36.592,0,0,1,5.558,2.982l.518-.868A34.849,34.849,0,0,0,7.7,13.354Zm.252-4.564h3.318v2.534H7.392a7.381,7.381,0,0,0,.056-.952ZM3.29,12.052V9.518H6.412V11.1a7.381,7.381,0,0,1-.056.952Zm8.512,0V8.594H7.448V7.236H6.412V8.594H2.282v3.458H.714v.966H6.1c-.56,1.274-1.946,2.422-5.516,3.22a4.077,4.077,0,0,1,.616.854c3.99-.966,5.474-2.422,5.992-4.074h6.09v-.966Zm10.29-5.7A11.487,11.487,0,0,0,21,4.212l-1.078.308a10.911,10.911,0,0,1,1.036,2.2Zm1.834,1.414a12.843,12.843,0,0,1-2.884,4.69,14.151,14.151,0,0,1-3.052-4.69Zm3.374,0V6.746H14.756V7.768h2.156a15.772,15.772,0,0,0,3.36,5.418,15.058,15.058,0,0,1-5.712,2.9,5.8,5.8,0,0,1,.644.966,16.1,16.1,0,0,0,5.824-3.122,14.153,14.153,0,0,0,5.74,3.066,4.789,4.789,0,0,1,.714-.966,13.75,13.75,0,0,1-5.656-2.842A14.774,14.774,0,0,0,25.1,7.768Zm5.978,8.414a3.967,3.967,0,0,0,3.15-1.47l-.714-.812a3.119,3.119,0,0,1-2.38,1.148c-1.96,0-3.192-1.624-3.192-4.214,0-2.562,1.288-4.158,3.234-4.158a2.8,2.8,0,0,1,2.1.98l.7-.84a3.8,3.8,0,0,0-2.814-1.274c-2.6,0-4.55,2.016-4.55,5.334S30.73,16.182,33.278,16.182Zm13.384-5.5a9.3,9.3,0,0,0,2.786,6.664l.84-.434a8.755,8.755,0,0,1,0-12.46l-.84-.434A9.3,9.3,0,0,0,46.662,10.68ZM55.2,6.1v.966H59.22v1.75H55.762V9.77h7.812V8.818h-3.3V7.068h3.948V6.1H60.27V4.352H59.22V6.1ZM54.53,4.324a10.655,10.655,0,0,1-2.94,2.87,5.3,5.3,0,0,1,.532.84A13.689,13.689,0,0,0,55.51,4.7Zm.238,3.066a12.6,12.6,0,0,1-3.388,3.78,6.768,6.768,0,0,1,.56,1.022,13.742,13.742,0,0,0,1.61-1.54v6.412h1.008v-7.6a11.938,11.938,0,0,0,1.12-1.708Zm1.708,5.782A13.817,13.817,0,0,1,58.2,15.608l.9-.532A15.879,15.879,0,0,0,57.33,12.71Zm7.77-1.848h-1.96V10.176h-1.05v1.148H55.37v.952h5.866v3.556c0,.2-.056.252-.294.266s-1.036.014-1.918-.014a3.98,3.98,0,0,1,.364.98,8.023,8.023,0,0,0,2.31-.154c.448-.168.588-.448.588-1.064v-3.57h1.96Zm7.546-4.41H68.7c.014-.8.028-1.61.028-2.436H67.7c0,.826,0,1.638-.014,2.436H65.73V7.936h1.932c-.112,3.5-.532,6.594-2.268,8.428a3.2,3.2,0,0,1,.784.714c1.89-2.044,2.366-5.39,2.492-9.142h2.114c-.1,5.362-.224,7.266-.546,7.658a.406.406,0,0,1-.462.224c-.252,0-.854,0-1.5-.056a2.658,2.658,0,0,1,.308,1.05,8.855,8.855,0,0,0,1.638-.014,1.112,1.112,0,0,0,.924-.532c.434-.6.532-2.632.644-8.82Zm2.128,7.924V7.026h2.716v7.812Zm-.98-8.82V16.854h.98V15.832h2.716v.924h1.036V6.018ZM92.134,8.412a16.9,16.9,0,0,0-2.3-2.884L89.1,5.99c.35.364.714.8,1.064,1.218l-4.074.322a19.468,19.468,0,0,0,2.086-2.9l-1.064-.266A13.9,13.9,0,0,1,85.316,7.11a1.585,1.585,0,0,1-.728.588,9.443,9.443,0,0,1,.336.91c.35-.14.924-.2,5.81-.63a10.4,10.4,0,0,1,.616.966Zm-11.4,2.87c.1-.644.182-1.372.266-2.086h3.052V5.038H79.8V6h3.29v2.24H80.164c-.112,1.274-.336,2.94-.518,3.99h3.5c-.168,2.422-.35,3.388-.616,3.654-.112.126-.252.14-.476.14s-.84,0-1.47-.056a2.138,2.138,0,0,1,.28.952,12.8,12.8,0,0,0,1.624.014,1.206,1.206,0,0,0,.91-.406c.378-.434.574-1.624.77-4.788.014-.14.028-.462.028-.462Zm5.04,1.288V10.624h1.89V12.57Zm4.844-1.946V12.57H88.676V10.624Zm1.792,6.1a12.411,12.411,0,0,0-1.792-3.01l-.854.378c.28.364.56.812.826,1.232l-1.918.126V13.438h2.912V9.756H88.676V8.4H87.668V9.756H84.854v3.682h2.814v2.086c-1.288.084-2.478.154-3.388.2l.14,1.008c1.764-.126,4.27-.308,6.678-.5a9.521,9.521,0,0,1,.406.938ZM97.2,10.68a9.3,9.3,0,0,0-2.786-6.664l-.84.434a8.755,8.755,0,0,1,0,12.46l.84.434A9.3,9.3,0,0,0,97.2,10.68Z" transform="translate(307 457)" fill="#aca4a4"/>
      <path id="內文p-4" data-name="內文p" d="M7.042,16.084c-.448-.238-1.05-.532-1.694-.812A3.027,3.027,0,0,0,6.4,13.536H7.882V12.78h-1.4v-.56H5.628v.56H3.864c.154-.308.308-.6.448-.9H7.476v-1.3c.21.182.5.434.63.574A10.044,10.044,0,0,0,8.876,9.6a19.894,19.894,0,0,0,1.036,3.7,6.943,6.943,0,0,1-2.9,2.814ZM5.516,13.536a2.689,2.689,0,0,1-1.05,1.386c-.518-.21-1.05-.392-1.554-.546.168-.266.336-.546.518-.84ZM2.184,10.288H3.92v.924H2.184Zm4.368,0v.924H4.746v-.924ZM11.4,7.978a16.438,16.438,0,0,1-.966,4.27,19.112,19.112,0,0,1-1.022-4.1l.07-.168Zm-8.96.308v-.9H3.92v.9ZM3.92,5.92v.77H2.436V5.92Zm2.422,0v.77h-1.6V5.92Zm-1.6,2.366v-.9h1.6v.9Zm8.638-.308V7.04H9.758c.224-.84.434-1.722.6-2.576l-.91-.182a18.544,18.544,0,0,1-1.974,6.09V9.63H4.746V9.014H7.2V7.432h.8V6.648H7.2V5.192H4.746v-.91H3.92v.91h-2.3V6.648H.658v.784h.966V9.014h2.3V9.63H1.288v2.254H3.36c-.14.294-.28.588-.448.9H.672v.756H2.478c-.294.448-.588.9-.854,1.232a19.41,19.41,0,0,1,1.988.658,13.044,13.044,0,0,1-3.052.938,2.375,2.375,0,0,1,.448.7,12.464,12.464,0,0,0,3.57-1.232A14.416,14.416,0,0,1,6.37,16.7l.336-.308a4.439,4.439,0,0,1,.476.7,8.283,8.283,0,0,0,3.192-2.828,7.091,7.091,0,0,0,2.45,2.744,3.759,3.759,0,0,1,.672-.8,6.415,6.415,0,0,1-2.59-2.87A16.323,16.323,0,0,0,12.32,7.978Zm9.254.672a6.3,6.3,0,0,0-1.008-.77,7.962,7.962,0,0,0,.812-.9l-.728-.238a5,5,0,0,1-.7.742c-.364-.2-.728-.406-1.078-.56l-.518.462a10.291,10.291,0,0,1,1.008.546,8.416,8.416,0,0,1-1.33.77,3.612,3.612,0,0,1,.574.546,9.907,9.907,0,0,0,1.4-.91,7.634,7.634,0,0,1,1.008.812ZM22.6,6.144c-.252-.2-.588-.42-.966-.658a7.19,7.19,0,0,0,.77-.854l-.728-.2a5.963,5.963,0,0,1-.658.686c-.364-.2-.714-.378-1.05-.518l-.5.462a9.329,9.329,0,0,1,.98.5,8.438,8.438,0,0,1-1.246.714,4.385,4.385,0,0,1,.588.5,9.727,9.727,0,0,0,1.3-.84,6.928,6.928,0,0,1,.966.714Zm-6.51,3.92h9.842V11.8H26.95V9.266H25.858c.112-1.246.238-3.052.308-4.438H22.932v.714h2.226l-.042.756H23v.714h2.072L25,7.768H22.918v.714h2.03c-.028.28-.056.532-.084.784H17.192l-.056-.784h1.946V7.768H17.094l-.056-.756h1.988V6.3H17l-.056-.686A14.678,14.678,0,0,0,19.1,5.066l-.462-.644a26.2,26.2,0,0,1-2.7.686l.28,4.158h-1.12V11.8h.994Zm11.144,3.4h-5.6v-.252a14.589,14.589,0,0,0,3.164-1.736l-.63-.518-.21.056h-6.58V11.8h5.474a13,13,0,0,1-2.226,1.064v.6H14.784v.882h5.838V15.93c0,.2-.056.238-.294.252-.21,0-.994,0-1.862-.028a3.92,3.92,0,0,1,.364.882,8.377,8.377,0,0,0,2.254-.14c.434-.154.546-.392.546-.938v-1.61h5.6Zm6.048,2.716a3.967,3.967,0,0,0,3.15-1.47l-.714-.812a3.119,3.119,0,0,1-2.38,1.148c-1.96,0-3.192-1.624-3.192-4.214,0-2.562,1.288-4.158,3.234-4.158a2.8,2.8,0,0,1,2.1.98l.7-.84a3.8,3.8,0,0,0-2.814-1.274c-2.6,0-4.55,2.016-4.55,5.334S30.73,16.182,33.278,16.182Zm13.384-5.5a9.3,9.3,0,0,0,2.786,6.664l.84-.434a8.755,8.755,0,0,1,0-12.46l-.84-.434A9.3,9.3,0,0,0,46.662,10.68ZM55.2,6.1v.966H59.22v1.75H55.762V9.77h7.812V8.818h-3.3V7.068h3.948V6.1H60.27V4.352H59.22V6.1ZM54.53,4.324a10.655,10.655,0,0,1-2.94,2.87,5.3,5.3,0,0,1,.532.84A13.689,13.689,0,0,0,55.51,4.7Zm.238,3.066a12.6,12.6,0,0,1-3.388,3.78,6.768,6.768,0,0,1,.56,1.022,13.742,13.742,0,0,0,1.61-1.54v6.412h1.008v-7.6a11.938,11.938,0,0,0,1.12-1.708Zm1.708,5.782A13.817,13.817,0,0,1,58.2,15.608l.9-.532A15.879,15.879,0,0,0,57.33,12.71Zm7.77-1.848h-1.96V10.176h-1.05v1.148H55.37v.952h5.866v3.556c0,.2-.056.252-.294.266s-1.036.014-1.918-.014a3.98,3.98,0,0,1,.364.98,8.023,8.023,0,0,0,2.31-.154c.448-.168.588-.448.588-1.064v-3.57h1.96Zm7.546-4.41H68.7c.014-.8.028-1.61.028-2.436H67.7c0,.826,0,1.638-.014,2.436H65.73V7.936h1.932c-.112,3.5-.532,6.594-2.268,8.428a3.2,3.2,0,0,1,.784.714c1.89-2.044,2.366-5.39,2.492-9.142h2.114c-.1,5.362-.224,7.266-.546,7.658a.406.406,0,0,1-.462.224c-.252,0-.854,0-1.5-.056a2.658,2.658,0,0,1,.308,1.05,8.855,8.855,0,0,0,1.638-.014,1.112,1.112,0,0,0,.924-.532c.434-.6.532-2.632.644-8.82Zm2.128,7.924V7.026h2.716v7.812Zm-.98-8.82V16.854h.98V15.832h2.716v.924h1.036V6.018ZM92.134,8.412a16.9,16.9,0,0,0-2.3-2.884L89.1,5.99c.35.364.714.8,1.064,1.218l-4.074.322a19.468,19.468,0,0,0,2.086-2.9l-1.064-.266A13.9,13.9,0,0,1,85.316,7.11a1.585,1.585,0,0,1-.728.588,9.443,9.443,0,0,1,.336.91c.35-.14.924-.2,5.81-.63a10.4,10.4,0,0,1,.616.966Zm-11.4,2.87c.1-.644.182-1.372.266-2.086h3.052V5.038H79.8V6h3.29v2.24H80.164c-.112,1.274-.336,2.94-.518,3.99h3.5c-.168,2.422-.35,3.388-.616,3.654-.112.126-.252.14-.476.14s-.84,0-1.47-.056a2.138,2.138,0,0,1,.28.952,12.8,12.8,0,0,0,1.624.014,1.206,1.206,0,0,0,.91-.406c.378-.434.574-1.624.77-4.788.014-.14.028-.462.028-.462Zm5.04,1.288V10.624h1.89V12.57Zm4.844-1.946V12.57H88.676V10.624Zm1.792,6.1a12.411,12.411,0,0,0-1.792-3.01l-.854.378c.28.364.56.812.826,1.232l-1.918.126V13.438h2.912V9.756H88.676V8.4H87.668V9.756H84.854v3.682h2.814v2.086c-1.288.084-2.478.154-3.388.2l.14,1.008c1.764-.126,4.27-.308,6.678-.5a9.521,9.521,0,0,1,.406.938ZM97.2,10.68a9.3,9.3,0,0,0-2.786-6.664l-.84.434a8.755,8.755,0,0,1,0,12.46l.84.434A9.3,9.3,0,0,0,97.2,10.68Z" transform="translate(307 479)" fill="#aca4a4"/>
      <line id="Line_56" data-name="Line 56" x2="15" transform="translate(285.5 467.5)" fill="none" stroke="#356bd0" stroke-linecap="round" stroke-width="4"/>
      <line id="Line_457" data-name="Line 457" x2="15" transform="translate(285.5 517.5)" fill="none" stroke="#efefef" stroke-linecap="round" stroke-width="4"/>
      <line id="Line_167" data-name="Line 167" x2="15" transform="translate(285.5 491)" fill="none" stroke="#64c3ff" stroke-linecap="round" stroke-width="4"/>
      <line id="Line_458" data-name="Line 458" x2="15" transform="translate(285.5 541)" fill="none" stroke="#a59c9c" stroke-linecap="round" stroke-width="4"/>
    </g>
    <g id="data_4-01" transform="translate(-6224.177 -13316.07)">
      <g id="Group_1835" data-name="Group 1835">
        <line id="Line_410" data-name="Line 410" x2="260" transform="translate(27.5 287.5)" fill="none" stroke="#716d6d" stroke-miterlimit="10" stroke-width="1"/>
      </g>
      <g id="Group_1839" data-name="Group 1839">
        <g id="Group_1836" data-name="Group 1836">
          <path id="Path_1552" data-name="Path 1552" d="M6.066-4.3a8.378,8.378,0,0,1-.193,1.9,4.42,4.42,0,0,1-.559,1.395,2.516,2.516,0,0,1-.9.862,2.459,2.459,0,0,1-1.21.294A2.3,2.3,0,0,1,2.061-.134a2.4,2.4,0,0,1-.847-.824A4.175,4.175,0,0,1,.69-2.287a8.219,8.219,0,0,1-.178-1.8A9.3,9.3,0,0,1,.7-6.066,4.516,4.516,0,0,1,1.249-7.5a2.449,2.449,0,0,1,.9-.874,2.53,2.53,0,0,1,1.234-.294Q6.066-8.671,6.066-4.3Zm-1,.1q0-3.64-1.731-3.64-1.826,0-1.826,3.705,0,3.455,1.79,3.455Q5.067-.684,5.067-4.2Z" transform="translate(17.307 292.07)" fill="#716d6d"/>
          <path id="Path_1551" data-name="Path 1551" d="M5.763-2.6a2.87,2.87,0,0,1-.214,1.13,2.471,2.471,0,0,1-.61.868,2.73,2.73,0,0,1-.955.559,3.733,3.733,0,0,1-1.243.2A3.434,3.434,0,0,1,.975-.208V-1.243a3.248,3.248,0,0,0,1.778.559,2.406,2.406,0,0,0,.836-.137A1.857,1.857,0,0,0,4.223-1.2a1.63,1.63,0,0,0,.4-.589,1.993,1.993,0,0,0,.14-.755A1.618,1.618,0,0,0,4.2-3.851a2.452,2.452,0,0,0-1.624-.473q-.172,0-.363.006L1.838-4.3q-.19.009-.372.021t-.33.03l.291-4.276H5.37v.88h-3.1L2.1-5.144q.19-.012.4-.021t.381-.009A3.828,3.828,0,0,1,4.1-5,2.571,2.571,0,0,1,5-4.487a2.132,2.132,0,0,1,.565.809A2.845,2.845,0,0,1,5.763-2.6Z" transform="translate(17.307 255.642)" fill="#716d6d"/>
          <path id="Path_1550" data-name="Path 1550" d="M4.306,0H3.33V-7.369A2.258,2.258,0,0,1,3-7.11a5.38,5.38,0,0,1-.488.288q-.271.143-.571.268a4.149,4.149,0,0,1-.586.2v-.987a5.67,5.67,0,0,0,.681-.241q.36-.152.708-.339T3.4-8.317a5.218,5.218,0,0,0,.535-.4h.369Zm8.326-4.3a8.378,8.378,0,0,1-.193,1.9,4.42,4.42,0,0,1-.559,1.395,2.516,2.516,0,0,1-.9.862,2.459,2.459,0,0,1-1.21.294A2.3,2.3,0,0,1,8.627-.134a2.4,2.4,0,0,1-.847-.824,4.175,4.175,0,0,1-.523-1.329,8.219,8.219,0,0,1-.178-1.8,9.3,9.3,0,0,1,.187-1.974A4.516,4.516,0,0,1,7.815-7.5a2.449,2.449,0,0,1,.9-.874A2.53,2.53,0,0,1,9.95-8.671Q12.632-8.671,12.632-4.3Zm-1,.1q0-3.64-1.731-3.64-1.826,0-1.826,3.705,0,3.455,1.79,3.455Q11.633-.684,11.633-4.2Z" transform="translate(11.177 219.213)" fill="#716d6d"/>
          <path id="Path_1549" data-name="Path 1549" d="M4.306,0H3.33V-7.369A2.258,2.258,0,0,1,3-7.11a5.38,5.38,0,0,1-.488.288q-.271.143-.571.268a4.149,4.149,0,0,1-.586.2v-.987a5.67,5.67,0,0,0,.681-.241q.36-.152.708-.339T3.4-8.317a5.218,5.218,0,0,0,.535-.4h.369Zm8.023-2.6a2.87,2.87,0,0,1-.214,1.13,2.471,2.471,0,0,1-.61.868,2.73,2.73,0,0,1-.955.559,3.733,3.733,0,0,1-1.243.2A3.434,3.434,0,0,1,7.541-.208V-1.243a3.248,3.248,0,0,0,1.778.559,2.406,2.406,0,0,0,.836-.137,1.857,1.857,0,0,0,.633-.381,1.63,1.63,0,0,0,.4-.589,1.993,1.993,0,0,0,.14-.755,1.618,1.618,0,0,0-.559-1.305,2.452,2.452,0,0,0-1.624-.473q-.172,0-.363.006L8.4-4.3q-.19.009-.372.021t-.33.03l.291-4.276h3.943v.88h-3.1l-.172,2.5q.19-.012.4-.021t.381-.009A3.828,3.828,0,0,1,10.663-5a2.571,2.571,0,0,1,.907.508,2.132,2.132,0,0,1,.565.809A2.845,2.845,0,0,1,12.329-2.6Z" transform="translate(11.177 182.784)" fill="#716d6d"/>
          <path id="Path_1548" data-name="Path 1548" d="M4.591-6.292a1.763,1.763,0,0,0-.122-.684,1.355,1.355,0,0,0-.333-.485,1.365,1.365,0,0,0-.5-.288,1.945,1.945,0,0,0-.619-.1,2.046,2.046,0,0,0-.559.077,2.718,2.718,0,0,0-.532.214,3.274,3.274,0,0,0-.5.327A3.609,3.609,0,0,0,.981-6.8V-7.85A2.916,2.916,0,0,1,1.9-8.46a3.235,3.235,0,0,1,1.24-.211,2.994,2.994,0,0,1,.969.152,2.223,2.223,0,0,1,.773.443,2.048,2.048,0,0,1,.514.72,2.427,2.427,0,0,1,.187.981,3.365,3.365,0,0,1-.116.916,2.832,2.832,0,0,1-.351.773,3.731,3.731,0,0,1-.592.7,8.382,8.382,0,0,1-.839.678q-.6.428-.99.732a4.377,4.377,0,0,0-.619.568,1.648,1.648,0,0,0-.321.529,1.85,1.85,0,0,0-.092.61H5.912V0H.648V-.422a3.519,3.519,0,0,1,.119-.963,2.5,2.5,0,0,1,.393-.791,4.39,4.39,0,0,1,.717-.749q.443-.375,1.085-.845a6.862,6.862,0,0,0,.776-.636,3.308,3.308,0,0,0,.5-.607,2.179,2.179,0,0,0,.271-.616A2.654,2.654,0,0,0,4.591-6.292ZM12.632-4.3a8.378,8.378,0,0,1-.193,1.9,4.42,4.42,0,0,1-.559,1.395,2.516,2.516,0,0,1-.9.862,2.459,2.459,0,0,1-1.21.294A2.3,2.3,0,0,1,8.627-.134a2.4,2.4,0,0,1-.847-.824,4.175,4.175,0,0,1-.523-1.329,8.219,8.219,0,0,1-.178-1.8,9.3,9.3,0,0,1,.187-1.974A4.516,4.516,0,0,1,7.815-7.5a2.449,2.449,0,0,1,.9-.874A2.53,2.53,0,0,1,9.95-8.671Q12.632-8.671,12.632-4.3Zm-1,.1q0-3.64-1.731-3.64-1.826,0-1.826,3.705,0,3.455,1.79,3.455Q11.633-.684,11.633-4.2Z" transform="translate(11.177 146.356)" fill="#716d6d"/>
          <path id="Path_1547" data-name="Path 1547" d="M4.591-6.292a1.763,1.763,0,0,0-.122-.684,1.355,1.355,0,0,0-.333-.485,1.365,1.365,0,0,0-.5-.288,1.945,1.945,0,0,0-.619-.1,2.046,2.046,0,0,0-.559.077,2.718,2.718,0,0,0-.532.214,3.274,3.274,0,0,0-.5.327A3.609,3.609,0,0,0,.981-6.8V-7.85A2.916,2.916,0,0,1,1.9-8.46a3.235,3.235,0,0,1,1.24-.211,2.994,2.994,0,0,1,.969.152,2.223,2.223,0,0,1,.773.443,2.048,2.048,0,0,1,.514.72,2.427,2.427,0,0,1,.187.981,3.365,3.365,0,0,1-.116.916,2.832,2.832,0,0,1-.351.773,3.731,3.731,0,0,1-.592.7,8.382,8.382,0,0,1-.839.678q-.6.428-.99.732a4.377,4.377,0,0,0-.619.568,1.648,1.648,0,0,0-.321.529,1.85,1.85,0,0,0-.092.61H5.912V0H.648V-.422a3.519,3.519,0,0,1,.119-.963,2.5,2.5,0,0,1,.393-.791,4.39,4.39,0,0,1,.717-.749q.443-.375,1.085-.845a6.862,6.862,0,0,0,.776-.636,3.308,3.308,0,0,0,.5-.607,2.179,2.179,0,0,0,.271-.616A2.654,2.654,0,0,0,4.591-6.292ZM12.329-2.6a2.87,2.87,0,0,1-.214,1.13,2.471,2.471,0,0,1-.61.868,2.73,2.73,0,0,1-.955.559,3.733,3.733,0,0,1-1.243.2A3.434,3.434,0,0,1,7.541-.208V-1.243a3.248,3.248,0,0,0,1.778.559,2.406,2.406,0,0,0,.836-.137,1.857,1.857,0,0,0,.633-.381,1.63,1.63,0,0,0,.4-.589,1.993,1.993,0,0,0,.14-.755,1.618,1.618,0,0,0-.559-1.305,2.452,2.452,0,0,0-1.624-.473q-.172,0-.363.006L8.4-4.3q-.19.009-.372.021t-.33.03l.291-4.276h3.943v.88h-3.1l-.172,2.5q.19-.012.4-.021t.381-.009A3.828,3.828,0,0,1,10.663-5a2.571,2.571,0,0,1,.907.508,2.132,2.132,0,0,1,.565.809A2.845,2.845,0,0,1,12.329-2.6Z" transform="translate(11.177 109.927)" fill="#716d6d"/>
          <path id="Path_1546" data-name="Path 1546" d="M5.668-2.415a2.486,2.486,0,0,1-.217,1.05,2.318,2.318,0,0,1-.613.809,2.827,2.827,0,0,1-.949.52A3.837,3.837,0,0,1,2.67.149,3.543,3.543,0,0,1,.732-.315V-1.362a3.107,3.107,0,0,0,1.974.678A2.683,2.683,0,0,0,3.512-.8a1.807,1.807,0,0,0,.619-.327,1.453,1.453,0,0,0,.4-.517,1.616,1.616,0,0,0,.14-.684Q4.669-4,2.29-4H1.582v-.827h.672q2.105,0,2.105-1.57,0-1.451-1.606-1.451a2.734,2.734,0,0,0-1.695.607v-.946A3.706,3.706,0,0,1,3-8.671a2.979,2.979,0,0,1,.969.149,2.221,2.221,0,0,1,.743.416,1.845,1.845,0,0,1,.479.642,1.982,1.982,0,0,1,.169.827,2.082,2.082,0,0,1-1.7,2.165v.024a2.691,2.691,0,0,1,.8.211,2.142,2.142,0,0,1,.636.425,1.9,1.9,0,0,1,.419.616A1.965,1.965,0,0,1,5.668-2.415ZM12.632-4.3a8.378,8.378,0,0,1-.193,1.9,4.42,4.42,0,0,1-.559,1.395,2.516,2.516,0,0,1-.9.862,2.459,2.459,0,0,1-1.21.294A2.3,2.3,0,0,1,8.627-.134a2.4,2.4,0,0,1-.847-.824,4.175,4.175,0,0,1-.523-1.329,8.219,8.219,0,0,1-.178-1.8,9.3,9.3,0,0,1,.187-1.974A4.516,4.516,0,0,1,7.815-7.5a2.449,2.449,0,0,1,.9-.874A2.53,2.53,0,0,1,9.95-8.671Q12.632-8.671,12.632-4.3Zm-1,.1q0-3.64-1.731-3.64-1.826,0-1.826,3.705,0,3.455,1.79,3.455Q11.633-.684,11.633-4.2Z" transform="translate(11.177 73.499)" fill="#716d6d"/>
          <path id="Path_1545" data-name="Path 1545" d="M5.668-2.415a2.486,2.486,0,0,1-.217,1.05,2.318,2.318,0,0,1-.613.809,2.827,2.827,0,0,1-.949.52A3.837,3.837,0,0,1,2.67.149,3.543,3.543,0,0,1,.732-.315V-1.362a3.107,3.107,0,0,0,1.974.678A2.683,2.683,0,0,0,3.512-.8a1.807,1.807,0,0,0,.619-.327,1.453,1.453,0,0,0,.4-.517,1.616,1.616,0,0,0,.14-.684Q4.669-4,2.29-4H1.582v-.827h.672q2.105,0,2.105-1.57,0-1.451-1.606-1.451a2.734,2.734,0,0,0-1.695.607v-.946A3.706,3.706,0,0,1,3-8.671a2.979,2.979,0,0,1,.969.149,2.221,2.221,0,0,1,.743.416,1.845,1.845,0,0,1,.479.642,1.982,1.982,0,0,1,.169.827,2.082,2.082,0,0,1-1.7,2.165v.024a2.691,2.691,0,0,1,.8.211,2.142,2.142,0,0,1,.636.425,1.9,1.9,0,0,1,.419.616A1.965,1.965,0,0,1,5.668-2.415Zm6.661-.19a2.87,2.87,0,0,1-.214,1.13,2.471,2.471,0,0,1-.61.868,2.73,2.73,0,0,1-.955.559,3.733,3.733,0,0,1-1.243.2A3.434,3.434,0,0,1,7.541-.208V-1.243a3.248,3.248,0,0,0,1.778.559,2.406,2.406,0,0,0,.836-.137,1.857,1.857,0,0,0,.633-.381,1.63,1.63,0,0,0,.4-.589,1.993,1.993,0,0,0,.14-.755,1.618,1.618,0,0,0-.559-1.305,2.452,2.452,0,0,0-1.624-.473q-.172,0-.363.006L8.4-4.3q-.19.009-.372.021t-.33.03l.291-4.276h3.943v.88h-3.1l-.172,2.5q.19-.012.4-.021t.381-.009A3.828,3.828,0,0,1,10.663-5a2.571,2.571,0,0,1,.907.508,2.132,2.132,0,0,1,.565.809A2.845,2.845,0,0,1,12.329-2.6Z" transform="translate(11.177 37.07)" fill="#716d6d"/>
        </g>
        <line id="Line_418" data-name="Line 418" y1="255" transform="translate(27.5 32.5)" fill="none" stroke="#716d6d" stroke-miterlimit="10" stroke-width="1"/>
      </g>
      <g id="Group_1850" data-name="Group 1850">
        <g id="Group_1843" data-name="Group 1843">
          <g id="Group_1842" data-name="Group 1842">
            <line id="Line_434" data-name="Line 434" x1="43.3" y1="1.3" transform="translate(49.2 44.2)" fill="none" stroke="#64c3ff" stroke-linecap="round" stroke-miterlimit="10" stroke-width="2"/>
            <line id="Line_435" data-name="Line 435" x1="43.3" y1="9" transform="translate(92.5 45.5)" fill="none" stroke="#64c3ff" stroke-linecap="round" stroke-miterlimit="10" stroke-width="2"/>
            <line id="Line_436" data-name="Line 436" x1="43.4" y1="13.3" transform="translate(135.8 54.5)" fill="none" stroke="#64c3ff" stroke-linecap="round" stroke-miterlimit="10" stroke-width="2"/>
            <line id="Line_437" data-name="Line 437" x1="43.3" y1="10.5" transform="translate(179.2 67.8)" fill="none" stroke="#64c3ff" stroke-linecap="round" stroke-miterlimit="10" stroke-width="2"/>
            <line id="Line_438" data-name="Line 438" x1="43.3" y1="8.3" transform="translate(222.5 78.3)" fill="none" stroke="#64c3ff" stroke-linecap="round" stroke-miterlimit="10" stroke-width="2"/>
          </g>
        </g>
        <g id="Group_1845" data-name="Group 1845">
          <g id="Group_1844" data-name="Group 1844">
            <line id="Line_440" data-name="Line 440" x1="43.3" y1="9.3" transform="translate(49.2 167.5)" fill="none" stroke="#a59c9c" stroke-linecap="round" stroke-miterlimit="10" stroke-width="2"/>
            <line id="Line_441" data-name="Line 441" x1="43.3" y2="11.7" transform="translate(92.5 165.1)" fill="none" stroke="#a59c9c" stroke-linecap="round" stroke-miterlimit="10" stroke-width="2"/>
            <line id="Line_442" data-name="Line 442" x1="43.4" y2="30.1" transform="translate(135.8 135)" fill="none" stroke="#a59c9c" stroke-linecap="round" stroke-miterlimit="10" stroke-width="2"/>
            <line id="Line_443" data-name="Line 443" x1="43.3" y2="10" transform="translate(179.2 125)" fill="none" stroke="#a59c9c" stroke-linecap="round" stroke-miterlimit="10" stroke-width="2"/>
            <line id="Line_444" data-name="Line 444" x1="43.3" y2="22.4" transform="translate(222.5 102.6)" fill="none" stroke="#a59c9c" stroke-linecap="round" stroke-miterlimit="10" stroke-width="2"/>
          </g>
        </g>
        <g id="Group_1847" data-name="Group 1847">
          <g id="Group_1846" data-name="Group 1846">
            <line id="Line_446" data-name="Line 446" x1="43.3" y1="3.8" transform="translate(49.2 41.8)" fill="none" stroke="#356bd0" stroke-linecap="round" stroke-miterlimit="10" stroke-width="2"/>
            <line id="Line_447" data-name="Line 447" x1="43.3" y1="12.1" transform="translate(92.5 45.6)" fill="none" stroke="#356bd0" stroke-linecap="round" stroke-miterlimit="10" stroke-width="2"/>
            <line id="Line_448" data-name="Line 448" x1="43.4" y1="6.7" transform="translate(135.8 57.7)" fill="none" stroke="#356bd0" stroke-linecap="round" stroke-miterlimit="10" stroke-width="2"/>
            <line id="Line_449" data-name="Line 449" x1="43.3" y2="1.1" transform="translate(179.2 63.3)" fill="none" stroke="#356bd0" stroke-linecap="round" stroke-miterlimit="10" stroke-width="2"/>
            <line id="Line_450" data-name="Line 450" x1="43.3" y1="4.2" transform="translate(222.5 63.3)" fill="none" stroke="#356bd0" stroke-linecap="round" stroke-miterlimit="10" stroke-width="2"/>
          </g>
        </g>
        <g id="Group_1849" data-name="Group 1849">
          <g id="Group_1848" data-name="Group 1848">
            <line id="Line_452" data-name="Line 452" x1="43.3" y2="8.6" transform="translate(49.2 155.3)" fill="none" stroke="#fff" stroke-linecap="round" stroke-miterlimit="10" stroke-width="2"/>
            <line id="Line_453" data-name="Line 453" x1="43.3" y2="7.3" transform="translate(92.5 148)" fill="none" stroke="#fff" stroke-linecap="round" stroke-miterlimit="10" stroke-width="2"/>
            <line id="Line_454" data-name="Line 454" x1="43.4" y2="26" transform="translate(135.8 122)" fill="none" stroke="#fff" stroke-linecap="round" stroke-miterlimit="10" stroke-width="2"/>
            <line id="Line_455" data-name="Line 455" x1="43.3" y1="13.7" transform="translate(179.2 122)" fill="none" stroke="#fff" stroke-linecap="round" stroke-miterlimit="10" stroke-width="2"/>
            <line id="Line_456" data-name="Line 456" x1="43.3" y2="15" transform="translate(222.5 120.7)" fill="none" stroke="#fff" stroke-linecap="round" stroke-miterlimit="10" stroke-width="2"/>
          </g>
        </g>
      </g>
      <g id="Group_1861" data-name="Group 1861">
        <g id="Group_1854" data-name="Group 1854">
          <g id="Group_1853" data-name="Group 1853">
            <rect id="Rectangle_2340" data-name="Rectangle 2340" width="6" height="6" rx="3" transform="translate(46.2 41.2)" fill="#64c3ff"/>
            <rect id="Rectangle_2341" data-name="Rectangle 2341" width="6" height="6" rx="3" transform="translate(89.5 42.5)" fill="#64c3ff"/>
            <rect id="Rectangle_2342" data-name="Rectangle 2342" width="6" height="6" rx="3" transform="translate(132.8 51.5)" fill="#64c3ff"/>
            <rect id="Rectangle_2343" data-name="Rectangle 2343" width="6" height="6" rx="3" transform="translate(176.2 64.8)" fill="#64c3ff"/>
            <rect id="Rectangle_2344" data-name="Rectangle 2344" width="6" height="6" rx="3" transform="translate(219.5 75.3)" fill="#64c3ff"/>
            <rect id="Rectangle_2345" data-name="Rectangle 2345" width="6" height="6" rx="3" transform="translate(262.8 83.6)" fill="#64c3ff"/>
          </g>
        </g>
        <g id="Group_1856" data-name="Group 1856">
          <g id="Group_1855" data-name="Group 1855">
            <rect id="Rectangle_2347" data-name="Rectangle 2347" width="6" height="6" rx="3" transform="translate(46.2 164.5)" fill="#a59c9c"/>
            <rect id="Rectangle_2348" data-name="Rectangle 2348" width="6" height="6" rx="3" transform="translate(89.5 173.8)" fill="#a59c9c"/>
            <rect id="Rectangle_2349" data-name="Rectangle 2349" width="6" height="6" rx="3" transform="translate(132.8 162.1)" fill="#a59c9c"/>
            <rect id="Rectangle_2350" data-name="Rectangle 2350" width="6" height="6" rx="3" transform="translate(176.2 132)" fill="#a59c9c"/>
            <rect id="Rectangle_2351" data-name="Rectangle 2351" width="6" height="6" rx="3" transform="translate(219.5 122)" fill="#a59c9c"/>
            <rect id="Rectangle_2352" data-name="Rectangle 2352" width="6" height="6" rx="3" transform="translate(262.8 99.6)" fill="#a59c9c"/>
          </g>
        </g>
        <g id="Group_1858" data-name="Group 1858">
          <g id="Group_1857" data-name="Group 1857">
            <rect id="Rectangle_2354" data-name="Rectangle 2354" width="6" height="6" rx="3" transform="translate(46.2 38.8)" fill="#356bd0"/>
            <rect id="Rectangle_2355" data-name="Rectangle 2355" width="6" height="6" rx="3" transform="translate(89.5 42.6)" fill="#356bd0"/>
            <rect id="Rectangle_2356" data-name="Rectangle 2356" width="6" height="6" rx="3" transform="translate(132.8 54.7)" fill="#356bd0"/>
            <rect id="Rectangle_2357" data-name="Rectangle 2357" width="6" height="6" rx="3" transform="translate(176.2 61.4)" fill="#356bd0"/>
            <rect id="Rectangle_2358" data-name="Rectangle 2358" width="6" height="6" rx="3" transform="translate(219.5 60.3)" fill="#356bd0"/>
            <rect id="Rectangle_2359" data-name="Rectangle 2359" width="6" height="6" rx="3" transform="translate(262.8 64.5)" fill="#356bd0"/>
          </g>
        </g>
        <g id="Group_1860" data-name="Group 1860">
          <g id="Group_1859" data-name="Group 1859">
            <rect id="Rectangle_2361" data-name="Rectangle 2361" width="6" height="6" rx="3" transform="translate(46.2 160.9)" fill="#fff" stroke="#fff" stroke-miterlimit="10" stroke-width="0.5"/>
            <rect id="Rectangle_2362" data-name="Rectangle 2362" width="6" height="6" rx="3" transform="translate(89.5 152.3)" fill="#fff" stroke="#fff" stroke-miterlimit="10" stroke-width="0.5"/>
            <rect id="Rectangle_2363" data-name="Rectangle 2363" width="6" height="6" rx="3" transform="translate(132.8 145)" fill="#fff" stroke="#fff" stroke-miterlimit="10" stroke-width="0.5"/>
            <rect id="Rectangle_2364" data-name="Rectangle 2364" width="6" height="6" rx="3" transform="translate(176.2 119)" fill="#fff" stroke="#fff" stroke-miterlimit="10" stroke-width="0.5"/>
            <rect id="Rectangle_2365" data-name="Rectangle 2365" width="6" height="6" rx="3" transform="translate(219.5 132.7)" fill="#fff" stroke="#fff" stroke-miterlimit="10" stroke-width="0.5"/>
            <rect id="Rectangle_2366" data-name="Rectangle 2366" width="6" height="6" rx="3" transform="translate(262.8 117.7)" fill="#fff" stroke="#fff" stroke-miterlimit="10" stroke-width="0.5"/>
          </g>
        </g>
      </g>
    </g>
    <path id="Path_1553" data-name="Path 1553" d="M.528,0H6.06V-.948H3.624c-.444,0-.984.048-1.44.084C4.248-2.82,5.628-4.608,5.628-6.36a2.413,2.413,0,0,0-2.556-2.6A3.364,3.364,0,0,0,.48-7.668l.636.624A2.463,2.463,0,0,1,2.94-8.064a1.546,1.546,0,0,1,1.62,1.74C4.56-4.812,3.288-3.06.528-.648ZM10,.156c1.668,0,2.736-1.524,2.736-4.584S11.664-8.964,10-8.964,7.248-7.488,7.248-4.428,8.316.156,10,.156ZM10-.72c-1.008,0-1.68-1.116-1.68-3.708,0-2.568.672-3.66,1.68-3.66S11.664-7,11.664-4.428C11.664-1.836,10.992-.72,10-.72Zm4.38.72H19.2V-.912H17.436v-7.9H16.6a5.3,5.3,0,0,1-1.824.636v.7h1.56V-.912H14.376ZM21.36-3.3l2-3c.252-.432.492-.864.708-1.3h.048c-.024.456-.06,1.164-.06,1.6v2.7ZM24.06,0h1.032V-2.424h1.164V-3.3H25.092V-8.808H23.88L20.22-3.144v.72h3.84Z" transform="translate(-6186.431 -13011.999)" fill="#d48773"/>
    <path id="Path_1554" data-name="Path 1554" d="M.528,0H6.06V-.948H3.624c-.444,0-.984.048-1.44.084C4.248-2.82,5.628-4.608,5.628-6.36a2.413,2.413,0,0,0-2.556-2.6A3.364,3.364,0,0,0,.48-7.668l.636.624A2.463,2.463,0,0,1,2.94-8.064a1.546,1.546,0,0,1,1.62,1.74C4.56-4.812,3.288-3.06.528-.648ZM10,.156c1.668,0,2.736-1.524,2.736-4.584S11.664-8.964,10-8.964,7.248-7.488,7.248-4.428,8.316.156,10,.156ZM10-.72c-1.008,0-1.68-1.116-1.68-3.708,0-2.568.672-3.66,1.68-3.66S11.664-7,11.664-4.428C11.664-1.836,10.992-.72,10-.72Zm4.38.72H19.2V-.912H17.436v-7.9H16.6a5.3,5.3,0,0,1-1.824.636v.7h1.56V-.912H14.376ZM21.54-6.108c0-1.2.648-1.992,1.488-1.992,1.128,0,1.8.96,1.92,2.772a2.305,2.305,0,0,1-1.836,1.176C22.068-4.152,21.54-4.92,21.54-6.108ZM22.788.156c1.656,0,3.192-1.368,3.192-4.932,0-2.8-1.26-4.188-2.952-4.188a2.641,2.641,0,0,0-2.52,2.856c0,1.824.96,2.772,2.424,2.772a2.737,2.737,0,0,0,2.028-1.08c-.084,2.724-1.068,3.66-2.208,3.66a1.94,1.94,0,0,1-1.464-.672l-.612.684A2.8,2.8,0,0,0,22.788.156Z" transform="translate(-5971.431 -13011.999)" fill="#d48773"/>
  </g>
</svg>
