<svg xmlns="http://www.w3.org/2000/svg" width="326.895" height="220.828" viewBox="0 0 326.895 220.828">
  <g id="data4_m" transform="translate(8816.521 14761.407)">
    <g id="Group_1931" data-name="Group 1931" transform="translate(-9016 -14994)">
      <g id="data_4-01" transform="translate(199 229)">
        <g id="Group_1835" data-name="Group 1835" transform="translate(13.15 212.232)">
          <line id="Line_410" data-name="Line 410" x2="209.469" fill="none" stroke="#716d6d" stroke-miterlimit="10" stroke-width="1"/>
        </g>
        <g id="Group_1839" data-name="Group 1839" transform="translate(0 0)">
          <g id="Group_1836" data-name="Group 1836">
            <path id="Path_1743" data-name="Path 1743" d="M4.482-3.177a6.191,6.191,0,0,1-.143,1.4A3.266,3.266,0,0,1,3.927-.745a1.859,1.859,0,0,1-.664.637A1.817,1.817,0,0,1,2.369.11,1.7,1.7,0,0,1,1.523-.1,1.773,1.773,0,0,1,.9-.708,3.085,3.085,0,0,1,.51-1.69,6.073,6.073,0,0,1,.378-3.023,6.875,6.875,0,0,1,.516-4.482,3.337,3.337,0,0,1,.923-5.544a1.809,1.809,0,0,1,.666-.646A1.869,1.869,0,0,1,2.5-6.407Q4.482-6.407,4.482-3.177Zm-.738.07Q3.744-5.8,2.465-5.8q-1.349,0-1.349,2.738,0,2.553,1.323,2.553Q3.744-.505,3.744-3.107Z" transform="translate(4.939 215.441)" fill="#716d6d"/>
            <path id="Path_1742" data-name="Path 1742" d="M4.258-1.925A2.121,2.121,0,0,1,4.1-1.09a1.826,1.826,0,0,1-.45.642,2.017,2.017,0,0,1-.705.413A2.758,2.758,0,0,1,2.026.11,2.537,2.537,0,0,1,.721-.154V-.918a2.4,2.4,0,0,0,1.314.413,1.778,1.778,0,0,0,.617-.1A1.372,1.372,0,0,0,3.12-.888a1.2,1.2,0,0,0,.3-.435,1.473,1.473,0,0,0,.1-.558,1.2,1.2,0,0,0-.413-.965,1.812,1.812,0,0,0-1.2-.349q-.127,0-.268,0l-.281.011-.275.015q-.134.009-.244.022L1.055-6.3H3.968v.65H1.679L1.551-3.8q.141-.009.3-.015t.281-.007a2.828,2.828,0,0,1,.9.132,1.9,1.9,0,0,1,.67.376,1.575,1.575,0,0,1,.417.6A2.1,2.1,0,0,1,4.258-1.925Z" transform="translate(4.939 186.092)" fill="#716d6d"/>
            <path id="Path_1741" data-name="Path 1741" d="M3.182,0H2.461V-5.445a1.668,1.668,0,0,1-.244.191,3.976,3.976,0,0,1-.36.213q-.2.105-.422.2A3.066,3.066,0,0,1,1-4.7v-.729a4.19,4.19,0,0,0,.5-.178q.266-.112.523-.25t.486-.29a3.855,3.855,0,0,0,.4-.3h.272ZM9.334-3.177a6.191,6.191,0,0,1-.143,1.4A3.266,3.266,0,0,1,8.778-.745a1.859,1.859,0,0,1-.664.637A1.817,1.817,0,0,1,7.22.11,1.7,1.7,0,0,1,6.374-.1a1.773,1.773,0,0,1-.626-.609,3.085,3.085,0,0,1-.387-.982,6.073,6.073,0,0,1-.132-1.334,6.875,6.875,0,0,1,.138-1.459,3.337,3.337,0,0,1,.406-1.061A1.809,1.809,0,0,1,6.44-6.19a1.869,1.869,0,0,1,.912-.218Q9.334-6.407,9.334-3.177Zm-.738.07Q8.6-5.8,7.317-5.8q-1.349,0-1.349,2.738,0,2.553,1.323,2.553Q8.6-.505,8.6-3.107Z" transform="translate(0 156.743)" fill="#716d6d"/>
            <path id="Path_1740" data-name="Path 1740" d="M3.182,0H2.461V-5.445a1.668,1.668,0,0,1-.244.191,3.976,3.976,0,0,1-.36.213q-.2.105-.422.2A3.066,3.066,0,0,1,1-4.7v-.729a4.19,4.19,0,0,0,.5-.178q.266-.112.523-.25t.486-.29a3.855,3.855,0,0,0,.4-.3h.272ZM9.11-1.925a2.121,2.121,0,0,1-.158.835,1.826,1.826,0,0,1-.45.642A2.017,2.017,0,0,1,7.8-.035,2.758,2.758,0,0,1,6.877.11,2.537,2.537,0,0,1,5.572-.154V-.918a2.4,2.4,0,0,0,1.314.413,1.778,1.778,0,0,0,.617-.1,1.372,1.372,0,0,0,.468-.281,1.2,1.2,0,0,0,.3-.435,1.473,1.473,0,0,0,.1-.558,1.2,1.2,0,0,0-.413-.965,1.812,1.812,0,0,0-1.2-.349q-.127,0-.268,0l-.281.011-.275.015q-.134.009-.244.022L5.906-6.3H8.82v.65H6.53L6.4-3.8q.141-.009.3-.015t.281-.007a2.828,2.828,0,0,1,.9.132,1.9,1.9,0,0,1,.67.376,1.575,1.575,0,0,1,.417.6A2.1,2.1,0,0,1,9.11-1.925Z" transform="translate(0 127.395)" fill="#716d6d"/>
            <path id="Path_1739" data-name="Path 1739" d="M3.393-4.649a1.3,1.3,0,0,0-.09-.505,1,1,0,0,0-.246-.358,1.008,1.008,0,0,0-.367-.213,1.437,1.437,0,0,0-.457-.07,1.512,1.512,0,0,0-.413.057,2.008,2.008,0,0,0-.393.158,2.419,2.419,0,0,0-.369.242,2.666,2.666,0,0,0-.332.312V-5.8a2.155,2.155,0,0,1,.679-.45,2.391,2.391,0,0,1,.916-.156,2.212,2.212,0,0,1,.716.112,1.642,1.642,0,0,1,.571.327,1.513,1.513,0,0,1,.38.532,1.793,1.793,0,0,1,.138.725,2.486,2.486,0,0,1-.086.677,2.093,2.093,0,0,1-.259.571,2.757,2.757,0,0,1-.437.514,6.194,6.194,0,0,1-.62.5q-.444.316-.732.541a3.235,3.235,0,0,0-.457.42A1.218,1.218,0,0,0,1.3-1.1a1.367,1.367,0,0,0-.068.45H4.368V0H.479V-.312a2.6,2.6,0,0,1,.088-.712,1.849,1.849,0,0,1,.29-.584,3.244,3.244,0,0,1,.53-.554q.327-.277.8-.624a5.07,5.07,0,0,0,.573-.47A2.445,2.445,0,0,0,3.133-3.7a1.61,1.61,0,0,0,.2-.455A1.961,1.961,0,0,0,3.393-4.649ZM9.334-3.177a6.191,6.191,0,0,1-.143,1.4A3.266,3.266,0,0,1,8.778-.745a1.859,1.859,0,0,1-.664.637A1.817,1.817,0,0,1,7.22.11,1.7,1.7,0,0,1,6.374-.1a1.773,1.773,0,0,1-.626-.609,3.085,3.085,0,0,1-.387-.982,6.073,6.073,0,0,1-.132-1.334,6.875,6.875,0,0,1,.138-1.459,3.337,3.337,0,0,1,.406-1.061A1.809,1.809,0,0,1,6.44-6.19a1.869,1.869,0,0,1,.912-.218Q9.334-6.407,9.334-3.177Zm-.738.07Q8.6-5.8,7.317-5.8q-1.349,0-1.349,2.738,0,2.553,1.323,2.553Q8.6-.505,8.6-3.107Z" transform="translate(0 98.046)" fill="#716d6d"/>
            <path id="Path_1738" data-name="Path 1738" d="M3.393-4.649a1.3,1.3,0,0,0-.09-.505,1,1,0,0,0-.246-.358,1.008,1.008,0,0,0-.367-.213,1.437,1.437,0,0,0-.457-.07,1.512,1.512,0,0,0-.413.057,2.008,2.008,0,0,0-.393.158,2.419,2.419,0,0,0-.369.242,2.666,2.666,0,0,0-.332.312V-5.8a2.155,2.155,0,0,1,.679-.45,2.391,2.391,0,0,1,.916-.156,2.212,2.212,0,0,1,.716.112,1.642,1.642,0,0,1,.571.327,1.513,1.513,0,0,1,.38.532,1.793,1.793,0,0,1,.138.725,2.486,2.486,0,0,1-.086.677,2.093,2.093,0,0,1-.259.571,2.757,2.757,0,0,1-.437.514,6.194,6.194,0,0,1-.62.5q-.444.316-.732.541a3.235,3.235,0,0,0-.457.42A1.218,1.218,0,0,0,1.3-1.1a1.367,1.367,0,0,0-.068.45H4.368V0H.479V-.312a2.6,2.6,0,0,1,.088-.712,1.849,1.849,0,0,1,.29-.584,3.244,3.244,0,0,1,.53-.554q.327-.277.8-.624a5.07,5.07,0,0,0,.573-.47A2.445,2.445,0,0,0,3.133-3.7a1.61,1.61,0,0,0,.2-.455A1.961,1.961,0,0,0,3.393-4.649ZM9.11-1.925a2.121,2.121,0,0,1-.158.835,1.826,1.826,0,0,1-.45.642A2.017,2.017,0,0,1,7.8-.035,2.758,2.758,0,0,1,6.877.11,2.537,2.537,0,0,1,5.572-.154V-.918a2.4,2.4,0,0,0,1.314.413,1.778,1.778,0,0,0,.617-.1,1.372,1.372,0,0,0,.468-.281,1.2,1.2,0,0,0,.3-.435,1.473,1.473,0,0,0,.1-.558,1.2,1.2,0,0,0-.413-.965,1.812,1.812,0,0,0-1.2-.349q-.127,0-.268,0l-.281.011-.275.015q-.134.009-.244.022L5.906-6.3H8.82v.65H6.53L6.4-3.8q.141-.009.3-.015t.281-.007a2.828,2.828,0,0,1,.9.132,1.9,1.9,0,0,1,.67.376,1.575,1.575,0,0,1,.417.6A2.1,2.1,0,0,1,9.11-1.925Z" transform="translate(0 68.697)" fill="#716d6d"/>
            <path id="Path_1737" data-name="Path 1737" d="M4.188-1.784a1.837,1.837,0,0,1-.16.776,1.713,1.713,0,0,1-.453.6,2.089,2.089,0,0,1-.7.385,2.835,2.835,0,0,1-.9.136A2.618,2.618,0,0,1,.541-.233v-.773A2.3,2.3,0,0,0,2-.505a1.983,1.983,0,0,0,.6-.083,1.335,1.335,0,0,0,.457-.242,1.074,1.074,0,0,0,.294-.382,1.194,1.194,0,0,0,.1-.505q0-1.235-1.758-1.235H1.169v-.611h.5q1.556,0,1.556-1.16Q3.221-5.8,2.035-5.8a2.02,2.02,0,0,0-1.252.448v-.7a2.738,2.738,0,0,1,1.433-.36,2.2,2.2,0,0,1,.716.11,1.641,1.641,0,0,1,.549.308,1.363,1.363,0,0,1,.354.475,1.465,1.465,0,0,1,.125.611A1.538,1.538,0,0,1,2.7-3.3v.018a1.988,1.988,0,0,1,.593.156,1.583,1.583,0,0,1,.47.314,1.4,1.4,0,0,1,.31.455A1.452,1.452,0,0,1,4.188-1.784ZM9.334-3.177a6.191,6.191,0,0,1-.143,1.4A3.266,3.266,0,0,1,8.778-.745a1.859,1.859,0,0,1-.664.637A1.817,1.817,0,0,1,7.22.11,1.7,1.7,0,0,1,6.374-.1a1.773,1.773,0,0,1-.626-.609,3.085,3.085,0,0,1-.387-.982,6.073,6.073,0,0,1-.132-1.334,6.875,6.875,0,0,1,.138-1.459,3.337,3.337,0,0,1,.406-1.061A1.809,1.809,0,0,1,6.44-6.19a1.869,1.869,0,0,1,.912-.218Q9.334-6.407,9.334-3.177Zm-.738.07Q8.6-5.8,7.317-5.8q-1.349,0-1.349,2.738,0,2.553,1.323,2.553Q8.6-.505,8.6-3.107Z" transform="translate(0 39.349)" fill="#716d6d"/>
            <path id="Path_1736" data-name="Path 1736" d="M4.188-1.784a1.837,1.837,0,0,1-.16.776,1.713,1.713,0,0,1-.453.6,2.089,2.089,0,0,1-.7.385,2.835,2.835,0,0,1-.9.136A2.618,2.618,0,0,1,.541-.233v-.773A2.3,2.3,0,0,0,2-.505a1.983,1.983,0,0,0,.6-.083,1.335,1.335,0,0,0,.457-.242,1.074,1.074,0,0,0,.294-.382,1.194,1.194,0,0,0,.1-.505q0-1.235-1.758-1.235H1.169v-.611h.5q1.556,0,1.556-1.16Q3.221-5.8,2.035-5.8a2.02,2.02,0,0,0-1.252.448v-.7a2.738,2.738,0,0,1,1.433-.36,2.2,2.2,0,0,1,.716.11,1.641,1.641,0,0,1,.549.308,1.363,1.363,0,0,1,.354.475,1.465,1.465,0,0,1,.125.611A1.538,1.538,0,0,1,2.7-3.3v.018a1.988,1.988,0,0,1,.593.156,1.583,1.583,0,0,1,.47.314,1.4,1.4,0,0,1,.31.455A1.452,1.452,0,0,1,4.188-1.784ZM9.11-1.925a2.121,2.121,0,0,1-.158.835,1.826,1.826,0,0,1-.45.642A2.017,2.017,0,0,1,7.8-.035,2.758,2.758,0,0,1,6.877.11,2.537,2.537,0,0,1,5.572-.154V-.918a2.4,2.4,0,0,0,1.314.413,1.778,1.778,0,0,0,.617-.1,1.372,1.372,0,0,0,.468-.281,1.2,1.2,0,0,0,.3-.435,1.473,1.473,0,0,0,.1-.558,1.2,1.2,0,0,0-.413-.965,1.812,1.812,0,0,0-1.2-.349q-.127,0-.268,0l-.281.011-.275.015q-.134.009-.244.022L5.906-6.3H8.82v.65H6.53L6.4-3.8q.141-.009.3-.015t.281-.007a2.828,2.828,0,0,1,.9.132,1.9,1.9,0,0,1,.67.376,1.575,1.575,0,0,1,.417.6A2.1,2.1,0,0,1,9.11-1.925Z" transform="translate(0 10)" fill="#716d6d"/>
          </g>
          <line id="Line_418" data-name="Line 418" y1="205.441" transform="translate(13.15 6.791)" fill="none" stroke="#716d6d" stroke-miterlimit="10" stroke-width="1"/>
        </g>
        <g id="Group_1850" data-name="Group 1850" transform="translate(30.633 14.284)">
          <g id="Group_1843" data-name="Group 1843" transform="translate(0 1.934)">
            <g id="Group_1842" data-name="Group 1842">
              <line id="Line_434" data-name="Line 434" x1="34.885" y1="1.047" fill="none" stroke="#64c3ff" stroke-linecap="round" stroke-miterlimit="10" stroke-width="2"/>
              <line id="Line_435" data-name="Line 435" x1="34.885" y1="7.251" transform="translate(34.885 1.047)" fill="none" stroke="#64c3ff" stroke-linecap="round" stroke-miterlimit="10" stroke-width="2"/>
              <line id="Line_436" data-name="Line 436" x1="34.965" y1="10.715" transform="translate(69.769 8.298)" fill="none" stroke="#64c3ff" stroke-linecap="round" stroke-miterlimit="10" stroke-width="2"/>
              <line id="Line_437" data-name="Line 437" x1="34.885" y1="8.459" transform="translate(104.735 19.013)" fill="none" stroke="#64c3ff" stroke-linecap="round" stroke-miterlimit="10" stroke-width="2"/>
              <line id="Line_438" data-name="Line 438" x1="34.885" y1="6.687" transform="translate(139.619 27.473)" fill="none" stroke="#64c3ff" stroke-linecap="round" stroke-miterlimit="10" stroke-width="2"/>
            </g>
          </g>
          <g id="Group_1845" data-name="Group 1845" transform="translate(0 48.984)">
            <g id="Group_1844" data-name="Group 1844">
              <line id="Line_440" data-name="Line 440" x1="34.885" y1="7.493" transform="translate(0 52.287)" fill="none" stroke="#a59c9c" stroke-linecap="round" stroke-miterlimit="10" stroke-width="2"/>
              <line id="Line_441" data-name="Line 441" x1="34.885" y2="9.426" transform="translate(34.885 50.353)" fill="none" stroke="#a59c9c" stroke-linecap="round" stroke-miterlimit="10" stroke-width="2"/>
              <line id="Line_442" data-name="Line 442" x1="34.965" y2="24.25" transform="translate(69.769 26.103)" fill="none" stroke="#a59c9c" stroke-linecap="round" stroke-miterlimit="10" stroke-width="2"/>
              <line id="Line_443" data-name="Line 443" x1="34.885" y2="8.057" transform="translate(104.735 18.047)" fill="none" stroke="#a59c9c" stroke-linecap="round" stroke-miterlimit="10" stroke-width="2"/>
              <line id="Line_444" data-name="Line 444" x1="34.885" y2="18.047" transform="translate(139.619)" fill="none" stroke="#a59c9c" stroke-linecap="round" stroke-miterlimit="10" stroke-width="2"/>
            </g>
          </g>
          <g id="Group_1847" data-name="Group 1847">
            <g id="Group_1846" data-name="Group 1846">
              <line id="Line_446" data-name="Line 446" x1="34.885" y1="3.061" fill="none" stroke="#356bd0" stroke-linecap="round" stroke-miterlimit="10" stroke-width="2"/>
              <line id="Line_447" data-name="Line 447" x1="34.885" y1="9.748" transform="translate(34.885 3.061)" fill="none" stroke="#356bd0" stroke-linecap="round" stroke-miterlimit="10" stroke-width="2"/>
              <line id="Line_448" data-name="Line 448" x1="34.965" y1="5.398" transform="translate(69.769 12.81)" fill="none" stroke="#356bd0" stroke-linecap="round" stroke-miterlimit="10" stroke-width="2"/>
              <line id="Line_449" data-name="Line 449" x1="34.885" y2="0.886" transform="translate(104.735 17.321)" fill="none" stroke="#356bd0" stroke-linecap="round" stroke-miterlimit="10" stroke-width="2"/>
              <line id="Line_450" data-name="Line 450" x1="34.885" y1="3.384" transform="translate(139.619 17.321)" fill="none" stroke="#356bd0" stroke-linecap="round" stroke-miterlimit="10" stroke-width="2"/>
            </g>
          </g>
          <g id="Group_1849" data-name="Group 1849" transform="translate(0 63.566)">
            <g id="Group_1848" data-name="Group 1848">
              <line id="Line_452" data-name="Line 452" x1="34.885" y2="6.929" transform="translate(0 27.876)" fill="none" stroke="#fff" stroke-linecap="round" stroke-miterlimit="10" stroke-width="2"/>
              <line id="Line_453" data-name="Line 453" x1="34.885" y2="5.881" transform="translate(34.885 21.994)" fill="none" stroke="#fff" stroke-linecap="round" stroke-miterlimit="10" stroke-width="2"/>
              <line id="Line_454" data-name="Line 454" x1="34.965" y2="20.947" transform="translate(69.769 1.047)" fill="none" stroke="#fff" stroke-linecap="round" stroke-miterlimit="10" stroke-width="2"/>
              <line id="Line_455" data-name="Line 455" x1="34.885" y1="11.037" transform="translate(104.735 1.047)" fill="none" stroke="#fff" stroke-linecap="round" stroke-miterlimit="10" stroke-width="2"/>
              <line id="Line_456" data-name="Line 456" x1="34.885" y2="12.085" transform="translate(139.619)" fill="none" stroke="#fff" stroke-linecap="round" stroke-miterlimit="10" stroke-width="2"/>
            </g>
          </g>
        </g>
        <g id="Group_1861" data-name="Group 1861" transform="translate(28.216 11.867)">
          <g id="Group_1854" data-name="Group 1854" transform="translate(0 1.934)">
            <g id="Group_1853" data-name="Group 1853">
              <rect id="Rectangle_2340" data-name="Rectangle 2340" width="4.834" height="4.834" rx="2.417" fill="#64c3ff"/>
              <rect id="Rectangle_2341" data-name="Rectangle 2341" width="4.834" height="4.834" rx="2.417" transform="translate(34.885 1.047)" fill="#64c3ff"/>
              <rect id="Rectangle_2342" data-name="Rectangle 2342" width="4.834" height="4.834" rx="2.417" transform="translate(69.769 8.298)" fill="#64c3ff"/>
              <rect id="Rectangle_2343" data-name="Rectangle 2343" width="4.834" height="4.834" rx="2.417" transform="translate(104.735 19.013)" fill="#64c3ff"/>
              <rect id="Rectangle_2344" data-name="Rectangle 2344" width="4.834" height="4.834" rx="2.417" transform="translate(139.619 27.473)" fill="#64c3ff"/>
              <rect id="Rectangle_2345" data-name="Rectangle 2345" width="4.834" height="4.834" rx="2.417" transform="translate(174.504 34.16)" fill="#64c3ff"/>
            </g>
          </g>
          <g id="Group_1856" data-name="Group 1856" transform="translate(0 48.984)">
            <g id="Group_1855" data-name="Group 1855">
              <rect id="Rectangle_2347" data-name="Rectangle 2347" width="4.834" height="4.834" rx="2.417" transform="translate(0 52.287)" fill="#a59c9c"/>
              <rect id="Rectangle_2348" data-name="Rectangle 2348" width="4.834" height="4.834" rx="2.417" transform="translate(34.885 59.779)" fill="#a59c9c"/>
              <rect id="Rectangle_2349" data-name="Rectangle 2349" width="4.834" height="4.834" rx="2.417" transform="translate(69.769 50.353)" fill="#a59c9c"/>
              <rect id="Rectangle_2350" data-name="Rectangle 2350" width="4.834" height="4.834" rx="2.417" transform="translate(104.735 26.103)" fill="#a59c9c"/>
              <rect id="Rectangle_2351" data-name="Rectangle 2351" width="4.834" height="4.834" rx="2.417" transform="translate(139.619 18.047)" fill="#a59c9c"/>
              <rect id="Rectangle_2352" data-name="Rectangle 2352" width="4.834" height="4.834" rx="2.417" transform="translate(174.504)" fill="#a59c9c"/>
            </g>
          </g>
          <g id="Group_1858" data-name="Group 1858">
            <g id="Group_1857" data-name="Group 1857">
              <rect id="Rectangle_2354" data-name="Rectangle 2354" width="4.834" height="4.834" rx="2.417" fill="#356bd0"/>
              <rect id="Rectangle_2355" data-name="Rectangle 2355" width="4.834" height="4.834" rx="2.417" transform="translate(34.885 3.061)" fill="#356bd0"/>
              <rect id="Rectangle_2356" data-name="Rectangle 2356" width="4.834" height="4.834" rx="2.417" transform="translate(69.769 12.81)" fill="#356bd0"/>
              <rect id="Rectangle_2357" data-name="Rectangle 2357" width="4.834" height="4.834" rx="2.417" transform="translate(104.735 18.208)" fill="#356bd0"/>
              <rect id="Rectangle_2358" data-name="Rectangle 2358" width="4.834" height="4.834" rx="2.417" transform="translate(139.619 17.321)" fill="#356bd0"/>
              <rect id="Rectangle_2359" data-name="Rectangle 2359" width="4.834" height="4.834" rx="2.417" transform="translate(174.504 20.705)" fill="#356bd0"/>
            </g>
          </g>
          <g id="Group_1860" data-name="Group 1860" transform="translate(0 63.566)">
            <g id="Group_1859" data-name="Group 1859">
              <rect id="Rectangle_2361" data-name="Rectangle 2361" width="4.834" height="4.834" rx="2.417" transform="translate(0 34.804)" fill="#fff" stroke="#fff" stroke-miterlimit="10" stroke-width="0.5"/>
              <rect id="Rectangle_2362" data-name="Rectangle 2362" width="4.834" height="4.834" rx="2.417" transform="translate(34.885 27.876)" fill="#fff" stroke="#fff" stroke-miterlimit="10" stroke-width="0.5"/>
              <rect id="Rectangle_2363" data-name="Rectangle 2363" width="4.834" height="4.834" rx="2.417" transform="translate(69.769 21.994)" fill="#fff" stroke="#fff" stroke-miterlimit="10" stroke-width="0.5"/>
              <rect id="Rectangle_2364" data-name="Rectangle 2364" width="4.834" height="4.834" rx="2.417" transform="translate(104.735 1.047)" fill="#fff" stroke="#fff" stroke-miterlimit="10" stroke-width="0.5"/>
              <rect id="Rectangle_2365" data-name="Rectangle 2365" width="4.834" height="4.834" rx="2.417" transform="translate(139.619 12.085)" fill="#fff" stroke="#fff" stroke-miterlimit="10" stroke-width="0.5"/>
              <rect id="Rectangle_2366" data-name="Rectangle 2366" width="4.834" height="4.834" rx="2.417" transform="translate(174.504)" fill="#fff" stroke="#fff" stroke-miterlimit="10" stroke-width="0.5"/>
            </g>
          </g>
        </g>
      </g>
      <path id="Path_1734" data-name="Path 1734" d="M.4,0H4.545V-.711H2.718c-.333,0-.738.036-1.08.063C3.186-2.115,4.221-3.456,4.221-4.77A1.81,1.81,0,0,0,2.3-6.723,2.523,2.523,0,0,0,.36-5.751l.477.468A1.848,1.848,0,0,1,2.2-6.048,1.16,1.16,0,0,1,3.42-4.743C3.42-3.609,2.466-2.3.4-.486ZM7.5.117c1.251,0,2.052-1.143,2.052-3.438s-.8-3.4-2.052-3.4-2.061,1.107-2.061,3.4S6.237.117,7.5.117Zm0-.657c-.756,0-1.26-.837-1.26-2.781,0-1.926.5-2.745,1.26-2.745s1.251.819,1.251,2.745C8.748-1.377,8.244-.54,7.5-.54ZM10.782,0H14.4V-.684H13.077V-6.606h-.63a3.974,3.974,0,0,1-1.368.477v.522h1.17V-.684H10.782ZM16.02-2.475l1.5-2.25c.189-.324.369-.648.531-.972h.036c-.018.342-.045.873-.045,1.2v2.025ZM18.045,0h.774V-1.818h.873v-.657h-.873V-6.606H17.91L15.165-2.358v.54h2.88Z" transform="translate(220.406 453.304)" fill="#d48773"/>
      <path id="Path_1735" data-name="Path 1735" d="M.4,0H4.545V-.711H2.718c-.333,0-.738.036-1.08.063C3.186-2.115,4.221-3.456,4.221-4.77A1.81,1.81,0,0,0,2.3-6.723,2.523,2.523,0,0,0,.36-5.751l.477.468A1.848,1.848,0,0,1,2.2-6.048,1.16,1.16,0,0,1,3.42-4.743C3.42-3.609,2.466-2.3.4-.486ZM7.5.117c1.251,0,2.052-1.143,2.052-3.438s-.8-3.4-2.052-3.4-2.061,1.107-2.061,3.4S6.237.117,7.5.117Zm0-.657c-.756,0-1.26-.837-1.26-2.781,0-1.926.5-2.745,1.26-2.745s1.251.819,1.251,2.745C8.748-1.377,8.244-.54,7.5-.54ZM10.782,0H14.4V-.684H13.077V-6.606h-.63a3.974,3.974,0,0,1-1.368.477v.522h1.17V-.684H10.782Zm5.373-4.581c0-.9.486-1.494,1.116-1.494.846,0,1.35.72,1.44,2.079a1.729,1.729,0,0,1-1.377.882C16.551-3.114,16.155-3.69,16.155-4.581Zm.936,4.7c1.242,0,2.394-1.026,2.394-3.7,0-2.1-.945-3.141-2.214-3.141a1.981,1.981,0,0,0-1.89,2.142c0,1.368.72,2.079,1.818,2.079a2.053,2.053,0,0,0,1.521-.81c-.063,2.043-.8,2.745-1.656,2.745a1.455,1.455,0,0,1-1.1-.5l-.459.513A2.1,2.1,0,0,0,17.091.117Z" transform="translate(393.621 453.304)" fill="#d48773"/>
    </g>
    <g id="Group_1932" data-name="Group 1932" transform="translate(-8873 -15195)">
      <g id="Group_1577" data-name="Group 1577" transform="translate(-573 -559)">
        <path id="內文p" d="M7.4,6.675h.814V5.608h1.991V4.893H8.217V3.8H7.4V4.893H5.753v.715H7.4ZM2.9,6.7h.8V5.619H5.214V4.9H3.707V3.8H2.9V4.9H.858v.715H2.9Zm2.75,4.8a28.751,28.751,0,0,1,4.367,2.343l.407-.682A27.381,27.381,0,0,0,6.05,10.921Zm.2-3.586H8.459V9.9H5.808a5.8,5.8,0,0,0,.044-.748ZM2.585,9.9V7.907H5.038V9.15a5.8,5.8,0,0,1-.044.748Zm6.688,0V7.181H5.852V6.114H5.038V7.181H1.793V9.9H.561v.759H4.8c-.44,1-1.529,1.9-4.334,2.53a3.2,3.2,0,0,1,.484.671c3.135-.759,4.3-1.9,4.708-3.2h4.785V9.9Zm8.085-4.477A9.025,9.025,0,0,0,16.5,3.738l-.847.242a8.573,8.573,0,0,1,.814,1.727ZM18.8,6.532a10.091,10.091,0,0,1-2.266,3.685,11.119,11.119,0,0,1-2.4-3.685Zm2.651,0v-.8H11.594v.8h1.694a12.393,12.393,0,0,0,2.64,4.257,11.831,11.831,0,0,1-4.488,2.277,4.555,4.555,0,0,1,.506.759,12.647,12.647,0,0,0,4.576-2.453,11.12,11.12,0,0,0,4.51,2.409,3.763,3.763,0,0,1,.561-.759,10.8,10.8,0,0,1-4.444-2.233,11.608,11.608,0,0,0,2.574-4.257ZM24.5,8.49c.286-.913.55-1.782.8-2.728h.044c.264.935.517,1.815.814,2.728l.385,1.232H24.1ZM22.033,13h1.034l.781-2.464H26.8L27.566,13h1.078L25.905,4.926H24.772ZM36.322,8.82a7.308,7.308,0,0,0,2.189,5.236l.66-.341a6.879,6.879,0,0,1,0-9.79l-.66-.341A7.308,7.308,0,0,0,36.322,8.82Zm7.15-4.29a17.147,17.147,0,0,1-.748,2.343l.528.187c.286-.572.627-1.529.913-2.288Zm-2,2.3a19.606,19.606,0,0,0-.616-2.3l-.605.143a20.63,20.63,0,0,1,.594,2.321Zm-.33,2.046a8.655,8.655,0,0,1-1.133,2.838,4.192,4.192,0,0,1,.4.8,9.843,9.843,0,0,0,1.276-3.465Zm2.75-.638v-.77H42.537V3.8H41.8V7.467H40.194v.77H41.8v5.61h.737V8.237Zm-1.221.957c.22.429.8,1.738.99,2.277l.561-.6c-.154-.33-.9-1.694-1.1-1.98Zm2.794,2.277c.022-.286.033-.561.033-.814h3.3v.814ZM48.8,9.26v.814H45.5V9.26Zm.77-.649H44.748v2.024a4.493,4.493,0,0,1-.726,2.8,2.647,2.647,0,0,1,.572.539,4.038,4.038,0,0,0,.792-1.925H48.8v.935c0,.121-.033.165-.176.165s-.583.011-1.078-.011a2.629,2.629,0,0,1,.231.682,4.165,4.165,0,0,0,1.419-.121c.3-.121.374-.319.374-.715ZM47.5,7.335V6.587h2.4V5.993H47.5V5.322h2.6V4.695H47.5V3.8h-.8v.891H44.22v.627H46.7v.671H44.5v.594h2.2v.748H44.1v.627h6.1V7.335ZM56.32,4.629H54.45a4.488,4.488,0,0,0-.473-.869l-.7.187a6.516,6.516,0,0,1,.33.682H51.3v.594H56.32Zm-3.652,1.54H55.11v.748H52.668Zm3.157,1.243V5.674h-3.85V7.412Zm-3.674,6.38a5.969,5.969,0,0,0,1.21-1.991l-.748-.176a5.446,5.446,0,0,1-1.21,1.859ZM56.2,9.2c-.638.044-1.287.088-1.914.121V9.04a7.409,7.409,0,0,0,1.694-.858L55.55,7.83l-.143.033h-3.74v.55h2.827a7.762,7.762,0,0,1-.957.363V9.37c-.847.044-1.628.077-2.244.11l.066.616c.616-.033,1.364-.088,2.178-.132v.649c0,.11-.033.143-.176.154s-.55.011-1.078-.011a2.461,2.461,0,0,1,.231.594,4.965,4.965,0,0,0,1.408-.1c.3-.1.363-.253.363-.627V9.909l1.9-.132Zm-1.738,2.684a12.313,12.313,0,0,1,.209,1.859l.8-.11a10.167,10.167,0,0,0-.264-1.815Zm2.266-.011a10.355,10.355,0,0,1,.6,1.859l.792-.176a8.972,8.972,0,0,0-.649-1.826Zm2.255-.077a11.681,11.681,0,0,1,1.155,1.98l.792-.253a10.872,10.872,0,0,0-1.2-1.925Zm-.66-6.347V3.793h-.737V5.454H56.43v.7h1.155v.077a8.55,8.55,0,0,1-.11,1.474c-.3-.22-.594-.418-.88-.6l-.4.55c.352.242.737.506,1.1.792a4.9,4.9,0,0,1-1.87,2.5,2.941,2.941,0,0,1,.539.506,5.481,5.481,0,0,0,1.947-2.486,6.477,6.477,0,0,1,.869.9l.44-.638A7.178,7.178,0,0,0,58.135,8.2a9.253,9.253,0,0,0,.187-1.969V6.158h1.067c.011,3.432.055,5.181,1.144,5.181.561,0,.7-.429.781-1.716a3.264,3.264,0,0,1-.506-.462c-.011.814-.055,1.452-.209,1.452-.484,0-.473-1.826-.451-5.159Zm6.71,3.366a7.308,7.308,0,0,0-2.189-5.236l-.66.341a6.879,6.879,0,0,1,0,9.79l.66.341A7.308,7.308,0,0,0,65.032,8.82Z" transform="translate(881 1066)" fill="#aca4a4"/>
        <path id="內文p-2" data-name="內文p" d="M5.533,13.066c-.352-.187-.825-.418-1.331-.638a2.378,2.378,0,0,0,.825-1.364H6.193V10.47h-1.1v-.44H4.422v.44H3.036c.121-.242.242-.473.352-.7H5.874V8.743c.165.143.4.341.495.451a7.892,7.892,0,0,0,.6-1.221,15.631,15.631,0,0,0,.814,2.9,5.455,5.455,0,0,1-2.277,2.211Zm-1.2-2a2.113,2.113,0,0,1-.825,1.089c-.407-.165-.825-.308-1.221-.429.132-.209.264-.429.407-.66ZM1.716,8.512H3.08v.726H1.716Zm3.432,0v.726H3.729V8.512ZM8.954,6.7A12.916,12.916,0,0,1,8.2,10.052a15.016,15.016,0,0,1-.8-3.223L7.447,6.7Zm-7.04.242v-.7H3.08v.7ZM3.08,5.08v.605H1.914V5.08Zm1.9,0v.605H3.729V5.08ZM3.729,6.939v-.7H4.983v.7ZM10.516,6.7V5.96H7.667c.176-.66.341-1.353.473-2.024l-.715-.143A14.57,14.57,0,0,1,5.874,8.578V7.995H3.729V7.511H5.654V6.268h.627V5.652H5.654V4.508H3.729V3.793H3.08v.715h-1.8V5.652H.517v.616h.759V7.511h1.8v.484H1.012V9.766H2.64c-.11.231-.22.462-.352.7H.528v.594H1.947c-.231.352-.462.7-.671.968a15.251,15.251,0,0,1,1.562.517,10.249,10.249,0,0,1-2.4.737,1.866,1.866,0,0,1,.352.55A9.793,9.793,0,0,0,3.6,12.868a11.327,11.327,0,0,1,1.408.682l.264-.242a3.488,3.488,0,0,1,.374.55,6.508,6.508,0,0,0,2.508-2.222,5.571,5.571,0,0,0,1.925,2.156,2.954,2.954,0,0,1,.528-.627A5.04,5.04,0,0,1,8.569,10.91,12.825,12.825,0,0,0,9.68,6.7Zm7.271.528A4.95,4.95,0,0,0,17,6.62a6.256,6.256,0,0,0,.638-.7l-.572-.187a3.928,3.928,0,0,1-.55.583c-.286-.154-.572-.319-.847-.44l-.407.363a8.086,8.086,0,0,1,.792.429A6.612,6.612,0,0,1,15,7.269a2.838,2.838,0,0,1,.451.429,7.784,7.784,0,0,0,1.1-.715,6,6,0,0,1,.792.638Zm-.033-1.969c-.2-.154-.462-.33-.759-.517a5.649,5.649,0,0,0,.6-.671l-.572-.154a4.685,4.685,0,0,1-.517.539c-.286-.154-.561-.3-.825-.407l-.4.363a7.33,7.33,0,0,1,.77.4,6.63,6.63,0,0,1-.979.561,3.446,3.446,0,0,1,.462.4,7.643,7.643,0,0,0,1.023-.66,5.444,5.444,0,0,1,.759.561Zm-5.115,3.08h7.733V9.7h.8V7.709h-.858c.088-.979.187-2.4.242-3.487H18.018v.561h1.749l-.033.594H18.073v.561H19.7l-.055.594H18.007v.561h1.6c-.022.22-.044.418-.066.616H13.508l-.044-.616h1.529V6.532H13.431l-.044-.594h1.562V5.377h-1.6l-.044-.539A11.533,11.533,0,0,0,15,4.409L14.641,3.9a20.588,20.588,0,0,1-2.123.539l.22,3.267h-.88V9.7h.781ZM21.4,11.009H17v-.2a11.463,11.463,0,0,0,2.486-1.364l-.495-.407-.165.044h-5.17V9.7h4.3a10.21,10.21,0,0,1-1.749.836v.473H11.616V11.7H16.2v1.243c0,.154-.044.187-.231.2-.165,0-.781,0-1.463-.022a3.08,3.08,0,0,1,.286.693,6.582,6.582,0,0,0,1.771-.11c.341-.121.429-.308.429-.737V11.7h4.4ZM24.5,8.49c.286-.913.55-1.782.8-2.728h.044c.264.935.517,1.815.814,2.728l.385,1.232H24.1ZM22.033,13h1.034l.781-2.464H26.8L27.566,13h1.078L25.905,4.926H24.772ZM36.322,8.82a7.308,7.308,0,0,0,2.189,5.236l.66-.341a6.879,6.879,0,0,1,0-9.79l-.66-.341A7.308,7.308,0,0,0,36.322,8.82Zm7.15-4.29a17.147,17.147,0,0,1-.748,2.343l.528.187c.286-.572.627-1.529.913-2.288Zm-2,2.3a19.606,19.606,0,0,0-.616-2.3l-.605.143a20.63,20.63,0,0,1,.594,2.321Zm-.33,2.046a8.655,8.655,0,0,1-1.133,2.838,4.192,4.192,0,0,1,.4.8,9.843,9.843,0,0,0,1.276-3.465Zm2.75-.638v-.77H42.537V3.8H41.8V7.467H40.194v.77H41.8v5.61h.737V8.237Zm-1.221.957c.22.429.8,1.738.99,2.277l.561-.6c-.154-.33-.9-1.694-1.1-1.98Zm2.794,2.277c.022-.286.033-.561.033-.814h3.3v.814ZM48.8,9.26v.814H45.5V9.26Zm.77-.649H44.748v2.024a4.493,4.493,0,0,1-.726,2.8,2.647,2.647,0,0,1,.572.539,4.038,4.038,0,0,0,.792-1.925H48.8v.935c0,.121-.033.165-.176.165s-.583.011-1.078-.011a2.629,2.629,0,0,1,.231.682,4.165,4.165,0,0,0,1.419-.121c.3-.121.374-.319.374-.715ZM47.5,7.335V6.587h2.4V5.993H47.5V5.322h2.6V4.695H47.5V3.8h-.8v.891H44.22v.627H46.7v.671H44.5v.594h2.2v.748H44.1v.627h6.1V7.335ZM56.32,4.629H54.45a4.488,4.488,0,0,0-.473-.869l-.7.187a6.516,6.516,0,0,1,.33.682H51.3v.594H56.32Zm-3.652,1.54H55.11v.748H52.668Zm3.157,1.243V5.674h-3.85V7.412Zm-3.674,6.38a5.969,5.969,0,0,0,1.21-1.991l-.748-.176a5.446,5.446,0,0,1-1.21,1.859ZM56.2,9.2c-.638.044-1.287.088-1.914.121V9.04a7.409,7.409,0,0,0,1.694-.858L55.55,7.83l-.143.033h-3.74v.55h2.827a7.762,7.762,0,0,1-.957.363V9.37c-.847.044-1.628.077-2.244.11l.066.616c.616-.033,1.364-.088,2.178-.132v.649c0,.11-.033.143-.176.154s-.55.011-1.078-.011a2.461,2.461,0,0,1,.231.594,4.965,4.965,0,0,0,1.408-.1c.3-.1.363-.253.363-.627V9.909l1.9-.132Zm-1.738,2.684a12.313,12.313,0,0,1,.209,1.859l.8-.11a10.167,10.167,0,0,0-.264-1.815Zm2.266-.011a10.355,10.355,0,0,1,.6,1.859l.792-.176a8.972,8.972,0,0,0-.649-1.826Zm2.255-.077a11.681,11.681,0,0,1,1.155,1.98l.792-.253a10.872,10.872,0,0,0-1.2-1.925Zm-.66-6.347V3.793h-.737V5.454H56.43v.7h1.155v.077a8.55,8.55,0,0,1-.11,1.474c-.3-.22-.594-.418-.88-.6l-.4.55c.352.242.737.506,1.1.792a4.9,4.9,0,0,1-1.87,2.5,2.941,2.941,0,0,1,.539.506,5.481,5.481,0,0,0,1.947-2.486,6.477,6.477,0,0,1,.869.9l.44-.638A7.178,7.178,0,0,0,58.135,8.2a9.253,9.253,0,0,0,.187-1.969V6.158h1.067c.011,3.432.055,5.181,1.144,5.181.561,0,.7-.429.781-1.716a3.264,3.264,0,0,1-.506-.462c-.011.814-.055,1.452-.209,1.452-.484,0-.473-1.826-.451-5.159Zm6.71,3.366a7.308,7.308,0,0,0-2.189-5.236l-.66.341a6.879,6.879,0,0,1,0,9.79l.66.341A7.308,7.308,0,0,0,65.032,8.82Z" transform="translate(881 1087)" fill="#aca4a4"/>
      </g>
      <path id="內文p-3" data-name="內文p" d="M7.4,6.675h.814V5.608h1.991V4.893H8.217V3.8H7.4V4.893H5.753v.715H7.4ZM2.9,6.7h.8V5.619H5.214V4.9H3.707V3.8H2.9V4.9H.858v.715H2.9Zm2.75,4.8a28.751,28.751,0,0,1,4.367,2.343l.407-.682A27.381,27.381,0,0,0,6.05,10.921Zm.2-3.586H8.459V9.9H5.808a5.8,5.8,0,0,0,.044-.748ZM2.585,9.9V7.907H5.038V9.15a5.8,5.8,0,0,1-.044.748Zm6.688,0V7.181H5.852V6.114H5.038V7.181H1.793V9.9H.561v.759H4.8c-.44,1-1.529,1.9-4.334,2.53a3.2,3.2,0,0,1,.484.671c3.135-.759,4.3-1.9,4.708-3.2h4.785V9.9Zm8.085-4.477A9.025,9.025,0,0,0,16.5,3.738l-.847.242a8.573,8.573,0,0,1,.814,1.727ZM18.8,6.532a10.091,10.091,0,0,1-2.266,3.685,11.119,11.119,0,0,1-2.4-3.685Zm2.651,0v-.8H11.594v.8h1.694a12.393,12.393,0,0,0,2.64,4.257,11.831,11.831,0,0,1-4.488,2.277,4.555,4.555,0,0,1,.506.759,12.647,12.647,0,0,0,4.576-2.453,11.12,11.12,0,0,0,4.51,2.409,3.763,3.763,0,0,1,.561-.759,10.8,10.8,0,0,1-4.444-2.233,11.608,11.608,0,0,0,2.574-4.257Zm4.7,6.611a3.117,3.117,0,0,0,2.475-1.155l-.561-.638a2.451,2.451,0,0,1-1.87.9c-1.54,0-2.508-1.276-2.508-3.311,0-2.013,1.012-3.267,2.541-3.267a2.2,2.2,0,0,1,1.65.77l.55-.66a2.981,2.981,0,0,0-2.211-1c-2.046,0-3.575,1.584-3.575,4.191S24.145,13.143,26.147,13.143ZM36.663,8.82a7.308,7.308,0,0,0,2.189,5.236l.66-.341a6.879,6.879,0,0,1,0-9.79l-.66-.341A7.308,7.308,0,0,0,36.663,8.82Zm6.71-3.6v.759H46.53V7.357H43.813V8.1h6.138V7.357h-2.6V5.982h3.1V5.223h-3.1V3.848H46.53V5.223Zm-.528-1.4a8.372,8.372,0,0,1-2.31,2.255,4.166,4.166,0,0,1,.418.66,10.756,10.756,0,0,0,2.662-2.618Zm.187,2.409A9.9,9.9,0,0,1,40.37,9.2a5.318,5.318,0,0,1,.44.8A10.8,10.8,0,0,0,42.075,8.8v5.038h.792V7.863a9.379,9.379,0,0,0,.88-1.342Zm1.342,4.543a10.856,10.856,0,0,1,1.353,1.914l.7-.418a12.477,12.477,0,0,0-1.386-1.859Zm6.1-1.452h-1.54v-.9h-.825v.9H43.5v.748h4.609v2.794c0,.154-.044.2-.231.209s-.814.011-1.507-.011a3.128,3.128,0,0,1,.286.77,6.3,6.3,0,0,0,1.815-.121c.352-.132.462-.352.462-.836V10.074h1.54Zm5.929-3.465H53.977C53.988,5.234,54,4.6,54,3.947h-.8c0,.649,0,1.287-.011,1.914h-1.54v.8h1.518c-.088,2.75-.418,5.181-1.782,6.622a2.518,2.518,0,0,1,.616.561c1.485-1.606,1.859-4.235,1.958-7.183h1.661c-.077,4.213-.176,5.709-.429,6.017a.319.319,0,0,1-.363.176c-.2,0-.671,0-1.177-.044a2.089,2.089,0,0,1,.242.825,6.958,6.958,0,0,0,1.287-.011.874.874,0,0,0,.726-.418c.341-.473.418-2.068.506-6.93Zm1.672,6.226V5.949h2.134v6.138Zm-.77-6.93v8.514h.77v-.8h2.134v.726h.814V5.157ZM72.391,7.038a13.28,13.28,0,0,0-1.8-2.266L70,5.135c.275.286.561.627.836.957l-3.2.253a15.3,15.3,0,0,0,1.639-2.277l-.836-.209a10.918,10.918,0,0,1-1.408,2.156,1.246,1.246,0,0,1-.572.462,7.42,7.42,0,0,1,.264.715A30.087,30.087,0,0,1,71.291,6.7a8.169,8.169,0,0,1,.484.759ZM63.437,9.293c.077-.506.143-1.078.209-1.639h2.4V4.387H62.7v.759h2.585v1.76h-2.3c-.088,1-.264,2.31-.407,3.135h2.75c-.132,1.9-.275,2.662-.484,2.871-.088.1-.2.11-.374.11s-.66,0-1.155-.044a1.68,1.68,0,0,1,.22.748,10.06,10.06,0,0,0,1.276.011.948.948,0,0,0,.715-.319c.3-.341.451-1.276.6-3.762.011-.11.022-.363.022-.363Zm3.96,1.012V8.776h1.485v1.529ZM71.2,8.776v1.529H69.674V8.776Zm1.408,4.8A9.751,9.751,0,0,0,71.2,11.207l-.671.3c.22.286.44.638.649.968l-1.507.1V10.987h2.288V8.094H69.674V7.027h-.792V8.094H66.671v2.893h2.211v1.639c-1.012.066-1.947.121-2.662.154l.11.792c1.386-.1,3.355-.242,5.247-.4a7.479,7.479,0,0,1,.319.737ZM76.373,8.82a7.308,7.308,0,0,0-2.189-5.236l-.66.341a6.879,6.879,0,0,1,0,9.79l.66.341A7.308,7.308,0,0,0,76.373,8.82Z" transform="translate(307 457)" fill="#aca4a4"/>
      <path id="內文p-4" data-name="內文p" d="M5.533,13.066c-.352-.187-.825-.418-1.331-.638a2.378,2.378,0,0,0,.825-1.364H6.193V10.47h-1.1v-.44H4.422v.44H3.036c.121-.242.242-.473.352-.7H5.874V8.743c.165.143.4.341.495.451a7.892,7.892,0,0,0,.6-1.221,15.631,15.631,0,0,0,.814,2.9,5.455,5.455,0,0,1-2.277,2.211Zm-1.2-2a2.113,2.113,0,0,1-.825,1.089c-.407-.165-.825-.308-1.221-.429.132-.209.264-.429.407-.66ZM1.716,8.512H3.08v.726H1.716Zm3.432,0v.726H3.729V8.512ZM8.954,6.7A12.916,12.916,0,0,1,8.2,10.052a15.016,15.016,0,0,1-.8-3.223L7.447,6.7Zm-7.04.242v-.7H3.08v.7ZM3.08,5.08v.605H1.914V5.08Zm1.9,0v.605H3.729V5.08ZM3.729,6.939v-.7H4.983v.7ZM10.516,6.7V5.96H7.667c.176-.66.341-1.353.473-2.024l-.715-.143A14.57,14.57,0,0,1,5.874,8.578V7.995H3.729V7.511H5.654V6.268h.627V5.652H5.654V4.508H3.729V3.793H3.08v.715h-1.8V5.652H.517v.616h.759V7.511h1.8v.484H1.012V9.766H2.64c-.11.231-.22.462-.352.7H.528v.594H1.947c-.231.352-.462.7-.671.968a15.251,15.251,0,0,1,1.562.517,10.249,10.249,0,0,1-2.4.737,1.866,1.866,0,0,1,.352.55A9.793,9.793,0,0,0,3.6,12.868a11.327,11.327,0,0,1,1.408.682l.264-.242a3.488,3.488,0,0,1,.374.55,6.508,6.508,0,0,0,2.508-2.222,5.571,5.571,0,0,0,1.925,2.156,2.954,2.954,0,0,1,.528-.627A5.04,5.04,0,0,1,8.569,10.91,12.825,12.825,0,0,0,9.68,6.7Zm7.271.528A4.95,4.95,0,0,0,17,6.62a6.256,6.256,0,0,0,.638-.7l-.572-.187a3.928,3.928,0,0,1-.55.583c-.286-.154-.572-.319-.847-.44l-.407.363a8.086,8.086,0,0,1,.792.429A6.612,6.612,0,0,1,15,7.269a2.838,2.838,0,0,1,.451.429,7.784,7.784,0,0,0,1.1-.715,6,6,0,0,1,.792.638Zm-.033-1.969c-.2-.154-.462-.33-.759-.517a5.649,5.649,0,0,0,.6-.671l-.572-.154a4.685,4.685,0,0,1-.517.539c-.286-.154-.561-.3-.825-.407l-.4.363a7.33,7.33,0,0,1,.77.4,6.63,6.63,0,0,1-.979.561,3.446,3.446,0,0,1,.462.4,7.643,7.643,0,0,0,1.023-.66,5.444,5.444,0,0,1,.759.561Zm-5.115,3.08h7.733V9.7h.8V7.709h-.858c.088-.979.187-2.4.242-3.487H18.018v.561h1.749l-.033.594H18.073v.561H19.7l-.055.594H18.007v.561h1.6c-.022.22-.044.418-.066.616H13.508l-.044-.616h1.529V6.532H13.431l-.044-.594h1.562V5.377h-1.6l-.044-.539A11.533,11.533,0,0,0,15,4.409L14.641,3.9a20.588,20.588,0,0,1-2.123.539l.22,3.267h-.88V9.7h.781ZM21.4,11.009H17v-.2a11.463,11.463,0,0,0,2.486-1.364l-.495-.407-.165.044h-5.17V9.7h4.3a10.21,10.21,0,0,1-1.749.836v.473H11.616V11.7H16.2v1.243c0,.154-.044.187-.231.2-.165,0-.781,0-1.463-.022a3.08,3.08,0,0,1,.286.693,6.582,6.582,0,0,0,1.771-.11c.341-.121.429-.308.429-.737V11.7h4.4Zm4.752,2.134a3.117,3.117,0,0,0,2.475-1.155l-.561-.638a2.451,2.451,0,0,1-1.87.9c-1.54,0-2.508-1.276-2.508-3.311,0-2.013,1.012-3.267,2.541-3.267a2.2,2.2,0,0,1,1.65.77l.55-.66a2.981,2.981,0,0,0-2.211-1c-2.046,0-3.575,1.584-3.575,4.191S24.145,13.143,26.147,13.143ZM36.663,8.82a7.308,7.308,0,0,0,2.189,5.236l.66-.341a6.879,6.879,0,0,1,0-9.79l-.66-.341A7.308,7.308,0,0,0,36.663,8.82Zm6.71-3.6v.759H46.53V7.357H43.813V8.1h6.138V7.357h-2.6V5.982h3.1V5.223h-3.1V3.848H46.53V5.223Zm-.528-1.4a8.372,8.372,0,0,1-2.31,2.255,4.166,4.166,0,0,1,.418.66,10.756,10.756,0,0,0,2.662-2.618Zm.187,2.409A9.9,9.9,0,0,1,40.37,9.2a5.318,5.318,0,0,1,.44.8A10.8,10.8,0,0,0,42.075,8.8v5.038h.792V7.863a9.379,9.379,0,0,0,.88-1.342Zm1.342,4.543a10.856,10.856,0,0,1,1.353,1.914l.7-.418a12.477,12.477,0,0,0-1.386-1.859Zm6.1-1.452h-1.54v-.9h-.825v.9H43.5v.748h4.609v2.794c0,.154-.044.2-.231.209s-.814.011-1.507-.011a3.128,3.128,0,0,1,.286.77,6.3,6.3,0,0,0,1.815-.121c.352-.132.462-.352.462-.836V10.074h1.54Zm5.929-3.465H53.977C53.988,5.234,54,4.6,54,3.947h-.8c0,.649,0,1.287-.011,1.914h-1.54v.8h1.518c-.088,2.75-.418,5.181-1.782,6.622a2.518,2.518,0,0,1,.616.561c1.485-1.606,1.859-4.235,1.958-7.183h1.661c-.077,4.213-.176,5.709-.429,6.017a.319.319,0,0,1-.363.176c-.2,0-.671,0-1.177-.044a2.089,2.089,0,0,1,.242.825,6.958,6.958,0,0,0,1.287-.011.874.874,0,0,0,.726-.418c.341-.473.418-2.068.506-6.93Zm1.672,6.226V5.949h2.134v6.138Zm-.77-6.93v8.514h.77v-.8h2.134v.726h.814V5.157ZM72.391,7.038a13.28,13.28,0,0,0-1.8-2.266L70,5.135c.275.286.561.627.836.957l-3.2.253a15.3,15.3,0,0,0,1.639-2.277l-.836-.209a10.918,10.918,0,0,1-1.408,2.156,1.246,1.246,0,0,1-.572.462,7.42,7.42,0,0,1,.264.715A30.087,30.087,0,0,1,71.291,6.7a8.169,8.169,0,0,1,.484.759ZM63.437,9.293c.077-.506.143-1.078.209-1.639h2.4V4.387H62.7v.759h2.585v1.76h-2.3c-.088,1-.264,2.31-.407,3.135h2.75c-.132,1.9-.275,2.662-.484,2.871-.088.1-.2.11-.374.11s-.66,0-1.155-.044a1.68,1.68,0,0,1,.22.748,10.06,10.06,0,0,0,1.276.011.948.948,0,0,0,.715-.319c.3-.341.451-1.276.6-3.762.011-.11.022-.363.022-.363Zm3.96,1.012V8.776h1.485v1.529ZM71.2,8.776v1.529H69.674V8.776Zm1.408,4.8A9.751,9.751,0,0,0,71.2,11.207l-.671.3c.22.286.44.638.649.968l-1.507.1V10.987h2.288V8.094H69.674V7.027h-.792V8.094H66.671v2.893h2.211v1.639c-1.012.066-1.947.121-2.662.154l.11.792c1.386-.1,3.355-.242,5.247-.4a7.479,7.479,0,0,1,.319.737ZM76.373,8.82a7.308,7.308,0,0,0-2.189-5.236l-.66.341a6.879,6.879,0,0,1,0,9.79l.66.341A7.308,7.308,0,0,0,76.373,8.82Z" transform="translate(307 479)" fill="#aca4a4"/>
      <line id="Line_56" data-name="Line 56" x2="15" transform="translate(285.5 467.5)" fill="none" stroke="#356bd0" stroke-linecap="round" stroke-width="4"/>
      <line id="Line_457" data-name="Line 457" x2="15" transform="translate(285.5 517.5)" fill="none" stroke="#efefef" stroke-linecap="round" stroke-width="4"/>
      <line id="Line_167" data-name="Line 167" x2="15" transform="translate(285.5 491)" fill="none" stroke="#64c3ff" stroke-linecap="round" stroke-width="4"/>
      <line id="Line_458" data-name="Line 458" x2="15" transform="translate(285.5 537)" fill="none" stroke="#a59c9c" stroke-linecap="round" stroke-width="4"/>
    </g>
  </g>
</svg>
