<svg xmlns="http://www.w3.org/2000/svg" width="261.222" height="217.592" viewBox="0 0 261.222 217.592">
  <g id="data8_m" transform="translate(8791.658 12940.463)">
    <path id="Path_1695" data-name="Path 1695" d="M.483-3.486A3.89,3.89,0,0,1,1.44-6.277,3.254,3.254,0,0,1,3.911-7.285,3.428,3.428,0,0,1,5.7-6.812,3.093,3.093,0,0,1,6.912-5.491a4.29,4.29,0,0,1,.417,1.921A4.218,4.218,0,0,1,6.89-1.621,3,3,0,0,1,5.645-.32,3.557,3.557,0,0,1,3.906.122,3.385,3.385,0,0,1,2.1-.366,3.142,3.142,0,0,1,.894-1.7,4.04,4.04,0,0,1,.483-3.486Zm.977.015a2.868,2.868,0,0,0,.7,2.039A2.289,2.289,0,0,0,3.9-.688a2.285,2.285,0,0,0,1.76-.752,3.04,3.04,0,0,0,.691-2.134,3.667,3.667,0,0,0-.3-1.526,2.27,2.27,0,0,0-.864-1.011A2.343,2.343,0,0,0,3.916-6.47a2.422,2.422,0,0,0-1.731.691A3.086,3.086,0,0,0,1.46-3.472ZM8.569,0V-7.158h5.176v.845H9.517v2.192h3.96v.84H9.517V-.845h4.395V0ZM20.327-2.51l.947.239A3.189,3.189,0,0,1,20.2-.491a2.953,2.953,0,0,1-1.892.613,3.4,3.4,0,0,1-1.882-.471,2.942,2.942,0,0,1-1.1-1.365,4.869,4.869,0,0,1-.378-1.919,4.218,4.218,0,0,1,.427-1.951,2.927,2.927,0,0,1,1.216-1.265,3.552,3.552,0,0,1,1.736-.432,2.935,2.935,0,0,1,1.807.547A2.84,2.84,0,0,1,21.152-5.2l-.933.22A2.212,2.212,0,0,0,19.5-6.113a1.926,1.926,0,0,0-1.191-.356,2.314,2.314,0,0,0-1.379.4,2.089,2.089,0,0,0-.779,1.062,4.276,4.276,0,0,0-.225,1.375,4.368,4.368,0,0,0,.266,1.594,1.982,1.982,0,0,0,.828,1.018,2.321,2.321,0,0,0,1.216.337,2.037,2.037,0,0,0,1.348-.459A2.349,2.349,0,0,0,20.327-2.51ZM22.441,0V-7.158h2.466a5.981,5.981,0,0,1,1.274.1,2.425,2.425,0,0,1,1.05.513,2.912,2.912,0,0,1,.847,1.223,4.8,4.8,0,0,1,.281,1.7,5,5,0,0,1-.19,1.445,3.506,3.506,0,0,1-.488,1.042,2.594,2.594,0,0,1-.652.649,2.657,2.657,0,0,1-.854.359A4.877,4.877,0,0,1,25.024,0Zm.947-.845h1.528a3.709,3.709,0,0,0,1.111-.132,1.589,1.589,0,0,0,.642-.371,2.258,2.258,0,0,0,.525-.906,4.428,4.428,0,0,0,.188-1.379,3.331,3.331,0,0,0-.369-1.726,1.855,1.855,0,0,0-.9-.808,3.7,3.7,0,0,0-1.226-.146h-1.5ZM38.271-2.92q0,.078-.083.078l-1.309-.02H34.17V-.449l.02,1.06a.069.069,0,0,1-.078.078h-.532A.069.069,0,0,1,33.5.61l.02-1.06V-2.861H30.889l-1.3.02a.069.069,0,0,1-.078-.078v-.474a.069.069,0,0,1,.078-.078l1.3.02h2.632V-7.109H31.45l-1.382.02a.069.069,0,0,1-.078-.078v-.464a.069.069,0,0,1,.078-.078l1.382.02H36.4l1.367-.02q.083,0,.083.078v.464q0,.078-.083.078L36.4-7.109H34.17v3.657h2.71l1.309-.02q.083,0,.083.078Zm-1.06-3.359q0,.044-.088.117a.775.775,0,0,0-.181.273A12.008,12.008,0,0,1,35.85-4.072q-.1.132-.137.132a.562.562,0,0,1-.151-.078,1.3,1.3,0,0,0-.361-.171,8.831,8.831,0,0,0,1.182-1.948,2.158,2.158,0,0,0,.151-.5,4.251,4.251,0,0,1,.591.249Q37.212-6.343,37.212-6.279ZM32.344-4.312a.207.207,0,0,1,.01.049q0,.039-.093.073l-.337.142a.472.472,0,0,1-.127.039q-.029,0-.054-.073A10.074,10.074,0,0,0,30.659-6.25a.085.085,0,0,1-.024-.049q0-.034.117-.093l.278-.146a.206.206,0,0,1,.083-.034q.024,0,.059.054A9.88,9.88,0,0,1,32.344-4.312ZM48.022-6.431Q48-6.177,48-5.669a33.16,33.16,0,0,1-.308,4.78A2.412,2.412,0,0,1,47.241.273a1.034,1.034,0,0,1-.811.347q-.317,0-.937-.059a.338.338,0,0,1-.181-.054.485.485,0,0,1-.049-.176A1.618,1.618,0,0,0,45.1-.132,7.321,7.321,0,0,0,46.411.01a.537.537,0,0,0,.483-.361,2.963,2.963,0,0,0,.21-.757,30.848,30.848,0,0,0,.278-4.829h-3.54a8.445,8.445,0,0,1-.991,1.519q-.083.1-.132.1t-.137-.112a1.022,1.022,0,0,0-.312-.259,7.913,7.913,0,0,0,1.592-2.72,4.158,4.158,0,0,0,.2-.894,4.92,4.92,0,0,1,.6.171q.137.049.137.122a.283.283,0,0,1-.1.171,1.635,1.635,0,0,0-.239.5q-.22.566-.352.84h2.632l1.187-.02Q48.022-6.519,48.022-6.431ZM42.637-2.69a1.811,1.811,0,0,0-.024.288.942.942,0,0,0,0,.1q0,.093,0,.1a.172.172,0,0,1-.027.11.535.535,0,0,1-.149.09,18.518,18.518,0,0,1-2.2,1,2.183,2.183,0,0,0-.352.161.219.219,0,0,1-.146.078q-.068,0-.112-.1a3.522,3.522,0,0,1-.22-.571,4.661,4.661,0,0,0,.972-.239l.391-.142V-4.98H40.5l-.908.02q-.083,0-.083-.078v-.42q0-.093.083-.093l.908.02h.273V-6.719A9.668,9.668,0,0,0,40.7-8.1q.337.015.649.059.112.02.112.093a1.226,1.226,0,0,1-.039.171,5.181,5.181,0,0,0-.063,1.04v1.206h.122l.9-.02q.083,0,.083.093v.42q0,.078-.083.078l-.9-.02h-.122v2.93A11.357,11.357,0,0,0,42.637-2.69Zm3.877-.249a1.865,1.865,0,0,0-.015.249q0,.078,0,.171v.034q0,.044,0,.059a.167.167,0,0,1-.039.122.717.717,0,0,1-.137.083,14.931,14.931,0,0,1-2.422,1.143,1.025,1.025,0,0,0-.347.181.235.235,0,0,1-.151.078q-.068,0-.112-.1a2.708,2.708,0,0,1-.22-.581,4.168,4.168,0,0,0,.972-.259A18.7,18.7,0,0,0,46.514-2.939ZM46.24-4a.069.069,0,0,1-.078.078l-.85-.02h-.791l-.84.02A.069.069,0,0,1,43.6-4v-.43q0-.083.078-.083l.84.02h.791l.85-.02q.078,0,.078.083Z" transform="translate(-8583.396 -12932.162)" fill="#bfbfbf"/>
    <g id="Group_1949" data-name="Group 1949" transform="translate(-8788 -12926.483)">
      <g id="data_7-07" transform="translate(0 6.446)">
        <g id="Group_1881" data-name="Group 1881" transform="translate(48.373 188.59)">
          <g id="Group_1878" data-name="Group 1878" transform="translate(0 1.476)">
            <path id="Path_1704" data-name="Path 1704" d="M.291-2.471A4.585,4.585,0,0,1,.473-3.9a1.779,1.779,0,0,1,.543-.836,1.389,1.389,0,0,1,.907-.294,1.481,1.481,0,0,1,.708.162,1.352,1.352,0,0,1,.5.468,2.512,2.512,0,0,1,.311.745,4.951,4.951,0,0,1,.113,1.184,4.6,4.6,0,0,1-.181,1.424,1.78,1.78,0,0,1-.542.837,1.389,1.389,0,0,1-.911.3A1.375,1.375,0,0,1,.786-.434,3.3,3.3,0,0,1,.291-2.471Zm.632,0A3.142,3.142,0,0,0,1.212-.829a.851.851,0,0,0,.713.408.85.85,0,0,0,.713-.41,3.143,3.143,0,0,0,.289-1.641,3.141,3.141,0,0,0-.289-1.644.857.857,0,0,0-.719-.407.788.788,0,0,0-.677.359A3.178,3.178,0,0,0,.923-2.471Z" transform="translate(0 6)" fill="#55585f"/>
            <path id="Path_1703" data-name="Path 1703" d="M2.98,0h-.7V-4.48A3.634,3.634,0,0,1,1.611-4a4.721,4.721,0,0,1-.74.363v-.68A4.246,4.246,0,0,0,1.9-4.984a2.643,2.643,0,0,0,.625-.766H2.98Zm1.8-2.824A5.24,5.24,0,0,1,4.99-4.459a2.033,2.033,0,0,1,.621-.955A1.588,1.588,0,0,1,6.648-5.75a1.692,1.692,0,0,1,.809.186,1.546,1.546,0,0,1,.574.535,2.871,2.871,0,0,1,.355.852,5.658,5.658,0,0,1,.129,1.354A5.255,5.255,0,0,1,8.309-1.2a2.034,2.034,0,0,1-.619.957A1.588,1.588,0,0,1,6.648.1,1.571,1.571,0,0,1,5.348-.5,3.774,3.774,0,0,1,4.781-2.824Zm.723,0a3.591,3.591,0,0,0,.33,1.877.973.973,0,0,0,.814.467.972.972,0,0,0,.814-.469,3.592,3.592,0,0,0,.33-1.875A3.59,3.59,0,0,0,7.463-4.7a.98.98,0,0,0-.822-.465.9.9,0,0,0-.773.41A3.632,3.632,0,0,0,5.5-2.824Z" transform="translate(22.99 7)" fill="#55585f"/>
            <path id="Path_1702" data-name="Path 1702" d="M4.027-.676V0H.242A1.244,1.244,0,0,1,.324-.488,2.583,2.583,0,0,1,.787-1.25a7.252,7.252,0,0,1,.92-.867A7.8,7.8,0,0,0,2.969-3.33,1.452,1.452,0,0,0,3.3-4.176.94.94,0,0,0,3-4.881a1.078,1.078,0,0,0-.779-.287,1.1,1.1,0,0,0-.812.3A1.153,1.153,0,0,0,1.1-4.02L.375-4.094A1.779,1.779,0,0,1,.934-5.326a1.905,1.905,0,0,1,1.3-.424,1.815,1.815,0,0,1,1.3.457A1.5,1.5,0,0,1,4.02-4.16a1.718,1.718,0,0,1-.141.676,2.623,2.623,0,0,1-.467.7A11.372,11.372,0,0,1,2.328-1.777q-.633.531-.812.721a2.312,2.312,0,0,0-.3.381Zm.754-2.148A5.24,5.24,0,0,1,4.99-4.459a2.033,2.033,0,0,1,.621-.955A1.588,1.588,0,0,1,6.648-5.75a1.692,1.692,0,0,1,.809.186,1.546,1.546,0,0,1,.574.535,2.871,2.871,0,0,1,.355.852,5.658,5.658,0,0,1,.129,1.354A5.255,5.255,0,0,1,8.309-1.2a2.034,2.034,0,0,1-.619.957A1.588,1.588,0,0,1,6.648.1,1.571,1.571,0,0,1,5.348-.5,3.774,3.774,0,0,1,4.781-2.824Zm.723,0a3.591,3.591,0,0,0,.33,1.877.973.973,0,0,0,.814.467.972.972,0,0,0,.814-.469,3.592,3.592,0,0,0,.33-1.875A3.59,3.59,0,0,0,7.463-4.7a.98.98,0,0,0-.822-.465.9.9,0,0,0-.773.41A3.632,3.632,0,0,0,5.5-2.824Z" transform="translate(48.373 7)" fill="#55585f"/>
            <path id="Path_1701" data-name="Path 1701" d="M.336-1.512l.7-.094a1.549,1.549,0,0,0,.412.861A1.018,1.018,0,0,0,2.16-.48,1.136,1.136,0,0,0,3-.824a1.16,1.16,0,0,0,.342-.852,1.079,1.079,0,0,0-.316-.8,1.094,1.094,0,0,0-.8-.314,2.019,2.019,0,0,0-.5.078L1.8-3.328a1.075,1.075,0,0,0,.113.008,1.448,1.448,0,0,0,.809-.234.8.8,0,0,0,.359-.723.855.855,0,0,0-.262-.641.93.93,0,0,0-.676-.254.958.958,0,0,0-.684.258,1.294,1.294,0,0,0-.352.773l-.7-.125a1.807,1.807,0,0,1,.586-1.1A1.694,1.694,0,0,1,2.129-5.75a1.873,1.873,0,0,1,.863.2A1.455,1.455,0,0,1,3.6-5a1.41,1.41,0,0,1,.209.738,1.209,1.209,0,0,1-.2.676,1.36,1.36,0,0,1-.59.484,1.329,1.329,0,0,1,.789.486,1.48,1.48,0,0,1,.281.924A1.69,1.69,0,0,1,3.539-.42,1.923,1.923,0,0,1,2.156.1,1.8,1.8,0,0,1,.9-.348,1.737,1.737,0,0,1,.336-1.512ZM4.781-2.824A5.24,5.24,0,0,1,4.99-4.459a2.033,2.033,0,0,1,.621-.955A1.588,1.588,0,0,1,6.648-5.75a1.692,1.692,0,0,1,.809.186,1.546,1.546,0,0,1,.574.535,2.871,2.871,0,0,1,.355.852,5.658,5.658,0,0,1,.129,1.354A5.255,5.255,0,0,1,8.309-1.2a2.034,2.034,0,0,1-.619.957A1.588,1.588,0,0,1,6.648.1,1.571,1.571,0,0,1,5.348-.5,3.774,3.774,0,0,1,4.781-2.824Zm.723,0a3.591,3.591,0,0,0,.33,1.877.973.973,0,0,0,.814.467.972.972,0,0,0,.814-.469,3.592,3.592,0,0,0,.33-1.875A3.59,3.59,0,0,0,7.463-4.7a.98.98,0,0,0-.822-.465.9.9,0,0,0-.773.41A3.632,3.632,0,0,0,5.5-2.824Z" transform="translate(73.757 7)" fill="#55585f"/>
            <path id="Path_1700" data-name="Path 1700" d="M2.586,0V-1.371H.1v-.645L2.715-5.727h.574v3.711h.773v.645H3.289V0Zm0-2.016V-4.6L.793-2.016Zm2.2-.809A5.24,5.24,0,0,1,4.99-4.459a2.033,2.033,0,0,1,.621-.955A1.588,1.588,0,0,1,6.648-5.75a1.692,1.692,0,0,1,.809.186,1.546,1.546,0,0,1,.574.535,2.871,2.871,0,0,1,.355.852,5.658,5.658,0,0,1,.129,1.354A5.255,5.255,0,0,1,8.309-1.2a2.034,2.034,0,0,1-.619.957A1.588,1.588,0,0,1,6.648.1,1.571,1.571,0,0,1,5.348-.5,3.774,3.774,0,0,1,4.781-2.824Zm.723,0a3.591,3.591,0,0,0,.33,1.877.973.973,0,0,0,.814.467.972.972,0,0,0,.814-.469,3.592,3.592,0,0,0,.33-1.875A3.59,3.59,0,0,0,7.463-4.7a.98.98,0,0,0-.822-.465.9.9,0,0,0-.773.41A3.632,3.632,0,0,0,5.5-2.824Z" transform="translate(99.136 7)" fill="#55585f"/>
            <path id="Path_1699" data-name="Path 1699" d="M.332-1.5l.738-.062a1.324,1.324,0,0,0,.381.811,1.034,1.034,0,0,0,.721.271,1.122,1.122,0,0,0,.859-.383,1.443,1.443,0,0,0,.352-1.016,1.3,1.3,0,0,0-.338-.949,1.178,1.178,0,0,0-.885-.348,1.226,1.226,0,0,0-.613.154,1.191,1.191,0,0,0-.43.4l-.66-.086.555-2.941H3.859v.672H1.574L1.266-3.437A1.864,1.864,0,0,1,2.348-3.8a1.714,1.714,0,0,1,1.266.52,1.816,1.816,0,0,1,.516,1.336A2.085,2.085,0,0,1,3.676-.6a1.815,1.815,0,0,1-1.5.7A1.852,1.852,0,0,1,.9-.34,1.707,1.707,0,0,1,.332-1.5ZM4.781-2.824A5.24,5.24,0,0,1,4.99-4.459a2.033,2.033,0,0,1,.621-.955A1.588,1.588,0,0,1,6.648-5.75a1.692,1.692,0,0,1,.809.186,1.546,1.546,0,0,1,.574.535,2.871,2.871,0,0,1,.355.852,5.658,5.658,0,0,1,.129,1.354A5.255,5.255,0,0,1,8.309-1.2a2.034,2.034,0,0,1-.619.957A1.588,1.588,0,0,1,6.648.1,1.571,1.571,0,0,1,5.348-.5,3.774,3.774,0,0,1,4.781-2.824Zm.723,0a3.591,3.591,0,0,0,.33,1.877.973.973,0,0,0,.814.467.972.972,0,0,0,.814-.469,3.592,3.592,0,0,0,.33-1.875A3.59,3.59,0,0,0,7.463-4.7a.98.98,0,0,0-.822-.465.9.9,0,0,0-.773.41A3.632,3.632,0,0,0,5.5-2.824Z" transform="translate(124.524 7)" fill="#55585f"/>
            <path id="Path_1698" data-name="Path 1698" d="M3.98-4.324l-.7.055a1.324,1.324,0,0,0-.266-.6.931.931,0,0,0-.7-.3.966.966,0,0,0-.59.188,1.6,1.6,0,0,0-.523.707A3.7,3.7,0,0,0,1-2.953a1.629,1.629,0,0,1,.621-.574,1.67,1.67,0,0,1,.77-.187,1.594,1.594,0,0,1,1.2.518,1.858,1.858,0,0,1,.494,1.338,2.2,2.2,0,0,1-.232,1,1.693,1.693,0,0,1-.639.709A1.744,1.744,0,0,1,2.289.1,1.8,1.8,0,0,1,.855-.549,3.264,3.264,0,0,1,.3-2.68,3.82,3.82,0,0,1,.914-5.094,1.763,1.763,0,0,1,2.355-5.75a1.617,1.617,0,0,1,1.107.379A1.609,1.609,0,0,1,3.98-4.324ZM1.109-1.855a1.631,1.631,0,0,0,.154.7A1.15,1.15,0,0,0,1.7-.654a1.079,1.079,0,0,0,.582.174A.992.992,0,0,0,3.043-.84a1.415,1.415,0,0,0,.32-.977,1.324,1.324,0,0,0-.316-.936,1.04,1.04,0,0,0-.8-.342,1.085,1.085,0,0,0-.809.342A1.232,1.232,0,0,0,1.109-1.855Zm3.672-.969A5.24,5.24,0,0,1,4.99-4.459a2.033,2.033,0,0,1,.621-.955A1.588,1.588,0,0,1,6.648-5.75a1.692,1.692,0,0,1,.809.186,1.546,1.546,0,0,1,.574.535,2.871,2.871,0,0,1,.355.852,5.658,5.658,0,0,1,.129,1.354A5.255,5.255,0,0,1,8.309-1.2a2.034,2.034,0,0,1-.619.957A1.588,1.588,0,0,1,6.648.1,1.571,1.571,0,0,1,5.348-.5,3.774,3.774,0,0,1,4.781-2.824Zm.723,0a3.591,3.591,0,0,0,.33,1.877.973.973,0,0,0,.814.467.972.972,0,0,0,.814-.469,3.592,3.592,0,0,0,.33-1.875A3.59,3.59,0,0,0,7.463-4.7a.98.98,0,0,0-.822-.465.9.9,0,0,0-.773.41A3.632,3.632,0,0,0,5.5-2.824Z" transform="translate(149.912 7)" fill="#55585f"/>
            <path id="Path_1697" data-name="Path 1697" d="M.379-4.977v-.676H4.086v.547A7.812,7.812,0,0,0,3-3.559a9.421,9.421,0,0,0-.83,1.984A7.376,7.376,0,0,0,1.9,0H1.18a7.017,7.017,0,0,1,.266-1.633,8.574,8.574,0,0,1,.729-1.846,7.912,7.912,0,0,1,1.01-1.5Zm4.4,2.152A5.24,5.24,0,0,1,4.99-4.459a2.033,2.033,0,0,1,.621-.955A1.588,1.588,0,0,1,6.648-5.75a1.692,1.692,0,0,1,.809.186,1.546,1.546,0,0,1,.574.535,2.871,2.871,0,0,1,.355.852,5.658,5.658,0,0,1,.129,1.354A5.255,5.255,0,0,1,8.309-1.2a2.034,2.034,0,0,1-.619.957A1.588,1.588,0,0,1,6.648.1,1.571,1.571,0,0,1,5.348-.5,3.774,3.774,0,0,1,4.781-2.824Zm.723,0a3.591,3.591,0,0,0,.33,1.877.973.973,0,0,0,.814.467.972.972,0,0,0,.814-.469,3.592,3.592,0,0,0,.33-1.875A3.59,3.59,0,0,0,7.463-4.7a.98.98,0,0,0-.822-.465.9.9,0,0,0-.773.41A3.632,3.632,0,0,0,5.5-2.824Z" transform="translate(175.292 7)" fill="#55585f"/>
            <path id="Path_1696" data-name="Path 1696" d="M1.414-3.105a1.324,1.324,0,0,1-.648-.457,1.2,1.2,0,0,1-.211-.711A1.39,1.39,0,0,1,1-5.324,1.666,1.666,0,0,1,2.2-5.75a1.677,1.677,0,0,1,1.207.436,1.41,1.41,0,0,1,.457,1.061,1.168,1.168,0,0,1-.209.693,1.318,1.318,0,0,1-.635.455,1.54,1.54,0,0,1,.8.555,1.523,1.523,0,0,1,.275.914A1.645,1.645,0,0,1,3.578-.4,1.889,1.889,0,0,1,2.211.1,1.885,1.885,0,0,1,.844-.4a1.67,1.67,0,0,1-.52-1.252,1.513,1.513,0,0,1,.283-.936A1.418,1.418,0,0,1,1.414-3.105ZM1.273-4.3a.892.892,0,0,0,.262.664.927.927,0,0,0,.68.258.909.909,0,0,0,.666-.256.846.846,0,0,0,.26-.627.877.877,0,0,0-.268-.65.911.911,0,0,0-.666-.264.92.92,0,0,0-.668.258A.83.83,0,0,0,1.273-4.3ZM1.047-1.652a1.272,1.272,0,0,0,.143.582,1.006,1.006,0,0,0,.424.436,1.239,1.239,0,0,0,.605.154A1.135,1.135,0,0,0,3.051-.8a1.11,1.11,0,0,0,.328-.824,1.128,1.128,0,0,0-.338-.84A1.158,1.158,0,0,0,2.2-2.8a1.111,1.111,0,0,0-.822.328A1.116,1.116,0,0,0,1.047-1.652ZM4.781-2.824A5.24,5.24,0,0,1,4.99-4.459a2.033,2.033,0,0,1,.621-.955A1.588,1.588,0,0,1,6.648-5.75a1.692,1.692,0,0,1,.809.186,1.546,1.546,0,0,1,.574.535,2.871,2.871,0,0,1,.355.852,5.658,5.658,0,0,1,.129,1.354A5.255,5.255,0,0,1,8.309-1.2a2.034,2.034,0,0,1-.619.957A1.588,1.588,0,0,1,6.648.1,1.571,1.571,0,0,1,5.348-.5,3.774,3.774,0,0,1,4.781-2.824Zm.723,0a3.591,3.591,0,0,0,.33,1.877.973.973,0,0,0,.814.467.972.972,0,0,0,.814-.469,3.592,3.592,0,0,0,.33-1.875A3.59,3.59,0,0,0,7.463-4.7a.98.98,0,0,0-.822-.465.9.9,0,0,0-.773.41A3.632,3.632,0,0,0,5.5-2.824Z" transform="translate(200.675 7)" fill="#55585f"/>
          </g>
          <line id="Line_480" data-name="Line 480" x2="203.067" transform="translate(2.38)" fill="none" stroke="#55585f" stroke-miterlimit="10" stroke-width="1"/>
        </g>
        <g id="Group_1884" data-name="Group 1884" transform="translate(50.754 0)">
          <line id="Line_490" data-name="Line 490" y1="188.59" fill="none" stroke="#55585f" stroke-miterlimit="10" stroke-width="1"/>
        </g>
        <g id="Group_1887" data-name="Group 1887" transform="translate(51.102 2.375)">
          <g id="Group_1886" data-name="Group 1886">
            <g id="Group_1885" data-name="Group 1885">
              <rect id="Rectangle_2379" data-name="Rectangle 2379" width="202.719" height="12.213" fill="#efefef"/>
              <rect id="Rectangle_2380" data-name="Rectangle 2380" width="200.209" height="12.213" transform="translate(0 16.894)" fill="#efefef"/>
              <rect id="Rectangle_2381" data-name="Rectangle 2381" width="200.209" height="12.213" transform="translate(0 33.793)" fill="#efefef"/>
              <rect id="Rectangle_2382" data-name="Rectangle 2382" width="195.12" height="12.213" transform="translate(0 50.757)" fill="#efefef"/>
              <rect id="Rectangle_2383" data-name="Rectangle 2383" width="195.12" height="12.213" transform="translate(0 67.654)" fill="#efefef"/>
              <rect id="Rectangle_2384" data-name="Rectangle 2384" width="195.12" height="12.213" transform="translate(0 84.618)" fill="#efefef"/>
              <rect id="Rectangle_2385" data-name="Rectangle 2385" width="190.032" height="12.213" transform="translate(0 101.515)" fill="#efefef"/>
              <rect id="Rectangle_2386" data-name="Rectangle 2386" width="144.719" height="12.213" transform="translate(0 118.479)" fill="#4891f2"/>
              <rect id="Rectangle_2387" data-name="Rectangle 2387" width="142.14" height="12.213" transform="translate(0 135.376)" fill="#efefef"/>
              <rect id="Rectangle_2388" data-name="Rectangle 2388" width="134.542" height="12.213" transform="translate(0 152.275)" fill="#efefef"/>
              <rect id="Rectangle_2389" data-name="Rectangle 2389" width="116.766" height="12.213" transform="translate(0 169.237)" fill="#efefef"/>
            </g>
          </g>
        </g>
        <g id="Group_1888" data-name="Group 1888" transform="translate(0 1.836)">
          <path id="Path_1715" data-name="Path 1715" d="M9.3-3.628q0,.078-.083.078L7.813-3.56H2.632v.9H7.48L8.9-2.676a.078.078,0,0,1,.088.088q-.01.073-.068.63A9.7,9.7,0,0,1,8.7-.6a2.1,2.1,0,0,1-.264.7.965.965,0,0,1-.825.43Q7.2.532,6.9.513A.314.314,0,0,1,6.743.479.426.426,0,0,1,6.7.342a1.649,1.649,0,0,0-.146-.454,5.578,5.578,0,0,0,.918.073.54.54,0,0,0,.479-.22,2.97,2.97,0,0,0,.234-.811,9.123,9.123,0,0,0,.137-1.1H3.54l-1.45.02a.069.069,0,0,1-.078-.078l.02-1.182V-5.957l-.02-1.162A.069.069,0,0,1,2.09-7.2l1.372.02h.381a7.15,7.15,0,0,0,.327-.649A2.249,2.249,0,0,0,4.331-8.4q.4.078.62.142.112.029.112.107a.16.16,0,0,1-.078.122.534.534,0,0,0-.161.22q-.244.479-.332.63H6.211L7.593-7.2q.068,0,.068.078l-.02.713v.718l.02.708q0,.078-.068.078l-1.382-.02H2.632v.83H7.813l1.406-.02q.083,0,.083.078ZM7.041-5.439V-6.646H2.632v1.206ZM2.119-1.46A5.9,5.9,0,0,1,1.211.42a.1.1,0,0,1-.073.049A.315.315,0,0,1,1,.4L.757.239Q.684.19.684.151A.131.131,0,0,1,.708.088a4.975,4.975,0,0,0,.9-1.729q.015-.063.054-.063a.222.222,0,0,1,.083.024l.259.088q.122.049.122.093A.113.113,0,0,1,2.119-1.46ZM3.8.122a.161.161,0,0,1,0,.039q0,.068-.127.078L3.33.269a.518.518,0,0,1-.059,0q-.083,0-.083-.093A8.144,8.144,0,0,0,3.008-1.45a.21.21,0,0,1,0-.039q0-.049.117-.059l.288-.044a.661.661,0,0,1,.068,0q.063,0,.083.078A10.243,10.243,0,0,1,3.8.122ZM5.581-.21a.4.4,0,0,1,0,.054q0,.049-.1.068L5.161-.02A.466.466,0,0,1,5.068,0Q5.02,0,5-.088a9.154,9.154,0,0,0-.381-1.4A.112.112,0,0,1,4.6-1.533q0-.034.122-.068L5-1.67a.241.241,0,0,1,.073-.015q.044,0,.078.063A7.4,7.4,0,0,1,5.581-.21ZM7.158-.771a.24.24,0,0,1,.015.059q0,.034-.093.073l-.293.1a.265.265,0,0,1-.083.02q-.044,0-.063-.068a4.093,4.093,0,0,0-.449-1.021.131.131,0,0,1-.024-.063q0-.039.1-.073l.21-.073a.348.348,0,0,1,.093-.024q.039,0,.088.063A4.236,4.236,0,0,1,7.158-.771ZM19.312-6.445q0,.068-.088.068L17.9-6.4h-2.72v1.064H16.4l1.382-.02a.073.073,0,0,1,.083.083l-.02.815v.972l.02.82q0,.078-.083.078L16.4-2.6h-.3V-.552q0,.347.239.391A5.8,5.8,0,0,0,17.29-.1a2.352,2.352,0,0,0,1.172-.171.665.665,0,0,0,.225-.42,5.3,5.3,0,0,0,.063-.649,1.772,1.772,0,0,0,.4.2q.166.059.166.132a.9.9,0,0,1-.015.117,3.064,3.064,0,0,1-.156.752.939.939,0,0,1-.273.352,3.269,3.269,0,0,1-1.611.249A4.794,4.794,0,0,1,15.9.337a.637.637,0,0,1-.41-.679V-2.6H14.268A3,3,0,0,1,13.491-.63,4.652,4.652,0,0,1,11.2.591.7.7,0,0,1,11.06.62Q11,.62,10.908.449A1.092,1.092,0,0,0,10.6.088a4.163,4.163,0,0,0,2.5-1.2A2.4,2.4,0,0,0,13.633-2.6h-.161l-1.382.02a.069.069,0,0,1-.078-.078l.02-.82v-.972l-.02-.815q0-.083.078-.083l1.382.02h1.079V-6.4H12.1l-1.318.02q-.083,0-.083-.068V-6.9q0-.078.083-.078l1.318.02h2.451V-7.1a7.418,7.418,0,0,0-.083-1.221,6.319,6.319,0,0,1,.688.054q.132.02.132.088a.516.516,0,0,1-.049.171,3.636,3.636,0,0,0-.059.85v.2H17.9l1.323-.02q.088,0,.088.078ZM17.231-3.12V-4.814h-4.59V-3.12Zm10.386-.366q0,.078-.068.078l-1.328-.02h-1V-3h.61l1.2-.02a.069.069,0,0,1,.078.078l-.02.63v.479l.02.625a.069.069,0,0,1-.078.078l-1.2-.024h-.391a5.7,5.7,0,0,0,1.929.933,1.161,1.161,0,0,0-.229.288Q27.07.2,27.021.2A.373.373,0,0,1,26.89.156a5.32,5.32,0,0,1-1.7-1.128q0,.684.029,1.147,0,.078.015.244,0,.068,0,.088,0,.083-.078.083H24.81q-.078,0-.078-.083,0-.02.01-.186.034-.508.049-1.294A6.087,6.087,0,0,1,22.661.371a.6.6,0,0,1-.151.044q-.054,0-.132-.137A.849.849,0,0,0,22.139.02a6.6,6.6,0,0,0,2.329-1.172h-.239l-1.2.024a.069.069,0,0,1-.078-.078l.02-.625V-2.31l-.02-.63a.069.069,0,0,1,.078-.078l1.2.02h.522v-.43h-.933l-1.328.02q-.083,0-.083-.078V-3.75q0-.078.083-.078l1.328.02h.933a3.369,3.369,0,0,0-.063-.571,3.966,3.966,0,0,1,.513.049q.117.02.117.073a.47.47,0,0,1-.049.117.826.826,0,0,0-.049.332h1l1.328-.02q.068,0,.068.078Zm-1,2.026v-.459H25.21v.459Zm0-.767v-.444H25.21v.444Zm-1.86.767v-.459H23.438v.459Zm0-.767v-.444H23.438v.444Zm4.2,1.9a1.372,1.372,0,0,1-.068.5A.592.592,0,0,1,28.7.42a1.822,1.822,0,0,1-1.03.19.332.332,0,0,1-.19-.034A.391.391,0,0,1,27.427.42,1.129,1.129,0,0,0,27.28.029a6.253,6.253,0,0,0,.669.039q.283,0,.356-.1a.658.658,0,0,0,.073-.376V-4.36H26.6l-1.064.02a.069.069,0,0,1-.078-.078l.02-.669v-.654l-.02-.688a.069.069,0,0,1,.078-.078l1.064.02h1.206l1.064-.02a.069.069,0,0,1,.078.078l-.02,1.2v3.511Zm-.581-4.419v-.508H26.011v.508Zm0-.869V-6.1H26.011v.488ZM24.521-4.419a.069.069,0,0,1-.078.078l-.986-.02H21.689V-.942L21.7.64a.06.06,0,0,1-.068.068h-.444q-.078,0-.078-.068l.02-1.582V-4.849l-.02-1.582a.069.069,0,0,1,.078-.078l1.113.02h1.157l.986-.02a.069.069,0,0,1,.078.078L24.5-5.7v.547Zm-.552-.322v-.508h-2.28v.508Zm0-.869V-6.1h-2.28v.488ZM29.36-7.241q0,.068-.083.068l-1.3-.02H26.611l.02.42q0,.068-.083.068h-.42q-.078,0-.078-.068,0-.02,0-.142t.015-.278h-2.2l.024.41q0,.068-.083.068h-.42q-.078,0-.078-.068,0-.02,0-.142t.015-.269H22.051l-1.313.02q-.078,0-.078-.068v-.371a.069.069,0,0,1,.078-.078l1.313.02H23.33a3.055,3.055,0,0,0-.073-.679q.425.015.6.039.112.02.112.088a.287.287,0,0,1-.049.132.994.994,0,0,0-.054.42h2.2A3.264,3.264,0,0,0,26-8.35q.42.015.6.039.107.02.107.088a.287.287,0,0,1-.049.132,1.085,1.085,0,0,0-.049.42h1.367l1.3-.02q.083,0,.083.078Z" transform="translate(16 179.224)" fill="#efefef"/>
          <path id="Path_1714" data-name="Path 1714" d="M5.264-1.67a.069.069,0,0,1-.078.078l-1.274-.02H1.865l-1.274.02A.069.069,0,0,1,.513-1.67v-.391a.069.069,0,0,1,.078-.078l.972.02v-4.2q-.356,0-.64.015l-.19,0q-.088,0-.088-.078v-.391q0-.078.088-.078l.83.02v-.229a6.413,6.413,0,0,0-.068-1.182q.425.02.62.049.122.015.122.083a.61.61,0,0,1-.063.19,3.9,3.9,0,0,0-.049.85v.239H3.872V-7.09A6.512,6.512,0,0,0,3.8-8.271q.488.044.61.068t.107.083a.526.526,0,0,1-.049.19,4.1,4.1,0,0,0-.049.859v.239l.762-.02a.069.069,0,0,1,.078.078v.391a.069.069,0,0,1-.078.078l-.1,0q-.3-.01-.659-.015v4.2l.762-.02a.069.069,0,0,1,.078.078ZM3.872-2.119v-1.1H2.124v1.1Zm0-1.572V-4.771H2.124v1.079Zm0-1.558V-6.323H2.124v1.074ZM9.546-4.5q0,.078-.083.078l-1.069-.02V-.967L8.413.61q0,.083-.078.083H7.871q-.078,0-.078-.083l.02-1.577V-4.438H6.323v.068A12.1,12.1,0,0,1,6.03-1.377,5.332,5.332,0,0,1,5.063.581Q4.971.7,4.932.7T4.79.61a1.425,1.425,0,0,0-.347-.22,4.77,4.77,0,0,0,1.069-2.1A11.955,11.955,0,0,0,5.742-4.37V-5.952a8.887,8.887,0,0,0-.068-1.3,2.523,2.523,0,0,1,.64.2A8.612,8.612,0,0,0,8.3-7.793a2.379,2.379,0,0,0,.474-.347,2.653,2.653,0,0,1,.449.449.216.216,0,0,1,.059.122q0,.083-.122.1a1.828,1.828,0,0,0-.347.122,13.687,13.687,0,0,1-2.49.84V-4.98H8.3L9.463-5q.083,0,.083.078ZM2.51-1.021q0,.054-.078.1a.941.941,0,0,0-.21.229A7.087,7.087,0,0,1,.9.581.341.341,0,0,1,.762.649Q.723.649.62.518A1.248,1.248,0,0,0,.342.239,4.438,4.438,0,0,0,1.714-.981a1.609,1.609,0,0,0,.22-.381,2.871,2.871,0,0,1,.488.234Q2.51-1.079,2.51-1.021ZM4.683-.4a1.433,1.433,0,0,0-.312.283q-.083.1-.107.1A.352.352,0,0,1,4.141-.1a4.818,4.818,0,0,1-.781-.923.157.157,0,0,1-.034-.068q0-.034.088-.083l.249-.146a.192.192,0,0,1,.083-.039q.024,0,.059.039A3.9,3.9,0,0,0,4.683-.4ZM19.59-3.276a1.19,1.19,0,0,0-.249.381q-.073.166-.127.166a.77.77,0,0,1-.146-.034,10.067,10.067,0,0,1-2.856-1.479,10.647,10.647,0,0,1-2.92,1.567.553.553,0,0,1-.151.049q-.054,0-.142-.161a1.186,1.186,0,0,0-.259-.356,9.491,9.491,0,0,0,3-1.479,7.008,7.008,0,0,1-1.177-1.431,7.134,7.134,0,0,1-1.133,1.094q-.1.088-.137.088T13.14-5a1.023,1.023,0,0,0-.322-.249,6.859,6.859,0,0,0,1.406-1.294,6,6,0,0,0,.747-1.133,2.773,2.773,0,0,0,.249-.693,3.888,3.888,0,0,1,.591.181.123.123,0,0,1,.088.112.157.157,0,0,1-.078.117.849.849,0,0,0-.181.254q-.186.352-.278.508h2.271a.542.542,0,0,0,.21-.029.307.307,0,0,1,.107-.039q.088,0,.278.19t.181.259a.166.166,0,0,1-.088.137.637.637,0,0,0-.21.239,8.338,8.338,0,0,1-1.45,1.812A10.028,10.028,0,0,0,19.59-3.276ZM17.539-6.685h-2.51a.927.927,0,0,1-.068.1l-.063.088A5.546,5.546,0,0,0,16.191-5,6.426,6.426,0,0,0,17.539-6.685ZM18.311.61q0,.073-.078.073h-.464q-.078,0-.078-.073V.122H14.57V.6q0,.073-.078.073h-.439Q13.96.674,13.96.6l.02-1.606v-.7L13.96-2.72q0-.078.088-.078l1.211.02h1.753l1.221-.02a.069.069,0,0,1,.078.078l-.02.889v.825ZM17.69-.4V-2.271H14.57V-.4Zm-5.1-1.865A15.579,15.579,0,0,1,11.621.088a1.918,1.918,0,0,0-.181.42q-.034.112-.1.112A.381.381,0,0,1,11.2.562,4.258,4.258,0,0,1,10.728.22,4.7,4.7,0,0,0,11.2-.488a14.189,14.189,0,0,0,.977-2.393,1.977,1.977,0,0,0,.313.3q.137.1.137.161A.578.578,0,0,1,12.588-2.261Zm-.21-2.28q.039.039.039.059a.224.224,0,0,1-.049.093l-.21.278Q12.08-4,12.051-4a.12.12,0,0,1-.073-.044A6.746,6.746,0,0,0,10.63-5.132q-.049-.024-.049-.054a.192.192,0,0,1,.049-.093l.21-.264q.054-.063.088-.063a.158.158,0,0,1,.063.024A7.638,7.638,0,0,1,12.378-4.541Zm.591-2.417A.078.078,0,0,1,13-6.9a.257.257,0,0,1-.063.1l-.21.273q-.059.068-.1.068a.12.12,0,0,1-.073-.044A8.249,8.249,0,0,0,11.24-7.651a.057.057,0,0,1-.034-.049q0-.034.063-.1l.2-.22q.063-.073.1-.073a.12.12,0,0,1,.054.02A7.3,7.3,0,0,1,12.969-6.958ZM29.351.142a.069.069,0,0,1-.078.078L28.052.2h-2.71V.718q0,.083-.078.083h-.435q-.078,0-.078-.068l.02-1.2V-4.321q0-.273.02-.869-.288.43-.537.742-.1.107-.142.107T24-4.438a.83.83,0,0,0-.259-.254,6.949,6.949,0,0,0,1.05-1.5,8.212,8.212,0,0,0,.581-1.353,3.876,3.876,0,0,0,.161-.752,4.6,4.6,0,0,1,.566.181q.112.039.112.117a.3.3,0,0,1-.088.151,1.6,1.6,0,0,0-.181.4q-.2.5-.459,1.021h1.426a7.055,7.055,0,0,0,.444-1.128,3.725,3.725,0,0,0,.127-.61,3.6,3.6,0,0,1,.571.156q.122.044.122.112a.186.186,0,0,1-.078.132.805.805,0,0,0-.181.337q-.293.742-.415,1h.532L29.2-6.45a.069.069,0,0,1,.078.078v.4a.069.069,0,0,1-.078.078l-1.172-.02H27.4v1.421h.352l1.157-.02q.083,0,.083.088v.381q0,.078-.083.078l-1.157-.02H27.4V-2.51h.361l1.147-.02q.083,0,.083.078v.391q0,.078-.083.078L27.764-2H27.4v1.67h.649l1.221-.02a.069.069,0,0,1,.078.078Zm-2.5-.474V-2H25.342v1.67Zm0-2.178V-3.984H25.342V-2.51Zm0-1.982V-5.913H25.342v1.421Zm-2.661,1.4a.113.113,0,0,1,.01.039q0,.049-.117.093l-.21.059a.473.473,0,0,1-.1.02q-.063,0-.078-.078l-.171-.581q-.425.059-.85.088V-.771l.02,1.45q0,.083-.088.083h-.444q-.078,0-.078-.083l.02-1.45V-3.389l-.952.059a1.079,1.079,0,0,0-.366.073.3.3,0,0,1-.122.039q-.073,0-.1-.132-.044-.2-.093-.532.347.034.571.034h.142q.313-.4.767-1.074A12.615,12.615,0,0,0,20.493-6.45q-.039-.029-.039-.054a.332.332,0,0,1,.073-.127l.161-.19q.063-.068.088-.068t.063.039l.4.371a12,12,0,0,0,.771-1.343,2.541,2.541,0,0,0,.166-.469,5.192,5.192,0,0,1,.513.239q.112.068.112.122t-.088.122a.912.912,0,0,0-.215.278q-.454.786-.889,1.411.371.386.659.728.5-.8.84-1.4a2.287,2.287,0,0,0,.21-.479,3.933,3.933,0,0,1,.5.278q.093.063.093.112t-.1.132a1.823,1.823,0,0,0-.312.42q-.947,1.484-1.7,2.456.762-.044,1.548-.117a7.626,7.626,0,0,0-.317-.723.1.1,0,0,1-.02-.049q0-.039.127-.088l.181-.073a.4.4,0,0,1,.1-.024.072.072,0,0,1,.063.044A10.094,10.094,0,0,1,24.189-3.091Zm-2.578.649a.217.217,0,0,1-.039.122,1.063,1.063,0,0,0-.059.3,7.45,7.45,0,0,1-.454,1.88Q21,.02,20.952.02a.382.382,0,0,1-.142-.068A1.045,1.045,0,0,0,20.464-.2a6.723,6.723,0,0,0,.508-1.929q.015-.156.015-.288,0-.093,0-.205a3.945,3.945,0,0,1,.5.093Q21.611-2.49,21.611-2.441ZM24.1-.688a.4.4,0,0,1,0,.049q0,.049-.122.088l-.225.073a.473.473,0,0,1-.1.02q-.054,0-.063-.083a9.2,9.2,0,0,0-.459-1.929.148.148,0,0,1-.015-.049q0-.039.122-.078l.2-.063a.363.363,0,0,1,.088-.02q.039,0,.063.059A10.627,10.627,0,0,1,24.1-.688ZM38.633-5.308q0,.078-.083.078l-1.421-.02H32.192v.02a18.1,18.1,0,0,1-.22,2.8,9.6,9.6,0,0,1-.366,1.509,5.682,5.682,0,0,1-.625,1.26q-.083.132-.1.132T30.742.352a1.445,1.445,0,0,0-.371-.293,4.279,4.279,0,0,0,.718-1.367,8.793,8.793,0,0,0,.293-1.328,20.426,20.426,0,0,0,.2-3.105l-.02-1.929a.069.069,0,0,1,.078-.078l1.431.02h4.058l1.421-.02q.083,0,.083.078l-.02.762v.84Zm-.61-.5V-7.187h-5.83v1.377Zm1.025,4.58a3.007,3.007,0,0,1-.186.991,1,1,0,0,1-.293.356A4.32,4.32,0,0,1,36.24.488,4.874,4.874,0,0,1,34.048.22.712.712,0,0,1,33.8-.117a1.942,1.942,0,0,1-.063-.562V-3.149a12.287,12.287,0,0,0-.063-1.489q.4.015.674.049.132.015.132.1a.562.562,0,0,1-.063.19,4.985,4.985,0,0,0-.059,1.084V-2.5a13.016,13.016,0,0,0,2.871-1.221,2.23,2.23,0,0,0,.537-.41,2.982,2.982,0,0,1,.439.381.2.2,0,0,1,.073.142q0,.1-.132.117a3.273,3.273,0,0,0-.62.283A17.361,17.361,0,0,1,34.36-1.929v.9q0,.4.015.513a.363.363,0,0,0,.122.244,4.331,4.331,0,0,0,1.714.181A4.066,4.066,0,0,0,38.12-.342a.8.8,0,0,0,.264-.464,5.2,5.2,0,0,0,.083-.894,1.645,1.645,0,0,0,.43.22q.161.054.161.142Q39.058-1.313,39.048-1.23ZM49.438.054a.069.069,0,0,1-.078.078L48.076.112H41.943l-1.284.02a.069.069,0,0,1-.078-.078V-.4a.069.069,0,0,1,.078-.078l1.284.02h1.636V-2.368H42.29l-.85.02a.069.069,0,0,1-.078-.078l.02-.942V-4.448l-.02-.933a.069.069,0,0,1,.078-.078l.85.02h1.289V-7.026H42.09l-1.318.02a.069.069,0,0,1-.078-.078v-.444a.069.069,0,0,1,.078-.078l1.318.02h5.82l1.318-.02a.069.069,0,0,1,.078.078v.444a.069.069,0,0,1-.078.078l-1.318-.02H46.343v1.587h1.313l.859-.02q.073,0,.073.078l-.01.933v1.079l.01.942q0,.078-.073.078l-.859-.02H46.343V-.459h1.733l1.284-.02a.069.069,0,0,1,.078.078ZM47.988-2.91V-4.9H46.641l-.83.02a.069.069,0,0,1-.078-.078l.02-.8v-1.27H44.17v1.26l.02.811q0,.078-.083.078L43.3-4.9H41.973V-2.91H43.3l.806-.02q.083,0,.083.078l-.02.874V-.459h1.582V-1.978l-.02-.874a.069.069,0,0,1,.078-.078l.83.02Z" transform="translate(-4 162.302)" fill="#efefef"/>
          <path id="Path_1713" data-name="Path 1713" d="M9.38-4.429q0,.078-.073.078l-1.3-.02H4.189a9.035,9.035,0,0,1-1.04,1.362h1.88a5.993,5.993,0,0,0-.068-1q.352.015.659.059.112.02.112.093a.528.528,0,0,1-.039.161,1.97,1.97,0,0,0-.073.688H6.831l1.46-.02a.069.069,0,0,1,.078.078l-.02.9v.542l.02.718a.723.723,0,0,1-.22.591A1.475,1.475,0,0,1,7.236,0Q7.1,0,6.987,0q-.142,0-.176-.049a.625.625,0,0,1-.063-.181A1.126,1.126,0,0,0,6.577-.6q.454.044.84.044.342,0,.342-.371V-2.49H5.62V-.571L5.64.64q0,.068-.078.068H5.088Q5.01.708,5.01.64l.02-1.211V-2.49H3.159V-.85l.02.83A.069.069,0,0,1,3.1.059H2.637A.069.069,0,0,1,2.559-.02l.02-.83v-1.6A11.007,11.007,0,0,1,1.021-1.338a.848.848,0,0,1-.161.068Q.811-1.27.737-1.4a.98.98,0,0,0-.3-.317A8.141,8.141,0,0,0,3.521-4.37H1.978l-1.3.02q-.093,0-.093-.078v-.425q0-.078.093-.078l1.3.02h1.88Q4.023-5.2,4.17-5.5a1.836,1.836,0,0,0,.142-.469q.347.059.576.122.142.034.142.1a.144.144,0,0,1-.059.112.721.721,0,0,0-.21.249q-.21.4-.264.479H8.008l1.3-.02q.073,0,.073.078ZM7.607-5.806l-.21.269q-.063.083-.1.083a.153.153,0,0,1-.073-.034q-1.113-.649-1.992-1.05A16.682,16.682,0,0,1,1.938-5.464a.924.924,0,0,1-.137.02q-.073,0-.151-.151a1.2,1.2,0,0,0-.259-.352,15.583,15.583,0,0,0,3.159-.879q-.771-.317-2.07-.742-.059-.015-.059-.044T2.49-7.72l.19-.2q.068-.068.107-.068a.209.209,0,0,1,.054.01q1.328.42,2.349.85a12.272,12.272,0,0,0,1.387-.85,1.594,1.594,0,0,0,.391-.361,5.088,5.088,0,0,1,.552.273q.088.054.088.117t-.132.112a1.079,1.079,0,0,0-.3.146,13.222,13.222,0,0,1-1.338.845q.742.337,1.758.879.059.029.059.063A.19.19,0,0,1,7.607-5.806Zm5.581-2.017-.029,1.514v4.5l.01,1.372a.871.871,0,0,1-.239.718,1.275,1.275,0,0,1-.757.181q-.063,0-.093,0-.083,0-.107-.039a.621.621,0,0,1-.049-.156,1.308,1.308,0,0,0-.19-.41q.283.024.469.024.083,0,.171,0,.269-.015.269-.366V-2.744H11.553A9.252,9.252,0,0,1,10.918.5q-.059.132-.1.132T10.7.552a1.162,1.162,0,0,0-.347-.244,5.969,5.969,0,0,0,.566-1.938,25.984,25.984,0,0,0,.142-3.14v-1.5l-.02-1.553a.078.078,0,0,1,.088-.088l.7.024h.581l.7-.024Q13.188-7.91,13.188-7.822Zm-.547,4.57V-5.083h-1.05v.322q0,.63-.02,1.509Zm0-2.339V-7.368h-1.05v1.777Zm5.21,1.323L17.7-4.1q-.049.054-.073.054a.2.2,0,0,1-.073-.029q-.693-.352-.991-.483a8.593,8.593,0,0,1-1.411.479A.687.687,0,0,1,15-4.048q-.054,0-.122-.112a.731.731,0,0,0-.2-.2,9.609,9.609,0,0,0,1.4-.4q-.273-.112-1.05-.371-.049-.015-.049-.039t.059-.083l.117-.117q.054-.054.078-.054a.269.269,0,0,1,.054.01q.654.205,1.26.444a3.582,3.582,0,0,0,.581-.352A1.369,1.369,0,0,0,17.4-5.6a3.571,3.571,0,0,1,.342.186q.078.049.078.093t-.088.088a.984.984,0,0,0-.264.132q-.386.264-.479.317.107.049.84.4.054.034.054.054A.143.143,0,0,1,17.852-4.268Zm1.162.7q0,.078-.088.078l-1.343-.02H15.171l-1.353.02a.069.069,0,0,1-.078-.078l.024-.791v-.879L13.74-6.03a.069.069,0,0,1,.078-.078l1.353.02h2.412l1.343-.02q.088,0,.088.078l-.024.791v.879Zm-.542-.352V-5.679h-4.2v1.758ZM18.2-.61a1.739,1.739,0,0,0-.039.249.392.392,0,0,1-.029.2.433.433,0,0,1-.161.073q-.645.225-1.66.488-.356.088-.381.1a.237.237,0,0,1-.117.059q-.059,0-.093-.112T15.605-.01a3.8,3.8,0,0,0,.459-.039V-2.28A5.313,5.313,0,0,0,16-3.291q.254.015.557.059.112.02.112.083a.273.273,0,0,1-.024.1q-.029.068-.039.088a2.73,2.73,0,0,0-.049.679V-.151A12.484,12.484,0,0,0,18.2-.61Zm-2.48-.01a.994.994,0,0,0-.034.269.426.426,0,0,1-.024.19.6.6,0,0,1-.161.083q-.752.244-1.553.459a3.4,3.4,0,0,0-.376.1.274.274,0,0,1-.112.059q-.059,0-.088-.112-.1-.332-.132-.479a5.894,5.894,0,0,0,.591-.073V-2.28a5.313,5.313,0,0,0-.068-1.011,5.567,5.567,0,0,1,.566.059q.1.02.1.083,0,.015-.049.19a2.73,2.73,0,0,0-.049.679V-.22A11.313,11.313,0,0,0,15.723-.62ZM19.8-.752Q19.673.571,19.16.571q-.425,0-.737-1.123A8.262,8.262,0,0,1,18.11-2.48a6.291,6.291,0,0,0-.068-.791,5.188,5.188,0,0,1,.557.054q.112.015.112.078a.893.893,0,0,1-.059.2,1.076,1.076,0,0,0-.044.342q0,.029,0,.107a7.514,7.514,0,0,0,.269,1.729,2.952,2.952,0,0,0,.176.5q.1.21.156.21.112,0,.22-1.23a1.216,1.216,0,0,0,.269.249.2.2,0,0,1,.107.161Q19.81-.84,19.8-.752Zm-.83-5.8a.107.107,0,0,1,.039.063q0,.029-.059.063l-.249.142a.264.264,0,0,1-.1.034q-.034,0-.083-.054a6.341,6.341,0,0,0-.981-.933q-.088-.073-.088-.117t.078-.112a4.172,4.172,0,0,0,.552-.547,1.085,1.085,0,0,0,.2-.332,2.4,2.4,0,0,1,.43.151q.122.054.122.107t-.1.112a.955.955,0,0,0-.239.21q-.205.205-.459.42A6.636,6.636,0,0,1,18.97-6.548Zm-1.938.01a.085.085,0,0,1,.024.049q0,.034-.063.068l-.269.142a.275.275,0,0,1-.083.029.079.079,0,0,1-.059-.039,5.72,5.72,0,0,0-.9-.942q-.088-.073-.088-.107t.088-.122a4.175,4.175,0,0,0,.552-.547,1.617,1.617,0,0,0,.2-.342,3.834,3.834,0,0,1,.474.171q.088.039.088.088t-.112.112a1.916,1.916,0,0,0-.229.21q-.3.3-.459.439A7.513,7.513,0,0,1,17.031-6.538ZM15.161-8.1q0,.068-.1.112a2.583,2.583,0,0,0-.239.22,5.879,5.879,0,0,1-.459.439,4.617,4.617,0,0,1,.771.781.107.107,0,0,1,.024.059q0,.034-.073.068l-.264.132a.227.227,0,0,1-.083.029q-.034,0-.063-.049a4.538,4.538,0,0,0-.815-.908.352.352,0,0,1-.078-.122q0-.044.078-.107a3.814,3.814,0,0,0,.562-.562,1.05,1.05,0,0,0,.19-.342q.171.049.439.151Q15.161-8.159,15.161-8.1Zm.649,5.7q.034.029.034.049a.168.168,0,0,1-.044.073l-.161.19q-.044.054-.063.054t-.054-.034a4.392,4.392,0,0,0-.84-.61q-.049-.034-.049-.054t.049-.073l.117-.142q.059-.068.088-.068a.143.143,0,0,1,.063.029A5.28,5.28,0,0,1,15.811-2.4Zm-.1,1.152a.067.067,0,0,1,.029.049.174.174,0,0,1-.039.073l-.161.186q-.044.054-.068.054T15.42-.923a4.2,4.2,0,0,0-.83-.6q-.049-.034-.049-.054a.187.187,0,0,1,.049-.078l.122-.142q.059-.063.083-.063a.19.19,0,0,1,.068.024A5.86,5.86,0,0,1,15.713-1.25Zm2.227-1.1q.034.024.034.044a.139.139,0,0,1-.044.073l-.156.181Q17.729-2,17.705-2a.078.078,0,0,1-.054-.034,4.354,4.354,0,0,0-.83-.6q-.054-.034-.054-.054t.054-.073l.122-.132q.063-.063.088-.063a.166.166,0,0,1,.059.024A5.525,5.525,0,0,1,17.939-2.349ZM17.9-1.211q.034.029.034.049a.168.168,0,0,1-.044.073l-.151.19q-.039.049-.063.049a.081.081,0,0,1-.054-.029,4.006,4.006,0,0,0-.82-.6q-.049-.034-.049-.054a.187.187,0,0,1,.049-.078l.107-.137q.063-.068.088-.068a.158.158,0,0,1,.063.024A5.653,5.653,0,0,1,17.9-1.211Z" transform="translate(26 145.38)" fill="#efefef"/>
          <path id="Path_1712" data-name="Path 1712" d="M7.891.527Q7.891.61,7.8.61H7.319q-.068,0-.068-.083V.059h-4.5V.566q0,.083-.078.083H2.2q-.078,0-.078-.083l.02-1.787V-2.09l-.02-1.182A.069.069,0,0,1,2.2-3.35l1.382.02H6.431L7.8-3.35q.088,0,.088.078l-.02,1.05v.972ZM7.251-.5V-2.769h-4.5V-.5ZM9.067-4.482a.143.143,0,0,1,.029.063q0,.034-.1.107l-.288.19a.307.307,0,0,1-.127.063q-.029,0-.063-.049-.283-.405-.63-.815-3.13.4-6.094.552a1.408,1.408,0,0,0-.488.083.345.345,0,0,1-.171.059q-.083,0-.117-.122Q.942-4.619.869-5.01,1.2-5,1.514-5q.22,0,.386,0l.708-.029A22.153,22.153,0,0,0,3.9-7.651a2.649,2.649,0,0,0,.176-.679,4.112,4.112,0,0,1,.64.171q.151.059.151.142a.219.219,0,0,1-.078.146,1.588,1.588,0,0,0-.264.439A26.547,26.547,0,0,1,3.3-5.059q2.2-.127,4.16-.342A13.968,13.968,0,0,0,6.167-6.621q-.039-.034-.039-.059t.093-.1l.22-.146a.234.234,0,0,1,.112-.063.134.134,0,0,1,.078.034A15.134,15.134,0,0,1,9.067-4.482Zm10.068,3.34-.068.493a2.541,2.541,0,0,1-.259.9Q18.579.62,17.8.62q-.459,0-.83-.02a.383.383,0,0,1-.186-.044A.386.386,0,0,1,16.729.41a1.009,1.009,0,0,0-.142-.352,10.741,10.741,0,0,0,1.172.073q.464,0,.591-.259A1.958,1.958,0,0,0,18.5-.771H13.3l-.117.322q-.039.088-.1.088a.411.411,0,0,1-.073-.01L12.676-.43q-.107-.02-.107-.063a.345.345,0,0,1,.029-.1,9.248,9.248,0,0,0,.391-1.05,3.365,3.365,0,0,0,.1-.522.088.088,0,0,1,.1-.088l1.26.02h3.569v-.562H14.37l-1.362.02q-.078,0-.078-.088v-.322a.069.069,0,0,1,.078-.078l1.362.02H17.1l1.4-.02a.069.069,0,0,1,.078.078l-.02.522V-2.4l.02.552a.069.069,0,0,1-.078.078l-1.4-.02H13.618q-.117.415-.171.571h4.2l1.4-.02q.093,0,.093.073A.08.08,0,0,1,19.136-1.143Zm.371-4.434a.112.112,0,0,1,.015.044q0,.024-.083.063l-.151.068a.271.271,0,0,1-.093.034q-.029,0-.059-.063a2.448,2.448,0,0,1-.1-.239l-.571.083v1.128l.02.7q0,.083-.078.083h-.332q-.068,0-.068-.083l.02-.7V-5.527q-.371.039-.518.049a1.153,1.153,0,0,0-.352.073.212.212,0,0,1-.1.049q-.059,0-.088-.112a2.3,2.3,0,0,1-.078-.371q.142.01.249.01t.249-.01q.088-.088.469-.518a6.916,6.916,0,0,0-.815-.762q-.034-.024-.034-.044a.21.21,0,0,1,.049-.073L17.2-7.4q.044-.054.068-.054a.111.111,0,0,1,.063.034l.19.146a6.871,6.871,0,0,0,.41-.63,2.311,2.311,0,0,0,.146-.391,2.381,2.381,0,0,1,.391.171q.078.049.078.1t-.078.1a.619.619,0,0,0-.161.19,7.747,7.747,0,0,1-.518.713q.059.049.342.327a5.788,5.788,0,0,0,.376-.537,1.736,1.736,0,0,0,.19-.381,3.029,3.029,0,0,1,.352.21q.078.063.078.107t-.078.1a.819.819,0,0,0-.239.239,9.918,9.918,0,0,1-.933,1.079q.5-.044,1-.117l-.19-.312a.06.06,0,0,1-.015-.034q0-.029.063-.054l.151-.073a.236.236,0,0,1,.063-.02q.024,0,.059.039A4.888,4.888,0,0,1,19.507-5.576Zm-4.668.01a.112.112,0,0,1,.015.044q0,.024-.083.063l-.151.073a.3.3,0,0,1-.093.029q-.034,0-.059-.063t-.059-.132q-.034-.088-.039-.107l-.542.083v1.118l.02.7q0,.083-.078.083h-.332q-.068,0-.068-.083l.02-.7V-5.527q-.352.039-.488.049a1.153,1.153,0,0,0-.352.073.216.216,0,0,1-.1.049q-.059,0-.093-.112a2.3,2.3,0,0,1-.078-.371q.269.015.327.015t.132,0q.454-.5.488-.547a5.932,5.932,0,0,0-.85-.791q-.029-.029-.029-.044A.187.187,0,0,1,12.4-7.29l.142-.156q.044-.054.068-.054a.118.118,0,0,1,.063.029l.21.171a4.278,4.278,0,0,0,.4-.61,2.311,2.311,0,0,0,.146-.391,2.381,2.381,0,0,1,.391.171q.078.049.078.1t-.078.1a.619.619,0,0,0-.161.19q-.21.317-.508.688.239.22.352.342l.356-.518a1.736,1.736,0,0,0,.19-.381,3.029,3.029,0,0,1,.352.21q.078.063.078.107t-.078.1a.864.864,0,0,0-.244.239,8.961,8.961,0,0,1-.928,1.079q.288-.024.981-.107l-.19-.312A.06.06,0,0,1,14-6.323q0-.024.063-.054l.151-.073a.236.236,0,0,1,.063-.02q.024,0,.054.039A4.707,4.707,0,0,1,14.839-5.566Zm1.87,1.748a.069.069,0,0,1-.078.078l-.591-.02h-.41l-.586.02a.069.069,0,0,1-.078-.078l.024-.464v-.249l-.024-.454q0-.088.078-.088l.586.02h.41l.591-.02q.078,0,.078.088l-.02.454v.249Zm-.4-.283v-.61h-.942v.61Zm-4.072,1.89a19.729,19.729,0,0,1-.918,2.158,1.7,1.7,0,0,0-.19.43Q11.113.5,11.03.5a.23.23,0,0,1-.142-.059A3.807,3.807,0,0,1,10.459.1a3.9,3.9,0,0,0,.488-.747,14,14,0,0,0,.879-2.158,1.45,1.45,0,0,0,.293.288q.156.117.156.176A.368.368,0,0,1,12.236-2.212Zm.1-4.829q.034.034.034.054a.283.283,0,0,1-.063.107l-.21.239q-.068.083-.1.083a.093.093,0,0,1-.059-.034A6.942,6.942,0,0,0,10.8-7.632q-.054-.039-.054-.063t.068-.093L11-8.008q.063-.078.1-.078a.106.106,0,0,1,.054.024A6.718,6.718,0,0,1,12.339-7.041Zm-.322,2.393a.107.107,0,0,1,.039.063.225.225,0,0,1-.059.1l-.21.273q-.059.063-.078.063a.093.093,0,0,1-.059-.034,6.293,6.293,0,0,0-1.2-.972q-.054-.029-.054-.054a.186.186,0,0,1,.054-.093l.19-.254q.044-.059.073-.059a.166.166,0,0,1,.073.029A7.467,7.467,0,0,1,12.017-4.648Zm4.893-2.334a.073.073,0,0,1-.083.083l-.708-.02H15.5l-.728.02a.073.073,0,0,1-.083-.083v-.269q0-.078.083-.078l.728.02h.62l.708-.02q.083,0,.083.078Zm-.181-.776a.069.069,0,0,1-.078.078l-.581-.02h-.43l-.581.02a.069.069,0,0,1-.078-.078v-.249q0-.083.078-.083l.581.024h.43l.581-.024q.078,0,.078.083ZM16.68-5.5q0,.078-.083.078l-.557-.02h-.4l-.562.02A.069.069,0,0,1,15-5.5v-.239q0-.083.078-.083l.562.024h.4L16.6-5.82a.073.073,0,0,1,.083.083Zm0-.742q0,.078-.083.078l-.557-.02h-.4l-.562.02A.069.069,0,0,1,15-6.24v-.239a.069.069,0,0,1,.078-.078l.562.02h.4l.557-.02q.083,0,.083.078Zm-3.5,1.182a.151.151,0,0,1-.049.093.883.883,0,0,0-.122.259,6.19,6.19,0,0,1-.288.771q-.049.107-.093.107a.219.219,0,0,1-.088-.039,1.061,1.061,0,0,0-.269-.122,4.212,4.212,0,0,0,.347-.83,1.576,1.576,0,0,0,.083-.42,2.486,2.486,0,0,1,.356.093Q13.179-5.107,13.179-5.059Zm4.609,0a.151.151,0,0,1-.049.093.883.883,0,0,0-.122.259,5.935,5.935,0,0,1-.288.762q-.054.107-.093.107a.219.219,0,0,1-.088-.039A1.061,1.061,0,0,0,16.88-4a4.225,4.225,0,0,0,.347-.82,1.576,1.576,0,0,0,.083-.42,2.281,2.281,0,0,1,.356.093Q17.788-5.107,17.788-5.059Zm1.758.908a1.308,1.308,0,0,0-.259.122.218.218,0,0,1-.107.059q-.039,0-.083-.1a5.544,5.544,0,0,1-.366-.991.155.155,0,0,1-.01-.044q0-.034.1-.063L19-5.22a.269.269,0,0,1,.054-.01q.029,0,.044.054A4.514,4.514,0,0,0,19.546-4.15Zm-4.829-.166a.206.206,0,0,1,0,.034q0,.044-.083.063l-.2.049a.283.283,0,0,1-.073.015q-.039,0-.049-.063a4.081,4.081,0,0,0-.239-.889.112.112,0,0,1-.01-.034q0-.039.093-.059l.156-.039a.61.61,0,0,1,.063-.01q.029,0,.059.049A4.054,4.054,0,0,1,14.717-4.316Z" transform="translate(26 128.457)" fill="#80adff"/>
          <path id="Path_1711" data-name="Path 1711" d="M7.949.288a.069.069,0,0,1-.078.078H7.388A.069.069,0,0,1,7.31.288v-.61H2.681v.63q0,.078-.068.078H2.119A.069.069,0,0,1,2.041.308l.02-3.428V-5.049l-.02-2.52q0-.083.078-.083l1.392.02H6.479l1.392-.02q.078,0,.078.083L7.93-5.3V-3.12ZM7.31-.894v-2.9H2.681v2.9Zm0-3.457v-2.71H2.681v2.71ZM19.629-1.543a1.726,1.726,0,0,0-.288.381q-.093.151-.122.151a.553.553,0,0,1-.146-.068,10.514,10.514,0,0,1-3.892-4.2q0,1.46.02,3.462h.718l1.25-.02q.083,0,.083.078v.43a.073.073,0,0,1-.083.083l-1.25-.02H15.21q.01.562.029,1.353.01.479.01.537A.069.069,0,0,1,15.171.7h-.532A.069.069,0,0,1,14.561.62q0-.039,0-.312.02-.864.024-1.577h-.61l-1.24.02q-.078,0-.078-.083v-.43a.069.069,0,0,1,.078-.078l1.24.02h.62q.029-1.455.029-3.359A10.491,10.491,0,0,1,10.981-1.04a.484.484,0,0,1-.161.078q-.059,0-.122-.142a1.139,1.139,0,0,0-.3-.356,9.356,9.356,0,0,0,2.31-1.865A10.522,10.522,0,0,0,14.3-5.581H12.183l-1.333.02a.069.069,0,0,1-.078-.078v-.454a.069.069,0,0,1,.078-.078l1.333.02H14.59v-.889a7.5,7.5,0,0,0-.068-1.211,6.132,6.132,0,0,1,.688.059q.122.02.122.083A.319.319,0,0,1,15.308-8a1.065,1.065,0,0,0-.034.107,4.015,4.015,0,0,0-.054.84v.9h2.612l1.338-.02a.069.069,0,0,1,.078.078v.454a.069.069,0,0,1-.078.078l-1.338-.02H15.5A10.169,10.169,0,0,0,19.629-1.543Z" transform="translate(26 111.535)" fill="#efefef"/>
          <path id="Path_1710" data-name="Path 1710" d="M9.375-3.662q0,.088-.093.088l-1.309-.02H2.056l-1.313.02q-.078,0-.078-.088v-.391a.069.069,0,0,1,.078-.078l1.313.02H4.624v-.962H3.213L1.8-5.054q-.068,0-.068-.078v-.381q0-.078.068-.078l1.411.02H4.624V-6.45h-1.9l-1.4.02a.069.069,0,0,1-.078-.078V-6.89a.069.069,0,0,1,.078-.078l1.4.02H5.664a10.241,10.241,0,0,0,.522-.9,1.856,1.856,0,0,0,.146-.459,3.649,3.649,0,0,1,.562.186q.112.059.112.122a.142.142,0,0,1-.093.122.58.58,0,0,0-.181.186q-.229.386-.488.742H7.314l1.392-.02a.069.069,0,0,1,.078.078v.381a.069.069,0,0,1-.078.078L7.314-6.45H5.225v.879H6.792l1.4-.02q.083,0,.083.078v.381q0,.078-.083.078l-1.4-.02H5.225v.962H7.974l1.309-.02q.093,0,.093.078ZM9.492.127a1.07,1.07,0,0,0-.249.391Q9.155.7,9.087.7A.75.75,0,0,1,8.96.679,5.731,5.731,0,0,1,4.9-1.812,3.509,3.509,0,0,1,3.853-.464,6.327,6.327,0,0,1,1.084.679,1.055,1.055,0,0,1,.947.7Q.874.7.8.527A1.145,1.145,0,0,0,.552.156,5.979,5.979,0,0,0,3.481-.879,2.613,2.613,0,0,0,4.36-2.021H2.3L.952-2A.069.069,0,0,1,.874-2.08v-.4a.069.069,0,0,1,.078-.078l1.348.02H4.512a2.81,2.81,0,0,0,.063-.576,1.782,1.782,0,0,0-.024-.3q.356.029.571.068.161.034.161.112a.33.33,0,0,1-.068.166,2.674,2.674,0,0,0-.112.532H7.729l1.353-.02a.069.069,0,0,1,.078.078v.4A.069.069,0,0,1,9.082-2l-1.353-.02H5.3A5.706,5.706,0,0,0,9.492.127Zm-5.479-7.5a.157.157,0,0,1,.024.068q0,.039-.107.088l-.259.132a.472.472,0,0,1-.127.049q-.034,0-.063-.059A3.525,3.525,0,0,0,2.9-7.969a.144.144,0,0,1-.039-.073q0-.049.1-.088l.269-.122a.3.3,0,0,1,.1-.029.124.124,0,0,1,.073.039A4.812,4.812,0,0,1,4.014-7.378Zm14.136,5.61a1.581,1.581,0,0,1-.342.747.607.607,0,0,1-.449.171q-.625,0-1.128-1.177A6.834,6.834,0,0,1,14.673-.815a.8.8,0,0,1-.142.068q-.059,0-.161-.132a1.223,1.223,0,0,0-.269-.259A5.627,5.627,0,0,0,16.03-2.559L16-2.646a13.367,13.367,0,0,1-.459-2.773H13.579l-1.367.02q-.093,0-.093-.078V-5.84q0-.078.093-.078l1.367.02h1.934a2.67,2.67,0,0,1-.01-.269A6.526,6.526,0,0,0,15.42-7a2.819,2.819,0,0,1,.542.049q.161.029.161.107a.376.376,0,0,1-.049.151.707.707,0,0,0-.034.278V-5.9h.449l1.382-.02a.069.069,0,0,1,.078.078v.361a.069.069,0,0,1-.078.078l-1.382-.02h-.42A14.951,14.951,0,0,0,16.421-3.1a4.839,4.839,0,0,0,.43-.874,3.356,3.356,0,0,0,.229-.786,2.507,2.507,0,0,1,.488.21q.1.049.1.127,0,.039-.112.151a2.288,2.288,0,0,0-.229.459A8.086,8.086,0,0,1,16.6-2.5a3.686,3.686,0,0,0,.43.845q.2.273.327.273.308,0,.4-.937a1.146,1.146,0,0,0,.293.264q.127.078.127.142A.771.771,0,0,1,18.149-1.768ZM14.888-2.949a.069.069,0,0,1-.078.078l-.747-.02h-.64l-.762.02a.069.069,0,0,1-.078-.078l.02-.63v-.493l-.02-.64a.069.069,0,0,1,.078-.078l.762.02h.64l.747-.02a.069.069,0,0,1,.078.078l-.02.64v.493Zm-.508-.342V-4.37H13.091v1.079Zm.82.693a1.931,1.931,0,0,0-.059.337.367.367,0,0,1-.049.19A.433.433,0,0,1,14.932-2q-.981.293-2.1.518a1.593,1.593,0,0,0-.41.132.26.26,0,0,1-.122.059q-.059,0-.1-.1a4.529,4.529,0,0,1-.151-.537,4.46,4.46,0,0,0,.889-.1A13.939,13.939,0,0,0,15.2-2.6Zm2.383-3.765a.106.106,0,0,1,.024.054q0,.02-.059.078l-.176.161a.283.283,0,0,1-.107.063q-.015,0-.054-.044a4.364,4.364,0,0,0-.649-.649q-.039-.029-.039-.044t.078-.078l.181-.137A.137.137,0,0,1,16.86-7a.112.112,0,0,1,.059.034A5.943,5.943,0,0,1,17.583-6.362ZM18.989.664q0,.078-.088.078h-.454a.069.069,0,0,1-.078-.078V.122H11.631V.664a.069.069,0,0,1-.078.078h-.464a.069.069,0,0,1-.078-.078l.02-3.745v-2l-.02-2.671a.069.069,0,0,1,.078-.078l1.392.02H17.52l1.382-.02q.088,0,.088.078l-.02,2.373v2.295ZM18.369-.41V-7.266H11.631V-.41Z" transform="translate(26 94.612)" fill="#efefef"/>
          <path id="Path_1709" data-name="Path 1709" d="M9.658-1.128a1.7,1.7,0,0,0-.322.415q-.073.132-.122.132a.272.272,0,0,1-.137-.078A8.3,8.3,0,0,1,6.138-5.381q0,.5.044,2.871.024,1.46.024,2.148a.765.765,0,0,1-.352.708A2.568,2.568,0,0,1,4.678.518.318.318,0,0,1,4.5.488.518.518,0,0,1,4.424.317a1.306,1.306,0,0,0-.21-.449q.5.039.845.039a.7.7,0,0,0,.425-.093.324.324,0,0,0,.1-.273V-7.1a6.762,6.762,0,0,0-.068-1.1,4.927,4.927,0,0,1,.654.049q.132.015.132.088a.743.743,0,0,1-.068.21,3.152,3.152,0,0,0-.049.742v.42a9.889,9.889,0,0,0,.737,2.261,11.159,11.159,0,0,0,1.265-1.44,2.2,2.2,0,0,0,.269-.479A4.339,4.339,0,0,1,8.989-6a.21.21,0,0,1,.088.142q0,.073-.112.127a2.5,2.5,0,0,0-.469.444A17.227,17.227,0,0,1,7.168-3.95,7.81,7.81,0,0,0,9.658-1.128ZM5.239-5.088a.231.231,0,0,1-.078.142A.608.608,0,0,0,5-4.658a9.773,9.773,0,0,1-.962,2.334A8.45,8.45,0,0,1,2.71-.654a.35.35,0,0,1-.142.088q-.039,0-.132-.122A1.338,1.338,0,0,0,2.109-1,7.278,7.278,0,0,0,3.652-2.9a8.775,8.775,0,0,0,.806-2.051H3.535l-.859.02q-.068,0-.068-.083v-.43q0-.078.068-.078l.859.02h.942a.545.545,0,0,0,.19-.029.612.612,0,0,1,.1-.029q.088,0,.269.19Q5.239-5.151,5.239-5.088ZM2.539-2.92A20.424,20.424,0,0,1,1.406-.391a2.512,2.512,0,0,0-.19.43Q1.187.151,1.1.151A.27.27,0,0,1,.938.073q-.229-.2-.42-.4a4.72,4.72,0,0,0,.5-.708,15.232,15.232,0,0,0,1.113-2.5,3.222,3.222,0,0,0,.308.3q.137.107.137.161A.737.737,0,0,1,2.539-2.92Zm.039-3.3a.107.107,0,0,1,.024.059q0,.029-.063.093l-.283.259q-.073.073-.107.073t-.073-.054A7.676,7.676,0,0,0,.767-7.329Q.718-7.373.718-7.4t.088-.1l.244-.2q.068-.063.1-.063a.078.078,0,0,1,.054.034A9.03,9.03,0,0,1,2.578-6.221ZM19.287-3.359a.078.078,0,0,1-.088.088l-1.411-.02H12.651v.713H17.5l1.406-.02Q19-2.6,19-2.51q-.02.112-.034.322-.02.239-.024.288A5.424,5.424,0,0,1,18.467.21a.984.984,0,0,1-.83.41q-.43,0-.728-.02-.122-.01-.146-.039A.541.541,0,0,1,16.719.41a1.129,1.129,0,0,0-.151-.439,5.917,5.917,0,0,0,.923.078.507.507,0,0,0,.488-.229,5.515,5.515,0,0,0,.371-1.938H14.072v1.45h1.8v-.552a2.962,2.962,0,0,0-.049-.566q.4.029.63.068.1.015.1.078a.692.692,0,0,1-.054.151.893.893,0,0,0-.049.332V-.63l.02.361q0,.088-.083.088Q16.118-.2,15-.2H11.689v.43a.069.069,0,0,1-.078.078h-.43Q11.1.308,11.1.229l.02-.537v-.811a2.792,2.792,0,0,0-.059-.64,5.277,5.277,0,0,1,.63.059q.1.015.1.078a.276.276,0,0,1-.054.142.722.722,0,0,0-.039.288v.522h1.792v-1.45l-1.372.02a.069.069,0,0,1-.078-.078l.02-1.211V-6.05l-.02-1.191a.069.069,0,0,1,.078-.078l1.362.02h.361l.288-.581a1.7,1.7,0,0,0,.151-.537,4.84,4.84,0,0,1,.625.137q.1.034.1.112,0,.049-.093.117a.52.52,0,0,0-.137.181q-.225.454-.288.571h1.6l1.357-.02q.083,0,.083.078l-.02.83v1.069l.02.82q0,.088-.083.088l-1.357-.02H12.651v.684h5.137l1.411-.02q.088,0,.088.078ZM16.919-4.922v-.747H12.651v.747Zm0-1.2v-.713H12.651v.713Z" transform="translate(26 77.69)" fill="#efefef"/>
          <path id="Path_1708" data-name="Path 1708" d="M5.84-4.941a.15.15,0,0,1,.02.059q0,.044-.078.093l-.293.19a.312.312,0,0,1-.132.059q-.034,0-.068-.059A8.97,8.97,0,0,0,4.053-6.318a.111.111,0,0,1-.034-.063q0-.029.083-.088l.249-.161a.29.29,0,0,1,.107-.059q.02,0,.054.039A10.585,10.585,0,0,1,5.84-4.941ZM9.429-3.457a.069.069,0,0,1-.078.078L8.062-3.4H7.9V-1.66L7.92-.317a.854.854,0,0,1-.259.688A2.748,2.748,0,0,1,6.3.571a.318.318,0,0,1-.19-.034A.472.472,0,0,1,6.05.361a1.04,1.04,0,0,0-.19-.449q.5.039,1.079.039.352,0,.352-.41V-3.4H2.7A7.365,7.365,0,0,1,2.129-.937,5.035,5.035,0,0,1,1.108.518q-.1.1-.142.1A.523.523,0,0,1,.83.518,1.229,1.229,0,0,0,.41.269,4.609,4.609,0,0,0,1.6-1.309,6.6,6.6,0,0,0,2.08-3.4H1.958l-1.289.02a.069.069,0,0,1-.078-.078v-.454q0-.068.078-.068l1.289.02h.161q.02-.5.02-.791V-6.167L2.119-7.7A.069.069,0,0,1,2.2-7.778l1.382.02H6.46l1.382-.02A.069.069,0,0,1,7.92-7.7L7.9-6.167V-3.96h.161l1.289-.02q.078,0,.078.068ZM7.29-3.96V-7.2H2.749v2.456q0,.3-.02.781ZM17.959-.044q.049.034.049.054a.249.249,0,0,1-.059.107l-.2.278q-.063.1-.107.1a.153.153,0,0,1-.073-.034A19.419,19.419,0,0,0,15.381-.815,11.3,11.3,0,0,1,11.592.635a.673.673,0,0,1-.122.02q-.078,0-.171-.181A1.84,1.84,0,0,0,11.05.146,10.937,10.937,0,0,0,14.8-1.1q-.679-.317-1.8-.771a9.986,9.986,0,0,1-1.3.723.553.553,0,0,1-.151.049q-.049,0-.117-.1a1.212,1.212,0,0,0-.278-.283,6.688,6.688,0,0,0,2.686-1.8,1.669,1.669,0,0,0,.293-.43q.278.068.552.161a.1.1,0,0,1,.068.107q0,.054-.093.1A.9.9,0,0,0,14.4-3.1l-.049.049h2.271a.65.65,0,0,0,.2-.02.333.333,0,0,1,.107-.029.561.561,0,0,1,.293.171q.19.176.19.249a.132.132,0,0,1-.088.117.948.948,0,0,0-.264.22,8.569,8.569,0,0,1-1.172,1.162A21.968,21.968,0,0,1,17.959-.044ZM16.528-2.583H13.892q-.181.176-.41.361,1.162.454,1.86.776A5.663,5.663,0,0,0,16.528-2.583ZM19.59-3.4a1.067,1.067,0,0,0-.229.381q-.073.181-.146.181a.548.548,0,0,1-.142-.034A8.54,8.54,0,0,1,15.2-5q0,.317.029.747.02.322.02.405a.069.069,0,0,1-.078.078h-.483a.069.069,0,0,1-.078-.078q0-.068.024-.474.02-.366.024-.669a8.383,8.383,0,0,1-3.721,2.114.515.515,0,0,1-.132.029q-.073,0-.146-.151a1.358,1.358,0,0,0-.239-.361,8.035,8.035,0,0,0,4.219-2.251V-6.9h-2.4l-1.348.02a.069.069,0,0,1-.078-.078v-.381a.069.069,0,0,1,.078-.078l1.348.02h2.4v-.049a3.969,3.969,0,0,0-.068-.879,4.815,4.815,0,0,1,.64.063q.107.015.107.088a.336.336,0,0,1-.039.132,1.625,1.625,0,0,0-.059.566V-7.4h2.51l1.353-.02a.069.069,0,0,1,.078.078v.381a.069.069,0,0,1-.078.078L17.729-6.9H15.22v1.328a7.04,7.04,0,0,0,2.051,1.421A12.873,12.873,0,0,0,19.59-3.4Zm-.508-1.519a1.252,1.252,0,0,0-.244.342q-.068.132-.117.132A.287.287,0,0,1,18.6-4.5,6.132,6.132,0,0,1,17.09-5.688a3.47,3.47,0,0,1-.6.679.293.293,0,0,1-.142.078q-.029,0-.107-.078a1.19,1.19,0,0,0-.288-.229,3.4,3.4,0,0,0,.918-1.069,1.66,1.66,0,0,0,.161-.439,3.366,3.366,0,0,1,.488.176q.078.044.078.1t-.078.107a.735.735,0,0,0-.171.244A5.179,5.179,0,0,0,19.082-4.922Zm-5.254-.347a2.238,2.238,0,0,0-.249.249q-.088.117-.127.117A.375.375,0,0,1,13.3-4.98a4.247,4.247,0,0,1-.732-.659A5.007,5.007,0,0,1,11.479-4.57a.621.621,0,0,1-.142.068q-.039,0-.127-.117a1,1,0,0,0-.283-.259,3.73,3.73,0,0,0,1.45-1.431,1.462,1.462,0,0,0,.181-.449,4.164,4.164,0,0,1,.5.176q.1.054.1.1a.132.132,0,0,1-.078.117.6.6,0,0,0-.19.21l-.059.112A3.836,3.836,0,0,0,13.828-5.269Z" transform="translate(26 60.768)" fill="#efefef"/>
          <path id="Path_1707" data-name="Path 1707" d="M4.38-6.611q0,.083-.088.083L3.12-6.553H2.861v.9h.171l1.03-.02q.068,0,.068.078l-.01.913v1.318l.01.918q0,.078-.068.078l-1.03-.02H2.861v.952h.2l1.182-.02q.078,0,.078.068v.391a.069.069,0,0,1-.078.078L3.062-.933h-.2v.459L2.881.679q0,.068-.078.068H2.368Q2.29.747,2.29.679L2.31-.474V-.933H1.841l-1.2.02q-.068,0-.068-.078v-.391A.06.06,0,0,1,.64-1.45l1.2.02H2.31v-.952H2.129l-1.021.02a.069.069,0,0,1-.078-.078l.02-.918V-4.678l-.02-.913a.069.069,0,0,1,.078-.078l1.021.02H2.31v-.9H1.919L.742-6.528a.073.073,0,0,1-.083-.083v-.381q0-.078.083-.078l1.177.02H2.31v-.112a7.625,7.625,0,0,0-.068-1.118q.361.015.61.049.112.02.112.093a1.273,1.273,0,0,1-.039.161,2.4,2.4,0,0,0-.063.7v.229H3.12l1.172-.02q.088,0,.088.078ZM3.6-2.842v-.977H1.582v.977Zm0-1.426V-5.19H1.582v.923ZM9.6-.6a.069.069,0,0,1-.078.078L8.193-.542H7.52V-.41L7.539.659a.069.069,0,0,1-.078.078H7.021A.069.069,0,0,1,6.943.659L6.963-.41V-.542H5.811l-1.328.02Q4.4-.522,4.4-.6V-.962q0-.078.083-.078l.137,0q.146.01.322.015v-.718l-.02-.571A.069.069,0,0,1,5-2.388l1.211.02h.752v-.713H6.23l-1.113.02q-.078,0-.078-.088l.024-.6v-.493l-.024-.6q0-.088.078-.088l1.113.02H7.563l1.1-.02q.078,0,.078.088l-.02.6v.493l.02.6q0,.088-.078.088l-1.1-.02H7.52v.713h.371l1.191-.02a.069.069,0,0,1,.078.078v.352a.069.069,0,0,1-.078.078L7.891-1.9H7.52v.879h.674l1.328-.02A.069.069,0,0,1,9.6-.962ZM8.169-3.521v-.933H5.6v.933Zm-1.206,2.5V-1.9H5.483v.879ZM9.5-5.6q0,.088-.068.088l-1.309-.02H5.864l-1.313.02q-.068,0-.068-.088v-.342q0-.078.068-.078L5.723-6q.176-.459.322-.937l-1.03.02q-.083,0-.083-.078v-.342q0-.078.083-.078l1.079.02h.078l.093-.332a2.324,2.324,0,0,0,.078-.581,4.135,4.135,0,0,1,.6.073q.122.015.122.088a.261.261,0,0,1-.068.142.769.769,0,0,0-.117.239l-.1.371h.649l1.1-.02a.069.069,0,0,1,.078.078l-.02.571V-6l.85-.02q.068,0,.068.078ZM8.022-6v-.937H6.631Q6.46-6.382,6.323-6ZM18.149-1.768a1.581,1.581,0,0,1-.342.747.607.607,0,0,1-.449.171q-.625,0-1.128-1.177A6.834,6.834,0,0,1,14.673-.815a.8.8,0,0,1-.142.068q-.059,0-.161-.132a1.223,1.223,0,0,0-.269-.259A5.627,5.627,0,0,0,16.03-2.559L16-2.646a13.367,13.367,0,0,1-.459-2.773H13.579l-1.367.02q-.093,0-.093-.078V-5.84q0-.078.093-.078l1.367.02h1.934a2.67,2.67,0,0,1-.01-.269A6.526,6.526,0,0,0,15.42-7a2.819,2.819,0,0,1,.542.049q.161.029.161.107a.376.376,0,0,1-.049.151.707.707,0,0,0-.034.278V-5.9h.449l1.382-.02a.069.069,0,0,1,.078.078v.361a.069.069,0,0,1-.078.078l-1.382-.02h-.42A14.951,14.951,0,0,0,16.421-3.1a4.839,4.839,0,0,0,.43-.874,3.356,3.356,0,0,0,.229-.786,2.507,2.507,0,0,1,.488.21q.1.049.1.127,0,.039-.112.151a2.288,2.288,0,0,0-.229.459A8.086,8.086,0,0,1,16.6-2.5a3.686,3.686,0,0,0,.43.845q.2.273.327.273.308,0,.4-.937a1.146,1.146,0,0,0,.293.264q.127.078.127.142A.771.771,0,0,1,18.149-1.768ZM14.888-2.949a.069.069,0,0,1-.078.078l-.747-.02h-.64l-.762.02a.069.069,0,0,1-.078-.078l.02-.63v-.493l-.02-.64a.069.069,0,0,1,.078-.078l.762.02h.64l.747-.02a.069.069,0,0,1,.078.078l-.02.64v.493Zm-.508-.342V-4.37H13.091v1.079Zm.82.693a1.931,1.931,0,0,0-.059.337.367.367,0,0,1-.049.19A.433.433,0,0,1,14.932-2q-.981.293-2.1.518a1.593,1.593,0,0,0-.41.132.26.26,0,0,1-.122.059q-.059,0-.1-.1a4.529,4.529,0,0,1-.151-.537,4.46,4.46,0,0,0,.889-.1A13.939,13.939,0,0,0,15.2-2.6Zm2.383-3.765a.106.106,0,0,1,.024.054q0,.02-.059.078l-.176.161a.283.283,0,0,1-.107.063q-.015,0-.054-.044a4.364,4.364,0,0,0-.649-.649q-.039-.029-.039-.044t.078-.078l.181-.137A.137.137,0,0,1,16.86-7a.112.112,0,0,1,.059.034A5.943,5.943,0,0,1,17.583-6.362ZM18.989.664q0,.078-.088.078h-.454a.069.069,0,0,1-.078-.078V.122H11.631V.664a.069.069,0,0,1-.078.078h-.464a.069.069,0,0,1-.078-.078l.02-3.745v-2l-.02-2.671a.069.069,0,0,1,.078-.078l1.392.02H17.52l1.382-.02q.088,0,.088.078l-.02,2.373v2.295ZM18.369-.41V-7.266H11.631V-.41Z" transform="translate(26 43.845)" fill="#efefef"/>
          <path id="Path_1706" data-name="Path 1706" d="M9.458.059a1.222,1.222,0,0,0-.278.42Q9.1.659,9.019.659A.516.516,0,0,1,8.877.63,7.367,7.367,0,0,1,6.45-.4,5.169,5.169,0,0,1,4.839-2.07a4.057,4.057,0,0,1-.41.771A5.473,5.473,0,0,1,1.187.63q-.117.02-.137.02Q.967.649.889.488A1.738,1.738,0,0,0,.61.132,5.211,5.211,0,0,0,3.979-1.68,2.658,2.658,0,0,0,4.3-2.31H2.09L.757-2.29a.069.069,0,0,1-.078-.078v-.425a.069.069,0,0,1,.078-.078l1.191.02V-4.238l-.02-.854a.069.069,0,0,1,.078-.078l1.411.02H4.639A6.649,6.649,0,0,0,4.58-6.2q.234.01.615.049.142.015.142.1a1.02,1.02,0,0,1-.049.171,3.178,3.178,0,0,0-.059.728H6.5l1.4-.02a.069.069,0,0,1,.078.078l-.02.854v1.387l1.25-.02a.069.069,0,0,1,.078.078v.425a.069.069,0,0,1-.078.078L7.881-2.31H5.308A5.832,5.832,0,0,0,9.458.059Zm-2.1-2.91V-4.619H5.22a11.562,11.562,0,0,1-.161,1.768ZM4.629-4.619H2.539v1.768H4.468A9.252,9.252,0,0,0,4.629-4.619ZM9.321-6.738q0,.078-.083.078l-1.3-.02H6.563l.02.811q0,.078-.083.078H6.06a.069.069,0,0,1-.078-.078L6-6.68H3.9l.02.811a.069.069,0,0,1-.078.078H3.389q-.068,0-.068-.078l.02-.811H2L.7-6.66A.069.069,0,0,1,.62-6.738v-.435A.069.069,0,0,1,.7-7.251l1.3.02H3.34a5.06,5.06,0,0,0-.068-1.05q.308.015.63.049.107.02.107.093a.316.316,0,0,1-.049.127,2.77,2.77,0,0,0-.059.781H6a5.132,5.132,0,0,0-.068-1.06,4.878,4.878,0,0,1,.625.059q.112.02.112.093a.241.241,0,0,1-.049.127,2.4,2.4,0,0,0-.059.732v.049H7.939l1.3-.02q.083,0,.083.078Zm8.828,4.971a1.581,1.581,0,0,1-.342.747.607.607,0,0,1-.449.171q-.625,0-1.128-1.177A6.834,6.834,0,0,1,14.673-.815a.8.8,0,0,1-.142.068q-.059,0-.161-.132a1.223,1.223,0,0,0-.269-.259A5.627,5.627,0,0,0,16.03-2.559L16-2.646a13.367,13.367,0,0,1-.459-2.773H13.579l-1.367.02q-.093,0-.093-.078V-5.84q0-.078.093-.078l1.367.02h1.934a2.67,2.67,0,0,1-.01-.269A6.526,6.526,0,0,0,15.42-7a2.819,2.819,0,0,1,.542.049q.161.029.161.107a.376.376,0,0,1-.049.151.707.707,0,0,0-.034.278V-5.9h.449l1.382-.02a.069.069,0,0,1,.078.078v.361a.069.069,0,0,1-.078.078l-1.382-.02h-.42A14.951,14.951,0,0,0,16.421-3.1a4.839,4.839,0,0,0,.43-.874,3.356,3.356,0,0,0,.229-.786,2.507,2.507,0,0,1,.488.21q.1.049.1.127,0,.039-.112.151a2.288,2.288,0,0,0-.229.459A8.086,8.086,0,0,1,16.6-2.5a3.686,3.686,0,0,0,.43.845q.2.273.327.273.308,0,.4-.937a1.146,1.146,0,0,0,.293.264q.127.078.127.142A.771.771,0,0,1,18.149-1.768ZM14.888-2.949a.069.069,0,0,1-.078.078l-.747-.02h-.64l-.762.02a.069.069,0,0,1-.078-.078l.02-.63v-.493l-.02-.64a.069.069,0,0,1,.078-.078l.762.02h.64l.747-.02a.069.069,0,0,1,.078.078l-.02.64v.493Zm-.508-.342V-4.37H13.091v1.079Zm.82.693a1.931,1.931,0,0,0-.059.337.367.367,0,0,1-.049.19A.433.433,0,0,1,14.932-2q-.981.293-2.1.518a1.593,1.593,0,0,0-.41.132.26.26,0,0,1-.122.059q-.059,0-.1-.1a4.529,4.529,0,0,1-.151-.537,4.46,4.46,0,0,0,.889-.1A13.939,13.939,0,0,0,15.2-2.6Zm2.383-3.765a.106.106,0,0,1,.024.054q0,.02-.059.078l-.176.161a.283.283,0,0,1-.107.063q-.015,0-.054-.044a4.364,4.364,0,0,0-.649-.649q-.039-.029-.039-.044t.078-.078l.181-.137A.137.137,0,0,1,16.86-7a.112.112,0,0,1,.059.034A5.943,5.943,0,0,1,17.583-6.362ZM18.989.664q0,.078-.088.078h-.454a.069.069,0,0,1-.078-.078V.122H11.631V.664a.069.069,0,0,1-.078.078h-.464a.069.069,0,0,1-.078-.078l.02-3.745v-2l-.02-2.671a.069.069,0,0,1,.078-.078l1.392.02H17.52l1.382-.02q.088,0,.088.078l-.02,2.373v2.295ZM18.369-.41V-7.266H11.631V-.41Z" transform="translate(26 26.923)" fill="#efefef"/>
          <path id="Path_1705" data-name="Path 1705" d="M9.6-4.438a.069.069,0,0,1-.078.078L8.311-4.38H8.262V-.85L8.281.64A.069.069,0,0,1,8.2.718H7.71A.069.069,0,0,1,7.632.64L7.651-.85V-4.38H6.162a12.69,12.69,0,0,1-.249,2.93A5.1,5.1,0,0,1,4.893.527Q4.81.64,4.751.64A.231.231,0,0,1,4.619.562,1.047,1.047,0,0,0,4.243.332a4.571,4.571,0,0,0,1.138-2.1,13.673,13.673,0,0,0,.2-2.812v-1.23a12.665,12.665,0,0,0-.068-1.411,3.412,3.412,0,0,1,.649.2A9.224,9.224,0,0,0,8.149-7.8a2.439,2.439,0,0,0,.5-.361,3.078,3.078,0,0,1,.439.454.225.225,0,0,1,.059.137q0,.073-.132.093a1.123,1.123,0,0,0-.366.117,12.975,12.975,0,0,1-2.49.9v1.538H8.311l1.211-.02a.069.069,0,0,1,.078.078ZM4.951-2.769q0,.078-.083.078L3.662-2.71H3.35a3.554,3.554,0,0,0,.688.752,6.347,6.347,0,0,0,.791.527,1.106,1.106,0,0,0-.239.352q-.059.117-.088.117T4.36-1.05A4.528,4.528,0,0,1,3.14-2.388q.01.942.044,2.031.024.791.024.947,0,.078-.088.078H2.671q-.083,0-.083-.078,0-.22.02-1.1.029-1.035.044-1.763A6.362,6.362,0,0,1,.947-.21.348.348,0,0,1,.8-.132q-.039,0-.1-.117A1.09,1.09,0,0,0,.43-.62a6.22,6.22,0,0,0,2-2.09H1.919L.7-2.69A.069.069,0,0,1,.62-2.769v-.4q0-.083.078-.083l1.221.02h.7v-.02a4.726,4.726,0,0,0-.063-.937q.312.015.61.049.1.02.1.083a.315.315,0,0,1-.039.137,2.3,2.3,0,0,0-.054.669v.02h.483l1.206-.02a.073.073,0,0,1,.083.083Zm.171-1.68q0,.078-.083.078L3.8-4.39H1.87L.63-4.37a.069.069,0,0,1-.078-.078v-.415A.069.069,0,0,1,.63-4.941l1.24.02H3.188A8.122,8.122,0,0,0,3.647-6.06a1.8,1.8,0,0,0,.093-.435q.337.078.537.142.122.039.122.122a.187.187,0,0,1-.068.117.723.723,0,0,0-.151.229,10.425,10.425,0,0,1-.439.962H3.8l1.24-.02q.083,0,.083.078ZM4.961-6.807q0,.078-.083.078l-1.187-.02H2.031L.84-6.729a.069.069,0,0,1-.078-.078V-7.2q0-.083.078-.083l1.191.024h.576v-.312a2.908,2.908,0,0,0-.068-.718,5.873,5.873,0,0,1,.649.049q.132.015.132.078a.45.45,0,0,1-.059.181.979.979,0,0,0-.054.41v.313h.483L4.878-7.28a.073.073,0,0,1,.083.083ZM2.4-5.42a.161.161,0,0,1,.01.049q0,.054-.1.093l-.249.1a.5.5,0,0,1-.112.024q-.054,0-.068-.078a4.914,4.914,0,0,0-.381-1,.15.15,0,0,1-.02-.059q0-.039.122-.083l.229-.083a.191.191,0,0,1,.063-.015q.039,0,.073.059A4.225,4.225,0,0,1,2.4-5.42ZM19.131.171a.069.069,0,0,1-.078.078h-.474q-.068,0-.068-.078V-.571H16.44V.239a.069.069,0,0,1-.078.078h-.444q-.088,0-.088-.078L15.85-2.8V-4.57l-.02-2.3q0-.078.088-.078l1.011.02h1.113l1.011-.02a.069.069,0,0,1,.078.078l-.02,2.051v1.978Zm-.62-1.284V-6.387H16.44v5.273Zm-3.569-5q-.02.3-.02.884a32.054,32.054,0,0,1-.293,4.448Q14.463.278,13.55.278q-.347,0-.669-.029Q12.739.234,12.715.2A.555.555,0,0,1,12.681.02a1.2,1.2,0,0,0-.127-.439,5.235,5.235,0,0,0,.947.088A.429.429,0,0,0,13.882-.5a1.326,1.326,0,0,0,.171-.547,31.593,31.593,0,0,0,.269-4.58H12.9a15.777,15.777,0,0,1-.381,2.778,8.437,8.437,0,0,1-.6,1.738A6.63,6.63,0,0,1,11.011.269q-.093.112-.132.112t-.117-.1a1.778,1.778,0,0,0-.4-.366,6.021,6.021,0,0,0,1.06-1.475,7.436,7.436,0,0,0,.532-1.519A12.649,12.649,0,0,0,12.29-5.63h-.337l-1.191.02a.069.069,0,0,1-.078-.078v-.43q0-.083.078-.083l1.191.02h.366q.01-.3.01-.918a9.554,9.554,0,0,0-.068-1.23q.366.015.688.059.112.015.112.1a1.144,1.144,0,0,1-.059.22,4.118,4.118,0,0,0-.063.918q0,.293-.02.85h.732l1.2-.02A.078.078,0,0,1,14.941-6.113ZM29.648.088a1.349,1.349,0,0,0-.269.366q-.083.161-.151.161a.346.346,0,0,1-.142-.039A7.917,7.917,0,0,1,26.68-.962,7.271,7.271,0,0,1,24.336.576a.413.413,0,0,1-.151.039q-.049,0-.146-.142a1.431,1.431,0,0,0-.283-.3,7.172,7.172,0,0,0,2.524-1.558A7.72,7.72,0,0,1,24.907-3.8h-.439a13.647,13.647,0,0,1-.151,1.431A5.735,5.735,0,0,1,23.066.405q-.1.122-.142.122T22.8.43a1.048,1.048,0,0,0-.371-.244A4.755,4.755,0,0,0,23.755-2.5a17.508,17.508,0,0,0,.181-2.734l-.02-1.514a.069.069,0,0,1,.078-.078l1.372.02h.811v-.122a8.63,8.63,0,0,0-.068-1.328q.3.015.64.049.122.015.122.093a1.3,1.3,0,0,1-.073.21,5.73,5.73,0,0,0-.039.977v.122h1.89a.693.693,0,0,0,.2-.029.5.5,0,0,1,.112-.029.476.476,0,0,1,.269.161q.181.166.181.249a.175.175,0,0,1-.078.132.781.781,0,0,0-.161.239,7.972,7.972,0,0,1-.6,1.006q-.1.132-.151.132a.848.848,0,0,1-.161-.068.989.989,0,0,0-.327-.142,4.723,4.723,0,0,0,.688-1.118h-1.86v1.968h1.128a.655.655,0,0,0,.234-.039.271.271,0,0,1,.088-.02q.093,0,.269.19t.181.269a.169.169,0,0,1-.078.117.661.661,0,0,0-.181.264,8.942,8.942,0,0,1-1.333,2.139A7.359,7.359,0,0,0,29.648.088Zm-3.472-4.4V-6.279h-1.66v1.108q0,.239-.02.859Zm1.709.508H25.479A6.613,6.613,0,0,0,26.67-1.792,7.579,7.579,0,0,0,27.886-3.8ZM23.467-5.166a.069.069,0,0,1-.078.078l-.918-.02h-.1V-2.2a9.045,9.045,0,0,0,1.069-.493,1.029,1.029,0,0,0-.034.269q0,.049,0,.1t0,.088a.2.2,0,0,1-.029.125.539.539,0,0,1-.151.1,20.471,20.471,0,0,1-1.953.811,1.042,1.042,0,0,0-.342.171.193.193,0,0,1-.132.068q-.073,0-.107-.1a5.83,5.83,0,0,1-.19-.557,4.213,4.213,0,0,0,.811-.2q.068-.02.469-.161v-3.13h-.229l-.923.02a.069.069,0,0,1-.078-.078v-.42q0-.083.078-.083l.923.02h.229V-6.826A10.052,10.052,0,0,0,21.719-8.2q.337.015.649.059.112.02.112.083a.265.265,0,0,1-.02.083q-.024.063-.034.1a5.475,5.475,0,0,0-.059,1.03v1.2h.1l.918-.02q.078,0,.078.083Z" transform="translate(16 10)" fill="#efefef"/>
        </g>
      </g>
      <line id="Line_503" data-name="Line 503" y2="194.983" transform="translate(228.307)" fill="none" stroke="#707070" stroke-width="1" stroke-dasharray="1"/>
    </g>
    <path id="p" d="M2.349,10.117a2.142,2.142,0,0,0,2.16-2.268,1.883,1.883,0,0,0-1.989-2.1,1.918,1.918,0,0,0-.981.261L1.7,4.1H4.194V3.394H.981L.774,6.49l.441.27a1.8,1.8,0,0,1,1.1-.387,1.335,1.335,0,0,1,1.368,1.5,1.426,1.426,0,0,1-1.4,1.557A2.17,2.17,0,0,1,.657,8.7l-.405.54A2.8,2.8,0,0,0,2.349,10.117ZM6.777,10h.855c.1-2.583.387-4.122,1.935-6.1v-.5H5.436V4.1h3.2A9.77,9.77,0,0,0,6.777,10Zm5.058-2.556c.909,0,1.5-.765,1.5-2.1s-.594-2.07-1.5-2.07-1.494.747-1.494,2.07S10.935,7.444,11.835,7.444Zm0-.513c-.513,0-.873-.531-.873-1.584s.36-1.566.873-1.566.882.513.882,1.566S12.357,6.931,11.835,6.931Zm.2,3.186h.549l3.645-6.84h-.558Zm4.4,0c.9,0,1.494-.756,1.494-2.088s-.594-2.07-1.494-2.07-1.5.747-1.5,2.07S15.534,10.117,16.434,10.117Zm0-.5c-.522,0-.873-.531-.873-1.584s.351-1.566.873-1.566.873.513.873,1.566S16.947,9.613,16.434,9.613Z" transform="translate(-8613 -12800)" fill="#fff"/>
  </g>
</svg>
