<svg xmlns="http://www.w3.org/2000/svg" width="367.929" height="266.344" viewBox="0 0 367.929 266.344">
  <g id="data11" transform="translate(8230.668 11479.344)">
    <g id="Group_1923" data-name="Group 1923" transform="translate(-8457 -11777)">
      <g id="data_11-10" transform="translate(209.89 229.331)">
        <g id="Group_1759" data-name="Group 1759" transform="translate(-1.89 67.669)">
          <g id="Group_1755" data-name="Group 1755" transform="translate(0 0)">
            <g id="Group_1752" data-name="Group 1752">
              <path id="Path_1639" data-name="Path 1639" d="M.457-3.883A7.205,7.205,0,0,1,.744-6.131,2.8,2.8,0,0,1,1.6-7.444a2.183,2.183,0,0,1,1.426-.462,2.327,2.327,0,0,1,1.112.255,2.125,2.125,0,0,1,.79.736,3.948,3.948,0,0,1,.489,1.171,7.779,7.779,0,0,1,.177,1.861,7.226,7.226,0,0,1-.285,2.237A2.8,2.8,0,0,1,4.455-.33,2.183,2.183,0,0,1,3.024.134,2.161,2.161,0,0,1,1.235-.682,5.189,5.189,0,0,1,.457-3.883Zm.994,0A4.937,4.937,0,0,0,1.9-1.3a1.337,1.337,0,0,0,1.12.642,1.336,1.336,0,0,0,1.12-.645A4.939,4.939,0,0,0,4.6-3.883a4.936,4.936,0,0,0-.454-2.583,1.347,1.347,0,0,0-1.131-.639,1.239,1.239,0,0,0-1.063.564A4.994,4.994,0,0,0,1.45-3.883Z" transform="translate(35.985 195.898)" fill="#fff"/>
              <path id="Path_1638" data-name="Path 1638" d="M.457-2.062l1.015-.086A1.82,1.82,0,0,0,2-1.034a1.422,1.422,0,0,0,.991.373,1.543,1.543,0,0,0,1.182-.526,1.984,1.984,0,0,0,.483-1.4,1.793,1.793,0,0,0-.465-1.305A1.62,1.62,0,0,0,2.97-4.367a1.686,1.686,0,0,0-.843.212,1.637,1.637,0,0,0-.591.551L.628-3.722l.763-4.044H5.307v.924H2.165L1.74-4.727a2.562,2.562,0,0,1,1.488-.494,2.357,2.357,0,0,1,1.74.714,2.5,2.5,0,0,1,.709,1.837A2.867,2.867,0,0,1,5.054-.822,2.5,2.5,0,0,1,2.986.134a2.547,2.547,0,0,1-1.754-.6A2.348,2.348,0,0,1,.457-2.062ZM15.764-.231a.806.806,0,0,1-.252.693.936.936,0,0,1-.392.15,5.836,5.836,0,0,1-.795.038.28.28,0,0,1-.172-.032A.427.427,0,0,1,14.072.44a1.959,1.959,0,0,0-.2-.43,7.793,7.793,0,0,0,.816.043.479.479,0,0,0,.338-.091.4.4,0,0,0,.086-.29v-2H11.827v1.155q.833-.1,1.45-.2-.274-.4-.306-.44a.147.147,0,0,1-.038-.07q0-.038.1-.081l.231-.1a.345.345,0,0,1,.091-.027q.032,0,.075.059A8.351,8.351,0,0,1,14.314-.6a.264.264,0,0,1,.016.064q0,.043-.1.091l-.247.124a.338.338,0,0,1-.118.043q-.038,0-.064-.064-.209-.462-.263-.575-1.6.279-3.813.494a1.386,1.386,0,0,0-.473.1.261.261,0,0,1-.129.064Q9.045-.252,9-.4q-.064-.231-.14-.612Q9.093-1,9.292-1q.376,0,.763-.027,1.01-.075,1.176-.091V-2.331H8.121V-.387L8.143.661a.076.076,0,0,1-.086.086h-.51A.076.076,0,0,1,7.46.661L7.482-.387v-1.4L7.46-2.8a.076.076,0,0,1,.086-.086L9.1-2.868h2.132v-.795H10.022l-1.509.021a.076.076,0,0,1-.086-.086l.021-.924V-5.763l-.021-.924a.076.076,0,0,1,.086-.086l1.509.021h3.169l1.52-.021a.076.076,0,0,1,.086.086l-.021.924v1.112l.021.924a.076.076,0,0,1-.086.086l-1.52-.021H11.827v.795h2.3l1.552-.021a.076.076,0,0,1,.086.086l-.021,1.08v.451ZM14.158-4.146v-.859H11.827v.859Zm-2.927,0v-.859H9.066v.859Zm2.927-1.332v-.79H11.827v.79Zm-2.927,0v-.79H9.066v.79Zm5.183-2.256q0,.086-.091.086L14.883-7.67H13.444l.021.5q0,.091-.086.091H12.9q-.1,0-.1-.091,0-.016.011-.172t.011-.333H10.286l.021.5q0,.091-.086.091H9.738a.081.081,0,0,1-.091-.091q0-.016.011-.172t.011-.333H8.363l-1.445.021a.076.076,0,0,1-.086-.086v-.44q0-.075.086-.075l1.445.021H9.668a4.812,4.812,0,0,0-.064-.9q.333.016.682.059.113.016.113.1a.292.292,0,0,1-.043.145,1.571,1.571,0,0,0-.07.6h2.541a4.736,4.736,0,0,0-.064-.892q.36.021.671.059.118.016.118.1a.292.292,0,0,1-.043.145,1.646,1.646,0,0,0-.064.591h1.439l1.439-.021q.091,0,.091.075Z" transform="translate(25.197 164.915)" fill="#fff"/>
              <path id="Path_1637" data-name="Path 1637" d="M4.1,0H3.131V-6.161a5,5,0,0,1-.916.666A6.492,6.492,0,0,1,1.2-5V-5.93a5.839,5.839,0,0,0,1.418-.924,3.634,3.634,0,0,0,.859-1.053H4.1ZM6.574-3.883a7.205,7.205,0,0,1,.287-2.248,2.8,2.8,0,0,1,.854-1.313,2.183,2.183,0,0,1,1.426-.462,2.327,2.327,0,0,1,1.112.255,2.125,2.125,0,0,1,.79.736,3.948,3.948,0,0,1,.489,1.171,7.779,7.779,0,0,1,.177,1.861,7.226,7.226,0,0,1-.285,2.237A2.8,2.8,0,0,1,10.573-.33,2.183,2.183,0,0,1,9.142.134,2.161,2.161,0,0,1,7.353-.682,5.189,5.189,0,0,1,6.574-3.883Zm.994,0A4.937,4.937,0,0,0,8.022-1.3a1.337,1.337,0,0,0,1.12.642,1.336,1.336,0,0,0,1.12-.645,4.939,4.939,0,0,0,.454-2.578,4.936,4.936,0,0,0-.454-2.583,1.347,1.347,0,0,0-1.131-.639,1.239,1.239,0,0,0-1.063.564A4.994,4.994,0,0,0,7.568-3.883ZM21.882-.231a.806.806,0,0,1-.252.693.936.936,0,0,1-.392.15,5.836,5.836,0,0,1-.795.038.28.28,0,0,1-.172-.032A.427.427,0,0,1,20.19.44a1.959,1.959,0,0,0-.2-.43,7.793,7.793,0,0,0,.816.043.479.479,0,0,0,.338-.091.4.4,0,0,0,.086-.29v-2H17.945v1.155q.833-.1,1.45-.2-.274-.4-.306-.44a.147.147,0,0,1-.038-.07q0-.038.1-.081l.231-.1a.345.345,0,0,1,.091-.027q.032,0,.075.059A8.351,8.351,0,0,1,20.432-.6a.264.264,0,0,1,.016.064q0,.043-.1.091L20.1-.317a.338.338,0,0,1-.118.043q-.038,0-.064-.064-.209-.462-.263-.575-1.6.279-3.813.494a1.386,1.386,0,0,0-.473.1.261.261,0,0,1-.129.064q-.075,0-.124-.145-.064-.231-.14-.612Q15.211-1,15.41-1q.376,0,.763-.027,1.01-.075,1.176-.091V-2.331h-3.11V-.387L14.26.661a.076.076,0,0,1-.086.086h-.51a.076.076,0,0,1-.086-.086L13.6-.387v-1.4L13.578-2.8a.076.076,0,0,1,.086-.086l1.552.021h2.132v-.795H16.14l-1.509.021a.076.076,0,0,1-.086-.086l.021-.924V-5.763l-.021-.924a.076.076,0,0,1,.086-.086l1.509.021h3.169l1.52-.021a.076.076,0,0,1,.086.086l-.021.924v1.112l.021.924a.076.076,0,0,1-.086.086l-1.52-.021H17.945v.795h2.3L21.8-2.89a.076.076,0,0,1,.086.086l-.021,1.08v.451ZM20.276-4.146v-.859H17.945v.859Zm-2.927,0v-.859H15.184v.859Zm2.927-1.332v-.79H17.945v.79Zm-2.927,0v-.79H15.184v.79Zm5.183-2.256q0,.086-.091.086L21-7.67H19.562l.021.5q0,.091-.086.091h-.478q-.1,0-.1-.091,0-.016.011-.172t.011-.333H16.4l.021.5q0,.091-.086.091h-.483a.081.081,0,0,1-.091-.091q0-.016.011-.172t.011-.333H14.48l-1.445.021a.076.076,0,0,1-.086-.086v-.44q0-.075.086-.075l1.445.021h1.305a4.812,4.812,0,0,0-.064-.9q.333.016.682.059.113.016.113.1a.292.292,0,0,1-.043.145,1.571,1.571,0,0,0-.07.6h2.541a4.736,4.736,0,0,0-.064-.892q.36.021.671.059.118.016.118.1a.292.292,0,0,1-.043.145,1.646,1.646,0,0,0-.064.591H21L22.44-8.25q.091,0,.091.075Z" transform="translate(18 133.932)" fill="#fff"/>
              <path id="Path_1636" data-name="Path 1636" d="M4.1,0H3.131V-6.161a5,5,0,0,1-.916.666A6.492,6.492,0,0,1,1.2-5V-5.93a5.839,5.839,0,0,0,1.418-.924,3.634,3.634,0,0,0,.859-1.053H4.1ZM6.574-2.062l1.015-.086a1.82,1.82,0,0,0,.524,1.115A1.422,1.422,0,0,0,9.1-.661a1.543,1.543,0,0,0,1.182-.526,1.984,1.984,0,0,0,.483-1.4A1.793,1.793,0,0,0,10.3-3.889a1.62,1.62,0,0,0-1.217-.478,1.686,1.686,0,0,0-.843.212,1.637,1.637,0,0,0-.591.551l-.908-.118.763-4.044h3.916v.924H8.282L7.858-4.727a2.562,2.562,0,0,1,1.488-.494,2.357,2.357,0,0,1,1.74.714,2.5,2.5,0,0,1,.709,1.837,2.867,2.867,0,0,1-.623,1.848A2.5,2.5,0,0,1,9.1.134a2.547,2.547,0,0,1-1.754-.6A2.348,2.348,0,0,1,6.574-2.062ZM21.882-.231a.806.806,0,0,1-.252.693.936.936,0,0,1-.392.15,5.836,5.836,0,0,1-.795.038.28.28,0,0,1-.172-.032A.427.427,0,0,1,20.19.44a1.959,1.959,0,0,0-.2-.43,7.793,7.793,0,0,0,.816.043.479.479,0,0,0,.338-.091.4.4,0,0,0,.086-.29v-2H17.945v1.155q.833-.1,1.45-.2-.274-.4-.306-.44a.147.147,0,0,1-.038-.07q0-.038.1-.081l.231-.1a.345.345,0,0,1,.091-.027q.032,0,.075.059A8.351,8.351,0,0,1,20.432-.6a.264.264,0,0,1,.016.064q0,.043-.1.091L20.1-.317a.338.338,0,0,1-.118.043q-.038,0-.064-.064-.209-.462-.263-.575-1.6.279-3.813.494a1.386,1.386,0,0,0-.473.1.261.261,0,0,1-.129.064q-.075,0-.124-.145-.064-.231-.14-.612Q15.211-1,15.41-1q.376,0,.763-.027,1.01-.075,1.176-.091V-2.331h-3.11V-.387L14.26.661a.076.076,0,0,1-.086.086h-.51a.076.076,0,0,1-.086-.086L13.6-.387v-1.4L13.578-2.8a.076.076,0,0,1,.086-.086l1.552.021h2.132v-.795H16.14l-1.509.021a.076.076,0,0,1-.086-.086l.021-.924V-5.763l-.021-.924a.076.076,0,0,1,.086-.086l1.509.021h3.169l1.52-.021a.076.076,0,0,1,.086.086l-.021.924v1.112l.021.924a.076.076,0,0,1-.086.086l-1.52-.021H17.945v.795h2.3L21.8-2.89a.076.076,0,0,1,.086.086l-.021,1.08v.451ZM20.276-4.146v-.859H17.945v.859Zm-2.927,0v-.859H15.184v.859Zm2.927-1.332v-.79H17.945v.79Zm-2.927,0v-.79H15.184v.79Zm5.183-2.256q0,.086-.091.086L21-7.67H19.562l.021.5q0,.091-.086.091h-.478q-.1,0-.1-.091,0-.016.011-.172t.011-.333H16.4l.021.5q0,.091-.086.091h-.483a.081.081,0,0,1-.091-.091q0-.016.011-.172t.011-.333H14.48l-1.445.021a.076.076,0,0,1-.086-.086v-.44q0-.075.086-.075l1.445.021h1.305a4.812,4.812,0,0,0-.064-.9q.333.016.682.059.113.016.113.1a.292.292,0,0,1-.043.145,1.571,1.571,0,0,0-.07.6h2.541a4.736,4.736,0,0,0-.064-.892q.36.021.671.059.118.016.118.1a.292.292,0,0,1-.043.145,1.646,1.646,0,0,0-.064.591H21L22.44-8.25q.091,0,.091.075Z" transform="translate(18 102.948)" fill="#fff"/>
              <path id="Path_1635" data-name="Path 1635" d="M5.538-.929V0H.333A1.71,1.71,0,0,1,.446-.671a3.552,3.552,0,0,1,.636-1.047A9.972,9.972,0,0,1,2.347-2.911,10.723,10.723,0,0,0,4.082-4.579a2,2,0,0,0,.451-1.163,1.292,1.292,0,0,0-.411-.969,1.482,1.482,0,0,0-1.072-.395,1.51,1.51,0,0,0-1.117.419,1.585,1.585,0,0,0-.424,1.16l-.994-.1a2.446,2.446,0,0,1,.768-1.695,2.62,2.62,0,0,1,1.789-.583,2.5,2.5,0,0,1,1.794.628A2.063,2.063,0,0,1,5.527-5.72a2.362,2.362,0,0,1-.193.929,3.606,3.606,0,0,1-.642.961A15.636,15.636,0,0,1,3.2-2.444q-.87.73-1.117.991a3.179,3.179,0,0,0-.408.524ZM6.574-3.883a7.205,7.205,0,0,1,.287-2.248,2.8,2.8,0,0,1,.854-1.313,2.183,2.183,0,0,1,1.426-.462,2.327,2.327,0,0,1,1.112.255,2.125,2.125,0,0,1,.79.736,3.948,3.948,0,0,1,.489,1.171,7.779,7.779,0,0,1,.177,1.861,7.226,7.226,0,0,1-.285,2.237A2.8,2.8,0,0,1,10.573-.33,2.183,2.183,0,0,1,9.142.134,2.161,2.161,0,0,1,7.353-.682,5.189,5.189,0,0,1,6.574-3.883Zm.994,0A4.937,4.937,0,0,0,8.022-1.3a1.337,1.337,0,0,0,1.12.642,1.336,1.336,0,0,0,1.12-.645,4.939,4.939,0,0,0,.454-2.578,4.936,4.936,0,0,0-.454-2.583,1.347,1.347,0,0,0-1.131-.639,1.239,1.239,0,0,0-1.063.564A4.994,4.994,0,0,0,7.568-3.883ZM21.882-.231a.806.806,0,0,1-.252.693.936.936,0,0,1-.392.15,5.836,5.836,0,0,1-.795.038.28.28,0,0,1-.172-.032A.427.427,0,0,1,20.19.44a1.959,1.959,0,0,0-.2-.43,7.793,7.793,0,0,0,.816.043.479.479,0,0,0,.338-.091.4.4,0,0,0,.086-.29v-2H17.945v1.155q.833-.1,1.45-.2-.274-.4-.306-.44a.147.147,0,0,1-.038-.07q0-.038.1-.081l.231-.1a.345.345,0,0,1,.091-.027q.032,0,.075.059A8.351,8.351,0,0,1,20.432-.6a.264.264,0,0,1,.016.064q0,.043-.1.091L20.1-.317a.338.338,0,0,1-.118.043q-.038,0-.064-.064-.209-.462-.263-.575-1.6.279-3.813.494a1.386,1.386,0,0,0-.473.1.261.261,0,0,1-.129.064q-.075,0-.124-.145-.064-.231-.14-.612Q15.211-1,15.41-1q.376,0,.763-.027,1.01-.075,1.176-.091V-2.331h-3.11V-.387L14.26.661a.076.076,0,0,1-.086.086h-.51a.076.076,0,0,1-.086-.086L13.6-.387v-1.4L13.578-2.8a.076.076,0,0,1,.086-.086l1.552.021h2.132v-.795H16.14l-1.509.021a.076.076,0,0,1-.086-.086l.021-.924V-5.763l-.021-.924a.076.076,0,0,1,.086-.086l1.509.021h3.169l1.52-.021a.076.076,0,0,1,.086.086l-.021.924v1.112l.021.924a.076.076,0,0,1-.086.086l-1.52-.021H17.945v.795h2.3L21.8-2.89a.076.076,0,0,1,.086.086l-.021,1.08v.451ZM20.276-4.146v-.859H17.945v.859Zm-2.927,0v-.859H15.184v.859Zm2.927-1.332v-.79H17.945v.79Zm-2.927,0v-.79H15.184v.79Zm5.183-2.256q0,.086-.091.086L21-7.67H19.562l.021.5q0,.091-.086.091h-.478q-.1,0-.1-.091,0-.016.011-.172t.011-.333H16.4l.021.5q0,.091-.086.091h-.483a.081.081,0,0,1-.091-.091q0-.016.011-.172t.011-.333H14.48l-1.445.021a.076.076,0,0,1-.086-.086v-.44q0-.075.086-.075l1.445.021h1.305a4.812,4.812,0,0,0-.064-.9q.333.016.682.059.113.016.113.1a.292.292,0,0,1-.043.145,1.571,1.571,0,0,0-.07.6h2.541a4.736,4.736,0,0,0-.064-.892q.36.021.671.059.118.016.118.1a.292.292,0,0,1-.043.145,1.646,1.646,0,0,0-.064.591H21L22.44-8.25q.091,0,.091.075Z" transform="translate(18 72)" fill="#fff"/>
              <path id="Path_1634" data-name="Path 1634" d="M5.538-.929V0H.333A1.71,1.71,0,0,1,.446-.671a3.552,3.552,0,0,1,.636-1.047A9.972,9.972,0,0,1,2.347-2.911,10.723,10.723,0,0,0,4.082-4.579a2,2,0,0,0,.451-1.163,1.292,1.292,0,0,0-.411-.969,1.482,1.482,0,0,0-1.072-.395,1.51,1.51,0,0,0-1.117.419,1.585,1.585,0,0,0-.424,1.16l-.994-.1a2.446,2.446,0,0,1,.768-1.695,2.62,2.62,0,0,1,1.789-.583,2.5,2.5,0,0,1,1.794.628A2.063,2.063,0,0,1,5.527-5.72a2.362,2.362,0,0,1-.193.929,3.606,3.606,0,0,1-.642.961A15.636,15.636,0,0,1,3.2-2.444q-.87.73-1.117.991a3.179,3.179,0,0,0-.408.524ZM6.574-2.062l1.015-.086a1.82,1.82,0,0,0,.524,1.115A1.422,1.422,0,0,0,9.1-.661a1.543,1.543,0,0,0,1.182-.526,1.984,1.984,0,0,0,.483-1.4A1.793,1.793,0,0,0,10.3-3.889a1.62,1.62,0,0,0-1.217-.478,1.686,1.686,0,0,0-.843.212,1.637,1.637,0,0,0-.591.551l-.908-.118.763-4.044h3.916v.924H8.282L7.858-4.727a2.562,2.562,0,0,1,1.488-.494,2.357,2.357,0,0,1,1.74.714,2.5,2.5,0,0,1,.709,1.837,2.867,2.867,0,0,1-.623,1.848A2.5,2.5,0,0,1,9.1.134a2.547,2.547,0,0,1-1.754-.6A2.348,2.348,0,0,1,6.574-2.062ZM21.882-.231a.806.806,0,0,1-.252.693.936.936,0,0,1-.392.15,5.836,5.836,0,0,1-.795.038.28.28,0,0,1-.172-.032A.427.427,0,0,1,20.19.44a1.959,1.959,0,0,0-.2-.43,7.793,7.793,0,0,0,.816.043.479.479,0,0,0,.338-.091.4.4,0,0,0,.086-.29v-2H17.945v1.155q.833-.1,1.45-.2-.274-.4-.306-.44a.147.147,0,0,1-.038-.07q0-.038.1-.081l.231-.1a.345.345,0,0,1,.091-.027q.032,0,.075.059A8.351,8.351,0,0,1,20.432-.6a.264.264,0,0,1,.016.064q0,.043-.1.091L20.1-.317a.338.338,0,0,1-.118.043q-.038,0-.064-.064-.209-.462-.263-.575-1.6.279-3.813.494a1.386,1.386,0,0,0-.473.1.261.261,0,0,1-.129.064q-.075,0-.124-.145-.064-.231-.14-.612Q15.211-1,15.41-1q.376,0,.763-.027,1.01-.075,1.176-.091V-2.331h-3.11V-.387L14.26.661a.076.076,0,0,1-.086.086h-.51a.076.076,0,0,1-.086-.086L13.6-.387v-1.4L13.578-2.8a.076.076,0,0,1,.086-.086l1.552.021h2.132v-.795H16.14l-1.509.021a.076.076,0,0,1-.086-.086l.021-.924V-5.763l-.021-.924a.076.076,0,0,1,.086-.086l1.509.021h3.169l1.52-.021a.076.076,0,0,1,.086.086l-.021.924v1.112l.021.924a.076.076,0,0,1-.086.086l-1.52-.021H17.945v.795h2.3L21.8-2.89a.076.076,0,0,1,.086.086l-.021,1.08v.451ZM20.276-4.146v-.859H17.945v.859Zm-2.927,0v-.859H15.184v.859Zm2.927-1.332v-.79H17.945v.79Zm-2.927,0v-.79H15.184v.79Zm5.183-2.256q0,.086-.091.086L21-7.67H19.562l.021.5q0,.091-.086.091h-.478q-.1,0-.1-.091,0-.016.011-.172t.011-.333H16.4l.021.5q0,.091-.086.091h-.483a.081.081,0,0,1-.091-.091q0-.016.011-.172t.011-.333H14.48l-1.445.021a.076.076,0,0,1-.086-.086v-.44q0-.075.086-.075l1.445.021h1.305a4.812,4.812,0,0,0-.064-.9q.333.016.682.059.113.016.113.1a.292.292,0,0,1-.043.145,1.571,1.571,0,0,0-.07.6h2.541a4.736,4.736,0,0,0-.064-.892q.36.021.671.059.118.016.118.1a.292.292,0,0,1-.043.145,1.646,1.646,0,0,0-.064.591H21L22.44-8.25q.091,0,.091.075Z" transform="translate(18 41)" fill="#fff"/>
              <path id="Path_1633" data-name="Path 1633" d="M.462-2.079l.967-.129A2.13,2.13,0,0,0,2-1.023a1.4,1.4,0,0,0,.975.363,1.562,1.562,0,0,0,1.152-.473A1.6,1.6,0,0,0,4.592-2.3a1.483,1.483,0,0,0-.435-1.1,1.5,1.5,0,0,0-1.106-.432,2.776,2.776,0,0,0-.682.107l.107-.849a1.478,1.478,0,0,0,.156.011,1.991,1.991,0,0,0,1.112-.322,1.1,1.1,0,0,0,.494-.994,1.176,1.176,0,0,0-.36-.881,1.279,1.279,0,0,0-.929-.349,1.317,1.317,0,0,0-.94.354,1.78,1.78,0,0,0-.483,1.063L.559-5.865a2.485,2.485,0,0,1,.806-1.507,2.329,2.329,0,0,1,1.563-.534,2.575,2.575,0,0,1,1.187.277,2,2,0,0,1,.83.755A1.939,1.939,0,0,1,5.231-5.86a1.662,1.662,0,0,1-.274.929,1.87,1.87,0,0,1-.811.666A1.827,1.827,0,0,1,5.231-3.6a2.035,2.035,0,0,1,.387,1.27A2.324,2.324,0,0,1,4.866-.577a2.645,2.645,0,0,1-1.9.717A2.474,2.474,0,0,1,1.243-.478,2.388,2.388,0,0,1,.462-2.079Zm6.112-1.8a7.205,7.205,0,0,1,.287-2.248,2.8,2.8,0,0,1,.854-1.313,2.183,2.183,0,0,1,1.426-.462,2.327,2.327,0,0,1,1.112.255,2.125,2.125,0,0,1,.79.736,3.948,3.948,0,0,1,.489,1.171,7.779,7.779,0,0,1,.177,1.861,7.226,7.226,0,0,1-.285,2.237A2.8,2.8,0,0,1,10.573-.33,2.183,2.183,0,0,1,9.142.134,2.161,2.161,0,0,1,7.353-.682,5.189,5.189,0,0,1,6.574-3.883Zm.994,0A4.937,4.937,0,0,0,8.022-1.3a1.337,1.337,0,0,0,1.12.642,1.336,1.336,0,0,0,1.12-.645,4.939,4.939,0,0,0,.454-2.578,4.936,4.936,0,0,0-.454-2.583,1.347,1.347,0,0,0-1.131-.639,1.239,1.239,0,0,0-1.063.564A4.994,4.994,0,0,0,7.568-3.883ZM21.882-.231a.806.806,0,0,1-.252.693.936.936,0,0,1-.392.15,5.836,5.836,0,0,1-.795.038.28.28,0,0,1-.172-.032A.427.427,0,0,1,20.19.44a1.959,1.959,0,0,0-.2-.43,7.793,7.793,0,0,0,.816.043.479.479,0,0,0,.338-.091.4.4,0,0,0,.086-.29v-2H17.945v1.155q.833-.1,1.45-.2-.274-.4-.306-.44a.147.147,0,0,1-.038-.07q0-.038.1-.081l.231-.1a.345.345,0,0,1,.091-.027q.032,0,.075.059A8.351,8.351,0,0,1,20.432-.6a.264.264,0,0,1,.016.064q0,.043-.1.091L20.1-.317a.338.338,0,0,1-.118.043q-.038,0-.064-.064-.209-.462-.263-.575-1.6.279-3.813.494a1.386,1.386,0,0,0-.473.1.261.261,0,0,1-.129.064q-.075,0-.124-.145-.064-.231-.14-.612Q15.211-1,15.41-1q.376,0,.763-.027,1.01-.075,1.176-.091V-2.331h-3.11V-.387L14.26.661a.076.076,0,0,1-.086.086h-.51a.076.076,0,0,1-.086-.086L13.6-.387v-1.4L13.578-2.8a.076.076,0,0,1,.086-.086l1.552.021h2.132v-.795H16.14l-1.509.021a.076.076,0,0,1-.086-.086l.021-.924V-5.763l-.021-.924a.076.076,0,0,1,.086-.086l1.509.021h3.169l1.52-.021a.076.076,0,0,1,.086.086l-.021.924v1.112l.021.924a.076.076,0,0,1-.086.086l-1.52-.021H17.945v.795h2.3L21.8-2.89a.076.076,0,0,1,.086.086l-.021,1.08v.451ZM20.276-4.146v-.859H17.945v.859Zm-2.927,0v-.859H15.184v.859Zm2.927-1.332v-.79H17.945v.79Zm-2.927,0v-.79H15.184v.79Zm5.183-2.256q0,.086-.091.086L21-7.67H19.562l.021.5q0,.091-.086.091h-.478q-.1,0-.1-.091,0-.016.011-.172t.011-.333H16.4l.021.5q0,.091-.086.091h-.483a.081.081,0,0,1-.091-.091q0-.016.011-.172t.011-.333H14.48l-1.445.021a.076.076,0,0,1-.086-.086v-.44q0-.075.086-.075l1.445.021h1.305a4.812,4.812,0,0,0-.064-.9q.333.016.682.059.113.016.113.1a.292.292,0,0,1-.043.145,1.571,1.571,0,0,0-.07.6h2.541a4.736,4.736,0,0,0-.064-.892q.36.021.671.059.118.016.118.1a.292.292,0,0,1-.043.145,1.646,1.646,0,0,0-.064.591H21L22.44-8.25q.091,0,.091.075Z" transform="translate(19 10)" fill="#fff"/>
            </g>
            <line id="Line_287" data-name="Line 287" y1="185.874" transform="translate(47.967 5.552)" fill="none" stroke="#fff" stroke-miterlimit="10" stroke-width="1"/>
          </g>
          <g id="Group_1758" data-name="Group 1758" transform="translate(56.507 22.549)">
            <g id="Group_1757" data-name="Group 1757">
              <g id="Group_1756" data-name="Group 1756">
                <rect id="Rectangle_2216" data-name="Rectangle 2216" width="43.957" height="158.244" transform="translate(0 10.633)" fill="#fff"/>
                <rect id="Rectangle_2217" data-name="Rectangle 2217" width="43.957" height="168.878" transform="translate(61.037)" fill="#fff"/>
                <rect id="Rectangle_2218" data-name="Rectangle 2218" width="43.957" height="155.063" transform="translate(122.074 13.815)" fill="#fff"/>
                <rect id="Rectangle_2219" data-name="Rectangle 2219" width="43.957" height="144.764" transform="translate(183.111 24.113)" fill="#fff"/>
                <rect id="Rectangle_2220" data-name="Rectangle 2220" width="43.957" height="149.537" transform="translate(244.148 19.341)" fill="#fff"/>
              </g>
            </g>
          </g>
        </g>
        <g id="Group_1773" data-name="Group 1773" transform="translate(46.077 67.669)">
          <g id="Group_1762" data-name="Group 1762" transform="translate(0 186.737)">
            <line id="Line_295" data-name="Line 295" x2="305.269" transform="translate(0 4.689)" fill="none" stroke="#55585f" stroke-miterlimit="10" stroke-width="1"/>
          </g>
          <g id="Group_1766" data-name="Group 1766" transform="translate(297.566)">
            <g id="Group_1763" data-name="Group 1763" transform="translate(12.431)">
              <path id="Path_1643" data-name="Path 1643" d="M4.843,0H3.7V-7.281a5.905,5.905,0,0,1-1.082.787,7.672,7.672,0,0,1-1.2.59v-1.1A6.9,6.9,0,0,0,3.091-8.1,4.3,4.3,0,0,0,4.107-9.344h.736ZM7.77-4.589a8.515,8.515,0,0,1,.34-2.656A3.3,3.3,0,0,1,9.118-8.8,2.58,2.58,0,0,1,10.8-9.344a2.75,2.75,0,0,1,1.314.3,2.512,2.512,0,0,1,.933.87,4.665,4.665,0,0,1,.578,1.384,9.194,9.194,0,0,1,.209,2.2A8.539,8.539,0,0,1,13.5-1.946,3.305,3.305,0,0,1,12.5-.39,2.58,2.58,0,0,1,10.8.159,2.554,2.554,0,0,1,8.69-.806,6.132,6.132,0,0,1,7.77-4.589Zm1.174,0a5.835,5.835,0,0,0,.536,3.05A1.581,1.581,0,0,0,10.8-.781a1.579,1.579,0,0,0,1.323-.762,5.837,5.837,0,0,0,.536-3.047,5.833,5.833,0,0,0-.536-3.053A1.592,1.592,0,0,0,10.791-8.4a1.464,1.464,0,0,0-1.257.667A5.9,5.9,0,0,0,8.944-4.589Zm6.056,0a8.515,8.515,0,0,1,.34-2.656A3.3,3.3,0,0,1,16.348-8.8a2.58,2.58,0,0,1,1.685-.546,2.75,2.75,0,0,1,1.314.3,2.512,2.512,0,0,1,.933.87,4.665,4.665,0,0,1,.578,1.384,9.194,9.194,0,0,1,.209,2.2,8.539,8.539,0,0,1-.336,2.644A3.305,3.305,0,0,1,19.725-.39a2.58,2.58,0,0,1-1.692.549A2.554,2.554,0,0,1,15.92-.806,6.132,6.132,0,0,1,15-4.589Zm1.174,0a5.835,5.835,0,0,0,.536,3.05,1.581,1.581,0,0,0,1.323.759,1.579,1.579,0,0,0,1.323-.762,5.837,5.837,0,0,0,.536-3.047,5.833,5.833,0,0,0-.536-3.053A1.592,1.592,0,0,0,18.021-8.4a1.464,1.464,0,0,0-1.257.667A5.9,5.9,0,0,0,16.174-4.589Zm6.056,0a8.515,8.515,0,0,1,.34-2.656A3.3,3.3,0,0,1,23.578-8.8a2.58,2.58,0,0,1,1.685-.546,2.75,2.75,0,0,1,1.314.3,2.512,2.512,0,0,1,.933.87,4.665,4.665,0,0,1,.578,1.384,9.194,9.194,0,0,1,.209,2.2,8.539,8.539,0,0,1-.336,2.644A3.305,3.305,0,0,1,26.955-.39a2.58,2.58,0,0,1-1.692.549A2.554,2.554,0,0,1,23.15-.806,6.132,6.132,0,0,1,22.229-4.589Zm1.174,0a5.835,5.835,0,0,0,.536,3.05,1.581,1.581,0,0,0,1.323.759,1.579,1.579,0,0,0,1.323-.762,5.837,5.837,0,0,0,.536-3.047,5.833,5.833,0,0,0-.536-3.053A1.592,1.592,0,0,0,25.251-8.4a1.464,1.464,0,0,0-1.257.667A5.9,5.9,0,0,0,23.4-4.589Z" transform="translate(0 195.898)" fill="#4891f2"/>
              <path id="Path_1642" data-name="Path 1642" d="M4.843,0H3.7V-7.281a5.905,5.905,0,0,1-1.082.787,7.672,7.672,0,0,1-1.2.59v-1.1A6.9,6.9,0,0,0,3.091-8.1,4.3,4.3,0,0,0,4.107-9.344h.736ZM7.77-2.437l1.2-.1a2.151,2.151,0,0,0,.619,1.317,1.68,1.68,0,0,0,1.171.441,1.824,1.824,0,0,0,1.4-.622,2.344,2.344,0,0,0,.571-1.65A2.119,2.119,0,0,0,12.178-4.6a1.915,1.915,0,0,0-1.438-.565,1.992,1.992,0,0,0-1,.251,1.935,1.935,0,0,0-.7.651L7.973-4.4l.9-4.78H13.5v1.092H9.788l-.5,2.5a3.028,3.028,0,0,1,1.758-.584,2.785,2.785,0,0,1,2.057.844,2.951,2.951,0,0,1,.838,2.171A3.389,3.389,0,0,1,13.2-.971,2.949,2.949,0,0,1,10.759.159,3.01,3.01,0,0,1,8.687-.552,2.774,2.774,0,0,1,7.77-2.437ZM15-4.589a8.515,8.515,0,0,1,.34-2.656A3.3,3.3,0,0,1,16.348-8.8a2.58,2.58,0,0,1,1.685-.546,2.75,2.75,0,0,1,1.314.3,2.512,2.512,0,0,1,.933.87,4.665,4.665,0,0,1,.578,1.384,9.194,9.194,0,0,1,.209,2.2,8.539,8.539,0,0,1-.336,2.644A3.305,3.305,0,0,1,19.725-.39a2.58,2.58,0,0,1-1.692.549A2.554,2.554,0,0,1,15.92-.806,6.132,6.132,0,0,1,15-4.589Zm1.174,0a5.835,5.835,0,0,0,.536,3.05,1.581,1.581,0,0,0,1.323.759,1.579,1.579,0,0,0,1.323-.762,5.837,5.837,0,0,0,.536-3.047,5.833,5.833,0,0,0-.536-3.053A1.592,1.592,0,0,0,18.021-8.4a1.464,1.464,0,0,0-1.257.667A5.9,5.9,0,0,0,16.174-4.589Zm6.056,0a8.515,8.515,0,0,1,.34-2.656A3.3,3.3,0,0,1,23.578-8.8a2.58,2.58,0,0,1,1.685-.546,2.75,2.75,0,0,1,1.314.3,2.512,2.512,0,0,1,.933.87,4.665,4.665,0,0,1,.578,1.384,9.194,9.194,0,0,1,.209,2.2,8.539,8.539,0,0,1-.336,2.644A3.305,3.305,0,0,1,26.955-.39a2.58,2.58,0,0,1-1.692.549A2.554,2.554,0,0,1,23.15-.806,6.132,6.132,0,0,1,22.229-4.589Zm1.174,0a5.835,5.835,0,0,0,.536,3.05,1.581,1.581,0,0,0,1.323.759,1.579,1.579,0,0,0,1.323-.762,5.837,5.837,0,0,0,.536-3.047,5.833,5.833,0,0,0-.536-3.053A1.592,1.592,0,0,0,25.251-8.4a1.464,1.464,0,0,0-1.257.667A5.9,5.9,0,0,0,23.4-4.589Z" transform="translate(0 133.932)" fill="#4891f2"/>
              <path id="Path_1641" data-name="Path 1641" d="M6.544-1.1V0H.394A2.021,2.021,0,0,1,.527-.793a4.2,4.2,0,0,1,.752-1.238A11.785,11.785,0,0,1,2.774-3.44a12.672,12.672,0,0,0,2.05-1.971,2.36,2.36,0,0,0,.533-1.374,1.527,1.527,0,0,0-.486-1.146A1.752,1.752,0,0,0,3.605-8.4a1.784,1.784,0,0,0-1.32.5,1.873,1.873,0,0,0-.5,1.371L.609-6.652a2.891,2.891,0,0,1,.908-2,3.1,3.1,0,0,1,2.114-.689,2.95,2.95,0,0,1,2.12.743A2.438,2.438,0,0,1,6.532-6.76a2.792,2.792,0,0,1-.229,1.1,4.262,4.262,0,0,1-.759,1.136A18.479,18.479,0,0,1,3.783-2.888q-1.028.863-1.32,1.171A3.757,3.757,0,0,0,1.98-1.1ZM7.77-4.589a8.515,8.515,0,0,1,.34-2.656A3.3,3.3,0,0,1,9.118-8.8,2.58,2.58,0,0,1,10.8-9.344a2.75,2.75,0,0,1,1.314.3,2.512,2.512,0,0,1,.933.87,4.665,4.665,0,0,1,.578,1.384,9.194,9.194,0,0,1,.209,2.2A8.539,8.539,0,0,1,13.5-1.946,3.305,3.305,0,0,1,12.5-.39,2.58,2.58,0,0,1,10.8.159,2.554,2.554,0,0,1,8.69-.806,6.132,6.132,0,0,1,7.77-4.589Zm1.174,0a5.835,5.835,0,0,0,.536,3.05A1.581,1.581,0,0,0,10.8-.781a1.579,1.579,0,0,0,1.323-.762,5.837,5.837,0,0,0,.536-3.047,5.833,5.833,0,0,0-.536-3.053A1.592,1.592,0,0,0,10.791-8.4a1.464,1.464,0,0,0-1.257.667A5.9,5.9,0,0,0,8.944-4.589Zm6.056,0a8.515,8.515,0,0,1,.34-2.656A3.3,3.3,0,0,1,16.348-8.8a2.58,2.58,0,0,1,1.685-.546,2.75,2.75,0,0,1,1.314.3,2.512,2.512,0,0,1,.933.87,4.665,4.665,0,0,1,.578,1.384,9.194,9.194,0,0,1,.209,2.2,8.539,8.539,0,0,1-.336,2.644A3.305,3.305,0,0,1,19.725-.39a2.58,2.58,0,0,1-1.692.549A2.554,2.554,0,0,1,15.92-.806,6.132,6.132,0,0,1,15-4.589Zm1.174,0a5.835,5.835,0,0,0,.536,3.05,1.581,1.581,0,0,0,1.323.759,1.579,1.579,0,0,0,1.323-.762,5.837,5.837,0,0,0,.536-3.047,5.833,5.833,0,0,0-.536-3.053A1.592,1.592,0,0,0,18.021-8.4a1.464,1.464,0,0,0-1.257.667A5.9,5.9,0,0,0,16.174-4.589Zm6.056,0a8.515,8.515,0,0,1,.34-2.656A3.3,3.3,0,0,1,23.578-8.8a2.58,2.58,0,0,1,1.685-.546,2.75,2.75,0,0,1,1.314.3,2.512,2.512,0,0,1,.933.87,4.665,4.665,0,0,1,.578,1.384,9.194,9.194,0,0,1,.209,2.2,8.539,8.539,0,0,1-.336,2.644A3.305,3.305,0,0,1,26.955-.39a2.58,2.58,0,0,1-1.692.549A2.554,2.554,0,0,1,23.15-.806,6.132,6.132,0,0,1,22.229-4.589Zm1.174,0a5.835,5.835,0,0,0,.536,3.05,1.581,1.581,0,0,0,1.323.759,1.579,1.579,0,0,0,1.323-.762,5.837,5.837,0,0,0,.536-3.047,5.833,5.833,0,0,0-.536-3.053A1.592,1.592,0,0,0,25.251-8.4a1.464,1.464,0,0,0-1.257.667A5.9,5.9,0,0,0,23.4-4.589Z" transform="translate(0 71.966)" fill="#4891f2"/>
              <path id="Path_1640" data-name="Path 1640" d="M6.544-1.1V0H.394A2.021,2.021,0,0,1,.527-.793a4.2,4.2,0,0,1,.752-1.238A11.785,11.785,0,0,1,2.774-3.44a12.672,12.672,0,0,0,2.05-1.971,2.36,2.36,0,0,0,.533-1.374,1.527,1.527,0,0,0-.486-1.146A1.752,1.752,0,0,0,3.605-8.4a1.784,1.784,0,0,0-1.32.5,1.873,1.873,0,0,0-.5,1.371L.609-6.652a2.891,2.891,0,0,1,.908-2,3.1,3.1,0,0,1,2.114-.689,2.95,2.95,0,0,1,2.12.743A2.438,2.438,0,0,1,6.532-6.76a2.792,2.792,0,0,1-.229,1.1,4.262,4.262,0,0,1-.759,1.136A18.479,18.479,0,0,1,3.783-2.888q-1.028.863-1.32,1.171A3.757,3.757,0,0,0,1.98-1.1ZM7.77-2.437l1.2-.1a2.151,2.151,0,0,0,.619,1.317,1.68,1.68,0,0,0,1.171.441,1.824,1.824,0,0,0,1.4-.622,2.344,2.344,0,0,0,.571-1.65A2.119,2.119,0,0,0,12.178-4.6a1.915,1.915,0,0,0-1.438-.565,1.992,1.992,0,0,0-1,.251,1.935,1.935,0,0,0-.7.651L7.973-4.4l.9-4.78H13.5v1.092H9.788l-.5,2.5a3.028,3.028,0,0,1,1.758-.584,2.785,2.785,0,0,1,2.057.844,2.951,2.951,0,0,1,.838,2.171A3.389,3.389,0,0,1,13.2-.971,2.949,2.949,0,0,1,10.759.159,3.01,3.01,0,0,1,8.687-.552,2.774,2.774,0,0,1,7.77-2.437ZM15-4.589a8.515,8.515,0,0,1,.34-2.656A3.3,3.3,0,0,1,16.348-8.8a2.58,2.58,0,0,1,1.685-.546,2.75,2.75,0,0,1,1.314.3,2.512,2.512,0,0,1,.933.87,4.665,4.665,0,0,1,.578,1.384,9.194,9.194,0,0,1,.209,2.2,8.539,8.539,0,0,1-.336,2.644A3.305,3.305,0,0,1,19.725-.39a2.58,2.58,0,0,1-1.692.549A2.554,2.554,0,0,1,15.92-.806,6.132,6.132,0,0,1,15-4.589Zm1.174,0a5.835,5.835,0,0,0,.536,3.05,1.581,1.581,0,0,0,1.323.759,1.579,1.579,0,0,0,1.323-.762,5.837,5.837,0,0,0,.536-3.047,5.833,5.833,0,0,0-.536-3.053A1.592,1.592,0,0,0,18.021-8.4a1.464,1.464,0,0,0-1.257.667A5.9,5.9,0,0,0,16.174-4.589Zm6.056,0a8.515,8.515,0,0,1,.34-2.656A3.3,3.3,0,0,1,23.578-8.8a2.58,2.58,0,0,1,1.685-.546,2.75,2.75,0,0,1,1.314.3,2.512,2.512,0,0,1,.933.87,4.665,4.665,0,0,1,.578,1.384,9.194,9.194,0,0,1,.209,2.2,8.539,8.539,0,0,1-.336,2.644A3.305,3.305,0,0,1,26.955-.39a2.58,2.58,0,0,1-1.692.549A2.554,2.554,0,0,1,23.15-.806,6.132,6.132,0,0,1,22.229-4.589Zm1.174,0a5.835,5.835,0,0,0,.536,3.05,1.581,1.581,0,0,0,1.323.759,1.579,1.579,0,0,0,1.323-.762,5.837,5.837,0,0,0,.536-3.047,5.833,5.833,0,0,0-.536-3.053A1.592,1.592,0,0,0,25.251-8.4a1.464,1.464,0,0,0-1.257.667A5.9,5.9,0,0,0,23.4-4.589Z" transform="translate(0 10)" fill="#4891f2"/>
            </g>
            <line id="Line_302" data-name="Line 302" y1="185.874" transform="translate(7.703 5.552)" fill="none" stroke="#4891f2" stroke-miterlimit="10" stroke-width="1"/>
          </g>
          <g id="Group_1769" data-name="Group 1769" transform="translate(30.477 47.248)">
            <g id="Group_1768" data-name="Group 1768">
              <g id="Group_1767" data-name="Group 1767">
                <line id="Line_307" data-name="Line 307" x1="61.121" y2="19.257" transform="translate(0 89.253)" fill="none" stroke="#4891f2" stroke-linecap="round" stroke-miterlimit="10" stroke-width="2"/>
                <line id="Line_308" data-name="Line 308" x1="61.037" y2="5.693" transform="translate(61.121 83.56)" fill="none" stroke="#4891f2" stroke-linecap="round" stroke-miterlimit="10" stroke-width="2"/>
                <line id="Line_309" data-name="Line 309" x1="61.037" y2="13.145" transform="translate(122.158 70.414)" fill="none" stroke="#4891f2" stroke-linecap="round" stroke-miterlimit="10" stroke-width="2"/>
                <line id="Line_310" data-name="Line 310" x1="61.037" y2="70.414" transform="translate(183.195)" fill="none" stroke="#4891f2" stroke-linecap="round" stroke-miterlimit="10" stroke-width="2"/>
              </g>
            </g>
          </g>
          <g id="Group_1772" data-name="Group 1772" transform="translate(27.965 44.736)">
            <g id="Group_1771" data-name="Group 1771">
              <g id="Group_1770" data-name="Group 1770">
                <rect id="Rectangle_2221" data-name="Rectangle 2221" width="5.024" height="5.024" rx="2.512" transform="translate(0 108.51)" fill="#4891f2" stroke="#4891f2" stroke-miterlimit="10" stroke-width="0.5"/>
                <rect id="Rectangle_2222" data-name="Rectangle 2222" width="5.024" height="5.024" rx="2.512" transform="translate(61.121 89.253)" fill="#4891f2" stroke="#4891f2" stroke-miterlimit="10" stroke-width="0.5"/>
                <rect id="Rectangle_2223" data-name="Rectangle 2223" width="5.024" height="5.024" rx="2.512" transform="translate(122.158 83.56)" fill="#4891f2" stroke="#4891f2" stroke-miterlimit="10" stroke-width="0.5"/>
                <rect id="Rectangle_2224" data-name="Rectangle 2224" width="5.024" height="5.024" rx="2.512" transform="translate(183.195 70.414)" fill="#4891f2" stroke="#4891f2" stroke-miterlimit="10" stroke-width="0.5"/>
                <rect id="Rectangle_2225" data-name="Rectangle 2225" width="5.024" height="5.024" rx="2.512" transform="translate(244.232)" fill="#4891f2" stroke="#4891f2" stroke-miterlimit="10" stroke-width="0.5"/>
              </g>
            </g>
          </g>
        </g>
      </g>
      <path id="Path_1648" data-name="Path 1648" d="M1.056,0H5.88V-.912H4.116v-7.9h-.84a5.3,5.3,0,0,1-1.824.636v.7h1.56V-.912H1.056ZM10,.156c1.668,0,2.736-1.524,2.736-4.584S11.664-8.964,10-8.964,7.248-7.488,7.248-4.428,8.316.156,10,.156ZM10-.72c-1.008,0-1.68-1.116-1.68-3.708,0-2.568.672-3.66,1.68-3.66S11.664-7,11.664-4.428C11.664-1.836,10.992-.72,10-.72Zm6.492.876a2.561,2.561,0,0,0,2.82-2.508,2.263,2.263,0,0,0-1.86-2.232v-.048a2.2,2.2,0,0,0,1.56-2.124,2.26,2.26,0,0,0-2.556-2.208,3.522,3.522,0,0,0-2.46,1.056l.588.7A2.568,2.568,0,0,1,16.4-8.064a1.35,1.35,0,0,1,1.488,1.392c0,.948-.624,1.68-2.436,1.68v.84c2.028,0,2.736.708,2.736,1.752A1.622,1.622,0,0,1,16.4-.756,2.908,2.908,0,0,1,14.22-1.764l-.552.72A3.641,3.641,0,0,0,16.488.156Z" transform="translate(277.569 508.001)" fill="#d48773"/>
      <path id="Path_1647" data-name="Path 1647" d="M1.056,0H5.88V-.912H4.116v-7.9h-.84a5.3,5.3,0,0,1-1.824.636v.7h1.56V-.912H1.056ZM10,.156c1.668,0,2.736-1.524,2.736-4.584S11.664-8.964,10-8.964,7.248-7.488,7.248-4.428,8.316.156,10,.156ZM10-.72c-1.008,0-1.68-1.116-1.68-3.708,0-2.568.672-3.66,1.68-3.66S11.664-7,11.664-4.428C11.664-1.836,10.992-.72,10-.72ZM14.7-3.3l2-3c.252-.432.492-.864.708-1.3h.048c-.024.456-.06,1.164-.06,1.6v2.7ZM17.4,0h1.032V-2.424H19.6V-3.3H18.432V-8.808H17.22L13.56-3.144v.72H17.4Z" transform="translate(338.569 508.001)" fill="#d48773"/>
      <path id="Path_1646" data-name="Path 1646" d="M1.056,0H5.88V-.912H4.116v-7.9h-.84a5.3,5.3,0,0,1-1.824.636v.7h1.56V-.912H1.056ZM10,.156c1.668,0,2.736-1.524,2.736-4.584S11.664-8.964,10-8.964,7.248-7.488,7.248-4.428,8.316.156,10,.156ZM10-.72c-1.008,0-1.68-1.116-1.68-3.708,0-2.568.672-3.66,1.68-3.66S11.664-7,11.664-4.428C11.664-1.836,10.992-.72,10-.72Zm6.456.876a2.857,2.857,0,0,0,2.88-3.024,2.51,2.51,0,0,0-2.652-2.8,2.558,2.558,0,0,0-1.308.348l.216-2.544h3.324v-.948H14.628L14.352-4.68l.588.36A2.393,2.393,0,0,1,16.4-4.836a1.78,1.78,0,0,1,1.824,2A1.9,1.9,0,0,1,16.356-.756a2.894,2.894,0,0,1-2.16-.972l-.54.72A3.737,3.737,0,0,0,16.452.156Z" transform="translate(399.569 508.001)" fill="#d48773"/>
      <path id="Path_1645" data-name="Path 1645" d="M1.056,0H5.88V-.912H4.116v-7.9h-.84a5.3,5.3,0,0,1-1.824.636v.7h1.56V-.912H1.056ZM10,.156c1.668,0,2.736-1.524,2.736-4.584S11.664-8.964,10-8.964,7.248-7.488,7.248-4.428,8.316.156,10,.156ZM10-.72c-1.008,0-1.68-1.116-1.68-3.708,0-2.568.672-3.66,1.68-3.66S11.664-7,11.664-4.428C11.664-1.836,10.992-.72,10-.72Zm6.84-3.924c1.068,0,1.6.756,1.6,1.944s-.66,2-1.5,2c-1.1,0-1.764-1-1.9-2.82A2.274,2.274,0,0,1,16.836-4.644Zm.1,4.8A2.641,2.641,0,0,0,19.452-2.7c0-1.836-.948-2.76-2.436-2.76a2.736,2.736,0,0,0-2,1.068c.048-2.736,1.068-3.66,2.268-3.66A1.86,1.86,0,0,1,18.7-7.38l.6-.684a2.7,2.7,0,0,0-2.052-.9c-1.7,0-3.252,1.32-3.252,4.764C13.992-1.3,15.24.156,16.932.156Z" transform="translate(460.569 508.001)" fill="#d48773"/>
      <path id="Path_1644" data-name="Path 1644" d="M1.056,0H5.88V-.912H4.116v-7.9h-.84a5.3,5.3,0,0,1-1.824.636v.7h1.56V-.912H1.056ZM10,.156c1.668,0,2.736-1.524,2.736-4.584S11.664-8.964,10-8.964,7.248-7.488,7.248-4.428,8.316.156,10,.156ZM10-.72c-1.008,0-1.68-1.116-1.68-3.708,0-2.568.672-3.66,1.68-3.66S11.664-7,11.664-4.428C11.664-1.836,10.992-.72,10-.72ZM15.7,0h1.14c.132-3.444.516-5.5,2.58-8.136v-.672H13.908v.948h4.26A13.027,13.027,0,0,0,15.7,0ZM27.384-6.3a5.4,5.4,0,0,0-.864-.66,6.824,6.824,0,0,0,.7-.768l-.624-.2a4.285,4.285,0,0,1-.6.636c-.312-.168-.624-.348-.924-.48l-.444.4a8.821,8.821,0,0,1,.864.468,7.214,7.214,0,0,1-1.14.66,3.1,3.1,0,0,1,.492.468,8.492,8.492,0,0,0,1.2-.78,6.543,6.543,0,0,1,.864.7Zm-.036-2.148c-.216-.168-.5-.36-.828-.564a6.163,6.163,0,0,0,.66-.732l-.624-.168a5.111,5.111,0,0,1-.564.588c-.312-.168-.612-.324-.9-.444l-.432.4a8,8,0,0,1,.84.432,7.233,7.233,0,0,1-1.068.612,3.759,3.759,0,0,1,.5.432,8.337,8.337,0,0,0,1.116-.72A5.939,5.939,0,0,1,26.88-8Zm-5.58,3.36H30.2V-3.6h.876V-5.772h-.936c.1-1.068.2-2.616.264-3.8H27.636v.612h1.908l-.036.648H27.7V-7.7h1.776l-.06.648H27.624v.612h1.74c-.024.24-.048.456-.072.672H22.716l-.048-.672h1.668v-.612h-1.7L22.584-7.7h1.7v-.612h-1.74L22.5-8.9a12.581,12.581,0,0,0,1.848-.468l-.4-.552a22.46,22.46,0,0,1-2.316.588l.24,3.564h-.96V-3.6h.852ZM31.32-2.172h-4.8v-.216a12.5,12.5,0,0,0,2.712-1.488l-.54-.444-.18.048h-5.64V-3.6h4.692a11.138,11.138,0,0,1-1.908.912v.516h-5v.756h5V-.06c0,.168-.048.2-.252.216-.18,0-.852,0-1.6-.024a3.36,3.36,0,0,1,.312.756,7.18,7.18,0,0,0,1.932-.12c.372-.132.468-.336.468-.8v-1.38h4.8Zm4.128-.516V-5.064h2.688v2.376Zm7.932,0H39.036V-5.064h3.516V-5.9H39.036V-7.728h3.792v-.864H35.676c.192-.408.384-.84.552-1.26l-.9-.216a10.155,10.155,0,0,1-2.7,4.14,5.523,5.523,0,0,1,.768.564A11.087,11.087,0,0,0,35.22-7.728h2.916V-5.9H34.56v3.216H32.592v.864h5.544V.924h.9V-1.824H43.38Z" transform="translate(522.569 508.001)" fill="#d48773"/>
    </g>
    <g id="Group_1924" data-name="Group 1924" transform="translate(-8836 -12306)">
      <rect id="Rectangle_2063" data-name="Rectangle 2063" width="241" height="31" rx="15.5" transform="translate(659 1062)" fill="#3d3c3c"/>
      <path id="內文p" d="M11.032,6.8H7.448V5.7h3.584Zm0,1.834H7.448V7.516h3.584ZM2.926,7.516H6.44v1.12H2.926Zm0-1.82H6.44V6.8H2.926Zm9.142-.756H1.918V9.392h10.15ZM4.256,12.626V11.45H6.44v1.176ZM9.73,11.45v1.176H7.462V11.45Zm3.486,2.058v-.882H10.71V11.45h1.61V10.6H10.71V9.784H9.73V10.6H7.462V9.714H6.44V10.6H4.256V9.784H3.29V10.6H1.484v.854H3.29v1.176H.756v.882H6.44v1.064H2.156v.868H6.44v1.61H7.462V15.44h4.452v-.868H7.462V13.508Zm5.8.952a12.536,12.536,0,0,1-4.144,1.386,3.778,3.778,0,0,1,.63.784,13,13,0,0,0,4.3-1.806Zm3.388.49c1.33.49,3.108,1.2,4.032,1.652l.644-.658c-.966-.448-2.744-1.12-4.06-1.554Zm.826-7.308A10.952,10.952,0,0,1,22.4,9.028l.49.154H19.026l.574-.154a5.631,5.631,0,0,0-.742-1.386ZM21.49,12.878v-1.05h4.382v-.8H21.49V10.022h5.068v-.84H23.352a15.408,15.408,0,0,0,.966-1.288l-.91-.252h3.64V6.774H24.892c.364-.532.826-1.3,1.218-2.016l-1.064-.294a11.69,11.69,0,0,1-1.078,2.128l.56.182H22.834V4.3H21.84V6.774H20.174V4.3h-.98V6.774H17.486l.7-.28A8.588,8.588,0,0,0,17,4.436l-.882.308a11.036,11.036,0,0,1,1.12,2.03H14.98v.868h3.612l-.742.2a5.979,5.979,0,0,1,.714,1.344H15.54v.84h4.928V11.03H16.254v.8h4.214v1.05h-5.53v.882h5.53v3.318H21.49V13.76H27.1v-.882Zm14.07,2.744V12.066h4.494V11.058H35.56V8.006h5.012V6.984H35.56V4.3H34.5V6.984H31.654a19.216,19.216,0,0,0,.784-2.24l-1.05-.224A12.763,12.763,0,0,1,28.8,9.672a6.971,6.971,0,0,1,.952.616,12.561,12.561,0,0,0,1.456-2.282H34.5v3.052H30.338v1.008H34.5v3.556h-5.67V16.63h12.4V15.622Zm17.906-5.306a9.088,9.088,0,0,0-.98-1.218A9.318,9.318,0,0,0,53.55,7.544l-.728-.112a7.983,7.983,0,0,1-.77,1.176c-.21-.21-.42-.42-.63-.616a8.127,8.127,0,0,0,.8-1.2l-.714-.126a5.44,5.44,0,0,1-.574.868c-.238-.21-.49-.434-.742-.63l-.574.378a8.78,8.78,0,0,1,.868.784A7.291,7.291,0,0,1,49.266,9.07a2.134,2.134,0,0,1,.476.462A8.043,8.043,0,0,0,50.96,8.524a8.466,8.466,0,0,1,.6.63A9.129,9.129,0,0,1,49.8,10.582a1.709,1.709,0,0,1,.462.49A9.423,9.423,0,0,0,52.01,9.63a13.336,13.336,0,0,1,.854,1.134Zm.28.91H49.07V6.48h4.676ZM54.7,5.612H51c.2-.35.406-.784.6-1.2L50.568,4.2a13.288,13.288,0,0,1-.5,1.414H48.146v6.482H54.7Zm-1.9,8.848a20.522,20.522,0,0,0-1.344-2.142l-.686.322a24.633,24.633,0,0,1,1.316,2.24Zm-5.25-2.1a17.049,17.049,0,0,0-.882-2.688l-.742.21c.154.364.294.784.42,1.19l-2.156.364a26.638,26.638,0,0,0,3.038-4.62l-.868-.434a18.665,18.665,0,0,1-.994,1.89l-1.456.14a21.175,21.175,0,0,0,1.96-3.766l-.938-.378A17.794,17.794,0,0,1,43.274,7.8c-.252.42-.49.714-.714.77a9.242,9.242,0,0,1,.322.924,6.889,6.889,0,0,1,1.946-.35,15.31,15.31,0,0,1-1.176,1.666c-.392.5-.714.868-.994.938a5.819,5.819,0,0,1,.308.91c.266-.168.672-.266,3.612-.826a7.815,7.815,0,0,1,.182.8Zm-4.144.868a13.073,13.073,0,0,1-.784,3.22,3.689,3.689,0,0,1,.756.28,17.4,17.4,0,0,0,.812-3.36Zm1.274.14a24.262,24.262,0,0,1,.35,2.968l.784-.168c-.056-.812-.224-2.016-.392-2.968Zm1.288-.266c.224.77.49,1.764.6,2.422l.714-.224a15.5,15.5,0,0,0-.616-2.394Zm1.974,3.248a13.484,13.484,0,0,0,.938-2.982l-.742-.266a12.028,12.028,0,0,1-.952,2.884Zm2.716-.406c-.532,0-.616-.056-.616-.378V13.1h-.9V15.58c0,.91.294,1.148,1.428,1.148h2.016c.924,0,1.176-.378,1.274-1.9a2.461,2.461,0,0,1-.784-.336c-.056,1.288-.14,1.456-.574,1.456Zm2.814-2.6a25.773,25.773,0,0,1,1.19,2.772l.784-.364c-.266-.714-.784-1.834-1.232-2.716Zm8.946-9c-.042,2.128.042,8.932-5.768,11.872a3.106,3.106,0,0,1,.84.812,11.214,11.214,0,0,0,5.544-7.756c.672,2.6,2.17,6.062,5.67,7.7a3.175,3.175,0,0,1,.756-.882c-4.942-2.2-5.782-8.05-5.992-9.716.07-.826.084-1.526.1-2.03Zm14.63,11.746c-.448-.238-1.05-.532-1.694-.812a3.027,3.027,0,0,0,1.05-1.736h1.484V12.78h-1.4v-.56h-.854v.56H73.864c.154-.308.308-.6.448-.9h3.164v-1.3c.21.182.5.434.63.574a10.044,10.044,0,0,0,.77-1.554,19.894,19.894,0,0,0,1.036,3.7,6.943,6.943,0,0,1-2.9,2.814Zm-1.526-2.548a2.689,2.689,0,0,1-1.05,1.386c-.518-.21-1.05-.392-1.554-.546.168-.266.336-.546.518-.84Zm-3.332-3.248H73.92v.924H72.184Zm4.368,0v.924H74.746v-.924ZM81.4,7.978a16.438,16.438,0,0,1-.966,4.27,19.112,19.112,0,0,1-1.022-4.1l.07-.168Zm-8.96.308v-.9H73.92v.9ZM73.92,5.92v.77H72.436V5.92Zm2.422,0v.77h-1.6V5.92Zm-1.6,2.366v-.9h1.6v.9Zm8.638-.308V7.04H79.758c.224-.84.434-1.722.6-2.576l-.91-.182a18.543,18.543,0,0,1-1.974,6.09V9.63h-2.73V9.014H77.2V7.432h.8V6.648h-.8V5.192h-2.45v-.91H73.92v.91h-2.3V6.648h-.966v.784h.966V9.014h2.3V9.63H71.288v2.254H73.36c-.14.294-.28.588-.448.9h-2.24v.756h1.806c-.294.448-.588.9-.854,1.232a19.41,19.41,0,0,1,1.988.658,13.044,13.044,0,0,1-3.052.938,2.375,2.375,0,0,1,.448.7,12.464,12.464,0,0,0,3.57-1.232,14.417,14.417,0,0,1,1.792.868l.336-.308a4.439,4.439,0,0,1,.476.7,8.283,8.283,0,0,0,3.192-2.828,7.091,7.091,0,0,0,2.45,2.744,3.759,3.759,0,0,1,.672-.8,6.415,6.415,0,0,1-2.59-2.87A16.323,16.323,0,0,0,82.32,7.978Z" transform="translate(691 1067)" fill="#aca4a4"/>
      <path id="內文p-2" data-name="內文p" d="M11.466,10.316a9.088,9.088,0,0,0-.98-1.218A9.317,9.317,0,0,0,11.55,7.544l-.728-.112a7.983,7.983,0,0,1-.77,1.176c-.21-.21-.42-.42-.63-.616a8.127,8.127,0,0,0,.8-1.2l-.714-.126a5.44,5.44,0,0,1-.574.868c-.238-.21-.49-.434-.742-.63l-.574.378a8.78,8.78,0,0,1,.868.784A7.291,7.291,0,0,1,7.266,9.07a2.134,2.134,0,0,1,.476.462A8.043,8.043,0,0,0,8.96,8.524a8.466,8.466,0,0,1,.6.63A9.129,9.129,0,0,1,7.8,10.582a1.709,1.709,0,0,1,.462.49A9.423,9.423,0,0,0,10.01,9.63a13.336,13.336,0,0,1,.854,1.134Zm.28.91H7.07V6.48h4.676ZM12.7,5.612H9c.2-.35.406-.784.6-1.2L8.568,4.2a13.288,13.288,0,0,1-.5,1.414H6.146v6.482H12.7Zm-1.9,8.848A20.523,20.523,0,0,0,9.45,12.318l-.686.322a24.633,24.633,0,0,1,1.316,2.24Zm-5.25-2.1a17.05,17.05,0,0,0-.882-2.688l-.742.21c.154.364.294.784.42,1.19l-2.156.364a26.638,26.638,0,0,0,3.038-4.62l-.868-.434a18.665,18.665,0,0,1-.994,1.89L1.9,8.412a21.175,21.175,0,0,0,1.96-3.766l-.938-.378A17.794,17.794,0,0,1,1.274,7.8c-.252.42-.49.714-.714.77a9.242,9.242,0,0,1,.322.924,6.889,6.889,0,0,1,1.946-.35,15.311,15.311,0,0,1-1.176,1.666c-.392.5-.714.868-.994.938a5.819,5.819,0,0,1,.308.91c.266-.168.672-.266,3.612-.826a7.815,7.815,0,0,1,.182.8ZM1.4,13.228a13.073,13.073,0,0,1-.784,3.22,3.689,3.689,0,0,1,.756.28,17.4,17.4,0,0,0,.812-3.36Zm1.274.14a24.262,24.262,0,0,1,.35,2.968l.784-.168c-.056-.812-.224-2.016-.392-2.968ZM3.962,13.1c.224.77.49,1.764.6,2.422l.714-.224a15.5,15.5,0,0,0-.616-2.394ZM5.936,16.35a13.484,13.484,0,0,0,.938-2.982L6.132,13.1a12.028,12.028,0,0,1-.952,2.884Zm2.716-.406c-.532,0-.616-.056-.616-.378V13.1h-.9V15.58c0,.91.294,1.148,1.428,1.148h2.016c.924,0,1.176-.378,1.274-1.9a2.461,2.461,0,0,1-.784-.336c-.056,1.288-.14,1.456-.574,1.456Zm2.814-2.6a25.774,25.774,0,0,1,1.19,2.772l.784-.364c-.266-.714-.784-1.834-1.232-2.716Zm13.9-2.1v3.99H21.532V10.358h4.41v-4.8h-1.12v3.78h-3.29V4.3h-1.12v5.04H17.206V5.57H16.128v4.788h4.284V15.23h-3.78V11.24h-1.12v5.012h9.856v.8h1.12V11.24Zm13.37-4.228a5.968,5.968,0,0,0-1.512-.952l-.49.518a5.665,5.665,0,0,1,1.5.98ZM35,12.668c-1.568.28-3.122.56-4.186.728l.14.784c1.148-.21,2.632-.5,4.088-.784Zm-1.218-1.232h-1.61v-1.4h1.61ZM31.444,9.378v2.716h3.094V9.378ZM37.66,9.14a9.632,9.632,0,0,1-1.036,2.576,20.4,20.4,0,0,1-.518-3.22h2.982V7.712H36.036c-.028-.49-.056-.98-.084-1.484h-.9c.028.5.07.994.112,1.484H30.954V8.5h4.284a19.392,19.392,0,0,0,.77,4.144,7.556,7.556,0,0,1-2.114,1.82,5.375,5.375,0,0,1,.616.658,8.78,8.78,0,0,0,1.848-1.61,2.285,2.285,0,0,0,1.456,1.358c.728.28,1.2-.28,1.386-1.806a2.62,2.62,0,0,1-.672-.462c-.1.9-.238,1.5-.434,1.442-.462-.07-.84-.546-1.134-1.288a10.865,10.865,0,0,0,1.554-3.43Zm-7.476,6.384V5.878h9.6v9.646Zm-.994-10.6v12.18h.994v-.644h9.6v.644H40.81V4.926Zm19.222-.588c-.042,2.128.042,8.932-5.768,11.872a3.106,3.106,0,0,1,.84.812,11.214,11.214,0,0,0,5.544-7.756c.672,2.6,2.17,6.062,5.67,7.7a3.175,3.175,0,0,1,.756-.882c-4.942-2.2-5.782-8.05-5.992-9.716.07-.826.084-1.526.1-2.03Zm14.63,11.746c-.448-.238-1.05-.532-1.694-.812a3.027,3.027,0,0,0,1.05-1.736h1.484V12.78h-1.4v-.56h-.854v.56H59.864c.154-.308.308-.6.448-.9h3.164v-1.3c.21.182.5.434.63.574a10.044,10.044,0,0,0,.77-1.554,19.894,19.894,0,0,0,1.036,3.7,6.943,6.943,0,0,1-2.9,2.814Zm-1.526-2.548a2.689,2.689,0,0,1-1.05,1.386c-.518-.21-1.05-.392-1.554-.546.168-.266.336-.546.518-.84Zm-3.332-3.248H59.92v.924H58.184Zm4.368,0v.924H60.746v-.924ZM67.4,7.978a16.438,16.438,0,0,1-.966,4.27,19.112,19.112,0,0,1-1.022-4.1l.07-.168Zm-8.96.308v-.9H59.92v.9ZM59.92,5.92v.77H58.436V5.92Zm2.422,0v.77h-1.6V5.92Zm-1.6,2.366v-.9h1.6v.9Zm8.638-.308V7.04H65.758c.224-.84.434-1.722.6-2.576l-.91-.182a18.543,18.543,0,0,1-1.974,6.09V9.63h-2.73V9.014H63.2V7.432h.8V6.648h-.8V5.192h-2.45v-.91H59.92v.91h-2.3V6.648h-.966v.784h.966V9.014h2.3V9.63H57.288v2.254H59.36c-.14.294-.28.588-.448.9h-2.24v.756h1.806c-.294.448-.588.9-.854,1.232a19.41,19.41,0,0,1,1.988.658,13.044,13.044,0,0,1-3.052.938,2.375,2.375,0,0,1,.448.7,12.464,12.464,0,0,0,3.57-1.232,14.416,14.416,0,0,1,1.792.868l.336-.308a4.439,4.439,0,0,1,.476.7,8.283,8.283,0,0,0,3.192-2.828,7.091,7.091,0,0,0,2.45,2.744,3.759,3.759,0,0,1,.672-.8,6.415,6.415,0,0,1-2.59-2.87A16.323,16.323,0,0,0,68.32,7.978Z" transform="translate(812 1067)" fill="#aca4a4"/>
      <rect id="Rectangle_2136" data-name="Rectangle 2136" width="14" height="13" rx="2" transform="translate(673 1072)" fill="#fff"/>
      <rect id="Rectangle_2137" data-name="Rectangle 2137" width="21" height="3" rx="1.5" transform="translate(789 1077)" fill="#4891f2"/>
    </g>
  </g>
</svg>
