<svg xmlns="http://www.w3.org/2000/svg" width="356.178" height="298.284" viewBox="0 0 356.178 298.284">
  <g id="data8" transform="translate(6446.59 10902.123)">
    <path id="Path_1603" data-name="Path 1603" d="M.58-4.184A4.668,4.668,0,0,1,1.729-7.532a3.9,3.9,0,0,1,2.965-1.21,4.113,4.113,0,0,1,2.145.568A3.712,3.712,0,0,1,8.294-6.589a5.148,5.148,0,0,1,.5,2.306,5.061,5.061,0,0,1-.527,2.338A3.6,3.6,0,0,1,6.773-.384a4.269,4.269,0,0,1-2.086.53A4.062,4.062,0,0,1,2.52-.439a3.771,3.771,0,0,1-1.447-1.6A4.848,4.848,0,0,1,.58-4.184Zm1.172.018A3.441,3.441,0,0,0,2.587-1.72a2.747,2.747,0,0,0,2.095.894,2.742,2.742,0,0,0,2.112-.9,3.648,3.648,0,0,0,.829-2.561A4.4,4.4,0,0,0,7.269-6.12,2.724,2.724,0,0,0,6.231-7.333,2.812,2.812,0,0,0,4.7-7.764a2.906,2.906,0,0,0-2.077.829A3.7,3.7,0,0,0,1.752-4.166ZM10.283,0V-8.59h6.211v1.014H11.42v2.631h4.752v1.008H11.42v2.924h5.273V0ZM24.393-3.012l1.137.287A3.826,3.826,0,0,1,24.243-.589a3.544,3.544,0,0,1-2.271.735,4.08,4.08,0,0,1-2.259-.565A3.531,3.531,0,0,1,18.39-2.057a5.843,5.843,0,0,1-.454-2.3A5.062,5.062,0,0,1,18.448-6.7a3.513,3.513,0,0,1,1.459-1.518,4.263,4.263,0,0,1,2.083-.519,3.521,3.521,0,0,1,2.168.656,3.408,3.408,0,0,1,1.225,1.846l-1.119.264A2.655,2.655,0,0,0,23.4-7.336a2.311,2.311,0,0,0-1.43-.428,2.777,2.777,0,0,0-1.655.475,2.506,2.506,0,0,0-.935,1.274,5.131,5.131,0,0,0-.27,1.649,5.242,5.242,0,0,0,.319,1.913A2.379,2.379,0,0,0,20.42-1.23a2.785,2.785,0,0,0,1.459.4A2.445,2.445,0,0,0,23.5-1.377,2.819,2.819,0,0,0,24.393-3.012ZM26.93,0V-8.59h2.959a7.177,7.177,0,0,1,1.529.123,2.909,2.909,0,0,1,1.26.615,3.5,3.5,0,0,1,1.017,1.468,5.762,5.762,0,0,1,.337,2.042A6,6,0,0,1,33.8-2.607a4.208,4.208,0,0,1-.586,1.251,3.113,3.113,0,0,1-.782.779,3.188,3.188,0,0,1-1.025.431A5.852,5.852,0,0,1,30.029,0Zm1.137-1.014H29.9a4.451,4.451,0,0,0,1.333-.158A1.907,1.907,0,0,0,32-1.617a2.71,2.71,0,0,0,.63-1.087,5.314,5.314,0,0,0,.226-1.655,4,4,0,0,0-.442-2.071,2.226,2.226,0,0,0-1.075-.97,4.444,4.444,0,0,0-1.471-.176h-1.8ZM45.926-3.5q0,.094-.1.094l-1.57-.023H41V-.539L41.027.732a.083.083,0,0,1-.094.094h-.639A.083.083,0,0,1,40.2.732l.023-1.271V-3.434H37.066l-1.559.023a.083.083,0,0,1-.094-.094v-.568a.083.083,0,0,1,.094-.094l1.559.023h3.158V-8.531H37.74l-1.658.023a.083.083,0,0,1-.094-.094v-.557a.083.083,0,0,1,.094-.094l1.658.023h5.941l1.641-.023q.1,0,.1.094V-8.6q0,.094-.1.094l-1.641-.023H41v4.389h3.252l1.57-.023q.1,0,.1.094ZM44.654-7.535q0,.053-.105.141a.929.929,0,0,0-.217.328,14.409,14.409,0,0,1-1.312,2.18q-.117.158-.164.158a.674.674,0,0,1-.182-.094,1.566,1.566,0,0,0-.434-.205,10.6,10.6,0,0,0,1.418-2.338,2.59,2.59,0,0,0,.182-.6,5.1,5.1,0,0,1,.709.3Q44.654-7.611,44.654-7.535ZM38.813-5.174a.248.248,0,0,1,.012.059q0,.047-.111.088l-.4.17a.566.566,0,0,1-.152.047q-.035,0-.064-.088a12.089,12.089,0,0,0-1.3-2.6.1.1,0,0,1-.029-.059q0-.041.141-.111l.334-.176a.247.247,0,0,1,.1-.041q.029,0,.07.064A11.856,11.856,0,0,1,38.813-5.174ZM57.627-7.717q-.029.3-.029.914a39.792,39.792,0,0,1-.369,5.736A2.894,2.894,0,0,1,56.689.328a1.24,1.24,0,0,1-.973.416q-.381,0-1.125-.07a.406.406,0,0,1-.217-.064A.581.581,0,0,1,54.316.4a1.941,1.941,0,0,0-.193-.557,8.785,8.785,0,0,0,1.57.17.644.644,0,0,0,.58-.434,3.556,3.556,0,0,0,.252-.908,37.018,37.018,0,0,0,.334-5.795H52.611A10.134,10.134,0,0,1,51.422-5.3q-.1.123-.158.123T51.1-5.314a1.226,1.226,0,0,0-.375-.311,9.5,9.5,0,0,0,1.91-3.264,4.99,4.99,0,0,0,.24-1.072,5.9,5.9,0,0,1,.721.205q.164.059.164.146a.34.34,0,0,1-.117.205,1.963,1.963,0,0,0-.287.6q-.264.68-.422,1.008h3.158l1.424-.023Q57.627-7.822,57.627-7.717ZM51.164-3.229a2.174,2.174,0,0,0-.029.346,1.13,1.13,0,0,0,.006.123q.006.111.006.117a.207.207,0,0,1-.032.132.642.642,0,0,1-.179.108,22.222,22.222,0,0,1-2.643,1.2,2.62,2.62,0,0,0-.422.193.262.262,0,0,1-.176.094q-.082,0-.135-.117a4.226,4.226,0,0,1-.264-.686A5.593,5.593,0,0,0,48.463-2l.469-.17v-3.8H48.6l-1.09.023q-.1,0-.1-.094v-.5q0-.111.1-.111l1.09.023h.328V-8.062a11.6,11.6,0,0,0-.088-1.658q.4.018.779.07.135.023.135.111a1.472,1.472,0,0,1-.047.205,6.217,6.217,0,0,0-.076,1.248v1.447h.146l1.078-.023q.1,0,.1.111v.5q0,.094-.1.094l-1.078-.023h-.146v3.516A13.629,13.629,0,0,0,51.164-3.229Zm4.652-.3a2.238,2.238,0,0,0-.018.3q0,.094.006.205v.041q.006.053.006.07a.2.2,0,0,1-.047.146.86.86,0,0,1-.164.1,17.918,17.918,0,0,1-2.906,1.371,1.23,1.23,0,0,0-.416.217.282.282,0,0,1-.182.094q-.082,0-.135-.117a3.25,3.25,0,0,1-.264-.7,5,5,0,0,0,1.166-.311A22.433,22.433,0,0,0,55.816-3.527ZM55.488-4.8a.083.083,0,0,1-.094.094l-1.02-.023h-.949l-1.008.023a.083.083,0,0,1-.094-.094v-.516q0-.1.094-.1l1.008.023h.949l1.02-.023q.094,0,.094.1Z" transform="translate(-6160.401 -10892.162)" fill="#bfbfbf"/>
    <g id="Group_1915" data-name="Group 1915" transform="translate(-3770 -1302.778)">
      <g id="data_7-07" transform="translate(-2677 -9574.602)">
        <g id="Group_1881" data-name="Group 1881" transform="translate(66.78 260.351)">
          <g id="Group_1878" data-name="Group 1878" transform="translate(0 2.037)">
            <path id="Path_1602" data-name="Path 1602" d="M.457-3.883A7.205,7.205,0,0,1,.744-6.131,2.8,2.8,0,0,1,1.6-7.444a2.183,2.183,0,0,1,1.426-.462,2.327,2.327,0,0,1,1.112.255,2.125,2.125,0,0,1,.79.736,3.948,3.948,0,0,1,.489,1.171,7.779,7.779,0,0,1,.177,1.861,7.226,7.226,0,0,1-.285,2.237A2.8,2.8,0,0,1,4.455-.33,2.183,2.183,0,0,1,3.024.134,2.161,2.161,0,0,1,1.235-.682,5.189,5.189,0,0,1,.457-3.883Zm.994,0A4.937,4.937,0,0,0,1.9-1.3a1.337,1.337,0,0,0,1.12.642,1.336,1.336,0,0,0,1.12-.645A4.939,4.939,0,0,0,4.6-3.883a4.936,4.936,0,0,0-.454-2.583,1.347,1.347,0,0,0-1.131-.639,1.239,1.239,0,0,0-1.063.564A4.994,4.994,0,0,0,1.45-3.883Z" transform="translate(0 10)" fill="#55585f"/>
            <path id="Path_1601" data-name="Path 1601" d="M4.471,0H3.416V-6.721a5.451,5.451,0,0,1-1,.727,7.082,7.082,0,0,1-1.11.545v-1.02A6.369,6.369,0,0,0,2.854-7.477a3.964,3.964,0,0,0,.938-1.148h.68Zm2.7-4.236a7.86,7.86,0,0,1,.313-2.452,3.05,3.05,0,0,1,.932-1.433,2.382,2.382,0,0,1,1.556-.5,2.538,2.538,0,0,1,1.213.278,2.319,2.319,0,0,1,.861.8,4.306,4.306,0,0,1,.533,1.277,8.487,8.487,0,0,1,.193,2.03,7.882,7.882,0,0,1-.311,2.44A3.051,3.051,0,0,1,11.534-.36,2.382,2.382,0,0,1,9.973.146,2.357,2.357,0,0,1,8.021-.744,5.661,5.661,0,0,1,7.172-4.236Zm1.084,0a5.386,5.386,0,0,0,.5,2.815,1.459,1.459,0,0,0,1.222.7,1.458,1.458,0,0,0,1.222-.7,5.388,5.388,0,0,0,.5-2.812,5.384,5.384,0,0,0-.5-2.818,1.47,1.47,0,0,0-1.233-.7,1.351,1.351,0,0,0-1.16.615A5.448,5.448,0,0,0,8.256-4.236Z" transform="translate(31.738 11)" fill="#55585f"/>
            <path id="Path_1600" data-name="Path 1600" d="M6.041-1.014V0H.363A1.866,1.866,0,0,1,.486-.732a3.875,3.875,0,0,1,.694-1.143,10.878,10.878,0,0,1,1.38-1.3A11.7,11.7,0,0,0,4.453-5a2.178,2.178,0,0,0,.492-1.269A1.409,1.409,0,0,0,4.5-7.321a1.617,1.617,0,0,0-1.169-.431,1.647,1.647,0,0,0-1.219.457,1.729,1.729,0,0,0-.463,1.266L.563-6.141A2.668,2.668,0,0,1,1.4-7.989a2.858,2.858,0,0,1,1.951-.636,2.723,2.723,0,0,1,1.957.686,2.251,2.251,0,0,1,.721,1.7,2.577,2.577,0,0,1-.211,1.014,3.934,3.934,0,0,1-.7,1.049A17.058,17.058,0,0,1,3.492-2.666q-.949.8-1.219,1.081a3.468,3.468,0,0,0-.445.571ZM7.172-4.236a7.86,7.86,0,0,1,.313-2.452,3.05,3.05,0,0,1,.932-1.433,2.382,2.382,0,0,1,1.556-.5,2.538,2.538,0,0,1,1.213.278,2.319,2.319,0,0,1,.861.8,4.306,4.306,0,0,1,.533,1.277,8.487,8.487,0,0,1,.193,2.03,7.882,7.882,0,0,1-.311,2.44A3.051,3.051,0,0,1,11.534-.36,2.382,2.382,0,0,1,9.973.146,2.357,2.357,0,0,1,8.021-.744,5.661,5.661,0,0,1,7.172-4.236Zm1.084,0a5.386,5.386,0,0,0,.5,2.815,1.459,1.459,0,0,0,1.222.7,1.458,1.458,0,0,0,1.222-.7,5.388,5.388,0,0,0,.5-2.812,5.384,5.384,0,0,0-.5-2.818,1.47,1.47,0,0,0-1.233-.7,1.351,1.351,0,0,0-1.16.615A5.448,5.448,0,0,0,8.256-4.236Z" transform="translate(66.78 11)" fill="#55585f"/>
            <path id="Path_1599" data-name="Path 1599" d="M.5-2.268l1.055-.141a2.324,2.324,0,0,0,.618,1.292,1.527,1.527,0,0,0,1.063.4A1.7,1.7,0,0,0,4.5-1.236,1.74,1.74,0,0,0,5.01-2.514a1.618,1.618,0,0,0-.475-1.2,1.641,1.641,0,0,0-1.207-.472,3.028,3.028,0,0,0-.744.117L2.7-4.992a1.612,1.612,0,0,0,.17.012,2.172,2.172,0,0,0,1.213-.352,1.2,1.2,0,0,0,.539-1.084,1.282,1.282,0,0,0-.393-.961,1.4,1.4,0,0,0-1.014-.381,1.436,1.436,0,0,0-1.025.387,1.941,1.941,0,0,0-.527,1.16L.609-6.4a2.711,2.711,0,0,1,.879-1.644,2.541,2.541,0,0,1,1.705-.583,2.809,2.809,0,0,1,1.295.3,2.183,2.183,0,0,1,.905.823,2.115,2.115,0,0,1,.313,1.107,1.813,1.813,0,0,1-.3,1.014,2.04,2.04,0,0,1-.885.727,1.993,1.993,0,0,1,1.184.729,2.22,2.22,0,0,1,.422,1.386A2.535,2.535,0,0,1,5.309-.63,2.885,2.885,0,0,1,3.234.152,2.7,2.7,0,0,1,1.356-.521,2.606,2.606,0,0,1,.5-2.268ZM7.172-4.236a7.86,7.86,0,0,1,.313-2.452,3.05,3.05,0,0,1,.932-1.433,2.382,2.382,0,0,1,1.556-.5,2.538,2.538,0,0,1,1.213.278,2.319,2.319,0,0,1,.861.8,4.306,4.306,0,0,1,.533,1.277,8.487,8.487,0,0,1,.193,2.03,7.882,7.882,0,0,1-.311,2.44A3.051,3.051,0,0,1,11.534-.36,2.382,2.382,0,0,1,9.973.146,2.357,2.357,0,0,1,8.021-.744,5.661,5.661,0,0,1,7.172-4.236Zm1.084,0a5.386,5.386,0,0,0,.5,2.815,1.459,1.459,0,0,0,1.222.7,1.458,1.458,0,0,0,1.222-.7,5.388,5.388,0,0,0,.5-2.812,5.384,5.384,0,0,0-.5-2.818,1.47,1.47,0,0,0-1.233-.7,1.351,1.351,0,0,0-1.16.615A5.448,5.448,0,0,0,8.256-4.236Z" transform="translate(101.823 11)" fill="#55585f"/>
            <path id="Path_1598" data-name="Path 1598" d="M3.879,0V-2.057H.152v-.967L4.072-8.59h.861v5.566h1.16v.967H4.934V0Zm0-3.023V-6.9L1.189-3.023ZM7.172-4.236a7.86,7.86,0,0,1,.313-2.452,3.05,3.05,0,0,1,.932-1.433,2.382,2.382,0,0,1,1.556-.5,2.538,2.538,0,0,1,1.213.278,2.319,2.319,0,0,1,.861.8,4.306,4.306,0,0,1,.533,1.277,8.487,8.487,0,0,1,.193,2.03,7.882,7.882,0,0,1-.311,2.44A3.051,3.051,0,0,1,11.534-.36,2.382,2.382,0,0,1,9.973.146,2.357,2.357,0,0,1,8.021-.744,5.661,5.661,0,0,1,7.172-4.236Zm1.084,0a5.386,5.386,0,0,0,.5,2.815,1.459,1.459,0,0,0,1.222.7,1.458,1.458,0,0,0,1.222-.7,5.388,5.388,0,0,0,.5-2.812,5.384,5.384,0,0,0-.5-2.818,1.47,1.47,0,0,0-1.233-.7,1.351,1.351,0,0,0-1.16.615A5.448,5.448,0,0,0,8.256-4.236Z" transform="translate(136.859 11)" fill="#55585f"/>
            <path id="Path_1597" data-name="Path 1597" d="M.5-2.25l1.107-.094a1.986,1.986,0,0,0,.571,1.216,1.551,1.551,0,0,0,1.081.407,1.684,1.684,0,0,0,1.289-.574,2.164,2.164,0,0,0,.527-1.523,1.956,1.956,0,0,0-.507-1.424A1.767,1.767,0,0,0,3.24-4.764a1.839,1.839,0,0,0-.92.231,1.786,1.786,0,0,0-.645.6l-.99-.129.832-4.412H5.789v1.008H2.361L1.9-5.156A2.8,2.8,0,0,1,3.521-5.7a2.571,2.571,0,0,1,1.9.779,2.724,2.724,0,0,1,.773,2A3.128,3.128,0,0,1,5.514-.9,2.723,2.723,0,0,1,3.258.146,2.779,2.779,0,0,1,1.345-.51,2.561,2.561,0,0,1,.5-2.25ZM7.172-4.236a7.86,7.86,0,0,1,.313-2.452,3.05,3.05,0,0,1,.932-1.433,2.382,2.382,0,0,1,1.556-.5,2.538,2.538,0,0,1,1.213.278,2.319,2.319,0,0,1,.861.8,4.306,4.306,0,0,1,.533,1.277,8.487,8.487,0,0,1,.193,2.03,7.882,7.882,0,0,1-.311,2.44A3.051,3.051,0,0,1,11.534-.36,2.382,2.382,0,0,1,9.973.146,2.357,2.357,0,0,1,8.021-.744,5.661,5.661,0,0,1,7.172-4.236Zm1.084,0a5.386,5.386,0,0,0,.5,2.815,1.459,1.459,0,0,0,1.222.7,1.458,1.458,0,0,0,1.222-.7,5.388,5.388,0,0,0,.5-2.812,5.384,5.384,0,0,0-.5-2.818,1.47,1.47,0,0,0-1.233-.7,1.351,1.351,0,0,0-1.16.615A5.448,5.448,0,0,0,8.256-4.236Z" transform="translate(171.907 11)" fill="#55585f"/>
            <path id="Path_1596" data-name="Path 1596" d="M5.971-6.486,4.922-6.4a1.986,1.986,0,0,0-.4-.9,1.4,1.4,0,0,0-1.055-.451,1.449,1.449,0,0,0-.885.281A2.4,2.4,0,0,0,1.8-6.416,5.542,5.542,0,0,0,1.5-4.43a2.444,2.444,0,0,1,.932-.861,2.506,2.506,0,0,1,1.154-.281,2.391,2.391,0,0,1,1.8.776,2.787,2.787,0,0,1,.741,2.007,3.3,3.3,0,0,1-.349,1.5A2.54,2.54,0,0,1,4.816-.223,2.616,2.616,0,0,1,3.434.146a2.7,2.7,0,0,1-2.15-.97,4.9,4.9,0,0,1-.832-3.2,5.73,5.73,0,0,1,.92-3.621,2.645,2.645,0,0,1,2.162-.984,2.426,2.426,0,0,1,1.661.568A2.413,2.413,0,0,1,5.971-6.486Zm-4.307,3.7A2.447,2.447,0,0,0,1.9-1.74a1.725,1.725,0,0,0,.647.759,1.619,1.619,0,0,0,.873.261A1.488,1.488,0,0,0,4.564-1.26a2.122,2.122,0,0,0,.48-1.465,1.985,1.985,0,0,0-.475-1.4,1.56,1.56,0,0,0-1.2-.513,1.627,1.627,0,0,0-1.213.513A1.848,1.848,0,0,0,1.664-2.783ZM7.172-4.236a7.86,7.86,0,0,1,.313-2.452,3.05,3.05,0,0,1,.932-1.433,2.382,2.382,0,0,1,1.556-.5,2.538,2.538,0,0,1,1.213.278,2.319,2.319,0,0,1,.861.8,4.306,4.306,0,0,1,.533,1.277,8.487,8.487,0,0,1,.193,2.03,7.882,7.882,0,0,1-.311,2.44A3.051,3.051,0,0,1,11.534-.36,2.382,2.382,0,0,1,9.973.146,2.357,2.357,0,0,1,8.021-.744,5.661,5.661,0,0,1,7.172-4.236Zm1.084,0a5.386,5.386,0,0,0,.5,2.815,1.459,1.459,0,0,0,1.222.7,1.458,1.458,0,0,0,1.222-.7,5.388,5.388,0,0,0,.5-2.812,5.384,5.384,0,0,0-.5-2.818,1.47,1.47,0,0,0-1.233-.7,1.351,1.351,0,0,0-1.16.615A5.448,5.448,0,0,0,8.256-4.236Z" transform="translate(206.956 11)" fill="#55585f"/>
            <path id="Path_1595" data-name="Path 1595" d="M.568-7.465V-8.479H6.129v.82A11.718,11.718,0,0,0,4.5-5.338,14.132,14.132,0,0,0,3.258-2.361,11.063,11.063,0,0,0,2.854,0H1.77a10.526,10.526,0,0,1,.4-2.449A12.861,12.861,0,0,1,3.261-5.218,11.868,11.868,0,0,1,4.775-7.465Zm6.6,3.229a7.86,7.86,0,0,1,.313-2.452,3.05,3.05,0,0,1,.932-1.433,2.382,2.382,0,0,1,1.556-.5,2.538,2.538,0,0,1,1.213.278,2.319,2.319,0,0,1,.861.8,4.306,4.306,0,0,1,.533,1.277,8.487,8.487,0,0,1,.193,2.03,7.882,7.882,0,0,1-.311,2.44A3.051,3.051,0,0,1,11.534-.36,2.382,2.382,0,0,1,9.973.146,2.357,2.357,0,0,1,8.021-.744,5.661,5.661,0,0,1,7.172-4.236Zm1.084,0a5.386,5.386,0,0,0,.5,2.815,1.459,1.459,0,0,0,1.222.7,1.458,1.458,0,0,0,1.222-.7,5.388,5.388,0,0,0,.5-2.812,5.384,5.384,0,0,0-.5-2.818,1.47,1.47,0,0,0-1.233-.7,1.351,1.351,0,0,0-1.16.615A5.448,5.448,0,0,0,8.256-4.236Z" transform="translate(241.993 11)" fill="#55585f"/>
            <path id="Path_1594" data-name="Path 1594" d="M2.121-4.658a1.985,1.985,0,0,1-.973-.686A1.793,1.793,0,0,1,.832-6.41a2.085,2.085,0,0,1,.674-1.576A2.5,2.5,0,0,1,3.3-8.625a2.516,2.516,0,0,1,1.811.653,2.115,2.115,0,0,1,.686,1.591,1.752,1.752,0,0,1-.313,1.04,1.977,1.977,0,0,1-.952.683,2.309,2.309,0,0,1,1.2.832,2.285,2.285,0,0,1,.413,1.371A2.468,2.468,0,0,1,5.367-.6a2.833,2.833,0,0,1-2.051.75A2.827,2.827,0,0,1,1.266-.606,2.5,2.5,0,0,1,.486-2.484a2.27,2.27,0,0,1,.425-1.4A2.127,2.127,0,0,1,2.121-4.658ZM1.91-6.445a1.337,1.337,0,0,0,.393,1,1.391,1.391,0,0,0,1.02.387,1.364,1.364,0,0,0,1-.384,1.269,1.269,0,0,0,.39-.94,1.316,1.316,0,0,0-.4-.976,1.367,1.367,0,0,0-1-.4,1.381,1.381,0,0,0-1,.387A1.245,1.245,0,0,0,1.91-6.445ZM1.57-2.479a1.908,1.908,0,0,0,.214.873,1.509,1.509,0,0,0,.636.653,1.859,1.859,0,0,0,.908.231,1.7,1.7,0,0,0,1.248-.486,1.664,1.664,0,0,0,.492-1.236A1.692,1.692,0,0,0,4.562-3.7a1.737,1.737,0,0,0-1.269-.5,1.667,1.667,0,0,0-1.233.492A1.675,1.675,0,0,0,1.57-2.479Zm5.6-1.758a7.86,7.86,0,0,1,.313-2.452,3.05,3.05,0,0,1,.932-1.433,2.382,2.382,0,0,1,1.556-.5,2.538,2.538,0,0,1,1.213.278,2.319,2.319,0,0,1,.861.8,4.306,4.306,0,0,1,.533,1.277,8.487,8.487,0,0,1,.193,2.03,7.882,7.882,0,0,1-.311,2.44A3.051,3.051,0,0,1,11.534-.36,2.382,2.382,0,0,1,9.973.146,2.357,2.357,0,0,1,8.021-.744,5.661,5.661,0,0,1,7.172-4.236Zm1.084,0a5.386,5.386,0,0,0,.5,2.815,1.459,1.459,0,0,0,1.222.7,1.458,1.458,0,0,0,1.222-.7,5.388,5.388,0,0,0,.5-2.812,5.384,5.384,0,0,0-.5-2.818,1.47,1.47,0,0,0-1.233-.7,1.351,1.351,0,0,0-1.16.615A5.448,5.448,0,0,0,8.256-4.236Z" transform="translate(277.034 11)" fill="#55585f"/>
          </g>
          <line id="Line_480" data-name="Line 480" x2="280.338" transform="translate(3.286)" fill="none" stroke="#55585f" stroke-miterlimit="10" stroke-width="1"/>
        </g>
        <g id="Group_1884" data-name="Group 1884" transform="translate(70.066 0)">
          <line id="Line_490" data-name="Line 490" y1="260.352" transform="translate(0)" fill="none" stroke="#55585f" stroke-miterlimit="10" stroke-width="1"/>
        </g>
        <g id="Group_1887" data-name="Group 1887" transform="translate(70.547 3.278)">
          <g id="Group_1886" data-name="Group 1886">
            <g id="Group_1885" data-name="Group 1885">
              <rect id="Rectangle_2379" data-name="Rectangle 2379" width="279.857" height="16.86" fill="#efefef"/>
              <rect id="Rectangle_2380" data-name="Rectangle 2380" width="276.391" height="16.86" transform="translate(0 23.322)" fill="#efefef"/>
              <rect id="Rectangle_2381" data-name="Rectangle 2381" width="276.391" height="16.86" transform="translate(0 46.652)" fill="#efefef"/>
              <rect id="Rectangle_2382" data-name="Rectangle 2382" width="269.366" height="16.86" transform="translate(0 70.071)" fill="#efefef"/>
              <rect id="Rectangle_2383" data-name="Rectangle 2383" width="269.366" height="16.86" transform="translate(0 93.397)" fill="#efefef"/>
              <rect id="Rectangle_2384" data-name="Rectangle 2384" width="269.366" height="16.86" transform="translate(0 116.817)" fill="#efefef"/>
              <rect id="Rectangle_2385" data-name="Rectangle 2385" width="262.342" height="16.86" transform="translate(0 140.143)" fill="#efefef"/>
              <rect id="Rectangle_2386" data-name="Rectangle 2386" width="199.786" height="16.86" transform="translate(0 163.562)" fill="#4891f2"/>
              <rect id="Rectangle_2387" data-name="Rectangle 2387" width="196.227" height="16.86" transform="translate(0 186.888)" fill="#efefef"/>
              <rect id="Rectangle_2388" data-name="Rectangle 2388" width="185.737" height="16.86" transform="translate(0 210.218)" fill="#efefef"/>
              <rect id="Rectangle_2389" data-name="Rectangle 2389" width="161.197" height="16.86" transform="translate(0 233.634)" fill="#efefef"/>
            </g>
          </g>
        </g>
        <g id="Group_1888" data-name="Group 1888" transform="translate(0 2.534)">
          <path id="Path_1593" data-name="Path 1593" d="M11.162-4.354q0,.094-.1.094L9.375-4.271H3.158v1.084H8.977l1.705-.023a.093.093,0,0,1,.105.105q-.012.088-.082.756a11.644,11.644,0,0,1-.264,1.635,2.515,2.515,0,0,1-.316.838,1.158,1.158,0,0,1-.99.516q-.492,0-.855-.023A.377.377,0,0,1,8.092.574.511.511,0,0,1,8.039.41a1.979,1.979,0,0,0-.176-.545,6.694,6.694,0,0,0,1.1.088.648.648,0,0,0,.574-.264,3.564,3.564,0,0,0,.281-.973A10.948,10.948,0,0,0,9.984-2.6H4.248l-1.74.023a.083.083,0,0,1-.094-.094L2.438-4.09V-7.148L2.414-8.543a.083.083,0,0,1,.094-.094l1.646.023h.457A8.58,8.58,0,0,0,5-9.393a2.7,2.7,0,0,0,.193-.686q.48.094.744.17.135.035.135.129a.192.192,0,0,1-.094.146.641.641,0,0,0-.193.264q-.293.574-.4.756H7.453l1.658-.023q.082,0,.082.094l-.023.855v.861l.023.85q0,.094-.082.094L7.453-5.906H3.158v1H9.375l1.688-.023q.1,0,.1.094ZM8.449-6.527V-7.975H3.158v1.447ZM2.543-1.752A7.085,7.085,0,0,1,1.453.5a.125.125,0,0,1-.088.059A.378.378,0,0,1,1.2.48L.908.287Q.82.229.82.182A.157.157,0,0,1,.85.105,5.97,5.97,0,0,0,1.934-1.969q.018-.076.064-.076a.266.266,0,0,1,.1.029l.311.105q.146.059.146.111A.135.135,0,0,1,2.543-1.752ZM4.559.146a.193.193,0,0,1,.006.047q0,.082-.152.094L4,.322a.622.622,0,0,1-.07.006q-.1,0-.1-.111A9.773,9.773,0,0,0,3.609-1.74.252.252,0,0,1,3.6-1.787q0-.059.141-.07L4.09-1.91a.794.794,0,0,1,.082-.006q.076,0,.1.094A12.292,12.292,0,0,1,4.559.146ZM6.7-.252A.484.484,0,0,1,6.7-.187q0,.059-.117.082l-.393.082a.559.559,0,0,1-.111.018q-.059,0-.082-.1a10.985,10.985,0,0,0-.457-1.682.135.135,0,0,1-.018-.053q0-.041.146-.082L6-2a.289.289,0,0,1,.088-.018q.053,0,.094.076A8.874,8.874,0,0,1,6.7-.252ZM8.59-.926a.288.288,0,0,1,.018.07q0,.041-.111.088L8.145-.65a.318.318,0,0,1-.1.023q-.053,0-.076-.082A4.911,4.911,0,0,0,7.43-1.934.157.157,0,0,1,7.4-2.01q0-.047.123-.088l.252-.088a.418.418,0,0,1,.111-.029q.047,0,.105.076A5.083,5.083,0,0,1,8.59-.926ZM23.174-7.734q0,.082-.105.082L21.48-7.676H18.217V-6.4h1.459l1.658-.023a.088.088,0,0,1,.1.1l-.023.979v1.166l.023.984q0,.094-.1.094l-1.658-.023h-.357V-.662q0,.416.287.469a6.955,6.955,0,0,0,1.143.07,2.822,2.822,0,0,0,1.406-.205.8.8,0,0,0,.27-.5,6.355,6.355,0,0,0,.076-.779,2.126,2.126,0,0,0,.48.24q.2.07.2.158a1.079,1.079,0,0,1-.018.141,3.677,3.677,0,0,1-.187.9,1.127,1.127,0,0,1-.328.422,3.923,3.923,0,0,1-1.934.3A5.753,5.753,0,0,1,19.078.4a.765.765,0,0,1-.492-.814V-3.123H17.121a3.593,3.593,0,0,1-.932,2.367A5.582,5.582,0,0,1,13.441.709a.843.843,0,0,1-.17.035q-.07,0-.182-.205a1.31,1.31,0,0,0-.369-.434A5,5,0,0,0,15.727-1.33a2.881,2.881,0,0,0,.633-1.793h-.193L14.508-3.1a.083.083,0,0,1-.094-.094l.023-.984V-5.344l-.023-.979q0-.1.094-.1l1.658.023h1.295V-7.676H14.52l-1.582.023q-.1,0-.1-.082v-.545q0-.094.1-.094l1.582.023h2.941v-.17a8.9,8.9,0,0,0-.1-1.465,7.583,7.583,0,0,1,.826.064q.158.023.158.105a.619.619,0,0,1-.059.205,4.363,4.363,0,0,0-.07,1.02v.24H21.48l1.588-.023q.105,0,.105.094Zm-2.5,3.99V-5.777H15.17v2.033Zm12.463-.439q0,.094-.082.094l-1.594-.023h-1.2V-3.6H31l1.441-.023a.083.083,0,0,1,.094.094l-.023.756V-2.2l.023.75a.083.083,0,0,1-.094.094L31-1.383h-.469A6.834,6.834,0,0,0,32.842-.264a1.394,1.394,0,0,0-.275.346q-.082.158-.141.158a.448.448,0,0,1-.158-.053,6.384,6.384,0,0,1-2.039-1.354q.006.82.035,1.377Q30.27.3,30.281.5q.006.082.006.105,0,.1-.094.1h-.422q-.094,0-.094-.1,0-.023.012-.223.041-.609.059-1.553A7.3,7.3,0,0,1,27.193.445.719.719,0,0,1,27.012.5q-.064,0-.158-.164a1.019,1.019,0,0,0-.287-.311,7.92,7.92,0,0,0,2.795-1.406h-.287l-1.441.029a.083.083,0,0,1-.094-.094l.023-.75v-.574l-.023-.756a.083.083,0,0,1,.094-.094l1.441.023H29.7v-.516H28.582l-1.594.023q-.1,0-.1-.094V-4.5q0-.094.1-.094l1.594.023H29.7a4.042,4.042,0,0,0-.076-.686,4.759,4.759,0,0,1,.615.059q.141.023.141.088a.564.564,0,0,1-.059.141.991.991,0,0,0-.059.4h1.2l1.594-.023q.082,0,.082.094Zm-1.2,2.432V-2.3H30.252v.551Zm0-.92v-.533H30.252v.533Zm-2.232.92V-2.3H28.125v.551Zm0-.92v-.533H28.125v.533ZM34.752-.387a1.646,1.646,0,0,1-.082.6A.71.71,0,0,1,34.441.5a2.187,2.187,0,0,1-1.236.229.4.4,0,0,1-.229-.041A.469.469,0,0,1,32.912.5a1.355,1.355,0,0,0-.176-.469,7.5,7.5,0,0,0,.8.047q.34,0,.428-.123a.789.789,0,0,0,.088-.451v-4.74H31.922l-1.277.023a.083.083,0,0,1-.094-.094l.023-.8v-.785l-.023-.826a.083.083,0,0,1,.094-.094l1.277.023h1.447l1.277-.023a.083.083,0,0,1,.094.094l-.023,1.441v4.213Zm-.7-5.3V-6.3H31.213v.609Zm0-1.043v-.586H31.213v.586ZM29.426-5.3a.083.083,0,0,1-.094.094l-1.184-.023H26.027v4.1l.012,1.9a.073.073,0,0,1-.082.082h-.533q-.094,0-.094-.082l.023-1.9V-5.818l-.023-1.9a.083.083,0,0,1,.094-.094l1.336.023h1.389l1.184-.023a.083.083,0,0,1,.094.094l-.029.879v.656Zm-.662-.387V-6.3H26.027v.609Zm0-1.043v-.586H26.027v.586Zm6.469-1.957q0,.082-.1.082l-1.559-.023H31.934l.023.5q0,.082-.1.082h-.5q-.094,0-.094-.082,0-.023.006-.17t.018-.334H28.641l.029.492q0,.082-.1.082h-.5q-.094,0-.094-.082,0-.023.006-.17T28-8.631H26.461l-1.576.023q-.094,0-.094-.082v-.445a.083.083,0,0,1,.094-.094l1.576.023H28a3.666,3.666,0,0,0-.088-.814q.51.018.721.047.135.023.135.105a.344.344,0,0,1-.059.158,1.192,1.192,0,0,0-.064.5h2.643a3.917,3.917,0,0,0-.082-.814q.5.018.721.047.129.023.129.105a.344.344,0,0,1-.059.158,1.3,1.3,0,0,0-.059.5h1.641l1.559-.023q.1,0,.1.094Z" transform="translate(26.281 246.617)" fill="#efefef"/>
          <path id="Path_1592" data-name="Path 1592" d="M6.316-2a.083.083,0,0,1-.094.094L4.693-1.934H2.238L.709-1.91A.083.083,0,0,1,.615-2v-.469a.083.083,0,0,1,.094-.094l1.166.023V-7.588q-.428.006-.768.018l-.229.006q-.105,0-.105-.094v-.469q0-.094.105-.094l1,.023v-.275a7.7,7.7,0,0,0-.082-1.418q.51.023.744.059.146.018.146.1a.731.731,0,0,1-.076.229,4.674,4.674,0,0,0-.059,1.02V-8.2h2.1v-.311a7.815,7.815,0,0,0-.082-1.418q.586.053.732.082.129.023.129.1a.631.631,0,0,1-.059.229,4.924,4.924,0,0,0-.059,1.031V-8.2l.914-.023a.083.083,0,0,1,.094.094v.469a.083.083,0,0,1-.094.094L6.1-7.57q-.357-.012-.791-.018v5.045l.914-.023a.083.083,0,0,1,.094.094Zm-1.67-.539V-3.867h-2.1v1.324Zm0-1.887V-5.725h-2.1V-4.43Zm0-1.869V-7.588h-2.1V-6.3Zm6.809.9q0,.094-.1.094l-1.283-.023V-1.16L10.1.732q0,.1-.094.1H9.445q-.094,0-.094-.1L9.375-1.16V-5.326H7.588v.082a14.523,14.523,0,0,1-.352,3.592A6.4,6.4,0,0,1,6.076.7q-.111.146-.158.146T5.748.732A1.71,1.71,0,0,0,5.332.469a5.724,5.724,0,0,0,1.283-2.52,14.346,14.346,0,0,0,.275-3.193v-1.9A10.665,10.665,0,0,0,6.809-8.7a3.027,3.027,0,0,1,.768.24,10.334,10.334,0,0,0,2.385-.891,2.855,2.855,0,0,0,.568-.416,3.184,3.184,0,0,1,.539.539.259.259,0,0,1,.07.146q0,.1-.146.117a2.194,2.194,0,0,0-.416.146A16.424,16.424,0,0,1,7.588-7.811v1.834H9.961L11.355-6q.1,0,.1.094ZM3.012-1.225q0,.064-.094.123a1.13,1.13,0,0,0-.252.275A8.5,8.5,0,0,1,1.084.7a.409.409,0,0,1-.17.082Q.867.779.744.621A1.5,1.5,0,0,0,.41.287,5.326,5.326,0,0,0,2.057-1.178a1.931,1.931,0,0,0,.264-.457,3.446,3.446,0,0,1,.586.281Q3.012-1.295,3.012-1.225ZM5.619-.48a1.719,1.719,0,0,0-.375.34q-.1.117-.129.117a.422.422,0,0,1-.146-.094,5.782,5.782,0,0,1-.937-1.107.189.189,0,0,1-.041-.082q0-.041.105-.1l.3-.176a.23.23,0,0,1,.1-.047q.029,0,.07.047A4.674,4.674,0,0,0,5.619-.48ZM23.508-3.932a1.427,1.427,0,0,0-.3.457q-.088.2-.152.2a.924.924,0,0,1-.176-.041,12.08,12.08,0,0,1-3.428-1.775,12.776,12.776,0,0,1-3.5,1.881.664.664,0,0,1-.182.059q-.064,0-.17-.193a1.424,1.424,0,0,0-.311-.428,11.389,11.389,0,0,0,3.6-1.775,8.409,8.409,0,0,1-1.412-1.717,8.561,8.561,0,0,1-1.359,1.313q-.123.105-.164.105t-.182-.158a1.228,1.228,0,0,0-.387-.3,8.231,8.231,0,0,0,1.688-1.553,7.2,7.2,0,0,0,.9-1.359,3.328,3.328,0,0,0,.3-.832,4.666,4.666,0,0,1,.709.217.148.148,0,0,1,.105.135.189.189,0,0,1-.094.141,1.019,1.019,0,0,0-.217.3q-.223.422-.334.609h2.725a.65.65,0,0,0,.252-.035.369.369,0,0,1,.129-.047q.105,0,.334.229.217.211.217.311a.2.2,0,0,1-.105.164.765.765,0,0,0-.252.287,10.006,10.006,0,0,1-1.74,2.174A12.033,12.033,0,0,0,23.508-3.932Zm-2.461-4.09H18.035a1.113,1.113,0,0,1-.082.123l-.076.105a6.656,6.656,0,0,0,1.553,1.8A7.711,7.711,0,0,0,21.047-8.021ZM21.973.732q0,.088-.094.088h-.557q-.094,0-.094-.088V.146H17.484V.721q0,.088-.094.088h-.527q-.111,0-.111-.088l.023-1.928v-.844l-.023-1.213q0-.094.105-.094l1.453.023h2.1l1.465-.023a.083.083,0,0,1,.094.094L21.949-2.2v.99ZM21.229-.475v-2.25H17.484v2.25ZM15.105-2.713A18.7,18.7,0,0,1,13.945.105a2.3,2.3,0,0,0-.217.5q-.041.135-.123.135a.457.457,0,0,1-.164-.07,5.11,5.11,0,0,1-.568-.41,5.643,5.643,0,0,0,.568-.85,17.027,17.027,0,0,0,1.172-2.871,2.372,2.372,0,0,0,.375.363q.164.123.164.193A.693.693,0,0,1,15.105-2.713Zm-.252-2.736q.047.047.047.07a.269.269,0,0,1-.059.111l-.252.334q-.094.129-.129.129a.144.144,0,0,1-.088-.053,8.1,8.1,0,0,0-1.617-1.3q-.059-.029-.059-.064a.231.231,0,0,1,.059-.111l.252-.316q.064-.076.105-.076a.19.19,0,0,1,.076.029A9.166,9.166,0,0,1,14.854-5.449Zm.709-2.9a.094.094,0,0,1,.041.064.308.308,0,0,1-.076.123l-.252.328q-.07.082-.117.082A.144.144,0,0,1,15.07-7.8a9.9,9.9,0,0,0-1.582-1.377.068.068,0,0,1-.041-.059q0-.041.076-.117l.24-.264q.076-.088.117-.088a.144.144,0,0,1,.064.023A8.764,8.764,0,0,1,15.563-8.35ZM35.221.17a.083.083,0,0,1-.094.094L33.662.24H30.41V.861q0,.1-.094.1h-.521Q29.7.961,29.7.879l.023-1.436V-5.186q0-.328.023-1.043-.346.516-.645.891-.117.129-.17.129T28.8-5.326a1,1,0,0,0-.311-.3,8.339,8.339,0,0,0,1.26-1.8,9.854,9.854,0,0,0,.7-1.623,4.651,4.651,0,0,0,.193-.9,5.514,5.514,0,0,1,.68.217q.135.047.135.141a.358.358,0,0,1-.105.182,1.922,1.922,0,0,0-.217.48q-.24.6-.551,1.225h1.711a8.466,8.466,0,0,0,.533-1.354,4.47,4.47,0,0,0,.152-.732,4.317,4.317,0,0,1,.686.188q.146.053.146.135a.223.223,0,0,1-.094.158.967.967,0,0,0-.217.4q-.352.891-.5,1.2h.639l1.406-.023a.083.083,0,0,1,.094.094v.48a.083.083,0,0,1-.094.094L33.639-7.1h-.756v1.705H33.3l1.389-.023q.1,0,.1.105v.457q0,.094-.1.094L33.3-4.781h-.422v1.77h.434l1.377-.023q.1,0,.1.094v.469q0,.094-.1.094L33.316-2.4h-.434v2h.779l1.465-.023a.083.083,0,0,1,.094.094Zm-3-.568v-2H30.41v2Zm0-2.613v-1.77H30.41v1.77Zm0-2.379V-7.1H30.41v1.705ZM29.027-3.709a.135.135,0,0,1,.012.047q0,.059-.141.111l-.252.07a.568.568,0,0,1-.123.023q-.076,0-.094-.094l-.205-.7q-.51.07-1.02.105V-.926l.023,1.74q0,.1-.105.1H26.59q-.094,0-.094-.1l.023-1.74V-4.066L25.377-4a1.3,1.3,0,0,0-.439.088.361.361,0,0,1-.146.047q-.088,0-.117-.158-.053-.24-.111-.639.416.041.686.041h.17q.375-.48.92-1.289A15.138,15.138,0,0,0,24.592-7.74q-.047-.035-.047-.064a.4.4,0,0,1,.088-.152l.193-.229q.076-.082.105-.082t.076.047l.48.445a14.4,14.4,0,0,0,.926-1.611,3.049,3.049,0,0,0,.2-.562,6.231,6.231,0,0,1,.615.287q.135.082.135.146t-.105.146A1.1,1.1,0,0,0,27-9.035q-.545.943-1.066,1.693.445.463.791.873.6-.961,1.008-1.682a2.744,2.744,0,0,0,.252-.574,4.72,4.72,0,0,1,.6.334q.111.076.111.135t-.117.158a2.188,2.188,0,0,0-.375.5q-1.137,1.781-2.039,2.947.914-.053,1.857-.141a9.152,9.152,0,0,0-.381-.867.114.114,0,0,1-.023-.059q0-.047.152-.105l.217-.088a.479.479,0,0,1,.117-.029.087.087,0,0,1,.076.053A12.113,12.113,0,0,1,29.027-3.709Zm-3.094.779a.26.26,0,0,1-.047.146,1.276,1.276,0,0,0-.07.357A8.941,8.941,0,0,1,25.271-.17q-.07.193-.129.193a.458.458,0,0,1-.17-.082,1.254,1.254,0,0,0-.416-.182,8.067,8.067,0,0,0,.609-2.314q.018-.187.018-.346,0-.111-.006-.246a4.735,4.735,0,0,1,.6.111Q25.934-2.988,25.934-2.93Zm2.988,2.1a.476.476,0,0,1,.006.059q0,.059-.146.105l-.27.088a.568.568,0,0,1-.123.023q-.064,0-.076-.1a11.042,11.042,0,0,0-.551-2.314.177.177,0,0,1-.018-.059q0-.047.146-.094l.24-.076a.436.436,0,0,1,.105-.023q.047,0,.076.07A12.753,12.753,0,0,1,28.922-.826ZM46.359-6.369q0,.094-.1.094L44.555-6.3H38.631v.023a21.719,21.719,0,0,1-.264,3.357,11.514,11.514,0,0,1-.439,1.811A6.819,6.819,0,0,1,37.178.4q-.1.158-.123.158-.041,0-.164-.141A1.734,1.734,0,0,0,36.445.07a5.135,5.135,0,0,0,.861-1.641,10.551,10.551,0,0,0,.352-1.594,24.512,24.512,0,0,0,.24-3.727l-.023-2.314a.083.083,0,0,1,.094-.094l1.717.023h4.869L46.26-9.3q.1,0,.1.094l-.023.914v1.008Zm-.732-.6V-8.625h-7v1.652Zm1.23,5.5a3.608,3.608,0,0,1-.223,1.189,1.2,1.2,0,0,1-.352.428,5.184,5.184,0,0,1-2.795.445A5.849,5.849,0,0,1,40.857.264a.855.855,0,0,1-.293-.4,2.33,2.33,0,0,1-.076-.674V-3.779a14.744,14.744,0,0,0-.076-1.787q.48.018.809.059.158.018.158.117a.674.674,0,0,1-.076.229,5.981,5.981,0,0,0-.07,1.3V-3a15.619,15.619,0,0,0,3.445-1.465,2.676,2.676,0,0,0,.645-.492,3.578,3.578,0,0,1,.527.457.235.235,0,0,1,.088.17q0,.117-.158.141a3.928,3.928,0,0,0-.744.34,20.833,20.833,0,0,1-3.8,1.535v1.078q0,.48.018.615a.436.436,0,0,0,.146.293,5.2,5.2,0,0,0,2.057.217,4.879,4.879,0,0,0,2.291-.3.963.963,0,0,0,.316-.557,6.242,6.242,0,0,0,.1-1.072,1.974,1.974,0,0,0,.516.264q.193.064.193.17Q46.869-1.576,46.857-1.477ZM59.326.064a.083.083,0,0,1-.094.094L57.691.135H50.332L48.791.158A.083.083,0,0,1,48.7.064V-.48a.083.083,0,0,1,.094-.094l1.541.023h1.963V-2.842H50.748l-1.02.023a.083.083,0,0,1-.094-.094l.023-1.131V-5.338l-.023-1.119a.083.083,0,0,1,.094-.094l1.02.023h1.547v-1.9H50.508l-1.582.023a.083.083,0,0,1-.094-.094v-.533a.083.083,0,0,1,.094-.094l1.582.023h6.984l1.582-.023a.083.083,0,0,1,.094.094V-8.5a.083.083,0,0,1-.094.094l-1.582-.023H55.611v1.9h1.576l1.031-.023q.088,0,.088.094l-.012,1.119v1.295l.012,1.131q0,.094-.088.094l-1.031-.023H55.611V-.551h2.08l1.541-.023a.083.083,0,0,1,.094.094Zm-1.74-3.557V-5.877H55.969l-1,.023a.083.083,0,0,1-.094-.094l.023-.961V-8.432H53V-6.92l.023.973q0,.094-.1.094l-.967-.023H50.367v2.385h1.594l.967-.023q.1,0,.1.094L53-2.373V-.551h1.9V-2.373l-.023-1.049a.083.083,0,0,1,.094-.094l1,.023Z" transform="translate(0 223.255)" fill="#efefef"/>
          <path id="Path_1591" data-name="Path 1591" d="M11.256-5.314q0,.094-.088.094L9.609-5.244H5.027A10.842,10.842,0,0,1,3.779-3.609H6.035a7.192,7.192,0,0,0-.082-1.2q.422.018.791.07.135.023.135.111a.633.633,0,0,1-.047.193,2.364,2.364,0,0,0-.088.826H8.2l1.752-.023a.083.083,0,0,1,.094.094L10.02-2.461v.65l.023.861a.868.868,0,0,1-.264.709,1.77,1.77,0,0,1-1.1.246q-.158,0-.3-.006-.17-.006-.211-.059A.749.749,0,0,1,8.1-.275a1.352,1.352,0,0,0-.205-.445q.545.053,1.008.053.41,0,.41-.445V-2.988H6.744v2.3L6.768.768q0,.082-.094.082H6.105q-.094,0-.094-.082L6.035-.686v-2.3H3.791V-1.02l.023,1A.083.083,0,0,1,3.721.07H3.164A.083.083,0,0,1,3.07-.023l.023-1V-2.941A13.209,13.209,0,0,1,1.225-1.605a1.018,1.018,0,0,1-.193.082q-.059,0-.146-.158a1.176,1.176,0,0,0-.357-.381,9.769,9.769,0,0,0,3.7-3.182H2.373L.814-5.221Q.7-5.221.7-5.314v-.51q0-.094.111-.094l1.559.023H4.629q.2-.34.375-.709a2.2,2.2,0,0,0,.17-.562q.416.07.691.146.17.041.17.117a.172.172,0,0,1-.07.135.865.865,0,0,0-.252.3q-.252.475-.316.574H9.609l1.559-.023q.088,0,.088.094ZM9.129-6.967l-.252.322q-.076.1-.123.1a.184.184,0,0,1-.088-.041Q7.33-7.365,6.275-7.846A20.019,20.019,0,0,1,2.326-6.557a1.108,1.108,0,0,1-.164.023q-.088,0-.182-.182a1.443,1.443,0,0,0-.311-.422A18.7,18.7,0,0,0,5.461-8.191q-.926-.381-2.484-.891-.07-.018-.07-.053t.082-.129l.229-.24q.082-.082.129-.082a.251.251,0,0,1,.064.012Q5-9.07,6.229-8.555a14.726,14.726,0,0,0,1.664-1.02,1.913,1.913,0,0,0,.469-.434,6.106,6.106,0,0,1,.662.328q.105.064.105.141T8.971-9.4a1.3,1.3,0,0,0-.357.176A15.866,15.866,0,0,1,7.008-8.215q.891.4,2.109,1.055.07.035.07.076A.228.228,0,0,1,9.129-6.967Zm6.7-2.42L15.791-7.57v5.4L15.8-.527a1.045,1.045,0,0,1-.287.861,1.53,1.53,0,0,1-.908.217q-.076.006-.111.006-.1,0-.129-.047a.745.745,0,0,1-.059-.187A1.569,1.569,0,0,0,14.08-.17q.34.029.563.029.1,0,.205-.006.322-.018.322-.439V-3.293H13.863A11.1,11.1,0,0,1,13.1.6q-.07.158-.117.158T12.838.662a1.4,1.4,0,0,0-.416-.293,7.163,7.163,0,0,0,.68-2.326,31.181,31.181,0,0,0,.17-3.768v-1.8l-.023-1.863a.093.093,0,0,1,.105-.105l.844.029h.7l.838-.029Q15.826-9.492,15.826-9.387ZM15.17-3.9V-6.1H13.91v.387q0,.756-.023,1.811Zm0-2.807V-8.842H13.91v2.133Zm6.252,1.588-.182.205q-.059.064-.088.064a.241.241,0,0,1-.088-.035q-.832-.422-1.189-.58a10.311,10.311,0,0,1-1.693.574.825.825,0,0,1-.176.035q-.064,0-.146-.135a.878.878,0,0,0-.24-.24A11.531,11.531,0,0,0,19.3-5.707q-.328-.135-1.26-.445-.059-.018-.059-.047t.07-.1l.141-.141q.064-.064.094-.064a.323.323,0,0,1,.064.012q.785.246,1.512.533a4.3,4.3,0,0,0,.7-.422,1.643,1.643,0,0,0,.322-.334,4.286,4.286,0,0,1,.41.223q.094.059.094.111,0,.07-.105.105a1.181,1.181,0,0,0-.316.158q-.463.316-.574.381.129.059,1.008.48.064.041.064.064A.171.171,0,0,1,21.422-5.121Zm1.395.838q0,.094-.105.094L21.1-4.213H18.205l-1.623.023a.083.083,0,0,1-.094-.094l.029-.949V-6.287l-.029-.949a.083.083,0,0,1,.094-.094l1.623.023H21.1l1.611-.023q.105,0,.105.094l-.029.949v1.055Zm-.65-.422V-6.814H17.127v2.109ZM21.844-.732a2.087,2.087,0,0,0-.047.3.47.47,0,0,1-.035.24.52.52,0,0,1-.193.088q-.773.27-1.992.586-.428.105-.457.123a.285.285,0,0,1-.141.07q-.07,0-.111-.135t-.141-.551a4.556,4.556,0,0,0,.551-.047V-2.736A6.375,6.375,0,0,0,19.2-3.949q.3.018.668.07.135.023.135.1a.328.328,0,0,1-.029.123q-.035.082-.047.105a3.276,3.276,0,0,0-.059.814V-.182A14.981,14.981,0,0,0,21.844-.732ZM18.867-.744a1.193,1.193,0,0,0-.041.322.511.511,0,0,1-.029.229.723.723,0,0,1-.193.1Q17.7.2,16.74.457a4.082,4.082,0,0,0-.451.123.329.329,0,0,1-.135.07q-.07,0-.105-.135-.123-.4-.158-.574A7.073,7.073,0,0,0,16.6-.146v-2.59a6.375,6.375,0,0,0-.082-1.213,6.68,6.68,0,0,1,.68.07q.117.023.117.1,0,.018-.059.229a3.276,3.276,0,0,0-.059.814V-.264A13.576,13.576,0,0,0,18.867-.744ZM23.76-.9Q23.607.686,22.992.686q-.51,0-.885-1.348a9.914,9.914,0,0,1-.375-2.314,7.55,7.55,0,0,0-.082-.949,6.226,6.226,0,0,1,.668.064q.135.018.135.094a1.072,1.072,0,0,1-.07.24,1.291,1.291,0,0,0-.053.41q0,.035.006.129a9.016,9.016,0,0,0,.322,2.074,3.543,3.543,0,0,0,.211.6q.123.252.188.252.135,0,.264-1.477a1.459,1.459,0,0,0,.322.3.242.242,0,0,1,.129.193Q23.771-1.008,23.76-.9Zm-1-6.955a.128.128,0,0,1,.047.076q0,.035-.07.076l-.3.17a.317.317,0,0,1-.117.041q-.041,0-.1-.064a7.61,7.61,0,0,0-1.178-1.119q-.105-.088-.105-.141,0-.035.094-.135a5.007,5.007,0,0,0,.662-.656,1.3,1.3,0,0,0,.24-.4,2.88,2.88,0,0,1,.516.182q.146.064.146.129t-.123.135a1.146,1.146,0,0,0-.287.252q-.246.246-.551.5A7.963,7.963,0,0,1,22.764-7.857Zm-2.326.012a.1.1,0,0,1,.029.059q0,.041-.076.082l-.322.17a.33.33,0,0,1-.1.035.094.094,0,0,1-.07-.047,6.863,6.863,0,0,0-1.084-1.131q-.105-.088-.105-.129t.105-.146a5.01,5.01,0,0,0,.662-.656,1.941,1.941,0,0,0,.24-.41,4.6,4.6,0,0,1,.568.205q.105.047.105.105t-.135.135a2.3,2.3,0,0,0-.275.252q-.363.363-.551.527A9.015,9.015,0,0,1,20.438-7.846ZM18.193-9.721q0,.082-.123.135a3.1,3.1,0,0,0-.287.264,7.054,7.054,0,0,1-.551.527,5.541,5.541,0,0,1,.926.938.129.129,0,0,1,.029.07q0,.041-.088.082l-.316.158a.273.273,0,0,1-.1.035q-.041,0-.076-.059a5.446,5.446,0,0,0-.979-1.09.422.422,0,0,1-.094-.146q0-.053.094-.129a4.576,4.576,0,0,0,.674-.674,1.26,1.26,0,0,0,.229-.41q.205.059.527.182Q18.193-9.791,18.193-9.721Zm.779,6.838q.041.035.041.059a.2.2,0,0,1-.053.088l-.193.229q-.053.064-.076.064t-.064-.041a5.271,5.271,0,0,0-1.008-.732q-.059-.041-.059-.064t.059-.088l.141-.17q.07-.082.105-.082a.171.171,0,0,1,.076.035A6.336,6.336,0,0,1,18.973-2.883ZM18.855-1.5a.08.08,0,0,1,.035.059.209.209,0,0,1-.047.088l-.193.223q-.053.064-.082.064T18.5-1.107a5.034,5.034,0,0,0-1-.715q-.059-.041-.059-.064a.225.225,0,0,1,.059-.094l.146-.17q.07-.076.1-.076a.228.228,0,0,1,.082.029A7.032,7.032,0,0,1,18.855-1.5Zm2.672-1.318q.041.029.041.053a.167.167,0,0,1-.053.088l-.187.217q-.053.064-.082.064a.094.094,0,0,1-.064-.041,5.225,5.225,0,0,0-1-.721q-.064-.041-.064-.064t.064-.088l.146-.158q.076-.076.105-.076a.2.2,0,0,1,.07.029A6.63,6.63,0,0,1,21.527-2.818ZM21.48-1.453q.041.035.041.059a.2.2,0,0,1-.053.088l-.182.229q-.047.059-.076.059a.1.1,0,0,1-.064-.035,4.808,4.808,0,0,0-.984-.721Q20.1-1.816,20.1-1.84a.225.225,0,0,1,.059-.094l.129-.164q.076-.082.105-.082a.19.19,0,0,1,.076.029A6.783,6.783,0,0,1,21.48-1.453Z" transform="translate(39.422 199.893)" fill="#efefef"/>
          <path id="Path_1590" data-name="Path 1590" d="M9.469.633q0,.1-.105.1h-.58Q8.7.732,8.7.633V.07H3.3V.68q0,.1-.094.1H2.637q-.094,0-.094-.1l.023-2.145V-2.508L2.543-3.926a.083.083,0,0,1,.094-.094L4.295-4H7.717L9.363-4.02q.105,0,.105.094l-.023,1.26V-1.5ZM8.7-.6V-3.322H3.3V-.6Zm2.18-4.775a.171.171,0,0,1,.035.076q0,.041-.117.129l-.346.229a.369.369,0,0,1-.152.076q-.035,0-.076-.059-.34-.486-.756-.979-3.756.48-7.312.662a1.689,1.689,0,0,0-.586.1.414.414,0,0,1-.205.07q-.1,0-.141-.146-.094-.322-.182-.791.4.018.773.018.264,0,.463-.006l.85-.035A26.584,26.584,0,0,0,4.682-9.182,3.178,3.178,0,0,0,4.893-10a4.935,4.935,0,0,1,.768.205q.182.07.182.17a.262.262,0,0,1-.094.176,1.905,1.905,0,0,0-.316.527A31.856,31.856,0,0,1,3.961-6.07Q6.6-6.223,8.953-6.48A16.761,16.761,0,0,0,7.4-7.945q-.047-.041-.047-.07t.111-.123l.264-.176a.281.281,0,0,1,.135-.076.161.161,0,0,1,.094.041A18.16,18.16,0,0,1,10.881-5.379ZM22.963-1.371l-.082.592A3.05,3.05,0,0,1,22.57.3q-.275.445-1.213.445-.551,0-1-.023a.46.46,0,0,1-.223-.053.463.463,0,0,1-.064-.176A1.21,1.21,0,0,0,19.9.07a12.889,12.889,0,0,0,1.406.088q.557,0,.709-.311A2.349,2.349,0,0,0,22.2-.926h-6.24l-.141.387q-.047.105-.117.105a.494.494,0,0,1-.088-.012l-.4-.07q-.129-.023-.129-.076a.414.414,0,0,1,.035-.117,11.1,11.1,0,0,0,.469-1.26,4.038,4.038,0,0,0,.123-.627.106.106,0,0,1,.117-.105l1.512.023h4.283v-.674H17.244l-1.635.023q-.094,0-.094-.105V-3.82a.083.083,0,0,1,.094-.094l1.635.023H20.52L22.2-3.914a.083.083,0,0,1,.094.094l-.023.627v.311l.023.662a.083.083,0,0,1-.094.094L20.52-2.15H16.342q-.141.5-.205.686h5.039l1.682-.023q.111,0,.111.088A.1.1,0,0,1,22.963-1.371Zm.445-5.32a.135.135,0,0,1,.018.053q0,.029-.1.076l-.182.082a.325.325,0,0,1-.111.041q-.035,0-.07-.076a2.937,2.937,0,0,1-.117-.287l-.686.1V-5.35l.023.838q0,.1-.094.1h-.4q-.082,0-.082-.1l.023-.838V-6.633q-.445.047-.621.059a1.383,1.383,0,0,0-.422.088.254.254,0,0,1-.123.059q-.07,0-.105-.135a2.758,2.758,0,0,1-.094-.445q.17.012.3.012t.3-.012q.105-.105.563-.621a8.3,8.3,0,0,0-.979-.914q-.041-.029-.041-.053a.252.252,0,0,1,.059-.088l.17-.193q.053-.064.082-.064a.133.133,0,0,1,.076.041l.229.176a8.245,8.245,0,0,0,.492-.756,2.773,2.773,0,0,0,.176-.469,2.858,2.858,0,0,1,.469.205q.094.059.094.123T22.16-9.5a.743.743,0,0,0-.193.229,9.3,9.3,0,0,1-.621.855q.07.059.41.393a6.946,6.946,0,0,0,.451-.645,2.084,2.084,0,0,0,.229-.457,3.635,3.635,0,0,1,.422.252q.094.076.094.129t-.094.123a.982.982,0,0,0-.287.287,11.9,11.9,0,0,1-1.119,1.295q.6-.053,1.2-.141l-.229-.375a.072.072,0,0,1-.018-.041q0-.035.076-.064l.182-.088a.283.283,0,0,1,.076-.023q.029,0,.07.047A5.865,5.865,0,0,1,23.408-6.691Zm-5.6.012a.135.135,0,0,1,.018.053q0,.029-.1.076l-.182.088a.363.363,0,0,1-.111.035q-.041,0-.07-.076-.029-.059-.07-.158t-.047-.129l-.65.1V-5.35l.023.838q0,.1-.094.1h-.4q-.082,0-.082-.1l.023-.838V-6.633q-.422.047-.586.059a1.383,1.383,0,0,0-.422.088.259.259,0,0,1-.117.059q-.07,0-.111-.135a2.758,2.758,0,0,1-.094-.445q.322.018.393.018T15.287-7q.545-.6.586-.656a7.118,7.118,0,0,0-1.02-.949q-.035-.035-.035-.053a.225.225,0,0,1,.059-.094l.17-.187Q15.1-9,15.129-9a.142.142,0,0,1,.076.035l.252.205a5.134,5.134,0,0,0,.48-.732,2.773,2.773,0,0,0,.176-.469,2.858,2.858,0,0,1,.469.205q.094.059.094.123t-.094.117a.743.743,0,0,0-.193.229q-.252.381-.609.826.287.264.422.41l.428-.621a2.084,2.084,0,0,0,.229-.457,3.635,3.635,0,0,1,.422.252q.094.076.094.129t-.094.123a1.036,1.036,0,0,0-.293.287,10.753,10.753,0,0,1-1.113,1.295q.346-.029,1.178-.129l-.229-.375a.072.072,0,0,1-.018-.041q0-.029.076-.064l.182-.088a.283.283,0,0,1,.076-.023q.029,0,.064.047A5.648,5.648,0,0,1,17.807-6.68Zm2.244,2.1a.083.083,0,0,1-.094.094l-.709-.023h-.492l-.7.023a.083.083,0,0,1-.094-.094l.029-.557v-.3l-.029-.545q0-.105.094-.105l.7.023h.492l.709-.023q.094,0,.094.105l-.023.545v.3Zm-.48-.34v-.732H18.439v.732ZM14.684-2.654a23.675,23.675,0,0,1-1.1,2.59,2.039,2.039,0,0,0-.229.516Q13.336.6,13.236.6a.275.275,0,0,1-.17-.07,4.568,4.568,0,0,1-.516-.41,4.686,4.686,0,0,0,.586-.9,16.8,16.8,0,0,0,1.055-2.59,1.74,1.74,0,0,0,.352.346q.188.141.188.211A.441.441,0,0,1,14.684-2.654Zm.123-5.795q.041.041.041.064a.339.339,0,0,1-.076.129l-.252.287q-.082.1-.123.1a.112.112,0,0,1-.07-.041,8.33,8.33,0,0,0-1.371-1.248q-.064-.047-.064-.076t.082-.111l.223-.264q.076-.094.117-.094a.127.127,0,0,1,.064.029A8.062,8.062,0,0,1,14.807-8.449ZM14.42-5.578a.128.128,0,0,1,.047.076.27.27,0,0,1-.07.123l-.252.328q-.07.076-.094.076a.112.112,0,0,1-.07-.041,7.551,7.551,0,0,0-1.441-1.166q-.064-.035-.064-.064a.224.224,0,0,1,.064-.111l.229-.3q.053-.07.088-.07a.2.2,0,0,1,.088.035A8.961,8.961,0,0,1,14.42-5.578Zm5.871-2.8a.088.088,0,0,1-.1.1l-.85-.023H18.6l-.873.023a.088.088,0,0,1-.1-.1V-8.7q0-.094.1-.094l.873.023h.744l.85-.023q.1,0,.1.094Zm-.217-.932a.083.083,0,0,1-.094.094l-.7-.023h-.516l-.7.023a.083.083,0,0,1-.094-.094v-.3q0-.1.094-.1l.7.029h.516l.7-.029q.094,0,.094.1ZM20.016-6.6q0,.094-.1.094l-.668-.023h-.48l-.674.023A.083.083,0,0,1,18-6.6v-.287q0-.1.094-.1l.674.029h.48l.668-.029a.088.088,0,0,1,.1.1Zm0-.891q0,.094-.1.094l-.668-.023h-.48l-.674.023A.083.083,0,0,1,18-7.488v-.287a.083.083,0,0,1,.094-.094l.674.023h.48l.668-.023q.1,0,.1.094Zm-4.2,1.418a.182.182,0,0,1-.059.111,1.06,1.06,0,0,0-.146.311,7.428,7.428,0,0,1-.346.926q-.059.129-.111.129a.263.263,0,0,1-.105-.047,1.273,1.273,0,0,0-.322-.146,5.054,5.054,0,0,0,.416-1,1.891,1.891,0,0,0,.1-.5,2.984,2.984,0,0,1,.428.111Q15.814-6.129,15.814-6.07Zm5.531,0a.182.182,0,0,1-.059.111,1.06,1.06,0,0,0-.146.311,7.122,7.122,0,0,1-.346.914q-.064.129-.111.129a.263.263,0,0,1-.105-.047,1.273,1.273,0,0,0-.322-.146,5.07,5.07,0,0,0,.416-.984,1.891,1.891,0,0,0,.1-.5,2.737,2.737,0,0,1,.428.111Q21.346-6.129,21.346-6.07Zm2.109,1.09a1.57,1.57,0,0,0-.311.146.262.262,0,0,1-.129.07q-.047,0-.1-.117a6.652,6.652,0,0,1-.439-1.189.186.186,0,0,1-.012-.053q0-.041.117-.076l.217-.064a.323.323,0,0,1,.064-.012q.035,0,.053.064A5.417,5.417,0,0,0,23.455-4.98Zm-5.795-.2a.247.247,0,0,1,.006.041q0,.053-.1.076L17.326-5a.34.34,0,0,1-.088.018q-.047,0-.059-.076a4.9,4.9,0,0,0-.287-1.066.134.134,0,0,1-.012-.041q0-.047.111-.07l.188-.047a.732.732,0,0,1,.076-.012q.035,0,.07.059A4.864,4.864,0,0,1,17.66-5.18Z" transform="translate(39.422 176.531)" fill="#80adff"/>
          <path id="Path_1589" data-name="Path 1589" d="M9.539.346a.083.083,0,0,1-.094.094h-.58A.083.083,0,0,1,8.771.346V-.387H3.217V.369q0,.094-.082.094H2.543A.083.083,0,0,1,2.449.369l.023-4.113V-6.059L2.449-9.082q0-.1.094-.1l1.67.023H7.775l1.67-.023q.094,0,.094.1L9.516-6.363v2.619ZM8.771-1.072V-4.547H3.217v3.475Zm0-4.148V-8.473H3.217v3.252ZM23.555-1.852a2.071,2.071,0,0,0-.346.457q-.111.182-.146.182a.663.663,0,0,1-.176-.082,12.617,12.617,0,0,1-4.67-5.045q0,1.752.023,4.154H19.1l1.5-.023q.1,0,.1.094V-1.6a.088.088,0,0,1-.1.1l-1.5-.023h-.85q.012.674.035,1.623.012.574.012.645a.083.083,0,0,1-.094.094h-.639a.083.083,0,0,1-.094-.094q0-.047.006-.375.023-1.037.029-1.893h-.732L15.287-1.5q-.094,0-.094-.1v-.516a.083.083,0,0,1,.094-.094l1.488.023h.744q.035-1.746.035-4.031a12.589,12.589,0,0,1-4.377,4.969.581.581,0,0,1-.193.094q-.07,0-.146-.17a1.367,1.367,0,0,0-.357-.428A11.228,11.228,0,0,0,15.252-3.99,12.626,12.626,0,0,0,17.162-6.7H14.619l-1.6.023a.083.083,0,0,1-.094-.094v-.545a.083.083,0,0,1,.094-.094l1.6.023h2.889V-8.449A9,9,0,0,0,17.426-9.9a7.359,7.359,0,0,1,.826.07q.146.023.146.1a.382.382,0,0,1-.029.135,1.278,1.278,0,0,0-.041.129,4.818,4.818,0,0,0-.064,1.008v1.078H21.4L23-7.406a.083.083,0,0,1,.094.094v.545A.083.083,0,0,1,23-6.674L21.4-6.7H18.6A12.2,12.2,0,0,0,23.555-1.852Z" transform="translate(39.422 153.17)" fill="#efefef"/>
          <path id="Path_1588" data-name="Path 1588" d="M11.25-4.395q0,.105-.111.105l-1.57-.023h-7.1L.891-4.289Q.8-4.289.8-4.395v-.469a.083.083,0,0,1,.094-.094l1.576.023H5.549V-6.088H3.855l-1.693.023q-.082,0-.082-.094v-.457q0-.094.082-.094l1.693.023H5.549V-7.74H3.27l-1.682.023a.083.083,0,0,1-.094-.094v-.457a.083.083,0,0,1,.094-.094l1.682.023H6.8a12.289,12.289,0,0,0,.627-1.078A2.227,2.227,0,0,0,7.6-9.967a4.378,4.378,0,0,1,.674.223q.135.07.135.146a.171.171,0,0,1-.111.146.7.7,0,0,0-.217.223q-.275.463-.586.891H8.777l1.67-.023a.083.083,0,0,1,.094.094v.457a.083.083,0,0,1-.094.094L8.777-7.74H6.27v1.055H8.15l1.682-.023q.1,0,.1.094v.457q0,.094-.1.094L8.15-6.088H6.27v1.154h3.3l1.57-.023q.111,0,.111.094ZM11.391.152a1.284,1.284,0,0,0-.3.469q-.105.217-.187.217a.9.9,0,0,1-.152-.023A6.878,6.878,0,0,1,5.883-2.174,4.21,4.21,0,0,1,4.623-.557,7.593,7.593,0,0,1,1.3.814a1.266,1.266,0,0,1-.164.023Q1.049.838.961.633a1.375,1.375,0,0,0-.3-.445A7.175,7.175,0,0,0,4.178-1.055,3.135,3.135,0,0,0,5.232-2.426H2.76L1.143-2.4A.083.083,0,0,1,1.049-2.5v-.48a.083.083,0,0,1,.094-.094l1.617.023H5.414a3.372,3.372,0,0,0,.076-.691A2.139,2.139,0,0,0,5.461-4.1q.428.035.686.082.193.041.193.135a.4.4,0,0,1-.082.2,3.208,3.208,0,0,0-.135.639H9.275L10.9-3.07a.083.083,0,0,1,.094.094v.48A.083.083,0,0,1,10.9-2.4L9.275-2.426H6.363Q7.746-.363,11.391.152ZM4.816-8.854a.189.189,0,0,1,.029.082q0,.047-.129.105l-.311.158a.567.567,0,0,1-.152.059q-.041,0-.076-.07a4.229,4.229,0,0,0-.7-1.043.173.173,0,0,1-.047-.088q0-.059.123-.105L3.879-9.9A.355.355,0,0,1,4-9.937a.149.149,0,0,1,.088.047A5.774,5.774,0,0,1,4.816-8.854ZM21.779-2.121a1.9,1.9,0,0,1-.41.9.729.729,0,0,1-.539.205q-.75,0-1.354-1.412A8.2,8.2,0,0,1,17.607-.979a.966.966,0,0,1-.17.082q-.07,0-.193-.158a1.467,1.467,0,0,0-.322-.311A6.752,6.752,0,0,0,19.236-3.07L19.2-3.176A16.041,16.041,0,0,1,18.65-6.5H16.295l-1.641.023q-.111,0-.111-.094v-.434q0-.094.111-.094l1.641.023h2.32A3.2,3.2,0,0,1,18.6-7.4a7.831,7.831,0,0,0-.1-1,3.383,3.383,0,0,1,.65.059q.193.035.193.129a.451.451,0,0,1-.059.182.849.849,0,0,0-.041.334v.615h.539L21.445-7.1a.083.083,0,0,1,.094.094v.434a.083.083,0,0,1-.094.094L19.787-6.5h-.5a17.941,17.941,0,0,0,.422,2.789,5.807,5.807,0,0,0,.516-1.049,4.027,4.027,0,0,0,.275-.943,3.008,3.008,0,0,1,.586.252q.123.059.123.152,0,.047-.135.182a2.745,2.745,0,0,0-.275.551A9.7,9.7,0,0,1,19.922-3a4.424,4.424,0,0,0,.516,1.014q.234.328.393.328.369,0,.48-1.125a1.376,1.376,0,0,0,.352.316q.152.094.152.17A.925.925,0,0,1,21.779-2.121ZM17.865-3.539a.083.083,0,0,1-.094.094l-.9-.023h-.768l-.914.023a.083.083,0,0,1-.094-.094l.023-.756v-.592L15.1-5.654a.083.083,0,0,1,.094-.094l.914.023h.768l.9-.023a.083.083,0,0,1,.094.094l-.023.768v.592Zm-.609-.41V-5.244H15.709v1.295Zm.984.832a2.317,2.317,0,0,0-.07.4.44.44,0,0,1-.059.229.52.52,0,0,1-.193.088q-1.178.352-2.52.621a1.912,1.912,0,0,0-.492.158.312.312,0,0,1-.146.07q-.07,0-.117-.123a5.435,5.435,0,0,1-.182-.645,5.352,5.352,0,0,0,1.066-.123A16.727,16.727,0,0,0,18.24-3.117ZM21.1-7.635a.127.127,0,0,1,.029.064q0,.023-.07.094l-.211.193a.339.339,0,0,1-.129.076q-.018,0-.064-.053a5.237,5.237,0,0,0-.779-.779q-.047-.035-.047-.053t.094-.094l.217-.164a.165.165,0,0,1,.094-.053.135.135,0,0,1,.07.041A7.132,7.132,0,0,1,21.1-7.635ZM22.787.8q0,.094-.105.094h-.545A.083.083,0,0,1,22.043.8V.146H13.957V.8a.083.083,0,0,1-.094.094h-.557A.083.083,0,0,1,13.213.8L13.236-3.7v-2.4L13.213-9.3a.083.083,0,0,1,.094-.094l1.67.023h6.047l1.658-.023q.105,0,.105.094l-.023,2.848V-3.7ZM22.043-.492V-8.719H13.957V-.492Z" transform="translate(39.422 129.808)" fill="#efefef"/>
          <path id="Path_1587" data-name="Path 1587" d="M11.59-1.354a2.041,2.041,0,0,0-.387.5q-.088.158-.146.158a.326.326,0,0,1-.164-.094A9.959,9.959,0,0,1,7.365-6.457q.006.6.053,3.445.029,1.752.029,2.578a.918.918,0,0,1-.422.85A3.082,3.082,0,0,1,5.613.621.382.382,0,0,1,5.4.586.622.622,0,0,1,5.309.381a1.567,1.567,0,0,0-.252-.539q.6.047,1.014.047a.838.838,0,0,0,.51-.111A.388.388,0,0,0,6.7-.551V-8.52a8.114,8.114,0,0,0-.082-1.318,5.912,5.912,0,0,1,.785.059q.158.018.158.105a.892.892,0,0,1-.082.252,3.783,3.783,0,0,0-.059.891v.5a11.867,11.867,0,0,0,.885,2.713A13.391,13.391,0,0,0,9.826-7.043a2.64,2.64,0,0,0,.322-.574,5.207,5.207,0,0,1,.639.416.252.252,0,0,1,.105.17q0,.088-.135.152a3,3,0,0,0-.562.533A20.673,20.673,0,0,1,8.6-4.74,9.372,9.372,0,0,0,11.59-1.354Zm-5.3-4.752a.277.277,0,0,1-.094.17A.729.729,0,0,0,6-5.59a11.728,11.728,0,0,1-1.154,2.8,10.14,10.14,0,0,1-1.594,2,.42.42,0,0,1-.17.105q-.047,0-.158-.146A1.605,1.605,0,0,0,2.531-1.2,8.734,8.734,0,0,0,4.383-3.475,10.53,10.53,0,0,0,5.35-5.936H4.242l-1.031.023q-.082,0-.082-.1v-.516q0-.094.082-.094L4.242-6.6H5.373A.654.654,0,0,0,5.6-6.633a.735.735,0,0,1,.123-.035q.105,0,.322.229Q6.287-6.182,6.287-6.105ZM3.047-3.5A24.509,24.509,0,0,1,1.688-.469a3.014,3.014,0,0,0-.229.516q-.035.135-.141.135A.324.324,0,0,1,1.125.088Q.85-.152.621-.387a5.664,5.664,0,0,0,.6-.85,18.279,18.279,0,0,0,1.336-3,3.866,3.866,0,0,0,.369.357q.164.129.164.193A.884.884,0,0,1,3.047-3.5Zm.047-3.961a.129.129,0,0,1,.029.07q0,.035-.076.111l-.34.311q-.088.088-.129.088T2.49-6.949A9.212,9.212,0,0,0,.92-8.795Q.861-8.848.861-8.877T.967-9l.293-.24q.082-.076.123-.076a.094.094,0,0,1,.064.041A10.836,10.836,0,0,1,3.094-7.465ZM23.145-4.031a.093.093,0,0,1-.105.105l-1.693-.023H15.182v.855H21l1.688-.023q.111,0,.111.105-.023.135-.041.387-.023.287-.029.346A6.509,6.509,0,0,1,22.16.252a1.181,1.181,0,0,1-1,.492q-.516,0-.873-.023-.146-.012-.176-.047a.65.65,0,0,1-.053-.182,1.355,1.355,0,0,0-.182-.527,7.1,7.1,0,0,0,1.107.094.609.609,0,0,0,.586-.275,6.619,6.619,0,0,0,.445-2.326H16.887V-.8h2.156v-.662a3.554,3.554,0,0,0-.059-.68q.475.035.756.082.123.018.123.094a.83.83,0,0,1-.064.182,1.071,1.071,0,0,0-.059.4v.633l.023.434q0,.105-.1.105Q19.342-.24,18-.24H14.027V.275a.083.083,0,0,1-.094.094h-.516q-.1,0-.1-.094l.023-.645v-.973a3.351,3.351,0,0,0-.07-.768,6.332,6.332,0,0,1,.756.07q.123.018.123.094a.331.331,0,0,1-.064.17.866.866,0,0,0-.047.346V-.8h2.15v-1.74l-1.646.023a.083.083,0,0,1-.094-.094l.023-1.453V-7.26l-.023-1.43a.083.083,0,0,1,.094-.094l1.635.023h.434l.346-.7a2.045,2.045,0,0,0,.182-.645,5.808,5.808,0,0,1,.75.164q.123.041.123.135,0,.059-.111.141a.624.624,0,0,0-.164.217q-.27.545-.346.686h1.916l1.629-.023q.1,0,.1.094l-.023,1V-6.41l.023.984q0,.105-.1.105l-1.629-.023H15.182v.82h6.164l1.693-.023q.105,0,.105.094ZM20.3-5.906v-.9H15.182v.9Zm0-1.436V-8.2H15.182v.855Z" transform="translate(39.422 106.447)" fill="#efefef"/>
          <path id="Path_1586" data-name="Path 1586" d="M7.008-5.93a.18.18,0,0,1,.023.07q0,.053-.094.111l-.352.229a.374.374,0,0,1-.158.07q-.041,0-.082-.07A10.764,10.764,0,0,0,4.863-7.582a.133.133,0,0,1-.041-.076q0-.035.1-.105l.3-.193a.348.348,0,0,1,.129-.07q.023,0,.064.047A12.7,12.7,0,0,1,7.008-5.93Zm4.307,1.781a.083.083,0,0,1-.094.094L9.674-4.078H9.48v2.086L9.5-.381a1.025,1.025,0,0,1-.311.826,3.3,3.3,0,0,1-1.635.24A.381.381,0,0,1,7.33.645.566.566,0,0,1,7.26.434a1.248,1.248,0,0,0-.229-.539q.6.047,1.295.047.422,0,.422-.492V-4.078H3.24a8.839,8.839,0,0,1-.686,2.953A6.042,6.042,0,0,1,1.33.621q-.117.123-.17.123A.628.628,0,0,1,1,.621a1.475,1.475,0,0,0-.5-.3A5.531,5.531,0,0,0,1.922-1.57,7.915,7.915,0,0,0,2.5-4.078H2.35L.8-4.055a.083.083,0,0,1-.094-.094v-.545q0-.082.094-.082l1.547.023h.193q.023-.6.023-.949V-7.4L2.543-9.24a.083.083,0,0,1,.094-.094l1.658.023H7.752L9.41-9.334A.083.083,0,0,1,9.5-9.24L9.48-7.4v2.648h.193l1.547-.023q.094,0,.094.082Zm-2.566-.6V-8.637H3.3v2.947q0,.363-.023.938Zm12.8,4.7q.059.041.059.064a.3.3,0,0,1-.07.129L21.3.475q-.076.117-.129.117a.184.184,0,0,1-.088-.041A23.3,23.3,0,0,0,18.457-.979,13.558,13.558,0,0,1,13.91.762a.807.807,0,0,1-.146.023q-.094,0-.205-.217a2.208,2.208,0,0,0-.3-.393,13.125,13.125,0,0,0,4.5-1.5q-.814-.381-2.162-.926a11.984,11.984,0,0,1-1.559.867.664.664,0,0,1-.182.059q-.059,0-.141-.117a1.455,1.455,0,0,0-.334-.34,8.026,8.026,0,0,0,3.223-2.156,2,2,0,0,0,.352-.516q.334.082.662.193a.117.117,0,0,1,.082.129q0,.064-.111.123a1.074,1.074,0,0,0-.311.287l-.059.059h2.725a.78.78,0,0,0,.24-.023.4.4,0,0,1,.129-.035.674.674,0,0,1,.352.205q.229.211.229.3a.158.158,0,0,1-.105.141,1.138,1.138,0,0,0-.316.264,10.282,10.282,0,0,1-1.406,1.395A26.362,26.362,0,0,1,21.551-.053ZM19.834-3.1H16.67q-.217.211-.492.434,1.395.545,2.232.932A6.8,6.8,0,0,0,19.834-3.1Zm3.674-.984a1.281,1.281,0,0,0-.275.457q-.088.217-.176.217a.658.658,0,0,1-.17-.041A10.248,10.248,0,0,1,18.24-6.006q.006.381.035.9.023.387.023.486a.083.083,0,0,1-.094.094h-.58a.083.083,0,0,1-.094-.094q0-.082.029-.568.023-.439.029-.8a10.059,10.059,0,0,1-4.465,2.537.618.618,0,0,1-.158.035q-.088,0-.176-.182a1.629,1.629,0,0,0-.287-.434,9.642,9.642,0,0,0,5.063-2.7V-8.285H14.684l-1.617.023a.083.083,0,0,1-.094-.094v-.457a.083.083,0,0,1,.094-.094l1.617.023h2.883v-.059A4.763,4.763,0,0,0,17.484-10a5.778,5.778,0,0,1,.768.076q.129.018.129.105a.4.4,0,0,1-.047.158,1.95,1.95,0,0,0-.07.68v.094h3.012L22.9-8.906a.083.083,0,0,1,.094.094v.457a.083.083,0,0,1-.094.094l-1.623-.023H18.264v1.594a8.448,8.448,0,0,0,2.461,1.705A15.448,15.448,0,0,0,23.508-4.084ZM22.9-5.906a1.5,1.5,0,0,0-.293.41q-.082.158-.141.158a.344.344,0,0,1-.146-.059,7.359,7.359,0,0,1-1.811-1.43,4.164,4.164,0,0,1-.721.814.352.352,0,0,1-.17.094q-.035,0-.129-.094a1.428,1.428,0,0,0-.346-.275,4.077,4.077,0,0,0,1.1-1.283,1.992,1.992,0,0,0,.193-.527,4.04,4.04,0,0,1,.586.211q.094.053.094.123,0,.053-.094.129a.882.882,0,0,0-.205.293A6.214,6.214,0,0,0,22.9-5.906Zm-6.3-.416a2.686,2.686,0,0,0-.3.3q-.105.141-.152.141a.45.45,0,0,1-.182-.094,5.1,5.1,0,0,1-.879-.791,6.008,6.008,0,0,1-1.307,1.283.745.745,0,0,1-.17.082q-.047,0-.152-.141a1.206,1.206,0,0,0-.34-.311,4.476,4.476,0,0,0,1.74-1.717,1.755,1.755,0,0,0,.217-.539,5,5,0,0,1,.6.211q.117.064.117.123a.158.158,0,0,1-.094.141.723.723,0,0,0-.229.252l-.07.135A4.6,4.6,0,0,0,16.594-6.322Z" transform="translate(39.422 83.085)" fill="#efefef"/>
          <path id="Path_1585" data-name="Path 1585" d="M5.256-7.934q0,.1-.105.1L3.744-7.863H3.434v1.084h.205L4.875-6.8q.082,0,.082.094l-.012,1.1v1.582l.012,1.1q0,.094-.082.094L3.639-2.859H3.434v1.143h.24L5.092-1.74q.094,0,.094.082v.469a.083.083,0,0,1-.094.094L3.674-1.119h-.24v.551L3.457.814Q3.457.9,3.363.9H2.842Q2.748.9,2.748.814L2.771-.568v-.551H2.209L.768-1.1q-.082,0-.082-.094v-.469A.073.073,0,0,1,.768-1.74l1.441.023h.563V-2.859H2.555L1.33-2.836a.083.083,0,0,1-.094-.094l.023-1.1V-5.613l-.023-1.1A.083.083,0,0,1,1.33-6.8l1.225.023h.217V-7.863H2.3L.891-7.834a.088.088,0,0,1-.1-.1v-.457q0-.094.1-.094L2.3-8.461h.469V-8.6a9.151,9.151,0,0,0-.082-1.342q.434.018.732.059.135.023.135.111a1.528,1.528,0,0,1-.047.193,2.876,2.876,0,0,0-.076.838v.275h.311L5.15-8.484q.105,0,.105.094ZM4.324-3.41V-4.582H1.9V-3.41Zm0-1.711V-6.229H1.9v1.107Zm7.2,4.4a.083.083,0,0,1-.094.094L9.832-.65H9.023v.158L9.047.791a.083.083,0,0,1-.094.094H8.426A.083.083,0,0,1,8.332.791L8.355-.492V-.65H6.973L5.379-.627q-.1,0-.1-.094v-.434q0-.094.1-.094l.164.006q.176.012.387.018v-.861l-.023-.686A.083.083,0,0,1,6-2.865l1.453.023h.9V-3.7H7.477l-1.336.023q-.094,0-.094-.105L6.076-4.5v-.592l-.029-.721q0-.105.094-.105l1.336.023h1.6l1.318-.023q.094,0,.094.105l-.023.721V-4.5l.023.721q0,.105-.094.105L9.076-3.7H9.023v.855h.445l1.43-.023a.083.083,0,0,1,.094.094v.422a.083.083,0,0,1-.094.094l-1.43-.023H9.023v1.055h.809l1.594-.023a.083.083,0,0,1,.094.094ZM9.8-4.225V-5.344H6.721v1.119Zm-1.447,3V-2.279H6.58v1.055Zm3.047-5.5q0,.105-.082.105L9.75-6.639H7.037l-1.576.023q-.082,0-.082-.105v-.41q0-.094.082-.094L6.867-7.2q.211-.551.387-1.125L6.018-8.3q-.1,0-.1-.094v-.41q0-.094.1-.094l1.295.023h.094l.111-.4a2.789,2.789,0,0,0,.094-.7,4.962,4.962,0,0,1,.715.088q.146.018.146.105a.313.313,0,0,1-.082.17.923.923,0,0,0-.141.287l-.123.445h.779L10.23-8.9a.083.083,0,0,1,.094.094l-.023.686v.92l1.02-.023q.082,0,.082.094ZM9.627-7.2V-8.326H7.957q-.205.668-.369,1.125Zm12.152,5.08a1.9,1.9,0,0,1-.41.9.729.729,0,0,1-.539.205q-.75,0-1.354-1.412A8.2,8.2,0,0,1,17.607-.979a.966.966,0,0,1-.17.082q-.07,0-.193-.158a1.467,1.467,0,0,0-.322-.311A6.752,6.752,0,0,0,19.236-3.07L19.2-3.176A16.041,16.041,0,0,1,18.65-6.5H16.295l-1.641.023q-.111,0-.111-.094v-.434q0-.094.111-.094l1.641.023h2.32A3.2,3.2,0,0,1,18.6-7.4a7.831,7.831,0,0,0-.1-1,3.383,3.383,0,0,1,.65.059q.193.035.193.129a.451.451,0,0,1-.059.182.849.849,0,0,0-.041.334v.615h.539L21.445-7.1a.083.083,0,0,1,.094.094v.434a.083.083,0,0,1-.094.094L19.787-6.5h-.5a17.941,17.941,0,0,0,.422,2.789,5.807,5.807,0,0,0,.516-1.049,4.027,4.027,0,0,0,.275-.943,3.008,3.008,0,0,1,.586.252q.123.059.123.152,0,.047-.135.182a2.745,2.745,0,0,0-.275.551A9.7,9.7,0,0,1,19.922-3a4.424,4.424,0,0,0,.516,1.014q.234.328.393.328.369,0,.48-1.125a1.376,1.376,0,0,0,.352.316q.152.094.152.17A.925.925,0,0,1,21.779-2.121ZM17.865-3.539a.083.083,0,0,1-.094.094l-.9-.023h-.768l-.914.023a.083.083,0,0,1-.094-.094l.023-.756v-.592L15.1-5.654a.083.083,0,0,1,.094-.094l.914.023h.768l.9-.023a.083.083,0,0,1,.094.094l-.023.768v.592Zm-.609-.41V-5.244H15.709v1.295Zm.984.832a2.317,2.317,0,0,0-.07.4.44.44,0,0,1-.059.229.52.52,0,0,1-.193.088q-1.178.352-2.52.621a1.912,1.912,0,0,0-.492.158.312.312,0,0,1-.146.07q-.07,0-.117-.123a5.435,5.435,0,0,1-.182-.645,5.352,5.352,0,0,0,1.066-.123A16.727,16.727,0,0,0,18.24-3.117ZM21.1-7.635a.127.127,0,0,1,.029.064q0,.023-.07.094l-.211.193a.339.339,0,0,1-.129.076q-.018,0-.064-.053a5.237,5.237,0,0,0-.779-.779q-.047-.035-.047-.053t.094-.094l.217-.164a.165.165,0,0,1,.094-.053.135.135,0,0,1,.07.041A7.132,7.132,0,0,1,21.1-7.635ZM22.787.8q0,.094-.105.094h-.545A.083.083,0,0,1,22.043.8V.146H13.957V.8a.083.083,0,0,1-.094.094h-.557A.083.083,0,0,1,13.213.8L13.236-3.7v-2.4L13.213-9.3a.083.083,0,0,1,.094-.094l1.67.023h6.047l1.658-.023q.105,0,.105.094l-.023,2.848V-3.7ZM22.043-.492V-8.719H13.957V-.492Z" transform="translate(39.422 59.723)" fill="#efefef"/>
          <path id="Path_1584" data-name="Path 1584" d="M11.35.07a1.467,1.467,0,0,0-.334.5q-.1.217-.193.217a.619.619,0,0,1-.17-.035A8.84,8.84,0,0,1,7.74-.48a6.2,6.2,0,0,1-1.934-2,4.869,4.869,0,0,1-.492.926A6.567,6.567,0,0,1,1.424.756Q1.283.779,1.26.779q-.1,0-.193-.193A2.085,2.085,0,0,0,.732.158,6.253,6.253,0,0,0,4.775-2.016a3.19,3.19,0,0,0,.381-.756H2.508l-1.6.023a.083.083,0,0,1-.094-.094v-.51a.083.083,0,0,1,.094-.094l1.43.023V-5.086L2.314-6.111a.083.083,0,0,1,.094-.094L4.1-6.182H5.566A7.978,7.978,0,0,0,5.5-7.436q.281.012.738.059.17.018.17.117a1.224,1.224,0,0,1-.059.205,3.814,3.814,0,0,0-.07.873H7.8L9.48-6.205a.083.083,0,0,1,.094.094L9.551-5.086v1.664l1.5-.023a.083.083,0,0,1,.094.094v.51a.083.083,0,0,1-.094.094L9.457-2.771H6.369A7,7,0,0,0,11.35.07ZM8.83-3.422V-5.543H6.264A13.875,13.875,0,0,1,6.07-3.422ZM5.555-5.543H3.047v2.121H5.361A11.1,11.1,0,0,0,5.555-5.543Zm5.631-2.543q0,.094-.1.094L9.527-8.016H7.875l.023.973q0,.094-.1.094H7.271a.083.083,0,0,1-.094-.094L7.2-8.016H4.682l.023.973a.083.083,0,0,1-.094.094H4.066q-.082,0-.082-.094l.023-.973H2.4L.838-7.992a.083.083,0,0,1-.094-.094v-.521A.083.083,0,0,1,.838-8.7L2.4-8.678H4.008a6.073,6.073,0,0,0-.082-1.26q.369.018.756.059.129.023.129.111a.379.379,0,0,1-.059.152,3.324,3.324,0,0,0-.07.938H7.2a6.159,6.159,0,0,0-.082-1.271,5.853,5.853,0,0,1,.75.07Q8-9.855,8-9.768a.289.289,0,0,1-.059.152,2.875,2.875,0,0,0-.07.879v.059H9.527L11.086-8.7q.1,0,.1.094ZM21.779-2.121a1.9,1.9,0,0,1-.41.9.729.729,0,0,1-.539.205q-.75,0-1.354-1.412A8.2,8.2,0,0,1,17.607-.979a.966.966,0,0,1-.17.082q-.07,0-.193-.158a1.467,1.467,0,0,0-.322-.311A6.752,6.752,0,0,0,19.236-3.07L19.2-3.176A16.041,16.041,0,0,1,18.65-6.5H16.295l-1.641.023q-.111,0-.111-.094v-.434q0-.094.111-.094l1.641.023h2.32A3.2,3.2,0,0,1,18.6-7.4a7.831,7.831,0,0,0-.1-1,3.383,3.383,0,0,1,.65.059q.193.035.193.129a.451.451,0,0,1-.059.182.849.849,0,0,0-.041.334v.615h.539L21.445-7.1a.083.083,0,0,1,.094.094v.434a.083.083,0,0,1-.094.094L19.787-6.5h-.5a17.941,17.941,0,0,0,.422,2.789,5.807,5.807,0,0,0,.516-1.049,4.027,4.027,0,0,0,.275-.943,3.008,3.008,0,0,1,.586.252q.123.059.123.152,0,.047-.135.182a2.745,2.745,0,0,0-.275.551A9.7,9.7,0,0,1,19.922-3a4.424,4.424,0,0,0,.516,1.014q.234.328.393.328.369,0,.48-1.125a1.376,1.376,0,0,0,.352.316q.152.094.152.17A.925.925,0,0,1,21.779-2.121ZM17.865-3.539a.083.083,0,0,1-.094.094l-.9-.023h-.768l-.914.023a.083.083,0,0,1-.094-.094l.023-.756v-.592L15.1-5.654a.083.083,0,0,1,.094-.094l.914.023h.768l.9-.023a.083.083,0,0,1,.094.094l-.023.768v.592Zm-.609-.41V-5.244H15.709v1.295Zm.984.832a2.317,2.317,0,0,0-.07.4.44.44,0,0,1-.059.229.52.52,0,0,1-.193.088q-1.178.352-2.52.621a1.912,1.912,0,0,0-.492.158.312.312,0,0,1-.146.07q-.07,0-.117-.123a5.435,5.435,0,0,1-.182-.645,5.352,5.352,0,0,0,1.066-.123A16.727,16.727,0,0,0,18.24-3.117ZM21.1-7.635a.127.127,0,0,1,.029.064q0,.023-.07.094l-.211.193a.339.339,0,0,1-.129.076q-.018,0-.064-.053a5.237,5.237,0,0,0-.779-.779q-.047-.035-.047-.053t.094-.094l.217-.164a.165.165,0,0,1,.094-.053.135.135,0,0,1,.07.041A7.132,7.132,0,0,1,21.1-7.635ZM22.787.8q0,.094-.105.094h-.545A.083.083,0,0,1,22.043.8V.146H13.957V.8a.083.083,0,0,1-.094.094h-.557A.083.083,0,0,1,13.213.8L13.236-3.7v-2.4L13.213-9.3a.083.083,0,0,1,.094-.094l1.67.023h6.047l1.658-.023q.105,0,.105.094l-.023,2.848V-3.7ZM22.043-.492V-8.719H13.957V-.492Z" transform="translate(39.422 36.362)" fill="#efefef"/>
          <path id="Path_1583" data-name="Path 1583" d="M11.52-5.326a.083.083,0,0,1-.094.094L9.973-5.256H9.914V-1.02L9.938.768a.083.083,0,0,1-.094.094H9.252A.083.083,0,0,1,9.158.768L9.182-1.02V-5.256H7.395A15.227,15.227,0,0,1,7.1-1.74,6.123,6.123,0,0,1,5.871.633q-.1.135-.17.135A.277.277,0,0,1,5.543.674,1.257,1.257,0,0,0,5.092.4a5.486,5.486,0,0,0,1.365-2.52A16.408,16.408,0,0,0,6.7-5.5V-6.973a15.2,15.2,0,0,0-.082-1.693,4.094,4.094,0,0,1,.779.24,11.069,11.069,0,0,0,2.385-.937,2.927,2.927,0,0,0,.6-.434,3.694,3.694,0,0,1,.527.545.27.27,0,0,1,.07.164q0,.088-.158.111a1.348,1.348,0,0,0-.439.141A15.57,15.57,0,0,1,7.395-7.752v1.846H9.973l1.453-.023a.083.083,0,0,1,.094.094Zm-5.578,2q0,.094-.1.094L4.395-3.252H4.02a4.265,4.265,0,0,0,.826.9,7.616,7.616,0,0,0,.949.633,1.327,1.327,0,0,0-.287.422q-.07.141-.105.141t-.17-.105A5.433,5.433,0,0,1,3.768-2.865q.012,1.131.053,2.438Q3.85.521,3.85.709,3.85.8,3.744.8H3.205q-.1,0-.1-.094,0-.264.023-1.318.035-1.242.053-2.115A7.634,7.634,0,0,1,1.137-.252a.418.418,0,0,1-.176.094Q.914-.158.838-.3A1.308,1.308,0,0,0,.516-.744a7.464,7.464,0,0,0,2.4-2.508H2.3L.838-3.229a.083.083,0,0,1-.094-.094V-3.8q0-.1.094-.1L2.3-3.879h.844V-3.9A5.671,5.671,0,0,0,3.07-5.027q.375.018.732.059.123.023.123.1a.378.378,0,0,1-.047.164,2.763,2.763,0,0,0-.064.8v.023h.58L5.842-3.9a.088.088,0,0,1,.1.1Zm.205-2.016q0,.094-.1.094L4.559-5.268H2.244L.756-5.244a.083.083,0,0,1-.094-.094v-.5A.083.083,0,0,1,.756-5.93l1.488.023H3.826a9.746,9.746,0,0,0,.551-1.365,2.159,2.159,0,0,0,.111-.521q.4.094.645.17.146.047.146.146a.224.224,0,0,1-.082.141.867.867,0,0,0-.182.275,12.511,12.511,0,0,1-.527,1.154h.07L6.047-5.93q.1,0,.1.094Zm-.193-2.83q0,.094-.1.094L4.43-8.1H2.438l-1.43.023a.083.083,0,0,1-.094-.094v-.469q0-.1.094-.1l1.43.029h.691v-.375a3.49,3.49,0,0,0-.082-.861,7.047,7.047,0,0,1,.779.059q.158.018.158.094a.541.541,0,0,1-.07.217,1.175,1.175,0,0,0-.064.492v.375h.58l1.424-.029a.088.088,0,0,1,.1.1ZM2.877-6.5a.193.193,0,0,1,.012.059q0,.064-.117.111l-.3.123a.6.6,0,0,1-.135.029q-.064,0-.082-.094a5.9,5.9,0,0,0-.457-1.2.18.18,0,0,1-.023-.07q0-.047.146-.1l.275-.1a.229.229,0,0,1,.076-.018q.047,0,.088.07A5.07,5.07,0,0,1,2.877-6.5ZM22.957.205A.083.083,0,0,1,22.863.3h-.568q-.082,0-.082-.094V-.686H19.729V.287a.083.083,0,0,1-.094.094H19.1Q19,.381,19,.287l.023-3.65V-5.484L19-8.244q0-.094.105-.094l1.213.023H21.65l1.213-.023a.083.083,0,0,1,.094.094l-.023,2.461V-3.41Zm-.744-1.541V-7.664H19.729v6.328Zm-4.283-6q-.023.363-.023,1.061a38.465,38.465,0,0,1-.352,5.338Q17.355.334,16.26.334q-.416,0-.8-.035-.17-.018-.2-.059a.666.666,0,0,1-.041-.217A1.445,1.445,0,0,0,15.064-.5,6.282,6.282,0,0,0,16.2-.4.514.514,0,0,0,16.658-.6a1.591,1.591,0,0,0,.205-.656,37.911,37.911,0,0,0,.322-5.5H15.48a18.933,18.933,0,0,1-.457,3.334,10.124,10.124,0,0,1-.715,2.086,7.956,7.956,0,0,1-1.1,1.658q-.111.135-.158.135T12.914.334a2.134,2.134,0,0,0-.48-.439,7.225,7.225,0,0,0,1.271-1.77A8.923,8.923,0,0,0,14.344-3.7a15.179,15.179,0,0,0,.4-3.059h-.4l-1.43.023a.083.083,0,0,1-.094-.094v-.516q0-.1.094-.1l1.43.023h.439q.012-.357.012-1.1A11.464,11.464,0,0,0,14.713-10q.439.018.826.07.135.018.135.123a1.373,1.373,0,0,1-.07.264,4.942,4.942,0,0,0-.076,1.1q0,.352-.023,1.02h.879l1.441-.023A.093.093,0,0,1,17.93-7.336ZM35.578.105a1.619,1.619,0,0,0-.322.439q-.1.193-.182.193A.415.415,0,0,1,34.9.691a9.5,9.5,0,0,1-2.889-1.846A8.726,8.726,0,0,1,29.2.691a.5.5,0,0,1-.182.047q-.059,0-.176-.17a1.717,1.717,0,0,0-.34-.357,8.606,8.606,0,0,0,3.029-1.869,9.264,9.264,0,0,1-1.646-2.906h-.527a16.377,16.377,0,0,1-.182,1.717A6.882,6.882,0,0,1,27.68.486q-.123.146-.17.146T27.357.516a1.258,1.258,0,0,0-.445-.293,5.706,5.706,0,0,0,1.594-3.229,21.01,21.01,0,0,0,.217-3.281L28.7-8.1a.083.083,0,0,1,.094-.094l1.646.023h.973V-8.32a10.356,10.356,0,0,0-.082-1.594q.363.018.768.059.146.018.146.111a1.558,1.558,0,0,1-.088.252,6.876,6.876,0,0,0-.047,1.172v.146h2.268a.832.832,0,0,0,.24-.035.6.6,0,0,1,.135-.035.571.571,0,0,1,.322.193q.217.2.217.3a.21.21,0,0,1-.094.158A.937.937,0,0,0,35-7.307,9.567,9.567,0,0,1,34.283-6.1q-.123.158-.182.158a1.018,1.018,0,0,1-.193-.082,1.187,1.187,0,0,0-.393-.17,5.668,5.668,0,0,0,.826-1.342H32.109v2.361h1.354a.786.786,0,0,0,.281-.047.325.325,0,0,1,.105-.023q.111,0,.322.229.217.211.217.322a.2.2,0,0,1-.094.141.794.794,0,0,0-.217.316,10.731,10.731,0,0,1-1.6,2.566A8.831,8.831,0,0,0,35.578.105ZM31.412-5.174V-7.535H29.42v1.33q0,.287-.023,1.031Zm2.051.609H30.574A7.935,7.935,0,0,0,32-2.15,9.094,9.094,0,0,0,33.463-4.564ZM28.16-6.2a.083.083,0,0,1-.094.094l-1.1-.023h-.123v3.492a10.854,10.854,0,0,0,1.283-.592,1.235,1.235,0,0,0-.041.322q0,.059.006.123.006.082.006.105a.243.243,0,0,1-.035.149.647.647,0,0,1-.182.12,24.565,24.565,0,0,1-2.344.973,1.25,1.25,0,0,0-.41.205.232.232,0,0,1-.158.082q-.088,0-.129-.123a7,7,0,0,1-.229-.668,5.056,5.056,0,0,0,.973-.24q.082-.023.563-.193V-6.129h-.275l-1.107.023a.083.083,0,0,1-.094-.094v-.5q0-.1.094-.1l1.107.023h.275V-8.191a12.062,12.062,0,0,0-.082-1.646q.4.018.779.07.135.023.135.1a.318.318,0,0,1-.023.1q-.029.076-.041.117a6.57,6.57,0,0,0-.07,1.236v1.436h.123l1.1-.023q.094,0,.094.1Z" transform="translate(26.281 13)" fill="#efefef"/>
        </g>
      </g>
      <line id="Line_503" data-name="Line 503" y2="273.5" transform="translate(-2361.819 -9583.5)" fill="none" stroke="#707070" stroke-width="1" stroke-dasharray="1"/>
    </g>
    <text id="p" transform="translate(-6205 -10712)" fill="#fff" font-size="12" font-family="SourceHanSansTW-Regular, Source Han Sans TW"><tspan x="0" y="14">57%</tspan></text>
  </g>
</svg>
