<svg xmlns="http://www.w3.org/2000/svg" width="278.932" height="236.574" viewBox="0 0 278.932 236.574">
  <g id="data_2_m" transform="translate(-77.574 -96.926)">
    <g id="data_m-02" transform="translate(64.452 84.868)">
      <g id="Group_2007" data-name="Group 2007">
        <g id="Group_2004" data-name="Group 2004">
          <path id="Path_1801" data-name="Path 1801" d="M5.369-3.806A7.415,7.415,0,0,1,5.2-2.127,3.912,3.912,0,0,1,4.7-.892a2.227,2.227,0,0,1-.795.763A2.176,2.176,0,0,1,2.837.132a2.032,2.032,0,0,1-1.013-.25,2.124,2.124,0,0,1-.75-.729A3.7,3.7,0,0,1,.611-2.024a7.274,7.274,0,0,1-.158-1.6A8.234,8.234,0,0,1,.618-5.369,4,4,0,0,1,1.105-6.64a2.167,2.167,0,0,1,.8-.774A2.239,2.239,0,0,1,3-7.674Q5.369-7.674,5.369-3.806Zm-.884.084q0-3.221-1.532-3.221-1.616,0-1.616,3.279,0,3.058,1.584,3.058Q4.485-.605,4.485-3.721Z" transform="translate(276.973 173.667)" fill="#558ef9"/>
          <path id="Path_1800" data-name="Path 1800" d="M3.811,0H2.948V-6.522a2,2,0,0,1-.292.229,4.762,4.762,0,0,1-.432.255q-.239.126-.505.237a3.672,3.672,0,0,1-.518.174V-6.5a5.018,5.018,0,0,0,.6-.213q.318-.134.626-.3t.582-.347a4.618,4.618,0,0,0,.474-.355h.326ZM14.9-2.448q0,.095-.089.095l-1.39-.021H11.148l-1.4.021q-.089,0-.089-.095l.026-.842v-.926l-.026-.842q0-.095.089-.095l1.4.021h2.274l1.39-.021q.089,0,.089.095l-.021.842v.926Zm-.637-.411v-.668H10.285v.668Zm0-1.142v-.647H10.285V-4Zm-5.1-4.643A.228.228,0,0,1,9.08-8.5a1.492,1.492,0,0,0-.216.421,14.472,14.472,0,0,1-.7,1.616v5.432L8.19.668q0,.074-.089.074H7.585A.065.065,0,0,1,7.511.668l.021-1.695V-3.764q0-1.053.011-1.595A11.817,11.817,0,0,1,6.537-4q-.074.084-.116.084t-.1-.121a1.313,1.313,0,0,0-.258-.411,11.631,11.631,0,0,0,2.19-3.8,2.515,2.515,0,0,0,.163-.721,4.25,4.25,0,0,1,.632.195Q9.169-8.706,9.169-8.643ZM15.991-5.8q0,.074-.089.074L14.4-5.748H10.548l-1.521.021q-.089,0-.089-.074v-.39q0-.084.089-.084l1.521.021h.363a4.755,4.755,0,0,0-.368-.784.162.162,0,0,1-.021-.063q0-.026.1-.058l.3-.095a.284.284,0,0,1,.084-.021q.037,0,.079.063a5.648,5.648,0,0,1,.421.958h1.626q.121-.258.258-.584A1.662,1.662,0,0,0,13.5-7.3a5.131,5.131,0,0,1,.6.142q.121.042.121.105t-.089.121A.618.618,0,0,0,14-6.737q-.147.316-.247.484H14.4L15.9-6.274q.089,0,.089.084Zm-.542-1.726a.074.074,0,0,1-.084.084L13.9-7.464H11.012l-1.469.021a.074.074,0,0,1-.084-.084v-.39A.074.074,0,0,1,9.543-8l1.469.021h.947v-.253A3.633,3.633,0,0,0,11.9-8.99a4.46,4.46,0,0,1,.679.053q.132.021.132.079a.955.955,0,0,1-.068.174,1.474,1.474,0,0,0-.042.453v.253h1.3L15.365-8a.074.074,0,0,1,.084.084ZM14.438-.484a1.569,1.569,0,0,1-.2.642.884.884,0,0,1-.305.263,3.761,3.761,0,0,1-1.5.195A4.849,4.849,0,0,1,11.191.511a.652.652,0,0,1-.463-.684v-.905a6.945,6.945,0,0,0-.042-.805,5.671,5.671,0,0,1,.637.063q.105.011.105.084a.359.359,0,0,1-.042.132,1.51,1.51,0,0,0-.053.495v.7q0,.353.279.416A5.892,5.892,0,0,0,12.5.058a2.815,2.815,0,0,0,1.079-.132q.268-.132.279-.853a1.625,1.625,0,0,0,.421.195q.174.047.174.137A.982.982,0,0,1,14.438-.484ZM10.027-1.4A5.893,5.893,0,0,1,9.2.274q-.047.058-.079.058A.2.2,0,0,1,9.027.29L8.7.121Q8.606.074,8.606.037a.134.134,0,0,1,.032-.058,4.633,4.633,0,0,0,.821-1.584q.016-.079.058-.079a.239.239,0,0,1,.089.026l.337.126q.089.032.089.079A.331.331,0,0,1,10.027-1.4ZM16.054-.216a.14.14,0,0,1,.026.063q0,.037-.1.1l-.295.184a.26.26,0,0,1-.111.053q-.037,0-.068-.068A7.725,7.725,0,0,0,14.575-1.4a.127.127,0,0,1-.032-.068q0-.032.089-.084l.268-.163A.309.309,0,0,1,15-1.753a.119.119,0,0,1,.068.037A7.5,7.5,0,0,1,16.054-.216ZM13.3-1.226a.14.14,0,0,1,.026.063q0,.032-.079.095l-.237.184A.352.352,0,0,1,12.87-.8q-.021,0-.058-.053a4.471,4.471,0,0,0-.847-.969.086.086,0,0,1-.032-.053q0-.032.1-.1l.226-.147a.207.207,0,0,1,.1-.053.141.141,0,0,1,.074.037A6.019,6.019,0,0,1,13.3-1.226Z" transform="translate(275.972 147.96)" fill="#558ef9"/>
          <path id="Path_1799" data-name="Path 1799" d="M4.064-5.569a1.561,1.561,0,0,0-.108-.605A1.2,1.2,0,0,0,3.661-6.6a1.208,1.208,0,0,0-.44-.255,1.721,1.721,0,0,0-.547-.084,1.811,1.811,0,0,0-.495.068,2.4,2.4,0,0,0-.471.189,2.9,2.9,0,0,0-.442.29,3.194,3.194,0,0,0-.4.374v-.926a2.581,2.581,0,0,1,.813-.54,2.863,2.863,0,0,1,1.1-.187,2.649,2.649,0,0,1,.858.134,1.967,1.967,0,0,1,.684.392,1.813,1.813,0,0,1,.455.637,2.148,2.148,0,0,1,.166.869,2.978,2.978,0,0,1-.1.811,2.507,2.507,0,0,1-.311.684,3.3,3.3,0,0,1-.524.616,7.419,7.419,0,0,1-.742.6q-.532.379-.876.647a3.874,3.874,0,0,0-.547.5,1.459,1.459,0,0,0-.284.468,1.638,1.638,0,0,0-.082.54H5.232V0H.574V-.374a3.114,3.114,0,0,1,.105-.853,2.214,2.214,0,0,1,.347-.7,3.885,3.885,0,0,1,.634-.663q.392-.332.961-.747A6.073,6.073,0,0,0,3.308-3.9a2.928,2.928,0,0,0,.445-.537,1.928,1.928,0,0,0,.239-.545A2.349,2.349,0,0,0,4.064-5.569ZM14.9-2.448q0,.095-.089.095l-1.39-.021H11.148l-1.4.021q-.089,0-.089-.095l.026-.842v-.926l-.026-.842q0-.095.089-.095l1.4.021h2.274l1.39-.021q.089,0,.089.095l-.021.842v.926Zm-.637-.411v-.668H10.285v.668Zm0-1.142v-.647H10.285V-4Zm-5.1-4.643A.228.228,0,0,1,9.08-8.5a1.492,1.492,0,0,0-.216.421,14.472,14.472,0,0,1-.7,1.616v5.432L8.19.668q0,.074-.089.074H7.585A.065.065,0,0,1,7.511.668l.021-1.695V-3.764q0-1.053.011-1.595A11.817,11.817,0,0,1,6.537-4q-.074.084-.116.084t-.1-.121a1.313,1.313,0,0,0-.258-.411,11.631,11.631,0,0,0,2.19-3.8,2.515,2.515,0,0,0,.163-.721,4.25,4.25,0,0,1,.632.195Q9.169-8.706,9.169-8.643ZM15.991-5.8q0,.074-.089.074L14.4-5.748H10.548l-1.521.021q-.089,0-.089-.074v-.39q0-.084.089-.084l1.521.021h.363a4.755,4.755,0,0,0-.368-.784.162.162,0,0,1-.021-.063q0-.026.1-.058l.3-.095a.284.284,0,0,1,.084-.021q.037,0,.079.063a5.648,5.648,0,0,1,.421.958h1.626q.121-.258.258-.584A1.662,1.662,0,0,0,13.5-7.3a5.131,5.131,0,0,1,.6.142q.121.042.121.105t-.089.121A.618.618,0,0,0,14-6.737q-.147.316-.247.484H14.4L15.9-6.274q.089,0,.089.084Zm-.542-1.726a.074.074,0,0,1-.084.084L13.9-7.464H11.012l-1.469.021a.074.074,0,0,1-.084-.084v-.39A.074.074,0,0,1,9.543-8l1.469.021h.947v-.253A3.633,3.633,0,0,0,11.9-8.99a4.46,4.46,0,0,1,.679.053q.132.021.132.079a.955.955,0,0,1-.068.174,1.474,1.474,0,0,0-.042.453v.253h1.3L15.365-8a.074.074,0,0,1,.084.084ZM14.438-.484a1.569,1.569,0,0,1-.2.642.884.884,0,0,1-.305.263,3.761,3.761,0,0,1-1.5.195A4.849,4.849,0,0,1,11.191.511a.652.652,0,0,1-.463-.684v-.905a6.945,6.945,0,0,0-.042-.805,5.671,5.671,0,0,1,.637.063q.105.011.105.084a.359.359,0,0,1-.042.132,1.51,1.51,0,0,0-.053.495v.7q0,.353.279.416A5.892,5.892,0,0,0,12.5.058a2.815,2.815,0,0,0,1.079-.132q.268-.132.279-.853a1.625,1.625,0,0,0,.421.195q.174.047.174.137A.982.982,0,0,1,14.438-.484ZM10.027-1.4A5.893,5.893,0,0,1,9.2.274q-.047.058-.079.058A.2.2,0,0,1,9.027.29L8.7.121Q8.606.074,8.606.037a.134.134,0,0,1,.032-.058,4.633,4.633,0,0,0,.821-1.584q.016-.079.058-.079a.239.239,0,0,1,.089.026l.337.126q.089.032.089.079A.331.331,0,0,1,10.027-1.4ZM16.054-.216a.14.14,0,0,1,.026.063q0,.037-.1.1l-.295.184a.26.26,0,0,1-.111.053q-.037,0-.068-.068A7.725,7.725,0,0,0,14.575-1.4a.127.127,0,0,1-.032-.068q0-.032.089-.084l.268-.163A.309.309,0,0,1,15-1.753a.119.119,0,0,1,.068.037A7.5,7.5,0,0,1,16.054-.216ZM13.3-1.226a.14.14,0,0,1,.026.063q0,.032-.079.095l-.237.184A.352.352,0,0,1,12.87-.8q-.021,0-.058-.053a4.471,4.471,0,0,0-.847-.969.086.086,0,0,1-.032-.053q0-.032.1-.1l.226-.147a.207.207,0,0,1,.1-.053.141.141,0,0,1,.074.037A6.019,6.019,0,0,1,13.3-1.226Z" transform="translate(275.972 120.253)" fill="#558ef9"/>
          <path id="Path_1798" data-name="Path 1798" d="M5.016-2.137a2.2,2.2,0,0,1-.192.929,2.051,2.051,0,0,1-.542.716,2.5,2.5,0,0,1-.84.461A3.4,3.4,0,0,1,2.363.132,3.136,3.136,0,0,1,.647-.279v-.926a2.75,2.75,0,0,0,1.748.6,2.375,2.375,0,0,0,.713-.1,1.6,1.6,0,0,0,.547-.29,1.286,1.286,0,0,0,.353-.458,1.43,1.43,0,0,0,.124-.605q0-1.479-2.105-1.479H1.4v-.732h.595q1.863,0,1.863-1.39,0-1.284-1.421-1.284a2.42,2.42,0,0,0-1.5.537v-.837a3.28,3.28,0,0,1,1.716-.432,2.637,2.637,0,0,1,.858.132,1.966,1.966,0,0,1,.658.368,1.633,1.633,0,0,1,.424.568,1.755,1.755,0,0,1,.15.732A1.842,1.842,0,0,1,3.237-3.958v.021a2.381,2.381,0,0,1,.711.187,1.9,1.9,0,0,1,.563.376,1.678,1.678,0,0,1,.371.545A1.739,1.739,0,0,1,5.016-2.137ZM14.9-2.448q0,.095-.089.095l-1.39-.021H11.148l-1.4.021q-.089,0-.089-.095l.026-.842v-.926l-.026-.842q0-.095.089-.095l1.4.021h2.274l1.39-.021q.089,0,.089.095l-.021.842v.926Zm-.637-.411v-.668H10.285v.668Zm0-1.142v-.647H10.285V-4Zm-5.1-4.643A.228.228,0,0,1,9.08-8.5a1.492,1.492,0,0,0-.216.421,14.472,14.472,0,0,1-.7,1.616v5.432L8.19.668q0,.074-.089.074H7.585A.065.065,0,0,1,7.511.668l.021-1.695V-3.764q0-1.053.011-1.595A11.817,11.817,0,0,1,6.537-4q-.074.084-.116.084t-.1-.121a1.313,1.313,0,0,0-.258-.411,11.631,11.631,0,0,0,2.19-3.8,2.515,2.515,0,0,0,.163-.721,4.25,4.25,0,0,1,.632.195Q9.169-8.706,9.169-8.643ZM15.991-5.8q0,.074-.089.074L14.4-5.748H10.548l-1.521.021q-.089,0-.089-.074v-.39q0-.084.089-.084l1.521.021h.363a4.755,4.755,0,0,0-.368-.784.162.162,0,0,1-.021-.063q0-.026.1-.058l.3-.095a.284.284,0,0,1,.084-.021q.037,0,.079.063a5.648,5.648,0,0,1,.421.958h1.626q.121-.258.258-.584A1.662,1.662,0,0,0,13.5-7.3a5.131,5.131,0,0,1,.6.142q.121.042.121.105t-.089.121A.618.618,0,0,0,14-6.737q-.147.316-.247.484H14.4L15.9-6.274q.089,0,.089.084Zm-.542-1.726a.074.074,0,0,1-.084.084L13.9-7.464H11.012l-1.469.021a.074.074,0,0,1-.084-.084v-.39A.074.074,0,0,1,9.543-8l1.469.021h.947v-.253A3.633,3.633,0,0,0,11.9-8.99a4.46,4.46,0,0,1,.679.053q.132.021.132.079a.955.955,0,0,1-.068.174,1.474,1.474,0,0,0-.042.453v.253h1.3L15.365-8a.074.074,0,0,1,.084.084ZM14.438-.484a1.569,1.569,0,0,1-.2.642.884.884,0,0,1-.305.263,3.761,3.761,0,0,1-1.5.195A4.849,4.849,0,0,1,11.191.511a.652.652,0,0,1-.463-.684v-.905a6.945,6.945,0,0,0-.042-.805,5.671,5.671,0,0,1,.637.063q.105.011.105.084a.359.359,0,0,1-.042.132,1.51,1.51,0,0,0-.053.495v.7q0,.353.279.416A5.892,5.892,0,0,0,12.5.058a2.815,2.815,0,0,0,1.079-.132q.268-.132.279-.853a1.625,1.625,0,0,0,.421.195q.174.047.174.137A.982.982,0,0,1,14.438-.484ZM10.027-1.4A5.893,5.893,0,0,1,9.2.274q-.047.058-.079.058A.2.2,0,0,1,9.027.29L8.7.121Q8.606.074,8.606.037a.134.134,0,0,1,.032-.058,4.633,4.633,0,0,0,.821-1.584q.016-.079.058-.079a.239.239,0,0,1,.089.026l.337.126q.089.032.089.079A.331.331,0,0,1,10.027-1.4ZM16.054-.216a.14.14,0,0,1,.026.063q0,.037-.1.1l-.295.184a.26.26,0,0,1-.111.053q-.037,0-.068-.068A7.725,7.725,0,0,0,14.575-1.4a.127.127,0,0,1-.032-.068q0-.032.089-.084l.268-.163A.309.309,0,0,1,15-1.753a.119.119,0,0,1,.068.037A7.5,7.5,0,0,1,16.054-.216ZM13.3-1.226a.14.14,0,0,1,.026.063q0,.032-.079.095l-.237.184A.352.352,0,0,1,12.87-.8q-.021,0-.058-.053a4.471,4.471,0,0,0-.847-.969.086.086,0,0,1-.032-.053q0-.032.1-.1l.226-.147a.207.207,0,0,1,.1-.053.141.141,0,0,1,.074.037A6.019,6.019,0,0,1,13.3-1.226Z" transform="translate(275.972 92.546)" fill="#558ef9"/>
          <path id="Path_1797" data-name="Path 1797" d="M4.474-7.548v4.985h.969v.79H4.474V0H3.621V-1.774H.074v-.747q.495-.558,1-1.192T2.04-5q.461-.653.853-1.3a11.906,11.906,0,0,0,.661-1.245ZM1.047-2.563H3.621v-3.7q-.395.69-.747,1.232T2.2-4.043q-.318.442-.608.8ZM14.9-2.448q0,.095-.089.095l-1.39-.021H11.148l-1.4.021q-.089,0-.089-.095l.026-.842v-.926l-.026-.842q0-.095.089-.095l1.4.021h2.274l1.39-.021q.089,0,.089.095l-.021.842v.926Zm-.637-.411v-.668H10.285v.668Zm0-1.142v-.647H10.285V-4Zm-5.1-4.643A.228.228,0,0,1,9.08-8.5a1.492,1.492,0,0,0-.216.421,14.472,14.472,0,0,1-.7,1.616v5.432L8.19.668q0,.074-.089.074H7.585A.065.065,0,0,1,7.511.668l.021-1.695V-3.764q0-1.053.011-1.595A11.817,11.817,0,0,1,6.537-4q-.074.084-.116.084t-.1-.121a1.313,1.313,0,0,0-.258-.411,11.631,11.631,0,0,0,2.19-3.8,2.515,2.515,0,0,0,.163-.721,4.25,4.25,0,0,1,.632.195Q9.169-8.706,9.169-8.643ZM15.991-5.8q0,.074-.089.074L14.4-5.748H10.548l-1.521.021q-.089,0-.089-.074v-.39q0-.084.089-.084l1.521.021h.363a4.755,4.755,0,0,0-.368-.784.162.162,0,0,1-.021-.063q0-.026.1-.058l.3-.095a.284.284,0,0,1,.084-.021q.037,0,.079.063a5.648,5.648,0,0,1,.421.958h1.626q.121-.258.258-.584A1.662,1.662,0,0,0,13.5-7.3a5.131,5.131,0,0,1,.6.142q.121.042.121.105t-.089.121A.618.618,0,0,0,14-6.737q-.147.316-.247.484H14.4L15.9-6.274q.089,0,.089.084Zm-.542-1.726a.074.074,0,0,1-.084.084L13.9-7.464H11.012l-1.469.021a.074.074,0,0,1-.084-.084v-.39A.074.074,0,0,1,9.543-8l1.469.021h.947v-.253A3.633,3.633,0,0,0,11.9-8.99a4.46,4.46,0,0,1,.679.053q.132.021.132.079a.955.955,0,0,1-.068.174,1.474,1.474,0,0,0-.042.453v.253h1.3L15.365-8a.074.074,0,0,1,.084.084ZM14.438-.484a1.569,1.569,0,0,1-.2.642.884.884,0,0,1-.305.263,3.761,3.761,0,0,1-1.5.195A4.849,4.849,0,0,1,11.191.511a.652.652,0,0,1-.463-.684v-.905a6.945,6.945,0,0,0-.042-.805,5.671,5.671,0,0,1,.637.063q.105.011.105.084a.359.359,0,0,1-.042.132,1.51,1.51,0,0,0-.053.495v.7q0,.353.279.416A5.892,5.892,0,0,0,12.5.058a2.815,2.815,0,0,0,1.079-.132q.268-.132.279-.853a1.625,1.625,0,0,0,.421.195q.174.047.174.137A.982.982,0,0,1,14.438-.484ZM10.027-1.4A5.893,5.893,0,0,1,9.2.274q-.047.058-.079.058A.2.2,0,0,1,9.027.29L8.7.121Q8.606.074,8.606.037a.134.134,0,0,1,.032-.058,4.633,4.633,0,0,0,.821-1.584q.016-.079.058-.079a.239.239,0,0,1,.089.026l.337.126q.089.032.089.079A.331.331,0,0,1,10.027-1.4ZM16.054-.216a.14.14,0,0,1,.026.063q0,.037-.1.1l-.295.184a.26.26,0,0,1-.111.053q-.037,0-.068-.068A7.725,7.725,0,0,0,14.575-1.4a.127.127,0,0,1-.032-.068q0-.032.089-.084l.268-.163A.309.309,0,0,1,15-1.753a.119.119,0,0,1,.068.037A7.5,7.5,0,0,1,16.054-.216ZM13.3-1.226a.14.14,0,0,1,.026.063q0,.032-.079.095l-.237.184A.352.352,0,0,1,12.87-.8q-.021,0-.058-.053a4.471,4.471,0,0,0-.847-.969.086.086,0,0,1-.032-.053q0-.032.1-.1l.226-.147a.207.207,0,0,1,.1-.053.141.141,0,0,1,.074.037A6.019,6.019,0,0,1,13.3-1.226Z" transform="translate(275.962 64.839)" fill="#558ef9"/>
          <path id="Path_1796" data-name="Path 1796" d="M5.1-2.305a2.541,2.541,0,0,1-.189,1,2.187,2.187,0,0,1-.54.768,2.416,2.416,0,0,1-.845.495,3.3,3.3,0,0,1-1.1.174A3.039,3.039,0,0,1,.863-.184V-1.1a2.874,2.874,0,0,0,1.574.495,2.13,2.13,0,0,0,.74-.121,1.643,1.643,0,0,0,.561-.337,1.442,1.442,0,0,0,.355-.521,1.764,1.764,0,0,0,.124-.668,1.432,1.432,0,0,0-.495-1.155,2.17,2.17,0,0,0-1.437-.418q-.153,0-.321.005l-.337.013Q1.458-3.8,1.3-3.79t-.292.026l.258-3.785h3.49v.779H2.011L1.858-4.553q.168-.011.358-.018t.337-.008a3.388,3.388,0,0,1,1.074.158,2.275,2.275,0,0,1,.8.45,1.887,1.887,0,0,1,.5.716A2.518,2.518,0,0,1,5.1-2.305Zm9.8-.142q0,.095-.089.095l-1.39-.021H11.148l-1.4.021q-.089,0-.089-.095l.026-.842v-.926l-.026-.842q0-.095.089-.095l1.4.021h2.274l1.39-.021q.089,0,.089.095l-.021.842v.926Zm-.637-.411v-.668H10.285v.668Zm0-1.142v-.647H10.285V-4Zm-5.1-4.643A.228.228,0,0,1,9.08-8.5a1.492,1.492,0,0,0-.216.421,14.472,14.472,0,0,1-.7,1.616v5.432L8.19.668q0,.074-.089.074H7.585A.065.065,0,0,1,7.511.668l.021-1.695V-3.764q0-1.053.011-1.595A11.817,11.817,0,0,1,6.537-4q-.074.084-.116.084t-.1-.121a1.313,1.313,0,0,0-.258-.411,11.631,11.631,0,0,0,2.19-3.8,2.515,2.515,0,0,0,.163-.721,4.25,4.25,0,0,1,.632.195Q9.169-8.706,9.169-8.643ZM15.991-5.8q0,.074-.089.074L14.4-5.748H10.548l-1.521.021q-.089,0-.089-.074v-.39q0-.084.089-.084l1.521.021h.363a4.755,4.755,0,0,0-.368-.784.162.162,0,0,1-.021-.063q0-.026.1-.058l.3-.095a.284.284,0,0,1,.084-.021q.037,0,.079.063a5.648,5.648,0,0,1,.421.958h1.626q.121-.258.258-.584A1.662,1.662,0,0,0,13.5-7.3a5.131,5.131,0,0,1,.6.142q.121.042.121.105t-.089.121A.618.618,0,0,0,14-6.737q-.147.316-.247.484H14.4L15.9-6.274q.089,0,.089.084Zm-.542-1.726a.074.074,0,0,1-.084.084L13.9-7.464H11.012l-1.469.021a.074.074,0,0,1-.084-.084v-.39A.074.074,0,0,1,9.543-8l1.469.021h.947v-.253A3.633,3.633,0,0,0,11.9-8.99a4.46,4.46,0,0,1,.679.053q.132.021.132.079a.955.955,0,0,1-.068.174,1.474,1.474,0,0,0-.042.453v.253h1.3L15.365-8a.074.074,0,0,1,.084.084ZM14.438-.484a1.569,1.569,0,0,1-.2.642.884.884,0,0,1-.305.263,3.761,3.761,0,0,1-1.5.195A4.849,4.849,0,0,1,11.191.511a.652.652,0,0,1-.463-.684v-.905a6.945,6.945,0,0,0-.042-.805,5.671,5.671,0,0,1,.637.063q.105.011.105.084a.359.359,0,0,1-.042.132,1.51,1.51,0,0,0-.053.495v.7q0,.353.279.416A5.892,5.892,0,0,0,12.5.058a2.815,2.815,0,0,0,1.079-.132q.268-.132.279-.853a1.625,1.625,0,0,0,.421.195q.174.047.174.137A.982.982,0,0,1,14.438-.484ZM10.027-1.4A5.893,5.893,0,0,1,9.2.274q-.047.058-.079.058A.2.2,0,0,1,9.027.29L8.7.121Q8.606.074,8.606.037a.134.134,0,0,1,.032-.058,4.633,4.633,0,0,0,.821-1.584q.016-.079.058-.079a.239.239,0,0,1,.089.026l.337.126q.089.032.089.079A.331.331,0,0,1,10.027-1.4ZM16.054-.216a.14.14,0,0,1,.026.063q0,.037-.1.1l-.295.184a.26.26,0,0,1-.111.053q-.037,0-.068-.068A7.725,7.725,0,0,0,14.575-1.4a.127.127,0,0,1-.032-.068q0-.032.089-.084l.268-.163A.309.309,0,0,1,15-1.753a.119.119,0,0,1,.068.037A7.5,7.5,0,0,1,16.054-.216ZM13.3-1.226a.14.14,0,0,1,.026.063q0,.032-.079.095l-.237.184A.352.352,0,0,1,12.87-.8q-.021,0-.058-.053a4.471,4.471,0,0,0-.847-.969.086.086,0,0,1-.032-.053q0-.032.1-.1l.226-.147a.207.207,0,0,1,.1-.053.141.141,0,0,1,.074.037A6.019,6.019,0,0,1,13.3-1.226Z" transform="translate(275.972 37.132)" fill="#558ef9"/>
          <path id="Path_1795" data-name="Path 1795" d="M10.222-1.479A2.237,2.237,0,0,1,9.7.074a1.331,1.331,0,0,1-.658.279,5.729,5.729,0,0,1-.937.058,3.7,3.7,0,0,1-1.4-.174.742.742,0,0,1-.384-.347,1.773,1.773,0,0,1-.1-.69V-4.711H4.432A6.5,6.5,0,0,1,3.648-1.19,5.259,5.259,0,0,1,1.326.495a.731.731,0,0,1-.184.053Q1.09.547.984.4A1.925,1.925,0,0,0,.626-.011,5.95,5.95,0,0,0,2.484-.947,2.982,2.982,0,0,0,3.448-2.39a7.969,7.969,0,0,0,.295-2.321h-1.5L.821-4.69q-.089,0-.089-.084v-.5q0-.084.089-.084l1.421.021h6.3l1.421-.021q.089,0,.089.084v.5q0,.084-.089.084L8.538-4.711H6.922V-1a1.86,1.86,0,0,0,.047.532.307.307,0,0,0,.2.168,3.6,3.6,0,0,0,.958.084,3.435,3.435,0,0,0,.716-.053.89.89,0,0,0,.395-.195,2.7,2.7,0,0,0,.337-1.532,2.664,2.664,0,0,0,.484.258q.174.074.174.153A1,1,0,0,1,10.222-1.479ZM9-7.48a.074.074,0,0,1-.084.084L7.385-7.417H3.458L1.932-7.4q-.089,0-.089-.084V-7.99q0-.084.089-.084l1.526.021H7.385l1.532-.021A.074.074,0,0,1,9-7.99Z" transform="translate(275.972 20.132)" fill="#558ef9"/>
        </g>
        <path id="Path_1767" data-name="Path 1767" d="M0,138.5V0" transform="translate(273.8 33.1)" fill="none" stroke="#558ef9" stroke-width="1"/>
        <g id="Group_2006" data-name="Group 2006">
          <g id="Group_2005" data-name="Group 2005">
            <line id="Line_550" data-name="Line 550" x2="5.8" transform="translate(267.8 171.6)" fill="none" stroke="#558ef9" stroke-miterlimit="10" stroke-width="1"/>
            <line id="Line_551" data-name="Line 551" x2="5.8" transform="translate(267.8 143.9)" fill="none" stroke="#558ef9" stroke-miterlimit="10" stroke-width="1"/>
            <line id="Line_552" data-name="Line 552" x2="5.8" transform="translate(267.8 116.2)" fill="none" stroke="#558ef9" stroke-miterlimit="10" stroke-width="1"/>
            <line id="Line_553" data-name="Line 553" x2="5.8" transform="translate(267.8 88.5)" fill="none" stroke="#558ef9" stroke-miterlimit="10" stroke-width="1"/>
            <line id="Line_554" data-name="Line 554" x2="5.8" transform="translate(267.8 60.8)" fill="none" stroke="#558ef9" stroke-miterlimit="10" stroke-width="1"/>
            <line id="Line_555" data-name="Line 555" x2="5.8" transform="translate(267.8 33.1)" fill="none" stroke="#558ef9" stroke-miterlimit="10" stroke-width="1"/>
          </g>
        </g>
      </g>
      <g id="Group_2010" data-name="Group 2010">
        <g id="Group_2009" data-name="Group 2009">
          <g id="Group_2008" data-name="Group 2008">
            <rect id="Rectangle_2612" data-name="Rectangle 2612" width="27.6" height="72" transform="translate(44.2 99.6)" fill="#356bd0"/>
            <rect id="Rectangle_2613" data-name="Rectangle 2613" width="27.6" height="116.4" transform="translate(82.6 55.3)" fill="#356bd0"/>
            <rect id="Rectangle_2614" data-name="Rectangle 2614" width="27.6" height="108.1" transform="translate(120.9 63.6)" fill="#356bd0"/>
            <rect id="Rectangle_2615" data-name="Rectangle 2615" width="27.6" height="116.4" transform="translate(159.3 55.3)" fill="#356bd0"/>
            <rect id="Rectangle_2616" data-name="Rectangle 2616" width="27.6" height="133" transform="translate(197.6 38.6)" fill="#356bd0"/>
            <rect id="Rectangle_2617" data-name="Rectangle 2617" width="27.6" height="108.1" transform="translate(235.9 63.6)" fill="#356bd0"/>
          </g>
        </g>
      </g>
      <g id="Group_2032" data-name="Group 2032">
        <g id="Group_2017" data-name="Group 2017">
          <g id="Group_2014" data-name="Group 2014">
            <path id="Path_1794" data-name="Path 1794" d="M3.811,0H2.948V-6.522a2,2,0,0,1-.292.229,4.762,4.762,0,0,1-.432.255q-.239.126-.505.237a3.672,3.672,0,0,1-.518.174V-6.5a5.018,5.018,0,0,0,.6-.213q.318-.134.626-.3t.582-.347a4.618,4.618,0,0,0,.474-.355h.326ZM11.18-3.806a7.415,7.415,0,0,1-.171,1.679,3.912,3.912,0,0,1-.495,1.234,2.227,2.227,0,0,1-.795.763A2.176,2.176,0,0,1,8.648.132a2.032,2.032,0,0,1-1.013-.25,2.124,2.124,0,0,1-.75-.729,3.7,3.7,0,0,1-.463-1.176,7.274,7.274,0,0,1-.158-1.6A8.234,8.234,0,0,1,6.43-5.369,4,4,0,0,1,6.916-6.64a2.167,2.167,0,0,1,.8-.774,2.239,2.239,0,0,1,1.092-.261Q11.18-7.674,11.18-3.806Zm-.884.084q0-3.221-1.532-3.221-1.616,0-1.616,3.279,0,3.058,1.584,3.058Q10.3-.605,10.3-3.721Zm10.78,3.5a.79.79,0,0,1-.247.679A.917.917,0,0,1,20.444.6a5.719,5.719,0,0,1-.779.037A.275.275,0,0,1,19.5.605a.418.418,0,0,1-.079-.174,1.92,1.92,0,0,0-.195-.421,7.638,7.638,0,0,0,.8.042.469.469,0,0,0,.332-.089.393.393,0,0,0,.084-.284V-2.284H17.217v1.132q.816-.095,1.421-.195-.268-.39-.3-.432a.144.144,0,0,1-.037-.068q0-.037.1-.079l.226-.1a.338.338,0,0,1,.089-.026q.032,0,.074.058a8.184,8.184,0,0,1,.863,1.411.258.258,0,0,1,.016.063q0,.042-.1.089l-.242.121a.331.331,0,0,1-.116.042q-.037,0-.063-.063-.205-.453-.258-.563-1.563.274-3.737.484a1.358,1.358,0,0,0-.463.1.256.256,0,0,1-.126.063q-.074,0-.121-.142-.063-.226-.137-.6.232.005.426.005.368,0,.747-.026.99-.074,1.153-.089V-2.284H13.586V-.379L13.607.647a.074.074,0,0,1-.084.084h-.5a.074.074,0,0,1-.084-.084l.021-1.026V-1.748l-.021-1a.074.074,0,0,1,.084-.084l1.521.021h2.09V-3.59H15.449l-1.479.021a.074.074,0,0,1-.084-.084l.021-.905v-1.09l-.021-.905a.074.074,0,0,1,.084-.084l1.479.021h3.106l1.49-.021a.074.074,0,0,1,.084.084l-.021.905v1.09l.021.905a.074.074,0,0,1-.084.084l-1.49-.021H17.217v.779H19.47l1.521-.021a.074.074,0,0,1,.084.084L21.055-1.69v.442ZM19.5-4.064v-.842H17.217v.842Zm-2.869,0v-.842H14.512v.842ZM19.5-5.369v-.774H17.217v.774Zm-2.869,0v-.774H14.512v.774ZM21.713-7.58q0,.084-.089.084l-1.411-.021H18.8l.021.495q0,.089-.084.089H18.27q-.095,0-.095-.089,0-.016.011-.168t.011-.326h-2.49l.021.495q0,.089-.084.089H15.17a.079.079,0,0,1-.089-.089q0-.016.011-.168t.011-.326H13.822L12.406-7.5a.074.074,0,0,1-.084-.084v-.432q0-.074.084-.074l1.416.021H15.1a4.716,4.716,0,0,0-.063-.884q.326.016.668.058.111.016.111.095a.287.287,0,0,1-.042.142,1.539,1.539,0,0,0-.068.59H18.2a4.641,4.641,0,0,0-.063-.874q.353.021.658.058.116.016.116.095a.287.287,0,0,1-.042.142,1.613,1.613,0,0,0-.063.579h1.411l1.411-.021q.089,0,.089.074Z" transform="translate(12.548 175.667)" fill="#fff"/>
            <path id="Path_1793" data-name="Path 1793" d="M3.811,0H2.948V-6.522a2,2,0,0,1-.292.229,4.762,4.762,0,0,1-.432.255q-.239.126-.505.237a3.672,3.672,0,0,1-.518.174V-6.5a5.018,5.018,0,0,0,.6-.213q.318-.134.626-.3t.582-.347a4.618,4.618,0,0,0,.474-.355h.326Zm7.1-2.305a2.541,2.541,0,0,1-.189,1,2.187,2.187,0,0,1-.54.768,2.416,2.416,0,0,1-.845.495,3.3,3.3,0,0,1-1.1.174A3.039,3.039,0,0,1,6.674-.184V-1.1a2.874,2.874,0,0,0,1.574.495,2.13,2.13,0,0,0,.74-.121,1.643,1.643,0,0,0,.561-.337A1.442,1.442,0,0,0,9.9-1.584a1.764,1.764,0,0,0,.124-.668,1.432,1.432,0,0,0-.495-1.155A2.17,2.17,0,0,0,8.1-3.827q-.153,0-.321.005l-.337.013q-.168.008-.329.018t-.292.026l.258-3.785h3.49v.779H7.822L7.669-4.553q.168-.011.358-.018t.337-.008a3.388,3.388,0,0,1,1.074.158,2.275,2.275,0,0,1,.8.45,1.887,1.887,0,0,1,.5.716A2.518,2.518,0,0,1,10.912-2.305ZM21.076-.226a.79.79,0,0,1-.247.679A.917.917,0,0,1,20.444.6a5.719,5.719,0,0,1-.779.037A.275.275,0,0,1,19.5.605a.418.418,0,0,1-.079-.174,1.92,1.92,0,0,0-.195-.421,7.638,7.638,0,0,0,.8.042.469.469,0,0,0,.332-.089.393.393,0,0,0,.084-.284V-2.284H17.217v1.132q.816-.095,1.421-.195-.268-.39-.3-.432a.144.144,0,0,1-.037-.068q0-.037.1-.079l.226-.1a.338.338,0,0,1,.089-.026q.032,0,.074.058a8.184,8.184,0,0,1,.863,1.411.258.258,0,0,1,.016.063q0,.042-.1.089l-.242.121a.331.331,0,0,1-.116.042q-.037,0-.063-.063-.205-.453-.258-.563-1.563.274-3.737.484a1.358,1.358,0,0,0-.463.1.256.256,0,0,1-.126.063q-.074,0-.121-.142-.063-.226-.137-.6.232.005.426.005.368,0,.747-.026.99-.074,1.153-.089V-2.284H13.586V-.379L13.607.647a.074.074,0,0,1-.084.084h-.5a.074.074,0,0,1-.084-.084l.021-1.026V-1.748l-.021-1a.074.074,0,0,1,.084-.084l1.521.021h2.09V-3.59H15.449l-1.479.021a.074.074,0,0,1-.084-.084l.021-.905v-1.09l-.021-.905a.074.074,0,0,1,.084-.084l1.479.021h3.106l1.49-.021a.074.074,0,0,1,.084.084l-.021.905v1.09l.021.905a.074.074,0,0,1-.084.084l-1.49-.021H17.217v.779H19.47l1.521-.021a.074.074,0,0,1,.084.084L21.055-1.69v.442ZM19.5-4.064v-.842H17.217v.842Zm-2.869,0v-.842H14.512v.842ZM19.5-5.369v-.774H17.217v.774Zm-2.869,0v-.774H14.512v.774ZM21.713-7.58q0,.084-.089.084l-1.411-.021H18.8l.021.495q0,.089-.084.089H18.27q-.095,0-.095-.089,0-.016.011-.168t.011-.326h-2.49l.021.495q0,.089-.084.089H15.17a.079.079,0,0,1-.089-.089q0-.016.011-.168t.011-.326H13.822L12.406-7.5a.074.074,0,0,1-.084-.084v-.432q0-.074.084-.074l1.416.021H15.1a4.716,4.716,0,0,0-.063-.884q.326.016.668.058.111.016.111.095a.287.287,0,0,1-.042.142,1.539,1.539,0,0,0-.068.59H18.2a4.641,4.641,0,0,0-.063-.874q.353.021.658.058.116.016.116.095a.287.287,0,0,1-.042.142,1.613,1.613,0,0,0-.063.579h1.411l1.411-.021q.089,0,.089.074Z" transform="translate(12.548 106.399)" fill="#fff"/>
            <path id="Path_1792" data-name="Path 1792" d="M4.064-5.569a1.561,1.561,0,0,0-.108-.605A1.2,1.2,0,0,0,3.661-6.6a1.208,1.208,0,0,0-.44-.255,1.721,1.721,0,0,0-.547-.084,1.811,1.811,0,0,0-.495.068,2.4,2.4,0,0,0-.471.189,2.9,2.9,0,0,0-.442.29,3.194,3.194,0,0,0-.4.374v-.926a2.581,2.581,0,0,1,.813-.54,2.863,2.863,0,0,1,1.1-.187,2.649,2.649,0,0,1,.858.134,1.967,1.967,0,0,1,.684.392,1.813,1.813,0,0,1,.455.637,2.148,2.148,0,0,1,.166.869,2.978,2.978,0,0,1-.1.811,2.507,2.507,0,0,1-.311.684,3.3,3.3,0,0,1-.524.616,7.419,7.419,0,0,1-.742.6q-.532.379-.876.647a3.874,3.874,0,0,0-.547.5,1.459,1.459,0,0,0-.284.468,1.638,1.638,0,0,0-.082.54H5.232V0H.574V-.374a3.114,3.114,0,0,1,.105-.853,2.214,2.214,0,0,1,.347-.7,3.885,3.885,0,0,1,.634-.663q.392-.332.961-.747A6.073,6.073,0,0,0,3.308-3.9a2.928,2.928,0,0,0,.445-.537,1.928,1.928,0,0,0,.239-.545A2.349,2.349,0,0,0,4.064-5.569ZM11.18-3.806a7.415,7.415,0,0,1-.171,1.679,3.912,3.912,0,0,1-.495,1.234,2.227,2.227,0,0,1-.795.763A2.176,2.176,0,0,1,8.648.132a2.032,2.032,0,0,1-1.013-.25,2.124,2.124,0,0,1-.75-.729,3.7,3.7,0,0,1-.463-1.176,7.274,7.274,0,0,1-.158-1.6A8.234,8.234,0,0,1,6.43-5.369,4,4,0,0,1,6.916-6.64a2.167,2.167,0,0,1,.8-.774,2.239,2.239,0,0,1,1.092-.261Q11.18-7.674,11.18-3.806Zm-.884.084q0-3.221-1.532-3.221-1.616,0-1.616,3.279,0,3.058,1.584,3.058Q10.3-.605,10.3-3.721Zm10.78,3.5a.79.79,0,0,1-.247.679A.917.917,0,0,1,20.444.6a5.719,5.719,0,0,1-.779.037A.275.275,0,0,1,19.5.605a.418.418,0,0,1-.079-.174,1.92,1.92,0,0,0-.195-.421,7.638,7.638,0,0,0,.8.042.469.469,0,0,0,.332-.089.393.393,0,0,0,.084-.284V-2.284H17.217v1.132q.816-.095,1.421-.195-.268-.39-.3-.432a.144.144,0,0,1-.037-.068q0-.037.1-.079l.226-.1a.338.338,0,0,1,.089-.026q.032,0,.074.058a8.184,8.184,0,0,1,.863,1.411.258.258,0,0,1,.016.063q0,.042-.1.089l-.242.121a.331.331,0,0,1-.116.042q-.037,0-.063-.063-.205-.453-.258-.563-1.563.274-3.737.484a1.358,1.358,0,0,0-.463.1.256.256,0,0,1-.126.063q-.074,0-.121-.142-.063-.226-.137-.6.232.005.426.005.368,0,.747-.026.99-.074,1.153-.089V-2.284H13.586V-.379L13.607.647a.074.074,0,0,1-.084.084h-.5a.074.074,0,0,1-.084-.084l.021-1.026V-1.748l-.021-1a.074.074,0,0,1,.084-.084l1.521.021h2.09V-3.59H15.449l-1.479.021a.074.074,0,0,1-.084-.084l.021-.905v-1.09l-.021-.905a.074.074,0,0,1,.084-.084l1.479.021h3.106l1.49-.021a.074.074,0,0,1,.084.084l-.021.905v1.09l.021.905a.074.074,0,0,1-.084.084l-1.49-.021H17.217v.779H19.47l1.521-.021a.074.074,0,0,1,.084.084L21.055-1.69v.442ZM19.5-4.064v-.842H17.217v.842Zm-2.869,0v-.842H14.512v.842ZM19.5-5.369v-.774H17.217v.774Zm-2.869,0v-.774H14.512v.774ZM21.713-7.58q0,.084-.089.084l-1.411-.021H18.8l.021.495q0,.089-.084.089H18.27q-.095,0-.095-.089,0-.016.011-.168t.011-.326h-2.49l.021.495q0,.089-.084.089H15.17a.079.079,0,0,1-.089-.089q0-.016.011-.168t.011-.326H13.822L12.406-7.5a.074.074,0,0,1-.084-.084v-.432q0-.074.084-.074l1.416.021H15.1a4.716,4.716,0,0,0-.063-.884q.326.016.668.058.111.016.111.095a.287.287,0,0,1-.042.142,1.539,1.539,0,0,0-.068.59H18.2a4.641,4.641,0,0,0-.063-.874q.353.021.658.058.116.016.116.095a.287.287,0,0,1-.042.142,1.613,1.613,0,0,0-.063.579h1.411l1.411-.021q.089,0,.089.074Z" transform="translate(12.548 37.132)" fill="#fff"/>
            <path id="Path_1791" data-name="Path 1791" d="M10.222-1.479A2.237,2.237,0,0,1,9.7.074a1.331,1.331,0,0,1-.658.279,5.729,5.729,0,0,1-.937.058,3.7,3.7,0,0,1-1.4-.174.742.742,0,0,1-.384-.347,1.773,1.773,0,0,1-.1-.69V-4.711H4.432A6.5,6.5,0,0,1,3.648-1.19,5.259,5.259,0,0,1,1.326.495a.731.731,0,0,1-.184.053Q1.09.547.984.4A1.925,1.925,0,0,0,.626-.011,5.95,5.95,0,0,0,2.484-.947,2.982,2.982,0,0,0,3.448-2.39a7.969,7.969,0,0,0,.295-2.321h-1.5L.821-4.69q-.089,0-.089-.084v-.5q0-.084.089-.084l1.421.021h6.3l1.421-.021q.089,0,.089.084v.5q0,.084-.089.084L8.538-4.711H6.922V-1a1.86,1.86,0,0,0,.047.532.307.307,0,0,0,.2.168,3.6,3.6,0,0,0,.958.084,3.435,3.435,0,0,0,.716-.053.89.89,0,0,0,.395-.195,2.7,2.7,0,0,0,.337-1.532,2.664,2.664,0,0,0,.484.258q.174.074.174.153A1,1,0,0,1,10.222-1.479ZM9-7.48a.074.074,0,0,1-.084.084L7.385-7.417H3.458L1.932-7.4q-.089,0-.089-.084V-7.99q0-.084.089-.084l1.526.021H7.385l1.532-.021A.074.074,0,0,1,9-7.99Z" transform="translate(12.548 20.132)" fill="#fff"/>
          </g>
          <line id="Line_563" data-name="Line 563" y1="138.5" transform="translate(37.8 33.1)" fill="none" stroke="#fff" stroke-miterlimit="10" stroke-width="1"/>
          <g id="Group_2016" data-name="Group 2016">
            <g id="Group_2015" data-name="Group 2015">
              <line id="Line_564" data-name="Line 564" x2="5.7" transform="translate(37.8 171.6)" fill="none" stroke="#fff" stroke-miterlimit="10" stroke-width="1"/>
              <line id="Line_565" data-name="Line 565" x2="5.7" transform="translate(37.8 102.4)" fill="none" stroke="#fff" stroke-miterlimit="10" stroke-width="1"/>
              <line id="Line_566" data-name="Line 566" x2="5.7" transform="translate(37.8 33.1)" fill="none" stroke="#fff" stroke-miterlimit="10" stroke-width="1"/>
            </g>
          </g>
        </g>
        <g id="Group_2024" data-name="Group 2024">
          <g id="Group_2019" data-name="Group 2019">
            <g id="Group_2018" data-name="Group 2018">
              <line id="Line_567" data-name="Line 567" x1="46" y2="2.8" transform="translate(60.8 54)" fill="none" stroke="#fff" stroke-linecap="round" stroke-miterlimit="10" stroke-width="2"/>
              <line id="Line_568" data-name="Line 568" x1="46" y2="3.3" transform="translate(106.8 50.7)" fill="none" stroke="#fff" stroke-linecap="round" stroke-miterlimit="10" stroke-width="2"/>
              <line id="Line_569" data-name="Line 569" x1="46" y2="4.9" transform="translate(152.8 45.8)" fill="none" stroke="#fff" stroke-linecap="round" stroke-miterlimit="10" stroke-width="2"/>
              <line id="Line_570" data-name="Line 570" x1="46" y2="12.6" transform="translate(198.8 33.2)" fill="none" stroke="#fff" stroke-linecap="round" stroke-miterlimit="10" stroke-width="2"/>
            </g>
          </g>
          <g id="Group_2021" data-name="Group 2021">
            <g id="Group_2020" data-name="Group 2020">
              <line id="Line_571" data-name="Line 571" x1="46" y2="5.2" transform="translate(60.8 152.6)" fill="none" stroke="#1feac3" stroke-linecap="round" stroke-miterlimit="10" stroke-width="2"/>
              <line id="Line_572" data-name="Line 572" x1="46" y2="8.7" transform="translate(106.8 143.9)" fill="none" stroke="#1feac3" stroke-linecap="round" stroke-miterlimit="10" stroke-width="2"/>
              <line id="Line_573" data-name="Line 573" x1="46" y2="5.1" transform="translate(152.8 138.8)" fill="none" stroke="#1feac3" stroke-linecap="round" stroke-miterlimit="10" stroke-width="2"/>
              <line id="Line_574" data-name="Line 574" x1="46" y2="7.9" transform="translate(198.8 130.9)" fill="none" stroke="#1feac3" stroke-linecap="round" stroke-miterlimit="10" stroke-width="2"/>
            </g>
          </g>
          <g id="Group_2023" data-name="Group 2023">
            <g id="Group_2022" data-name="Group 2022">
              <line id="Line_575" data-name="Line 575" x1="46" y2="8.1" transform="translate(60.8 87.5)" fill="none" stroke="#ff6cd7" stroke-linecap="round" stroke-miterlimit="10" stroke-width="2"/>
              <line id="Line_576" data-name="Line 576" x1="46" y2="11.8" transform="translate(106.8 75.7)" fill="none" stroke="#ff6cd7" stroke-linecap="round" stroke-miterlimit="10" stroke-width="2"/>
              <line id="Line_577" data-name="Line 577" x1="46" y2="13.6" transform="translate(152.8 62.1)" fill="none" stroke="#ff6cd7" stroke-linecap="round" stroke-miterlimit="10" stroke-width="2"/>
              <line id="Line_578" data-name="Line 578" x1="46" y2="10.1" transform="translate(198.8 52)" fill="none" stroke="#ff6cd7" stroke-linecap="round" stroke-miterlimit="10" stroke-width="2"/>
            </g>
          </g>
        </g>
        <g id="Group_2031" data-name="Group 2031">
          <g id="Group_2026" data-name="Group 2026">
            <g id="Group_2025" data-name="Group 2025">
              <rect id="Rectangle_2618" data-name="Rectangle 2618" width="6" height="6" rx="3" transform="translate(57.8 53.8)" fill="#fff"/>
              <rect id="Rectangle_2619" data-name="Rectangle 2619" width="6" height="6" rx="3" transform="translate(103.8 51)" fill="#fff"/>
              <rect id="Rectangle_2620" data-name="Rectangle 2620" width="6" height="6" rx="3" transform="translate(149.8 47.7)" fill="#fff"/>
              <rect id="Rectangle_2621" data-name="Rectangle 2621" width="6" height="6" rx="3" transform="translate(195.8 42.8)" fill="#fff"/>
              <rect id="Rectangle_2622" data-name="Rectangle 2622" width="6" height="6" rx="3" transform="translate(241.8 30.2)" fill="#fff"/>
            </g>
          </g>
          <g id="Group_2028" data-name="Group 2028">
            <g id="Group_2027" data-name="Group 2027">
              <rect id="Rectangle_2623" data-name="Rectangle 2623" width="6" height="6" rx="3" transform="translate(57.8 154.8)" fill="#1feac3"/>
              <rect id="Rectangle_2624" data-name="Rectangle 2624" width="6" height="6" rx="3" transform="translate(103.8 149.6)" fill="#1feac3"/>
              <rect id="Rectangle_2625" data-name="Rectangle 2625" width="6" height="6" rx="3" transform="translate(149.8 140.9)" fill="#1feac3"/>
              <rect id="Rectangle_2626" data-name="Rectangle 2626" width="6" height="6" rx="3" transform="translate(195.8 135.8)" fill="#1feac3"/>
              <rect id="Rectangle_2627" data-name="Rectangle 2627" width="6" height="6" rx="3" transform="translate(241.8 127.9)" fill="#1feac3"/>
            </g>
          </g>
          <g id="Group_2030" data-name="Group 2030">
            <g id="Group_2029" data-name="Group 2029">
              <rect id="Rectangle_2628" data-name="Rectangle 2628" width="6" height="6" rx="3" transform="translate(57.8 92.6)" fill="#ff6cd7"/>
              <rect id="Rectangle_2629" data-name="Rectangle 2629" width="6" height="6" rx="3" transform="translate(103.8 84.5)" fill="#ff6cd7"/>
              <rect id="Rectangle_2630" data-name="Rectangle 2630" width="6" height="6" rx="3" transform="translate(149.8 72.7)" fill="#ff6cd7"/>
              <rect id="Rectangle_2631" data-name="Rectangle 2631" width="6" height="6" rx="3" transform="translate(195.8 59.1)" fill="#ff6cd7"/>
              <rect id="Rectangle_2632" data-name="Rectangle 2632" width="6" height="6" rx="3" transform="translate(241.8 49)" fill="#ff6cd7"/>
            </g>
          </g>
        </g>
      </g>
      <g id="Group_2003" data-name="Group 2003">
        <line id="Line_548" data-name="Line 548" x2="230" transform="translate(38.9 171.6)" fill="none" stroke="#356bd0" stroke-miterlimit="10" stroke-width="1"/>
      </g>
    </g>
    <path id="內文p" d="M4.016,0H3.069V-6.037a4.9,4.9,0,0,1-.9.653,6.362,6.362,0,0,1-1,.49v-.916a5.722,5.722,0,0,0,1.39-.905,3.561,3.561,0,0,0,.842-1.032h.611ZM6.443-3.806a7.061,7.061,0,0,1,.282-2.2A2.74,2.74,0,0,1,7.561-7.3a2.14,2.14,0,0,1,1.4-.453,2.28,2.28,0,0,1,1.09.25,2.083,2.083,0,0,1,.774.721A3.869,3.869,0,0,1,11.3-5.629a7.624,7.624,0,0,1,.174,1.824A7.081,7.081,0,0,1,11.2-1.613a2.741,2.741,0,0,1-.834,1.29,2.14,2.14,0,0,1-1.4.455,2.118,2.118,0,0,1-1.753-.8A5.085,5.085,0,0,1,6.443-3.806Zm.974,0a4.838,4.838,0,0,0,.445,2.529,1.311,1.311,0,0,0,1.1.629,1.31,1.31,0,0,0,1.1-.632A4.84,4.84,0,0,0,10.5-3.806a4.837,4.837,0,0,0-.445-2.532,1.32,1.32,0,0,0-1.108-.626,1.214,1.214,0,0,0-1.042.553A4.894,4.894,0,0,0,7.417-3.806Zm5.085-2.9v-.911h5v.737A10.526,10.526,0,0,0,16.036-4.8a12.7,12.7,0,0,0-1.119,2.674A9.939,9.939,0,0,0,14.554,0H13.58a9.456,9.456,0,0,1,.358-2.2,11.553,11.553,0,0,1,.982-2.487,10.661,10.661,0,0,1,1.361-2.019ZM27.632-5.66a4.851,4.851,0,0,0-.776-.593,6.131,6.131,0,0,0,.625-.69l-.561-.183a3.85,3.85,0,0,1-.539.571c-.28-.151-.561-.313-.83-.431l-.4.356a7.924,7.924,0,0,1,.776.42,6.48,6.48,0,0,1-1.024.593,2.782,2.782,0,0,1,.442.42,7.628,7.628,0,0,0,1.078-.7,5.878,5.878,0,0,1,.776.625ZM27.6-7.589c-.194-.151-.453-.323-.744-.507a5.536,5.536,0,0,0,.593-.658L26.888-8.9a4.591,4.591,0,0,1-.507.528c-.28-.151-.55-.291-.808-.4l-.388.356a7.184,7.184,0,0,1,.755.388,6.5,6.5,0,0,1-.959.55,3.377,3.377,0,0,1,.453.388,7.49,7.49,0,0,0,1-.647,5.335,5.335,0,0,1,.744.55ZM22.587-4.571h7.578v1.337h.787V-5.185h-.841c.086-.959.183-2.35.237-3.417h-2.49v.55h1.714l-.032.582H27.913v.55h1.6l-.054.582H27.848v.55h1.563c-.022.216-.043.41-.065.6H23.439l-.043-.6h1.5v-.55H23.363l-.043-.582h1.531v-.55H23.288L23.245-8a11.3,11.3,0,0,0,1.66-.42l-.356-.5a20.176,20.176,0,0,1-2.081.528l.216,3.2h-.862v1.951h.765Zm8.581,2.62H26.856v-.194a11.233,11.233,0,0,0,2.436-1.337l-.485-.4-.162.043H23.579v.6h4.215a10.006,10.006,0,0,1-1.714.819v.464h-4.5v.679h4.5V-.054c0,.151-.043.183-.226.194-.162,0-.765,0-1.434-.022A3.019,3.019,0,0,1,24.7.8,6.45,6.45,0,0,0,26.436.69c.334-.119.42-.3.42-.722v-1.24h4.312Zm3.708-.464V-4.549h2.415v2.134Zm7.126,0H38.1V-4.549h3.159V-5.3H38.1V-6.942h3.406v-.776H35.081c.172-.367.345-.755.5-1.132l-.808-.194a9.123,9.123,0,0,1-2.426,3.719,4.961,4.961,0,0,1,.69.507,9.96,9.96,0,0,0,1.639-2.124h2.62V-5.3H34.079v2.889H32.311v.776h4.98V.83H38.1V-1.639H42Z" transform="translate(307 272)" fill="#558ef9"/>
    <path id="內文p-2" data-name="內文p" d="M-4.977,0h-.947V-6.037a4.9,4.9,0,0,1-.9.653,6.362,6.362,0,0,1-1,.49v-.916a5.722,5.722,0,0,0,1.39-.905,3.561,3.561,0,0,0,.842-1.032h.611ZM-2.55-3.806a7.061,7.061,0,0,1,.282-2.2A2.74,2.74,0,0,1-1.432-7.3a2.14,2.14,0,0,1,1.4-.453,2.28,2.28,0,0,1,1.09.25,2.083,2.083,0,0,1,.774.721,3.869,3.869,0,0,1,.479,1.147,7.624,7.624,0,0,1,.174,1.824A7.081,7.081,0,0,1,2.2-1.613a2.741,2.741,0,0,1-.834,1.29,2.14,2.14,0,0,1-1.4.455,2.118,2.118,0,0,1-1.753-.8A5.085,5.085,0,0,1-2.55-3.806Zm.974,0a4.838,4.838,0,0,0,.445,2.529,1.311,1.311,0,0,0,1.1.629,1.31,1.31,0,0,0,1.1-.632,4.84,4.84,0,0,0,.445-2.527,4.837,4.837,0,0,0-.445-2.532A1.32,1.32,0,0,0-.045-6.964a1.214,1.214,0,0,0-1.042.553A4.894,4.894,0,0,0-1.576-3.806ZM8.361-5.827l-.942.074a1.784,1.784,0,0,0-.358-.811,1.254,1.254,0,0,0-.947-.405,1.3,1.3,0,0,0-.795.253,2.159,2.159,0,0,0-.705.953,4.979,4.979,0,0,0-.268,1.784,2.2,2.2,0,0,1,.837-.774,2.251,2.251,0,0,1,1.037-.253,2.148,2.148,0,0,1,1.613.7,2.5,2.5,0,0,1,.666,1.8,2.966,2.966,0,0,1-.313,1.35A2.282,2.282,0,0,1,7.324-.2,2.35,2.35,0,0,1,6.082.132,2.427,2.427,0,0,1,4.15-.74,4.4,4.4,0,0,1,3.4-3.611a5.147,5.147,0,0,1,.826-3.253,2.376,2.376,0,0,1,1.942-.884,2.179,2.179,0,0,1,1.492.511A2.168,2.168,0,0,1,8.361-5.827ZM4.493-2.5a2.2,2.2,0,0,0,.208.937,1.55,1.55,0,0,0,.582.682,1.454,1.454,0,0,0,.784.234A1.337,1.337,0,0,0,7.1-1.132,1.906,1.906,0,0,0,7.53-2.448,1.784,1.784,0,0,0,7.1-3.708,1.4,1.4,0,0,0,6.03-4.169a1.462,1.462,0,0,0-1.09.461A1.66,1.66,0,0,0,4.493-2.5Z" transform="translate(276 272)" fill="#558ef9"/>
    <path id="內文p-3" data-name="內文p" d="M-4.977,0h-.947V-6.037a4.9,4.9,0,0,1-.9.653,6.362,6.362,0,0,1-1,.49v-.916a5.722,5.722,0,0,0,1.39-.905,3.561,3.561,0,0,0,.842-1.032h.611ZM-2.55-3.806a7.061,7.061,0,0,1,.282-2.2A2.74,2.74,0,0,1-1.432-7.3a2.14,2.14,0,0,1,1.4-.453,2.28,2.28,0,0,1,1.09.25,2.083,2.083,0,0,1,.774.721,3.869,3.869,0,0,1,.479,1.147,7.624,7.624,0,0,1,.174,1.824A7.081,7.081,0,0,1,2.2-1.613a2.741,2.741,0,0,1-.834,1.29,2.14,2.14,0,0,1-1.4.455,2.118,2.118,0,0,1-1.753-.8A5.085,5.085,0,0,1-2.55-3.806Zm.974,0a4.838,4.838,0,0,0,.445,2.529,1.311,1.311,0,0,0,1.1.629,1.31,1.31,0,0,0,1.1-.632,4.84,4.84,0,0,0,.445-2.527,4.837,4.837,0,0,0-.445-2.532A1.32,1.32,0,0,0-.045-6.964a1.214,1.214,0,0,0-1.042.553A4.894,4.894,0,0,0-1.576-3.806Zm10,2.9V0h-5.1a1.676,1.676,0,0,1,.111-.658,3.481,3.481,0,0,1,.624-1.026A9.772,9.772,0,0,1,5.3-2.853,10.508,10.508,0,0,0,7-4.487a1.957,1.957,0,0,0,.442-1.14,1.266,1.266,0,0,0-.4-.95,1.452,1.452,0,0,0-1.05-.387,1.48,1.48,0,0,0-1.095.411,1.553,1.553,0,0,0-.416,1.137l-.974-.1a2.4,2.4,0,0,1,.753-1.661,2.568,2.568,0,0,1,1.753-.571,2.446,2.446,0,0,1,1.758.616,2.022,2.022,0,0,1,.647,1.526,2.315,2.315,0,0,1-.189.911,3.534,3.534,0,0,1-.629.942A15.324,15.324,0,0,1,6.135-2.395q-.853.716-1.095.971a3.115,3.115,0,0,0-.4.513Z" transform="translate(123 272)" fill="#558ef9"/>
    <g id="Group_2118" data-name="Group 2118" transform="translate(0 192)">
      <g id="Group_2033" data-name="Group 2033" transform="translate(81.212 82.575)">
        <path id="內文p-4" data-name="內文p" d="M9.39,7.25V6.49H5.26a23.22,23.22,0,0,0,.16-2.84h-.8a21.3,21.3,0,0,1-.15,2.84H.66v.76H4.35A6.492,6.492,0,0,1,.46,12.14a2.145,2.145,0,0,1,.56.61A7,7,0,0,0,5.01,7.8a8.073,8.073,0,0,0,3.98,4.95,3.825,3.825,0,0,1,.56-.7,7.29,7.29,0,0,1-3.93-4.8Zm6.78-.5a4.5,4.5,0,0,0-.72-.55,5.687,5.687,0,0,0,.58-.64l-.52-.17a3.571,3.571,0,0,1-.5.53c-.26-.14-.52-.29-.77-.4l-.37.33a7.351,7.351,0,0,1,.72.39,6.011,6.011,0,0,1-.95.55,2.58,2.58,0,0,1,.41.39,7.076,7.076,0,0,0,1-.65,5.453,5.453,0,0,1,.72.58Zm-.03-1.79c-.18-.14-.42-.3-.69-.47A5.136,5.136,0,0,0,16,3.88l-.52-.14a4.259,4.259,0,0,1-.47.49c-.26-.14-.51-.27-.75-.37l-.36.33a6.664,6.664,0,0,1,.7.36,6.027,6.027,0,0,1-.89.51,3.132,3.132,0,0,1,.42.36,6.948,6.948,0,0,0,.93-.6,4.949,4.949,0,0,1,.69.51Zm-4.65,2.8h7.03V9h.73V7.19h-.78c.08-.89.17-2.18.22-3.17H16.38v.51h1.59l-.03.54H16.43v.51h1.48l-.05.54H16.37v.51h1.45c-.02.2-.04.38-.06.56H12.28l-.04-.56h1.39V6.12H12.21l-.04-.54h1.42V5.07H12.14l-.04-.49a10.484,10.484,0,0,0,1.54-.39l-.33-.46a18.716,18.716,0,0,1-1.93.49l.2,2.97h-.8V9h.71Zm7.96,2.43h-4v-.18a10.421,10.421,0,0,0,2.26-1.24l-.45-.37-.15.04h-4.7V9h3.91a9.282,9.282,0,0,1-1.59.76v.43H10.56v.63h4.17v1.13c0,.14-.04.17-.21.18-.15,0-.71,0-1.33-.02a2.8,2.8,0,0,1,.26.63,5.984,5.984,0,0,0,1.61-.1c.31-.11.39-.28.39-.67V10.82h4Zm8.67-2.54a6.259,6.259,0,0,1-1.83,2.74,6.994,6.994,0,0,1-1.86-2.74ZM23.44,4.83h2.69c-.16.72-.36,1.5-.54,2.12H23.4c.03-.43.04-.84.04-1.22Zm5.14,2.08-.14.04H26.39c.22-.8.48-1.93.68-2.85H20.94v.73h1.75v.9a7.931,7.931,0,0,1-2.29,6.23,2.994,2.994,0,0,1,.54.63,7.845,7.845,0,0,0,2.4-4.94h.37a8.427,8.427,0,0,0,1.98,3.21,8.479,8.479,0,0,1-3,1.3,2.593,2.593,0,0,1,.42.68,9.368,9.368,0,0,0,3.17-1.46,7.714,7.714,0,0,0,2.81,1.39,3.223,3.223,0,0,1,.51-.7,7.816,7.816,0,0,1-2.7-1.19,7.369,7.369,0,0,0,2.2-3.74Zm7.59-.16a4.5,4.5,0,0,0-.72-.55,5.687,5.687,0,0,0,.58-.64l-.52-.17a3.571,3.571,0,0,1-.5.53c-.26-.14-.52-.29-.77-.4l-.37.33a7.351,7.351,0,0,1,.72.39,6.011,6.011,0,0,1-.95.55,2.58,2.58,0,0,1,.41.39,7.076,7.076,0,0,0,1-.65,5.453,5.453,0,0,1,.72.58Zm-.03-1.79c-.18-.14-.42-.3-.69-.47A5.136,5.136,0,0,0,36,3.88l-.52-.14a4.259,4.259,0,0,1-.47.49c-.26-.14-.51-.27-.75-.37l-.36.33a6.664,6.664,0,0,1,.7.36,6.027,6.027,0,0,1-.89.51,3.133,3.133,0,0,1,.42.36,6.948,6.948,0,0,0,.93-.6,4.949,4.949,0,0,1,.69.51Zm-4.65,2.8h7.03V9h.73V7.19h-.78c.08-.89.17-2.18.22-3.17H36.38v.51h1.59l-.03.54H36.43v.51h1.48l-.05.54H36.37v.51h1.45c-.02.2-.04.38-.06.56H32.28l-.04-.56h1.39V6.12H32.21l-.04-.54h1.42V5.07H32.14l-.04-.49a10.484,10.484,0,0,0,1.54-.39l-.33-.46a18.717,18.717,0,0,1-1.93.49l.2,2.97h-.8V9h.71Zm7.96,2.43h-4v-.18a10.42,10.42,0,0,0,2.26-1.24l-.45-.37-.15.04h-4.7V9h3.91a9.282,9.282,0,0,1-1.59.76v.43H30.56v.63h4.17v1.13c0,.14-.04.17-.21.18-.15,0-.71,0-1.33-.02a2.8,2.8,0,0,1,.26.63,5.984,5.984,0,0,0,1.61-.1c.31-.11.39-.28.39-.67V10.82h4Zm5.09-4.66h4.2V6.62h.71V4.88H46.96l.21-.08a6.787,6.787,0,0,0-.65-1.24l-.67.22a5.33,5.33,0,0,1,.54,1.1H43.85V6.62h.69ZM48.65,7.3V6.64h-4V7.3ZM43.2,4.01l-.12.03H40.82v8.71h.67V4.72h1.32c-.21.67-.51,1.53-.79,2.25a2.957,2.957,0,0,1,.89,2.01.867.867,0,0,1-.21.7.6.6,0,0,1-.31.09,2.875,2.875,0,0,1-.58-.01,1.506,1.506,0,0,1,.19.66,3.7,3.7,0,0,0,.67-.02.99.99,0,0,0,.52-.19,1.413,1.413,0,0,0,.39-1.16,3.106,3.106,0,0,0-.9-2.16c.34-.8.7-1.77,1-2.59ZM48.01,12c-.22,0-.26-.04-.26-.29V9.1h1.77V8.42H43.89V9.1h1.39c-.13,1.55-.53,2.53-2.25,3.07a2.232,2.232,0,0,1,.43.59c1.89-.66,2.37-1.83,2.54-3.66h1.05v2.62c0,.71.16.92.86.92h.88c.6,0,.79-.33.85-1.63a1.652,1.652,0,0,1-.64-.27c-.02,1.09-.06,1.26-.28,1.26Z" transform="translate(16.788 43.425)" fill="#aca4a4"/>
        <path id="內文p-5" data-name="內文p" d="M6.37,10.2v.93H3.52V10.2Zm.67-.56H2.83v2.54h.69v-.49H7.04ZM9.02,8.42H.99v4.34h.72V9.05H8.28v2.93c0,.12-.04.15-.17.16s-.58.01-1.01-.01a2.24,2.24,0,0,1,.24.55,4.5,4.5,0,0,0,1.32-.09c.27-.1.36-.25.36-.61ZM7.18,7.33H2.87v-.9H7.18ZM2.14,5.88v2h5.8v-2Zm3.39-1.2c-.11-.32-.26-.74-.4-1.08l-.72.17c.1.28.22.62.31.91H.63v.64H9.34V4.68Zm9.83,4.11V6.14h2.87V8.79Zm-3.63,0V6.14h2.86V8.79Zm3.63-3.38V3.63h-.77V5.41H11v4.73h.73V9.52h2.86v3.24h.77V9.52h2.87v.57h.76V5.41Zm13.91.54a7.948,7.948,0,0,0-.8-1.69l-.55.2a8.114,8.114,0,0,1,.77,1.72ZM26.71,4.71H25.63a9.427,9.427,0,0,0-.42-1.01l-.61.13c.12.27.24.6.34.88H23.71V5.3h3Zm-4.1,1.43H21.56V4.74h1.05ZM21.56,8.82h1.05v1.36c-.36.08-.72.16-1.05.23Zm1.05-.62H21.56V6.77h1.05Zm1.07-3.46V4.06H20.46v.68h.53v5.79c-.23.03-.44.08-.63.11l.15.64c.61-.15,1.35-.31,2.1-.49v1.98h.59V4.74Zm.84,6.05V9.85h1.42v.94Zm1.42-2.4v.92H24.52V8.39Zm2.89-.56a8.916,8.916,0,0,1-.84,1.91c-.1-.69-.18-1.53-.23-2.46h1.77V6.63H27.72c-.05-.93-.07-1.94-.08-2.99h-.65c.02,1.05.05,2.06.09,2.99H26.07c.11-.33.24-.75.36-1.13l-.62-.11a10.481,10.481,0,0,1-.29,1.24h-.71a8.617,8.617,0,0,0-.28-1.23l-.55.08a9.816,9.816,0,0,1,.24,1.15h-.68v.65h3.58a27.641,27.641,0,0,0,.34,3.25,7.9,7.9,0,0,1-.94,1.05V7.85H23.93v4.18h.59v-.7h1.42v.27h.56a6.491,6.491,0,0,1-.84.67,3.284,3.284,0,0,1,.43.4,8.148,8.148,0,0,0,1.55-1.41c.25.93.6,1.47,1.1,1.48.34.01.67-.39.86-1.89a2,2,0,0,1-.48-.37c-.07.91-.2,1.45-.36,1.45-.25-.01-.46-.49-.63-1.31a9.213,9.213,0,0,0,1.28-2.5Z" transform="translate(74.788 27.425)" fill="#aca4a4"/>
        <path id="內文p-6" data-name="內文p" d="M7.67,5.58A4.263,4.263,0,0,0,6.59,4.9l-.35.37a4.047,4.047,0,0,1,1.07.7ZM5,9.62c-1.12.2-2.23.4-2.99.52l.1.56c.82-.15,1.88-.36,2.92-.56Zm-.87-.88H2.98v-1H4.13ZM2.46,7.27V9.21H4.67V7.27ZM6.9,7.1a6.88,6.88,0,0,1-.74,1.84,14.573,14.573,0,0,1-.37-2.3H7.92V6.08H5.74c-.02-.35-.04-.7-.06-1.06H5.04c.02.36.05.71.08,1.06H2.11v.56H5.17A13.852,13.852,0,0,0,5.72,9.6a5.4,5.4,0,0,1-1.51,1.3,3.839,3.839,0,0,1,.44.47,6.271,6.271,0,0,0,1.32-1.15,1.632,1.632,0,0,0,1.04.97c.52.2.86-.2.99-1.29a1.871,1.871,0,0,1-.48-.33c-.07.64-.17,1.07-.31,1.03-.33-.05-.6-.39-.81-.92A7.761,7.761,0,0,0,7.51,7.23ZM1.56,11.66V4.77H8.42v6.89ZM.85,4.09v8.7h.71v-.46H8.42v.46h.73V4.09Zm14.51,4.7V6.14h2.87V8.79Zm-3.63,0V6.14h2.86V8.79Zm3.63-3.38V3.63h-.77V5.41H11v4.73h.73V9.52h2.86v3.24h.77V9.52h2.87v.57h.76V5.41Zm9.29-1.63v7.95c0,.2-.08.27-.29.27-.19.01-.91.02-1.64-.01a3.547,3.547,0,0,1,.31.77,6.94,6.94,0,0,0,1.91-.13c.35-.13.5-.35.5-.9V3.78ZM27.04,6.3a16.9,16.9,0,0,1,1.89,4.47l.78-.33a15.9,15.9,0,0,0-1.97-4.41Zm-5-.2a9.371,9.371,0,0,1-1.68,4.11,4.017,4.017,0,0,1,.7.39,11.216,11.216,0,0,0,1.8-4.35Z" transform="translate(16.788 27.425)" fill="#aca4a4"/>
        <path id="內文p-7" data-name="內文p" d="M9.21,5.31V4.64H3.05c.15-.28.28-.57.41-.85l-.73-.21A9.39,9.39,0,0,1,.43,6.92c.19.11.5.32.66.44A11.626,11.626,0,0,0,2.67,5.31Zm-3.57,5.5.34-.37a7.542,7.542,0,0,0-1.9-1.25l-.42.41a9.008,9.008,0,0,1,1.79,1.21H2.36c.08-.48.17-1.04.25-1.62H7.4c-.04.68-.08,1.21-.12,1.62ZM7.49,6.98c-.02.59-.04,1.1-.06,1.57H5.72l.43-.44a7.631,7.631,0,0,0-1.82-1.1l-.42.42A7.161,7.161,0,0,1,5.69,8.55h-3c.08-.53.15-1.06.22-1.57ZM9.55,9.21V8.53H8.15c.02-.54.05-1.15.07-1.85,0-.09.01-.36.01-.36H2.25c-.07.67-.18,1.44-.28,2.21H.46v.68H1.87c-.13.84-.27,1.65-.38,2.25h.4v.01H7.2a1.4,1.4,0,0,1-.2.58.4.4,0,0,1-.37.14,11.042,11.042,0,0,1-1.16-.04,1.509,1.509,0,0,1,.19.59,11.5,11.5,0,0,0,1.28.02.916.916,0,0,0,.7-.36,2.32,2.32,0,0,0,.29-.93H9.21v-.66H8.01c.05-.42.08-.95.12-1.6Zm7.34-4.1a15.208,15.208,0,0,0-.5-1.55l-.7.18a11.055,11.055,0,0,1,.47,1.59Zm2.2.33H13.7v.72h5.39Zm-3.33,5.53a39.594,39.594,0,0,0-.74-4.2l-.67.15a35.949,35.949,0,0,1,.68,4.26Zm-2.88-7.3a11.115,11.115,0,0,1-2.46,3.97,3.611,3.611,0,0,1,.42.73,10.166,10.166,0,0,0,.99-1.21v5.59h.74V6a14.182,14.182,0,0,0,1.01-2.12Zm4.58,7.97c.36-1.33.77-3.28,1.03-4.81l-.77-.14a43.4,43.4,0,0,1-.95,4.95H13.28v.72H19.5v-.72Zm8.71-4.89a4.5,4.5,0,0,0-.72-.55,5.687,5.687,0,0,0,.58-.64l-.52-.17a3.571,3.571,0,0,1-.5.53c-.26-.14-.52-.29-.77-.4l-.37.33a7.351,7.351,0,0,1,.72.39,6.011,6.011,0,0,1-.95.55,2.58,2.58,0,0,1,.41.39,7.076,7.076,0,0,0,1-.65,5.453,5.453,0,0,1,.72.58Zm-.03-1.79c-.18-.14-.42-.3-.69-.47A5.136,5.136,0,0,0,26,3.88l-.52-.14a4.259,4.259,0,0,1-.47.49c-.26-.14-.51-.27-.75-.37l-.36.33a6.664,6.664,0,0,1,.7.36,6.027,6.027,0,0,1-.89.51,3.133,3.133,0,0,1,.42.36,6.948,6.948,0,0,0,.93-.6,4.949,4.949,0,0,1,.69.51Zm-4.65,2.8h7.03V9h.73V7.19h-.78c.08-.89.17-2.18.22-3.17H26.38v.51h1.59l-.03.54H26.43v.51h1.48l-.05.54H26.37v.51h1.45c-.02.2-.04.38-.06.56H22.28l-.04-.56h1.39V6.12H22.21l-.04-.54h1.42V5.07H22.14l-.04-.49a10.484,10.484,0,0,0,1.54-.39l-.33-.46a18.717,18.717,0,0,1-1.93.49l.2,2.97h-.8V9h.71Zm7.96,2.43h-4v-.18a10.421,10.421,0,0,0,2.26-1.24l-.45-.37-.15.04h-4.7V9h3.91a9.282,9.282,0,0,1-1.59.76v.43H20.56v.63h4.17v1.13c0,.14-.04.17-.21.18-.15,0-.71,0-1.33-.02a2.8,2.8,0,0,1,.26.63,5.984,5.984,0,0,0,1.61-.1c.31-.11.39-.28.39-.67V10.82h4Zm5.95,1.54V9.19h3.21V8.47H35.4V6.29h3.58V5.56H35.4V3.64h-.76V5.56H32.61a13.725,13.725,0,0,0,.56-1.6l-.75-.16a9.116,9.116,0,0,1-1.85,3.68,4.979,4.979,0,0,1,.68.44,8.972,8.972,0,0,0,1.04-1.63h2.35V8.47H31.67v.72h2.97v2.54H30.59v.72h8.86v-.72Zm14.06-3.2h-4.1V5.04H48.9V4.31H41.08v.73H44.6V8.53H40.56v.73H44.6v3.5h.76V9.26h4.1Zm-7.68-2.8a11.7,11.7,0,0,1,.9,2.29l.7-.24a9.58,9.58,0,0,0-.95-2.25Zm5.3,2.32A19.634,19.634,0,0,0,48.31,5.7l-.78-.22a14.923,14.923,0,0,1-1.08,2.36Zm7.22,2.3h3.38V9.68H54.3Zm.23-2.94v.68h2.98V7.41Zm.89-2.12a14.2,14.2,0,0,0,.56-1.46l-.75-.19a10.536,10.536,0,0,1-1.52,3.14V6.14H52.55V3.85h-.72V6.14H50.54v.71h1.29v3.41c-.55.25-1.06.48-1.46.64l.28.75c.93-.45,2.17-1.06,3.33-1.63l-.2-.68c-.41.19-.83.39-1.23.58V6.85h1.12a6.275,6.275,0,0,1-.47.54c.19.11.53.32.68.43a10.014,10.014,0,0,0,1.21-1.83h3.55c-.13,4.03-.28,5.57-.61,5.91a.5.5,0,0,1-.43.16,14.64,14.64,0,0,1-1.51-.07,1.87,1.87,0,0,1,.24.76,11.549,11.549,0,0,0,1.55.01,1,1,0,0,0,.82-.41c.4-.5.53-2.08.69-6.67,0-.1.01-.39.01-.39Zm7.54-1.32a6.964,6.964,0,0,1-2.57,3.7,4.126,4.126,0,0,1,.62.55,8.72,8.72,0,0,0,2.72-4.06ZM61.89,7.39v.72h2.04a4.349,4.349,0,0,1-3.14,4.06,2.28,2.28,0,0,1,.48.65c2.54-.93,3.19-2.73,3.45-4.71H67.3c-.12,2.52-.26,3.52-.52,3.77-.1.11-.21.13-.42.13-.24,0-.85-.01-1.5-.07a1.652,1.652,0,0,1,.24.75,14.338,14.338,0,0,0,1.57.02,1.016,1.016,0,0,0,.78-.36c.34-.38.48-1.53.62-4.6.01-.1.02-.36.02-.36Zm2.63-3.58v.7h1.77A7.768,7.768,0,0,0,69.13,8.2a4.469,4.469,0,0,1,.53-.67,6.679,6.679,0,0,1-2.84-3.72Zm8.3,3.9-.65.26V6.34h.65V5.66h-.65V3.64h-.65V5.66H70.47v.68h1.05V8.23c-.45.18-.85.33-1.19.45l.24.69.95-.4v2.99c0,.12-.05.16-.16.16-.09,0-.43,0-.79-.01a3,3,0,0,1,.2.65,2.531,2.531,0,0,0,1.1-.13c.22-.12.3-.3.3-.68V8.71c.26-.12.54-.24.8-.35Zm4.39,2.44h.81v1.51h-.81Zm.81-3.87V7.57h-.81V6.28Zm0,3.29h-.81V8.17h.81ZM75.6,8.16h-.75V7.22h.75Zm-2.07,0V7.22h.73v.94Zm.44-3.15h1.28v.68H73.97Zm5.64,6.65H78.59V10.15h.84V9.57h-.84V8.17h.81v-.6h-.81V6.28h.85V5.63H77.18a14.98,14.98,0,0,0,.52-1.72,7.4,7.4,0,0,1,.66,1.67l.57-.22a7.259,7.259,0,0,0-.71-1.67l-.51.19.03-.13-.59-.12a9.255,9.255,0,0,1-1.16,3.09H74.85V6.17h.99V5.01h.57V4.48h-.57V3.64h-.59v.84H73.97V3.64H73.4v.84h-.64v.53h.64V6.17h.86v.55H73.02V8.65h1.24V9.2H72.98v.53h1.27a4.053,4.053,0,0,1-.07.62H72.72v.55h1.3a2.575,2.575,0,0,1-1.51,1.41,2.542,2.542,0,0,1,.35.46,3.144,3.144,0,0,0,1.58-1.32,7.677,7.677,0,0,1,1.34,1.13l.38-.48a8.155,8.155,0,0,0-1.5-1.17l.01-.03h1.61v-.55H74.79a5.986,5.986,0,0,0,.05-.62h1.3V9.2H74.85V8.65h1.27V7.1a2.26,2.26,0,0,1,.22.22c.09-.14.18-.29.27-.44v5.89h.6v-.54h2.4Zm4.07-3.67h-2.1V5.9h2.1Zm-2.1,3.06V8.65h2.1v2.4Zm.84-7.44a12.342,12.342,0,0,1-.4,1.62H80.9v7.28h.68v-.79h2.78V5.23H82.7c.17-.43.35-.98.52-1.47ZM89.25,5.2H86.26a14.048,14.048,0,0,0,.43-1.44l-.71-.17a10.147,10.147,0,0,1-1.53,3.63,5.465,5.465,0,0,1,.61.42A8.42,8.42,0,0,0,86,5.89h2.54c-.13,3.98-.28,5.5-.61,5.85-.1.13-.21.15-.41.15-.23,0-.83,0-1.48-.06a1.72,1.72,0,0,1,.25.73,10.539,10.539,0,0,0,1.48.01,1,1,0,0,0,.79-.4c.4-.49.53-2.03.69-6.59ZM87.67,9.7A19.564,19.564,0,0,0,86.1,7.44l-.58.34a17.792,17.792,0,0,1,1.52,2.31Zm8.76-3.52h1.75a11.394,11.394,0,0,1-.87,3.16A13.757,13.757,0,0,1,96.43,6.18Zm-3.57-.86h1.01a9.907,9.907,0,0,1-.71.99h-.3Zm6.71.86v-.7H96.65a17.531,17.531,0,0,0,.4-1.73l-.74-.12a10.7,10.7,0,0,1-1.56,4.29l-.35-.26-.14.04H92.8c.25-.23.48-.48.71-.73h1.74V6.31H94.04a11.046,11.046,0,0,0,1.25-2.24l-.69-.2a9.9,9.9,0,0,1-.71,1.42V4.68H92.86V3.63h-.69V4.68H90.86v.64h1.31v.99H90.44v.66h2.11a8.568,8.568,0,0,1-2.18,1.58,6.9,6.9,0,0,1,.53.57,10.722,10.722,0,0,0,1.21-.82h1.56a6.382,6.382,0,0,1-1.14.89v.69c-.79.09-1.51.18-2.08.25l.09.68c.57-.07,1.25-.17,1.99-.27v1.43c0,.11-.03.14-.17.15s-.55.01-1.05-.01a2.852,2.852,0,0,1,.24.65,4.125,4.125,0,0,0,1.33-.11c.28-.11.36-.29.36-.67V10.45c.65-.1,1.31-.19,1.97-.28l-.01-.65c-.66.09-1.32.18-1.96.26v-.4a7.95,7.95,0,0,0,1.51-1.32,3.788,3.788,0,0,1,.54.47,6.991,6.991,0,0,0,.67-1.18,13.047,13.047,0,0,0,.91,2.77,5.626,5.626,0,0,1-2.38,2.01,3.147,3.147,0,0,1,.45.67,6.675,6.675,0,0,0,2.33-1.94,5.433,5.433,0,0,0,1.86,1.89,2.43,2.43,0,0,1,.52-.63,4.922,4.922,0,0,1-1.93-1.96,11.385,11.385,0,0,0,1.22-3.98Zm8.76,1.42h-6.46V9.38a3.993,3.993,0,0,1-1.02,3,2.043,2.043,0,0,1,.59.46,4.762,4.762,0,0,0,1.15-3.44V8.23h4.96v1.83c-1.74.31-3.56.6-4.69.77l.24.67c1.23-.22,2.87-.56,4.45-.88V11.9c0,.14-.06.2-.24.2-.15.01-.82.01-1.44-.01a2.526,2.526,0,0,1,.21.64,8.036,8.036,0,0,0,1.79-.09c.34-.1.46-.29.46-.74Zm-5.42,1.52a17.5,17.5,0,0,1,3.66.98l.23-.55a17.835,17.835,0,0,0-3.65-.91Zm-.18-2.64c.46-.37.93-.77,1.39-1.21h2.28l-.42.27c.33.22.67.49,1,.75Zm6.64-1.88h-4.58c.24-.25.48-.52.71-.78l-.74-.31c-.29.37-.62.75-.94,1.09h-3.18v.67h2.51a11.384,11.384,0,0,1-.87.75,2.139,2.139,0,0,1-.84.52c.08.2.18.55.22.7.34-.12.85-.13,5.97-.39.27.26.51.51.69.72l.63-.43a14.771,14.771,0,0,0-2.22-1.87h2.64Zm10.04-.47h-5.27v.68h5.27Zm-.06,4.52a11.545,11.545,0,0,0-1.2-1.7c.34-.5.74-1.13,1.03-1.64l-.66-.18a16.952,16.952,0,0,1-1.11,1.84,10.939,10.939,0,0,1,1.34,1.97Zm-2.54-3.51a16.806,16.806,0,0,1-1.08,1.82,8.976,8.976,0,0,1,1.24,1.96l.62-.28a13.423,13.423,0,0,0-1.13-1.7c.33-.49.72-1.13,1-1.63Zm-.96,3.54a12.026,12.026,0,0,0-1.1-1.73,18.948,18.948,0,0,0,.99-1.65l-.65-.17c-.23.47-.66,1.23-1.05,1.84a10.085,10.085,0,0,1,1.19,1.97Zm-1.82.77a12.844,12.844,0,0,0-.65-2.05l-.57.16c.12.3.23.64.34.98l-1.57.2a19.913,19.913,0,0,0,2.22-3.22l-.64-.38a14.073,14.073,0,0,1-.72,1.33l-1.03.09a17.785,17.785,0,0,0,1.52-2.66l-.66-.27a13.829,13.829,0,0,1-1.32,2.51c-.21.31-.38.51-.55.55a6.6,6.6,0,0,1,.23.66,5.237,5.237,0,0,1,1.38-.23c-.36.53-.67.95-.82,1.13-.29.36-.52.61-.74.66a4.757,4.757,0,0,1,.24.69,12.272,12.272,0,0,1,2.62-.49,5.187,5.187,0,0,1,.11.54Zm-3.15.58a11.25,11.25,0,0,1-.48,2.33c.15.06.46.16.59.23a12.638,12.638,0,0,0,.51-2.46Zm1.02.07a17.646,17.646,0,0,1,.25,2.11l.6-.1a16.9,16.9,0,0,0-.28-2.1Zm.97-.18a13.476,13.476,0,0,1,.49,1.69l.55-.19a11.112,11.112,0,0,0-.51-1.67Zm4.21,1.93V9.95h2.03V9.28h-4.75v.67h1.99v1.9H113.8v.68h5.71v-.68Zm6.44-.55a12.07,12.07,0,0,1-2.95.91,3.966,3.966,0,0,1,.53.56,14.348,14.348,0,0,0,3.09-1.17Zm-.96-1.12h5v.63h-5Zm3.21-3.35v.69h.7V6.83h2.11a.648.648,0,0,1-.12.36c-.05.06-.12.07-.23.07s-.38-.01-.69-.04a1.115,1.115,0,0,1,.12.32H123.2a2.087,2.087,0,0,0,.71-.71Zm-2.24-1.09a1.766,1.766,0,0,1-.15.6h-1.32q.045-.285.09-.6Zm.7-1.06h1.54v.57h-1.54Zm3.79,0v.57h-1.55V4.68Zm-2.25,1.66h-1.66a2.354,2.354,0,0,0,.1-.6h1.56Zm1.79,2.3h-5V8.02h5Zm0,1.07h-5V9.1h5Zm.74,1.58V7.73c.1,0,.19-.01.26-.01a.71.71,0,0,0,.48-.18c.14-.13.2-.42.26-.96.01-.09.02-.24.02-.24h-2.85v-.6h2.23V4.19h-2.23V3.64h-.7v.55h-1.54V3.64h-.68v.55h-2.44v.49h2.44v.57h-1.99c-.06.52-.16,1.14-.25,1.58h1.7a4.893,4.893,0,0,1-2.41.93,2.634,2.634,0,0,1,.35.58c.33-.07.63-.14.89-.22v3.17h4.43l-.37.36a24.352,24.352,0,0,1,2.94,1.07l.56-.46a27.086,27.086,0,0,0-2.81-.97Z" transform="translate(-3.212 8.425)" fill="#aca4a4"/>
        <path id="內文p-8" data-name="內文p" d="M5.42,9.01V7.35H8.11V9.01Zm-3.17,0c.03-.37.04-.74.04-1.07V7.35H4.68V9.01ZM4.68,5.05v1.6H2.29V5.05Zm3.43,1.6H5.42V5.05H8.11Zm.73-2.31H1.56v3.6a6.476,6.476,0,0,1-1.2,4.39,2.426,2.426,0,0,1,.57.49,5.742,5.742,0,0,0,1.25-3.1h2.5v2.95h.74V9.72H8.11v2.03c0,.19-.07.25-.27.26-.18,0-.86.01-1.56-.02a2.939,2.939,0,0,1,.25.72,6.525,6.525,0,0,0,1.86-.12c.32-.13.45-.35.45-.83Zm4.39.65a6.34,6.34,0,0,0-.86-1.39l-.65.25a5.834,5.834,0,0,1,.81,1.42ZM12.22,7.35c.02-.44.03-.91.04-1.38h2.3V5.28H10.54v.69h.99c-.03,2.71-.12,4.93-1.19,6.22a1.924,1.924,0,0,1,.56.54c.9-1.08,1.19-2.72,1.3-4.7h1.28c-.1,2.59-.21,3.54-.4,3.76a.283.283,0,0,1-.29.13c-.14,0-.42,0-.77-.03a1.7,1.7,0,0,1,.19.68,5.274,5.274,0,0,0,.91-.01.682.682,0,0,0,.57-.31c.28-.36.39-1.43.51-4.56.01-.1.01-.34.01-.34Zm3.04,3.43a14.179,14.179,0,0,1,2.7,1.76l.5-.65a15.272,15.272,0,0,0-2.73-1.67ZM18.1,8.79a12.639,12.639,0,0,0-1.75-1.31l-.48.48a14.146,14.146,0,0,1,1.72,1.38ZM16.74,3.58a6.124,6.124,0,0,1-2.5,3.56,2.825,2.825,0,0,1,.52.59,6.494,6.494,0,0,0,2.16-2.66,7.662,7.662,0,0,0,2.22,2.6,2.923,2.923,0,0,1,.55-.61,6.9,6.9,0,0,1-2.45-2.72,5.051,5.051,0,0,0,.18-.55Zm9.69,2.6h1.75a11.394,11.394,0,0,1-.87,3.16A13.757,13.757,0,0,1,26.43,6.18Zm-3.57-.86h1.01a9.906,9.906,0,0,1-.71.99h-.3Zm6.71.86v-.7H26.65a17.528,17.528,0,0,0,.4-1.73l-.74-.12a10.7,10.7,0,0,1-1.56,4.29l-.35-.26-.14.04H22.8c.25-.23.48-.48.71-.73h1.74V6.31H24.04a11.046,11.046,0,0,0,1.25-2.24l-.69-.2a9.9,9.9,0,0,1-.71,1.42V4.68H22.86V3.63h-.69V4.68H20.86v.64h1.31v.99H20.44v.66h2.11a8.568,8.568,0,0,1-2.18,1.58,6.894,6.894,0,0,1,.53.57,10.722,10.722,0,0,0,1.21-.82h1.56a6.382,6.382,0,0,1-1.14.89v.69c-.79.09-1.51.18-2.08.25l.09.68c.57-.07,1.25-.17,1.99-.27v1.43c0,.11-.03.14-.17.15s-.55.01-1.05-.01a2.852,2.852,0,0,1,.24.65,4.125,4.125,0,0,0,1.33-.11c.28-.11.36-.29.36-.67V10.45c.65-.1,1.31-.19,1.97-.28l-.01-.65c-.66.09-1.32.18-1.96.26v-.4a7.95,7.95,0,0,0,1.51-1.32,3.788,3.788,0,0,1,.54.47,6.991,6.991,0,0,0,.67-1.18,13.047,13.047,0,0,0,.91,2.77,5.626,5.626,0,0,1-2.38,2.01,3.147,3.147,0,0,1,.45.67,6.675,6.675,0,0,0,2.33-1.94,5.433,5.433,0,0,0,1.86,1.89,2.43,2.43,0,0,1,.52-.63,4.922,4.922,0,0,1-1.93-1.96,11.384,11.384,0,0,0,1.22-3.98Zm3.68,3.26v1.71H31.51V9.44Zm-.09-3.67V7.24H31.51V5.77Zm-1.65,2.1h2.31V5.13H32.35c.18-.41.39-.93.55-1.38l-.8-.12a11.378,11.378,0,0,1-.43,1.5h-.84v7.33h.68v-.67h2.41V8.8H31.51Zm8.01-3.04V4.16h-5.3v.67H36.5V6.06H34.59v5.21h.68V6.74H36.5v6.01h.7V6.74h1.33v3.74c0,.1-.03.14-.14.14s-.41,0-.77-.01a2.568,2.568,0,0,1,.2.65,2.826,2.826,0,0,0,1.11-.12c.23-.11.29-.32.29-.65V6.06H37.2V4.83Zm5.82,3.44h1.37l-.24.21a7.615,7.615,0,0,1,.76.31l-1.89.03Zm-3.08-.5V7.15h2.36v.62Zm0-1.7h2.36v.6H42.26Zm5.51,0v.6H45.34v-.6Zm0,1.7H45.34V7.15h2.43Zm1.74,2.16H47.13V9.29l.99-.03a6.748,6.748,0,0,1,.57.4l.44-.42a8.171,8.171,0,0,0-1.79-.97H48.5V5.56H45.34V5h3.77V4.4H45.34V3.65h-.72V4.4H40.79V5h3.83v.56H41.56V8.27h3.06v.55c-1.43.02-2.74.03-3.73.03l.03.58c1.44-.02,3.44-.06,5.49-.12v.62H40.5v.61h2.07l-.49.42a8.625,8.625,0,0,1,1.65,1.3l.53-.49a8.336,8.336,0,0,0-1.64-1.23h3.79v1.41c0,.13-.05.17-.2.18s-.72.01-1.33-.01a2.268,2.268,0,0,1,.24.64,5.79,5.79,0,0,0,1.61-.11c.32-.1.4-.3.4-.68V10.54h2.38Zm4.07.97a8.954,8.954,0,0,1-2.96.99,2.7,2.7,0,0,1,.45.56,9.289,9.289,0,0,0,3.07-1.29Zm2.42.35c.95.35,2.22.86,2.88,1.18l.46-.47c-.69-.32-1.96-.8-2.9-1.11Zm.59-5.22a7.823,7.823,0,0,1-.59.99l.35.11H53.59L54,7.02a4.022,4.022,0,0,0-.53-.99ZM55.35,9.77V9.02h3.13V8.45H55.35V7.73h3.62v-.6H56.68a11,11,0,0,0,.69-.92l-.65-.18h2.6V5.41H57.78c.26-.38.59-.93.87-1.44l-.76-.21a8.349,8.349,0,0,1-.77,1.52l.4.13H56.31V3.64H55.6V5.41H54.41V3.64h-.7V5.41H52.49l.5-.2a6.134,6.134,0,0,0-.85-1.47l-.63.22a7.883,7.883,0,0,1,.8,1.45H50.7v.62h2.58l-.53.14a4.271,4.271,0,0,1,.51.96H51.1v.6h3.52v.72H51.61v.57h3.01v.75H50.67v.63h3.95v2.37h.73V10.4h4.01V9.77Zm6.98.25V6.75h1V6.06h-1V3.75h-.69V6.06H60.58v.69h1.06v3.52c-.45.16-.85.31-1.19.41l.24.74c.8-.31,1.82-.72,2.77-1.11l-.13-.66Zm5.53-.46v.83H64.94V9.56Zm-2.92,2.13v-.75h2.92v.75Zm-.69,1.05h.69v-.47h2.92v.47h.71V8.99H64.25Zm.18-8.82a7.943,7.943,0,0,1,.7,1.16l.64-.31a4.857,4.857,0,0,0-.72-1.11Zm.23,2.14a5.261,5.261,0,0,1,.68,1.43l.45-.19a5.708,5.708,0,0,0-.7-1.4Zm2.61,1.45a15.334,15.334,0,0,0,.91-1.42l-.51-.19a8.8,8.8,0,0,1-.78,1.45Zm1.13.33H66.68V5.61H68.4ZM64.35,5.61H66.1V7.84H64.35Zm3.32-.53c.27-.35.57-.79.84-1.2l-.76-.27a9.037,9.037,0,0,1-.85,1.47H63.73V8.37h5.31V5.08ZM78.5,7.94a4.92,4.92,0,0,0,.89-.06c-.03-.17-.06-.45-.08-.65a4.319,4.319,0,0,1-.83.06H76.64c-.32,0-.4-.12-.4-.48V5.68h2.69V5.02H76.24V3.64h-.73V6.79c0,.84.24,1.15,1.12,1.15Zm-6.6.81a16.389,16.389,0,0,1,1.58,1.08l.4-.41a17.651,17.651,0,0,0-1.59-1.04Zm-.08-.94h2.07V9.83c-.8.4-1.59.8-2.15,1.05a9.471,9.471,0,0,0,.08-1.26Zm2.78-.64H71.13V9.61a4.436,4.436,0,0,1-.63,2.66,2.29,2.29,0,0,1,.51.52,3.9,3.9,0,0,0,.72-1.87l.26.6c.56-.32,1.24-.71,1.9-1.1v1.54c0,.13-.03.17-.17.17s-.54.01-1.02-.01a2.484,2.484,0,0,1,.24.62,3.887,3.887,0,0,0,1.31-.12c.27-.11.35-.28.35-.66ZM73.36,4.59c.21.31.42.65.62.99l-2.05.14a13.227,13.227,0,0,0,1.39-1.84l-.74-.25a10.355,10.355,0,0,1-1.27,1.83,1.184,1.184,0,0,1-.53.39,4.855,4.855,0,0,1,.24.7,14.976,14.976,0,0,1,3.29-.37c.13.25.24.48.32.68l.64-.29a13.685,13.685,0,0,0-1.31-2.21Zm3.44,7.43c-.47,0-.56-.06-.56-.39v-1.5h2.8V9.46h-2.8V8.27h-.73v3.36c0,.82.25,1.05,1.22,1.05H78.5c.83,0,1.05-.34,1.14-1.64a2.264,2.264,0,0,1-.66-.28c-.05,1.07-.12,1.26-.54,1.26Zm6.88-4.03h-2.1V5.9h2.1Zm-2.1,3.06V8.65h2.1v2.4Zm.84-7.44a12.342,12.342,0,0,1-.4,1.62H80.9v7.28h.68v-.79h2.78V5.23H82.7c.17-.43.35-.98.52-1.47ZM89.25,5.2H86.26a14.048,14.048,0,0,0,.43-1.44l-.71-.17a10.147,10.147,0,0,1-1.53,3.63,5.465,5.465,0,0,1,.61.42A8.42,8.42,0,0,0,86,5.89h2.54c-.13,3.98-.28,5.5-.61,5.85-.1.13-.21.15-.41.15-.23,0-.83,0-1.48-.06a1.72,1.72,0,0,1,.25.73,10.539,10.539,0,0,0,1.48.01,1,1,0,0,0,.79-.4c.4-.49.53-2.03.69-6.59ZM87.67,9.7A19.564,19.564,0,0,0,86.1,7.44l-.58.34a17.792,17.792,0,0,1,1.52,2.31ZM99.41,4.13H94.14v.68h5.27Zm-.06,4.52a11.545,11.545,0,0,0-1.2-1.7c.34-.5.74-1.13,1.03-1.64l-.66-.18a16.952,16.952,0,0,1-1.11,1.84,10.939,10.939,0,0,1,1.34,1.97ZM96.81,5.14a16.806,16.806,0,0,1-1.08,1.82,8.976,8.976,0,0,1,1.24,1.96l.62-.28a13.423,13.423,0,0,0-1.13-1.7c.33-.49.72-1.13,1-1.63Zm-.96,3.54a12.026,12.026,0,0,0-1.1-1.73,18.948,18.948,0,0,0,.99-1.65l-.65-.17c-.23.47-.66,1.23-1.05,1.84a10.085,10.085,0,0,1,1.19,1.97Zm-1.82.77a12.844,12.844,0,0,0-.65-2.05l-.57.16c.12.3.23.64.34.98l-1.57.2A19.913,19.913,0,0,0,93.8,5.52l-.64-.38a14.073,14.073,0,0,1-.72,1.33l-1.03.09A17.785,17.785,0,0,0,92.93,3.9l-.66-.27a13.829,13.829,0,0,1-1.32,2.51c-.21.31-.38.51-.55.55a6.6,6.6,0,0,1,.23.66,5.237,5.237,0,0,1,1.38-.23c-.36.53-.67.95-.82,1.13-.29.36-.52.61-.74.66a4.757,4.757,0,0,1,.24.69,12.272,12.272,0,0,1,2.62-.49,5.187,5.187,0,0,1,.11.54Zm-3.15.58a11.25,11.25,0,0,1-.48,2.33c.15.06.46.16.59.23a12.638,12.638,0,0,0,.51-2.46Zm1.02.07a17.646,17.646,0,0,1,.25,2.11l.6-.1a16.9,16.9,0,0,0-.28-2.1Zm.97-.18a13.476,13.476,0,0,1,.49,1.69l.55-.19a11.112,11.112,0,0,0-.51-1.67Zm4.21,1.93V9.95h2.03V9.28H94.36v.67h1.99v1.9H93.8v.68h5.71v-.68Zm6.44-.55a12.07,12.07,0,0,1-2.95.91,3.966,3.966,0,0,1,.53.56,14.348,14.348,0,0,0,3.09-1.17Zm-.96-1.12h5v.63h-5Zm3.21-3.35v.69h.7V6.83h2.11a.648.648,0,0,1-.12.36c-.05.06-.12.07-.23.07s-.38-.01-.69-.04a1.115,1.115,0,0,1,.12.32H103.2a2.087,2.087,0,0,0,.71-.71Zm-2.24-1.09a1.766,1.766,0,0,1-.15.6h-1.32q.045-.285.09-.6Zm.7-1.06h1.54v.57h-1.54Zm3.79,0v.57h-1.55V4.68Zm-2.25,1.66h-1.66a2.354,2.354,0,0,0,.1-.6h1.56Zm1.79,2.3h-5V8.02h5Zm0,1.07h-5V9.1h5Zm.74,1.58V7.73c.1,0,.19-.01.26-.01a.71.71,0,0,0,.48-.18c.14-.13.2-.42.26-.96.01-.09.02-.24.02-.24h-2.85v-.6h2.23V4.19h-2.23V3.64h-.7v.55h-1.54V3.64h-.68v.55h-2.44v.49h2.44v.57h-1.99c-.06.52-.16,1.14-.25,1.58h1.7a4.893,4.893,0,0,1-2.41.93,2.634,2.634,0,0,1,.35.58c.33-.07.63-.14.89-.22v3.17h4.43l-.37.36a24.352,24.352,0,0,1,2.94,1.07l.56-.46a27.086,27.086,0,0,0-2.81-.97Z" transform="translate(165.788 8.425)" fill="#aca4a4"/>
        <line id="Line_56" data-name="Line 56" x2="12" transform="translate(-0.712 51.212)" fill="none" stroke="#fff" stroke-linecap="round" stroke-width="5"/>
        <line id="Line_116" data-name="Line 116" x2="12" transform="translate(57.288 35.212)" fill="none" stroke="#1feac3" stroke-linecap="round" stroke-width="5"/>
        <line id="Line_117" data-name="Line 117" x2="12" transform="translate(-0.713 35.212)" fill="none" stroke="#ff6cd7" stroke-linecap="round" stroke-width="5"/>
        <text id="內文p-9" data-name="內文p" transform="translate(187.788 27.425)" fill="#aca4a4" font-size="11" font-family="SourceHanSansTW-Regular, Source Han Sans TW"><tspan x="0" y="13">教師</tspan></text>
        <rect id="Rectangle_2331" data-name="Rectangle 2331" width="18" height="10" rx="2" transform="translate(165.788 31.425)" fill="#356bd0"/>
      </g>
      <line id="Line_579" data-name="Line 579" y2="49" transform="translate(226.5 92.5)" fill="none" stroke="#5b5757" stroke-width="1"/>
    </g>
  </g>
</svg>
