<svg xmlns="http://www.w3.org/2000/svg" width="209.265" height="222.964" viewBox="0 0 209.265 222.964">
  <g id="data3_m" transform="translate(8794.667 15160.964)">
    <g id="Group_1929" data-name="Group 1929" transform="translate(-9085.089 -15443.295)">
      <g id="data_3-04" transform="translate(290.422 295.537)">
        <rect id="Rectangle_2130" data-name="Rectangle 2130" width="25.658" height="14.46" transform="translate(36.426 195.298)" fill="none"/>
        <path id="Path_1744" data-name="Path 1744" d="M2.67-8.33A11.256,11.256,0,0,1,.21-4.36a4.445,4.445,0,0,1,.42.73,11.592,11.592,0,0,0,1-1.23V.75h.71V-5.96A14.726,14.726,0,0,0,3.37-8.12ZM4.69.52H7.35V-.1H4.69ZM4.48-4.55V-6.83c.69-.11,1.4-.24,2.09-.38.03.94.09,1.83.16,2.66Zm4.91.69v-.69H7.41c-.08-.87-.14-1.82-.17-2.8.66-.16,1.27-.33,1.79-.51l-.59-.56A26.117,26.117,0,0,1,3.78-7.35l.01.01H3.78v6.05a.666.666,0,0,1-.44.63,1.867,1.867,0,0,1,.28.61A13.847,13.847,0,0,1,6.33-.91a4.1,4.1,0,0,1-.02-.62l-1.83.48V-3.86H6.8C7.09-1.17,7.66.67,8.7.7c.37,0,.72-.43.91-1.93a2.369,2.369,0,0,1-.53-.36C9.01-.65,8.89-.13,8.7-.13c-.54-.02-.97-1.54-1.21-3.73ZM16.7-7.87a10.237,10.237,0,0,1,1.77,1.2l.46-.51a9.539,9.539,0,0,0-1.79-1.14Zm1.42,2.7a9.9,9.9,0,0,1-1.28,2.7,18.037,18.037,0,0,1-.55-3.47h3.18v-.73H16.24c-.03-.54-.04-1.1-.04-1.68h-.77c.01.57.02,1.13.06,1.68H11.32v2.79A7.761,7.761,0,0,1,10.41.34a2.958,2.958,0,0,1,.62.5,8.79,8.79,0,0,0,1.05-4.71v-.08H13.9a6.841,6.841,0,0,1-.23,2.5c-.06.09-.16.11-.3.11-.17,0-.6-.01-1.06-.05a1.545,1.545,0,0,1,.21.7,11.539,11.539,0,0,0,1.19,0,.774.774,0,0,0,.6-.29c.21-.26.27-1.1.32-3.34v-.32H12.08v-1.3h3.45a19.663,19.663,0,0,0,.73,4.21A7.98,7.98,0,0,1,13.96.12a4.186,4.186,0,0,1,.54.59A8.941,8.941,0,0,0,16.56-.95C17.02.08,17.62.69,18.39.69S19.42.2,19.56-1.5a1.758,1.758,0,0,1-.64-.4c-.07,1.33-.19,1.85-.47,1.85-.51,0-.97-.57-1.34-1.55a11.276,11.276,0,0,0,1.76-3.38ZM29.19-6.45a6.164,6.164,0,0,0-1.03-1.44l-.5.28a6.578,6.578,0,0,1,1,1.49Zm-4.08-.68H23.46a8.1,8.1,0,0,0-.53-1.24l-.68.15c.15.34.34.75.45,1.09H20.57v.66h4.54ZM21.45-2.74a5.962,5.962,0,0,1-.92,2.19c.15.09.42.27.54.36a7.567,7.567,0,0,0,1-2.42Zm.31-2.33h2.25v1.2H21.76Zm2.94,1.8V-5.68H21.11v2.41h1.5V-.04c0,.1-.03.13-.14.13s-.43.01-.78,0A2.01,2.01,0,0,1,21.9.7,2.727,2.727,0,0,0,22.98.59c.24-.11.3-.28.3-.62V-3.27Zm.25,2.16a6.672,6.672,0,0,0-.74-1.74l-.53.24a7.375,7.375,0,0,1,.71,1.76Zm4.55-4v-.67H27.22c.06-.88.06-1.75.07-2.56h-.7c-.01.81-.01,1.68-.06,2.56H25.2v.67h1.29C26.31-3,25.81-.92,24.37.34a2,2,0,0,1,.54.44c1.53-1.39,2.06-3.64,2.26-5.89ZM28.17-.04a.536.536,0,0,1-.24-.05c-.06-.04-.08-.17-.08-.38V-4.32h-.66V-.55c0,.63.07.79.23.91a1.05,1.05,0,0,0,.62.17h.64a1.344,1.344,0,0,0,.57-.1.6.6,0,0,0,.31-.39,6.276,6.276,0,0,0,.11-1.18,1.529,1.529,0,0,1-.58-.3,10.489,10.489,0,0,1-.05,1.08q-.03.225-.15.27a.559.559,0,0,1-.29.05Z" transform="translate(36.396 200.448)" fill="#d48773"/>
        <rect id="Rectangle_2131" data-name="Rectangle 2131" width="25.658" height="14.46" transform="translate(145.335 195.298)" fill="none"/>
        <path id="Path_1745" data-name="Path 1745" d="M6.37-1.8v.93H3.52V-1.8Zm.67-.56H2.83V.18h.69V-.31H7.04ZM9.02-3.58H.99V.76h.72V-2.95H8.28V-.02c0,.12-.04.15-.17.16S7.53.15,7.1.13a2.24,2.24,0,0,1,.24.55A4.5,4.5,0,0,0,8.66.59c.27-.1.36-.25.36-.61ZM7.18-4.67H2.87v-.9H7.18ZM2.14-6.12v2h5.8v-2Zm3.39-1.2c-.11-.32-.26-.74-.4-1.08l-.72.17c.1.28.22.62.31.91H.63v.64H9.34v-.64ZM16.7-7.87a10.237,10.237,0,0,1,1.77,1.2l.46-.51a9.539,9.539,0,0,0-1.79-1.14Zm1.42,2.7a9.9,9.9,0,0,1-1.28,2.7,18.037,18.037,0,0,1-.55-3.47h3.18v-.73H16.24c-.03-.54-.04-1.1-.04-1.68h-.77c.01.57.02,1.13.06,1.68H11.32v2.79A7.761,7.761,0,0,1,10.41.34a2.958,2.958,0,0,1,.62.5,8.79,8.79,0,0,0,1.05-4.71v-.08H13.9a6.841,6.841,0,0,1-.23,2.5c-.06.09-.16.11-.3.11-.17,0-.6-.01-1.06-.05a1.545,1.545,0,0,1,.21.7,11.539,11.539,0,0,0,1.19,0,.774.774,0,0,0,.6-.29c.21-.26.27-1.1.32-3.34v-.32H12.08v-1.3h3.45a19.663,19.663,0,0,0,.73,4.21A7.98,7.98,0,0,1,13.96.12a4.186,4.186,0,0,1,.54.59A8.941,8.941,0,0,0,16.56-.95C17.02.08,17.62.69,18.39.69S19.42.2,19.56-1.5a1.758,1.758,0,0,1-.64-.4c-.07,1.33-.19,1.85-.47,1.85-.51,0-.97-.57-1.34-1.55a11.276,11.276,0,0,0,1.76-3.38ZM29.19-6.45a6.164,6.164,0,0,0-1.03-1.44l-.5.28a6.578,6.578,0,0,1,1,1.49Zm-4.08-.68H23.46a8.1,8.1,0,0,0-.53-1.24l-.68.15c.15.34.34.75.45,1.09H20.57v.66h4.54ZM21.45-2.74a5.962,5.962,0,0,1-.92,2.19c.15.09.42.27.54.36a7.567,7.567,0,0,0,1-2.42Zm.31-2.33h2.25v1.2H21.76Zm2.94,1.8V-5.68H21.11v2.41h1.5V-.04c0,.1-.03.13-.14.13s-.43.01-.78,0A2.01,2.01,0,0,1,21.9.7,2.727,2.727,0,0,0,22.98.59c.24-.11.3-.28.3-.62V-3.27Zm.25,2.16a6.672,6.672,0,0,0-.74-1.74l-.53.24a7.375,7.375,0,0,1,.71,1.76Zm4.55-4v-.67H27.22c.06-.88.06-1.75.07-2.56h-.7c-.01.81-.01,1.68-.06,2.56H25.2v.67h1.29C26.31-3,25.81-.92,24.37.34a2,2,0,0,1,.54.44c1.53-1.39,2.06-3.64,2.26-5.89ZM28.17-.04a.536.536,0,0,1-.24-.05c-.06-.04-.08-.17-.08-.38V-4.32h-.66V-.55c0,.63.07.79.23.91a1.05,1.05,0,0,0,.62.17h.64a1.344,1.344,0,0,0,.57-.1.6.6,0,0,0,.31-.39,6.276,6.276,0,0,0,.11-1.18,1.529,1.529,0,0,1-.58-.3,10.489,10.489,0,0,1-.05,1.08q-.03.225-.15.27a.559.559,0,0,1-.29.05Z" transform="translate(139.114 200.448)" fill="#d48773"/>
        <g id="Group_1640" data-name="Group 1640" transform="translate(0 0)">
          <g id="Group_1639" data-name="Group 1639" transform="translate(12.552)">
            <g id="Group_1636" data-name="Group 1636" transform="translate(104.644 72.175)">
              <g id="Group_1635" data-name="Group 1635">
                <rect id="Rectangle_2132" data-name="Rectangle 2132" width="37.657" height="54.393" transform="translate(0 59.623)" fill="#356bd0"/>
                <rect id="Rectangle_2133" data-name="Rectangle 2133" width="37.657" height="114.016" transform="translate(41.799)" fill="#356bd0"/>
              </g>
            </g>
            <g id="Group_1638" data-name="Group 1638">
              <g id="Group_1637" data-name="Group 1637">
                <rect id="Rectangle_2134" data-name="Rectangle 2134" width="37.657" height="163.24" transform="translate(0 23.012)" fill="#fff"/>
                <rect id="Rectangle_2135" data-name="Rectangle 2135" width="37.657" height="186.253" transform="translate(41.799)" fill="#fff"/>
              </g>
            </g>
          </g>
          <g id="Group_1630" data-name="Group 1630" transform="translate(0 186.191)">
            <line id="Line_118" data-name="Line 118" x2="209.265" fill="none" stroke="#55585f" stroke-miterlimit="10" stroke-width="1"/>
          </g>
        </g>
      </g>
      <path id="內文p" d="M3.132,14.156a2.857,2.857,0,0,0,2.88-3.024,2.51,2.51,0,0,0-2.652-2.8,2.558,2.558,0,0,0-1.308.348L2.268,6.14H5.592V5.192H1.308L1.032,9.32l.588.36a2.393,2.393,0,0,1,1.464-.516,1.78,1.78,0,0,1,1.824,2,1.9,1.9,0,0,1-1.872,2.076,2.894,2.894,0,0,1-2.16-.972l-.54.72A3.737,3.737,0,0,0,3.132,14.156Zm5.2,0a.793.793,0,0,0,.792-.828.794.794,0,1,0-1.584,0A.793.793,0,0,0,8.328,14.156Zm2.2-.156h5.532v-.948H13.62c-.444,0-.984.048-1.44.084,2.064-1.956,3.444-3.744,3.444-5.5a2.413,2.413,0,0,0-2.556-2.6,3.364,3.364,0,0,0-2.592,1.3l.636.624a2.463,2.463,0,0,1,1.824-1.02,1.546,1.546,0,0,1,1.62,1.74c0,1.512-1.272,3.264-4.032,5.676Zm8.592-3.408c1.212,0,2-1.02,2-2.8s-.792-2.76-2-2.76-1.992,1-1.992,2.76S17.916,10.592,19.116,10.592Zm0-.684c-.684,0-1.164-.708-1.164-2.112s.48-2.088,1.164-2.088,1.176.684,1.176,2.088S19.812,9.908,19.116,9.908Zm.264,4.248h.732l4.86-9.12h-.744Zm5.868,0c1.2,0,1.992-1.008,1.992-2.784s-.792-2.76-1.992-2.76-2,1-2,2.76S24.048,14.156,25.248,14.156Zm0-.672c-.7,0-1.164-.708-1.164-2.112s.468-2.088,1.164-2.088,1.164.684,1.164,2.088S25.932,13.484,25.248,13.484Z" transform="translate(413.089 409.295)" fill="#80adff"/>
      <path id="內文p-2" data-name="內文p" d="M1.056,14H5.88v-.912H4.116v-7.9h-.84a5.3,5.3,0,0,1-1.824.636v.7h1.56v6.564H1.056Zm8.94.156c1.668,0,2.736-1.524,2.736-4.584S11.664,5.036,10,5.036,7.248,6.512,7.248,9.572,8.316,14.156,10,14.156Zm0-.876c-1.008,0-1.68-1.116-1.68-3.708,0-2.568.672-3.66,1.68-3.66S11.664,7,11.664,9.572C11.664,12.164,10.992,13.28,10,13.28Zm4.992.876a.793.793,0,0,0,.792-.828.794.794,0,1,0-1.584,0A.793.793,0,0,0,14.988,14.156Zm3.228-6.264c0-1.2.648-1.992,1.488-1.992,1.128,0,1.8.96,1.92,2.772a2.305,2.305,0,0,1-1.836,1.176C18.744,9.848,18.216,9.08,18.216,7.892Zm1.248,6.264c1.656,0,3.192-1.368,3.192-4.932,0-2.8-1.26-4.188-2.952-4.188a2.641,2.641,0,0,0-2.52,2.856c0,1.824.96,2.772,2.424,2.772a2.737,2.737,0,0,0,2.028-1.08c-.084,2.724-1.068,3.66-2.208,3.66a1.94,1.94,0,0,1-1.464-.672l-.612.684A2.8,2.8,0,0,0,19.464,14.156Zm6.312-3.564c1.212,0,2-1.02,2-2.8s-.792-2.76-2-2.76-1.992,1-1.992,2.76S24.576,10.592,25.776,10.592Zm0-.684c-.684,0-1.164-.708-1.164-2.112s.48-2.088,1.164-2.088,1.176.684,1.176,2.088S26.472,9.908,25.776,9.908Zm.264,4.248h.732l4.86-9.12h-.744Zm5.868,0c1.2,0,1.992-1.008,1.992-2.784s-.792-2.76-1.992-2.76-2,1-2,2.76S30.708,14.156,31.908,14.156Zm0-.672c-.7,0-1.164-.708-1.164-2.112s.468-2.088,1.164-2.088,1.164.684,1.164,2.088S32.592,13.484,31.908,13.484Z" transform="translate(452.089 350.295)" fill="#80adff"/>
      <path id="內文p-3" data-name="內文p" d="M1.056,14H5.88v-.912H4.116v-7.9h-.84a5.3,5.3,0,0,1-1.824.636v.7h1.56v6.564H1.056Zm7.98,0h1.14c.132-3.444.516-5.5,2.58-8.136V5.192H7.248V6.14h4.26A13.027,13.027,0,0,0,9.036,14Zm5.952.156a.793.793,0,0,0,.792-.828.794.794,0,1,0-1.584,0A.793.793,0,0,0,14.988,14.156Zm5.016,0c1.656,0,2.76-1,2.76-2.28a2.567,2.567,0,0,0-1.488-2.3v-.06a2.884,2.884,0,0,0,1.176-2.124A2.225,2.225,0,0,0,20.04,5.072,2.238,2.238,0,0,0,17.628,7.3a2.445,2.445,0,0,0,1.188,2.028v.06a2.817,2.817,0,0,0-1.62,2.424A2.523,2.523,0,0,0,20,14.156Zm.6-4.932c-1.032-.408-1.98-.864-1.98-1.92a1.355,1.355,0,0,1,1.4-1.428,1.458,1.458,0,0,1,1.488,1.572A2.36,2.36,0,0,1,20.6,9.224Zm-.576,4.116a1.687,1.687,0,0,1-1.836-1.62,2.391,2.391,0,0,1,1.2-1.992c1.248.5,2.328.948,2.328,2.124A1.524,1.524,0,0,1,20.028,13.34Zm5.748-2.748c1.212,0,2-1.02,2-2.8s-.792-2.76-2-2.76-1.992,1-1.992,2.76S24.576,10.592,25.776,10.592Zm0-.684c-.684,0-1.164-.708-1.164-2.112s.48-2.088,1.164-2.088,1.176.684,1.176,2.088S26.472,9.908,25.776,9.908Zm.264,4.248h.732l4.86-9.12h-.744Zm5.868,0c1.2,0,1.992-1.008,1.992-2.784s-.792-2.76-1.992-2.76-2,1-2,2.76S30.708,14.156,31.908,14.156Zm0-.672c-.7,0-1.164-.708-1.164-2.112s.468-2.088,1.164-2.088,1.164.684,1.164,2.088S32.592,13.484,31.908,13.484Z" transform="translate(346.089 277.295)" fill="#fff"/>
    </g>
    <path id="內文p-4" data-name="內文p" d="M1.056,14H5.88v-.912H4.116v-7.9h-.84a5.3,5.3,0,0,1-1.824.636v.7h1.56v6.564H1.056Zm8.736.156a2.857,2.857,0,0,0,2.88-3.024,2.51,2.51,0,0,0-2.652-2.8,2.558,2.558,0,0,0-1.308.348L8.928,6.14h3.324V5.192H7.968L7.692,9.32l.588.36a2.393,2.393,0,0,1,1.464-.516,1.78,1.78,0,0,1,1.824,2A1.9,1.9,0,0,1,9.7,13.244a2.894,2.894,0,0,1-2.16-.972l-.54.72A3.737,3.737,0,0,0,9.792,14.156Zm5.2,0a.793.793,0,0,0,.792-.828.794.794,0,1,0-1.584,0A.793.793,0,0,0,14.988,14.156Zm5.184-4.8c1.068,0,1.6.756,1.6,1.944s-.66,2-1.5,2c-1.1,0-1.764-1-1.9-2.82A2.274,2.274,0,0,1,20.172,9.356Zm.1,4.8a2.641,2.641,0,0,0,2.52-2.856c0-1.836-.948-2.76-2.436-2.76a2.736,2.736,0,0,0-2,1.068c.048-2.736,1.068-3.66,2.268-3.66a1.86,1.86,0,0,1,1.416.672l.6-.684a2.7,2.7,0,0,0-2.052-.9c-1.7,0-3.252,1.32-3.252,4.764C17.328,12.7,18.576,14.156,20.268,14.156Zm5.508-3.564c1.212,0,2-1.02,2-2.8s-.792-2.76-2-2.76-1.992,1-1.992,2.76S24.576,10.592,25.776,10.592Zm0-.684c-.684,0-1.164-.708-1.164-2.112s.48-2.088,1.164-2.088,1.176.684,1.176,2.088S26.472,9.908,25.776,9.908Zm.264,4.248h.732l4.86-9.12h-.744Zm5.868,0c1.2,0,1.992-1.008,1.992-2.784s-.792-2.76-1.992-2.76-2,1-2,2.76S30.708,14.156,31.908,14.156Zm0-.672c-.7,0-1.164-.708-1.164-2.112s.468-2.088,1.164-2.088,1.164.684,1.164,2.088S32.592,13.484,31.908,13.484Z" transform="translate(-8781 -15143)" fill="#fff"/>
    <g id="Group_1930" data-name="Group 1930" transform="translate(-4372 -1171)">
      <path id="內文p-5" data-name="內文p" d="M.44,12H5.05v-.79H3.02c-.37,0-.82.04-1.2.07C3.54,9.65,4.69,8.16,4.69,6.7A2.011,2.011,0,0,0,2.56,4.53,2.8,2.8,0,0,0,.4,5.61l.53.52a2.053,2.053,0,0,1,1.52-.85A1.289,1.289,0,0,1,3.8,6.73c0,1.26-1.06,2.72-3.36,4.73Zm7.89.13c1.39,0,2.28-1.27,2.28-3.82S9.72,4.53,8.33,4.53,6.04,5.76,6.04,8.31,6.93,12.13,8.33,12.13Zm0-.73c-.84,0-1.4-.93-1.4-3.09,0-2.14.56-3.05,1.4-3.05s1.39.91,1.39,3.05C9.72,10.47,9.16,11.4,8.33,11.4Zm5.55.73c1.39,0,2.28-1.27,2.28-3.82s-.89-3.78-2.28-3.78-2.29,1.23-2.29,3.78S12.48,12.13,13.88,12.13Zm0-.73c-.84,0-1.4-.93-1.4-3.09,0-2.14.56-3.05,1.4-3.05s1.39.91,1.39,3.05C15.27,10.47,14.71,11.4,13.88,11.4Zm4.07-4.49c0-1,.54-1.66,1.24-1.66.94,0,1.5.8,1.6,2.31a1.921,1.921,0,0,1-1.53.98C18.39,8.54,17.95,7.9,17.95,6.91Zm1.04,5.22c1.38,0,2.66-1.14,2.66-4.11,0-2.33-1.05-3.49-2.46-3.49a2.2,2.2,0,0,0-2.1,2.38c0,1.52.8,2.31,2.02,2.31a2.281,2.281,0,0,0,1.69-.9c-.07,2.27-.89,3.05-1.84,3.05a1.617,1.617,0,0,1-1.22-.56l-.51.57A2.332,2.332,0,0,0,18.99,12.13Z" transform="translate(-4405 -13814)" fill="#b2aeae"/>
      <path id="內文p-6" data-name="內文p" d="M.44,12H5.05v-.79H3.02c-.37,0-.82.04-1.2.07C3.54,9.65,4.69,8.16,4.69,6.7A2.011,2.011,0,0,0,2.56,4.53,2.8,2.8,0,0,0,.4,5.61l.53.52a2.053,2.053,0,0,1,1.52-.85A1.289,1.289,0,0,1,3.8,6.73c0,1.26-1.06,2.72-3.36,4.73Zm7.89.13c1.39,0,2.28-1.27,2.28-3.82S9.72,4.53,8.33,4.53,6.04,5.76,6.04,8.31,6.93,12.13,8.33,12.13Zm0-.73c-.84,0-1.4-.93-1.4-3.09,0-2.14.56-3.05,1.4-3.05s1.39.91,1.39,3.05C9.72,10.47,9.16,11.4,8.33,11.4Zm5.55.73c1.39,0,2.28-1.27,2.28-3.82s-.89-3.78-2.28-3.78-2.29,1.23-2.29,3.78S12.48,12.13,13.88,12.13Zm0-.73c-.84,0-1.4-.93-1.4-3.09,0-2.14.56-3.05,1.4-3.05s1.39.91,1.39,3.05C15.27,10.47,14.71,11.4,13.88,11.4Zm4.07-4.49c0-1,.54-1.66,1.24-1.66.94,0,1.5.8,1.6,2.31a1.921,1.921,0,0,1-1.53.98C18.39,8.54,17.95,7.9,17.95,6.91Zm1.04,5.22c1.38,0,2.66-1.14,2.66-4.11,0-2.33-1.05-3.49-2.46-3.49a2.2,2.2,0,0,0-2.1,2.38c0,1.52.8,2.31,2.02,2.31a2.281,2.281,0,0,0,1.69-.9c-.07,2.27-.89,3.05-1.84,3.05a1.617,1.617,0,0,1-1.22-.56l-.51.57A2.332,2.332,0,0,0,18.99,12.13Z" transform="translate(-4298 -13814)" fill="#e5e5e5" opacity="0.82"/>
      <path id="內文p-7" data-name="內文p" d="M.44,12H5.05v-.79H3.02c-.37,0-.82.04-1.2.07C3.54,9.65,4.69,8.16,4.69,6.7A2.011,2.011,0,0,0,2.56,4.53,2.8,2.8,0,0,0,.4,5.61l.53.52a2.053,2.053,0,0,1,1.52-.85A1.289,1.289,0,0,1,3.8,6.73c0,1.26-1.06,2.72-3.36,4.73Zm7.89.13c1.39,0,2.28-1.27,2.28-3.82S9.72,4.53,8.33,4.53,6.04,5.76,6.04,8.31,6.93,12.13,8.33,12.13Zm0-.73c-.84,0-1.4-.93-1.4-3.09,0-2.14.56-3.05,1.4-3.05s1.39.91,1.39,3.05C9.72,10.47,9.16,11.4,8.33,11.4Zm3.65.6H16v-.76H14.53V4.66h-.7a4.416,4.416,0,0,1-1.52.53v.58h1.3v5.47H11.98Zm7.46.13a2.05,2.05,0,0,0,2.3-1.9A2.139,2.139,0,0,0,20.5,8.31V8.26a2.4,2.4,0,0,0,.98-1.77,1.854,1.854,0,0,0-2.01-1.93,1.865,1.865,0,0,0-2.01,1.86,2.038,2.038,0,0,0,.99,1.69v.05a2.348,2.348,0,0,0-1.35,2.02A2.1,2.1,0,0,0,19.44,12.13Zm.5-4.11c-.86-.34-1.65-.72-1.65-1.6a1.129,1.129,0,0,1,1.17-1.19A1.215,1.215,0,0,1,20.7,6.54,1.966,1.966,0,0,1,19.94,8.02Zm-.48,3.43a1.406,1.406,0,0,1-1.53-1.35,1.993,1.993,0,0,1,1-1.66c1.04.42,1.94.79,1.94,1.77A1.27,1.27,0,0,1,19.46,11.45Z" transform="translate(-4360 -13814)" fill="#b2aeae"/>
      <path id="內文p-8" data-name="內文p" d="M.44,12H5.05v-.79H3.02c-.37,0-.82.04-1.2.07C3.54,9.65,4.69,8.16,4.69,6.7A2.011,2.011,0,0,0,2.56,4.53,2.8,2.8,0,0,0,.4,5.61l.53.52a2.053,2.053,0,0,1,1.52-.85A1.289,1.289,0,0,1,3.8,6.73c0,1.26-1.06,2.72-3.36,4.73Zm7.89.13c1.39,0,2.28-1.27,2.28-3.82S9.72,4.53,8.33,4.53,6.04,5.76,6.04,8.31,6.93,12.13,8.33,12.13Zm0-.73c-.84,0-1.4-.93-1.4-3.09,0-2.14.56-3.05,1.4-3.05s1.39.91,1.39,3.05C9.72,10.47,9.16,11.4,8.33,11.4Zm3.65.6H16v-.76H14.53V4.66h-.7a4.416,4.416,0,0,1-1.52.53v.58h1.3v5.47H11.98Zm7.46.13a2.05,2.05,0,0,0,2.3-1.9A2.139,2.139,0,0,0,20.5,8.31V8.26a2.4,2.4,0,0,0,.98-1.77,1.854,1.854,0,0,0-2.01-1.93,1.865,1.865,0,0,0-2.01,1.86,2.038,2.038,0,0,0,.99,1.69v.05a2.348,2.348,0,0,0-1.35,2.02A2.1,2.1,0,0,0,19.44,12.13Zm.5-4.11c-.86-.34-1.65-.72-1.65-1.6a1.129,1.129,0,0,1,1.17-1.19A1.215,1.215,0,0,1,20.7,6.54,1.966,1.966,0,0,1,19.94,8.02Zm-.48,3.43a1.406,1.406,0,0,1-1.53-1.35,1.993,1.993,0,0,1,1-1.66c1.04.42,1.94.79,1.94,1.77A1.27,1.27,0,0,1,19.46,11.45Z" transform="translate(-4256 -13814)" fill="#e5e5e5" opacity="0.82"/>
    </g>
  </g>
</svg>
