<svg xmlns="http://www.w3.org/2000/svg" width="253.667" height="256.096" viewBox="0 0 253.667 256.096">
  <g id="data5_m" transform="translate(-87 -94)">
    <g id="Group_1785" data-name="Group 1785" transform="translate(87.49 191.064)">
      <rect id="Rectangle_2243" data-name="Rectangle 2243" width="206.631" height="15.725" rx="2" transform="translate(0.845 30.981)" fill="#4d505a"/>
      <path id="Rectangle_2241" data-name="Rectangle 2241" d="M2,0H174.236a0,0,0,0,1,0,0V15.725a0,0,0,0,1,0,0H2a2,2,0,0,1-2-2V2A2,2,0,0,1,2,0Z" transform="translate(0.845 30.981)" fill="#4891f2"/>
      <line id="Line_332" data-name="Line 332" x1="0.178" y2="15" transform="translate(115.01 31.436)" fill="none" stroke="#fff" stroke-width="1" stroke-dasharray="1"/>
      <path id="內文p" d="M9.926,12.654v2.24H3.99v-2.24ZM2.282,17.2H3.99V16.49H9.926v.7h1.792V11.058H2.282ZM8.148,6.3C8.666,6.816,9.226,7.4,9.772,8.02L4.032,8.2a23.013,23.013,0,0,0,3.052-3.57L5.4,3.918A18.681,18.681,0,0,1,2.436,7.726a2.884,2.884,0,0,1-1.162.812,12.746,12.746,0,0,1,.546,1.6c.742-.252,1.736-.28,9.17-.644a12.247,12.247,0,0,1,.728,1.064l1.414-1.022A25.446,25.446,0,0,0,9.45,5.43Zm19.32,2.408a8.631,8.631,0,0,0-.63-1.5l-.686.252c.056.112.112.238.168.364l-.784.084A12.724,12.724,0,0,0,27.02,5.85l-.854-.378c-.1.21-.21.42-.322.63L25.2,6.13A9.35,9.35,0,0,0,26.082,4.6l-.9-.336a6.246,6.246,0,0,1-.854,1.792c-.154.21-.28.35-.448.378a4.5,4.5,0,0,1,.308.672A5.329,5.329,0,0,1,25.3,6.942a8.784,8.784,0,0,1-.7.868,1.171,1.171,0,0,1-.658.49,2.986,2.986,0,0,1,.322.686,9.492,9.492,0,0,1,2.366-.434c.056.168.112.322.14.448Zm-1.316,2.338a7.653,7.653,0,0,0-.308-1.694l-.714.2a8.681,8.681,0,0,1,.28,1.75ZM24.22,9.28a4.546,4.546,0,0,1-.462,1.582,4.153,4.153,0,0,1,.672.49A5.952,5.952,0,0,0,25,9.49Zm-.252-3.752H22.554l.56-.14a9,9,0,0,0-.5-1.078l-1.092.224a6.816,6.816,0,0,1,.42.994H20.622V6.4h3.346Zm-.28,2.31h-2.66v.756h2.66ZM21.98,9.714h.7v.616h-.7Zm-.966,1.344h2.674V8.972H21.014Zm2.674-4.3h-2.66v.756h2.66ZM20.86,8.678a9.488,9.488,0,0,0-.616-1.47l-.7.252c.056.112.126.238.182.364l-.8.084a11.929,11.929,0,0,0,1.5-2.044l-.854-.406a6.881,6.881,0,0,1-.336.63l-.63.028a7.237,7.237,0,0,0,.868-1.526l-.9-.322a6.971,6.971,0,0,1-.84,1.792.734.734,0,0,1-.462.378,3.665,3.665,0,0,1,.336.658A3.716,3.716,0,0,1,18.7,6.914a7.149,7.149,0,0,1-.7.9c-.252.266-.434.448-.658.476a4.814,4.814,0,0,1,.322.686,11.45,11.45,0,0,1,2.352-.434,4.459,4.459,0,0,1,.126.434Zm-.14,1.848a6.236,6.236,0,0,0-.42-1.442l-.644.252a6.028,6.028,0,0,1,.378,1.5Zm-1.148.392a6.252,6.252,0,0,0-.294-1.568l-.714.182a7.514,7.514,0,0,1,.266,1.624ZM17.64,5.724A10.138,10.138,0,0,0,15.61,4.31l-.952,1.12a9.368,9.368,0,0,1,1.96,1.54Zm-.28,3.57a9.348,9.348,0,0,0-2.086-1.316l-.91,1.162a9.959,9.959,0,0,1,2.016,1.428ZM16.17,17.05c.546-1.358,1.12-2.968,1.568-4.466l-1.316-.84a42.718,42.718,0,0,1-1.736,4.48Zm1.442-7.7a4.732,4.732,0,0,1-.462,1.582,4.705,4.705,0,0,1,.686.49,6.443,6.443,0,0,0,.574-1.876Zm2.38,4.858.112-.448h6.2V11.45H18.368v.924h6.4v.448H18.788a23.682,23.682,0,0,1-.63,2.394h7.084a1.411,1.411,0,0,1-.406.728,1,1,0,0,1-.6.112c-.336,0-1.274-.014-2.1-.1a2.815,2.815,0,0,1,.448,1.218c.868.028,1.708.042,2.17.028a2.2,2.2,0,0,0,1.3-.364,3.493,3.493,0,0,0,.854-2.044,3.743,3.743,0,0,0,.084-.588Zm6.244-4.872a7.741,7.741,0,0,1,.476,1.764l.7-.322a8.056,8.056,0,0,0-.5-1.694Zm5.88,6.86c2.1,0,3.486-1.2,3.486-2.772a3.013,3.013,0,0,0-1.736-2.772v-.07A3.018,3.018,0,0,0,35.2,8.216a2.719,2.719,0,0,0-3.01-2.758c-1.806,0-3.122,1.064-3.122,2.73a2.951,2.951,0,0,0,1.372,2.464v.07a3.015,3.015,0,0,0-1.778,2.7C28.658,15.048,30.142,16.2,32.116,16.2Zm.658-6.118c-1.092-.434-1.89-.91-1.89-1.89A1.2,1.2,0,0,1,32.144,6.9a1.32,1.32,0,0,1,1.372,1.442A2.481,2.481,0,0,1,32.774,10.078Zm-.6,4.662a1.588,1.588,0,0,1-1.736-1.54,2.491,2.491,0,0,1,.952-1.918c1.344.546,2.3.994,2.3,2.072A1.358,1.358,0,0,1,32.172,14.74Zm6.37-3,1.61-2.576c.294-.56.574-1.134.826-1.68h.056c-.028.6-.084,1.54-.084,2.142v2.114Zm5.558,0H42.868V5.64H40.4L36.54,11.912v1.4h4.41V16h1.918V13.312H44.1Zm3.36.266c1.484,0,2.534-1.218,2.534-3.3s-1.05-3.262-2.534-3.262-2.52,1.19-2.52,3.262S45.976,12.01,47.46,12.01Zm0-1.162c-.6,0-1.064-.616-1.064-2.142s.462-2.1,1.064-2.1,1.078.574,1.078,2.1S48.062,10.848,47.46,10.848Zm.35,5.348h1.2L54.656,5.444H53.438Zm7.182,0c1.47,0,2.534-1.232,2.534-3.3s-1.064-3.276-2.534-3.276-2.52,1.19-2.52,3.276S53.522,16.2,54.992,16.2Zm0-1.176c-.6,0-1.078-.6-1.078-2.128s.476-2.114,1.078-2.114,1.078.588,1.078,2.114S55.594,15.02,54.992,15.02Z" transform="translate(161.51 -3.064)" fill="#4891f2"/>
      <path id="內文p-2" data-name="內文p" d="M5.194,16.182c2.576,0,4.382-2.058,4.382-5.348S7.77,5.542,5.194,5.542s-4.382,2-4.382,5.292S2.618,16.182,5.194,16.182Zm0-1.134c-1.848,0-3.052-1.652-3.052-4.214s1.2-4.158,3.052-4.158,3.052,1.582,3.052,4.158S7.028,15.048,5.194,15.048ZM11.788,16h6.076V14.894H13.09V11.156h3.892V10.05H13.09V6.83h4.62V5.724H11.788Zm12.11.182a3.967,3.967,0,0,0,3.15-1.47l-.714-.812a3.119,3.119,0,0,1-2.38,1.148c-1.96,0-3.192-1.624-3.192-4.214,0-2.562,1.288-4.158,3.234-4.158a2.8,2.8,0,0,1,2.1.98l.7-.84a3.8,3.8,0,0,0-2.814-1.274c-2.6,0-4.55,2.016-4.55,5.334S21.35,16.182,23.9,16.182ZM28.952,16h2.632c3.094,0,4.788-1.918,4.788-5.166s-1.694-5.11-4.844-5.11H28.952Zm1.3-1.064V6.788h1.162c2.422,0,3.612,1.442,3.612,4.046s-1.19,4.1-3.612,4.1Zm20.16-3.794h-5.74V6.256H49.63V5.234H38.682V6.256H43.61v4.886H37.954v1.022H43.61v4.9h1.064v-4.9h5.74ZM39.662,7.222a16.384,16.384,0,0,1,1.26,3.206l.98-.336a13.411,13.411,0,0,0-1.33-3.15Zm7.42,3.248A27.487,27.487,0,0,0,48.8,7.18l-1.092-.308a20.892,20.892,0,0,1-1.512,3.3ZM57.19,13.69h4.732v-.938H57.19Zm.322-4.116v.952h4.172V9.574Zm1.246-2.968a19.886,19.886,0,0,0,.784-2.044L58.492,4.3a14.75,14.75,0,0,1-2.128,4.4V7.8H54.74V4.59H53.732V7.8H51.926V8.79h1.806v4.774c-.77.35-1.484.672-2.044.9l.392,1.05c1.3-.63,3.038-1.484,4.662-2.282l-.28-.952c-.574.266-1.162.546-1.722.812V8.79h1.568a8.785,8.785,0,0,1-.658.756c.266.154.742.448.952.6A14.019,14.019,0,0,0,58.3,7.586h4.97c-.182,5.642-.392,7.8-.854,8.274a.694.694,0,0,1-.6.224,20.5,20.5,0,0,1-2.114-.1,2.618,2.618,0,0,1,.336,1.064,16.169,16.169,0,0,0,2.17.014,1.406,1.406,0,0,0,1.148-.574c.56-.7.742-2.912.966-9.338,0-.14.014-.546.014-.546Zm10.066,9.576a3.333,3.333,0,0,0,3.36-3.528A2.929,2.929,0,0,0,69.09,9.392a2.984,2.984,0,0,0-1.526.406l.252-2.968h3.878V5.724h-5l-.322,4.816.686.42a2.792,2.792,0,0,1,1.708-.6A2.077,2.077,0,0,1,70.9,12.7a2.218,2.218,0,0,1-2.184,2.422,3.376,3.376,0,0,1-2.52-1.134l-.63.84A4.36,4.36,0,0,0,68.824,16.182Zm7.77,0a3.333,3.333,0,0,0,3.36-3.528A2.929,2.929,0,0,0,76.86,9.392a2.984,2.984,0,0,0-1.526.406l.252-2.968h3.878V5.724h-5l-.322,4.816.686.42a2.792,2.792,0,0,1,1.708-.6A2.077,2.077,0,0,1,78.666,12.7a2.218,2.218,0,0,1-2.184,2.422,3.376,3.376,0,0,1-2.52-1.134l-.63.84A4.36,4.36,0,0,0,76.594,16.182Zm6.986-4.158c1.414,0,2.338-1.19,2.338-3.262s-.924-3.22-2.338-3.22S81.256,6.7,81.256,8.762,82.18,12.024,83.58,12.024Zm0-.8c-.8,0-1.358-.826-1.358-2.464s.56-2.436,1.358-2.436,1.372.8,1.372,2.436S84.392,11.226,83.58,11.226Zm.308,4.956h.854l5.67-10.64h-.868Zm6.846,0c1.4,0,2.324-1.176,2.324-3.248s-.924-3.22-2.324-3.22S88.4,10.876,88.4,12.934,89.334,16.182,90.734,16.182Zm0-.784c-.812,0-1.358-.826-1.358-2.464s.546-2.436,1.358-2.436,1.358.8,1.358,2.436S91.532,15.4,90.734,15.4Z" transform="translate(62.51 49.936)" fill="#c0c3c9"/>
      <g id="Group_1778" data-name="Group 1778" transform="translate(28 -8)">
        <path id="內文p-3" data-name="內文p" d="M13.3,11.94V10.26H7.728a13.639,13.639,0,0,0,.084-1.68V8.048h4.3V6.354h-4.3V4.142H6.062V6.354H4.116c.2-.546.378-1.106.532-1.68L2.884,4.3A10.835,10.835,0,0,1,.616,8.972a12.074,12.074,0,0,1,1.624.9,10.445,10.445,0,0,0,1.134-1.82H6.062V8.58a11.416,11.416,0,0,1-.112,1.68H.714v1.68h4.76C4.8,13.48,3.388,14.866.448,15.734A6.455,6.455,0,0,1,1.512,17.19c3.164-.966,4.76-2.548,5.544-4.326a8.114,8.114,0,0,0,5.558,4.354,6.243,6.243,0,0,1,1.12-1.582,7.181,7.181,0,0,1-5.306-3.7Zm2.772,1.806a6.212,6.212,0,0,1-1.75,2.562,9.39,9.39,0,0,1,1.33.938,8.957,8.957,0,0,0,2-3.108ZM24.78,8.2a14.43,14.43,0,0,1-.882,3.43,16.65,16.65,0,0,1-1.05-3.43Zm-5.992-.938H16.8V6h1.988Zm0,2.52H16.8V8.51h1.988Zm0,2.534H16.8V11.03h1.988ZM27.538,8.2V6.634H23.352a21.542,21.542,0,0,0,.532-2.226l-1.736-.266a13.511,13.511,0,0,1-1.736,5.012V4.688h-5.18v8.946h5.18V10.582c.28.224.546.462.7.6a7.917,7.917,0,0,0,.63-.854A15.507,15.507,0,0,0,22.9,13.4a7.25,7.25,0,0,1-2.366,2.016,11.573,11.573,0,0,0-1.232-1.694l-1.344.588A11.093,11.093,0,0,1,19.4,16.63l.9-.462a7.721,7.721,0,0,1,.616,1.078,9.245,9.245,0,0,0,2.954-2.3,8.145,8.145,0,0,0,2.7,2.254,6.413,6.413,0,0,1,1.162-1.5,6.956,6.956,0,0,1-2.814-2.3A16.174,16.174,0,0,0,26.544,8.2Zm4.2-1.722V8.944H30.45V6.48ZM30.45,13.032V10.4h1.288v2.632ZM33.292,5H28.91V15.748h1.54V14.516h2.842ZM34.1,13.34a19.742,19.742,0,0,1,1.61,2.352l1.456-.854a17.935,17.935,0,0,0-1.68-2.24ZM41.482,7.1V5.64h-3.15v-1.5H36.694v1.5h-3.15V7.1h3.15v1.33h-2.7V9.868h4.466V10.96h-4.9V12.4h4.9v3.01c0,.2-.07.252-.294.252s-.98,0-1.652-.028A6.062,6.062,0,0,1,37.03,17.2a6.156,6.156,0,0,0,2.338-.28c.56-.252.714-.672.714-1.47V12.4h1.344V10.96H40.082V9.868H41.1V8.426H38.332V7.1ZM43.624,11a19.571,19.571,0,0,0,.63-3.934L43.036,6.9a15.977,15.977,0,0,1-.686,3.654Zm5.838,3.948V12.276h3.962V14.95ZM53.424,8.2v2.534H49.462V8.2Zm-1.5-1.6c.224-.686.462-1.456.672-2.226l-1.96-.2a20.474,20.474,0,0,1-.42,2.422h-2.38V9.1a17.472,17.472,0,0,0-.994-2.646l-.938.378V4.142H44.3V17.218h1.61V7.53a12.748,12.748,0,0,1,.686,2.2l1.246-.574v8.064h1.624V16.56h3.962v.546h1.708V6.606Zm7.8,8.358V13.508h6.65v1.456Zm6.65-4.438v1.442h-6.65V10.526Zm0-2.982V8.986h-6.65V7.544Zm-3.024-1.6c.224-.5.448-1.05.658-1.61l-2.016-.224a15.844,15.844,0,0,1-.378,1.834H58.03V17.2h1.694v-.7h6.65v.686h1.778V5.948ZM75.544,15.3c-1.5,0-1.75-.126-1.75-.868V11.058h6.244v.8h1.778V4.94H71.89V6.648h8.148V9.42h-7.98v5.04c0,2,.854,2.506,3.472,2.506h4.536c2.506,0,3.122-.728,3.43-3.4a6.358,6.358,0,0,1-1.694-.63c-.182,2.016-.378,2.366-1.778,2.366ZM88.76,11.66h4.41v1.022H88.76Zm4.41-4.592v.868H88.76V7.068ZM88.76,9.322h4.41v.938H88.76Zm8.5,4.886V12.682H94.864V7.068h2.044V5.542H94.864V4.184H93.17V5.542H88.76V4.184H87.108V5.542H85.162V7.068h1.946v5.614H84.742v1.526H88.83a18.836,18.836,0,0,1-4.27,1.764A8.71,8.71,0,0,1,85.638,17.2a24.607,24.607,0,0,0,4.648-1.946l-1.33-1.05ZM91.7,15.328a26.771,26.771,0,0,1,4.032,1.848l1.6-1.05a40.39,40.39,0,0,0-4.438-1.82Zm8.848-8.764h8.862V7.712h1.554V5.276h-5.11a7.513,7.513,0,0,0-.644-1.246l-1.456.406a6.677,6.677,0,0,1,.406.84H99.05V7.712h1.5Zm1.54,7.462h5.824v.448h-5.824Zm0-1.218h5.824v.434h-5.824Zm0-1.2h5.824v.406h-5.824Zm7.518,3.7V10.764h-9.128V15.3h2a18.676,18.676,0,0,1-3.682.868A8.014,8.014,0,0,1,99.68,17.3a17.3,17.3,0,0,0,4.76-1.386l-.84-.616h2.562l-.574.63c1.61.42,3.248.98,4.256,1.358l1.134-1.022c-.826-.266-2.058-.63-3.29-.966Zm-4.088-5.768.056-.448h1.792l-.042.448Zm-3.15-.448h1.848l-.056.448h-1.848Zm1.974-1.232-.042.406h-1.834l.056-.406Zm3.094.406h-1.764l.028-.406h1.764Zm1.554-.182.1-1.064h-7.924l-.14,1.064H98.658v1.19h2.2l-.14,1.092h8.05l.112-1.092h2.534V8.076Zm14.042-1.218c-.084,1.064-.21,1.568-.378,1.736a.683.683,0,0,1-.49.14,15.147,15.147,0,0,1-1.54-.084,3.489,3.489,0,0,1,.49,1.54,17.725,17.725,0,0,0,1.82-.028,1.584,1.584,0,0,0,1.12-.5c.378-.42.56-1.428.7-3.682.028-.224.042-.616.042-.616h-4.564c.07-.336.126-.672.182-1.022l-1.722-.2c-.28,2.31-1.008,4.242-2.436,5.362a9.553,9.553,0,0,1,1.442,1.05,8.357,8.357,0,0,0,2.156-3.7ZM116.8,5.64A10.387,10.387,0,0,0,114.17,4.2l-.91,1.232A10.28,10.28,0,0,1,115.822,7Zm-.84,3.71a11.175,11.175,0,0,0-2.646-1.4L112.448,9.2a11.5,11.5,0,0,1,2.59,1.526Zm-.518,2.2a43.826,43.826,0,0,1-2.534,4.4l1.428,1.092c.812-1.344,1.652-2.94,2.352-4.41Zm7.1.56a5.96,5.96,0,0,1-1.442,1.638,6.86,6.86,0,0,1-1.5-1.638Zm1.19-1.54-.294.056h-6.216v1.484h1.89l-1.078.364a9.4,9.4,0,0,0,1.68,2.156,12.107,12.107,0,0,1-3.528,1.078,5.593,5.593,0,0,1,.826,1.5A13.49,13.49,0,0,0,121.1,15.72a11.126,11.126,0,0,0,3.5,1.47,6.429,6.429,0,0,1,1.092-1.5,12.136,12.136,0,0,1-3.136-1.036,8.239,8.239,0,0,0,2.282-3.64Zm15.344.42V9.28h-5.334c.014-.364.028-.714.028-1.05V6.788h4.76V5.08H127.442V6.788h4.578V8.2c0,.35-.014.7-.042,1.078h-5.04v1.708h4.69c-.574,1.778-1.946,3.584-5.18,4.732a6.418,6.418,0,0,1,1.092,1.442c3.15-1.176,4.732-2.94,5.5-4.8a8.974,8.974,0,0,0,5.5,4.76,5.964,5.964,0,0,1,1.148-1.554,7.9,7.9,0,0,1-5.5-4.578Zm7.154-6.636V5.906h2.226a11.628,11.628,0,0,0,2.114,3.346h-7.252a14.5,14.5,0,0,0,2.2-4.214l-1.75-.42a9.885,9.885,0,0,1-3.472,5.11,10.875,10.875,0,0,1,1.4,1.232,11.822,11.822,0,0,0,1.05-1.008v.924h2.366c-.28,2.03-1.008,3.878-4.172,4.9a5.578,5.578,0,0,1,1.106,1.54c3.626-1.358,4.536-3.752,4.886-6.44h2.758c-.126,2.912-.28,4.158-.56,4.466a.649.649,0,0,1-.56.2c-.35,0-1.078-.014-1.848-.07a4.023,4.023,0,0,1,.546,1.68,14.006,14.006,0,0,0,2.114-.042,1.66,1.66,0,0,0,1.274-.672c.49-.574.658-2.184.812-6.314a9.72,9.72,0,0,0,1.064.812,9.494,9.494,0,0,1,1.176-1.54,8.635,8.635,0,0,1-4.018-5.04Z" transform="translate(-24.49 4.936)" fill="#4891f2"/>
      </g>
    </g>
    <g id="Group_1784" data-name="Group 1784" transform="translate(87.49 284.638)">
      <path id="內文p-4" data-name="內文p" d="M9.926,12.654v2.24H3.99v-2.24ZM2.282,17.2H3.99V16.49H9.926v.7h1.792V11.058H2.282ZM8.148,6.3C8.666,6.816,9.226,7.4,9.772,8.02L4.032,8.2a23.013,23.013,0,0,0,3.052-3.57L5.4,3.918A18.681,18.681,0,0,1,2.436,7.726a2.884,2.884,0,0,1-1.162.812,12.746,12.746,0,0,1,.546,1.6c.742-.252,1.736-.28,9.17-.644a12.247,12.247,0,0,1,.728,1.064l1.414-1.022A25.446,25.446,0,0,0,9.45,5.43Zm19.32,2.408a8.631,8.631,0,0,0-.63-1.5l-.686.252c.056.112.112.238.168.364l-.784.084A12.724,12.724,0,0,0,27.02,5.85l-.854-.378c-.1.21-.21.42-.322.63L25.2,6.13A9.35,9.35,0,0,0,26.082,4.6l-.9-.336a6.246,6.246,0,0,1-.854,1.792c-.154.21-.28.35-.448.378a4.5,4.5,0,0,1,.308.672A5.329,5.329,0,0,1,25.3,6.942a8.784,8.784,0,0,1-.7.868,1.171,1.171,0,0,1-.658.49,2.986,2.986,0,0,1,.322.686,9.492,9.492,0,0,1,2.366-.434c.056.168.112.322.14.448Zm-1.316,2.338a7.653,7.653,0,0,0-.308-1.694l-.714.2a8.681,8.681,0,0,1,.28,1.75ZM24.22,9.28a4.546,4.546,0,0,1-.462,1.582,4.153,4.153,0,0,1,.672.49A5.952,5.952,0,0,0,25,9.49Zm-.252-3.752H22.554l.56-.14a9,9,0,0,0-.5-1.078l-1.092.224a6.816,6.816,0,0,1,.42.994H20.622V6.4h3.346Zm-.28,2.31h-2.66v.756h2.66ZM21.98,9.714h.7v.616h-.7Zm-.966,1.344h2.674V8.972H21.014Zm2.674-4.3h-2.66v.756h2.66ZM20.86,8.678a9.488,9.488,0,0,0-.616-1.47l-.7.252c.056.112.126.238.182.364l-.8.084a11.929,11.929,0,0,0,1.5-2.044l-.854-.406a6.881,6.881,0,0,1-.336.63l-.63.028a7.237,7.237,0,0,0,.868-1.526l-.9-.322a6.971,6.971,0,0,1-.84,1.792.734.734,0,0,1-.462.378,3.665,3.665,0,0,1,.336.658A3.716,3.716,0,0,1,18.7,6.914a7.149,7.149,0,0,1-.7.9c-.252.266-.434.448-.658.476a4.814,4.814,0,0,1,.322.686,11.45,11.45,0,0,1,2.352-.434,4.459,4.459,0,0,1,.126.434Zm-.14,1.848a6.236,6.236,0,0,0-.42-1.442l-.644.252a6.028,6.028,0,0,1,.378,1.5Zm-1.148.392a6.252,6.252,0,0,0-.294-1.568l-.714.182a7.514,7.514,0,0,1,.266,1.624ZM17.64,5.724A10.138,10.138,0,0,0,15.61,4.31l-.952,1.12a9.368,9.368,0,0,1,1.96,1.54Zm-.28,3.57a9.348,9.348,0,0,0-2.086-1.316l-.91,1.162a9.959,9.959,0,0,1,2.016,1.428ZM16.17,17.05c.546-1.358,1.12-2.968,1.568-4.466l-1.316-.84a42.718,42.718,0,0,1-1.736,4.48Zm1.442-7.7a4.732,4.732,0,0,1-.462,1.582,4.705,4.705,0,0,1,.686.49,6.443,6.443,0,0,0,.574-1.876Zm2.38,4.858.112-.448h6.2V11.45H18.368v.924h6.4v.448H18.788a23.682,23.682,0,0,1-.63,2.394h7.084a1.411,1.411,0,0,1-.406.728,1,1,0,0,1-.6.112c-.336,0-1.274-.014-2.1-.1a2.815,2.815,0,0,1,.448,1.218c.868.028,1.708.042,2.17.028a2.2,2.2,0,0,0,1.3-.364,3.493,3.493,0,0,0,.854-2.044,3.743,3.743,0,0,0,.084-.588Zm6.244-4.872a7.741,7.741,0,0,1,.476,1.764l.7-.322a8.056,8.056,0,0,0-.5-1.694ZM30.6,16H32.69c.168-4.06.49-6.174,2.9-9.114V5.64H28.7V7.362h4.662C31.388,10.106,30.786,12.4,30.6,16Zm8.246,0h2.086c.168-4.06.49-6.174,2.9-9.114V5.64H36.946V7.362h4.662C39.634,10.106,39.032,12.4,38.85,16Zm8.61-3.99c1.484,0,2.534-1.218,2.534-3.3s-1.05-3.262-2.534-3.262-2.52,1.19-2.52,3.262S45.976,12.01,47.46,12.01Zm0-1.162c-.6,0-1.064-.616-1.064-2.142s.462-2.1,1.064-2.1,1.078.574,1.078,2.1S48.062,10.848,47.46,10.848Zm.35,5.348h1.2L54.656,5.444H53.438Zm7.182,0c1.47,0,2.534-1.232,2.534-3.3s-1.064-3.276-2.534-3.276-2.52,1.19-2.52,3.276S53.522,16.2,54.992,16.2Zm0-1.176c-.6,0-1.078-.6-1.078-2.128s.476-2.114,1.078-2.114,1.078.588,1.078,2.114S55.594,15.02,54.992,15.02Z" transform="translate(189.51 -6.638)" fill="#4891f2"/>
      <path id="內文p-5" data-name="內文p" d="M5.194,16.182c2.576,0,4.382-2.058,4.382-5.348S7.77,5.542,5.194,5.542s-4.382,2-4.382,5.292S2.618,16.182,5.194,16.182Zm0-1.134c-1.848,0-3.052-1.652-3.052-4.214s1.2-4.158,3.052-4.158,3.052,1.582,3.052,4.158S7.028,15.048,5.194,15.048ZM11.788,16h6.076V14.894H13.09V11.156h3.892V10.05H13.09V6.83h4.62V5.724H11.788Zm12.11.182a3.967,3.967,0,0,0,3.15-1.47l-.714-.812a3.119,3.119,0,0,1-2.38,1.148c-1.96,0-3.192-1.624-3.192-4.214,0-2.562,1.288-4.158,3.234-4.158a2.8,2.8,0,0,1,2.1.98l.7-.84a3.8,3.8,0,0,0-2.814-1.274c-2.6,0-4.55,2.016-4.55,5.334S21.35,16.182,23.9,16.182ZM28.952,16h2.632c3.094,0,4.788-1.918,4.788-5.166s-1.694-5.11-4.844-5.11H28.952Zm1.3-1.064V6.788h1.162c2.422,0,3.612,1.442,3.612,4.046s-1.19,4.1-3.612,4.1Zm20.16-3.794h-5.74V6.256H49.63V5.234H38.682V6.256H43.61v4.886H37.954v1.022H43.61v4.9h1.064v-4.9h5.74ZM39.662,7.222a16.384,16.384,0,0,1,1.26,3.206l.98-.336a13.411,13.411,0,0,0-1.33-3.15Zm7.42,3.248A27.487,27.487,0,0,0,48.8,7.18l-1.092-.308a20.892,20.892,0,0,1-1.512,3.3ZM57.19,13.69h4.732v-.938H57.19Zm.322-4.116v.952h4.172V9.574Zm1.246-2.968a19.886,19.886,0,0,0,.784-2.044L58.492,4.3a14.75,14.75,0,0,1-2.128,4.4V7.8H54.74V4.59H53.732V7.8H51.926V8.79h1.806v4.774c-.77.35-1.484.672-2.044.9l.392,1.05c1.3-.63,3.038-1.484,4.662-2.282l-.28-.952c-.574.266-1.162.546-1.722.812V8.79h1.568a8.785,8.785,0,0,1-.658.756c.266.154.742.448.952.6A14.019,14.019,0,0,0,58.3,7.586h4.97c-.182,5.642-.392,7.8-.854,8.274a.694.694,0,0,1-.6.224,20.5,20.5,0,0,1-2.114-.1,2.618,2.618,0,0,1,.336,1.064,16.169,16.169,0,0,0,2.17.014,1.406,1.406,0,0,0,1.148-.574c.56-.7.742-2.912.966-9.338,0-.14.014-.546.014-.546Zm10.066,9.576a3.333,3.333,0,0,0,3.36-3.528A2.929,2.929,0,0,0,69.09,9.392a2.984,2.984,0,0,0-1.526.406l.252-2.968h3.878V5.724h-5l-.322,4.816.686.42a2.792,2.792,0,0,1,1.708-.6A2.077,2.077,0,0,1,70.9,12.7a2.218,2.218,0,0,1-2.184,2.422,3.376,3.376,0,0,1-2.52-1.134l-.63.84A4.36,4.36,0,0,0,68.824,16.182ZM74.55,12.15l2.338-3.5c.294-.5.574-1.008.826-1.512h.056C77.742,7.67,77.7,8.5,77.7,9v3.15ZM77.7,16h1.2V13.172h1.358V12.15H78.9V5.724H77.49l-4.27,6.608v.84H77.7Zm4.956.182a.925.925,0,0,0,.924-.966.926.926,0,1,0-1.848,0A.925.925,0,0,0,82.656,16.182Zm5.6,0a3.333,3.333,0,0,0,3.36-3.528,2.929,2.929,0,0,0-3.094-3.262A2.984,2.984,0,0,0,87,9.8l.252-2.968h3.878V5.724h-5l-.322,4.816.686.42a2.792,2.792,0,0,1,1.708-.6A2.077,2.077,0,0,1,90.328,12.7a2.218,2.218,0,0,1-2.184,2.422,3.376,3.376,0,0,1-2.52-1.134l-.63.84A4.36,4.36,0,0,0,88.256,16.182Zm6.986-4.158c1.414,0,2.338-1.19,2.338-3.262s-.924-3.22-2.338-3.22S92.918,6.7,92.918,8.762,93.842,12.024,95.242,12.024Zm0-.8c-.8,0-1.358-.826-1.358-2.464s.56-2.436,1.358-2.436,1.372.8,1.372,2.436S96.054,11.226,95.242,11.226Zm.308,4.956H96.4l5.67-10.64h-.868Zm6.846,0c1.4,0,2.324-1.176,2.324-3.248s-.924-3.22-2.324-3.22-2.338,1.162-2.338,3.22S101,16.182,102.4,16.182Zm0-.784c-.812,0-1.358-.826-1.358-2.464s.546-2.436,1.358-2.436,1.358.8,1.358,2.436S103.194,15.4,102.4,15.4Z" transform="translate(59.51 48.362)" fill="#c0c3c9"/>
      <g id="Group_1779" data-name="Group 1779" transform="translate(42 -5)">
        <text id="內文p-6" data-name="內文p" transform="translate(-38.49 -1.638)" fill="#4891f2" font-size="14" font-family="SourceHanSansTW-Bold, Source Han Sans TW" font-weight="700"><tspan x="0" y="16">失敗時會質疑自己的未來規劃</tspan></text>
      </g>
      <rect id="Rectangle_2250" data-name="Rectangle 2250" width="207.417" height="15.725" rx="2" transform="translate(0.845 27.51)" fill="#4d505a"/>
      <path id="Rectangle_2248" data-name="Rectangle 2248" d="M2,0H159.691a0,0,0,0,1,0,0V15.725a0,0,0,0,1,0,0H2a2,2,0,0,1-2-2V2A2,2,0,0,1,2,0Z" transform="translate(0.845 27.354)" fill="#4891f2"/>
      <line id="Line_358" data-name="Line 358" y2="16" transform="translate(112.829 27.862)" fill="none" stroke="#f8f8f8" stroke-width="1" stroke-dasharray="1"/>
    </g>
    <rect id="Rectangle_2253" data-name="Rectangle 2253" width="206.631" height="15.725" rx="2" transform="translate(88.335 131.12)" fill="#4d505a"/>
    <path id="內文p-7" data-name="內文p" d="M5.194,16.182c2.576,0,4.382-2.058,4.382-5.348S7.77,5.542,5.194,5.542s-4.382,2-4.382,5.292S2.618,16.182,5.194,16.182Zm0-1.134c-1.848,0-3.052-1.652-3.052-4.214s1.2-4.158,3.052-4.158,3.052,1.582,3.052,4.158S7.028,15.048,5.194,15.048ZM11.788,16h6.076V14.894H13.09V11.156h3.892V10.05H13.09V6.83h4.62V5.724H11.788Zm12.11.182a3.967,3.967,0,0,0,3.15-1.47l-.714-.812a3.119,3.119,0,0,1-2.38,1.148c-1.96,0-3.192-1.624-3.192-4.214,0-2.562,1.288-4.158,3.234-4.158a2.8,2.8,0,0,1,2.1.98l.7-.84a3.8,3.8,0,0,0-2.814-1.274c-2.6,0-4.55,2.016-4.55,5.334S21.35,16.182,23.9,16.182ZM28.952,16h2.632c3.094,0,4.788-1.918,4.788-5.166s-1.694-5.11-4.844-5.11H28.952Zm1.3-1.064V6.788h1.162c2.422,0,3.612,1.442,3.612,4.046s-1.19,4.1-3.612,4.1Zm20.16-3.794h-5.74V6.256H49.63V5.234H38.682V6.256H43.61v4.886H37.954v1.022H43.61v4.9h1.064v-4.9h5.74ZM39.662,7.222a16.384,16.384,0,0,1,1.26,3.206l.98-.336a13.411,13.411,0,0,0-1.33-3.15Zm7.42,3.248A27.487,27.487,0,0,0,48.8,7.18l-1.092-.308a20.892,20.892,0,0,1-1.512,3.3ZM57.19,13.69h4.732v-.938H57.19Zm.322-4.116v.952h4.172V9.574Zm1.246-2.968a19.886,19.886,0,0,0,.784-2.044L58.492,4.3a14.75,14.75,0,0,1-2.128,4.4V7.8H54.74V4.59H53.732V7.8H51.926V8.79h1.806v4.774c-.77.35-1.484.672-2.044.9l.392,1.05c1.3-.63,3.038-1.484,4.662-2.282l-.28-.952c-.574.266-1.162.546-1.722.812V8.79h1.568a8.785,8.785,0,0,1-.658.756c.266.154.742.448.952.6A14.019,14.019,0,0,0,58.3,7.586h4.97c-.182,5.642-.392,7.8-.854,8.274a.694.694,0,0,1-.6.224,20.5,20.5,0,0,1-2.114-.1,2.618,2.618,0,0,1,.336,1.064,16.169,16.169,0,0,0,2.17.014,1.406,1.406,0,0,0,1.148-.574c.56-.7.742-2.912.966-9.338,0-.14.014-.546.014-.546Zm10.066,9.576a3.333,3.333,0,0,0,3.36-3.528A2.929,2.929,0,0,0,69.09,9.392a2.984,2.984,0,0,0-1.526.406l.252-2.968h3.878V5.724h-5l-.322,4.816.686.42a2.792,2.792,0,0,1,1.708-.6A2.077,2.077,0,0,1,70.9,12.7a2.218,2.218,0,0,1-2.184,2.422,3.376,3.376,0,0,1-2.52-1.134l-.63.84A4.36,4.36,0,0,0,68.824,16.182Zm8.218-5.6c1.246,0,1.862.882,1.862,2.268s-.77,2.338-1.75,2.338c-1.288,0-2.058-1.162-2.212-3.29A2.653,2.653,0,0,1,77.042,10.582Zm.112,5.6a3.081,3.081,0,0,0,2.94-3.332c0-2.142-1.106-3.22-2.842-3.22a3.192,3.192,0,0,0-2.338,1.246c.056-3.192,1.246-4.27,2.646-4.27a2.17,2.17,0,0,1,1.652.784l.7-.8a3.153,3.153,0,0,0-2.394-1.05c-1.988,0-3.794,1.54-3.794,5.558C73.724,14.488,75.18,16.182,77.154,16.182Zm6.426-4.158c1.414,0,2.338-1.19,2.338-3.262s-.924-3.22-2.338-3.22S81.256,6.7,81.256,8.762,82.18,12.024,83.58,12.024Zm0-.8c-.8,0-1.358-.826-1.358-2.464s.56-2.436,1.358-2.436,1.372.8,1.372,2.436S84.392,11.226,83.58,11.226Zm.308,4.956h.854l5.67-10.64h-.868Zm6.846,0c1.4,0,2.324-1.176,2.324-3.248s-.924-3.22-2.324-3.22S88.4,10.876,88.4,12.934,89.334,16.182,90.734,16.182Zm0-.784c-.812,0-1.358-.826-1.358-2.464s.546-2.436,1.358-2.436,1.358.8,1.358,2.436S91.532,15.4,90.734,15.4Z" transform="translate(157 148)" fill="#c0c3c9"/>
    <path id="Rectangle_2254" data-name="Rectangle 2254" d="M2,0H184.615a0,0,0,0,1,0,0V15.725a0,0,0,0,1,0,0H2a2,2,0,0,1-2-2V2A2,2,0,0,1,2,0Z" transform="translate(88.335 131.12)" fill="#4891f2"/>
    <line id="Line_370" data-name="Line 370" x2="0.249" y2="15" transform="translate(204.25 131.5)" fill="none" stroke="#f8f8f8" stroke-width="1" stroke-dasharray="1"/>
    <g id="Group_2128" data-name="Group 2128" transform="translate(4469.335 12437)">
      <g id="Union_1" data-name="Union 1" transform="translate(-4613 -12463)" fill="none">
        <path d="M415.27,154.211,411.664,147h-178a2,2,0,0,1-2-2V122a2,2,0,0,1,2-2h222a2,2,0,0,1,2,2v23a2,2,0,0,1-2,2h-35l-3.606,7.212a1,1,0,0,1-1.789,0Z" stroke="none"/>
        <path d="M 416.1645202636719 153.7642211914063 C 416.1645812988281 153.7642211914063 416.1646118164063 153.7642211914063 416.1646728515625 153.7642211914063 L 419.7702026367188 146.5525512695313 L 420.0465698242188 145.9997253417969 L 420.6646423339844 145.9997253417969 L 455.6646118164063 145.9997253417969 C 456.2159118652344 145.9997253417969 456.6643981933594 145.5511932373047 456.6643981933594 144.9998931884766 L 456.6643981933594 122.0003967285156 C 456.6643981933594 121.4486083984375 456.2159118652344 120.9996948242188 455.6646118164063 120.9996948242188 L 233.664306640625 120.9996948242188 C 233.1130218505859 120.9996948242188 232.6645202636719 121.4486083984375 232.6645202636719 122.0003967285156 L 232.6645202636719 144.9998931884766 C 232.6645202636719 145.5511932373047 233.1130218505859 145.9997253417969 233.664306640625 145.9997253417969 L 411.6643981933594 145.9997253417969 L 412.282470703125 145.9997253417969 L 412.558837890625 146.5525512695313 L 416.1640930175781 153.7637481689453 C 416.1641845703125 153.763916015625 416.1642761230469 153.7640686035156 416.1643371582031 153.7642211914063 C 416.1643981933594 153.7642211914063 416.1644592285156 153.7642211914063 416.1645202636719 153.7642211914063 M 416.1645202636719 154.7642211914063 C 415.8094482421875 154.7642211914063 415.4544067382813 154.5799560546875 415.2698974609375 154.2113952636719 L 411.6643981933594 146.9997253417969 L 233.664306640625 146.9997253417969 C 232.5600128173828 146.9997253417969 231.6645202636719 146.1041870117188 231.6645202636719 144.9998931884766 L 231.6645202636719 122.0003967285156 C 231.6645202636719 120.8951950073242 232.5600128173828 119.9996948242188 233.664306640625 119.9996948242188 L 455.6646118164063 119.9996948242188 C 456.7689208984375 119.9996948242188 457.6643981933594 120.8951950073242 457.6643981933594 122.0003967285156 L 457.6643981933594 144.9998931884766 C 457.6643981933594 146.1041870117188 456.7689208984375 146.9997253417969 455.6646118164063 146.9997253417969 L 420.6646423339844 146.9997253417969 L 417.0591125488281 154.2113952636719 C 416.8746032714844 154.5799560546875 416.5195617675781 154.7642211914063 416.1645202636719 154.7642211914063 Z" stroke="none" fill="#4891f2"/>
      </g>
    </g>
    <path id="內文p-8" data-name="內文p" d="M13.3,11.94V10.26H7.728a13.639,13.639,0,0,0,.084-1.68V8.048h4.3V6.354h-4.3V4.142H6.062V6.354H4.116c.2-.546.378-1.106.532-1.68L2.884,4.3A10.835,10.835,0,0,1,.616,8.972a12.074,12.074,0,0,1,1.624.9,10.445,10.445,0,0,0,1.134-1.82H6.062V8.58a11.416,11.416,0,0,1-.112,1.68H.714v1.68h4.76C4.8,13.48,3.388,14.866.448,15.734A6.455,6.455,0,0,1,1.512,17.19c3.164-.966,4.76-2.548,5.544-4.326a8.114,8.114,0,0,0,5.558,4.354,6.243,6.243,0,0,1,1.12-1.582,7.181,7.181,0,0,1-5.306-3.7Zm2.772,1.806a6.212,6.212,0,0,1-1.75,2.562,9.39,9.39,0,0,1,1.33.938,8.957,8.957,0,0,0,2-3.108ZM24.78,8.2a14.43,14.43,0,0,1-.882,3.43,16.65,16.65,0,0,1-1.05-3.43Zm-5.992-.938H16.8V6h1.988Zm0,2.52H16.8V8.51h1.988Zm0,2.534H16.8V11.03h1.988ZM27.538,8.2V6.634H23.352a21.542,21.542,0,0,0,.532-2.226l-1.736-.266a13.511,13.511,0,0,1-1.736,5.012V4.688h-5.18v8.946h5.18V10.582c.28.224.546.462.7.6a7.917,7.917,0,0,0,.63-.854A15.507,15.507,0,0,0,22.9,13.4a7.25,7.25,0,0,1-2.366,2.016,11.573,11.573,0,0,0-1.232-1.694l-1.344.588A11.093,11.093,0,0,1,19.4,16.63l.9-.462a7.721,7.721,0,0,1,.616,1.078,9.245,9.245,0,0,0,2.954-2.3,8.145,8.145,0,0,0,2.7,2.254,6.413,6.413,0,0,1,1.162-1.5,6.956,6.956,0,0,1-2.814-2.3A16.174,16.174,0,0,0,26.544,8.2Zm4.2-1.722V8.944H30.45V6.48ZM30.45,13.032V10.4h1.288v2.632ZM33.292,5H28.91V15.748h1.54V14.516h2.842ZM34.1,13.34a19.742,19.742,0,0,1,1.61,2.352l1.456-.854a17.935,17.935,0,0,0-1.68-2.24ZM41.482,7.1V5.64h-3.15v-1.5H36.694v1.5h-3.15V7.1h3.15v1.33h-2.7V9.868h4.466V10.96h-4.9V12.4h4.9v3.01c0,.2-.07.252-.294.252s-.98,0-1.652-.028A6.062,6.062,0,0,1,37.03,17.2a6.156,6.156,0,0,0,2.338-.28c.56-.252.714-.672.714-1.47V12.4h1.344V10.96H40.082V9.868H41.1V8.426H38.332V7.1Zm11.956,8.176v.588H50.47v-.588ZM49.014,17.2H50.47v-.476h2.968V17.2h1.526V14.432h-5.95Zm.14-3.22h5.7V13.13h-5.7Zm5.7-2.156h-5.7V12.7h5.7ZM51.31,6.116a6.858,6.858,0,0,1-.294.644H48.972c.14-.21.294-.42.42-.644ZM48.65,7.908H50.2c-.126.616-.476.952-1.554,1.134Zm4.018,2.534c-.126-.35-.308-.784-.462-1.106L50.918,9.7c.084.224.2.49.28.742H48.636c.014-.266.014-.532.014-.77V9.364a2.988,2.988,0,0,1,.406.728c1.862-.308,2.394-.994,2.534-2.184H52.4v.546c0,.882.168,1.372,1.176,1.372h.966a2.828,2.828,0,0,0,.826-.084c-.056-.336-.07-.63-.1-.966a3.382,3.382,0,0,1-.756.084H54c-.224,0-.238-.126-.238-.392v-.56h1.512V6.76H52.6a11.782,11.782,0,0,0,.63-1.134l-1.036-.672-.224.056h-1.96c.1-.21.2-.434.294-.644l-1.5-.238a8.9,8.9,0,0,1-2,3V6.788H45.556V4.156H44.03V6.788H42.56v1.54h1.47v2.408c-.644.168-1.2.294-1.694.406l.364,1.6,1.33-.392v3.108c0,.182-.07.238-.238.238a11.04,11.04,0,0,1-1.148-.014,6.193,6.193,0,0,1,.42,1.54A3.575,3.575,0,0,0,45,16.91c.42-.266.56-.686.56-1.456V11.912c.434-.126.882-.266,1.316-.406l-.2-1.5-1.12.308V8.328H46.69a3.631,3.631,0,0,1,.392.462l.14-.112V9.686c0,1.932-.112,4.76-1.246,6.762a5.108,5.108,0,0,1,1.246.756,14.262,14.262,0,0,0,1.386-5.922v.126h6.818v-.966Zm7.588-1.288H65.73v.42H60.256Zm5.474-2.2v.406H60.256V6.956Zm0,1.5H60.256V8.062H65.73ZM58.2,10.54h4.438l-.462.308a5.012,5.012,0,0,1,1.274.938l.868-.616a3.517,3.517,0,0,0-.826-.63h4.228v1.12H69.2V9.574H67.41V6.186H63.518a2.369,2.369,0,0,0,.182-.434h5.4V4.576H56.868V5.752H61.95c-.028.14-.07.294-.112.434H58.66V9.574H56.77V11.66H58.2Zm7.364.588a9.813,9.813,0,0,1,1.33,1.792l1.218-.546A10.856,10.856,0,0,0,66.7,10.638Zm-6.776,2a6.257,6.257,0,0,0,1.47-1.764l-1.092-.56a5.032,5.032,0,0,1-1.442,1.54Zm2.2,1.05h3.85a6.465,6.465,0,0,1-1.792.868,10.99,10.99,0,0,1-2.142-.8Zm5.278-1.022-.308.07H62.188a3.454,3.454,0,0,0,.392-.392h1.778c.966,0,1.316-.28,1.428-1.316a3.967,3.967,0,0,1-1.064-.364c-.042.63-.14.742-.532.742H62.454c-.532,0-.63-.042-.63-.35v-.826H60.508v.826c0,.546.1.868.42,1.05a8.711,8.711,0,0,1-1.2.91c-.168-.14-.308-.266-.448-.406L58.1,13.62c.154.154.308.322.462.462a10.905,10.905,0,0,1-1.456.56,3.789,3.789,0,0,1,.966,1.036c.588-.238,1.148-.476,1.666-.728a11.867,11.867,0,0,0,1.19.63,29.9,29.9,0,0,1-4.494.378,5.639,5.639,0,0,1,.546,1.274,27.074,27.074,0,0,0,6.118-.868,27.868,27.868,0,0,0,5.628.826,6.3,6.3,0,0,1,.756-1.246,33.581,33.581,0,0,1-4.326-.42,6.238,6.238,0,0,0,2.086-1.764Zm6.454-6.9h2.632V8.174H72.716Zm1.428,4.55c.028-.378.056-.77.084-1.148h2.73V4.786H71.2V9.658h1.4c-.112,2.324-.392,4.844-2.226,6.356a4.374,4.374,0,0,1,1.106,1.218,7.942,7.942,0,0,0,2.464-4.97H75.5c-.1,2.212-.224,3.108-.434,3.346a.5.5,0,0,1-.462.182,11.28,11.28,0,0,1-1.372-.07,3.414,3.414,0,0,1,.42,1.442,10.331,10.331,0,0,0,1.694-.042A1.465,1.465,0,0,0,76.4,16.6c.392-.476.532-1.82.672-5.194,0-.2.014-.6.014-.6Zm5.488-4.97H78.008v7.882h1.624ZM81.3,4.422V15.2c0,.252-.112.336-.378.336-.294,0-1.19,0-2.1-.028a6.084,6.084,0,0,1,.574,1.722,7.436,7.436,0,0,0,2.786-.322c.574-.266.77-.728.77-1.708V4.422Zm8.61-.266c-.056,2.366.21,8.638-5.474,11.676A5.343,5.343,0,0,1,85.82,17.19a11.4,11.4,0,0,0,5.152-6.706,10.834,10.834,0,0,0,5.474,6.622,4.44,4.44,0,0,1,1.218-1.442c-4.886-2.156-5.74-7.434-5.936-9.324.056-.84.084-1.6.1-2.184Zm13.468,2.8V12.29h.9l-.49.476a26.993,26.993,0,0,1,2.268,1.974l1.092-1.162c-.462-.448-1.386-1.134-2.086-1.666v-.658h5.558V9.9h-5.558v-.84h5.18v-1.3h-5.18v-.8h5.978V5.528h-8.162c.126-.336.252-.686.364-1.022l-1.694-.392a9.612,9.612,0,0,1-2.87,4.648,9.508,9.508,0,0,1,1.372,1.162,11.462,11.462,0,0,0,2.17-2.968ZM100.17,16.7a28.951,28.951,0,0,0,1.134-3.43l-1.47-.588a16.267,16.267,0,0,1-1.232,3.3Zm11.452-.574c-.336-.952-1.064-2.45-1.624-3.6l-1.568.434c.238.56.518,1.2.784,1.834a4.717,4.717,0,0,1-1.5-.588c-.07,1.134-.2,1.316-.868,1.316h-2.506c-.84,0-.994-.07-.994-.49v-2.17H101.7v2.2c0,1.47.5,1.946,2.506,1.946h2.772c1.526,0,2.044-.448,2.254-2.184.28.686.532,1.358.686,1.834Zm13.076-5.18c-.168,0-.182-.084-.182-.308V9.224h-.938v1.4c0,.7.126,1.022.854,1.022h.49a2.205,2.205,0,0,0,.574-.056c-.028-.224-.042-.49-.056-.7a2.411,2.411,0,0,1-.546.056Zm-1.484.812V8.8H125.2V7.558h-1.988V6.914h-1.246v.644h-1.68V8.8h1.68v2.954ZM125.3,6.62V5.178h-4.774a11.007,11.007,0,0,0-.378-1.148l-1.68.308c.07.238.154.546.224.84h-5.25v3.85c0,2.086-.07,5.082-.98,7.168a6.26,6.26,0,0,1,1.33.98c1.036-2.268,1.232-5.866,1.232-8.148V6.62Zm-7.07,5.11V8.8h1.694V7.558H118.23V6.914h-1.246v.644h-1.526V8.8h1.526V11.73Zm-1.624-2.492h-.91v.546a1.893,1.893,0,0,1-.616,1.568,3.579,3.579,0,0,1,.8.644,2.875,2.875,0,0,0,.728-2.17Zm5.194,5c.238.294.518.63.8.952l-3.934.266a28.888,28.888,0,0,0,4.508-2.674l-1.232-.826a17.781,17.781,0,0,1-1.862,1.316l-2.086.1a17.222,17.222,0,0,0,2.212-1.386l-.854-.546h.266a1.626,1.626,0,0,0,.49-.056l-.014-.14a3.093,3.093,0,0,1,.728.6,2.612,2.612,0,0,0,.742-2.058V9.21h-.91v.532a1.762,1.762,0,0,1-.56,1.414c-.014-.154-.014-.294-.028-.434a1.672,1.672,0,0,1-.448.042c-.14,0-.154-.07-.154-.28V9.294h-.882V10.47c0,.49.07.77.378.9a12.5,12.5,0,0,1-2.352,1.568,2.671,2.671,0,0,1-.91.35,10.7,10.7,0,0,1,.378,1.232,9.926,9.926,0,0,1,2.366-.266,14.991,14.991,0,0,1-1.582.8,5.378,5.378,0,0,1-1.666.616,13.046,13.046,0,0,1,.392,1.33c.518-.168,1.288-.182,7.882-.658.2.266.378.518.518.728l1.274-.672c-.532-.714-1.54-1.89-2.268-2.716Zm14.42-2.072h-5.068v-.6h5.068ZM131.152,15.5v-.644h5.068V15.5Zm5.068-1.68h-5.068V13.2h5.068Zm3-4.088V8.412h-6.93c.084-.2.168-.406.238-.6h5.936V6.55h-5.488c.07-.224.14-.448.2-.672a47.2,47.2,0,0,0,5.236-.5l-.98-1.19a70.9,70.9,0,0,1-9.814.56,4.28,4.28,0,0,1,.308,1.246c1.092.014,2.254,0,3.416-.042-.042.21-.1.406-.154.6h-3.416V7.81h2.968c-.084.2-.168.406-.266.6h-3.682V9.728h2.982a9.33,9.33,0,0,1-3.416,3.262,9.65,9.65,0,0,1,1.05,1.344,10.714,10.714,0,0,0,2.156-1.68V17.26h1.6v-.5h5.068v.5h1.68V10.3h-6.552c.112-.2.224-.378.322-.574ZM153.174,6.76A12.08,12.08,0,0,0,151.1,4.534l-1.26.854A11.1,11.1,0,0,1,151.83,7.7Zm-1.792,3.388a11.639,11.639,0,0,1-1.33,1.9c-.154-.714-.294-1.526-.406-2.366h3.64V8.1h-3.808a34.5,34.5,0,0,1-.14-3.836h-1.75c.014,1.274.056,2.576.168,3.836h-2.688V6.214c.812-.168,1.582-.35,2.282-.56L146.23,4.24a35.551,35.551,0,0,1-5.558,1.176,6.356,6.356,0,0,1,.476,1.4c.714-.084,1.484-.182,2.24-.308V8.1h-2.646V9.686h2.646v1.876c-1.106.2-2.114.35-2.912.476l.406,1.68c.742-.14,1.61-.322,2.506-.5v2.03c0,.224-.084.294-.336.294s-1.064.028-1.848-.014a6.686,6.686,0,0,1,.588,1.68,6.017,6.017,0,0,0,2.52-.322c.56-.266.756-.714.756-1.624V12.864l2.282-.462-.126-1.512c-.714.126-1.442.266-2.156.392v-1.6h2.842a25.946,25.946,0,0,0,.714,3.752,14.261,14.261,0,0,1-3.122,1.974,7.3,7.3,0,0,1,1.106,1.344,14.521,14.521,0,0,0,2.59-1.708c.6,1.372,1.386,2.212,2.408,2.212,1.274,0,1.792-.616,2.058-3.066a4.257,4.257,0,0,1-1.372-.952c-.07,1.652-.238,2.324-.532,2.324-.42,0-.854-.644-1.232-1.722a13.831,13.831,0,0,0,2.324-3.066Z" transform="translate(93 97)" fill="#4891f2"/>
    <path id="內文p-9" data-name="內文p" d="M9.926,12.654v2.24H3.99v-2.24ZM2.282,17.2H3.99V16.49H9.926v.7h1.792V11.058H2.282ZM8.148,6.3C8.666,6.816,9.226,7.4,9.772,8.02L4.032,8.2a23.013,23.013,0,0,0,3.052-3.57L5.4,3.918A18.681,18.681,0,0,1,2.436,7.726a2.884,2.884,0,0,1-1.162.812,12.746,12.746,0,0,1,.546,1.6c.742-.252,1.736-.28,9.17-.644a12.247,12.247,0,0,1,.728,1.064l1.414-1.022A25.446,25.446,0,0,0,9.45,5.43Zm19.32,2.408a8.631,8.631,0,0,0-.63-1.5l-.686.252c.056.112.112.238.168.364l-.784.084A12.724,12.724,0,0,0,27.02,5.85l-.854-.378c-.1.21-.21.42-.322.63L25.2,6.13A9.35,9.35,0,0,0,26.082,4.6l-.9-.336a6.246,6.246,0,0,1-.854,1.792c-.154.21-.28.35-.448.378a4.5,4.5,0,0,1,.308.672A5.329,5.329,0,0,1,25.3,6.942a8.784,8.784,0,0,1-.7.868,1.171,1.171,0,0,1-.658.49,2.986,2.986,0,0,1,.322.686,9.492,9.492,0,0,1,2.366-.434c.056.168.112.322.14.448Zm-1.316,2.338a7.653,7.653,0,0,0-.308-1.694l-.714.2a8.681,8.681,0,0,1,.28,1.75ZM24.22,9.28a4.546,4.546,0,0,1-.462,1.582,4.153,4.153,0,0,1,.672.49A5.952,5.952,0,0,0,25,9.49Zm-.252-3.752H22.554l.56-.14a9,9,0,0,0-.5-1.078l-1.092.224a6.816,6.816,0,0,1,.42.994H20.622V6.4h3.346Zm-.28,2.31h-2.66v.756h2.66ZM21.98,9.714h.7v.616h-.7Zm-.966,1.344h2.674V8.972H21.014Zm2.674-4.3h-2.66v.756h2.66ZM20.86,8.678a9.488,9.488,0,0,0-.616-1.47l-.7.252c.056.112.126.238.182.364l-.8.084a11.929,11.929,0,0,0,1.5-2.044l-.854-.406a6.881,6.881,0,0,1-.336.63l-.63.028a7.237,7.237,0,0,0,.868-1.526l-.9-.322a6.971,6.971,0,0,1-.84,1.792.734.734,0,0,1-.462.378,3.665,3.665,0,0,1,.336.658A3.716,3.716,0,0,1,18.7,6.914a7.149,7.149,0,0,1-.7.9c-.252.266-.434.448-.658.476a4.814,4.814,0,0,1,.322.686,11.45,11.45,0,0,1,2.352-.434,4.459,4.459,0,0,1,.126.434Zm-.14,1.848a6.236,6.236,0,0,0-.42-1.442l-.644.252a6.028,6.028,0,0,1,.378,1.5Zm-1.148.392a6.252,6.252,0,0,0-.294-1.568l-.714.182a7.514,7.514,0,0,1,.266,1.624ZM17.64,5.724A10.138,10.138,0,0,0,15.61,4.31l-.952,1.12a9.368,9.368,0,0,1,1.96,1.54Zm-.28,3.57a9.348,9.348,0,0,0-2.086-1.316l-.91,1.162a9.959,9.959,0,0,1,2.016,1.428ZM16.17,17.05c.546-1.358,1.12-2.968,1.568-4.466l-1.316-.84a42.718,42.718,0,0,1-1.736,4.48Zm1.442-7.7a4.732,4.732,0,0,1-.462,1.582,4.705,4.705,0,0,1,.686.49,6.443,6.443,0,0,0,.574-1.876Zm2.38,4.858.112-.448h6.2V11.45H18.368v.924h6.4v.448H18.788a23.682,23.682,0,0,1-.63,2.394h7.084a1.411,1.411,0,0,1-.406.728,1,1,0,0,1-.6.112c-.336,0-1.274-.014-2.1-.1a2.815,2.815,0,0,1,.448,1.218c.868.028,1.708.042,2.17.028a2.2,2.2,0,0,0,1.3-.364,3.493,3.493,0,0,0,.854-2.044,3.743,3.743,0,0,0,.084-.588Zm6.244-4.872a7.741,7.741,0,0,1,.476,1.764l.7-.322a8.056,8.056,0,0,0-.5-1.694Zm5.88,6.86c2.1,0,3.486-1.2,3.486-2.772a3.013,3.013,0,0,0-1.736-2.772v-.07A3.018,3.018,0,0,0,35.2,8.216a2.719,2.719,0,0,0-3.01-2.758c-1.806,0-3.122,1.064-3.122,2.73a2.951,2.951,0,0,0,1.372,2.464v.07a3.015,3.015,0,0,0-1.778,2.7C28.658,15.048,30.142,16.2,32.116,16.2Zm.658-6.118c-1.092-.434-1.89-.91-1.89-1.89A1.2,1.2,0,0,1,32.144,6.9a1.32,1.32,0,0,1,1.372,1.442A2.481,2.481,0,0,1,32.774,10.078Zm-.6,4.662a1.588,1.588,0,0,1-1.736-1.54,2.491,2.491,0,0,1,.952-1.918c1.344.546,2.3.994,2.3,2.072A1.358,1.358,0,0,1,32.172,14.74Zm7.994-4.046c-.9,0-1.47-.574-1.47-1.792,0-1.274.63-1.9,1.4-1.9.882,0,1.6.7,1.778,2.59A2.067,2.067,0,0,1,40.166,10.694ZM36.974,15.02A3.886,3.886,0,0,0,39.816,16.2c2.058,0,3.976-1.694,3.976-5.614,0-3.6-1.764-5.138-3.724-5.138A3.247,3.247,0,0,0,36.806,8.9c0,2.2,1.246,3.262,2.968,3.262A2.881,2.881,0,0,0,41.9,11.03c-.084,2.6-1.05,3.486-2.212,3.486a2.377,2.377,0,0,1-1.638-.728ZM47.46,12.01c1.484,0,2.534-1.218,2.534-3.3s-1.05-3.262-2.534-3.262-2.52,1.19-2.52,3.262S45.976,12.01,47.46,12.01Zm0-1.162c-.6,0-1.064-.616-1.064-2.142s.462-2.1,1.064-2.1,1.078.574,1.078,2.1S48.062,10.848,47.46,10.848Zm.35,5.348h1.2L54.656,5.444H53.438Zm7.182,0c1.47,0,2.534-1.232,2.534-3.3s-1.064-3.276-2.534-3.276-2.52,1.19-2.52,3.276S53.522,16.2,54.992,16.2Zm0-1.176c-.6,0-1.078-.6-1.078-2.128s.476-2.114,1.078-2.114,1.078.588,1.078,2.114S55.594,15.02,54.992,15.02Z" transform="translate(250 97)" fill="#4891f2"/>
    <g id="Group_2129" data-name="Group 2129" transform="translate(4468.335 12528)">
      <g id="Union_1-2" data-name="Union 1" transform="translate(-4613 -12463)" fill="none">
        <path d="M407.27,154.211,403.664,147h-170a2,2,0,0,1-2-2V122a2,2,0,0,1,2-2h222a2,2,0,0,1,2,2v23a2,2,0,0,1-2,2h-43l-3.605,7.212a1,1,0,0,1-1.789,0Z" stroke="none"/>
        <path d="M 408.1645812988281 153.7642211914063 L 408.1645812988281 153.7642211914063 L 411.7700805664063 146.5525512695313 L 412.0464477539063 145.9997253417969 L 412.6645202636719 145.9997253417969 L 455.6646118164063 145.9997253417969 C 456.2159118652344 145.9997253417969 456.6643981933594 145.5511932373047 456.6643981933594 144.9998931884766 L 456.6643981933594 122.0003967285156 C 456.6643981933594 121.4486083984375 456.2159118652344 120.9996948242188 455.6646118164063 120.9996948242188 L 233.664306640625 120.9996948242188 C 233.1130218505859 120.9996948242188 232.6645202636719 121.4486083984375 232.6645202636719 122.0003967285156 L 232.6645202636719 144.9998931884766 C 232.6645202636719 145.5511932373047 233.1130218505859 145.9997253417969 233.664306640625 145.9997253417969 L 403.664306640625 145.9997253417969 L 404.2823791503906 145.9997253417969 L 404.5587463378906 146.5525512695313 L 408.1640319824219 153.7637481689453 C 408.1640930175781 153.763916015625 408.1641845703125 153.7640686035156 408.1642456054688 153.7642211914063 C 408.1643676757813 153.7642211914063 408.1644592285156 153.7642211914063 408.1645812988281 153.7642211914063 M 408.1647338867188 154.7642211914063 C 407.8095703125 154.7642211914063 407.4543151855469 154.5799560546875 407.2698059082031 154.2113952636719 L 403.664306640625 146.9997253417969 L 233.664306640625 146.9997253417969 C 232.5600128173828 146.9997253417969 231.6645202636719 146.1041870117188 231.6645202636719 144.9998931884766 L 231.6645202636719 122.0003967285156 C 231.6645202636719 120.8951950073242 232.5600128173828 119.9996948242188 233.664306640625 119.9996948242188 L 455.6646118164063 119.9996948242188 C 456.7689208984375 119.9996948242188 457.6643981933594 120.8951950073242 457.6643981933594 122.0003967285156 L 457.6643981933594 144.9998931884766 C 457.6643981933594 146.1041870117188 456.7689208984375 146.9997253417969 455.6646118164063 146.9997253417969 L 412.6645202636719 146.9997253417969 L 409.0590209960938 154.2113952636719 C 408.8749694824219 154.5799560546875 408.5198974609375 154.7642211914063 408.1647338867188 154.7642211914063 Z" stroke="none" fill="#4891f2"/>
      </g>
    </g>
    <g id="Group_2130" data-name="Group 2130" transform="translate(4468.335 12618)">
      <g id="Union_1-3" data-name="Union 1" transform="translate(-4381.335 -12343)" fill="none">
        <path d="M157.907,34.447,153.727,27H2a2,2,0,0,1-2-2V2A2,2,0,0,1,2,0H251.666a2,2,0,0,1,2,2V25a2,2,0,0,1-2,2H163.83l-4.179,7.447a1,1,0,0,1-1.744,0Z" stroke="none"/>
        <path d="M 158.7787017822266 33.95690155029297 L 158.7791595458984 33.95684432983398 L 162.9576110839844 26.51061820983887 L 163.244140625 25.99998474121094 L 163.8296661376953 25.99998474121094 L 251.6661071777344 25.99998474121094 C 252.2179107666016 25.99998474121094 252.6668090820313 25.55148506164551 252.6668090820313 25.00018501281738 L 252.6668090820313 2.000684022903442 C 252.6668090820313 1.448917388916016 252.2179107666016 1.000017404556274 251.6661071777344 1.000017404556274 L 1.999804496765137 1.000017404556274 C 1.448504567146301 1.000017404556274 1.000004529953003 1.448917388916016 1.000004529953003 2.000684022903442 L 1.000004529953003 25.00018501281738 C 1.000004529953003 25.55148506164551 1.448504567146301 25.99998474121094 1.999804496765137 25.99998474121094 L 153.7274780273438 25.99998474121094 L 154.3129730224609 25.99998474121094 L 154.5995025634766 26.51055145263672 L 158.7787017822266 33.95690155029297 M 158.778564453125 34.95691680908203 C 158.4380340576172 34.95691680908203 158.0976104736328 34.78681564331055 157.9067993164063 34.44661712646484 L 153.7274780273438 26.99998474121094 L 1.999804496765137 26.99998474121094 C 0.8955045342445374 26.99998474121094 4.541015641734703e-06 26.10448455810547 4.541015641734703e-06 25.00018501281738 L 4.541015641734703e-06 2.000684022903442 C 4.541015641734703e-06 0.8954840898513794 0.8955045342445374 1.744181281537749e-05 1.999804496765137 1.744181281537749e-05 L 251.6661071777344 1.744181281537749e-05 C 252.7713012695313 1.744181281537749e-05 253.6668090820313 0.8954840898513794 253.6668090820313 2.000684022903442 L 253.6668090820313 25.00018501281738 C 253.6668090820313 26.10448455810547 252.7713012695313 26.99998474121094 251.6661071777344 26.99998474121094 L 163.8296661376953 26.99998474121094 L 159.6510009765625 34.44661712646484 C 159.4597320556641 34.78681564331055 159.1191101074219 34.95691680908203 158.778564453125 34.95691680908203 Z" stroke="none" fill="#4891f2"/>
      </g>
    </g>
  </g>
</svg>
