<svg xmlns="http://www.w3.org/2000/svg" width="274" height="261.102" viewBox="0 0 274 261.102">
  <g id="data6_m" transform="translate(-83 -97)">
    <g id="Group_2134" data-name="Group 2134" transform="translate(0 -4)">
      <g id="Group_1777" data-name="Group 1777" transform="translate(55 107)">
        <path id="內文p" d="M11.55,6.018C11.438,8.384,11.3,9.35,11.1,9.6a.55.55,0,0,1-.448.168c-.252,0-.77-.014-1.3-.056a4.019,4.019,0,0,1,.434,1.428,9.839,9.839,0,0,0,1.624-.028,1.4,1.4,0,0,0,1.022-.56c.378-.462.546-1.82.686-5.306.028-.182.042-.63.042-.63H6.02v1.4H8.708A9.037,9.037,0,0,1,8.386,7.6c-.518-.448-1.162-.952-1.652-1.344l-.882.882c.588.518,1.4,1.218,1.932,1.736a4.677,4.677,0,0,1-2.156,1.68,3.954,3.954,0,0,1,.924,1.176C9.2,10.5,9.912,8.454,10.192,6.018ZM8.274,11.59a11.66,11.66,0,0,1,1.484,2.142l1.036-.714A9.183,9.183,0,0,0,9.24,10.946ZM5.488,6.452H3.066L4,6.088a13.661,13.661,0,0,0-.854-1.9l-1.4.49a14.42,14.42,0,0,1,.728,1.778H.448V7.768h5.04Zm-.294,1.96H.854v1.26h4.34Zm-4.34,3.15h4.34V10.316H.854Zm2.912,3.612H2.212v-1.61H3.766Zm1.386-2.926H.84v4.788H2.212v-.56h2.94v-.952l.966.406A9.22,9.22,0,0,0,7,12.71l-1.162-.336a9.86,9.86,0,0,1-.686,2.744Zm3.836,3.374c-.42,0-.49-.056-.49-.462V12.122H7.07v3.052c0,1.316.336,1.736,1.708,1.736h1.54c1.12,0,1.5-.5,1.638-2.45a4.462,4.462,0,0,1-1.274-.532c-.042,1.47-.112,1.694-.518,1.694Zm2.3-3.43A12.538,12.538,0,0,1,12.4,15.23l1.218-.448a12.845,12.845,0,0,0-1.218-3ZM18.2,14.138a9.628,9.628,0,0,1,.28,2.59l1.442-.182a9.721,9.721,0,0,0-.378-2.576ZM20.314,14a12.194,12.194,0,0,1,.644,2.324l1.33-.336a11.114,11.114,0,0,0-.672-2.268Zm4.13-3.458c-.084.406-.168.8-.252,1.134H18.844a13.254,13.254,0,0,0,1.05-1.134ZM23.352,7.992c-.07.392-.154.77-.238,1.106H20.972c.238-.364.462-.728.672-1.106Zm3.85,3.682H25.7c.168-.756.35-1.736.5-2.576h-1.6c.182-.77.392-1.722.532-2.562H22.4q.441-.945.8-1.932l-1.666-.462a15.858,15.858,0,0,1-.966,2.394h-2.03l.7-.294A9.662,9.662,0,0,0,18.158,4.2l-1.442.56A11.649,11.649,0,0,1,17.6,6.536H15.246V7.992H19.74a12.766,12.766,0,0,1-5.362,4.8,10.244,10.244,0,0,1,.868,1.456c.35-.182.7-.364,1.036-.574a5.053,5.053,0,0,1-1.512,2.646l1.3.826a5.849,5.849,0,0,0,1.638-3.164l-1.274-.406c.252-.154.49-.308.714-.476h8.33c-.168,1.6-.35,2.3-.574,2.52a.6.6,0,0,1-.462.154,10.961,10.961,0,0,1-1.358-.07,3.64,3.64,0,0,1,.448,1.484,12.092,12.092,0,0,0,1.666-.028,1.49,1.49,0,0,0,1.05-.518c.434-.448.672-1.624.91-4.34ZM24.43,15.16a7.272,7.272,0,0,0-.91-1.848l-1.148.392a7.928,7.928,0,0,1,.826,1.89Zm7.294-.2V13.508h6.65v1.456Zm6.65-4.438v1.442h-6.65V10.526Zm0-2.982V8.986h-6.65V7.544Zm-3.024-1.6c.224-.5.448-1.05.658-1.61l-2.016-.224a15.844,15.844,0,0,1-.378,1.834H30.03V17.2h1.694v-.7h6.65v.686h1.778V5.948ZM47.544,15.3c-1.5,0-1.75-.126-1.75-.868V11.058h6.244v.8h1.778V4.94H43.89V6.648h8.148V9.42h-7.98v5.04c0,2,.854,2.506,3.472,2.506h4.536c2.506,0,3.122-.728,3.43-3.4a6.359,6.359,0,0,1-1.694-.63c-.182,2.016-.378,2.366-1.778,2.366ZM62.286,9.91v2.24h-2.66V9.91Zm1.652,3.836V8.328H58V14.81h1.624V13.746Zm5.39-8.666H56.714V6.76h9.254v8.316c0,.294-.126.392-.448.392s-1.554.014-2.548-.042a7.551,7.551,0,0,1,.686,1.764,9.454,9.454,0,0,0,3.164-.308c.658-.28.9-.77.9-1.778V6.76h1.61Zm9.324,4.074a14.274,14.274,0,0,0-2.212-3.36l-1.512.756a14.267,14.267,0,0,1,2.086,3.472ZM76.09,11.632c-.7.28-1.414.574-2.114.868l-.252-7.574L71.988,5l.28,8.176c-.7.28-1.33.5-1.862.686l.56,1.778c1.582-.658,3.654-1.54,5.5-2.366Zm7.6,4.186a30.533,30.533,0,0,0-3.108-3.6,21.64,21.64,0,0,0,1.708-7.112L80.458,4.94c-.518,5.754-1.96,9.142-6.4,10.822a9.788,9.788,0,0,1,1.33,1.47,10,10,0,0,0,4.256-3.4A24.529,24.529,0,0,1,82.264,17.2Zm8.624-4.606v1.932H89.7V11.212Zm1.54,3.3V9.84h-5.7v5.6H89.7v-.924Zm.63-7.154H87.5v1.4h6.986ZM96.95,4.8H85.078V17.218H86.7V6.382h8.61v8.9c0,.224-.1.308-.336.322s-1.05.014-1.792-.028a5.662,5.662,0,0,1,.574,1.652,5.691,5.691,0,0,0,2.478-.322c.532-.266.714-.742.714-1.61Zm4.788,1.68V8.944H100.45V6.48Zm-1.288,6.552V10.4h1.288v2.632ZM103.292,5H98.91V15.748h1.54V14.516h2.842Zm.812,8.344a19.742,19.742,0,0,1,1.61,2.352l1.456-.854a17.934,17.934,0,0,0-1.68-2.24ZM111.482,7.1V5.64h-3.15v-1.5h-1.638v1.5h-3.15V7.1h3.15v1.33h-2.7V9.868h4.466V10.96h-4.9V12.4h4.9v3.01c0,.2-.07.252-.294.252s-.98,0-1.652-.028a6.062,6.062,0,0,1,.518,1.568,6.156,6.156,0,0,0,2.338-.28c.56-.252.714-.672.714-1.47V12.4h1.344V10.96h-1.344V9.868H111.1V8.426h-2.772V7.1Zm5.5,5.558h1.078a5.349,5.349,0,0,1-.63,1.372,6.289,6.289,0,0,1-.56-1.19Zm1.82-1.148-.252.028H117.53a5.643,5.643,0,0,0,.294-.728l-1.246-.308a7.658,7.658,0,0,1-1.568,2.73,23.518,23.518,0,0,0,.21-3.276V7.922h2.828v.6L115.7,8.65l.056,1.022,2.3-.126c.042,1.064.462,1.54,1.96,1.54h3.038a8.229,8.229,0,0,0,1.722-.112c-.056-.35-.1-.756-.14-1.19a10.375,10.375,0,0,1-1.736.126H120.2c-.49,0-.574-.14-.588-.462l3.248-.182-.042-1.008-3.206.182V7.922h3.766a10.278,10.278,0,0,1-.364,1.064l1.386.392a15.53,15.53,0,0,0,.924-2.506l-1.176-.28-.266.07h-4.158V6.046h4.48V4.884h-4.48V4.156h-1.68V6.662h-4.41V9.938c0,1.848-.084,4.494-1.218,6.314a5.947,5.947,0,0,1,1.3.994,9.076,9.076,0,0,0,1.162-3.234c.224.238.462.5.588.658a4.8,4.8,0,0,0,.6-.686,5.13,5.13,0,0,0,.56.994,5.413,5.413,0,0,1-2.086,1.148,4.307,4.307,0,0,1,.728,1.148,6.963,6.963,0,0,0,2.24-1.316,6.517,6.517,0,0,0,4.13,1.022h3.472a4.5,4.5,0,0,1,.49-1.358c-.784.028-3.29.028-3.892.028a6.156,6.156,0,0,1-3.332-.7A8.078,8.078,0,0,0,119.6,11.7Zm5.264,3.668c.672,0,.952-.35,1.036-1.5a2.98,2.98,0,0,1-.966-.392c-.042.84-.084,1.008-.238,1.008h-.28c-.14,0-.168-.028-.168-.336v-2.38H120.12v.952a2.371,2.371,0,0,1-1.022,2.114,5.5,5.5,0,0,1,1.022.868,3.38,3.38,0,0,0,1.3-2.73h.826v1.176c0,.938.252,1.218,1.134,1.218Zm6.958-2.324c-.448.154-.91.294-1.372.434v-2.8h1.26V8.958h-1.26V6.494h1.5V4.94h-4.62V6.494h1.54V8.958h-1.414v1.526h1.414v3.29c-.644.182-1.218.336-1.708.462l.378,1.694c1.344-.434,3.024-.966,4.564-1.512Zm2.156-4.228h1.442v1.2h-1.442Zm0-2.478h1.442V7.306h-1.442Zm4.228,1.162h-1.386V6.144h1.386Zm0,2.52h-1.386v-1.2h1.386Zm-1.232,5.446v-1.33h2.968v-1.5h-2.968v-1.2h2.814V4.73h-7.308v6.51h2.8v1.2h-2.9v1.5h2.9v1.33H130.62v1.512h9V15.272Zm12.67-8.526a9.336,9.336,0,0,1-2.31,1.638,11.217,11.217,0,0,0-1.582-1.358c.14-.1.28-.182.406-.28Zm1.554-1.54-.294.07h-2.954q.4-.378.756-.756l-1.792-.42a12.024,12.024,0,0,1-4.858,3.122,5.1,5.1,0,0,1,1.134,1.19c.448-.2.868-.406,1.274-.63a17.659,17.659,0,0,1,1.372,1.26,19.236,19.236,0,0,1-4.13,1.064,6.147,6.147,0,0,1,.77,1.47c4.032-.756,8.008-2.492,9.814-5.712Zm.392,6.706a7.481,7.481,0,0,1-2.352,1.932,13.734,13.734,0,0,0-1.638-1.386c.266-.182.546-.364.812-.546Zm1.4-1.554-.308.084H149.38c.308-.308.574-.616.854-.938l-1.806-.42a11.822,11.822,0,0,1-5.88,3.626A5.245,5.245,0,0,1,143.57,14a15.223,15.223,0,0,0,1.806-.77c.5.42,1.064.9,1.456,1.3a23.128,23.128,0,0,1-6.062,1.106,7.007,7.007,0,0,1,.672,1.61c5.334-.5,9.926-1.974,11.9-6.23Zm5.222-6.16a14.825,14.825,0,0,1-3.108,5.236,11.377,11.377,0,0,1,.9,1.736c.28-.308.56-.658.84-1.008V17.2h1.582V7.684A23.718,23.718,0,0,0,159,4.7Zm10.066,6.692H163.9V8.482h2.926V6.858H163.9V4.324h-1.68V6.858h-1.162c.154-.532.294-1.064.406-1.61l-1.61-.336A12.85,12.85,0,0,1,158.2,9.49a10.759,10.759,0,0,1,1.442.8,9.88,9.88,0,0,0,.868-1.806h1.708V10.89h-3.78v1.624h3.78v4.7h1.68v-4.7h3.584Zm10.836,3.094H175.8v-.658h2.52ZM175.8,11.45h2.52v.6H175.8Zm-3.892-2.786V7.992h2.2v.672Zm6.16-.672v.672H175.8V7.992Zm3.4,4.06h-1.456V10.33H175.8V9.714h3.976V6.942H175.8V6.368h5.348V5.052H175.8v-.91H174.1v.91h-5.222V6.368H174.1v.574H170.31V9.714H174.1v.616H169.96v1.12H174.1v.6H168.56v1.274H174.1v.658h-4.256v1.2H174.1v.434c0,.252-.084.336-.35.35-.224,0-1.05,0-1.722-.028a5.132,5.132,0,0,1,.546,1.316,7.373,7.373,0,0,0,2.478-.238c.546-.238.742-.574.742-1.4v-.434h2.52v.574h1.694V13.326h1.456Z" transform="translate(33 -3)" fill="#4891f2"/>
        <rect id="Rectangle_2239" data-name="Rectangle 2239" width="206.812" height="15.739" rx="2" transform="translate(28.352 30.269)" fill="#4d505a"/>
        <path id="Rectangle_2238" data-name="Rectangle 2238" d="M2,0H116.234a0,0,0,0,1,0,0V15.739a0,0,0,0,1,0,0H2a2,2,0,0,1-2-2V2A2,2,0,0,1,2,0Z" transform="translate(28.352 30.269)" fill="#4891f2"/>
        <line id="Line_321" data-name="Line 321" y2="16" transform="translate(212.5 30.5)" fill="none" stroke="#aaa" stroke-width="1" stroke-dasharray="1"/>
        <path id="內文p-2" data-name="內文p" d="M9.926,12.654v2.24H3.99v-2.24ZM2.282,17.2H3.99V16.49H9.926v.7h1.792V11.058H2.282ZM8.148,6.3C8.666,6.816,9.226,7.4,9.772,8.02L4.032,8.2a23.013,23.013,0,0,0,3.052-3.57L5.4,3.918A18.681,18.681,0,0,1,2.436,7.726a2.884,2.884,0,0,1-1.162.812,12.746,12.746,0,0,1,.546,1.6c.742-.252,1.736-.28,9.17-.644a12.247,12.247,0,0,1,.728,1.064l1.414-1.022A25.446,25.446,0,0,0,9.45,5.43Zm19.32,2.408a8.631,8.631,0,0,0-.63-1.5l-.686.252c.056.112.112.238.168.364l-.784.084A12.724,12.724,0,0,0,27.02,5.85l-.854-.378c-.1.21-.21.42-.322.63L25.2,6.13A9.35,9.35,0,0,0,26.082,4.6l-.9-.336a6.246,6.246,0,0,1-.854,1.792c-.154.21-.28.35-.448.378a4.5,4.5,0,0,1,.308.672A5.329,5.329,0,0,1,25.3,6.942a8.784,8.784,0,0,1-.7.868,1.171,1.171,0,0,1-.658.49,2.986,2.986,0,0,1,.322.686,9.492,9.492,0,0,1,2.366-.434c.056.168.112.322.14.448Zm-1.316,2.338a7.653,7.653,0,0,0-.308-1.694l-.714.2a8.681,8.681,0,0,1,.28,1.75ZM24.22,9.28a4.546,4.546,0,0,1-.462,1.582,4.153,4.153,0,0,1,.672.49A5.952,5.952,0,0,0,25,9.49Zm-.252-3.752H22.554l.56-.14a9,9,0,0,0-.5-1.078l-1.092.224a6.816,6.816,0,0,1,.42.994H20.622V6.4h3.346Zm-.28,2.31h-2.66v.756h2.66ZM21.98,9.714h.7v.616h-.7Zm-.966,1.344h2.674V8.972H21.014Zm2.674-4.3h-2.66v.756h2.66ZM20.86,8.678a9.488,9.488,0,0,0-.616-1.47l-.7.252c.056.112.126.238.182.364l-.8.084a11.929,11.929,0,0,0,1.5-2.044l-.854-.406a6.881,6.881,0,0,1-.336.63l-.63.028a7.237,7.237,0,0,0,.868-1.526l-.9-.322a6.971,6.971,0,0,1-.84,1.792.734.734,0,0,1-.462.378,3.665,3.665,0,0,1,.336.658A3.716,3.716,0,0,1,18.7,6.914a7.149,7.149,0,0,1-.7.9c-.252.266-.434.448-.658.476a4.814,4.814,0,0,1,.322.686,11.45,11.45,0,0,1,2.352-.434,4.459,4.459,0,0,1,.126.434Zm-.14,1.848a6.236,6.236,0,0,0-.42-1.442l-.644.252a6.028,6.028,0,0,1,.378,1.5Zm-1.148.392a6.252,6.252,0,0,0-.294-1.568l-.714.182a7.514,7.514,0,0,1,.266,1.624ZM17.64,5.724A10.138,10.138,0,0,0,15.61,4.31l-.952,1.12a9.368,9.368,0,0,1,1.96,1.54Zm-.28,3.57a9.348,9.348,0,0,0-2.086-1.316l-.91,1.162a9.959,9.959,0,0,1,2.016,1.428ZM16.17,17.05c.546-1.358,1.12-2.968,1.568-4.466l-1.316-.84a42.718,42.718,0,0,1-1.736,4.48Zm1.442-7.7a4.732,4.732,0,0,1-.462,1.582,4.705,4.705,0,0,1,.686.49,6.443,6.443,0,0,0,.574-1.876Zm2.38,4.858.112-.448h6.2V11.45H18.368v.924h6.4v.448H18.788a23.682,23.682,0,0,1-.63,2.394h7.084a1.411,1.411,0,0,1-.406.728,1,1,0,0,1-.6.112c-.336,0-1.274-.014-2.1-.1a2.815,2.815,0,0,1,.448,1.218c.868.028,1.708.042,2.17.028a2.2,2.2,0,0,0,1.3-.364,3.493,3.493,0,0,0,.854-2.044,3.743,3.743,0,0,0,.084-.588Zm6.244-4.872a7.741,7.741,0,0,1,.476,1.764l.7-.322a8.056,8.056,0,0,0-.5-1.694Zm5.628,6.86a3.5,3.5,0,0,0,3.626-3.64A3.008,3.008,0,0,0,32.3,9.266a2.68,2.68,0,0,0-1.246.294l.2-2.2h3.766V5.64H29.47l-.28,5.026.938.616a2.479,2.479,0,0,1,1.554-.546,1.677,1.677,0,0,1,1.75,1.876,1.74,1.74,0,0,1-1.834,1.9,3.22,3.22,0,0,1-2.282-1.05l-.952,1.316A4.722,4.722,0,0,0,31.864,16.2ZM38.85,16h2.086c.168-4.06.49-6.174,2.9-9.114V5.64H36.946V7.362h4.662C39.634,10.106,39.032,12.4,38.85,16Zm8.61-3.99c1.484,0,2.534-1.218,2.534-3.3s-1.05-3.262-2.534-3.262-2.52,1.19-2.52,3.262S45.976,12.01,47.46,12.01Zm0-1.162c-.6,0-1.064-.616-1.064-2.142s.462-2.1,1.064-2.1,1.078.574,1.078,2.1S48.062,10.848,47.46,10.848Zm.35,5.348h1.2L54.656,5.444H53.438Zm7.182,0c1.47,0,2.534-1.232,2.534-3.3s-1.064-3.276-2.534-3.276-2.52,1.19-2.52,3.276S53.522,16.2,54.992,16.2Zm0-1.176c-.6,0-1.078-.6-1.078-2.128s.476-2.114,1.078-2.114,1.078.588,1.078,2.114S55.594,15.02,54.992,15.02Z" transform="translate(219 -3)" fill="#4891f2"/>
        <path id="內文p-3" data-name="內文p" d="M.773-5.578A6.224,6.224,0,0,1,2.3-10.043a5.206,5.206,0,0,1,3.953-1.613,5.484,5.484,0,0,1,2.859.758,4.949,4.949,0,0,1,1.941,2.113,6.864,6.864,0,0,1,.668,3.074,6.749,6.749,0,0,1-.7,3.117A4.8,4.8,0,0,1,9.031-.512,5.692,5.692,0,0,1,6.25.2,5.416,5.416,0,0,1,3.359-.586,5.027,5.027,0,0,1,1.43-2.719,6.464,6.464,0,0,1,.773-5.578Zm1.563.023A4.588,4.588,0,0,0,3.449-2.293,3.662,3.662,0,0,0,6.242-1.1,3.656,3.656,0,0,0,9.059-2.3a4.865,4.865,0,0,0,1.105-3.414A5.867,5.867,0,0,0,9.691-8.16,3.632,3.632,0,0,0,8.309-9.777a3.749,3.749,0,0,0-2.043-.574A3.875,3.875,0,0,0,3.5-9.246,4.937,4.937,0,0,0,2.336-5.555ZM13.711,0V-11.453h8.281V-10.1H15.227v3.508h6.336V-5.25H15.227v3.9h7.031V0ZM32.523-4.016l1.516.383A5.1,5.1,0,0,1,32.324-.785,4.725,4.725,0,0,1,29.3.2a5.44,5.44,0,0,1-3.012-.754A4.707,4.707,0,0,1,24.52-2.742a7.791,7.791,0,0,1-.605-3.07A6.749,6.749,0,0,1,24.6-8.934a4.684,4.684,0,0,1,1.945-2.023,5.684,5.684,0,0,1,2.777-.691,4.7,4.7,0,0,1,2.891.875,4.544,4.544,0,0,1,1.633,2.461l-1.492.352A3.54,3.54,0,0,0,31.2-9.781a3.081,3.081,0,0,0-1.906-.57,3.7,3.7,0,0,0-2.207.633,3.342,3.342,0,0,0-1.246,1.7,6.841,6.841,0,0,0-.359,2.2A6.989,6.989,0,0,0,25.9-3.27a3.172,3.172,0,0,0,1.324,1.629,3.714,3.714,0,0,0,1.945.539,3.26,3.26,0,0,0,2.156-.734A3.758,3.758,0,0,0,32.523-4.016ZM35.906,0V-11.453h3.945a9.57,9.57,0,0,1,2.039.164,3.879,3.879,0,0,1,1.68.82,4.66,4.66,0,0,1,1.355,1.957,7.682,7.682,0,0,1,.449,2.723,8,8,0,0,1-.3,2.313,5.61,5.61,0,0,1-.781,1.668A4.15,4.15,0,0,1,43.246-.77,4.251,4.251,0,0,1,41.879-.2a7.8,7.8,0,0,1-1.84.2Zm1.516-1.352h2.445a5.934,5.934,0,0,0,1.777-.211,2.543,2.543,0,0,0,1.027-.594,3.613,3.613,0,0,0,.84-1.449,7.085,7.085,0,0,0,.3-2.207,5.33,5.33,0,0,0-.59-2.762,2.969,2.969,0,0,0-1.434-1.293,5.926,5.926,0,0,0-1.961-.234H37.422Zm23.813-3.32q0,.125-.133.125l-2.094-.031H54.672V-.719L54.7.977a.11.11,0,0,1-.125.125h-.852A.11.11,0,0,1,53.6.977l.031-1.7V-4.578H49.422l-2.078.031a.11.11,0,0,1-.125-.125V-5.43a.11.11,0,0,1,.125-.125l2.078.031h4.211v-5.852H50.32l-2.211.031a.11.11,0,0,1-.125-.125v-.742a.11.11,0,0,1,.125-.125l2.211.031h7.922l2.188-.031q.133,0,.133.125v.742q0,.125-.133.125l-2.187-.031h-3.57v5.852h4.336L61.1-5.555q.133,0,.133.125Zm-1.7-5.375q0,.07-.141.188a1.239,1.239,0,0,0-.289.438,19.213,19.213,0,0,1-1.75,2.906q-.156.211-.219.211A.9.9,0,0,1,56.9-6.43,2.088,2.088,0,0,0,56.32-6.7,14.129,14.129,0,0,0,58.211-9.82a3.453,3.453,0,0,0,.242-.8,6.8,6.8,0,0,1,.945.4Q59.539-10.148,59.539-10.047ZM51.75-6.9a.331.331,0,0,1,.016.078q0,.063-.148.117l-.539.227a.755.755,0,0,1-.2.063q-.047,0-.086-.117A16.119,16.119,0,0,0,49.055-10a.136.136,0,0,1-.039-.078q0-.055.188-.148l.445-.234a.33.33,0,0,1,.133-.055q.039,0,.094.086A15.808,15.808,0,0,1,51.75-6.9Zm25.086-3.391Q76.8-9.883,76.8-9.07A53.056,53.056,0,0,1,76.3-1.422,3.859,3.859,0,0,1,75.586.438a1.654,1.654,0,0,1-1.3.555q-.508,0-1.5-.094A.542.542,0,0,1,72.5.813a.775.775,0,0,1-.078-.281,2.588,2.588,0,0,0-.258-.742,11.714,11.714,0,0,0,2.094.227.859.859,0,0,0,.773-.578,4.741,4.741,0,0,0,.336-1.211A49.358,49.358,0,0,0,75.813-9.5H70.148a13.512,13.512,0,0,1-1.586,2.43q-.133.164-.211.164-.062,0-.219-.18a1.635,1.635,0,0,0-.5-.414,12.661,12.661,0,0,0,2.547-4.352,6.653,6.653,0,0,0,.32-1.43,7.872,7.872,0,0,1,.961.273q.219.078.219.2a.454.454,0,0,1-.156.273,2.617,2.617,0,0,0-.383.8q-.352.906-.562,1.344h4.211l1.9-.031Q76.836-10.43,76.836-10.289ZM68.219-4.3a2.9,2.9,0,0,0-.039.461,1.505,1.505,0,0,0,.008.164q.008.148.008.156a.276.276,0,0,1-.043.176.856.856,0,0,1-.238.145,29.63,29.63,0,0,1-3.523,1.6,3.493,3.493,0,0,0-.562.258.35.35,0,0,1-.234.125q-.109,0-.18-.156a5.634,5.634,0,0,1-.352-.914,7.457,7.457,0,0,0,1.555-.383l.625-.227v-5.07H64.8l-1.453.031q-.133,0-.133-.125v-.672q0-.148.133-.148l1.453.031h.438v-1.9a15.468,15.468,0,0,0-.117-2.211q.539.023,1.039.094.18.031.18.148a1.963,1.963,0,0,1-.062.273,8.29,8.29,0,0,0-.1,1.664v1.93h.2l1.438-.031q.133,0,.133.148v.672q0,.125-.133.125l-1.437-.031h-.2v4.688A18.172,18.172,0,0,0,68.219-4.3Zm6.2-.4a2.984,2.984,0,0,0-.023.4q0,.125.008.273v.055q.008.07.008.094a.267.267,0,0,1-.062.2,1.147,1.147,0,0,1-.219.133,23.89,23.89,0,0,1-3.875,1.828,1.641,1.641,0,0,0-.555.289.376.376,0,0,1-.242.125q-.109,0-.18-.156a4.333,4.333,0,0,1-.352-.93,6.669,6.669,0,0,0,1.555-.414A29.911,29.911,0,0,0,74.422-4.7Zm-.437-1.7a.11.11,0,0,1-.125.125L72.5-6.3H71.234l-1.344.031a.11.11,0,0,1-.125-.125v-.687q0-.133.125-.133l1.344.031H72.5l1.359-.031q.125,0,.125.133Zm5-3.555V-11.3H86.4v1.094A15.624,15.624,0,0,0,84.23-7.117a18.842,18.842,0,0,0-1.66,3.969A14.751,14.751,0,0,0,82.031,0H80.586a14.035,14.035,0,0,1,.531-3.266,17.147,17.147,0,0,1,1.457-3.691,15.824,15.824,0,0,1,2.02-3Zm8.8,4.3a10.48,10.48,0,0,1,.418-3.27,4.067,4.067,0,0,1,1.242-1.91,3.176,3.176,0,0,1,2.074-.672,3.384,3.384,0,0,1,1.617.371,3.091,3.091,0,0,1,1.148,1.07A5.742,5.742,0,0,1,95-8.355a11.316,11.316,0,0,1,.258,2.707,10.51,10.51,0,0,1-.414,3.254A4.068,4.068,0,0,1,93.605-.48,3.176,3.176,0,0,1,91.523.2a3.143,3.143,0,0,1-2.6-1.187A7.547,7.547,0,0,1,87.789-5.648Zm1.445,0a7.181,7.181,0,0,0,.66,3.754,1.945,1.945,0,0,0,1.629.934A1.944,1.944,0,0,0,93.152-1.9a7.184,7.184,0,0,0,.66-3.75,7.179,7.179,0,0,0-.66-3.758,1.959,1.959,0,0,0-1.645-.93,1.8,1.8,0,0,0-1.547.82A7.264,7.264,0,0,0,89.234-5.648ZM96.953-8.7a3.481,3.481,0,0,1,.617-2.086,2.066,2.066,0,0,1,1.789-.859,2.32,2.32,0,0,1,1.785.77,3.234,3.234,0,0,1,.707,2.262,3.209,3.209,0,0,1-.715,2.238,2.289,2.289,0,0,1-1.762.785,2.224,2.224,0,0,1-1.73-.773A3.415,3.415,0,0,1,96.953-8.7ZM99.4-10.68a1.058,1.058,0,0,0-.871.453,2.871,2.871,0,0,0-.348,1.664,2.58,2.58,0,0,0,.352,1.551,1.064,1.064,0,0,0,.867.449,1.065,1.065,0,0,0,.879-.453,2.853,2.853,0,0,0,.348-1.656,2.6,2.6,0,0,0-.352-1.559A1.071,1.071,0,0,0,99.4-10.68Zm.008,11.1,6.266-12.07h1.141L100.57.422Zm4.953-3.109a3.477,3.477,0,0,1,.617-2.09,2.077,2.077,0,0,1,1.8-.855,2.32,2.32,0,0,1,1.785.77,3.234,3.234,0,0,1,.707,2.262,3.209,3.209,0,0,1-.715,2.238,2.3,2.3,0,0,1-1.77.785,2.22,2.22,0,0,1-1.73-.777A3.418,3.418,0,0,1,104.359-2.687Zm2.453-1.977a1.065,1.065,0,0,0-.879.453,2.871,2.871,0,0,0-.348,1.664A2.582,2.582,0,0,0,105.938-1a1.061,1.061,0,0,0,.867.453A1.072,1.072,0,0,0,107.691-1a2.853,2.853,0,0,0,.348-1.656,2.6,2.6,0,0,0-.352-1.559A1.071,1.071,0,0,0,106.813-4.664Z" transform="translate(157 67)" fill="#c0c3c9"/>
      </g>
      <g id="Group_2128" data-name="Group 2128" transform="translate(4464.335 12444)">
        <g id="Union_1" data-name="Union 1" transform="translate(-4613 -12463)" fill="none">
          <path d="M347.27,154.211,343.664,147h-110a2,2,0,0,1-2-2V122a2,2,0,0,1,2-2h250a2,2,0,0,1,2,2v23a2,2,0,0,1-2,2h-131l-3.606,7.212a1,1,0,0,1-1.788,0Z" stroke="none"/>
          <path d="M 348.1646118164063 153.7636566162109 L 351.7705078125 146.552490234375 L 352.0469055175781 145.9997253417969 L 352.6648864746094 145.9997253417969 L 483.6645202636719 145.9997253417969 C 484.2157897949219 145.9997253417969 484.664306640625 145.5512237548828 484.664306640625 144.9999237060547 L 484.664306640625 122.0003890991211 C 484.664306640625 121.4485931396484 484.2157897949219 120.9996948242188 483.6645202636719 120.9996948242188 L 233.6642913818359 120.9996948242188 C 233.1129913330078 120.9996948242188 232.6645050048828 121.4485931396484 232.6645050048828 122.0003890991211 L 232.6645050048828 144.9999237060547 C 232.6645050048828 145.5512237548828 233.1129913330078 145.9997253417969 233.6642913818359 145.9997253417969 L 343.6642456054688 145.9997253417969 L 344.2822265625 145.9997253417969 L 344.5586242675781 146.552490234375 L 348.1646118164063 153.7636566162109 M 348.16455078125 154.7642211914063 C 347.8095092773438 154.7642211914063 347.4544677734375 154.5799560546875 347.2704467773438 154.21142578125 L 343.6642456054688 146.9997253417969 L 233.6642913818359 146.9997253417969 C 232.5600280761719 146.9997253417969 231.6645050048828 146.1041870117188 231.6645050048828 144.9999237060547 L 231.6645050048828 122.0003890991211 C 231.6645050048828 120.8951950073242 232.5600280761719 119.9996948242188 233.6642913818359 119.9996948242188 L 483.6645202636719 119.9996948242188 C 484.768798828125 119.9996948242188 485.664306640625 120.8951950073242 485.664306640625 122.0003890991211 L 485.664306640625 144.9999237060547 C 485.664306640625 146.1041870117188 484.768798828125 146.9997253417969 483.6645202636719 146.9997253417969 L 352.6648864746094 146.9997253417969 L 349.0587463378906 154.21142578125 C 348.8746643066406 154.5799560546875 348.5196228027344 154.7642211914063 348.16455078125 154.7642211914063 Z" stroke="none" fill="#4891f2"/>
        </g>
      </g>
    </g>
    <g id="Group_2135" data-name="Group 2135" transform="translate(0 -1)">
      <g id="Group_1780" data-name="Group 1780" transform="translate(83.352 196.563)">
        <rect id="Rectangle_2243" data-name="Rectangle 2243" width="206.812" height="15.739" rx="2" transform="translate(0 30.715)" fill="#4d505a"/>
        <path id="Rectangle_2241" data-name="Rectangle 2241" d="M2,0H166.048a0,0,0,0,1,0,0V15.739a0,0,0,0,1,0,0H2a2,2,0,0,1-2-2V2A2,2,0,0,1,2,0Z" transform="translate(0 30.715)" fill="#4891f2"/>
        <line id="Line_332" data-name="Line 332" y2="16" transform="translate(174.148 30.938)" fill="none" stroke="#919294" stroke-width="1" stroke-dasharray="1"/>
        <path id="內文p-4" data-name="內文p" d="M9.926-3.346v2.24H3.99v-2.24ZM2.282,1.2H3.99V.49H9.926v.7h1.792V-4.942H2.282ZM8.148-9.7C8.666-9.184,9.226-8.6,9.772-7.98L4.032-7.8a23.013,23.013,0,0,0,3.052-3.57L5.4-12.082A18.681,18.681,0,0,1,2.436-8.274a2.884,2.884,0,0,1-1.162.812,12.746,12.746,0,0,1,.546,1.6c.742-.252,1.736-.28,9.17-.644a12.247,12.247,0,0,1,.728,1.064l1.414-1.022a25.446,25.446,0,0,0-3.682-4.1Zm19.32,2.408a8.631,8.631,0,0,0-.63-1.5l-.686.252c.056.112.112.238.168.364l-.784.084A12.724,12.724,0,0,0,27.02-10.15l-.854-.378c-.1.21-.21.42-.322.63L25.2-9.87a9.35,9.35,0,0,0,.882-1.526l-.9-.336a6.246,6.246,0,0,1-.854,1.792c-.154.21-.28.35-.448.378a4.5,4.5,0,0,1,.308.672A5.329,5.329,0,0,1,25.3-9.058a8.784,8.784,0,0,1-.7.868,1.171,1.171,0,0,1-.658.49,2.986,2.986,0,0,1,.322.686,9.492,9.492,0,0,1,2.366-.434c.056.168.112.322.14.448ZM26.152-4.956a7.653,7.653,0,0,0-.308-1.694l-.714.2a8.681,8.681,0,0,1,.28,1.75ZM24.22-6.72a4.546,4.546,0,0,1-.462,1.582,4.153,4.153,0,0,1,.672.49A5.952,5.952,0,0,0,25-6.51Zm-.252-3.752H22.554l.56-.14a9,9,0,0,0-.5-1.078l-1.092.224a6.816,6.816,0,0,1,.42.994H20.622V-9.6h3.346Zm-.28,2.31h-2.66v.756h2.66ZM21.98-6.286h.7v.616h-.7Zm-.966,1.344h2.674V-7.028H21.014Zm2.674-4.3h-2.66v.756h2.66ZM20.86-7.322a9.488,9.488,0,0,0-.616-1.47l-.7.252c.056.112.126.238.182.364l-.8.084a11.929,11.929,0,0,0,1.5-2.044l-.854-.406a6.881,6.881,0,0,1-.336.63l-.63.028a7.237,7.237,0,0,0,.868-1.526l-.9-.322a6.971,6.971,0,0,1-.84,1.792.734.734,0,0,1-.462.378,3.665,3.665,0,0,1,.336.658A3.716,3.716,0,0,1,18.7-9.086a7.149,7.149,0,0,1-.7.9c-.252.266-.434.448-.658.476a4.814,4.814,0,0,1,.322.686,11.45,11.45,0,0,1,2.352-.434,4.459,4.459,0,0,1,.126.434Zm-.14,1.848a6.236,6.236,0,0,0-.42-1.442l-.644.252a6.028,6.028,0,0,1,.378,1.5Zm-1.148.392a6.252,6.252,0,0,0-.294-1.568l-.714.182a7.514,7.514,0,0,1,.266,1.624ZM17.64-10.276a10.138,10.138,0,0,0-2.03-1.414l-.952,1.12a9.368,9.368,0,0,1,1.96,1.54Zm-.28,3.57a9.348,9.348,0,0,0-2.086-1.316l-.91,1.162A9.959,9.959,0,0,1,16.38-5.432ZM16.17,1.05c.546-1.358,1.12-2.968,1.568-4.466l-1.316-.84A42.718,42.718,0,0,1,14.686.224Zm1.442-7.7a4.732,4.732,0,0,1-.462,1.582,4.705,4.705,0,0,1,.686.49,6.443,6.443,0,0,0,.574-1.876Zm2.38,4.858L20.1-2.24h6.2V-4.55H18.368v.924h6.4v.448H18.788a23.682,23.682,0,0,1-.63,2.394h7.084a1.411,1.411,0,0,1-.406.728,1,1,0,0,1-.6.112c-.336,0-1.274-.014-2.1-.1a2.815,2.815,0,0,1,.448,1.218c.868.028,1.708.042,2.17.028a2.2,2.2,0,0,0,1.3-.364A3.493,3.493,0,0,0,26.908-1.2a3.743,3.743,0,0,0,.084-.588Zm6.244-4.872A7.741,7.741,0,0,1,26.712-4.9l.7-.322a8.056,8.056,0,0,0-.5-1.694ZM32.116.2c2.1,0,3.486-1.2,3.486-2.772a3.013,3.013,0,0,0-1.736-2.772v-.07A3.018,3.018,0,0,0,35.2-7.784a2.719,2.719,0,0,0-3.01-2.758c-1.806,0-3.122,1.064-3.122,2.73a2.951,2.951,0,0,0,1.372,2.464v.07a3.015,3.015,0,0,0-1.778,2.7C28.658-.952,30.142.2,32.116.2Zm.658-6.118c-1.092-.434-1.89-.91-1.89-1.89A1.2,1.2,0,0,1,32.144-9.1a1.32,1.32,0,0,1,1.372,1.442A2.481,2.481,0,0,1,32.774-5.922Zm-.6,4.662A1.588,1.588,0,0,1,30.436-2.8a2.491,2.491,0,0,1,.952-1.918c1.344.546,2.3.994,2.3,2.072A1.358,1.358,0,0,1,32.172-1.26ZM40.376.2c2.1,0,3.5-1.848,3.5-5.418s-1.4-5.334-3.5-5.334-3.514,1.75-3.514,5.334S38.262.2,40.376.2Zm0-1.61c-.9,0-1.568-.9-1.568-3.808S39.48-8.96,40.376-8.96s1.554.84,1.554,3.738S41.258-1.414,40.376-1.414ZM47.46-3.99c1.484,0,2.534-1.218,2.534-3.3s-1.05-3.262-2.534-3.262-2.52,1.19-2.52,3.262S45.976-3.99,47.46-3.99Zm0-1.162c-.6,0-1.064-.616-1.064-2.142s.462-2.1,1.064-2.1,1.078.574,1.078,2.1S48.062-5.152,47.46-5.152ZM47.81.2h1.2l5.642-10.752H53.438Zm7.182,0c1.47,0,2.534-1.232,2.534-3.3s-1.064-3.276-2.534-3.276-2.52,1.19-2.52,3.276S53.522.2,54.992.2Zm0-1.176c-.6,0-1.078-.6-1.078-2.128s.476-2.114,1.078-2.114,1.078.588,1.078,2.114S55.594-.98,54.992-.98Z" transform="translate(162.648 13.437)" fill="#4891f2"/>
        <path id="內文p-5" data-name="內文p" d="M.773-5.578A6.224,6.224,0,0,1,2.3-10.043a5.206,5.206,0,0,1,3.953-1.613,5.484,5.484,0,0,1,2.859.758,4.949,4.949,0,0,1,1.941,2.113,6.864,6.864,0,0,1,.668,3.074,6.749,6.749,0,0,1-.7,3.117A4.8,4.8,0,0,1,9.031-.512,5.692,5.692,0,0,1,6.25.2,5.416,5.416,0,0,1,3.359-.586,5.027,5.027,0,0,1,1.43-2.719,6.464,6.464,0,0,1,.773-5.578Zm1.563.023A4.588,4.588,0,0,0,3.449-2.293,3.662,3.662,0,0,0,6.242-1.1,3.656,3.656,0,0,0,9.059-2.3a4.865,4.865,0,0,0,1.105-3.414A5.867,5.867,0,0,0,9.691-8.16,3.632,3.632,0,0,0,8.309-9.777a3.749,3.749,0,0,0-2.043-.574A3.875,3.875,0,0,0,3.5-9.246,4.937,4.937,0,0,0,2.336-5.555ZM13.711,0V-11.453h8.281V-10.1H15.227v3.508h6.336V-5.25H15.227v3.9h7.031V0ZM32.523-4.016l1.516.383A5.1,5.1,0,0,1,32.324-.785,4.725,4.725,0,0,1,29.3.2a5.44,5.44,0,0,1-3.012-.754A4.707,4.707,0,0,1,24.52-2.742a7.791,7.791,0,0,1-.605-3.07A6.749,6.749,0,0,1,24.6-8.934a4.684,4.684,0,0,1,1.945-2.023,5.684,5.684,0,0,1,2.777-.691,4.7,4.7,0,0,1,2.891.875,4.544,4.544,0,0,1,1.633,2.461l-1.492.352A3.54,3.54,0,0,0,31.2-9.781a3.081,3.081,0,0,0-1.906-.57,3.7,3.7,0,0,0-2.207.633,3.342,3.342,0,0,0-1.246,1.7,6.841,6.841,0,0,0-.359,2.2A6.989,6.989,0,0,0,25.9-3.27a3.172,3.172,0,0,0,1.324,1.629,3.714,3.714,0,0,0,1.945.539,3.26,3.26,0,0,0,2.156-.734A3.758,3.758,0,0,0,32.523-4.016ZM35.906,0V-11.453h3.945a9.57,9.57,0,0,1,2.039.164,3.879,3.879,0,0,1,1.68.82,4.66,4.66,0,0,1,1.355,1.957,7.682,7.682,0,0,1,.449,2.723,8,8,0,0,1-.3,2.313,5.61,5.61,0,0,1-.781,1.668A4.15,4.15,0,0,1,43.246-.77,4.251,4.251,0,0,1,41.879-.2a7.8,7.8,0,0,1-1.84.2Zm1.516-1.352h2.445a5.934,5.934,0,0,0,1.777-.211,2.543,2.543,0,0,0,1.027-.594,3.613,3.613,0,0,0,.84-1.449,7.085,7.085,0,0,0,.3-2.207,5.33,5.33,0,0,0-.59-2.762,2.969,2.969,0,0,0-1.434-1.293,5.926,5.926,0,0,0-1.961-.234H37.422Zm23.813-3.32q0,.125-.133.125l-2.094-.031H54.672V-.719L54.7.977a.11.11,0,0,1-.125.125h-.852A.11.11,0,0,1,53.6.977l.031-1.7V-4.578H49.422l-2.078.031a.11.11,0,0,1-.125-.125V-5.43a.11.11,0,0,1,.125-.125l2.078.031h4.211v-5.852H50.32l-2.211.031a.11.11,0,0,1-.125-.125v-.742a.11.11,0,0,1,.125-.125l2.211.031h7.922l2.188-.031q.133,0,.133.125v.742q0,.125-.133.125l-2.187-.031h-3.57v5.852h4.336L61.1-5.555q.133,0,.133.125Zm-1.7-5.375q0,.07-.141.188a1.239,1.239,0,0,0-.289.438,19.213,19.213,0,0,1-1.75,2.906q-.156.211-.219.211A.9.9,0,0,1,56.9-6.43,2.088,2.088,0,0,0,56.32-6.7,14.129,14.129,0,0,0,58.211-9.82a3.453,3.453,0,0,0,.242-.8,6.8,6.8,0,0,1,.945.4Q59.539-10.148,59.539-10.047ZM51.75-6.9a.331.331,0,0,1,.016.078q0,.063-.148.117l-.539.227a.755.755,0,0,1-.2.063q-.047,0-.086-.117A16.119,16.119,0,0,0,49.055-10a.136.136,0,0,1-.039-.078q0-.055.188-.148l.445-.234a.33.33,0,0,1,.133-.055q.039,0,.094.086A15.808,15.808,0,0,1,51.75-6.9Zm25.086-3.391Q76.8-9.883,76.8-9.07A53.056,53.056,0,0,1,76.3-1.422,3.859,3.859,0,0,1,75.586.438a1.654,1.654,0,0,1-1.3.555q-.508,0-1.5-.094A.542.542,0,0,1,72.5.813a.775.775,0,0,1-.078-.281,2.588,2.588,0,0,0-.258-.742,11.714,11.714,0,0,0,2.094.227.859.859,0,0,0,.773-.578,4.741,4.741,0,0,0,.336-1.211A49.358,49.358,0,0,0,75.813-9.5H70.148a13.512,13.512,0,0,1-1.586,2.43q-.133.164-.211.164-.062,0-.219-.18a1.635,1.635,0,0,0-.5-.414,12.661,12.661,0,0,0,2.547-4.352,6.653,6.653,0,0,0,.32-1.43,7.872,7.872,0,0,1,.961.273q.219.078.219.2a.454.454,0,0,1-.156.273,2.617,2.617,0,0,0-.383.8q-.352.906-.562,1.344h4.211l1.9-.031Q76.836-10.43,76.836-10.289ZM68.219-4.3a2.9,2.9,0,0,0-.039.461,1.505,1.505,0,0,0,.008.164q.008.148.008.156a.276.276,0,0,1-.043.176.856.856,0,0,1-.238.145,29.63,29.63,0,0,1-3.523,1.6,3.493,3.493,0,0,0-.562.258.35.35,0,0,1-.234.125q-.109,0-.18-.156a5.634,5.634,0,0,1-.352-.914,7.457,7.457,0,0,0,1.555-.383l.625-.227v-5.07H64.8l-1.453.031q-.133,0-.133-.125v-.672q0-.148.133-.148l1.453.031h.438v-1.9a15.468,15.468,0,0,0-.117-2.211q.539.023,1.039.094.18.031.18.148a1.963,1.963,0,0,1-.062.273,8.29,8.29,0,0,0-.1,1.664v1.93h.2l1.438-.031q.133,0,.133.148v.672q0,.125-.133.125l-1.437-.031h-.2v4.688A18.172,18.172,0,0,0,68.219-4.3Zm6.2-.4a2.984,2.984,0,0,0-.023.4q0,.125.008.273v.055q.008.07.008.094a.267.267,0,0,1-.062.2,1.147,1.147,0,0,1-.219.133,23.89,23.89,0,0,1-3.875,1.828,1.641,1.641,0,0,0-.555.289.376.376,0,0,1-.242.125q-.109,0-.18-.156a4.333,4.333,0,0,1-.352-.93,6.669,6.669,0,0,0,1.555-.414A29.911,29.911,0,0,0,74.422-4.7Zm-.437-1.7a.11.11,0,0,1-.125.125L72.5-6.3H71.234l-1.344.031a.11.11,0,0,1-.125-.125v-.687q0-.133.125-.133l1.344.031H72.5l1.359-.031q.125,0,.125.133Zm7.07.188a2.647,2.647,0,0,1-1.3-.914,2.391,2.391,0,0,1-.422-1.422,2.781,2.781,0,0,1,.9-2.1,3.332,3.332,0,0,1,2.391-.852,3.354,3.354,0,0,1,2.414.871,2.82,2.82,0,0,1,.914,2.121,2.336,2.336,0,0,1-.418,1.387,2.636,2.636,0,0,1-1.27.91A3.079,3.079,0,0,1,85.871-5.1a3.047,3.047,0,0,1,.551,1.828A3.29,3.29,0,0,1,85.383-.8a3.778,3.778,0,0,1-2.734,1,3.769,3.769,0,0,1-2.734-1,3.339,3.339,0,0,1-1.039-2.5,3.027,3.027,0,0,1,.566-1.871A2.836,2.836,0,0,1,81.055-6.211Zm-.281-2.383A1.783,1.783,0,0,0,81.3-7.266a1.854,1.854,0,0,0,1.359.516,1.818,1.818,0,0,0,1.332-.512,1.692,1.692,0,0,0,.52-1.254,1.754,1.754,0,0,0-.535-1.3,1.822,1.822,0,0,0-1.332-.527,1.841,1.841,0,0,0-1.336.516A1.66,1.66,0,0,0,80.773-8.594ZM80.32-3.3a2.544,2.544,0,0,0,.285,1.164,2.012,2.012,0,0,0,.848.871,2.478,2.478,0,0,0,1.211.309,2.269,2.269,0,0,0,1.664-.648,2.219,2.219,0,0,0,.656-1.648,2.256,2.256,0,0,0-.676-1.68A2.316,2.316,0,0,0,82.617-5.6a2.223,2.223,0,0,0-1.645.656A2.233,2.233,0,0,0,80.32-3.3ZM92.3,0V-2.742H87.328V-4.031l5.227-7.422H93.7v7.422H95.25v1.289H93.7V0Zm0-4.031V-9.2L88.711-4.031ZM96.953-8.7a3.481,3.481,0,0,1,.617-2.086,2.066,2.066,0,0,1,1.789-.859,2.32,2.32,0,0,1,1.785.77,3.234,3.234,0,0,1,.707,2.262,3.209,3.209,0,0,1-.715,2.238,2.289,2.289,0,0,1-1.762.785,2.224,2.224,0,0,1-1.73-.773A3.415,3.415,0,0,1,96.953-8.7ZM99.4-10.68a1.058,1.058,0,0,0-.871.453,2.871,2.871,0,0,0-.348,1.664,2.58,2.58,0,0,0,.352,1.551,1.064,1.064,0,0,0,.867.449,1.065,1.065,0,0,0,.879-.453,2.853,2.853,0,0,0,.348-1.656,2.6,2.6,0,0,0-.352-1.559A1.071,1.071,0,0,0,99.4-10.68Zm.008,11.1,6.266-12.07h1.141L100.57.422Zm4.953-3.109a3.477,3.477,0,0,1,.617-2.09,2.077,2.077,0,0,1,1.8-.855,2.32,2.32,0,0,1,1.785.77,3.234,3.234,0,0,1,.707,2.262,3.209,3.209,0,0,1-.715,2.238,2.3,2.3,0,0,1-1.77.785,2.22,2.22,0,0,1-1.73-.777A3.418,3.418,0,0,1,104.359-2.687Zm2.453-1.977a1.065,1.065,0,0,0-.879.453,2.871,2.871,0,0,0-.348,1.664A2.582,2.582,0,0,0,105.938-1a1.061,1.061,0,0,0,.867.453A1.072,1.072,0,0,0,107.691-1a2.853,2.853,0,0,0,.348-1.656,2.6,2.6,0,0,0-.352-1.559A1.071,1.071,0,0,0,106.813-4.664Z" transform="translate(117.648 67.437)" fill="#c0c3c9"/>
        <g id="Group_1778" data-name="Group 1778" transform="translate(38.695 -5)">
          <text id="內文p-6" data-name="內文p" transform="translate(-34.048 2.437)" fill="#4891f2" font-size="14" font-family="SourceHanSansTW-Bold, Source Han Sans TW" font-weight="700"><tspan x="0" y="16">能在艱困處境中找到出路　</tspan></text>
        </g>
      </g>
      <g id="Group_2132" data-name="Group 2132" transform="translate(4464.335 12534)">
        <g id="Union_1-2" data-name="Union 1" transform="translate(-4613 -12463)" fill="none">
          <path d="M397.27,154.211,393.664,147h-160a2,2,0,0,1-2-2V122a2,2,0,0,1,2-2h224a2,2,0,0,1,2,2v23a2,2,0,0,1-2,2h-55l-3.606,7.212a1,1,0,0,1-1.789,0Z" stroke="none"/>
          <path d="M 398.1645202636719 153.7642211914063 C 398.16455078125 153.7642211914063 398.1646118164063 153.7642211914063 398.1646728515625 153.7642211914063 L 401.7702026367188 146.5525512695313 L 402.0465698242188 145.9997253417969 L 402.6646423339844 145.9997253417969 L 457.6643981933594 145.9997253417969 C 458.2156982421875 145.9997253417969 458.6642150878906 145.5511932373047 458.6642150878906 144.9998931884766 L 458.6642150878906 122.0003967285156 C 458.6642150878906 121.4486083984375 458.2156982421875 120.9996948242188 457.6643981933594 120.9996948242188 L 233.664306640625 120.9996948242188 C 233.1130218505859 120.9996948242188 232.6645202636719 121.4486083984375 232.6645202636719 122.0003967285156 L 232.6645202636719 144.9998931884766 C 232.6645202636719 145.5511932373047 233.1130218505859 145.9997253417969 233.664306640625 145.9997253417969 L 393.6643981933594 145.9997253417969 L 394.282470703125 145.9997253417969 L 394.558837890625 146.5525512695313 L 398.1640930175781 153.7637481689453 C 398.1641845703125 153.763916015625 398.1642761230469 153.7640686035156 398.1643371582031 153.7642211914063 C 398.1643981933594 153.7642211914063 398.1644592285156 153.7642211914063 398.1645202636719 153.7642211914063 M 398.1645202636719 154.7642211914063 C 397.8094482421875 154.7642211914063 397.4544067382813 154.5799560546875 397.2698974609375 154.2113952636719 L 393.6643981933594 146.9997253417969 L 233.664306640625 146.9997253417969 C 232.5600128173828 146.9997253417969 231.6645202636719 146.1041870117188 231.6645202636719 144.9998931884766 L 231.6645202636719 122.0003967285156 C 231.6645202636719 120.8951950073242 232.5600128173828 119.9996948242188 233.664306640625 119.9996948242188 L 457.6643981933594 119.9996948242188 C 458.7687072753906 119.9996948242188 459.6642150878906 120.8951950073242 459.6642150878906 122.0003967285156 L 459.6642150878906 144.9998931884766 C 459.6642150878906 146.1041870117188 458.7687072753906 146.9997253417969 457.6643981933594 146.9997253417969 L 402.6646423339844 146.9997253417969 L 399.0591125488281 154.2113952636719 C 398.8746032714844 154.5799560546875 398.5195617675781 154.7642211914063 398.1645202636719 154.7642211914063 Z" stroke="none" fill="#4891f2"/>
        </g>
        <g id="Union_2" data-name="Union 2" transform="translate(-4613 -12463)" fill="none">
          <path d="M397.27,154.211,393.664,147h-160a2,2,0,0,1-2-2V122a2,2,0,0,1,2-2h224a2,2,0,0,1,2,2v23a2,2,0,0,1-2,2h-55l-3.606,7.212a1,1,0,0,1-1.789,0Z" stroke="none"/>
          <path d="M 398.1645202636719 153.7642211914063 C 398.16455078125 153.7642211914063 398.1646118164063 153.7642211914063 398.1646728515625 153.7642211914063 L 401.7702026367188 146.5525512695313 L 402.0465698242188 145.9997253417969 L 402.6646423339844 145.9997253417969 L 457.6643981933594 145.9997253417969 C 458.2156982421875 145.9997253417969 458.6642150878906 145.5511932373047 458.6642150878906 144.9998931884766 L 458.6642150878906 122.0003967285156 C 458.6642150878906 121.4486083984375 458.2156982421875 120.9996948242188 457.6643981933594 120.9996948242188 L 233.664306640625 120.9996948242188 C 233.1130218505859 120.9996948242188 232.6645202636719 121.4486083984375 232.6645202636719 122.0003967285156 L 232.6645202636719 144.9998931884766 C 232.6645202636719 145.5511932373047 233.1130218505859 145.9997253417969 233.664306640625 145.9997253417969 L 393.6643981933594 145.9997253417969 L 394.282470703125 145.9997253417969 L 394.558837890625 146.5525512695313 L 398.1640930175781 153.7637481689453 C 398.1641845703125 153.763916015625 398.1642761230469 153.7640686035156 398.1643371582031 153.7642211914063 C 398.1643981933594 153.7642211914063 398.1644592285156 153.7642211914063 398.1645202636719 153.7642211914063 M 398.1645202636719 154.7642211914063 C 397.8094482421875 154.7642211914063 397.4544067382813 154.5799560546875 397.2698974609375 154.2113952636719 L 393.6643981933594 146.9997253417969 L 233.664306640625 146.9997253417969 C 232.5600128173828 146.9997253417969 231.6645202636719 146.1041870117188 231.6645202636719 144.9998931884766 L 231.6645202636719 122.0003967285156 C 231.6645202636719 120.8951950073242 232.5600128173828 119.9996948242188 233.664306640625 119.9996948242188 L 457.6643981933594 119.9996948242188 C 458.7687072753906 119.9996948242188 459.6642150878906 120.8951950073242 459.6642150878906 122.0003967285156 L 459.6642150878906 144.9998931884766 C 459.6642150878906 146.1041870117188 458.7687072753906 146.9997253417969 457.6643981933594 146.9997253417969 L 402.6646423339844 146.9997253417969 L 399.0591125488281 154.2113952636719 C 398.8746032714844 154.5799560546875 398.5195617675781 154.7642211914063 398.1645202636719 154.7642211914063 Z" stroke="none" fill="#4891f2"/>
        </g>
      </g>
    </g>
    <g id="Group_2136" data-name="Group 2136" transform="translate(0 4)">
      <g id="Group_1781" data-name="Group 1781" transform="translate(83.352 284.143)">
        <path id="內文p-7" data-name="內文p" d="M9.926-3.346v2.24H3.99v-2.24ZM2.282,1.2H3.99V.49H9.926v.7h1.792V-4.942H2.282ZM8.148-9.7C8.666-9.184,9.226-8.6,9.772-7.98L4.032-7.8a23.013,23.013,0,0,0,3.052-3.57L5.4-12.082A18.681,18.681,0,0,1,2.436-8.274a2.884,2.884,0,0,1-1.162.812,12.746,12.746,0,0,1,.546,1.6c.742-.252,1.736-.28,9.17-.644a12.247,12.247,0,0,1,.728,1.064l1.414-1.022a25.446,25.446,0,0,0-3.682-4.1Zm19.32,2.408a8.631,8.631,0,0,0-.63-1.5l-.686.252c.056.112.112.238.168.364l-.784.084A12.724,12.724,0,0,0,27.02-10.15l-.854-.378c-.1.21-.21.42-.322.63L25.2-9.87a9.35,9.35,0,0,0,.882-1.526l-.9-.336a6.246,6.246,0,0,1-.854,1.792c-.154.21-.28.35-.448.378a4.5,4.5,0,0,1,.308.672A5.329,5.329,0,0,1,25.3-9.058a8.784,8.784,0,0,1-.7.868,1.171,1.171,0,0,1-.658.49,2.986,2.986,0,0,1,.322.686,9.492,9.492,0,0,1,2.366-.434c.056.168.112.322.14.448ZM26.152-4.956a7.653,7.653,0,0,0-.308-1.694l-.714.2a8.681,8.681,0,0,1,.28,1.75ZM24.22-6.72a4.546,4.546,0,0,1-.462,1.582,4.153,4.153,0,0,1,.672.49A5.952,5.952,0,0,0,25-6.51Zm-.252-3.752H22.554l.56-.14a9,9,0,0,0-.5-1.078l-1.092.224a6.816,6.816,0,0,1,.42.994H20.622V-9.6h3.346Zm-.28,2.31h-2.66v.756h2.66ZM21.98-6.286h.7v.616h-.7Zm-.966,1.344h2.674V-7.028H21.014Zm2.674-4.3h-2.66v.756h2.66ZM20.86-7.322a9.488,9.488,0,0,0-.616-1.47l-.7.252c.056.112.126.238.182.364l-.8.084a11.929,11.929,0,0,0,1.5-2.044l-.854-.406a6.881,6.881,0,0,1-.336.63l-.63.028a7.237,7.237,0,0,0,.868-1.526l-.9-.322a6.971,6.971,0,0,1-.84,1.792.734.734,0,0,1-.462.378,3.665,3.665,0,0,1,.336.658A3.716,3.716,0,0,1,18.7-9.086a7.149,7.149,0,0,1-.7.9c-.252.266-.434.448-.658.476a4.814,4.814,0,0,1,.322.686,11.45,11.45,0,0,1,2.352-.434,4.459,4.459,0,0,1,.126.434Zm-.14,1.848a6.236,6.236,0,0,0-.42-1.442l-.644.252a6.028,6.028,0,0,1,.378,1.5Zm-1.148.392a6.252,6.252,0,0,0-.294-1.568l-.714.182a7.514,7.514,0,0,1,.266,1.624ZM17.64-10.276a10.138,10.138,0,0,0-2.03-1.414l-.952,1.12a9.368,9.368,0,0,1,1.96,1.54Zm-.28,3.57a9.348,9.348,0,0,0-2.086-1.316l-.91,1.162A9.959,9.959,0,0,1,16.38-5.432ZM16.17,1.05c.546-1.358,1.12-2.968,1.568-4.466l-1.316-.84A42.718,42.718,0,0,1,14.686.224Zm1.442-7.7a4.732,4.732,0,0,1-.462,1.582,4.705,4.705,0,0,1,.686.49,6.443,6.443,0,0,0,.574-1.876Zm2.38,4.858L20.1-2.24h6.2V-4.55H18.368v.924h6.4v.448H18.788a23.682,23.682,0,0,1-.63,2.394h7.084a1.411,1.411,0,0,1-.406.728,1,1,0,0,1-.6.112c-.336,0-1.274-.014-2.1-.1a2.815,2.815,0,0,1,.448,1.218c.868.028,1.708.042,2.17.028a2.2,2.2,0,0,0,1.3-.364A3.493,3.493,0,0,0,26.908-1.2a3.743,3.743,0,0,0,.084-.588Zm6.244-4.872A7.741,7.741,0,0,1,26.712-4.9l.7-.322a8.056,8.056,0,0,0-.5-1.694ZM30.3-4.256l1.61-2.576c.294-.56.574-1.134.826-1.68h.056c-.028.6-.084,1.54-.084,2.142v2.114Zm5.558,0H34.622v-6.1H32.158L28.294-4.088v1.4H32.7V0h1.918V-2.688h1.232ZM40.082.2c1.974,0,3.64-1.106,3.64-3.01A2.589,2.589,0,0,0,41.65-5.362v-.07A2.454,2.454,0,0,0,43.386-7.8c0-1.778-1.358-2.758-3.36-2.758a4.6,4.6,0,0,0-3.108,1.274l1.05,1.26a2.956,2.956,0,0,1,1.96-.924,1.238,1.238,0,0,1,1.386,1.3c0,.924-.616,1.582-2.52,1.582v1.484c2.254,0,2.856.63,2.856,1.652,0,.924-.714,1.442-1.764,1.442a3.291,3.291,0,0,1-2.31-1.064l-.966,1.3A4.4,4.4,0,0,0,40.082.2ZM47.46-3.99c1.484,0,2.534-1.218,2.534-3.3s-1.05-3.262-2.534-3.262-2.52,1.19-2.52,3.262S45.976-3.99,47.46-3.99Zm0-1.162c-.6,0-1.064-.616-1.064-2.142s.462-2.1,1.064-2.1,1.078.574,1.078,2.1S48.062-5.152,47.46-5.152ZM47.81.2h1.2l5.642-10.752H53.438Zm7.182,0c1.47,0,2.534-1.232,2.534-3.3s-1.064-3.276-2.534-3.276-2.52,1.19-2.52,3.276S53.522.2,54.992.2Zm0-1.176c-.6,0-1.078-.6-1.078-2.128s.476-2.114,1.078-2.114,1.078.588,1.078,2.114S55.594-.98,54.992-.98Z" transform="translate(210.648 13.857)" fill="#4891f2"/>
        <path id="內文p-8" data-name="內文p" d="M.773-5.578A6.224,6.224,0,0,1,2.3-10.043a5.206,5.206,0,0,1,3.953-1.613,5.484,5.484,0,0,1,2.859.758,4.949,4.949,0,0,1,1.941,2.113,6.864,6.864,0,0,1,.668,3.074,6.749,6.749,0,0,1-.7,3.117A4.8,4.8,0,0,1,9.031-.512,5.692,5.692,0,0,1,6.25.2,5.416,5.416,0,0,1,3.359-.586,5.027,5.027,0,0,1,1.43-2.719,6.464,6.464,0,0,1,.773-5.578Zm1.563.023A4.588,4.588,0,0,0,3.449-2.293,3.662,3.662,0,0,0,6.242-1.1,3.656,3.656,0,0,0,9.059-2.3a4.865,4.865,0,0,0,1.105-3.414A5.867,5.867,0,0,0,9.691-8.16,3.632,3.632,0,0,0,8.309-9.777a3.749,3.749,0,0,0-2.043-.574A3.875,3.875,0,0,0,3.5-9.246,4.937,4.937,0,0,0,2.336-5.555ZM13.711,0V-11.453h8.281V-10.1H15.227v3.508h6.336V-5.25H15.227v3.9h7.031V0ZM32.523-4.016l1.516.383A5.1,5.1,0,0,1,32.324-.785,4.725,4.725,0,0,1,29.3.2a5.44,5.44,0,0,1-3.012-.754A4.707,4.707,0,0,1,24.52-2.742a7.791,7.791,0,0,1-.605-3.07A6.749,6.749,0,0,1,24.6-8.934a4.684,4.684,0,0,1,1.945-2.023,5.684,5.684,0,0,1,2.777-.691,4.7,4.7,0,0,1,2.891.875,4.544,4.544,0,0,1,1.633,2.461l-1.492.352A3.54,3.54,0,0,0,31.2-9.781a3.081,3.081,0,0,0-1.906-.57,3.7,3.7,0,0,0-2.207.633,3.342,3.342,0,0,0-1.246,1.7,6.841,6.841,0,0,0-.359,2.2A6.989,6.989,0,0,0,25.9-3.27a3.172,3.172,0,0,0,1.324,1.629,3.714,3.714,0,0,0,1.945.539,3.26,3.26,0,0,0,2.156-.734A3.758,3.758,0,0,0,32.523-4.016ZM35.906,0V-11.453h3.945a9.57,9.57,0,0,1,2.039.164,3.879,3.879,0,0,1,1.68.82,4.66,4.66,0,0,1,1.355,1.957,7.682,7.682,0,0,1,.449,2.723,8,8,0,0,1-.3,2.313,5.61,5.61,0,0,1-.781,1.668A4.15,4.15,0,0,1,43.246-.77,4.251,4.251,0,0,1,41.879-.2a7.8,7.8,0,0,1-1.84.2Zm1.516-1.352h2.445a5.934,5.934,0,0,0,1.777-.211,2.543,2.543,0,0,0,1.027-.594,3.613,3.613,0,0,0,.84-1.449,7.085,7.085,0,0,0,.3-2.207,5.33,5.33,0,0,0-.59-2.762,2.969,2.969,0,0,0-1.434-1.293,5.926,5.926,0,0,0-1.961-.234H37.422Zm23.813-3.32q0,.125-.133.125l-2.094-.031H54.672V-.719L54.7.977a.11.11,0,0,1-.125.125h-.852A.11.11,0,0,1,53.6.977l.031-1.7V-4.578H49.422l-2.078.031a.11.11,0,0,1-.125-.125V-5.43a.11.11,0,0,1,.125-.125l2.078.031h4.211v-5.852H50.32l-2.211.031a.11.11,0,0,1-.125-.125v-.742a.11.11,0,0,1,.125-.125l2.211.031h7.922l2.188-.031q.133,0,.133.125v.742q0,.125-.133.125l-2.187-.031h-3.57v5.852h4.336L61.1-5.555q.133,0,.133.125Zm-1.7-5.375q0,.07-.141.188a1.239,1.239,0,0,0-.289.438,19.213,19.213,0,0,1-1.75,2.906q-.156.211-.219.211A.9.9,0,0,1,56.9-6.43,2.088,2.088,0,0,0,56.32-6.7,14.129,14.129,0,0,0,58.211-9.82a3.453,3.453,0,0,0,.242-.8,6.8,6.8,0,0,1,.945.4Q59.539-10.148,59.539-10.047ZM51.75-6.9a.331.331,0,0,1,.016.078q0,.063-.148.117l-.539.227a.755.755,0,0,1-.2.063q-.047,0-.086-.117A16.119,16.119,0,0,0,49.055-10a.136.136,0,0,1-.039-.078q0-.055.188-.148l.445-.234a.33.33,0,0,1,.133-.055q.039,0,.094.086A15.808,15.808,0,0,1,51.75-6.9Zm25.086-3.391Q76.8-9.883,76.8-9.07A53.056,53.056,0,0,1,76.3-1.422,3.859,3.859,0,0,1,75.586.438a1.654,1.654,0,0,1-1.3.555q-.508,0-1.5-.094A.542.542,0,0,1,72.5.813a.775.775,0,0,1-.078-.281,2.588,2.588,0,0,0-.258-.742,11.714,11.714,0,0,0,2.094.227.859.859,0,0,0,.773-.578,4.741,4.741,0,0,0,.336-1.211A49.358,49.358,0,0,0,75.813-9.5H70.148a13.512,13.512,0,0,1-1.586,2.43q-.133.164-.211.164-.062,0-.219-.18a1.635,1.635,0,0,0-.5-.414,12.661,12.661,0,0,0,2.547-4.352,6.653,6.653,0,0,0,.32-1.43,7.872,7.872,0,0,1,.961.273q.219.078.219.2a.454.454,0,0,1-.156.273,2.617,2.617,0,0,0-.383.8q-.352.906-.562,1.344h4.211l1.9-.031Q76.836-10.43,76.836-10.289ZM68.219-4.3a2.9,2.9,0,0,0-.039.461,1.505,1.505,0,0,0,.008.164q.008.148.008.156a.276.276,0,0,1-.043.176.856.856,0,0,1-.238.145,29.63,29.63,0,0,1-3.523,1.6,3.493,3.493,0,0,0-.562.258.35.35,0,0,1-.234.125q-.109,0-.18-.156a5.634,5.634,0,0,1-.352-.914,7.457,7.457,0,0,0,1.555-.383l.625-.227v-5.07H64.8l-1.453.031q-.133,0-.133-.125v-.672q0-.148.133-.148l1.453.031h.438v-1.9a15.468,15.468,0,0,0-.117-2.211q.539.023,1.039.094.18.031.18.148a1.963,1.963,0,0,1-.062.273,8.29,8.29,0,0,0-.1,1.664v1.93h.2l1.438-.031q.133,0,.133.148v.672q0,.125-.133.125l-1.437-.031h-.2v4.688A18.172,18.172,0,0,0,68.219-4.3Zm6.2-.4a2.984,2.984,0,0,0-.023.4q0,.125.008.273v.055q.008.07.008.094a.267.267,0,0,1-.062.2,1.147,1.147,0,0,1-.219.133,23.89,23.89,0,0,1-3.875,1.828,1.641,1.641,0,0,0-.555.289.376.376,0,0,1-.242.125q-.109,0-.18-.156a4.333,4.333,0,0,1-.352-.93,6.669,6.669,0,0,0,1.555-.414A29.911,29.911,0,0,0,74.422-4.7Zm-.437-1.7a.11.11,0,0,1-.125.125L72.5-6.3H71.234l-1.344.031a.11.11,0,0,1-.125-.125v-.687q0-.133.125-.133l1.344.031H72.5l1.359-.031q.125,0,.125.133Zm5-3.555V-11.3H86.4v1.094A15.624,15.624,0,0,0,84.23-7.117a18.842,18.842,0,0,0-1.66,3.969A14.751,14.751,0,0,0,82.031,0H80.586a14.035,14.035,0,0,1,.531-3.266,17.147,17.147,0,0,1,1.457-3.691,15.824,15.824,0,0,1,2.02-3ZM93.086,0H91.68V-8.961a7.268,7.268,0,0,1-1.332.969,9.442,9.442,0,0,1-1.48.727V-8.625A8.493,8.493,0,0,0,90.93-9.969,5.286,5.286,0,0,0,92.18-11.5h.906Zm3.867-8.7a3.481,3.481,0,0,1,.617-2.086,2.066,2.066,0,0,1,1.789-.859,2.32,2.32,0,0,1,1.785.77,3.234,3.234,0,0,1,.707,2.262,3.209,3.209,0,0,1-.715,2.238,2.289,2.289,0,0,1-1.762.785,2.224,2.224,0,0,1-1.73-.773A3.415,3.415,0,0,1,96.953-8.7ZM99.4-10.68a1.058,1.058,0,0,0-.871.453,2.871,2.871,0,0,0-.348,1.664,2.58,2.58,0,0,0,.352,1.551,1.064,1.064,0,0,0,.867.449,1.065,1.065,0,0,0,.879-.453,2.853,2.853,0,0,0,.348-1.656,2.6,2.6,0,0,0-.352-1.559A1.071,1.071,0,0,0,99.4-10.68Zm.008,11.1,6.266-12.07h1.141L100.57.422Zm4.953-3.109a3.477,3.477,0,0,1,.617-2.09,2.077,2.077,0,0,1,1.8-.855,2.32,2.32,0,0,1,1.785.77,3.234,3.234,0,0,1,.707,2.262,3.209,3.209,0,0,1-.715,2.238,2.3,2.3,0,0,1-1.77.785,2.22,2.22,0,0,1-1.73-.777A3.418,3.418,0,0,1,104.359-2.687Zm2.453-1.977a1.065,1.065,0,0,0-.879.453,2.871,2.871,0,0,0-.348,1.664A2.582,2.582,0,0,0,105.938-1a1.061,1.061,0,0,0,.867.453A1.072,1.072,0,0,0,107.691-1a2.853,2.853,0,0,0,.348-1.656,2.6,2.6,0,0,0-.352-1.559A1.071,1.071,0,0,0,106.813-4.664Z" transform="translate(91.648 68.857)" fill="#c0c3c9"/>
        <g id="Group_1779" data-name="Group 1779" transform="translate(68.211 -1)">
          <text id="內文p-9" data-name="內文p" transform="translate(-64.563 -1.143)" fill="#4891f2" font-size="14" font-family="SourceHanSansTW-Bold, Source Han Sans TW" font-weight="700"><tspan x="0" y="16">生活中有「自豪」(pround)感受 </tspan></text>
        </g>
        <rect id="Rectangle_2250" data-name="Rectangle 2250" width="207.599" height="15.739" rx="2" transform="translate(0 31.325)" fill="#4d505a"/>
        <path id="Rectangle_2248" data-name="Rectangle 2248" d="M2,0H89.241a0,0,0,0,1,0,0V15.739a0,0,0,0,1,0,0H2a2,2,0,0,1-2-2V2A2,2,0,0,1,2,0Z" transform="translate(0 31.168)" fill="#4891f2"/>
        <line id="Line_358" data-name="Line 358" y2="16" transform="translate(147.495 31.357)" fill="none" stroke="#aaa" stroke-width="1" stroke-dasharray="1"/>
      </g>
      <g id="Group_2133" data-name="Group 2133" transform="translate(4464.335 12622)">
        <g id="Union_2-2" data-name="Union 2" transform="translate(-4613 -12463)" fill="none">
          <path d="M320.613,154.2l-3.572-7.2H233.664a2,2,0,0,1-2-2V122a2,2,0,0,1,2-2h270a2,2,0,0,1,2,2v23a2,2,0,0,1-2,2H325.976l-3.572,7.2a1,1,0,0,1-1.791,0Z" stroke="none"/>
          <path d="M 321.5088195800781 153.7501373291016 L 325.0804443359375 146.5550689697266 L 325.3561401367188 145.9997100830078 L 325.9761657714844 145.9997100830078 L 503.664306640625 145.9997100830078 C 504.2156066894531 145.9997100830078 504.6641235351563 145.5511779785156 504.6641235351563 144.9998931884766 L 504.6641235351563 122.0003890991211 C 504.6641235351563 121.4486083984375 504.2156066894531 120.9997100830078 503.664306640625 120.9997100830078 L 233.664306640625 120.9997100830078 C 233.1130218505859 120.9997100830078 232.6645202636719 121.4486083984375 232.6645202636719 122.0003890991211 L 232.6645202636719 144.9998931884766 C 232.6645202636719 145.5511779785156 233.1130218505859 145.9997100830078 233.664306640625 145.9997100830078 L 317.0414733886719 145.9997100830078 L 317.6615295410156 145.9997100830078 L 317.9371948242188 146.5550689697266 L 321.5088195800781 153.7501373291016 M 321.5088195800781 154.7507476806641 C 321.1528930664063 154.7507476806641 320.7969055175781 154.5655364990234 320.6133117675781 154.1952209472656 L 317.0414733886719 146.9997100830078 L 233.664306640625 146.9997100830078 C 232.5600280761719 146.9997100830078 231.6645202636719 146.1042175292969 231.6645202636719 144.9998931884766 L 231.6645202636719 122.0003890991211 C 231.6645202636719 120.8952102661133 232.5600280761719 119.9997100830078 233.664306640625 119.9997100830078 L 503.664306640625 119.9997100830078 C 504.76953125 119.9997100830078 505.6641235351563 120.8952102661133 505.6641235351563 122.0003890991211 L 505.6641235351563 144.9998931884766 C 505.6641235351563 146.1042175292969 504.76953125 146.9997100830078 503.664306640625 146.9997100830078 L 325.9761657714844 146.9997100830078 L 322.404296875 154.1952209472656 C 322.220703125 154.5655364990234 321.86474609375 154.7507476806641 321.5088195800781 154.7507476806641 Z" stroke="none" fill="#4891f2"/>
        </g>
      </g>
    </g>
  </g>
</svg>
