<svg xmlns="http://www.w3.org/2000/svg" width="354.237" height="286.09" viewBox="0 0 354.237 286.09">
  <g id="data7_pc" transform="translate(-218.896 -257.568)">
    <path id="Path_1804" data-name="Path 1804" d="M5.194.182c2.576,0,4.382-2.058,4.382-5.348S7.77-10.458,5.194-10.458.812-8.456.812-5.166,2.618.182,5.194.182Zm0-1.134C3.346-.952,2.142-2.6,2.142-5.166s1.2-4.158,3.052-4.158S8.246-7.742,8.246-5.166,7.028-.952,5.194-.952ZM11.788,0h6.076V-1.106H13.09V-4.844h3.892V-5.95H13.09V-9.17h4.62v-1.106H11.788ZM23.9.182a3.967,3.967,0,0,0,3.15-1.47L26.334-2.1a3.119,3.119,0,0,1-2.38,1.148c-1.96,0-3.192-1.624-3.192-4.214,0-2.562,1.288-4.158,3.234-4.158a2.8,2.8,0,0,1,2.1.98l.7-.84a3.8,3.8,0,0,0-2.814-1.274c-2.6,0-4.55,2.016-4.55,5.334S21.35.182,23.9.182ZM28.952,0h2.632c3.094,0,4.788-1.918,4.788-5.166s-1.694-5.11-4.844-5.11H28.952Zm1.3-1.064V-9.212h1.162c2.422,0,3.612,1.442,3.612,4.046s-1.19,4.1-3.612,4.1Zm20.16-3.794h-5.74V-9.744H49.63v-1.022H38.682v1.022H43.61v4.886H37.954v1.022H43.61v4.9h1.064v-4.9h5.74ZM39.662-8.778a16.384,16.384,0,0,1,1.26,3.206l.98-.336a13.411,13.411,0,0,0-1.33-3.15Zm7.42,3.248A27.487,27.487,0,0,0,48.8-8.82l-1.092-.308a20.892,20.892,0,0,1-1.512,3.3ZM57.19-2.31h4.732v-.938H57.19Zm.322-4.116v.952h4.172v-.952Zm1.246-2.968a19.886,19.886,0,0,0,.784-2.044l-1.05-.266a14.75,14.75,0,0,1-2.128,4.4v-.9H54.74V-11.41H53.732V-8.2H51.926v.994h1.806v4.774c-.77.35-1.484.672-2.044.9L52.08-.49c1.3-.63,3.038-1.484,4.662-2.282l-.28-.952c-.574.266-1.162.546-1.722.812v-4.3h1.568a8.785,8.785,0,0,1-.658.756c.266.154.742.448.952.6A14.019,14.019,0,0,0,58.3-8.414h4.97c-.182,5.642-.392,7.8-.854,8.274a.694.694,0,0,1-.6.224,20.5,20.5,0,0,1-2.114-.1,2.618,2.618,0,0,1,.336,1.064,16.169,16.169,0,0,0,2.17.014A1.406,1.406,0,0,0,63.35.49c.56-.7.742-2.912.966-9.338,0-.14.014-.546.014-.546Zm10.556-1.848a9.75,9.75,0,0,1-3.6,5.18,5.776,5.776,0,0,1,.868.77,12.207,12.207,0,0,0,3.808-5.684Zm-1.5,4.788v1.008h2.856c-.336,2.366-1.106,4.578-4.4,5.684a3.193,3.193,0,0,1,.672.91c3.556-1.3,4.466-3.822,4.83-6.594H75.39c-.168,3.528-.364,4.928-.728,5.278-.14.154-.294.182-.588.182-.336,0-1.19-.014-2.1-.1A2.313,2.313,0,0,1,72.31.966a20.073,20.073,0,0,0,2.2.028A1.423,1.423,0,0,0,75.6.49c.476-.532.672-2.142.868-6.44.014-.14.028-.5.028-.5ZM71.5-11.466v.98h2.478A10.875,10.875,0,0,0,77.952-5.32a6.256,6.256,0,0,1,.742-.938,9.35,9.35,0,0,1-3.976-5.208ZM86.212.084c-.448-.238-1.05-.532-1.694-.812a3.027,3.027,0,0,0,1.05-1.736h1.484V-3.22h-1.4v-.56H84.8v.56H83.034c.154-.308.308-.6.448-.9h3.164v-1.3c.21.182.5.434.63.574a10.044,10.044,0,0,0,.77-1.554,19.894,19.894,0,0,0,1.036,3.7,6.943,6.943,0,0,1-2.9,2.814ZM84.686-2.464a2.689,2.689,0,0,1-1.05,1.386c-.518-.21-1.05-.392-1.554-.546.168-.266.336-.546.518-.84ZM81.354-5.712H83.09v.924H81.354Zm4.368,0v.924H83.916v-.924Zm4.844-2.31a16.438,16.438,0,0,1-.966,4.27,19.112,19.112,0,0,1-1.022-4.1l.07-.168Zm-8.96.308v-.9H83.09v.9ZM83.09-10.08v.77H81.606v-.77Zm2.422,0v.77h-1.6v-.77Zm-1.6,2.366v-.9h1.6v.9Zm8.638-.308V-8.96H88.928c.224-.84.434-1.722.6-2.576l-.91-.182a18.543,18.543,0,0,1-1.974,6.09V-6.37h-2.73v-.616h2.45V-8.568h.8v-.784h-.8v-1.456h-2.45v-.91H83.09v.91h-2.3v1.456h-.966v.784h.966v1.582h2.3v.616H80.458v2.254H82.53c-.14.294-.28.588-.448.9h-2.24v.756h1.806c-.294.448-.588.9-.854,1.232a19.41,19.41,0,0,1,1.988.658A13.044,13.044,0,0,1,79.73.364a2.375,2.375,0,0,1,.448.7,12.464,12.464,0,0,0,3.57-1.232A14.417,14.417,0,0,1,85.54.7l.336-.308a4.439,4.439,0,0,1,.476.7,8.283,8.283,0,0,0,3.192-2.828,7.091,7.091,0,0,0,2.45,2.744,3.759,3.759,0,0,1,.672-.8,6.415,6.415,0,0,1-2.59-2.87A16.323,16.323,0,0,0,91.49-8.022ZM95.942,0h1.33c.154-4.018.6-6.412,3.01-9.492v-.784H93.856V-9.17h4.97C96.824-6.37,96.11-3.892,95.942,0Zm6.944.182a.925.925,0,0,0,.924-.966.941.941,0,0,0-.924-.994.941.941,0,0,0-.924.994A.925.925,0,0,0,102.886.182Zm5.838,0c1.946,0,3.192-1.778,3.192-5.348s-1.246-5.292-3.192-5.292-3.206,1.722-3.206,5.292S106.764.182,108.724.182Zm0-1.022c-1.176,0-1.96-1.3-1.96-4.326,0-3,.784-4.27,1.96-4.27s1.946,1.274,1.946,4.27C110.67-2.142,109.886-.84,108.724-.84Zm5.488-3.01,2.338-3.5c.294-.5.574-1.008.826-1.512h.056c-.028.532-.07,1.358-.07,1.862v3.15ZM117.362,0h1.2V-2.828h1.358V-3.85h-1.358v-6.426h-1.414l-4.27,6.608v.84h4.48Z" transform="translate(453 269.286)" fill="#df5a5a"/>
    <g id="Group_1876" data-name="Group 1876" transform="translate(2883 10730)">
      <g id="data_7-06" transform="translate(-2718.799 -10552.1)">
        <g id="Group_1868" data-name="Group 1868" transform="translate(0 -31)">
          <g id="Group_1865" data-name="Group 1865">
            <path id="Path_1821" data-name="Path 1821" d="M.623-5.3a9.825,9.825,0,0,1,.392-3.065,3.813,3.813,0,0,1,1.165-1.791,2.977,2.977,0,0,1,1.945-.63,3.173,3.173,0,0,1,1.516.348,2.9,2.9,0,0,1,1.077,1,5.383,5.383,0,0,1,.667,1.6A10.608,10.608,0,0,1,7.625-5.3a9.853,9.853,0,0,1-.388,3.051A3.814,3.814,0,0,1,6.075-.45,2.977,2.977,0,0,1,4.124.183,2.946,2.946,0,0,1,1.685-.93,7.076,7.076,0,0,1,.623-5.3Zm1.355,0A6.733,6.733,0,0,0,2.6-1.776,1.824,1.824,0,0,0,4.124-.9,1.822,1.822,0,0,0,5.651-1.78,6.735,6.735,0,0,0,6.27-5.3a6.73,6.73,0,0,0-.619-3.523A1.837,1.837,0,0,0,4.109-9.69a1.689,1.689,0,0,0-1.45.769A6.81,6.81,0,0,0,1.978-5.3Z" transform="translate(97.191 396.575)" fill="#6f727a"/>
            <path id="Path_1820" data-name="Path 1820" d="M7.551-1.267V0H.454A2.332,2.332,0,0,1,.608-.916a4.843,4.843,0,0,1,.868-1.428A13.6,13.6,0,0,1,3.2-3.97,14.622,14.622,0,0,0,5.566-6.244,2.723,2.723,0,0,0,6.182-7.83a1.762,1.762,0,0,0-.56-1.322A2.021,2.021,0,0,0,4.16-9.69a2.059,2.059,0,0,0-1.523.571,2.162,2.162,0,0,0-.579,1.582L.7-7.676A3.335,3.335,0,0,1,1.75-9.987a3.573,3.573,0,0,1,2.439-.795,3.4,3.4,0,0,1,2.446.857,2.813,2.813,0,0,1,.9,2.124,3.221,3.221,0,0,1-.264,1.267A4.917,4.917,0,0,1,6.4-5.222a21.322,21.322,0,0,1-2.032,1.89q-1.187,1-1.523,1.351a4.335,4.335,0,0,0-.557.714Z" transform="translate(157.052 396.575)" fill="#6f727a"/>
            <path id="Path_1819" data-name="Path 1819" d="M4.849,0V-2.571H.19V-3.779l4.9-6.958H6.167v6.958h1.45v1.208H6.167V0Zm0-3.779V-8.621L1.487-3.779Z" transform="translate(216.905 396.575)" fill="#6f727a"/>
            <path id="Path_1818" data-name="Path 1818" d="M7.463-8.108l-1.311.1a2.483,2.483,0,0,0-.5-1.128A1.745,1.745,0,0,0,4.336-9.7a1.812,1.812,0,0,0-1.106.352A3,3,0,0,0,2.249-8.02a6.928,6.928,0,0,0-.374,2.483A3.055,3.055,0,0,1,3.04-6.614a3.132,3.132,0,0,1,1.443-.352,2.989,2.989,0,0,1,2.245.97,3.483,3.483,0,0,1,.927,2.509,4.128,4.128,0,0,1-.436,1.879,3.175,3.175,0,0,1-1.2,1.329A3.27,3.27,0,0,1,4.292.183,3.378,3.378,0,0,1,1.6-1.029a6.12,6.12,0,0,1-1.04-4,7.162,7.162,0,0,1,1.15-4.526,3.306,3.306,0,0,1,2.7-1.23,3.032,3.032,0,0,1,2.076.71A3.016,3.016,0,0,1,7.463-8.108ZM2.08-3.479a3.058,3.058,0,0,0,.289,1.3,2.156,2.156,0,0,0,.809.948A2.024,2.024,0,0,0,4.27-.9a1.86,1.86,0,0,0,1.436-.674,2.652,2.652,0,0,0,.6-1.831A2.482,2.482,0,0,0,5.713-5.16,1.949,1.949,0,0,0,4.219-5.8,2.034,2.034,0,0,0,2.7-5.16,2.31,2.31,0,0,0,2.08-3.479Z" transform="translate(276.779 396.575)" fill="#6f727a"/>
            <path id="Path_1817" data-name="Path 1817" d="M2.651-5.823A2.482,2.482,0,0,1,1.436-6.68a2.241,2.241,0,0,1-.4-1.333,2.607,2.607,0,0,1,.842-1.97,3.124,3.124,0,0,1,2.241-.8,3.144,3.144,0,0,1,2.263.817,2.643,2.643,0,0,1,.857,1.989,2.19,2.19,0,0,1-.392,1.3,2.471,2.471,0,0,1-1.19.853,2.887,2.887,0,0,1,1.505,1.04,2.857,2.857,0,0,1,.516,1.714A3.085,3.085,0,0,1,6.709-.754,3.542,3.542,0,0,1,4.146.183,3.534,3.534,0,0,1,1.582-.758,3.13,3.13,0,0,1,.608-3.105,2.837,2.837,0,0,1,1.139-4.86,2.659,2.659,0,0,1,2.651-5.823ZM2.388-8.057a1.672,1.672,0,0,0,.491,1.245,1.738,1.738,0,0,0,1.274.483A1.7,1.7,0,0,0,5.4-6.808a1.586,1.586,0,0,0,.487-1.176,1.645,1.645,0,0,0-.5-1.219A1.708,1.708,0,0,0,4.138-9.7a1.726,1.726,0,0,0-1.252.483A1.556,1.556,0,0,0,2.388-8.057ZM1.963-3.1A2.385,2.385,0,0,0,2.23-2.007a1.887,1.887,0,0,0,.795.817A2.323,2.323,0,0,0,4.16-.9a2.127,2.127,0,0,0,1.56-.608,2.08,2.08,0,0,0,.615-1.545A2.115,2.115,0,0,0,5.7-4.629a2.171,2.171,0,0,0-1.586-.623,2.084,2.084,0,0,0-1.542.615A2.093,2.093,0,0,0,1.963-3.1Z" transform="translate(336.633 396.575)" fill="#6f727a"/>
            <path id="Path_1816" data-name="Path 1816" d="M5.588,0H4.27V-8.4a6.814,6.814,0,0,1-1.249.908,8.852,8.852,0,0,1-1.388.681V-8.086a7.962,7.962,0,0,0,1.934-1.26,4.955,4.955,0,0,0,1.172-1.436h.85ZM8.965-5.3a9.825,9.825,0,0,1,.392-3.065,3.813,3.813,0,0,1,1.165-1.791,2.977,2.977,0,0,1,1.945-.63,3.173,3.173,0,0,1,1.516.348,2.9,2.9,0,0,1,1.077,1,5.383,5.383,0,0,1,.667,1.6A10.608,10.608,0,0,1,15.967-5.3a9.853,9.853,0,0,1-.388,3.051A3.814,3.814,0,0,1,14.418-.45a2.977,2.977,0,0,1-1.952.634A2.946,2.946,0,0,1,10.027-.93,7.076,7.076,0,0,1,8.965-5.3Zm1.355,0a6.733,6.733,0,0,0,.619,3.519A1.824,1.824,0,0,0,12.466-.9a1.822,1.822,0,0,0,1.527-.879A6.735,6.735,0,0,0,14.612-5.3a6.73,6.73,0,0,0-.619-3.523,1.837,1.837,0,0,0-1.542-.872A1.689,1.689,0,0,0,11-8.921,6.81,6.81,0,0,0,10.32-5.3Z" transform="translate(392.965 396.575)" fill="#6f727a"/>
          </g>
          <line id="Line_459" data-name="Line 459" x2="299.3" transform="translate(100.7 381.4)" fill="none" stroke="#55585f" stroke-miterlimit="10" stroke-width="1"/>
        </g>
        <g id="Group_1871" data-name="Group 1871" transform="translate(0 28.5)">
          <line id="Line_466" data-name="Line 466" y1="239.8" transform="translate(100.7 82.1)" fill="none" stroke="#55585f" stroke-miterlimit="10" stroke-width="1"/>
        </g>
        <g id="Group_1874" data-name="Group 1874" transform="translate(0.61)">
          <g id="Group_1873" data-name="Group 1873" transform="translate(100.7 110.6)">
            <g id="Group_1872" data-name="Group 1872">
              <path id="Rectangle_2367" data-name="Rectangle 2367" d="M0,0H237.09a5,5,0,0,1,5,5V5a5,5,0,0,1-5,5H0a0,0,0,0,1,0,0V0A0,0,0,0,1,0,0Z" transform="translate(0 3.5)" fill="#efefef"/>
              <path id="Rectangle_2368" data-name="Rectangle 2368" d="M0,0H223.09a5,5,0,0,1,5,5V5a5,5,0,0,1-5,5H0a0,0,0,0,1,0,0V0A0,0,0,0,1,0,0Z" transform="translate(0 22.5)" fill="#efefef"/>
              <path id="Rectangle_2369" data-name="Rectangle 2369" d="M0,0H222.19a5,5,0,0,1,5,5V5a5,5,0,0,1-5,5H0a0,0,0,0,1,0,0V0A0,0,0,0,1,0,0Z" transform="translate(0 41.5)" fill="#efefef"/>
              <path id="Rectangle_2370" data-name="Rectangle 2370" d="M0,0H218.89a5,5,0,0,1,5,5V5a5,5,0,0,1-5,5H0a0,0,0,0,1,0,0V0A0,0,0,0,1,0,0Z" transform="translate(0 59.5)" fill="#efefef"/>
              <path id="Rectangle_2371" data-name="Rectangle 2371" d="M0,0H215.29a5,5,0,0,1,5,5V5a5,5,0,0,1-5,5H0a0,0,0,0,1,0,0V0A0,0,0,0,1,0,0Z" transform="translate(0 78.499)" fill="#efefef"/>
              <path id="Rectangle_2373" data-name="Rectangle 2373" d="M0,0H204.49a5,5,0,0,1,5,5V5a5,5,0,0,1-5,5H0a0,0,0,0,1,0,0V0A0,0,0,0,1,0,0Z" transform="translate(0 97.5)" fill="#efefef"/>
              <path id="Rectangle_2374" data-name="Rectangle 2374" d="M0,0H197a5,5,0,0,1,5,5V5a5,5,0,0,1-5,5H0a0,0,0,0,1,0,0V0A0,0,0,0,1,0,0Z" transform="translate(0 116.499)" fill="#efefef"/>
              <path id="Rectangle_2375" data-name="Rectangle 2375" d="M0,0H176.1a19,19,0,0,1,19,19v0a19,19,0,0,1-19,19H0a0,0,0,0,1,0,0V0A0,0,0,0,1,0,0Z" transform="translate(0 135.5)" fill="#4891f2"/>
              <path id="Rectangle_2376" data-name="Rectangle 2376" d="M0,0H190.1a5,5,0,0,1,5,5V5a5,5,0,0,1-5,5H0a0,0,0,0,1,0,0V0A0,0,0,0,1,0,0Z" transform="translate(0 181.499)" fill="#efefef"/>
              <path id="Rectangle_2377" data-name="Rectangle 2377" d="M0,0H182.7a5,5,0,0,1,5,5V5a5,5,0,0,1-5,5H0a0,0,0,0,1,0,0V0A0,0,0,0,1,0,0Z" transform="translate(0 200.5)" fill="#efefef"/>
              <path id="Rectangle_2378" data-name="Rectangle 2378" d="M0,0H180a5,5,0,0,1,5,5V5a5,5,0,0,1-5,5H0a0,0,0,0,1,0,0V0A0,0,0,0,1,0,0Z" transform="translate(0 219.5)" fill="#efefef"/>
            </g>
          </g>
        </g>
        <g id="Group_1875" data-name="Group 1875">
          <path id="Path_1815" data-name="Path 1815" d="M11.129.4a.1.1,0,0,1-.109.109h-.677A.1.1,0,0,1,10.233.4V-.451H3.753V.431q0,.109-.1.109h-.69A.1.1,0,0,1,2.857.431l.027-4.8v-2.7L2.857-10.6q0-.116.109-.116l1.948.027H9.071l1.948-.027q.109,0,.109.116L11.1-7.424v3.056Zm-.9-1.654V-5.3H3.753v4.054Zm0-4.84V-9.885H3.753v3.794ZM27.48-2.16a2.416,2.416,0,0,0-.4.533q-.13.212-.171.212a.774.774,0,0,1-.205-.1A14.72,14.72,0,0,1,21.253-7.4q0,2.044.027,4.847h1l1.75-.027q.116,0,.116.109v.6a.1.1,0,0,1-.116.116l-1.75-.027h-.991q.014.786.041,1.894.014.67.014.752a.1.1,0,0,1-.109.109h-.745a.1.1,0,0,1-.109-.109q0-.055.007-.437.027-1.21.034-2.208h-.854l-1.736.027q-.109,0-.109-.116v-.6a.1.1,0,0,1,.109-.109l1.736.027h.868q.041-2.037.041-4.7a14.687,14.687,0,0,1-5.106,5.8.678.678,0,0,1-.226.109q-.082,0-.171-.2a1.6,1.6,0,0,0-.417-.5,13.1,13.1,0,0,0,3.233-2.611,14.731,14.731,0,0,0,2.229-3.158H17.056l-1.866.027A.1.1,0,0,1,15.08-7.9v-.636a.1.1,0,0,1,.109-.109l1.866.027h3.37V-9.857a10.5,10.5,0,0,0-.1-1.7,8.585,8.585,0,0,1,.964.082q.171.027.171.116a.446.446,0,0,1-.034.157,1.491,1.491,0,0,0-.048.15,5.621,5.621,0,0,0-.075,1.176v1.258h3.657l1.873-.027a.1.1,0,0,1,.109.109V-7.9a.1.1,0,0,1-.109.109l-1.873-.027H21.7A14.236,14.236,0,0,0,27.48-2.16Z" transform="translate(67.799 341.166)" fill="#efefef"/>
          <path id="Path_1814" data-name="Path 1814" d="M10.685.827q0,.1-.109.1H9.939q-.109,0-.109-.1V.212H4.149V.868a.1.1,0,0,1-.116.116H3.4q-.1,0-.1-.116l.014-2.55V-2.926L3.309-4.607q0-.109.1-.109l1.88.027H8.709l1.859-.027q.116,0,.116.109l-.014,1.5v1.4ZM9.83-.485V-1.962H4.149V-.485Zm0-2.16V-3.992H4.149v1.347Zm3.5-2.44a1.72,1.72,0,0,0-.39.506q-.137.253-.212.253a.627.627,0,0,1-.191-.055A18.2,18.2,0,0,1,7.3-7.574q0,.759.041,1.661.027.663.027.69a.1.1,0,0,1-.109.109h-.69a.1.1,0,0,1-.109-.109q0-.021.034-.882.027-.766.034-1.442A15.86,15.86,0,0,1,1.477-4.361a.639.639,0,0,1-.185.055q-.082,0-.212-.246A1.483,1.483,0,0,0,.718-5,15.615,15.615,0,0,0,5.9-7.813H3.165l-1.9.027q-.116,0-.116-.109v-.547q0-.1.116-.1l1.9.027H6.5v-1.4q-1.928.191-3.459.28-.1.007-.137.007a.219.219,0,0,1-.171-.055,1.139,1.139,0,0,1-.1-.191,1.627,1.627,0,0,0-.308-.472q1.982-.068,4.4-.294a23.967,23.967,0,0,0,2.823-.437,4.578,4.578,0,0,0,.943-.294,3.866,3.866,0,0,1,.738.533.274.274,0,0,1,.1.2q0,.137-.28.137a5.357,5.357,0,0,0-.827.1q-1.265.246-2.9.424v1.47h3.486l1.9-.027q.116,0,.116.1V-7.9q0,.109-.116.109l-1.9-.027H7.9A18.265,18.265,0,0,0,10.527-6.2,21.226,21.226,0,0,0,13.33-5.086ZM27.6-3.808a1.192,1.192,0,0,0-.362.485q-.1.2-.178.2a.5.5,0,0,1-.212-.082,7.6,7.6,0,0,1-3.309-3.056H21.267a7.929,7.929,0,0,1-.937,1.5.3.3,0,0,1,.1-.014l1.285.027h1.306l1.347-.027q.109,0,.109.1l-.027.971v.745l.027.95a.1.1,0,0,1-.109.109l-1.347-.027H20.385V-1a1.414,1.414,0,0,0,.123.786,5.673,5.673,0,0,0,2.365.239,12.918,12.918,0,0,0,1.771-.082,1.189,1.189,0,0,0,.622-.239,1.081,1.081,0,0,0,.294-.533,7.283,7.283,0,0,0,.116-.882,2.914,2.914,0,0,0,.492.294q.253.116.253.219,0,.034-.014.144A2.172,2.172,0,0,1,25.819.335,1.862,1.862,0,0,1,24.808.7a16.461,16.461,0,0,1-2,.089A19.385,19.385,0,0,1,20.617.7a1.315,1.315,0,0,1-.7-.239,1.748,1.748,0,0,1-.335-1.278V-1.825l-.027-.725a.1.1,0,0,1,.109-.109l1.388.027h2.6V-4.047H21.711l-1.3.027a.1.1,0,0,1-.109-.109v-.6a10.362,10.362,0,0,1-2,1.832.775.775,0,0,1-.226.109q-.068,0-.185-.191a1.276,1.276,0,0,0-.376-.41,9.607,9.607,0,0,0,1.812-1.381,6.381,6.381,0,0,0,1.1-1.49h-.533L17.9-6.234q-.109,0-.109-.123v-.52Q17.794-7,17.9-7l1.989.027h.547V-8.709l-1.764.027q-.109,0-.109-.1v-.561a.1.1,0,0,1,.109-.109l1.764.027v-.588a8.2,8.2,0,0,0-.082-1.456q.451.021.841.068.164.027.164.116a.53.53,0,0,1-.068.219,3.43,3.43,0,0,0-.082,1.039v.6H23.5v-.588a6.985,6.985,0,0,0-.1-1.456q.465.021.854.068.171.027.171.116a.53.53,0,0,1-.068.219,3.177,3.177,0,0,0-.089,1.039v.6h.335l1.935-.027a.1.1,0,0,1,.109.109v.561q0,.1-.109.1l-1.935-.027h-.335v1.736H25.3L27.282-7q.1,0,.1.123v.52q0,.123-.1.123L25.3-6.262h-.916A7.075,7.075,0,0,0,27.6-3.808ZM23.5-6.973V-8.709h-2.29v1.736ZM17.391-3.179Q16.926-1.764,16.14.068A3.648,3.648,0,0,0,15.907.7q0,.171-.116.171a.552.552,0,0,1-.212-.082,6.537,6.537,0,0,1-.67-.451A5.712,5.712,0,0,0,15.538-.7a18.517,18.517,0,0,0,1.237-3.309,1.672,1.672,0,0,0,.485.41q.178.1.178.191A1.224,1.224,0,0,1,17.391-3.179ZM17.938-9.8a.187.187,0,0,1,.048.109.288.288,0,0,1-.1.157l-.308.383q-.1.109-.137.109T17.363-9.1a9.493,9.493,0,0,0-1.832-1.6q-.062-.034-.062-.068t.1-.137l.308-.321q.1-.1.144-.1a.173.173,0,0,1,.082.027A9.654,9.654,0,0,1,17.938-9.8Zm-.649,3.432q.055.055.055.082a.212.212,0,0,1-.068.116l-.335.39q-.123.15-.157.15a.131.131,0,0,1-.082-.048,9.43,9.43,0,0,0-1.887-1.531q-.068-.034-.068-.068t.082-.123l.294-.355q.068-.1.137-.1a.213.213,0,0,1,.089.027A11.111,11.111,0,0,1,17.288-6.371Z" transform="translate(67.799 321.225)" fill="#efefef"/>
          <path id="Path_1813" data-name="Path 1813" d="M6.132-9.256q0,.116-.123.116L4.368-9.174H4.006v1.265h.239l1.442-.027q.1,0,.1.109L5.77-6.549V-4.7l.014,1.285q0,.109-.1.109L4.245-3.336H4.006V-2h.28L5.94-2.03q.109,0,.109.1v.547a.1.1,0,0,1-.109.109L4.286-1.306h-.28v.643L4.033.95q0,.1-.109.1H3.315q-.109,0-.109-.1L3.233-.663v-.643H2.577L.9-1.278q-.1,0-.1-.109v-.547a.085.085,0,0,1,.1-.1L2.577-2h.656V-3.336H2.98l-1.429.027a.1.1,0,0,1-.109-.109L1.47-4.7V-6.549L1.442-7.827a.1.1,0,0,1,.109-.109l1.429.027h.253V-9.174H2.687L1.039-9.14a.1.1,0,0,1-.116-.116v-.533q0-.109.116-.109l1.647.027h.547v-.157a10.676,10.676,0,0,0-.1-1.565q.506.021.854.068.157.027.157.13a1.782,1.782,0,0,1-.055.226,3.356,3.356,0,0,0-.089.978v.321h.362L6.009-9.9q.123,0,.123.109ZM5.045-3.979V-5.346H2.215v1.367Zm0-2V-7.267H2.215v1.292ZM13.439-.841a.1.1,0,0,1-.109.109L11.471-.759h-.943v.185l.027,1.5a.1.1,0,0,1-.109.109H9.83A.1.1,0,0,1,9.721.923l.027-1.5V-.759H8.135L6.275-.731q-.116,0-.116-.109v-.506q0-.109.116-.109l.191.007q.205.014.451.021v-1l-.027-.8A.1.1,0,0,1,7-3.343l1.7.027H9.748v-1H8.723l-1.559.027q-.109,0-.109-.123l.034-.841v-.69l-.034-.841q0-.123.109-.123l1.559.027h1.866L12.127-6.9q.109,0,.109.123l-.027.841v.69l.027.841q0,.123-.109.123l-1.538-.027h-.062v1h.52l1.668-.027a.1.1,0,0,1,.109.109v.492a.1.1,0,0,1-.109.109l-1.668-.027h-.52v1.23h.943l1.859-.027a.1.1,0,0,1,.109.109Zm-2-4.088V-6.234h-3.6v1.306Zm-1.688,3.5v-1.23H7.677v1.23ZM13.3-7.841q0,.123-.1.123l-1.832-.027H8.21l-1.839.027q-.1,0-.1-.123v-.479q0-.109.1-.109L8.012-8.4q.246-.643.451-1.312l-1.442.027Q6.9-9.687,6.9-9.8v-.479q0-.109.116-.109l1.511.027h.109l.13-.465a3.254,3.254,0,0,0,.109-.813,5.789,5.789,0,0,1,.834.1q.171.021.171.123a.366.366,0,0,1-.1.2,1.077,1.077,0,0,0-.164.335l-.144.52h.909l1.545-.027a.1.1,0,0,1,.109.109l-.027.8V-8.4l1.189-.027q.1,0,.1.109ZM11.231-8.4V-9.714H9.283q-.239.779-.431,1.313ZM25.409-2.475a2.214,2.214,0,0,1-.479,1.046.85.85,0,0,1-.629.239q-.875,0-1.579-1.647a9.568,9.568,0,0,1-2.181,1.7,1.127,1.127,0,0,1-.2.1q-.082,0-.226-.185a1.712,1.712,0,0,0-.376-.362,7.878,7.878,0,0,0,2.7-1.989L22.4-3.705a18.714,18.714,0,0,1-.643-3.883H19.011L17.1-7.561q-.13,0-.13-.109v-.506q0-.109.13-.109l1.914.027h2.707a3.739,3.739,0,0,1-.014-.376A9.136,9.136,0,0,0,21.588-9.8a3.947,3.947,0,0,1,.759.068q.226.041.226.15a.526.526,0,0,1-.068.212.99.99,0,0,0-.048.39v.718h.629l1.935-.027a.1.1,0,0,1,.109.109v.506a.1.1,0,0,1-.109.109l-1.935-.027H22.5a20.932,20.932,0,0,0,.492,3.254,6.774,6.774,0,0,0,.6-1.224,4.7,4.7,0,0,0,.321-1.1,3.509,3.509,0,0,1,.684.294q.144.068.144.178,0,.055-.157.212a3.2,3.2,0,0,0-.321.643A11.32,11.32,0,0,1,23.242-3.5a5.161,5.161,0,0,0,.6,1.183q.273.383.458.383.431,0,.561-1.312a1.6,1.6,0,0,0,.41.369q.178.109.178.2A1.079,1.079,0,0,1,25.409-2.475ZM20.843-4.129a.1.1,0,0,1-.109.109l-1.046-.027h-.9l-1.066.027a.1.1,0,0,1-.109-.109l.027-.882V-5.7l-.027-.9a.1.1,0,0,1,.109-.109l1.066.027h.9l1.046-.027a.1.1,0,0,1,.109.109l-.027.9v.69Zm-.711-.479V-6.118h-1.8v1.511Zm1.148.971a2.7,2.7,0,0,0-.082.472.514.514,0,0,1-.068.267.607.607,0,0,1-.226.1q-1.374.41-2.939.725a2.23,2.23,0,0,0-.574.185.364.364,0,0,1-.171.082q-.082,0-.137-.144a6.341,6.341,0,0,1-.212-.752,6.244,6.244,0,0,0,1.244-.144A19.514,19.514,0,0,0,21.28-3.637Zm3.336-5.271a.148.148,0,0,1,.034.075q0,.027-.082.109l-.246.226a.4.4,0,0,1-.15.089q-.021,0-.075-.062a6.11,6.11,0,0,0-.909-.909q-.055-.041-.055-.062t.109-.109l.253-.191A.192.192,0,0,1,23.6-9.8a.157.157,0,0,1,.082.048A8.32,8.32,0,0,1,24.616-8.907ZM26.585.93q0,.109-.123.109h-.636A.1.1,0,0,1,25.717.93V.171H16.283V.93a.1.1,0,0,1-.109.109h-.649A.1.1,0,0,1,15.415.93l.027-5.243v-2.8l-.027-3.739a.1.1,0,0,1,.109-.109l1.948.027h7.055l1.935-.027q.123,0,.123.109l-.027,3.322v3.213Zm-.868-1.5v-9.6H16.283v9.6Z" transform="translate(67.799 301.282)" fill="#efefef"/>
          <path id="Path_1812" data-name="Path 1812" d="M11.047.738q0,.116-.123.116h-.677q-.1,0-.1-.116V.082h-6.3V.793q0,.116-.109.116H3.076q-.109,0-.109-.116l.027-2.5V-2.926L2.967-4.58a.1.1,0,0,1,.109-.109l1.935.027H9l1.921-.027q.123,0,.123.109L11.02-3.11v1.36ZM10.151-.7V-3.876h-6.3V-.7Zm2.543-5.571a.2.2,0,0,1,.041.089q0,.048-.137.15l-.4.267a.43.43,0,0,1-.178.089q-.041,0-.089-.068-.4-.567-.882-1.142-4.382.561-8.531.772A1.971,1.971,0,0,0,1.832-6a.483.483,0,0,1-.239.082q-.116,0-.164-.171-.109-.376-.212-.923.465.021.9.021.308,0,.54-.007l.991-.041a31.014,31.014,0,0,0,1.812-3.671,3.708,3.708,0,0,0,.246-.95,5.757,5.757,0,0,1,.9.239q.212.082.212.2a.306.306,0,0,1-.109.205,2.223,2.223,0,0,0-.369.615A37.166,37.166,0,0,1,4.621-7.082Q7.7-7.26,10.445-7.561A19.555,19.555,0,0,0,8.634-9.27q-.055-.048-.055-.082t.13-.144L9.017-9.7a.328.328,0,0,1,.157-.089.187.187,0,0,1,.109.048A21.187,21.187,0,0,1,12.694-6.275ZM26.79-1.6l-.1.69A3.558,3.558,0,0,1,26.332.349q-.321.52-1.415.52-.643,0-1.162-.027A.536.536,0,0,1,23.5.779.54.54,0,0,1,23.42.574a1.412,1.412,0,0,0-.2-.492,15.037,15.037,0,0,0,1.641.1q.649,0,.827-.362a2.741,2.741,0,0,0,.205-.9h-7.28l-.164.451q-.055.123-.137.123a.576.576,0,0,1-.1-.014L17.746-.6Q17.6-.629,17.6-.69a.483.483,0,0,1,.041-.137,12.947,12.947,0,0,0,.547-1.47,4.711,4.711,0,0,0,.144-.731.123.123,0,0,1,.137-.123l1.764.027h5V-3.91H20.118l-1.907.027q-.109,0-.109-.123v-.451a.1.1,0,0,1,.109-.109l1.907.027h3.821L25.9-4.566a.1.1,0,0,1,.109.109l-.027.731v.362l.027.772a.1.1,0,0,1-.109.109l-1.962-.027H19.065q-.164.581-.239.8h5.879l1.962-.027q.13,0,.13.1A.113.113,0,0,1,26.79-1.6Zm.52-6.207a.157.157,0,0,1,.021.062q0,.034-.116.089l-.212.1a.38.38,0,0,1-.13.048q-.041,0-.082-.089a3.427,3.427,0,0,1-.137-.335l-.8.116v1.579l.027.978q0,.116-.109.116h-.465q-.1,0-.1-.116l.027-.978v-1.5q-.52.055-.725.068a1.614,1.614,0,0,0-.492.1.3.3,0,0,1-.144.068q-.082,0-.123-.157a3.218,3.218,0,0,1-.109-.52q.2.014.349.014t.349-.014Q24.466-8.3,25-8.9a9.683,9.683,0,0,0-1.142-1.066q-.048-.034-.048-.062a.294.294,0,0,1,.068-.1l.2-.226q.062-.075.1-.075a.155.155,0,0,1,.089.048l.267.205a9.619,9.619,0,0,0,.574-.882,3.235,3.235,0,0,0,.205-.547,3.334,3.334,0,0,1,.547.239q.109.068.109.144t-.109.137a.867.867,0,0,0-.226.267,10.846,10.846,0,0,1-.725,1q.082.068.479.458a8.1,8.1,0,0,0,.526-.752,2.431,2.431,0,0,0,.267-.533,4.24,4.24,0,0,1,.492.294q.109.089.109.15t-.109.144a1.146,1.146,0,0,0-.335.335,13.885,13.885,0,0,1-1.306,1.511q.7-.062,1.4-.164l-.267-.437a.084.084,0,0,1-.021-.048q0-.041.089-.075l.212-.1a.33.33,0,0,1,.089-.027q.034,0,.082.055A6.843,6.843,0,0,1,27.31-7.807Zm-6.535.014a.157.157,0,0,1,.021.062q0,.034-.116.089l-.212.1a.423.423,0,0,1-.13.041q-.048,0-.082-.089-.034-.068-.082-.185t-.055-.15l-.759.116v1.565l.027.978q0,.116-.109.116h-.465q-.1,0-.1-.116l.027-.978v-1.5q-.492.055-.684.068a1.614,1.614,0,0,0-.492.1.3.3,0,0,1-.137.068q-.082,0-.13-.157a3.218,3.218,0,0,1-.109-.52q.376.021.458.021t.185-.007q.636-.7.684-.766a8.3,8.3,0,0,0-1.189-1.107q-.041-.041-.041-.062a.262.262,0,0,1,.068-.109l.2-.219q.062-.075.1-.075a.165.165,0,0,1,.089.041l.294.239a5.989,5.989,0,0,0,.561-.854,3.235,3.235,0,0,0,.205-.547,3.334,3.334,0,0,1,.547.239q.109.068.109.144t-.109.137a.867.867,0,0,0-.226.267q-.294.444-.711.964.335.308.492.479l.5-.725a2.431,2.431,0,0,0,.267-.533,4.24,4.24,0,0,1,.492.294q.109.089.109.15t-.109.144a1.209,1.209,0,0,0-.342.335,12.545,12.545,0,0,1-1.3,1.511q.4-.034,1.374-.15L19.626-8.8a.084.084,0,0,1-.021-.048q0-.034.089-.075l.212-.1A.33.33,0,0,1,20-9.058q.034,0,.075.055A6.589,6.589,0,0,1,20.774-7.793Zm2.618,2.447a.1.1,0,0,1-.109.109l-.827-.027h-.574l-.82.027a.1.1,0,0,1-.109-.109L20.986-6v-.349l-.034-.636q0-.123.109-.123l.82.027h.574l.827-.027q.109,0,.109.123l-.027.636V-6Zm-.561-.4V-6.6H21.513v.854ZM17.131-3.1A27.621,27.621,0,0,1,15.846-.075a2.379,2.379,0,0,0-.267.6Q15.559.7,15.442.7a.321.321,0,0,1-.2-.082,5.33,5.33,0,0,1-.6-.479,5.467,5.467,0,0,0,.684-1.046,19.6,19.6,0,0,0,1.23-3.021,2.03,2.03,0,0,0,.41.4q.219.164.219.246A.515.515,0,0,1,17.131-3.1Zm.144-6.761q.048.048.048.075a.4.4,0,0,1-.089.15l-.294.335q-.1.116-.144.116a.131.131,0,0,1-.082-.048,9.719,9.719,0,0,0-1.6-1.456q-.075-.055-.075-.089t.1-.13l.26-.308q.089-.109.137-.109a.148.148,0,0,1,.075.034A9.406,9.406,0,0,1,17.274-9.857Zm-.451,3.35a.149.149,0,0,1,.055.089.315.315,0,0,1-.082.144l-.294.383q-.082.089-.109.089a.131.131,0,0,1-.082-.048,8.81,8.81,0,0,0-1.682-1.36q-.075-.041-.075-.075a.261.261,0,0,1,.075-.13l.267-.355q.062-.082.1-.082a.233.233,0,0,1,.1.041A10.454,10.454,0,0,1,16.823-6.508Zm6.85-3.268a.1.1,0,0,1-.116.116l-.991-.027H21.7l-1.019.027a.1.1,0,0,1-.116-.116v-.376q0-.109.116-.109l1.019.027h.868l.991-.027q.116,0,.116.109Zm-.253-1.087a.1.1,0,0,1-.109.109L22.5-10.78h-.6l-.813.027a.1.1,0,0,1-.109-.109v-.349q0-.116.109-.116l.813.034h.6l.813-.034q.109,0,.109.116ZM23.352-7.7q0,.109-.116.109l-.779-.027H21.9l-.786.027A.1.1,0,0,1,21-7.7v-.335q0-.116.109-.116l.786.034h.561l.779-.034a.1.1,0,0,1,.116.116Zm0-1.039q0,.109-.116.109l-.779-.027H21.9l-.786.027A.1.1,0,0,1,21-8.736v-.335a.1.1,0,0,1,.109-.109l.786.027h.561l.779-.027q.116,0,.116.109Zm-4.9,1.654a.212.212,0,0,1-.068.13,1.236,1.236,0,0,0-.171.362,8.666,8.666,0,0,1-.4,1.08q-.068.15-.13.15a.307.307,0,0,1-.123-.055,1.485,1.485,0,0,0-.376-.171,5.9,5.9,0,0,0,.485-1.162,2.206,2.206,0,0,0,.116-.588,3.481,3.481,0,0,1,.5.13Q18.45-7.15,18.45-7.082Zm6.453,0a.212.212,0,0,1-.068.13,1.236,1.236,0,0,0-.171.362,8.309,8.309,0,0,1-.4,1.066q-.075.15-.13.15a.307.307,0,0,1-.123-.055,1.485,1.485,0,0,0-.376-.171,5.916,5.916,0,0,0,.485-1.148,2.206,2.206,0,0,0,.116-.588,3.193,3.193,0,0,1,.5.13Q24.9-7.15,24.9-7.082Zm2.461,1.271A1.831,1.831,0,0,0,27-5.64a.306.306,0,0,1-.15.082q-.055,0-.116-.137a7.761,7.761,0,0,1-.513-1.388.217.217,0,0,1-.014-.062q0-.048.137-.089l.253-.075a.377.377,0,0,1,.075-.014q.041,0,.062.075A6.32,6.32,0,0,0,27.364-5.811ZM20.6-6.043A.288.288,0,0,1,20.61-6q0,.062-.116.089l-.28.068a.4.4,0,0,1-.1.021q-.055,0-.068-.089a5.714,5.714,0,0,0-.335-1.244.157.157,0,0,1-.014-.048q0-.055.13-.082l.219-.055a.854.854,0,0,1,.089-.014q.041,0,.082.068A5.675,5.675,0,0,1,20.6-6.043Z" transform="translate(67.799 271.341)" fill="#4891f2"/>
          <path id="Path_1811" data-name="Path 1811" d="M13.125-5.127Q13.125-5,13-5l-1.832-.027H2.878L1.039-5Q.93-5,.93-5.127v-.547a.1.1,0,0,1,.109-.109l1.839.027h3.6V-7.1H4.5l-1.976.027q-.1,0-.1-.109v-.533q0-.109.1-.109L4.5-7.8H6.474V-9.03H3.814L1.853-9a.1.1,0,0,1-.109-.109v-.533a.1.1,0,0,1,.109-.109l1.962.027H7.93a14.338,14.338,0,0,0,.731-1.258,2.6,2.6,0,0,0,.205-.643,5.108,5.108,0,0,1,.786.26q.157.082.157.171a.2.2,0,0,1-.13.171.811.811,0,0,0-.253.26q-.321.54-.684,1.039h1.5l1.948-.027a.1.1,0,0,1,.109.109v.533A.1.1,0,0,1,12.188-9L10.24-9.03H7.314V-7.8H9.509l1.962-.027q.116,0,.116.109v.533q0,.109-.116.109L9.509-7.1H7.314v1.347h3.849L13-5.783q.13,0,.13.109Zm.164,5.3a1.5,1.5,0,0,0-.349.547q-.123.253-.219.253A1.051,1.051,0,0,1,12.544.95Q8.436.116,6.863-2.536A4.912,4.912,0,0,1,5.394-.649,8.858,8.858,0,0,1,1.518.95a1.477,1.477,0,0,1-.191.027q-.1,0-.205-.239A1.6,1.6,0,0,0,.772.219a8.371,8.371,0,0,0,4.1-1.449A3.658,3.658,0,0,0,6.1-2.83H3.22L1.333-2.8a.1.1,0,0,1-.109-.109v-.561a.1.1,0,0,1,.109-.109l1.887.027h3.1a3.934,3.934,0,0,0,.089-.807,2.5,2.5,0,0,0-.034-.424q.5.041.8.1.226.048.226.157a.462.462,0,0,1-.1.232,3.743,3.743,0,0,0-.157.745h3.678l1.894-.027a.1.1,0,0,1,.109.109v.561a.1.1,0,0,1-.109.109L10.821-2.83h-3.4Q9.037-.424,13.289.178ZM5.619-10.329a.22.22,0,0,1,.034.1q0,.055-.15.123l-.362.185a.661.661,0,0,1-.178.068q-.048,0-.089-.082a4.934,4.934,0,0,0-.813-1.217.2.2,0,0,1-.055-.1q0-.068.144-.123l.376-.171a.414.414,0,0,1,.137-.041.174.174,0,0,1,.1.055A6.736,6.736,0,0,1,5.619-10.329Zm19.79,7.854a2.214,2.214,0,0,1-.479,1.046.85.85,0,0,1-.629.239q-.875,0-1.579-1.647a9.568,9.568,0,0,1-2.181,1.7,1.127,1.127,0,0,1-.2.1q-.082,0-.226-.185a1.712,1.712,0,0,0-.376-.362,7.878,7.878,0,0,0,2.7-1.989L22.4-3.705a18.714,18.714,0,0,1-.643-3.883H19.011L17.1-7.561q-.13,0-.13-.109v-.506q0-.109.13-.109l1.914.027h2.707a3.739,3.739,0,0,1-.014-.376A9.136,9.136,0,0,0,21.588-9.8a3.947,3.947,0,0,1,.759.068q.226.041.226.15a.526.526,0,0,1-.068.212.99.99,0,0,0-.048.39v.718h.629l1.935-.027a.1.1,0,0,1,.109.109v.506a.1.1,0,0,1-.109.109l-1.935-.027H22.5a20.932,20.932,0,0,0,.492,3.254,6.774,6.774,0,0,0,.6-1.224,4.7,4.7,0,0,0,.321-1.1,3.509,3.509,0,0,1,.684.294q.144.068.144.178,0,.055-.157.212a3.2,3.2,0,0,0-.321.643A11.32,11.32,0,0,1,23.242-3.5a5.161,5.161,0,0,0,.6,1.183q.273.383.458.383.431,0,.561-1.312a1.6,1.6,0,0,0,.41.369q.178.109.178.2A1.079,1.079,0,0,1,25.409-2.475ZM20.843-4.129a.1.1,0,0,1-.109.109l-1.046-.027h-.9l-1.066.027a.1.1,0,0,1-.109-.109l.027-.882V-5.7l-.027-.9a.1.1,0,0,1,.109-.109l1.066.027h.9l1.046-.027a.1.1,0,0,1,.109.109l-.027.9v.69Zm-.711-.479V-6.118h-1.8v1.511Zm1.148.971a2.7,2.7,0,0,0-.082.472.514.514,0,0,1-.068.267.607.607,0,0,1-.226.1q-1.374.41-2.939.725a2.23,2.23,0,0,0-.574.185.364.364,0,0,1-.171.082q-.082,0-.137-.144a6.341,6.341,0,0,1-.212-.752,6.244,6.244,0,0,0,1.244-.144A19.514,19.514,0,0,0,21.28-3.637Zm3.336-5.271a.148.148,0,0,1,.034.075q0,.027-.082.109l-.246.226a.4.4,0,0,1-.15.089q-.021,0-.075-.062a6.11,6.11,0,0,0-.909-.909q-.055-.041-.055-.062t.109-.109l.253-.191A.192.192,0,0,1,23.6-9.8a.157.157,0,0,1,.082.048A8.32,8.32,0,0,1,24.616-8.907ZM26.585.93q0,.109-.123.109h-.636A.1.1,0,0,1,25.717.93V.171H16.283V.93a.1.1,0,0,1-.109.109h-.649A.1.1,0,0,1,15.415.93l.027-5.243v-2.8l-.027-3.739a.1.1,0,0,1,.109-.109l1.948.027h7.055l1.935-.027q.123,0,.123.109l-.027,3.322v3.213Zm-.868-1.5v-9.6H16.283v9.6Z" transform="translate(67.799 238.398)" fill="#efefef"/>
          <path id="Path_1810" data-name="Path 1810" d="M13.2-9.522a.1.1,0,0,1-.109.109L11.129-9.44h-2.2V-8.3h1.559l1.921-.027a.1.1,0,0,1,.109.109l-.027.978V-6.3l.027.978a.1.1,0,0,1-.109.109l-1.921-.027H6.843l-1.921.027a.1.1,0,0,1-.109-.109L4.84-6.3v-.943l-.027-.978a.1.1,0,0,1,.109-.109L6.843-8.3H8.135V-9.44H6.426l-1.948.027a.1.1,0,0,1-.109-.109v-.533a.1.1,0,0,1,.109-.109l1.948.027H8.135v-.39a5.307,5.307,0,0,0-.1-1.176,7.492,7.492,0,0,1,.889.082q.164.021.164.109a1.042,1.042,0,0,1-.068.226,1.913,1.913,0,0,0-.089.711v.438h2.2l1.962-.027a.1.1,0,0,1,.109.109ZM9.406-5.879V-7.656H7.868v1.777Zm2.3,0V-7.656H10.165v1.777Zm-4.594,0V-7.656h-1.5v1.777Zm-2.8-1.907a.211.211,0,0,1-.109.171,1.283,1.283,0,0,0-.342.4,13.268,13.268,0,0,1-.779,1.251V-.937L3.1.868q0,.1-.109.1H2.345q-.109,0-.109-.1l.027-1.8V-3.459q0-.506.027-1.511A11.7,11.7,0,0,1,1.073-3.719Q.95-3.6.889-3.6T.738-3.78A1.307,1.307,0,0,0,.39-4.225,11.214,11.214,0,0,0,3.213-7.67a2.977,2.977,0,0,0,.267-.69,2.961,2.961,0,0,1,.69.4Q4.307-7.848,4.307-7.786Zm8.866,4.074q0,.109-.116.109L11.1-3.63H6.132L4.184-3.6a.1.1,0,0,1-.109-.109v-.533a.1.1,0,0,1,.109-.109l1.948.027H11.1l1.955-.027q.116,0,.116.109ZM11.293-.841a2.29,2.29,0,0,1-.26.937,1.133,1.133,0,0,1-.41.376A4.537,4.537,0,0,1,8.729.725,6.221,6.221,0,0,1,7.164.588a.78.78,0,0,1-.6-.827V-1.764a9.2,9.2,0,0,0-.055-1.053,7.976,7.976,0,0,1,.848.089q.171.014.171.109a.847.847,0,0,1-.055.171,1.893,1.893,0,0,0-.082.67V-.643a.478.478,0,0,0,.362.526,4.944,4.944,0,0,0,1.066.082A3.5,3.5,0,0,0,10.145-.2q.362-.191.383-1.244a2.484,2.484,0,0,0,.526.267q.253.089.253.2Q11.307-.95,11.293-.841ZM4.32-10.917q0,.089-.123.15a1.31,1.31,0,0,0-.369.335,14.509,14.509,0,0,1-2.488,2.6.525.525,0,0,1-.212.109q-.048,0-.178-.2a1.355,1.355,0,0,0-.376-.424,9.906,9.906,0,0,0,2.557-2.529,2.619,2.619,0,0,0,.328-.629,4.675,4.675,0,0,1,.725.4Q4.32-11.02,4.32-10.917Zm1.415,8.7A6.744,6.744,0,0,1,4.546.226Q4.491.3,4.443.3A.432.432,0,0,1,4.307.253L3.849.014Q3.732-.048,3.732-.1a.165.165,0,0,1,.041-.089A5.638,5.638,0,0,0,4.936-2.5q.027-.089.082-.089a.773.773,0,0,1,.171.048l.41.157q.15.062.15.116A.11.11,0,0,1,5.735-2.215ZM13.412-.28a.217.217,0,0,1,.014.062q0,.048-.13.123l-.417.219a.383.383,0,0,1-.144.055q-.062,0-.1-.1a10.3,10.3,0,0,0-1.258-2.208.166.166,0,0,1-.041-.082q0-.041.123-.1l.4-.2a.375.375,0,0,1,.109-.034q.034,0,.089.068A11.883,11.883,0,0,1,13.412-.28ZM10.1-1.948a.122.122,0,0,1,.034.075q0,.048-.089.123L9.7-1.483a.437.437,0,0,1-.171.1q-.034,0-.082-.068A8.235,8.235,0,0,0,8.189-2.83q-.055-.041-.055-.068t.123-.137l.308-.212a.3.3,0,0,1,.13-.075.157.157,0,0,1,.082.048A8.61,8.61,0,0,1,10.1-1.948Zm15.306-.526a2.214,2.214,0,0,1-.479,1.046.85.85,0,0,1-.629.239q-.875,0-1.579-1.647a9.568,9.568,0,0,1-2.181,1.7,1.127,1.127,0,0,1-.2.1q-.082,0-.226-.185a1.712,1.712,0,0,0-.376-.362,7.878,7.878,0,0,0,2.7-1.989L22.4-3.705a18.714,18.714,0,0,1-.643-3.883H19.011L17.1-7.561q-.13,0-.13-.109v-.506q0-.109.13-.109l1.914.027h2.707a3.739,3.739,0,0,1-.014-.376A9.136,9.136,0,0,0,21.588-9.8a3.947,3.947,0,0,1,.759.068q.226.041.226.15a.526.526,0,0,1-.068.212.99.99,0,0,0-.048.39v.718h.629l1.935-.027a.1.1,0,0,1,.109.109v.506a.1.1,0,0,1-.109.109l-1.935-.027H22.5a20.932,20.932,0,0,0,.492,3.254,6.774,6.774,0,0,0,.6-1.224,4.7,4.7,0,0,0,.321-1.1,3.509,3.509,0,0,1,.684.294q.144.068.144.178,0,.055-.157.212a3.2,3.2,0,0,0-.321.643A11.32,11.32,0,0,1,23.242-3.5a5.161,5.161,0,0,0,.6,1.183q.273.383.458.383.431,0,.561-1.312a1.6,1.6,0,0,0,.41.369q.178.109.178.2A1.079,1.079,0,0,1,25.409-2.475ZM20.843-4.129a.1.1,0,0,1-.109.109l-1.046-.027h-.9l-1.066.027a.1.1,0,0,1-.109-.109l.027-.882V-5.7l-.027-.9a.1.1,0,0,1,.109-.109l1.066.027h.9l1.046-.027a.1.1,0,0,1,.109.109l-.027.9v.69Zm-.711-.479V-6.118h-1.8v1.511Zm1.148.971a2.7,2.7,0,0,0-.082.472.514.514,0,0,1-.068.267.607.607,0,0,1-.226.1q-1.374.41-2.939.725a2.23,2.23,0,0,0-.574.185.364.364,0,0,1-.171.082q-.082,0-.137-.144a6.341,6.341,0,0,1-.212-.752,6.244,6.244,0,0,0,1.244-.144A19.514,19.514,0,0,0,21.28-3.637Zm3.336-5.271a.148.148,0,0,1,.034.075q0,.027-.082.109l-.246.226a.4.4,0,0,1-.15.089q-.021,0-.075-.062a6.11,6.11,0,0,0-.909-.909q-.055-.041-.055-.062t.109-.109l.253-.191A.192.192,0,0,1,23.6-9.8a.157.157,0,0,1,.082.048A8.32,8.32,0,0,1,24.616-8.907ZM26.585.93q0,.109-.123.109h-.636A.1.1,0,0,1,25.717.93V.171H16.283V.93a.1.1,0,0,1-.109.109h-.649A.1.1,0,0,1,15.415.93l.027-5.243v-2.8l-.027-3.739a.1.1,0,0,1,.109-.109l1.948.027h7.055l1.935-.027q.123,0,.123.109l-.027,3.322v3.213Zm-.868-1.5v-9.6H16.283v9.6Z" transform="translate(67.799 217.457)" fill="#efefef"/>
          <path id="Path_1809" data-name="Path 1809" d="M13.2-5.94q0,.109-.116.109L11.17-5.858H9.1a12.193,12.193,0,0,1-.492,1.477h2.071l1.853-.027a.1.1,0,0,1,.109.109l-.027,1.483V-1.8l.014,1.579A.988.988,0,0,1,12.332.6a2.384,2.384,0,0,1-1.148.212.546.546,0,0,1-.26-.034.317.317,0,0,1-.075-.191,1.312,1.312,0,0,0-.239-.574q.376.027.813.027a.411.411,0,0,0,.342-.116.573.573,0,0,0,.075-.342V-3.685h-1.5v2.55L10.37.4q0,.116-.123.116H9.714Q9.6.52,9.6.4l.027-1.538v-2.55H8.2v2.55L8.23.4q0,.116-.123.116H7.574Q7.465.52,7.465.4l.027-1.538v-2.55h-1.4V-.772l.027,1.6a.1.1,0,0,1-.109.109H5.4A.1.1,0,0,1,5.291.827l.027-1.6V-2.885L5.291-4.3A.1.1,0,0,1,5.4-4.409l1.88.027h.492a10,10,0,0,0,.5-1.477H6.932L5-5.831q-.116,0-.116-.109V-6.5q0-.109.116-.109l1.935.027H11.17l1.914-.027q.116,0,.116.109ZM4.662-9.871q0,.13-.116.13L3.329-9.769h-.1v2.926L4.327-6.87a.1.1,0,0,1,.109.109v.588a.1.1,0,0,1-.109.109L3.233-6.091v3.206l1.4-.629a1.845,1.845,0,0,0-.034.362q0,.075.007.144.014.13.014.185,0,.13-.226.246A25.438,25.438,0,0,1,1.914-1.524a3.212,3.212,0,0,0-.656.267.271.271,0,0,1-.185.1q-.082,0-.15-.137Q.848-1.477.656-2.071a10.578,10.578,0,0,0,1.319-.335l.444-.157V-6.091H2.249l-1.1.027q-.116,0-.116-.109v-.588q0-.109.116-.109l1.1.027H2.42V-9.769H2.167l-1.2.027q-.109,0-.109-.13v-.574a.1.1,0,0,1,.109-.109l1.2.027H3.329l1.217-.027q.116,0,.116.109Zm7.909-.779a.773.773,0,0,1-.055.178,1.739,1.739,0,0,0-.082.656v.854L12.462-7.9a.1.1,0,0,1-.109.109l-1.825-.027h-3.1l-1.8.027A.1.1,0,0,1,5.517-7.9l.027-1.066v-.854a4.528,4.528,0,0,0-.1-1.046,6.485,6.485,0,0,1,.841.082q.157.021.157.116a.726.726,0,0,1-.068.232,1.683,1.683,0,0,0-.075.615v1.306H8.524v-1.641a8.545,8.545,0,0,0-.082-1.429q.335.014.868.075.157.021.157.109a.9.9,0,0,1-.089.253,4.251,4.251,0,0,0-.068.991v1.641h2.338V-9.8a5.691,5.691,0,0,0-.082-1.066,7.644,7.644,0,0,1,.848.082Q12.571-10.76,12.571-10.65ZM27.036-6.016a.1.1,0,0,1-.109.109l-1.866-.027H21.369V-.574h2.837L26.154-.6a.1.1,0,0,1,.109.109V.144a.1.1,0,0,1-.109.109L24.206.226H17.8L15.853.253q-.116,0-.116-.109V-.492q0-.109.116-.109L17.8-.574H20.46V-5.934H16.974l-1.853.027a.1.1,0,0,1-.109-.109v-.649a.1.1,0,0,1,.109-.109l1.853.027H20.46v-2.8a10.6,10.6,0,0,0-.1-1.764,8.947,8.947,0,0,1,1.012.089q.157.021.157.123a.672.672,0,0,1-.075.239A5.121,5.121,0,0,0,21.369-9.6v2.857h3.691l1.866-.027a.1.1,0,0,1,.109.109Z" transform="translate(67.799 199.573)" fill="#efefef"/>
          <path id="Path_1808" data-name="Path 1808" d="M9.037-1.381q0,.109-.116.109H8.374a.1.1,0,0,1-.109-.109v-.451H5.94v.711Q5.94-1,5.831-1H5.271a.1.1,0,0,1-.116-.116l.027-2.092V-4.1L5.154-5.359a.1.1,0,0,1,.109-.109l1.251.027H7.677l1.251-.027a.1.1,0,0,1,.109.109L9.01-4.32v.937ZM8.265-2.529V-4.744H5.94v2.215Zm4.888-4.464q0,.109-.116.109l-.191-.007q-.595-.014-1.374-.021v4.532l.014,1.941A1.321,1.321,0,0,1,11.149.6a1.424,1.424,0,0,1-.6.246A6.532,6.532,0,0,1,9.5.909H9.256A.507.507,0,0,1,8.989.868.51.51,0,0,1,8.921.629,1.909,1.909,0,0,0,8.668.014,10.568,10.568,0,0,0,9.816.082a.938.938,0,0,0,.656-.171.649.649,0,0,0,.144-.472V-6.911H6.863L4.9-6.884q-.1,0-.1-.109v-.567q0-.123.1-.123l1.962.027h4.245l1.928-.027q.116,0,.116.123Zm-.062-2.721q0,.109-.1.109l-1.832-.027H9.229l.027.964q0,.116-.109.116H8.531a.1.1,0,0,1-.116-.116l.027-.964H5.517l.027.964q0,.116-.109.116H4.819A.1.1,0,0,1,4.7-8.668l.027-.964H2.844L1.025-9.6q-.116,0-.116-.109v-.595q0-.109.116-.109l1.818.027H4.73a7.625,7.625,0,0,0-.1-1.271q.417.021.868.075.157.021.157.123a.372.372,0,0,1-.055.185,2.419,2.419,0,0,0-.089.889H8.442a6.7,6.7,0,0,0-.082-1.271q.595.027.854.055.15.027.15.13a.484.484,0,0,1-.055.2,2.609,2.609,0,0,0-.082.889h1.935L13-10.418q.1,0,.1.109ZM4.607-8.176q0,.075-.123.185a1.3,1.3,0,0,0-.253.39q-.321.656-.8,1.442V-.937L3.459.9q0,.1-.109.1H2.673q-.109,0-.109-.1L2.591-.937V-3.315q0-.062.041-1.736a11.2,11.2,0,0,1-1.4,1.5q-.144.123-.191.123T.868-3.6a1.63,1.63,0,0,0-.362-.465,9.748,9.748,0,0,0,2.98-3.849,3.384,3.384,0,0,0,.226-.745q.472.185.725.308Q4.607-8.251,4.607-8.176ZM24.664-4.881q0,.109-.1.109L22.709-4.8h-1.4v.6h.854l1.682-.027a.1.1,0,0,1,.109.109l-.027.882v.67l.027.875a.1.1,0,0,1-.109.109l-1.682-.034h-.547a7.973,7.973,0,0,0,2.7,1.306,1.626,1.626,0,0,0-.321.4Q23.9.28,23.83.28a.522.522,0,0,1-.185-.062A7.448,7.448,0,0,1,21.267-1.36q.007.957.041,1.606.007.109.021.342.007.1.007.123,0,.116-.109.116h-.492q-.109,0-.109-.116,0-.027.014-.26.048-.711.068-1.812A8.522,8.522,0,0,1,17.726.52a.839.839,0,0,1-.212.062q-.075,0-.185-.191a1.189,1.189,0,0,0-.335-.362,9.24,9.24,0,0,0,3.261-1.641H19.92l-1.682.034a.1.1,0,0,1-.109-.109l.027-.875v-.67l-.027-.882a.1.1,0,0,1,.109-.109L19.92-4.2h.731v-.6H19.346l-1.859.027q-.116,0-.116-.109V-5.25q0-.109.116-.109l1.859.027h1.306a4.716,4.716,0,0,0-.089-.8,5.552,5.552,0,0,1,.718.068q.164.027.164.1a.658.658,0,0,1-.068.164,1.156,1.156,0,0,0-.068.465h1.4l1.859-.027q.1,0,.1.109ZM23.27-2.044v-.643H21.294v.643Zm0-1.073v-.622H21.294v.622Zm-2.6,1.073v-.643H18.813v.643Zm0-1.073v-.622H18.813v.622ZM26.544-.451a1.921,1.921,0,0,1-.1.7.828.828,0,0,1-.267.335,2.551,2.551,0,0,1-1.442.267.465.465,0,0,1-.267-.048A.547.547,0,0,1,24.4.588a1.581,1.581,0,0,0-.205-.547A8.755,8.755,0,0,0,25.129.1q.4,0,.5-.144a.921.921,0,0,0,.1-.526V-6.1H23.242l-1.49.027a.1.1,0,0,1-.109-.109l.027-.937v-.916L21.643-9a.1.1,0,0,1,.109-.109l1.49.027h1.688l1.49-.027A.1.1,0,0,1,26.53-9L26.5-7.321v4.915ZM25.73-6.638v-.711H22.415v.711Zm0-1.217v-.684H22.415v.684Zm-5.4,1.668a.1.1,0,0,1-.109.109L18.84-6.1H16.365v4.785L16.379.9a.085.085,0,0,1-.1.1h-.622q-.109,0-.109-.1l.027-2.215V-6.788L15.552-9a.1.1,0,0,1,.109-.109l1.559.027h1.62l1.381-.027A.1.1,0,0,1,20.33-9L20.3-7.978v.766Zm-.772-.451v-.711H16.365v.711Zm0-1.217v-.684H16.365v.684ZM27.1-10.138q0,.1-.116.1l-1.818-.027H23.256l.027.588q0,.1-.116.1h-.588q-.109,0-.109-.1,0-.027.007-.2t.021-.39H19.414l.034.574q0,.1-.116.1h-.588q-.109,0-.109-.1,0-.027.007-.2t.021-.376H16.871l-1.839.027q-.109,0-.109-.1v-.52a.1.1,0,0,1,.109-.109l1.839.027h1.791a4.277,4.277,0,0,0-.1-.95q.595.021.841.055.157.027.157.123a.4.4,0,0,1-.068.185,1.391,1.391,0,0,0-.075.588H22.5a4.57,4.57,0,0,0-.1-.95q.588.021.841.055.15.027.15.123a.4.4,0,0,1-.068.185,1.519,1.519,0,0,0-.068.588H25.17l1.818-.027q.116,0,.116.109Z" transform="translate(67.799 181.632)" fill="#efefef"/>
          <path id="Path_1807" data-name="Path 1807" d="M10.664-4.457l-.055,1.012a10.743,10.743,0,0,1-.6,3.562A1.258,1.258,0,0,1,8.791.8q-.6,0-1.066-.041A.434.434,0,0,1,7.479.69.84.84,0,0,1,7.4.438a2.167,2.167,0,0,0-.2-.595,7.061,7.061,0,0,0,1.333.13.994.994,0,0,0,.513-.1.763.763,0,0,0,.267-.376,12.119,12.119,0,0,0,.438-3.3H6.761A5.566,5.566,0,0,1,5.127-.731,7.135,7.135,0,0,1,2.044.813a1.334,1.334,0,0,1-.185.027Q1.777.841,1.647.6A1.628,1.628,0,0,0,1.258.1,6.754,6.754,0,0,0,4.566-1.354,4.369,4.369,0,0,0,5.893-3.808H5.318L3.466-3.78q-.1,0-.1-.109v-.581q0-.109.1-.109l1.853.027H8.675l1.866-.027A.109.109,0,0,1,10.664-4.457ZM13.1-9.475a.1.1,0,0,1-.109.109l-1.832-.027H9.208l.027.923q0,.13-.109.13H8.511q-.116,0-.116-.13l.014-.28q.007-.294.014-.643H5.482l.027.937q0,.116-.109.116H4.785q-.109,0-.109-.116l.007-.287q.014-.3.021-.649H2.851l-1.832.027a.1.1,0,0,1-.109-.109v-.608a.1.1,0,0,1,.109-.109l1.832.027H4.7a7.17,7.17,0,0,0-.089-1.429,6.79,6.79,0,0,1,.868.082q.157.027.157.116a.35.35,0,0,1-.068.191,3.177,3.177,0,0,0-.089,1.039H8.422a6.766,6.766,0,0,0-.1-1.442,7.577,7.577,0,0,1,.882.082q.144.027.144.13a.426.426,0,0,1-.055.178,3.371,3.371,0,0,0-.089,1.053h1.948l1.832-.027a.1.1,0,0,1,.109.109Zm.144,5.455a2.1,2.1,0,0,0-.424.533q-.123.212-.164.212a.525.525,0,0,1-.212-.109,10.457,10.457,0,0,1-2.119-1.743A9.236,9.236,0,0,1,9.044-6.959H6.952l-1.244.027A.1.1,0,0,1,5.6-7.041v-.574q0-.116.109-.116L6.952-7.7H8.217l1.258-.027a.143.143,0,0,1,.137.109,2.819,2.819,0,0,0,.239.52A7.634,7.634,0,0,0,13.241-4.02ZM5.024-6.986A.241.241,0,0,1,4.9-6.8a1.272,1.272,0,0,0-.342.4A11.2,11.2,0,0,1,1.524-3.452a.525.525,0,0,1-.212.109q-.055,0-.185-.212a1.857,1.857,0,0,0-.4-.417,8.381,8.381,0,0,0,3.1-2.789,3.15,3.15,0,0,0,.349-.725q.5.212.718.335Q5.024-7.062,5.024-6.986Zm19.64,2.105q0,.109-.1.109L22.709-4.8h-1.4v.6h.854l1.682-.027a.1.1,0,0,1,.109.109l-.027.882v.67l.027.875a.1.1,0,0,1-.109.109l-1.682-.034h-.547a7.973,7.973,0,0,0,2.7,1.306,1.626,1.626,0,0,0-.321.4Q23.9.28,23.83.28a.522.522,0,0,1-.185-.062A7.448,7.448,0,0,1,21.267-1.36q.007.957.041,1.606.007.109.021.342.007.1.007.123,0,.116-.109.116h-.492q-.109,0-.109-.116,0-.027.014-.26.048-.711.068-1.812A8.522,8.522,0,0,1,17.726.52a.839.839,0,0,1-.212.062q-.075,0-.185-.191a1.189,1.189,0,0,0-.335-.362,9.24,9.24,0,0,0,3.261-1.641H19.92l-1.682.034a.1.1,0,0,1-.109-.109l.027-.875v-.67l-.027-.882a.1.1,0,0,1,.109-.109L19.92-4.2h.731v-.6H19.346l-1.859.027q-.116,0-.116-.109V-5.25q0-.109.116-.109l1.859.027h1.306a4.716,4.716,0,0,0-.089-.8,5.552,5.552,0,0,1,.718.068q.164.027.164.1a.658.658,0,0,1-.068.164,1.156,1.156,0,0,0-.068.465h1.4l1.859-.027q.1,0,.1.109ZM23.27-2.044v-.643H21.294v.643Zm0-1.073v-.622H21.294v.622Zm-2.6,1.073v-.643H18.813v.643Zm0-1.073v-.622H18.813v.622ZM26.544-.451a1.921,1.921,0,0,1-.1.7.828.828,0,0,1-.267.335,2.551,2.551,0,0,1-1.442.267.465.465,0,0,1-.267-.048A.547.547,0,0,1,24.4.588a1.581,1.581,0,0,0-.205-.547A8.755,8.755,0,0,0,25.129.1q.4,0,.5-.144a.921.921,0,0,0,.1-.526V-6.1H23.242l-1.49.027a.1.1,0,0,1-.109-.109l.027-.937v-.916L21.643-9a.1.1,0,0,1,.109-.109l1.49.027h1.688l1.49-.027A.1.1,0,0,1,26.53-9L26.5-7.321v4.915ZM25.73-6.638v-.711H22.415v.711Zm0-1.217v-.684H22.415v.684Zm-5.4,1.668a.1.1,0,0,1-.109.109L18.84-6.1H16.365v4.785L16.379.9a.085.085,0,0,1-.1.1h-.622q-.109,0-.109-.1l.027-2.215V-6.788L15.552-9a.1.1,0,0,1,.109-.109l1.559.027h1.62l1.381-.027A.1.1,0,0,1,20.33-9L20.3-7.978v.766Zm-.772-.451v-.711H16.365v.711Zm0-1.217v-.684H16.365v.684ZM27.1-10.138q0,.1-.116.1l-1.818-.027H23.256l.027.588q0,.1-.116.1h-.588q-.109,0-.109-.1,0-.027.007-.2t.021-.39H19.414l.034.574q0,.1-.116.1h-.588q-.109,0-.109-.1,0-.027.007-.2t.021-.376H16.871l-1.839.027q-.109,0-.109-.1v-.52a.1.1,0,0,1,.109-.109l1.839.027h1.791a4.277,4.277,0,0,0-.1-.95q.595.021.841.055.157.027.157.123a.4.4,0,0,1-.068.185,1.391,1.391,0,0,0-.075.588H22.5a4.57,4.57,0,0,0-.1-.95q.588.021.841.055.15.027.15.123a.4.4,0,0,1-.068.185,1.519,1.519,0,0,0-.068.588H25.17l1.818-.027q.116,0,.116.109Z" transform="translate(67.799 162.689)" fill="#efefef"/>
          <path id="Path_1806" data-name="Path 1806" d="M13.453-3.179a1.942,1.942,0,0,0-.437.533q-.1.2-.15.2a.5.5,0,0,1-.212-.082A12.647,12.647,0,0,1,9.1-5.277H4.8A12.778,12.778,0,0,1,1.483-2.461a.87.87,0,0,1-.2.1q-.055,0-.185-.212a1.19,1.19,0,0,0-.4-.458A10.714,10.714,0,0,0,3.78-5.277H2.939L1.087-5.25q-.109,0-.109-.123v-.52A.1.1,0,0,1,1.087-6l1.853.027H4.368a8.069,8.069,0,0,0,.854-1.463H4.587L2.632-7.4a.1.1,0,0,1-.116-.116v-.52q0-.109.116-.109l1.955.027h.93q.164-.451.4-1.292H3.767l-1.948.027Q1.7-9.386,1.7-9.5v-.533q0-.109.116-.109l1.948.027H6.084A6.342,6.342,0,0,0,6.269-11.4q0-.137-.014-.28a5.657,5.657,0,0,1,.868.123q.226.048.226.157a.338.338,0,0,1-.082.191,3.216,3.216,0,0,0-.314.971l-.027.123h3.247l1.948-.027q.116,0,.116.109V-9.5q0,.109-.116.109l-1.948-.027H6.761q-.239.841-.41,1.292h3.1l1.962-.027a.1.1,0,0,1,.109.109v.52q0,.116-.109.116L9.447-7.437H8.511a7.4,7.4,0,0,0,.923,1.463h1.641L12.92-6a.1.1,0,0,1,.109.109v.52q0,.123-.109.123l-1.846-.027h-1A12.091,12.091,0,0,0,13.453-3.179Zm-4.9-2.8a10.217,10.217,0,0,1-.827-1.463H6.084A11.009,11.009,0,0,1,5.3-5.975Zm-1.06,1.34a.853.853,0,0,1-.089.267,3.72,3.72,0,0,0-.068.95v1.839L7.362-.321A1.054,1.054,0,0,1,6.986.6,3.3,3.3,0,0,1,5.4.841.427.427,0,0,1,5.154.8.623.623,0,0,1,5.065.561a1.53,1.53,0,0,0-.28-.588,9.142,9.142,0,0,0,1.08.055.767.767,0,0,0,.54-.144.5.5,0,0,0,.13-.39V-3.445a6.615,6.615,0,0,0-.1-1.388q.137.007.882.089Q7.492-4.724,7.492-4.635Zm4.99,4.368a1.28,1.28,0,0,0-.4.438q-.123.205-.205.205a.861.861,0,0,1-.2-.048,12.464,12.464,0,0,1-3.6-1.955q-.055-.041-.055-.075,0-.055.13-.144l.26-.212a.306.306,0,0,1,.15-.082.137.137,0,0,1,.075.041A10.553,10.553,0,0,0,12.482-.267ZM5.824-1.723a1.478,1.478,0,0,1,.027.191q0,.1-.239.232A18.785,18.785,0,0,1,2.851-.082,1.522,1.522,0,0,0,2.365.13a.323.323,0,0,1-.185.109Q2.1.239,2.03.116A5.339,5.339,0,0,1,1.75-.6,5.627,5.627,0,0,0,2.7-.827a17.607,17.607,0,0,0,3.09-1.34v.123A1.8,1.8,0,0,0,5.824-1.723ZM10.1-3.637q0,.082-.123.123a.837.837,0,0,0-.294.185,11.046,11.046,0,0,1-1.08.882.578.578,0,0,1-.2.109q-.055,0-.219-.171a1.812,1.812,0,0,0-.355-.267A6.392,6.392,0,0,0,9.1-3.767,1.883,1.883,0,0,0,9.406-4.2a6.711,6.711,0,0,1,.574.376A.241.241,0,0,1,10.1-3.637Zm-4.354.67q.055.048.055.082t-.082.109l-.253.28q-.109.137-.164.137-.034,0-.082-.062A5.946,5.946,0,0,0,3.985-3.514q-.048-.027-.048-.062t.1-.15l.253-.253a.23.23,0,0,1,.13-.075A.232.232,0,0,1,4.5-4.02,7.266,7.266,0,0,1,5.749-2.967Zm19.66.492a2.214,2.214,0,0,1-.479,1.046.85.85,0,0,1-.629.239q-.875,0-1.579-1.647a9.568,9.568,0,0,1-2.181,1.7,1.127,1.127,0,0,1-.2.1q-.082,0-.226-.185a1.712,1.712,0,0,0-.376-.362,7.878,7.878,0,0,0,2.7-1.989L22.4-3.705a18.714,18.714,0,0,1-.643-3.883H19.011L17.1-7.561q-.13,0-.13-.109v-.506q0-.109.13-.109l1.914.027h2.707a3.739,3.739,0,0,1-.014-.376A9.136,9.136,0,0,0,21.588-9.8a3.947,3.947,0,0,1,.759.068q.226.041.226.15a.526.526,0,0,1-.068.212.99.99,0,0,0-.048.39v.718h.629l1.935-.027a.1.1,0,0,1,.109.109v.506a.1.1,0,0,1-.109.109l-1.935-.027H22.5a20.932,20.932,0,0,0,.492,3.254,6.774,6.774,0,0,0,.6-1.224,4.7,4.7,0,0,0,.321-1.1,3.509,3.509,0,0,1,.684.294q.144.068.144.178,0,.055-.157.212a3.2,3.2,0,0,0-.321.643A11.32,11.32,0,0,1,23.242-3.5a5.161,5.161,0,0,0,.6,1.183q.273.383.458.383.431,0,.561-1.312a1.6,1.6,0,0,0,.41.369q.178.109.178.2A1.079,1.079,0,0,1,25.409-2.475ZM20.843-4.129a.1.1,0,0,1-.109.109l-1.046-.027h-.9l-1.066.027a.1.1,0,0,1-.109-.109l.027-.882V-5.7l-.027-.9a.1.1,0,0,1,.109-.109l1.066.027h.9l1.046-.027a.1.1,0,0,1,.109.109l-.027.9v.69Zm-.711-.479V-6.118h-1.8v1.511Zm1.148.971a2.7,2.7,0,0,0-.082.472.514.514,0,0,1-.068.267.607.607,0,0,1-.226.1q-1.374.41-2.939.725a2.23,2.23,0,0,0-.574.185.364.364,0,0,1-.171.082q-.082,0-.137-.144a6.341,6.341,0,0,1-.212-.752,6.244,6.244,0,0,0,1.244-.144A19.514,19.514,0,0,0,21.28-3.637Zm3.336-5.271a.148.148,0,0,1,.034.075q0,.027-.082.109l-.246.226a.4.4,0,0,1-.15.089q-.021,0-.075-.062a6.11,6.11,0,0,0-.909-.909q-.055-.041-.055-.062t.109-.109l.253-.191A.192.192,0,0,1,23.6-9.8a.157.157,0,0,1,.082.048A8.32,8.32,0,0,1,24.616-8.907ZM26.585.93q0,.109-.123.109h-.636A.1.1,0,0,1,25.717.93V.171H16.283V.93a.1.1,0,0,1-.109.109h-.649A.1.1,0,0,1,15.415.93l.027-5.243v-2.8l-.027-3.739a.1.1,0,0,1,.109-.109l1.948.027h7.055l1.935-.027q.123,0,.123.109l-.027,3.322v3.213Zm-.868-1.5v-9.6H16.283v9.6Z" transform="translate(67.799 142.748)" fill="#efefef"/>
          <path id="Path_1805" data-name="Path 1805" d="M13.118-4.5q0,.123-.109.123l-1.825-.027H2.83L1-4.382Q.9-4.382.9-4.5v-.451A.1.1,0,0,1,1-5.065l1.825.027H6.535v-.868H3.965L2-5.893q-.116,0-.116-.1v-.451q0-.109.116-.109l1.962.027h2.57V-7.39H4.7l-2,.027a.1.1,0,0,1-.109-.109l.027-1.142V-9.857l-.027-1.135A.1.1,0,0,1,2.7-11.1l2,.027h4.58l2-.027a.1.1,0,0,1,.109.109l-.027,1.135v1.244L11.4-7.472a.1.1,0,0,1-.109.109l-2-.027H7.321v.868h2.714L12-6.549a.1.1,0,0,1,.109.109v.451q0,.1-.109.1l-1.962-.014H7.321v.868h3.862l1.825-.027a.1.1,0,0,1,.109.109ZM10.582-7.964v-.971H7.321v.971Zm0-1.545v-.95H7.321v.95ZM6.535-7.964v-.971H3.4v.971Zm0-1.545v-.95H3.4v.95ZM12.879.465a.1.1,0,0,1-.109.109L10.9.547H3.165L1.285.574A.1.1,0,0,1,1.176.465V-.068a.1.1,0,0,1,.109-.109l1.88.027H6.521V-1.244H4.758L2.8-1.217q-.13,0-.13-.109v-.492q0-.109.13-.109L4.758-1.9H6.521v-.055a6.087,6.087,0,0,0-.1-1.23,7.612,7.612,0,0,1,.868.082q.15.021.15.109a.568.568,0,0,1-.055.2,3.025,3.025,0,0,0-.082.841V-1.9H9.352l1.976-.027a.1.1,0,0,1,.109.109v.492a.1.1,0,0,1-.109.109L9.352-1.244H7.308V-.15h3.6L12.77-.178a.1.1,0,0,1,.109.109ZM3.261-3.685A8.093,8.093,0,0,1,1.7-2.03a.224.224,0,0,1-.109.062.261.261,0,0,1-.13-.075l-.335-.28q-.109-.1-.109-.137t.055-.075a5.408,5.408,0,0,0,1.456-1.5q.048-.075.1-.075a.434.434,0,0,1,.164.062l.355.185q.15.075.15.123A.079.079,0,0,1,3.261-3.685Zm9.42,1.121a.133.133,0,0,1,.027.068q0,.048-.123.13l-.349.226a.407.407,0,0,1-.164.068q-.048,0-.089-.075A9.69,9.69,0,0,0,10.65-3.726Q10.6-3.773,10.6-3.8q0-.048.13-.116l.321-.171a.447.447,0,0,1,.144-.055.2.2,0,0,1,.109.055A10.806,10.806,0,0,1,12.681-2.563Zm-6.9-.055q0,.027,0,.041,0,.082-.171.116l-.39.068a.965.965,0,0,1-.123.014q-.075,0-.089-.116a6.009,6.009,0,0,0-.253-1.3.288.288,0,0,1-.007-.048q0-.048.164-.075l.362-.075a.384.384,0,0,1,.089-.014q.068,0,.109.1A5.533,5.533,0,0,1,5.783-2.618ZM9.1-2.728a.129.129,0,0,1,.007.041q0,.062-.144.109l-.4.144a.481.481,0,0,1-.1.021q-.055,0-.089-.109A7.049,7.049,0,0,0,7.813-3.78a.117.117,0,0,1-.021-.055q0-.041.13-.082l.362-.116a.376.376,0,0,1,.1-.027q.034,0,.082.068A7.6,7.6,0,0,1,9.1-2.728ZM27.057-9.892a.1.1,0,0,1-.109.109L25.108-9.81H22.524v2.153h1.538l1.976-.027a.1.1,0,0,1,.109.109L26.12-5.147V-2.81L26.147.7a.1.1,0,0,1-.109.109h-.663A.1.1,0,0,1,25.266.7V-.1H16.7V.731a.1.1,0,0,1-.109.109h-.649a.1.1,0,0,1-.109-.109L15.859-2.8V-4.881l-.027-2.693a.1.1,0,0,1,.109-.109l1.976.027h1.319q.027-.9.027-1.456v-.7H16.9l-1.839.027a.1.1,0,0,1-.109-.109v-.636a.1.1,0,0,1,.109-.109l1.839.027h8.21l1.839-.027a.1.1,0,0,1,.109.109ZM25.266-.882v-6H22.524v2.222q0,.52.137.615a1.138,1.138,0,0,0,.561.1,1.123,1.123,0,0,0,.629-.123.713.713,0,0,0,.191-.479A10.287,10.287,0,0,0,24.09-5.64a2.035,2.035,0,0,0,.506.267.414.414,0,0,1,.212.116.331.331,0,0,1,.041.191,1.114,1.114,0,0,1-.007.123Q24.78-3.705,24.4-3.432a1.928,1.928,0,0,1-1.135.267,2.783,2.783,0,0,1-1.176-.185q-.4-.2-.4-.93v-2.6H20.016a7.071,7.071,0,0,1-.649,2.557A4.517,4.517,0,0,1,17.89-2.659a.34.34,0,0,1-.2.1q-.082,0-.232-.15a1.511,1.511,0,0,0-.492-.321,4.2,4.2,0,0,0,1.682-1.743,6.179,6.179,0,0,0,.526-2.105H16.7v6ZM21.684-7.656V-9.81H20.1v.738q0,.52-.027,1.415ZM41.132-4.628a.1.1,0,0,1-.109.109L39.19-4.546h-.2V-2.1L39.006-.39A1.129,1.129,0,0,1,38.623.6a3.727,3.727,0,0,1-1.791.239.445.445,0,0,1-.267-.048.442.442,0,0,1-.1-.219A1.967,1.967,0,0,0,36.2.014q.649.055,1.278.055a.843.843,0,0,0,.54-.123.533.533,0,0,0,.13-.41V-4.546H30.8l-1.825.027a.1.1,0,0,1-.109-.109v-.581a.1.1,0,0,1,.109-.109l1.825.027H39.19l1.832-.027a.1.1,0,0,1,.109.109Zm-.308-5.5a.1.1,0,0,1-.109.109l-1.723-.027v1.511l.014,1.572a1.7,1.7,0,0,1-.089.636A.854.854,0,0,1,38.623-6a3.012,3.012,0,0,1-1.5.226h-.28a.548.548,0,0,1-.28-.041.463.463,0,0,1-.082-.212,1.475,1.475,0,0,0-.28-.561q.656.055,1.278.055a.857.857,0,0,0,.547-.123.516.516,0,0,0,.123-.4v-2.994H31.22l-1.887.027q-.116,0-.116-.109v-.581q0-.109.116-.109l1.887.027h7.6l1.894-.027a.1.1,0,0,1,.109.109Zm-5.2,9.7q0,.109-.116.109h-.588a.1.1,0,0,1-.109-.109V-.9H31.767v.711a.1.1,0,0,1-.116.116h-.588q-.109,0-.109-.116l.027-1.729v-.622l-.027-.923a.1.1,0,0,1,.109-.109l1.429.027h1.593l1.429-.027q.116,0,.116.109L35.6-2.7v.643Zm-.813-1.107V-2.9H31.767v1.36Zm.813-5.141q0,.109-.116.109L34.118-6.6H32.566l-1.422.027a.1.1,0,0,1-.109-.109l.027-.827v-.67L31.035-9a.1.1,0,0,1,.109-.109l1.422.027h1.552l1.395-.027q.116,0,.116.109l-.027.827v.67Zm-.8-.547v-1.23H31.835v1.23Z" transform="translate(53.799 124.806)" fill="#efefef"/>
        </g>
      </g>
      <line id="Line_479" data-name="Line 479" y2="252" transform="translate(-2406.5 -10452.5)" fill="none" stroke="#df5a5a" stroke-width="1" stroke-dasharray="1"/>
    </g>
    <path id="p" d="M7.1,5.433l-1.859.205a1.354,1.354,0,0,0-.355-.848,1.036,1.036,0,0,0-.745-.273,1.258,1.258,0,0,0-1.029.547,4.607,4.607,0,0,0-.53,2.276,2.246,2.246,0,0,1,1.784-.848,2.724,2.724,0,0,1,2.061.916,3.321,3.321,0,0,1,.858,2.365,3.392,3.392,0,0,1-.9,2.468,3.088,3.088,0,0,1-2.317.93,3.1,3.1,0,0,1-2.5-1.179A6.066,6.066,0,0,1,.595,8.126,6.181,6.181,0,0,1,1.613,4.154,3.288,3.288,0,0,1,4.259,2.938a2.809,2.809,0,0,1,1.89.639A3,3,0,0,1,7.1,5.433ZM2.748,9.623a2.177,2.177,0,0,0,.431,1.446,1.267,1.267,0,0,0,.984.509,1.12,1.12,0,0,0,.889-.417,2.1,2.1,0,0,0,.355-1.367,2.2,2.2,0,0,0-.383-1.432,1.231,1.231,0,0,0-1.894-.021A1.885,1.885,0,0,0,2.748,9.623ZM8.791,13V11.079h1.921V13ZM12.3,10.423l1.914-.2a1.642,1.642,0,0,0,.485,1.029,1.317,1.317,0,0,0,.93.379,1.291,1.291,0,0,0,1.019-.489,2.224,2.224,0,0,0,.417-1.473,2.018,2.018,0,0,0-.414-1.384,1.378,1.378,0,0,0-1.077-.461,1.956,1.956,0,0,0-1.483.731L12.53,8.331l.984-5.216h5.079v1.8H14.971l-.3,1.7a2.936,2.936,0,0,1,3.479.608,3.348,3.348,0,0,1,.889,2.413,3.619,3.619,0,0,1-.718,2.208,3.182,3.182,0,0,1-2.714,1.326,3.368,3.368,0,0,1-2.263-.745A3.069,3.069,0,0,1,12.3,10.423Zm14.246.793V13H19.811a4.637,4.637,0,0,1,.656-1.917,12.76,12.76,0,0,1,2.16-2.4A13.587,13.587,0,0,0,24.22,7.039a2.113,2.113,0,0,0,.4-1.176,1.337,1.337,0,0,0-.345-.988,1.467,1.467,0,0,0-1.911.017,1.861,1.861,0,0,0-.41,1.2L20.036,5.9a3.138,3.138,0,0,1,1.073-2.276,3.6,3.6,0,0,1,2.256-.69,3.26,3.26,0,0,1,2.331.8,2.623,2.623,0,0,1,.848,1.989A3.463,3.463,0,0,1,26.3,7.015,5.24,5.24,0,0,1,25.532,8.3a12.307,12.307,0,0,1-1.258,1.278q-.909.834-1.152,1.107a3.316,3.316,0,0,0-.393.533Z" transform="translate(413 435)" fill="#fff"/>
  </g>
</svg>
