<?xml version="1.0" encoding="utf-8"?>
<!-- Generator: Adobe Illustrator 23.1.0, SVG Export Plug-In . SVG Version: 6.00 Build 0)  -->
<svg version="1.1" id="圖層_1" xmlns="http://www.w3.org/2000/svg" xmlns:xlink="http://www.w3.org/1999/xlink" x="0px" y="0px"
	 viewBox="0 0 313.9 318.1" style="enable-background:new 0 0 313.9 318.1;" xml:space="preserve">
<style type="text/css">
	.st0{fill:#4891F2;}
	.st1{fill:#4D505A;}
	.st2{fill:none;stroke:#AAAAAA;stroke-dasharray:1;}
	.st3{fill:#C0C3C9;}
	.st4{fill:none;}
	.st5{enable-background:new    ;}
</style>
<g id="data6_pc" transform="translate(-232.075 -214.999)">
	<g id="Group_1777" transform="translate(-20 -5)">
		<path id="內文p" class="st0" d="M272.2,228.6c-0.1,2.7-0.3,3.8-0.5,4.1c-0.1,0.1-0.3,0.2-0.5,0.2c-0.3,0-0.9,0-1.5-0.1
			c0.3,0.5,0.4,1.1,0.5,1.6c0.6,0,1.2,0,1.9,0c0.5,0,0.9-0.3,1.2-0.6c0.4-0.5,0.6-2.1,0.8-6.1c0-0.2,0-0.7,0-0.7h-8.2v1.6h3.1
			c-0.1,0.6-0.2,1.2-0.4,1.8c-0.6-0.5-1.3-1.1-1.9-1.5l-1,1c0.7,0.6,1.6,1.4,2.2,2c-0.6,0.9-1.5,1.5-2.5,1.9
			c0.4,0.4,0.8,0.8,1.1,1.3c3-1.4,3.8-3.7,4.2-6.5H272.2z M268.5,235c0.7,0.7,1.2,1.6,1.7,2.4l1.2-0.8c-0.5-0.9-1.1-1.7-1.8-2.4
			L268.5,235z M265.3,229.1h-2.8l1.1-0.4c-0.3-0.7-0.6-1.5-1-2.2l-1.6,0.6c0.3,0.7,0.6,1.3,0.8,2h-2.3v1.5h5.8V229.1z M264.9,231.3
			h-5v1.4h5V231.3z M260,234.9h5v-1.4h-5V234.9z M263.3,239.1h-1.8v-1.8h1.8V239.1z M264.9,235.7H260v5.5h1.6v-0.6h3.4v-1.1l1.1,0.5
			c0.6-1.2,0.9-2.4,1-3.7l-1.3-0.4c-0.1,1.1-0.4,2.1-0.8,3.1L264.9,235.7z M269.3,239.6c-0.5,0-0.6-0.1-0.6-0.5v-3.5h-1.6v3.5
			c0,1.5,0.4,2,2,2h1.8c1.3,0,1.7-0.6,1.9-2.8c-0.5-0.1-1-0.3-1.5-0.6c0,1.7-0.1,1.9-0.6,1.9H269.3z M271.9,235.6
			c0.6,1.1,1,2.3,1.3,3.5l1.4-0.5c-0.3-1.2-0.8-2.3-1.4-3.4L271.9,235.6z M279.8,237.9c0.2,1,0.3,2,0.3,3l1.6-0.2c0-1-0.2-2-0.4-2.9
			L279.8,237.9z M282.2,237.7c0.3,0.9,0.6,1.7,0.7,2.7l1.5-0.4c-0.2-0.9-0.4-1.8-0.8-2.6L282.2,237.7z M286.9,233.8
			c-0.1,0.5-0.2,0.9-0.3,1.3h-6.1c0.4-0.4,0.8-0.8,1.2-1.3H286.9z M285.7,230.8c-0.1,0.4-0.2,0.9-0.3,1.3H283
			c0.3-0.4,0.5-0.8,0.8-1.3H285.7z M290.1,235.1h-1.7c0.2-0.9,0.4-2,0.6-2.9h-1.8c0.2-0.9,0.4-2,0.6-2.9h-3.1
			c0.3-0.7,0.6-1.5,0.9-2.2l-1.9-0.5c-0.3,0.9-0.7,1.9-1.1,2.7h-2.3l0.8-0.3c-0.3-0.8-0.7-1.6-1.2-2.3l-1.6,0.6c0.4,0.6,0.7,1.3,1,2
			h-2.7v1.7h5.1c-1.5,2.4-3.6,4.3-6.1,5.5c0.4,0.5,0.7,1.1,1,1.7c0.4-0.2,0.8-0.4,1.2-0.7c-0.3,1.2-0.9,2.2-1.7,3l1.5,0.9
			c1-1,1.6-2.2,1.9-3.6l-1.5-0.5c0.3-0.2,0.6-0.4,0.8-0.5h9.5c-0.2,1.8-0.4,2.6-0.7,2.9c-0.1,0.1-0.3,0.2-0.5,0.2
			c-0.5,0-1,0-1.6-0.1c0.3,0.5,0.5,1.1,0.5,1.7c0.6,0,1.3,0,1.9,0c0.5,0,0.9-0.2,1.2-0.6c0.5-0.5,0.8-1.9,1-5L290.1,235.1z
			 M286.9,239c-0.2-0.7-0.6-1.5-1-2.1l-1.3,0.4c0.4,0.7,0.7,1.4,0.9,2.2L286.9,239z M295.3,238.8v-1.7h7.6v1.7H295.3z M302.9,233.7
			v1.6h-7.6v-1.6H302.9z M302.9,230.3v1.6h-7.6v-1.6H302.9z M299.4,228.5c0.3-0.6,0.5-1.2,0.8-1.8l-2.3-0.3
			c-0.1,0.7-0.2,1.4-0.4,2.1h-4.1v12.9h1.9v-0.8h7.6v0.8h2v-12.8H299.4z M313.3,239.2c-1.7,0-2-0.1-2-1v-3.9h7.1v0.9h2v-7.9h-11.3v2
			h9.3v3.2h-9.1v5.8c0,2.3,1,2.9,4,2.9h5.2c2.9,0,3.6-0.8,3.9-3.9c-0.7-0.1-1.3-0.4-1.9-0.7c-0.2,2.3-0.4,2.7-2,2.7L313.3,239.2z
			 M330.2,233v2.6h-3V233L330.2,233z M332.1,237.4v-6.2h-6.8v7.4h1.9v-1.2H332.1z M338.2,227.5h-14.4v1.9h10.6v9.5
			c0,0.3-0.1,0.4-0.5,0.4c-0.4,0-1.8,0-2.9,0c0.3,0.6,0.6,1.3,0.8,2c1.2,0.1,2.4,0,3.6-0.4c0.8-0.3,1-0.9,1-2v-9.5h1.8V227.5z
			 M348.9,232.2c-0.7-1.4-1.5-2.7-2.5-3.8l-1.7,0.9c1,1.2,1.8,2.5,2.4,4L348.9,232.2z M346,235c-0.8,0.3-1.6,0.7-2.4,1l-0.3-8.7
			l-2,0.1l0.3,9.3c-0.8,0.3-1.5,0.6-2.1,0.8l0.6,2c1.8-0.8,4.2-1.8,6.3-2.7L346,235z M354.6,239.8c-1.1-1.5-2.3-2.8-3.5-4.1
			c1.1-2.6,1.8-5.3,2-8.1l-2.1-0.2c-0.6,6.6-2.2,10.4-7.3,12.4c0.6,0.5,1.1,1.1,1.5,1.7c2-0.8,3.6-2.2,4.9-3.9
			c1.1,1.2,2.1,2.5,3,3.9L354.6,239.8z M364.5,234.5v2.2h-3v-2.2H364.5z M366.3,238.3V233h-6.5v6.4h1.8v-1.1L366.3,238.3z
			 M367,230.1h-8v1.6h8V230.1z M369.8,227.2h-13.6v14.2h1.9V229h9.8v10.2c0,0.3-0.1,0.4-0.4,0.4s-1.2,0-2,0c0.3,0.6,0.5,1.2,0.7,1.9
			c1,0.1,1.9,0,2.8-0.4c0.6-0.3,0.8-0.8,0.8-1.8V227.2z M375.3,229.1v2.8h-1.5v-2.8H375.3z M373.8,236.6v-3h1.5v3H373.8z M377,227.4
			h-5v12.3h1.8v-1.4h3.2V227.4z M378,237c0.7,0.9,1.3,1.7,1.8,2.7l1.7-1c-0.6-0.9-1.2-1.8-1.9-2.6L378,237z M386.4,229.8v-1.7h-3.6
			v-1.7h-1.9v1.7h-3.6v1.7h3.6v1.5h-3.1v1.6h5.1v1.2h-5.6v1.6h5.6v3.4c0,0.2-0.1,0.3-0.3,0.3c-0.2,0-1.1,0-1.9,0
			c0.3,0.6,0.5,1.2,0.6,1.8c0.9,0.1,1.8,0,2.7-0.3c0.6-0.3,0.8-0.8,0.8-1.7v-3.5h1.5v-1.6h-1.5V233h1.2v-1.6h-3.2v-1.5H386.4z
			 M392.7,236.2h1.2c-0.2,0.6-0.4,1.1-0.7,1.6c-0.3-0.4-0.5-0.9-0.6-1.4L392.7,236.2z M394.8,234.9l-0.3,0h-1.2
			c0.1-0.3,0.2-0.5,0.3-0.8l-1.4-0.4c-0.4,1.2-1,2.2-1.8,3.1c0.2-1.2,0.2-2.5,0.2-3.7v-2.3h3.2v0.7l-2.7,0.1l0.1,1.2l2.6-0.1
			c0,1.2,0.5,1.8,2.2,1.8h3.5c0.7,0,1.3,0,2-0.1c-0.1-0.4-0.1-0.9-0.2-1.4c-0.7,0.1-1.3,0.2-2,0.1h-3.1c-0.6,0-0.7-0.2-0.7-0.5
			l3.7-0.2l0-1.2l-3.7,0.2v-0.6h4.3c-0.1,0.4-0.3,0.8-0.4,1.2l1.6,0.4c0.4-0.9,0.8-1.9,1.1-2.9l-1.3-0.3l-0.3,0.1h-4.8v-0.7h5.1
			v-1.3h-5.1v-0.8h-1.9v2.9h-5v3.7c0,2.1-0.1,5.1-1.4,7.2c0.5,0.3,1,0.7,1.5,1.1c0.7-1.1,1.1-2.4,1.3-3.7c0.3,0.3,0.5,0.6,0.7,0.8
			c0.3-0.2,0.5-0.5,0.7-0.8c0.2,0.4,0.4,0.8,0.6,1.1c-0.7,0.6-1.5,1.1-2.4,1.3c0.3,0.4,0.6,0.8,0.8,1.3c0.9-0.3,1.8-0.8,2.6-1.5
			c1.4,0.9,3.1,1.3,4.7,1.2h4c0.1-0.5,0.3-1.1,0.6-1.6c-0.9,0-3.8,0-4.4,0c-1.3,0.1-2.6-0.2-3.8-0.8c0.7-1.1,1.2-2.4,1.4-3.7
			L394.8,234.9z M400.8,239.1c0.8,0,1.1-0.4,1.2-1.7c-0.4-0.1-0.8-0.2-1.1-0.4c0,1-0.1,1.2-0.3,1.2h-0.3c-0.2,0-0.2,0-0.2-0.4v-2.7
			h-3.8v1.1c0.1,1-0.4,1.9-1.2,2.4c0.4,0.3,0.8,0.6,1.2,1c1-0.7,1.5-1.9,1.5-3.1h0.9v1.3c0,1.1,0.3,1.4,1.3,1.4H400.8z M408.7,236.4
			c-0.5,0.2-1,0.3-1.6,0.5v-3.2h1.4V232h-1.4v-2.8h1.7v-1.8h-5.3v1.8h1.8v2.8h-1.6v1.7h1.6v3.8c-0.7,0.2-1.4,0.4-2,0.5l0.4,1.9
			c1.5-0.5,3.5-1.1,5.2-1.7L408.7,236.4z M411.2,231.6h1.6v1.4h-1.6V231.6z M411.2,228.7h1.6v1.3h-1.6V228.7z M416,230.1h-1.6v-1.3
			h1.6V230.1z M416,232.9h-1.6v-1.4h1.6V232.9z M414.6,239.2v-1.5h3.4v-1.7h-3.4v-1.4h3.2v-7.4h-8.3v7.4h3.2v1.4h-3.3v1.7h3.3v1.5
			h-4.4v1.7h10.3v-1.7H414.6z M429.1,229.4c-0.8,0.8-1.7,1.4-2.6,1.9c-0.6-0.6-1.2-1.1-1.8-1.6c0.2-0.1,0.3-0.2,0.5-0.3H429.1z
			 M430.9,227.7l-0.3,0.1h-3.4c0.3-0.3,0.6-0.6,0.9-0.9l-2-0.5c-1.5,1.6-3.4,2.8-5.6,3.6c0.5,0.4,0.9,0.8,1.3,1.4
			c0.5-0.2,1-0.5,1.5-0.7c0.5,0.5,1.1,0.9,1.6,1.4c-1.5,0.6-3.1,1-4.7,1.2c0.4,0.5,0.7,1.1,0.9,1.7c4.6-0.9,9.2-2.8,11.2-6.5
			L430.9,227.7z M431.3,235.3c-0.7,0.9-1.7,1.7-2.7,2.2c-0.6-0.6-1.2-1.1-1.9-1.6c0.3-0.2,0.6-0.4,0.9-0.6H431.3z M432.9,233.6
			l-0.4,0.1h-2.9c0.4-0.4,0.7-0.7,1-1.1l-2.1-0.5c-1.8,2-4.1,3.5-6.7,4.1c0.5,0.4,0.9,0.9,1.2,1.5c0.7-0.2,1.4-0.5,2.1-0.9
			c0.6,0.5,1.2,1,1.7,1.5c-2.2,0.7-4.6,1.2-6.9,1.3c0.3,0.6,0.6,1.2,0.8,1.8c6.1-0.6,11.3-2.3,13.6-7.1L432.9,233.6z M438.9,226.5
			c-0.8,2.2-2,4.3-3.6,6c0.4,0.6,0.7,1.3,1,2c0.3-0.4,0.6-0.8,1-1.2v8h1.8v-10.9c0.6-1.1,1.1-2.2,1.6-3.4L438.9,226.5z M450.4,234.2
			h-4.1v-2.8h3.3v-1.9h-3.3v-2.9h-1.9v2.9h-1.3c0.2-0.6,0.3-1.2,0.5-1.8l-1.8-0.4c-0.3,1.8-0.9,3.6-1.9,5.2c0.6,0.3,1.1,0.6,1.6,0.9
			c0.4-0.7,0.7-1.3,1-2.1h2v2.8h-4.3v1.9h4.3v5.4h1.9V236h4.1L450.4,234.2z M462.8,237.7h-2.9v-0.8h2.9V237.7z M459.9,234.8h2.9v0.7
			h-2.9V234.8z M455.5,231.6v-0.8h2.5v0.8H455.5z M462.5,230.8v0.8h-2.6v-0.8H462.5z M466.4,235.5h-1.7v-2h-4.8v-0.7h4.5v-3.2h-4.5
			V229h6.1v-1.5h-6.1v-1H458v1h-6v1.5h6v0.7h-4.3v3.2h4.3v0.7h-4.7v1.3h4.7v0.7h-6.3v1.5h6.3v0.8h-4.9v1.4h4.9v0.5
			c0,0.3-0.1,0.4-0.4,0.4c-0.3,0-1.2,0-2,0c0.3,0.5,0.5,1,0.6,1.5c1,0.1,1.9,0,2.8-0.3c0.6-0.3,0.8-0.7,0.8-1.6v-0.5h2.9v0.7h1.9
			v-2.8h1.7L466.4,235.5z"/>
		<path id="Rectangle_2239" class="st1" d="M254.1,258h258.8c1.1,0,2,0.9,2,2v16c0,1.1-0.9,2-2,2H254.1c-1.1,0-2-0.9-2-2v-16
			C252.1,258.9,253,258,254.1,258z"/>
		<path id="Rectangle_2238" class="st0" d="M254.1,258h145.7l0,0v20l0,0H254.1c-1.1,0-2-0.9-2-2v-16C252.1,258.9,253,258,254.1,258z
			"/>
		<line id="Line_321" class="st2" x1="486.5" y1="258.5" x2="486.5" y2="278.5"/>
		<path id="內文p-2" class="st0" d="M481.3,236.2v2.6h-6.8v-2.6H481.3z M472.6,241.4h2v-0.8h6.8v0.8h2v-7h-10.8V241.4z
			 M479.3,228.9c0.6,0.6,1.2,1.3,1.9,2l-6.6,0.2c1.3-1.2,2.5-2.6,3.5-4.1l-1.9-0.8c-0.9,1.6-2.1,3.1-3.4,4.4
			c-0.4,0.4-0.8,0.7-1.3,0.9c0.2,0.6,0.5,1.2,0.6,1.8c0.8-0.3,2-0.3,10.5-0.7c0.3,0.4,0.6,0.8,0.8,1.2l1.6-1.2
			c-1.2-1.7-2.6-3.3-4.2-4.7L479.3,228.9z M501.4,231.7c-0.2-0.6-0.4-1.2-0.7-1.7l-0.8,0.3c0.1,0.1,0.1,0.3,0.2,0.4l-0.9,0.1
			c0.6-0.7,1.2-1.5,1.7-2.4l-1-0.4c-0.1,0.2-0.2,0.5-0.4,0.7l-0.7,0c0.4-0.5,0.7-1.1,1-1.7l-1-0.4c-0.2,0.7-0.5,1.4-1,2
			c-0.2,0.2-0.3,0.4-0.5,0.4c0.1,0.2,0.3,0.5,0.4,0.8c0.4-0.1,0.8-0.2,1.3-0.2c-0.2,0.3-0.5,0.7-0.8,1c-0.2,0.3-0.4,0.5-0.8,0.6
			c0.2,0.2,0.3,0.5,0.4,0.8c0.9-0.3,1.8-0.4,2.7-0.5c0.1,0.2,0.1,0.4,0.2,0.5L501.4,231.7z M499.9,234.3c0-0.7-0.2-1.3-0.4-1.9
			l-0.8,0.2c0.2,0.7,0.3,1.3,0.3,2L499.9,234.3z M497.7,232.3c-0.1,0.6-0.2,1.2-0.5,1.8c0.3,0.2,0.5,0.3,0.8,0.6
			c0.3-0.7,0.6-1.4,0.7-2.1L497.7,232.3z M497.4,228h-1.6l0.6-0.2c-0.2-0.4-0.4-0.8-0.6-1.2l-1.2,0.3c0.2,0.4,0.4,0.7,0.5,1.1h-1.5
			v1h3.8L497.4,228z M497.1,230.7h-3v0.9h3V230.7z M495.1,232.8h0.8v0.7h-0.8V232.8z M494,234.4h3.1V232H494L494,234.4z
			 M497.1,229.4h-3v0.9h3V229.4z M493.8,231.6c-0.2-0.6-0.4-1.1-0.7-1.7l-0.8,0.3c0.1,0.1,0.1,0.3,0.2,0.4l-0.9,0.1
			c0.7-0.7,1.2-1.5,1.7-2.3l-1-0.5c-0.1,0.2-0.2,0.5-0.4,0.7l-0.7,0c0.4-0.5,0.7-1.1,1-1.7l-1-0.4c-0.2,0.7-0.5,1.4-1,2
			c-0.1,0.2-0.3,0.4-0.5,0.4c0.2,0.2,0.3,0.5,0.4,0.8c0.4-0.1,0.8-0.2,1.2-0.2c-0.2,0.4-0.5,0.7-0.8,1c-0.3,0.3-0.5,0.5-0.8,0.5
			c0.1,0.3,0.3,0.5,0.4,0.8c0.9-0.3,1.8-0.4,2.7-0.5c0.1,0.2,0.1,0.3,0.1,0.5L493.8,231.6z M493.7,233.7c-0.1-0.6-0.3-1.1-0.5-1.6
			l-0.7,0.3c0.2,0.5,0.4,1.1,0.4,1.7L493.7,233.7z M492.4,234.2c0-0.6-0.1-1.2-0.3-1.8l-0.8,0.2c0.2,0.6,0.3,1.2,0.3,1.9
			L492.4,234.2z M490.2,228.3c-0.7-0.6-1.5-1.2-2.3-1.6l-1.1,1.3c0.8,0.5,1.6,1.1,2.2,1.8L490.2,228.3z M489.8,232.3
			c-0.7-0.6-1.5-1.1-2.4-1.5l-1,1.3c0.8,0.4,1.6,1,2.3,1.6L489.8,232.3z M488.5,241.2c0.6-1.6,1.3-3.4,1.8-5.1l-1.5-1
			c-0.6,1.7-1.2,3.5-2,5.1L488.5,241.2z M490.1,232.4c-0.1,0.6-0.2,1.2-0.5,1.8c0.3,0.2,0.5,0.4,0.8,0.6c0.3-0.7,0.5-1.4,0.7-2.1
			L490.1,232.4z M492.8,238l0.1-0.5h7.1v-2.6H491v1.1h7.3v0.5h-6.8c-0.2,0.9-0.4,1.8-0.7,2.7h8.1c-0.1,0.3-0.2,0.6-0.5,0.8
			c-0.2,0.1-0.5,0.2-0.7,0.1c-0.4,0-1.5,0-2.4-0.1c0.3,0.4,0.5,0.9,0.5,1.4c1,0,2,0,2.5,0c0.5,0,1-0.1,1.5-0.4
			c0.6-0.7,0.9-1.5,1-2.3c0.1-0.2,0.1-0.4,0.1-0.7H492.8z M500,232.4c0.3,0.6,0.4,1.3,0.5,2l0.8-0.4c-0.1-0.7-0.3-1.3-0.6-1.9
			L500,232.4z M506.4,240.2c2.2,0.1,4.1-1.6,4.1-3.8c0-0.1,0-0.2,0-0.3c0.2-1.9-1.2-3.6-3.1-3.8c-0.2,0-0.4,0-0.6,0
			c-0.5,0-1,0.1-1.4,0.3l0.2-2.5h4.3v-2h-6.3l-0.3,5.7l1.1,0.7c0.5-0.4,1.1-0.6,1.8-0.6c1.1-0.1,2,0.8,2,1.8c0,0.1,0,0.2,0,0.3
			c0.1,1.1-0.7,2.1-1.8,2.2c-0.1,0-0.2,0-0.3,0c-1,0-1.9-0.5-2.6-1.2l-1.1,1.5C503.5,239.7,504.9,240.3,506.4,240.2z M514.4,240h2.4
			c0.2-4.6,0.6-7.1,3.3-10.4v-1.4h-7.9v2h5.3C515.3,233.3,514.6,235.9,514.4,240z M524.2,235.4c1.7,0,2.9-1.4,2.9-3.8
			c0-2.4-1.2-3.7-2.9-3.7s-2.9,1.4-2.9,3.7C521.4,234,522.5,235.4,524.2,235.4z M524.2,234.1c-0.7,0-1.2-0.7-1.2-2.4
			s0.5-2.4,1.2-2.4s1.2,0.7,1.2,2.4S524.9,234.1,524.2,234.1z M524.6,240.2h1.4l6.4-12.3h-1.4L524.6,240.2z M532.8,240.2
			c1.7,0,2.9-1.4,2.9-3.8c0-2.4-1.2-3.7-2.9-3.7c-1.7,0-2.9,1.4-2.9,3.7C530,238.8,531.2,240.2,532.8,240.2z M532.8,238.9
			c-0.7,0-1.2-0.7-1.2-2.4s0.5-2.4,1.2-2.4s1.2,0.7,1.2,2.4S533.5,238.9,532.8,238.9z"/>
		<path id="內文p-3" class="st3" d="M433.9,301.2c2.9,0,5-2.4,5-6.1c0-3.8-2.1-6-5-6s-5,2.3-5,6.1S431,301.2,433.9,301.2z
			 M433.9,299.9c-2.1,0-3.5-1.9-3.5-4.8c0-2.9,1.4-4.8,3.5-4.8c2.1,0,3.5,1.8,3.5,4.8C437.4,298,436,299.9,433.9,299.9L433.9,299.9z
			 M441.5,301h6.9v-1.3H443v-4.3h4.4v-1.3H443v-3.7h5.3v-1.3h-6.8V301z M455.3,301.2c1.4,0,2.7-0.6,3.6-1.7l-0.8-0.9
			c-0.7,0.8-1.7,1.3-2.7,1.3c-2.2,0-3.6-1.9-3.6-4.8c0-2.9,1.5-4.8,3.7-4.8c0.9,0,1.8,0.4,2.4,1.1l0.8-1c-0.8-0.9-2-1.4-3.2-1.5
			c-3,0-5.2,2.3-5.2,6.1C450.2,299,452.4,301.2,455.3,301.2z M461.1,301h3c3.5,0,5.5-2.2,5.5-5.9c0-3.7-1.9-5.8-5.5-5.8h-2.9V301z
			 M462.6,299.8v-9.3h1.3c2.8,0,4.1,1.6,4.1,4.6c0,3-1.4,4.7-4.1,4.7H462.6z M485.6,295.4h-6.6v-5.6h5.7v-1.2h-12.5v1.2h5.6v5.6
			h-6.5v1.2h6.5v5.6h1.2v-5.6h6.6V295.4z M473.3,291c0.6,1.2,1.1,2.4,1.4,3.7l1.1-0.4c-0.4-1.3-0.9-2.5-1.5-3.6L473.3,291z
			 M481.8,294.7c0.7-1.2,1.4-2.5,2-3.8l-1.2-0.4c-0.5,1.3-1,2.6-1.7,3.8L481.8,294.7z M493.4,298.4h5.4v-1.1h-5.4V298.4z
			 M493.7,293.7v1.1h4.8v-1.1L493.7,293.7z M495.2,290.3c0.3-0.8,0.6-1.5,0.9-2.3l-1.2-0.3c-0.5,1.8-1.3,3.5-2.4,5v-1h-1.9V288h-1.2
			v3.7h-2.1v1.1h2.1v5.5c-0.9,0.4-1.7,0.8-2.3,1l0.4,1.2c1.5-0.7,3.5-1.7,5.3-2.6l-0.3-1.1c-0.7,0.3-1.3,0.6-2,0.9v-4.9h1.8
			c-0.2,0.3-0.5,0.6-0.8,0.9c0.3,0.2,0.8,0.5,1.1,0.7c0.8-0.9,1.4-1.9,1.9-2.9h5.7c-0.2,6.4-0.4,8.9-1,9.5c-0.2,0.2-0.4,0.3-0.7,0.3
			c-0.8,0-1.6,0-2.4-0.1c0.2,0.4,0.3,0.8,0.4,1.2c0.8,0.1,1.7,0.1,2.5,0c0.5,0,1-0.2,1.3-0.7c0.6-0.8,0.8-3.3,1.1-10.7
			c0-0.2,0-0.6,0-0.6L495.2,290.3z M505.6,301h1.5c0.2-4.6,0.7-7.3,3.4-10.8v-0.9h-7.3v1.3h5.7C506.7,293.7,505.8,296.6,505.6,301z
			 M515.8,301.2c2.2,0,3.6-2,3.6-6.1c0-4.1-1.4-6-3.6-6c-2.2,0-3.7,2-3.7,6C512.1,299.2,513.6,301.2,515.8,301.2z M515.8,300
			c-1.3,0-2.2-1.5-2.2-4.9c0-3.4,0.9-4.9,2.2-4.9c1.3,0,2.2,1.5,2.2,4.9C518,298.6,517.1,300,515.8,300z M523.5,296.5
			c1.6,0,2.7-1.4,2.7-3.7c0-2.4-1.1-3.7-2.7-3.7c-1.6,0-2.7,1.3-2.7,3.7C520.9,295.1,521.9,296.5,523.5,296.5z M523.5,295.5
			c-0.9,0-1.6-0.9-1.6-2.8s0.6-2.8,1.6-2.8c0.9,0,1.6,0.9,1.6,2.8S524.4,295.5,523.5,295.5z M523.9,301.2h1l6.5-12.2h-1L523.9,301.2
			z M531.7,301.2c1.6,0,2.7-1.3,2.7-3.7c0-2.4-1.1-3.7-2.7-3.7c-1.6,0-2.7,1.3-2.7,3.7C529,299.9,530.1,301.2,531.7,301.2
			L531.7,301.2z M531.7,300.3c-0.9,0-1.6-0.9-1.6-2.8s0.6-2.8,1.6-2.8c0.9,0,1.6,0.9,1.6,2.8S532.6,300.3,531.7,300.3L531.7,300.3z"
			/>
	</g>
	<g id="Union_5" transform="translate(-3904.999 -12227)">
		<path class="st4" d="M4283.6,12476.2l-3.6-7.2h-140c-1.1,0-2-0.9-2-2v-23c0-1.1,0.9-2,2-2h288c1.1,0,2,0.9,2,2v23c0,1.1-0.9,2-2,2
			h-139l-3.6,7.2c-0.2,0.5-0.8,0.7-1.3,0.4C4283.9,12476.6,4283.7,12476.4,4283.6,12476.2L4283.6,12476.2z"/>
		<path class="st0" d="M4284.5,12475.8l3.6-7.2l0.3-0.6h0.6h139c0.6,0,1-0.4,1-1v-23c0-0.6-0.4-1-1-1h-288c-0.6,0-1,0.4-1,1v23
			c0,0.6,0.4,1,1,1h140h0.6l0.3,0.6L4284.5,12475.8 M4284.5,12476.8c-0.4,0-0.7-0.2-0.9-0.6l-3.6-7.2h-140c-1.1,0-2-0.9-2-2v-23
			c0-1.1,0.9-2,2-2h288c1.1,0,2,0.9,2,2v23c0,1.1-0.9,2-2,2h-139l-3.6,7.2C4285.2,12476.6,4284.9,12476.8,4284.5,12476.8z"/>
	</g>
	<g id="Group_2140" transform="translate(0 8)">
		<g id="Group_1780" transform="translate(-20 -19)">
			<path id="Rectangle_2243" class="st1" d="M254.1,382h258.8c1.1,0,2,0.9,2,2v16c0,1.1-0.9,2-2,2H254.1c-1.1,0-2-0.9-2-2v-16
				C252.1,382.9,253,382,254.1,382z"/>
			<path id="Rectangle_2241" class="st0" d="M254.1,382h209l0,0v20l0,0h-209c-1.1,0-2-0.9-2-2v-16C252.1,382.9,253,382,254.1,382z"
				/>
			<path id="Path_1769" class="st2" d="M473.5,382v19.9"/>
			<path id="內文p-4" class="st0" d="M449.3,361.2v2.6h-6.8v-2.6H449.3z M440.6,366.4h2v-0.8h6.8v0.8h2v-7h-10.8V366.4z
				 M447.3,353.9c0.6,0.6,1.2,1.3,1.9,2l-6.6,0.2c1.3-1.2,2.5-2.6,3.5-4.1l-1.9-0.8c-0.9,1.6-2.1,3.1-3.4,4.4
				c-0.4,0.4-0.8,0.7-1.3,0.9c0.2,0.6,0.5,1.2,0.6,1.8c0.8-0.3,2-0.3,10.5-0.7c0.3,0.4,0.6,0.8,0.8,1.2l1.6-1.2
				c-1.2-1.7-2.6-3.3-4.2-4.7L447.3,353.9z M469.4,356.7c-0.2-0.6-0.4-1.2-0.7-1.7l-0.8,0.3c0.1,0.1,0.1,0.3,0.2,0.4l-0.9,0.1
				c0.6-0.7,1.2-1.5,1.7-2.4l-1-0.4c-0.1,0.2-0.2,0.5-0.4,0.7l-0.7,0c0.4-0.5,0.7-1.1,1-1.7l-1-0.4c-0.2,0.7-0.5,1.4-1,2
				c-0.2,0.2-0.3,0.4-0.5,0.4c0.1,0.2,0.3,0.5,0.4,0.8c0.4-0.1,0.8-0.2,1.3-0.2c-0.2,0.3-0.5,0.7-0.8,1c-0.2,0.3-0.4,0.5-0.8,0.6
				c0.2,0.2,0.3,0.5,0.4,0.8c0.9-0.3,1.8-0.4,2.7-0.5c0.1,0.2,0.1,0.4,0.2,0.5L469.4,356.7z M467.9,359.3c0-0.7-0.2-1.3-0.4-1.9
				l-0.8,0.2c0.2,0.7,0.3,1.3,0.3,2L467.9,359.3z M465.7,357.3c-0.1,0.6-0.2,1.2-0.5,1.8c0.3,0.2,0.5,0.3,0.8,0.6
				c0.3-0.7,0.6-1.4,0.7-2.1L465.7,357.3z M465.4,353h-1.6l0.6-0.2c-0.2-0.4-0.4-0.8-0.6-1.2l-1.2,0.3c0.2,0.4,0.4,0.7,0.5,1.1h-1.5
				v1h3.8L465.4,353z M465.1,355.7h-3v0.9h3V355.7z M463.1,357.8h0.8v0.7h-0.8V357.8z M462,359.4h3.1V357H462L462,359.4z
				 M465.1,354.4h-3v0.9h3V354.4z M461.8,356.6c-0.2-0.6-0.4-1.1-0.7-1.7l-0.8,0.3c0.1,0.1,0.1,0.3,0.2,0.4l-0.9,0.1
				c0.7-0.7,1.2-1.5,1.7-2.3l-1-0.5c-0.1,0.2-0.2,0.5-0.4,0.7l-0.7,0c0.4-0.5,0.7-1.1,1-1.7l-1-0.4c-0.2,0.7-0.5,1.4-1,2
				c-0.1,0.2-0.3,0.4-0.5,0.4c0.2,0.2,0.3,0.5,0.4,0.8c0.4-0.1,0.8-0.2,1.2-0.2c-0.2,0.4-0.5,0.7-0.8,1c-0.3,0.3-0.5,0.5-0.8,0.5
				c0.1,0.3,0.3,0.5,0.4,0.8c0.9-0.3,1.8-0.4,2.7-0.5c0.1,0.2,0.1,0.3,0.1,0.5L461.8,356.6z M461.7,358.7c-0.1-0.6-0.3-1.1-0.5-1.6
				l-0.7,0.3c0.2,0.5,0.4,1.1,0.4,1.7L461.7,358.7z M460.4,359.2c0-0.6-0.1-1.2-0.3-1.8l-0.8,0.2c0.2,0.6,0.3,1.2,0.3,1.9
				L460.4,359.2z M458.2,353.3c-0.7-0.6-1.5-1.2-2.3-1.6l-1.1,1.3c0.8,0.5,1.6,1.1,2.2,1.8L458.2,353.3z M457.8,357.3
				c-0.7-0.6-1.5-1.1-2.4-1.5l-1,1.3c0.8,0.4,1.6,1,2.3,1.6L457.8,357.3z M456.5,366.2c0.6-1.6,1.3-3.4,1.8-5.1l-1.5-1
				c-0.6,1.7-1.2,3.5-2,5.1L456.5,366.2z M458.1,357.4c-0.1,0.6-0.2,1.2-0.5,1.8c0.3,0.2,0.5,0.4,0.8,0.6c0.3-0.7,0.5-1.4,0.7-2.1
				L458.1,357.4z M460.8,363l0.1-0.5h7.1v-2.6H459v1.1h7.3v0.5h-6.8c-0.2,0.9-0.4,1.8-0.7,2.7h8.1c-0.1,0.3-0.2,0.6-0.5,0.8
				c-0.2,0.1-0.5,0.2-0.7,0.1c-0.4,0-1.5,0-2.4-0.1c0.3,0.4,0.5,0.9,0.5,1.4c1,0,2,0,2.5,0c0.5,0,1-0.1,1.5-0.4
				c0.6-0.7,0.9-1.5,1-2.3c0.1-0.2,0.1-0.4,0.1-0.7H460.8z M468,357.4c0.3,0.6,0.4,1.3,0.5,2l0.8-0.4c-0.1-0.7-0.3-1.3-0.6-1.9
				L468,357.4z M474.7,365.2c2.4,0,4-1.4,4-3.2c0-1.4-0.8-2.6-2-3.2v-0.1c0.9-0.6,1.5-1.6,1.5-2.7c0-1.7-1.3-3.1-3-3.2
				c-0.1,0-0.3,0-0.4,0c-2.1,0-3.6,1.2-3.6,3.1c0,1.1,0.6,2.2,1.6,2.8v0.1c-1.2,0.5-2,1.8-2,3.1
				C470.8,363.9,472.4,365.2,474.7,365.2L474.7,365.2z M475.5,358.2c-1.2-0.5-2.2-1-2.2-2.2c-0.1-0.8,0.5-1.4,1.3-1.5
				c0.1,0,0.1,0,0.2,0c0.8,0,1.5,0.6,1.6,1.4c0,0.1,0,0.1,0,0.2C476.3,357,476,357.7,475.5,358.2z M474.8,363.6
				c-1,0.1-1.9-0.6-2-1.6c0,0,0-0.1,0-0.1c0-0.9,0.4-1.7,1.1-2.2c1.5,0.6,2.6,1.1,2.6,2.4c0,0.9-0.7,1.6-1.5,1.6
				C474.9,363.6,474.8,363.6,474.8,363.6z M484.1,365.2c2.4,0,4-2.1,4-6.2c0-4.1-1.6-6.1-4-6.1c-2.4,0-4,2-4,6.1
				C480.1,363.1,481.7,365.2,484.1,365.2z M484.1,363.4c-1,0-1.8-1-1.8-4.4c0-3.3,0.8-4.3,1.8-4.3c1,0,1.8,1,1.8,4.3
				C485.9,362.4,485.2,363.4,484.1,363.4z M492.2,360.4c1.7,0,2.9-1.4,2.9-3.8c0-2.4-1.2-3.7-2.9-3.7c-1.7,0-2.9,1.4-2.9,3.7
				C489.4,359,490.5,360.4,492.2,360.4L492.2,360.4z M492.2,359.1c-0.7,0-1.2-0.7-1.2-2.4c0-1.7,0.5-2.4,1.2-2.4
				c0.7,0,1.2,0.7,1.2,2.4C493.5,358.4,492.9,359.1,492.2,359.1L492.2,359.1z M492.6,365.2h1.4l6.4-12.3h-1.4L492.6,365.2z
				 M500.9,365.2c1.7,0,2.9-1.4,2.9-3.8c0-2.4-1.2-3.7-2.9-3.7c-1.7,0-2.9,1.4-2.9,3.7C498,363.8,499.2,365.2,500.9,365.2
				L500.9,365.2z M500.9,363.9c-0.7,0-1.2-0.7-1.2-2.4s0.5-2.4,1.2-2.4c0.7,0,1.2,0.7,1.2,2.4S501.5,363.9,500.9,363.9L500.9,363.9z
				"/>
			<path id="內文p-5" class="st3" d="M431.9,425.2c2.9,0,5-2.4,5-6.1c0-3.8-2.1-6-5-6s-5,2.3-5,6.1S429,425.2,431.9,425.2z
				 M431.9,423.9c-2.1,0-3.5-1.9-3.5-4.8c0-2.9,1.4-4.8,3.5-4.8c2.1,0,3.5,1.8,3.5,4.8C435.4,422,434,423.9,431.9,423.9L431.9,423.9
				z M439.5,425h6.9v-1.3H441v-4.3h4.4v-1.3H441v-3.7h5.3v-1.3h-6.8V425z M453.3,425.2c1.4,0,2.7-0.6,3.6-1.7l-0.8-0.9
				c-0.7,0.8-1.7,1.3-2.7,1.3c-2.2,0-3.6-1.9-3.6-4.8c0-2.9,1.5-4.8,3.7-4.8c0.9,0,1.8,0.4,2.4,1.1l0.8-1c-0.8-0.9-2-1.4-3.2-1.5
				c-3,0-5.2,2.3-5.2,6.1C448.2,423,450.4,425.2,453.3,425.2z M459.1,425h3c3.5,0,5.5-2.2,5.5-5.9c0-3.7-1.9-5.8-5.5-5.8h-2.9V425z
				 M460.6,423.8v-9.3h1.3c2.8,0,4.1,1.6,4.1,4.6c0,3-1.4,4.7-4.1,4.7H460.6z M483.6,419.4h-6.6v-5.6h5.7v-1.2h-12.5v1.2h5.6v5.6
				h-6.5v1.2h6.5v5.6h1.2v-5.6h6.6V419.4z M471.3,415c0.6,1.2,1.1,2.4,1.4,3.7l1.1-0.4c-0.4-1.3-0.9-2.5-1.5-3.6L471.3,415z
				 M479.8,418.7c0.7-1.2,1.4-2.5,2-3.8l-1.2-0.4c-0.5,1.3-1,2.6-1.7,3.8L479.8,418.7z M491.4,422.4h5.4v-1.1h-5.4V422.4z
				 M491.7,417.7v1.1h4.8v-1.1L491.7,417.7z M493.2,414.3c0.3-0.8,0.6-1.5,0.9-2.3l-1.2-0.3c-0.5,1.8-1.3,3.5-2.4,5v-1h-1.9V412
				h-1.2v3.7h-2.1v1.1h2.1v5.5c-0.9,0.4-1.7,0.8-2.3,1l0.4,1.2c1.5-0.7,3.5-1.7,5.3-2.6l-0.3-1.1c-0.7,0.3-1.3,0.6-2,0.9v-4.9h1.8
				c-0.2,0.3-0.5,0.6-0.8,0.9c0.3,0.2,0.8,0.5,1.1,0.7c0.8-0.9,1.4-1.9,1.9-2.9h5.7c-0.2,6.4-0.4,8.9-1,9.5
				c-0.2,0.2-0.4,0.3-0.7,0.3c-0.8,0-1.6,0-2.4-0.1c0.2,0.4,0.3,0.8,0.4,1.2c0.8,0.1,1.7,0.1,2.5,0c0.5,0,1-0.2,1.3-0.7
				c0.6-0.8,0.8-3.3,1.1-10.7c0-0.2,0-0.6,0-0.6L493.2,414.3z M504.9,425.2c2.2,0,3.7-1.3,3.7-3c0-1.3-0.8-2.5-2-3.1V419
				c0.9-0.7,1.5-1.7,1.6-2.8c-0.1-1.8-1.6-3.2-3.4-3.1c-1.6,0.1-3,1.3-3.1,3c0,1.1,0.6,2.1,1.6,2.7v0.1c-1.3,0.6-2.1,1.8-2.2,3.2
				C501.2,423.9,502.8,425.2,504.9,425.2z M505.7,418.6c-1.4-0.5-2.6-1.2-2.6-2.6c-0.1-1,0.7-1.8,1.7-1.9c0.1,0,0.1,0,0.2,0
				c1.1,0,2,0.8,2,1.9c0,0.1,0,0.1,0,0.2C506.9,417.2,506.5,418.1,505.7,418.6z M505,424.1c-1.2,0.1-2.3-0.8-2.4-2c0,0,0-0.1,0-0.1
				c0-1.1,0.6-2.1,1.6-2.7c1.7,0.7,3.1,1.3,3.1,2.8c0,1.1-0.9,2-2.1,2C505.1,424.1,505,424.1,505,424.1z M511.2,420.6l2.7-4
				c0.3-0.6,0.7-1.2,0.9-1.7h0.1c0,0.6-0.1,1.6-0.1,2.1v3.6H511.2z M514.8,425h1.4v-3.2h1.6v-1.2h-1.6v-7.3h-1.6l-4.9,7.6v1h5.1V425
				z M521.5,420.5c1.6,0,2.7-1.4,2.7-3.7c0-2.4-1.1-3.7-2.7-3.7c-1.6,0-2.7,1.3-2.7,3.7C518.9,419.1,519.9,420.5,521.5,420.5z
				 M521.5,419.5c-0.9,0-1.6-0.9-1.6-2.8s0.6-2.8,1.6-2.8c0.9,0,1.6,0.9,1.6,2.8S522.4,419.5,521.5,419.5z M521.9,425.2h1l6.5-12.2
				h-1L521.9,425.2z M529.7,425.2c1.6,0,2.7-1.3,2.7-3.7c0-2.4-1.1-3.7-2.7-3.7c-1.6,0-2.7,1.3-2.7,3.7
				C527,423.9,528.1,425.2,529.7,425.2L529.7,425.2z M529.7,424.3c-0.9,0-1.6-0.9-1.6-2.8s0.6-2.8,1.6-2.8c0.9,0,1.6,0.9,1.6,2.8
				S530.6,424.3,529.7,424.3L529.7,424.3z"/>
			<g id="Group_1778" transform="translate(-90 -9)">
				<g class="st5">
					<path class="st0" d="M356.6,373.6c0,0.8-0.1,1.2-0.7,1.4c-0.5,0.2-1.2,0.3-2.2,0.3c-0.1-0.4-0.3-1.1-0.6-1.5c0.6,0,1.2,0,1.4,0
						c0.2,0,0.3-0.1,0.3-0.3V372c-0.8,0.6-1.6,1.1-2.3,1.6l-0.4-1.1c-0.2,1.1-0.5,2.2-1.1,3c-0.3-0.4-1-1.1-1.3-1.3
						c0.8-1.2,0.9-3,0.9-4.4v-3.6h6.1V373.6z M355.7,361.6c0.7,1.2,1.5,2.7,1.9,3.7l-1.7,0.7c-0.1-0.3-0.2-0.6-0.4-1
						c-4,0.4-4.7,0.5-5.2,0.7c-0.1-0.4-0.4-1.2-0.6-1.7c0.3-0.1,0.6-0.3,0.9-0.6c0.3-0.4,1.3-1.6,1.9-2.8l1.9,0.5
						c-0.5,0.9-1.3,1.9-2,2.7l2.3-0.2c-0.2-0.5-0.5-0.9-0.7-1.3L355.7,361.6z M352.3,369.8c0,0.6,0,1.3-0.1,2
						c0.7-0.3,1.7-0.8,2.6-1.3V370l-0.8,0.8c-0.4-0.4-1.1-1-1.7-1.5V369.8z M352.3,367.8v1.1l0.8-0.7c0.5,0.4,1.2,0.9,1.7,1.4v-1.8
						H352.3z M360.2,367.5c-1.9,0-2.4-0.7-2.4-2.5v-4.5h1.9v1.9h3.9v1.6h-3.9v1.1c0,0.6,0.1,0.8,0.6,0.8h2.3c0.4,0,1.1,0,1.5-0.1
						c0,0.5,0.1,1.2,0.2,1.6c-0.3,0.1-1,0.1-1.6,0.1H360.2z M362.2,373.6c0.5,0,0.7-0.3,0.7-1.7c0.4,0.3,1.2,0.6,1.6,0.7
						c-0.2,2.1-0.7,2.7-2.2,2.7h-2.3c-1.9,0-2.4-0.6-2.4-2.3v-5h1.9v1.6h4v1.7h-4v1.7c0,0.6,0.1,0.6,0.7,0.6H362.2z"/>
					<path class="st0" d="M380.1,362.7v1.8h-8.6c-0.5,1.1-1.1,2.2-1.9,3.2v7.7h-1.9v-5.6c-0.4,0.4-0.9,0.8-1.4,1.1
						c-0.2-0.5-0.6-1.4-0.9-1.8c1.7-1.1,3-2.8,4-4.6h-3.5v-1.8h4.3c0.3-0.8,0.5-1.5,0.7-2.2l2,0.5c-0.2,0.6-0.4,1.2-0.6,1.7H380.1z
						 M376.3,373.2h3.8v1.8h-9.6v-1.8h3.9v-3.6h-3.2v-1.8h3.2v-2.7h1.9v2.7h3.2v1.8h-3.2V373.2z"/>
					<path class="st0" d="M386,372c0.8,0.5,2.2,1.5,2.6,1.8l-1.1,1.4c-0.5-0.5-1.4-1.3-2.2-1.9c-0.5,0.9-1.4,1.6-2.6,2.2
						c-0.2-0.4-0.8-1-1.2-1.2c1.3-0.6,2.1-1.4,2.6-2.2h-2.3v-1.3h2.8c0-0.2,0.1-0.4,0.1-0.6h-2.4v-1.3h2.4v-0.6h-2.4v-3h2.4v-0.6
						h-1.6v-1.9h-1.2v-1.3h1.2v-1h1.6v1h1.7v-1h1.7v1h1.1v1.3H388v1.9h-1.7v0.6h2.4v3h-2.4v0.6h2.4v1.3h-2.4c0,0.2,0,0.4-0.1,0.6
						h2.9v1.3H386z M384.6,367.2v-0.8h-1v0.8H384.6z M384.6,362.8v0.7h1.7v-0.7H384.6z M386.2,366.4v0.8h1v-0.8H386.2z M396.5,369.8
						c-0.7,0.5-1.4,1.1-2,1.5c0.5,1.1,1.2,2,2.2,2.6c-0.4,0.4-1,1-1.2,1.6c-0.9-0.6-1.6-1.4-2.1-2.4c0,0.4,0,0.8,0.1,1
						c-2.9,0.7-3.5,0.9-3.9,1.2c-0.1-0.5-0.4-1.4-0.7-1.9c0.3-0.1,0.6-0.4,0.6-1V361h6.3v7.3h-2.3c0.1,0.6,0.2,1.1,0.4,1.6
						c0.5-0.4,1-0.9,1.4-1.3L396.5,369.8z M391.3,362.7v1.1h2.6v-1.1H391.3z M393.9,366.5v-1.1h-2.6v1.1H393.9z M393,372.4
						c-0.5-1.2-0.9-2.6-1.2-4.2h-0.6v4.5L393,372.4z"/>
					<path class="st0" d="M411.8,361.1v14.3h-2v-0.7h-9.7v0.7h-1.9v-14.3H411.8z M409.9,373v-10.1h-9.7V373H409.9z M406.1,366.9
						c1.3,1.1,2.8,2.4,3.6,3.2l-1.1,1.3c-0.6-0.7-1.6-1.7-2.7-2.7v3.7h-1.8v-4c-0.8,1.2-1.7,2.3-2.8,3.1c-0.3-0.4-0.8-1-1.2-1.4
						c1.2-0.7,2.4-1.9,3.1-3.3h-2.5v-1.7h3.3v-1.9h1.8v1.9h3.4v1.7H406.1z"/>
					<path class="st0" d="M421.7,369.1c-0.3,1.5-0.7,2.8-1.4,3.7c1,0.6,2.3,0.8,3.8,0.8c0.7,0,3.6,0,4.4,0c-0.2,0.4-0.5,1.1-0.6,1.6
						h-4c-2,0-3.5-0.2-4.7-1.2c-0.7,0.6-1.6,1.1-2.6,1.5c-0.2-0.4-0.5-1-0.8-1.3c0.9-0.3,1.7-0.7,2.4-1.3c-0.2-0.3-0.4-0.7-0.6-1.1
						c-0.2,0.3-0.4,0.6-0.7,0.8c-0.1-0.2-0.4-0.5-0.7-0.8c-0.3,1.4-0.7,2.7-1.3,3.7c-0.3-0.3-1.1-0.9-1.5-1.1
						c1.3-2.1,1.4-5.1,1.4-7.2v-3.7h5v-2.9h1.9v0.8h5.1v1.3h-5.1v0.7h4.8l0.3-0.1l1.3,0.3c-0.3,1-0.7,2.1-1.1,2.9l-1.6-0.4
						c0.1-0.3,0.3-0.8,0.4-1.2h-4.3v0.6l3.7-0.2l0,1.2l-3.7,0.2c0,0.4,0.1,0.5,0.7,0.5h3.1c0.6,0,1.6,0,2-0.1c0,0.5,0.1,1,0.2,1.4
						c-0.4,0.1-1.2,0.1-2,0.1h-3.5c-1.7,0-2.2-0.5-2.2-1.8l-2.6,0.1l-0.1-1.2l2.7-0.1v-0.7h-3.2v2.3c0,1.1,0,2.4-0.2,3.7
						c0.8-0.8,1.4-2,1.8-3.1l1.4,0.4c-0.1,0.3-0.2,0.6-0.3,0.8h1.2l0.3,0L421.7,369.1z M418.6,370.4c0.2,0.5,0.4,1,0.6,1.4
						c0.3-0.5,0.5-1,0.7-1.6h-1.2L418.6,370.4z M426,373.1c-1,0-1.3-0.3-1.3-1.4v-1.3h-0.9c0,1.1-0.4,2.3-1.5,3.1
						c-0.2-0.3-0.9-0.8-1.2-1c1-0.7,1.2-1.6,1.2-2.4v-1.1h3.8v2.7c0,0.4,0,0.4,0.2,0.4h0.3c0.2,0,0.2-0.2,0.3-1.2
						c0.3,0.2,0.8,0.4,1.1,0.4c-0.1,1.3-0.4,1.7-1.2,1.7H426z"/>
					<path class="st0" d="M434.9,371.5c-1.6,0.7-3.5,1.4-4.9,2l-0.6-2c0.5-0.2,1.2-0.4,1.8-0.6V366h-1.6v-1.8h1.6v-3.6h1.9v3.6h1.4
						v1.8h-1.4v4.3c0.5-0.2,1-0.4,1.5-0.5L434.9,371.5z M442.3,373.7c0.1,0,0.2,0,0.3,0s0.1-0.1,0.2-0.3c0-0.2,0-0.6,0.1-1.2
						c0.3,0.3,1,0.6,1.5,0.8c0,0.6-0.1,1.2-0.2,1.5c-0.1,0.3-0.4,0.5-0.7,0.6c-0.2,0.1-0.7,0.1-1,0.1h-1c-0.4,0-0.9-0.1-1.2-0.4
						c-0.3-0.3-0.4-0.6-0.4-1.6v-1.9h-1.2c-0.3,2.1-1.1,3.4-4.1,4.2c-0.2-0.4-0.6-1.1-1-1.5c2.5-0.5,3-1.3,3.3-2.7h-1.3v-4.8h7.7
						v4.8h-1.6v2c0,0.2,0,0.3,0.1,0.4c0.1,0,0.2,0.1,0.3,0.1H442.3z M444,365.9h-9.1v-1.6h1.9c-0.1-0.4-0.2-0.7-0.4-1.1l1.5-0.3
						c0.2,0.4,0.4,1,0.5,1.4h1.8c0.2-0.4,0.4-1,0.5-1.4l1.7,0.3c-0.2,0.4-0.4,0.7-0.5,1h2V365.9z M443.5,362.9h-8.2v-1.5h3.2
						c-0.1-0.3-0.2-0.5-0.3-0.8l1.8-0.3c0.1,0.3,0.3,0.7,0.4,1.1h3.1V362.9z M437.3,368.3h4.1v-0.7h-4.1V368.3z M437.3,370.1h4.1
						v-0.7h-4.1V370.1z"/>
					<path class="st0" d="M459.6,363.2v8h-2v-0.8H454v5h-2v-5h-3.6v0.9h-1.9v-8.1h5.5v-2.8h2v2.8H459.6z M452,368.5v-3.4h-3.6v3.4
						H452z M457.6,368.5v-3.4H454v3.4H457.6z"/>
					<path class="st0" d="M467.4,368.9c-0.6,0.2-1.2,0.3-1.9,0.5v3.8c0,0.9-0.2,1.4-0.7,1.7c-0.5,0.3-1.3,0.4-2.4,0.4
						c-0.1-0.5-0.3-1.2-0.5-1.7c0.6,0,1.3,0,1.5,0c0.2,0,0.3-0.1,0.3-0.3v-3.3l-1.7,0.4l-0.5-1.8c0.6-0.1,1.4-0.3,2.2-0.5v-2.8h-2
						v-1.8h2v-3h1.9v3h1.7v1.8h-1.7v2.3l1.6-0.4L467.4,368.9z M475.6,367.2c-0.7,1.5-1.7,3-2.9,4.3c0.4,0.9,1,1.4,1.6,1.5
						c0.4,0,0.6-0.7,0.7-2.4c0.4,0.4,1.2,0.9,1.6,1.1c-0.4,3-1.3,3.7-2.2,3.6c-1.4-0.1-2.4-1-3.2-2.4c-0.9,0.8-2,1.5-3,2
						c-0.4-0.5-1-1.1-1.5-1.5c1.4-0.5,2.6-1.3,3.8-2.3c-0.4-1.3-0.7-2.9-0.9-4.8l-2,0.2l-0.2-1.8l2-0.2c-0.1-1.2-0.2-2.6-0.2-4h2
						c0,1.3,0.1,2.6,0.2,3.8l4.8-0.5l0.2,1.8l-4.8,0.5c0.1,1.2,0.3,2.4,0.6,3.3c0.8-1,1.5-2.1,2-3.2L475.6,367.2z M473.8,364
						c-0.4-0.7-1.4-1.7-2-2.4l1.4-0.9c0.7,0.7,1.7,1.7,2.1,2.3L473.8,364z"/>
					<path class="st0" d="M483.1,372.2c1-0.2,2-0.4,3.1-0.5l0.1,1.6c-2.8,0.5-5.8,1.1-8,1.5l-0.4-1.8c1-0.1,2.2-0.3,3.5-0.5v-2.2
						h-2.9v-1.6h2.9v-1.4h1.8v1.4h2.9v1.6h-2.9V372.2z M478,361.4h8.3v1.6h-2.3c0.8,1,1.8,2.5,2.2,3.4l-1.4,0.9
						c-0.1-0.2-0.2-0.5-0.4-0.8c-4.4,0.4-5.1,0.4-5.6,0.6c-0.1-0.4-0.4-1.2-0.6-1.7c0.2-0.1,0.5-0.3,0.7-0.7c0.2-0.2,0.6-1,1-1.8h-2
						V361.4z M483.6,365.1c-0.3-0.5-0.6-0.9-0.9-1.3l1.3-0.8h-1.9c-0.4,0.8-0.9,1.6-1.4,2.3L483.6,365.1z M488.7,371.6H487v-9.7h1.8
						V371.6z M491.9,360.6V373c0,1-0.2,1.5-0.8,1.8c-0.6,0.3-1.5,0.4-2.8,0.4c-0.1-0.5-0.4-1.3-0.6-1.8c0.8,0,1.7,0,2,0
						s0.4-0.1,0.4-0.4v-12.4H491.9z"/>
					<path class="st0" d="M507.5,368.4v6.9h-2.1v-0.9h-11v-6.1h2.1v4.2h3.4v-5h-4.7v-5.8h2v4h2.6v-5.3h2.1v5.3h2.8v-4h2.1v5.8H502v5
						h3.4v-4.2H507.5z"/>
					<path class="st0" d="M523.6,362.4c-0.5,1.7-1.2,3.1-2.2,4.3c0.9,0.7,2,1.4,3.3,1.8c-0.4,0.4-0.9,1.1-1.2,1.6l0,0v5.2h-1.8v-0.5
						h-3v0.5h-1.8v-5.2l-0.4,0.2c-0.1-0.3-0.4-0.6-0.6-0.9v0.5h-1.8v2.1l1.9-0.4l0.2,1.7c-2.2,0.6-4.7,1.1-6.5,1.5l-0.3-1.8l0.7-0.1
						v-5.4h1.6v5.1l0.8-0.2v-6h-2.2V361h5.5v4c1.2-1.1,2.1-2.8,2.7-4.6l1.8,0.4c-0.1,0.4-0.3,0.7-0.4,1.1h2.2l0.3-0.1L523.6,362.4z
						 M511.9,364.7h2.1v-2h-2.1L511.9,364.7z M516,368.7c1.1-0.5,2.2-1.2,3.1-2c-0.4-0.5-0.7-0.9-1-1.4c-0.3,0.4-0.6,0.8-0.9,1.1
						c-0.3-0.3-0.8-0.8-1.3-1.1v1h-1.6v1.9h1.8V368.7z M522.2,369.5c-0.7-0.4-1.4-0.9-2-1.5c-0.6,0.6-1.3,1-2,1.5H522.2z
						 M521.7,373.2v-2.1h-3v2.1H521.7z M519.1,363.6l-0.1,0.2c0.3,0.5,0.7,1.1,1.2,1.6c0.5-0.6,0.8-1.2,1.2-1.9H519.1z"/>
				</g>
			</g>
		</g>
		<g id="Union_6" transform="translate(-3904.999 -12116)">
			<path class="st4" d="M4283.6,12476.2l-3.6-7.2h-140c-1.1,0-2-0.9-2-2v-23c0-1.1,0.9-2,2-2h254c1.1,0,2,0.9,2,2v23
				c0,1.1-0.9,2-2,2h-105l-3.6,7.2c-0.2,0.5-0.8,0.7-1.3,0.4C4283.9,12476.6,4283.7,12476.4,4283.6,12476.2L4283.6,12476.2z"/>
			<path class="st0" d="M4284.5,12475.8l3.6-7.2l0.3-0.6h0.6h105c0.6,0,1-0.4,1-1v-23c0-0.6-0.4-1-1-1h-254c-0.6,0-1,0.4-1,1v23
				c0,0.6,0.4,1,1,1h140h0.6l0.3,0.6L4284.5,12475.8 M4284.5,12476.8c-0.4,0-0.7-0.2-0.9-0.6l-3.6-7.2h-140c-1.1,0-2-0.9-2-2v-23
				c0-1.1,0.9-2,2-2h254c1.1,0,2,0.9,2,2v23c0,1.1-0.9,2-2,2h-105l-3.6,7.2C4285.2,12476.6,4284.9,12476.8,4284.5,12476.8z"/>
		</g>
	</g>
	<g id="Group_2139" transform="translate(0 8)">
		<g id="Group_1781" transform="translate(-20 -9)">
			<path id="內文p-7" class="st0" d="M488.9,471.2v2.6h-6.8v-2.6H488.9z M480.1,476.4h2v-0.8h6.8v0.8h2v-7h-10.8V476.4z
				 M486.8,463.9c0.6,0.6,1.2,1.3,1.9,2l-6.6,0.2c1.3-1.2,2.5-2.6,3.5-4.1l-1.9-0.8c-0.9,1.6-2.1,3.1-3.4,4.4
				c-0.4,0.4-0.8,0.7-1.3,0.9c0.2,0.6,0.5,1.2,0.6,1.8c0.8-0.3,2-0.3,10.5-0.7c0.3,0.4,0.6,0.8,0.8,1.2l1.6-1.2
				c-1.2-1.7-2.6-3.3-4.2-4.7L486.8,463.9z M508.9,466.7c-0.2-0.6-0.4-1.2-0.7-1.7l-0.8,0.3c0.1,0.1,0.1,0.3,0.2,0.4l-0.9,0.1
				c0.6-0.7,1.2-1.5,1.7-2.4l-1-0.4c-0.1,0.2-0.2,0.5-0.4,0.7l-0.7,0c0.4-0.5,0.7-1.1,1-1.7l-1-0.4c-0.2,0.7-0.5,1.4-1,2
				c-0.2,0.2-0.3,0.4-0.5,0.4c0.1,0.2,0.3,0.5,0.4,0.8c0.4-0.1,0.8-0.2,1.3-0.2c-0.2,0.3-0.5,0.7-0.8,1c-0.2,0.3-0.4,0.5-0.8,0.6
				c0.2,0.2,0.3,0.5,0.4,0.8c0.9-0.3,1.8-0.4,2.7-0.5c0.1,0.2,0.1,0.4,0.2,0.5L508.9,466.7z M507.4,469.3c0-0.7-0.2-1.3-0.4-1.9
				l-0.8,0.2c0.2,0.7,0.3,1.3,0.3,2L507.4,469.3z M505.2,467.3c-0.1,0.6-0.2,1.2-0.5,1.8c0.3,0.2,0.5,0.3,0.8,0.6
				c0.3-0.7,0.6-1.4,0.7-2.1L505.2,467.3z M504.9,463h-1.6l0.6-0.2c-0.2-0.4-0.4-0.8-0.6-1.2l-1.2,0.3c0.2,0.4,0.4,0.7,0.5,1.1h-1.5
				v1h3.8L504.9,463z M504.6,465.7h-3v0.9h3V465.7z M502.6,467.8h0.8v0.7h-0.8V467.8z M501.5,469.4h3.1V467h-3.1L501.5,469.4z
				 M504.6,464.4h-3v0.9h3V464.4z M501.4,466.6c-0.2-0.6-0.4-1.1-0.7-1.7l-0.8,0.3c0.1,0.1,0.1,0.3,0.2,0.4l-0.9,0.1
				c0.7-0.7,1.2-1.5,1.7-2.3l-1-0.5c-0.1,0.2-0.2,0.5-0.4,0.7l-0.7,0c0.4-0.5,0.7-1.1,1-1.7l-1-0.4c-0.2,0.7-0.5,1.4-1,2
				c-0.1,0.2-0.3,0.4-0.5,0.4c0.2,0.2,0.3,0.5,0.4,0.8c0.4-0.1,0.8-0.2,1.2-0.2c-0.2,0.4-0.5,0.7-0.8,1c-0.3,0.3-0.5,0.5-0.8,0.5
				c0.1,0.3,0.3,0.5,0.4,0.8c0.9-0.3,1.8-0.4,2.7-0.5c0.1,0.2,0.1,0.3,0.1,0.5L501.4,466.6z M501.2,468.7c-0.1-0.6-0.3-1.1-0.5-1.6
				l-0.7,0.3c0.2,0.5,0.4,1.1,0.4,1.7L501.2,468.7z M499.9,469.2c0-0.6-0.1-1.2-0.3-1.8l-0.8,0.2c0.2,0.6,0.3,1.2,0.3,1.9
				L499.9,469.2z M497.7,463.3c-0.7-0.6-1.5-1.2-2.3-1.6l-1.1,1.3c0.8,0.5,1.6,1.1,2.2,1.8L497.7,463.3z M497.4,467.3
				c-0.7-0.6-1.5-1.1-2.4-1.5l-1,1.3c0.8,0.4,1.6,1,2.3,1.6L497.4,467.3z M496,476.2c0.6-1.6,1.3-3.4,1.8-5.1l-1.5-1
				c-0.6,1.7-1.2,3.5-2,5.1L496,476.2z M497.7,467.4c-0.1,0.6-0.2,1.2-0.5,1.8c0.3,0.2,0.5,0.4,0.8,0.6c0.3-0.7,0.5-1.4,0.7-2.1
				L497.7,467.4z M500.4,473l0.1-0.5h7.1v-2.6h-9.1v1.1h7.3v0.5H499c-0.2,0.9-0.4,1.8-0.7,2.7h8.1c-0.1,0.3-0.2,0.6-0.5,0.8
				c-0.2,0.1-0.5,0.2-0.7,0.1c-0.4,0-1.5,0-2.4-0.1c0.3,0.4,0.5,0.9,0.5,1.4c1,0,2,0,2.5,0c0.5,0,1-0.1,1.5-0.4
				c0.6-0.7,0.9-1.5,1-2.3c0.1-0.2,0.1-0.4,0.1-0.7H500.4z M507.5,467.4c0.3,0.6,0.4,1.3,0.5,2l0.8-0.4c-0.1-0.7-0.3-1.3-0.6-1.9
				L507.5,467.4z M512.2,470.1l1.8-2.9c0.3-0.6,0.7-1.3,0.9-1.9h0.1c0,0.7-0.1,1.8-0.1,2.4v2.4H512.2z M518.5,470.1h-1.4v-7h-2.8
				l-4.4,7.2v1.6h5v3.1h2.2v-3.1h1.4V470.1z M523.3,475.2c2.3,0,4.2-1.3,4.2-3.4c0-1.4-1-2.6-2.4-2.9v-0.1c1.2-0.4,2-1.5,2-2.7
				c0-2-1.6-3.2-3.8-3.2c-1.3,0-2.6,0.5-3.6,1.5l1.2,1.4c0.6-0.6,1.4-1,2.2-1.1c0.8-0.1,1.5,0.5,1.6,1.2c0,0.1,0,0.2,0,0.3
				c0,1.1-0.7,1.8-2.9,1.8v1.7c2.6,0,3.3,0.7,3.3,1.9c0,1.1-0.8,1.6-2,1.6c-1,0-2-0.5-2.6-1.2l-1.1,1.5
				C520.4,474.7,521.8,475.3,523.3,475.2z M531.8,470.4c1.7,0,2.9-1.4,2.9-3.8c0-2.4-1.2-3.7-2.9-3.7s-2.9,1.4-2.9,3.7
				C528.9,469,530.1,470.4,531.8,470.4z M531.8,469.1c-0.7,0-1.2-0.7-1.2-2.4c0-1.7,0.5-2.4,1.2-2.4s1.2,0.7,1.2,2.4
				S532.5,469.1,531.8,469.1z M532.2,475.2h1.4l6.4-12.3h-1.4L532.2,475.2z M540.4,475.2c1.7,0,2.9-1.4,2.9-3.8
				c0-2.4-1.2-3.7-2.9-3.7c-1.7,0-2.9,1.4-2.9,3.7C537.5,473.8,538.7,475.2,540.4,475.2z M540.4,473.9c-0.7,0-1.2-0.7-1.2-2.4
				s0.5-2.4,1.2-2.4c0.7,0,1.2,0.7,1.2,2.4C541.6,473.2,541.1,473.9,540.4,473.9z"/>
			<path id="內文p-8" class="st3" d="M426.8,527.4c-0.1-1.6,0.5-3.2,1.5-4.5c1-1.1,2.5-1.7,4-1.6c1,0,2,0.2,2.9,0.8
				c0.8,0.5,1.5,1.2,1.9,2.1c0.5,1,0.7,2,0.7,3.1c0,1.1-0.2,2.1-0.7,3.1c-0.4,0.9-1.1,1.6-2,2.1c-0.9,0.5-1.8,0.7-2.8,0.7
				c-1,0-2-0.3-2.9-0.8c-0.8-0.5-1.5-1.2-1.9-2.1C427,529.4,426.8,528.4,426.8,527.4z M428.3,527.4c-0.1,1.2,0.3,2.4,1.1,3.3
				c0.7,0.8,1.7,1.2,2.8,1.2c1.1,0,2.1-0.4,2.8-1.2c0.8-1,1.2-2.2,1.1-3.4c0-0.8-0.1-1.7-0.5-2.4c-0.3-0.7-0.8-1.2-1.4-1.6
				c-0.6-0.4-1.3-0.6-2-0.6c-1,0-2,0.4-2.8,1.1C428.6,524.8,428.2,526.1,428.3,527.4z M439.7,533v-11.5h8.3v1.4h-6.8v3.5h6.3v1.3
				h-6.3v3.9h7v1.3H439.7z M458.5,529l1.5,0.4c-0.2,1.1-0.8,2.1-1.7,2.8c-0.9,0.7-1.9,1-3,1c-1.1,0-2.1-0.2-3-0.8
				c-0.8-0.5-1.4-1.3-1.8-2.2c-0.4-1-0.6-2-0.6-3.1c0-1.1,0.2-2.2,0.7-3.1c0.4-0.9,1.1-1.6,1.9-2c0.9-0.5,1.8-0.7,2.8-0.7
				c1,0,2,0.3,2.9,0.9c0.8,0.6,1.4,1.5,1.6,2.5l-1.5,0.4c-0.2-0.7-0.6-1.3-1.2-1.8c-0.6-0.4-1.2-0.6-1.9-0.6c-0.8,0-1.6,0.2-2.2,0.6
				c-0.6,0.4-1,1-1.2,1.7c-0.2,0.7-0.4,1.5-0.4,2.2c0,0.9,0.1,1.7,0.4,2.5c0.2,0.7,0.7,1.3,1.3,1.6c0.6,0.4,1.3,0.5,1.9,0.5
				c0.8,0,1.5-0.2,2.2-0.7C458,530.6,458.4,529.8,458.5,529L458.5,529z M461.9,533v-11.5h3.9c0.7,0,1.4,0,2,0.2
				c0.6,0.1,1.2,0.4,1.7,0.8c0.6,0.5,1.1,1.2,1.4,2c0.3,0.9,0.5,1.8,0.4,2.7c0,0.8-0.1,1.6-0.3,2.3c-0.2,0.6-0.4,1.2-0.8,1.7
				c-0.3,0.4-0.6,0.8-1,1c-0.4,0.3-0.9,0.5-1.4,0.6c-0.6,0.1-1.2,0.2-1.8,0.2L461.9,533z M463.4,531.6h2.4c0.6,0,1.2-0.1,1.8-0.2
				c0.4-0.1,0.7-0.3,1-0.6c0.4-0.4,0.7-0.9,0.8-1.4c0.2-0.7,0.3-1.5,0.3-2.2c0.1-1-0.1-1.9-0.6-2.8c-0.3-0.6-0.8-1-1.4-1.3
				c-0.6-0.2-1.3-0.3-2-0.2h-2.4V531.6z M487.2,528.3c0,0.1,0,0.1-0.1,0.1l-2.1,0h-4.3v3.9l0,1.7c0,0.1,0,0.1-0.1,0.1c0,0,0,0,0,0
				h-0.9c-0.1,0-0.1,0-0.1-0.1c0,0,0,0,0,0l0-1.7v-3.9h-4.2l-2.1,0c-0.1,0-0.1,0-0.1-0.1c0,0,0,0,0,0v-0.8c0-0.1,0-0.1,0.1-0.1
				c0,0,0,0,0,0l2.1,0h4.2v-5.9h-3.3l-2.2,0c-0.1,0-0.1,0-0.1-0.1c0,0,0,0,0,0v-0.7c0-0.1,0-0.1,0.1-0.1c0,0,0,0,0,0l2.2,0h7.9
				l2.2,0c0.1,0,0.1,0,0.1,0.1v0.7c0,0.1,0,0.1-0.1,0.1l-2.2,0h-3.6v5.9h4.3l2.1,0c0.1,0,0.1,0,0.1,0.1L487.2,528.3z M485.5,523
				c0,0,0,0.1-0.1,0.2c-0.1,0.1-0.2,0.3-0.3,0.4c-0.5,1-1.1,2-1.8,2.9c-0.1,0.1-0.2,0.2-0.2,0.2c-0.1,0-0.2-0.1-0.2-0.1
				c-0.2-0.1-0.4-0.2-0.6-0.3c0.8-1,1.4-2,1.9-3.1c0.1-0.3,0.2-0.5,0.2-0.8c0.3,0.1,0.6,0.2,0.9,0.4
				C485.5,522.8,485.5,522.9,485.5,523L485.5,523z M477.8,526.1C477.8,526.1,477.8,526.2,477.8,526.1c0,0.1,0,0.2-0.1,0.2l-0.5,0.2
				c-0.1,0-0.1,0.1-0.2,0.1c0,0-0.1,0-0.1-0.1c-0.4-1.2-1-2.4-1.7-3.5c0,0,0,0,0-0.1c0,0,0.1-0.1,0.2-0.1l0.4-0.2c0,0,0.1,0,0.1-0.1
				c0,0,0.1,0,0.1,0.1C476.6,523.7,477.3,524.8,477.8,526.1z M502.8,522.7c0,0.3,0,0.7,0,1.2c0,2.6-0.1,5.1-0.5,7.6
				c-0.1,0.7-0.3,1.3-0.7,1.9c-0.3,0.4-0.8,0.6-1.3,0.6c-0.3,0-0.8,0-1.5-0.1c-0.1,0-0.2,0-0.3-0.1c0-0.1-0.1-0.2-0.1-0.3
				c0-0.3-0.1-0.5-0.3-0.7c0.7,0.1,1.4,0.2,2.1,0.2c0.4,0,0.7-0.2,0.8-0.6c0.2-0.4,0.3-0.8,0.3-1.2c0.4-2.6,0.5-5.1,0.4-7.7h-5.7
				c-0.4,0.9-1,1.7-1.6,2.4c-0.1,0.1-0.2,0.2-0.2,0.2c0,0-0.1-0.1-0.2-0.2c-0.1-0.2-0.3-0.3-0.5-0.4c1.1-1.3,2-2.7,2.5-4.4
				c0.2-0.5,0.3-0.9,0.3-1.4c0.3,0.1,0.6,0.2,1,0.3c0.1,0.1,0.2,0.1,0.2,0.2c0,0.1-0.1,0.2-0.2,0.3c-0.2,0.2-0.3,0.5-0.4,0.8
				c-0.2,0.6-0.4,1.1-0.6,1.3h4.2l1.9,0C502.8,522.6,502.8,522.6,502.8,522.7z M494.2,528.7c0,0.2,0,0.3,0,0.5c0,0.1,0,0.1,0,0.2
				c0,0.1,0,0.2,0,0.2c0,0.1,0,0.1,0,0.2c-0.1,0.1-0.2,0.1-0.2,0.1c-1.1,0.6-2.3,1.1-3.5,1.6c-0.2,0.1-0.4,0.2-0.6,0.3
				c-0.1,0.1-0.1,0.1-0.2,0.1c-0.1,0-0.1-0.1-0.2-0.2c-0.1-0.3-0.3-0.6-0.4-0.9c0.5-0.1,1.1-0.2,1.6-0.4l0.6-0.2V525h-0.4l-1.5,0
				c-0.1,0-0.1,0-0.1-0.1v-0.7c0-0.1,0-0.1,0.1-0.1l1.5,0h0.4v-1.9c0-0.7,0-1.5-0.1-2.2c0.4,0,0.7,0,1,0.1c0.1,0,0.2,0.1,0.2,0.1
				c0,0.1,0,0.2-0.1,0.3c-0.1,0.5-0.1,1.1-0.1,1.7v1.9h0.2l1.4,0c0.1,0,0.1,0,0.1,0.1v0.7c0,0.1,0,0.1-0.1,0.1l-1.4,0h-0.2v4.7
				C492.9,529.4,493.6,529.1,494.2,528.7z M500.4,528.3c0,0.1,0,0.3,0,0.4c0,0.1,0,0.2,0,0.3v0.1c0,0,0,0.1,0,0.1
				c0,0.1,0,0.1-0.1,0.2c-0.1,0.1-0.1,0.1-0.2,0.1c-1.2,0.7-2.5,1.3-3.9,1.8c-0.2,0.1-0.4,0.2-0.6,0.3c-0.1,0.1-0.1,0.1-0.2,0.1
				c-0.1,0-0.1-0.1-0.2-0.2c-0.2-0.3-0.3-0.6-0.4-0.9c0.5-0.1,1.1-0.2,1.6-0.4C497.8,529.7,499.2,529,500.4,528.3L500.4,528.3z
				 M500,526.6c0,0.1,0,0.1-0.1,0.1c0,0,0,0,0,0l-1.4,0h-1.3l-1.3,0c-0.1,0-0.1,0-0.1-0.1c0,0,0,0,0,0v-0.7c0-0.1,0-0.1,0.1-0.1
				l1.3,0h1.3l1.4,0c0.1,0,0.1,0,0.1,0.1L500,526.6z M505,523v-1.3h7.4v1.1c-0.8,0.9-1.6,2-2.2,3.1c-0.7,1.3-1.3,2.6-1.7,4
				c-0.3,1-0.5,2.1-0.5,3.1h-1.4c0-1.1,0.2-2.2,0.5-3.3c0.3-1.3,0.8-2.5,1.5-3.7c0.6-1.1,1.2-2.1,2-3L505,523z M519.1,533h-1.4v-9
				c-0.4,0.4-0.9,0.7-1.3,1c-0.5,0.3-1,0.5-1.5,0.7v-1.4c0.7-0.3,1.4-0.8,2.1-1.3c0.5-0.4,0.9-0.9,1.3-1.5h0.9V533z M523,524.3
				c0-0.7,0.2-1.5,0.6-2.1c0.4-0.6,1.1-0.9,1.8-0.9c0.7,0,1.3,0.3,1.8,0.8c0.5,0.6,0.8,1.4,0.7,2.3c0.1,0.8-0.2,1.6-0.7,2.2
				c-0.4,0.5-1.1,0.8-1.8,0.8c-0.7,0-1.3-0.3-1.7-0.8C523.1,526,522.9,525.1,523,524.3z M525.4,522.3c-0.3,0-0.7,0.2-0.9,0.5
				c-0.3,0.5-0.4,1.1-0.3,1.7c0,0.5,0.1,1.1,0.4,1.6c0.3,0.5,1,0.6,1.5,0.3c0.1-0.1,0.2-0.2,0.3-0.3c0.3-0.5,0.4-1.1,0.3-1.7
				c0-0.5-0.1-1.1-0.4-1.6C526.1,522.5,525.7,522.3,525.4,522.3z M525.4,533.4l6.3-12.1h1.1l-6.2,12.1H525.4z M530.4,530.3
				c0-0.7,0.2-1.5,0.6-2.1c0.4-0.6,1.1-0.9,1.8-0.9c0.7,0,1.3,0.3,1.8,0.8c0.5,0.6,0.8,1.4,0.7,2.3c0.1,0.8-0.2,1.6-0.7,2.2
				c-0.4,0.5-1.1,0.8-1.8,0.8c-0.7,0-1.3-0.3-1.7-0.8C530.5,532,530.3,531.1,530.4,530.3L530.4,530.3z M532.8,528.3
				c-0.3,0-0.7,0.2-0.9,0.5c-0.3,0.5-0.4,1.1-0.3,1.7c0,0.5,0.1,1.1,0.4,1.5c0.3,0.5,1,0.6,1.5,0.3c0.1-0.1,0.2-0.2,0.3-0.3
				c0.3-0.5,0.4-1.1,0.3-1.7c0-0.5-0.1-1.1-0.4-1.6C533.5,528.5,533.2,528.3,532.8,528.3L532.8,528.3z"/>
			<g id="Group_1779" transform="translate(-91 99)">
				<g class="st5">
					<path class="st0" d="M365.2,375.1v1.9h-14.4v-1.9h6.2v-3.2h-4.3V370h4.3v-2.8h-3.3c-0.5,0.9-1,1.7-1.5,2.3
						c-0.4-0.3-1.2-0.9-1.7-1.1c1.2-1.3,2.3-3.6,2.8-5.7l2,0.4c-0.2,0.8-0.5,1.5-0.8,2.3h2.5v-2.9h2v2.9h5.4v1.9H359v2.8h4.8v1.8
						H359v3.2H365.2z"/>
					<path class="st0" d="M369.6,370.2c-0.7-0.5-2-1.2-3-1.7l1-1.4c0.9,0.4,2.3,1.1,3,1.6L369.6,370.2z M366.8,375.9
						c0.8-1.2,2.1-3.2,3-5l1.4,1.3c-0.8,1.7-1.9,3.5-2.8,5.1L366.8,375.9z M370.3,365.8c-0.6-0.5-2-1.2-2.9-1.8l1.1-1.4
						c0.9,0.4,2.3,1.2,3,1.6L370.3,365.8z M377.4,368.9v2h3.3v6.4h-1.8v-0.6H374v0.7h-1.7v-6.5h3.3v-2h-4.3v-1.8h4.3v-1.9
						c-1.1,0.2-2.1,0.3-3.1,0.4c-0.1-0.5-0.3-1.2-0.5-1.6c2.7-0.3,5.7-0.8,7.5-1.5l1.5,1.5c-1,0.4-2.2,0.7-3.5,0.9v2.2h4.1v1.8
						H377.4z M378.8,372.7H374v2.4h4.8V372.7z"/>
					<path class="st0" d="M396.6,365.2v8h-2v-0.8H391v5h-2v-5h-3.6v0.9h-1.9v-8.1h5.5v-2.8h2v2.8H396.6z M389,370.5v-3.4h-3.6v3.4
						H389z M394.6,370.5v-3.4H391v3.4H394.6z"/>
					<path class="st0" d="M404.5,366.2c-0.2,0.4-0.4,0.8-0.6,1.3h7.4v7.9c0,0.9-0.2,1.5-0.8,1.7c-0.6,0.3-1.5,0.3-2.8,0.3
						c-0.1-0.5-0.3-1.3-0.6-1.8c0.8,0,1.7,0,2,0c0.3,0,0.4-0.1,0.4-0.3v-1h-6c-0.3,1.2-0.8,2.4-1.8,3.2c-0.3-0.4-1-1.2-1.4-1.5
						c1.4-1.2,1.5-2.9,1.5-4.4v-1.3c-0.6,0.6-1.2,1.2-2,1.7c-0.3-0.4-0.9-1.1-1.2-1.5c1.6-1.1,2.9-2.7,3.8-4.5h-3.5v-1.8h4.3
						c0.3-0.7,0.5-1.3,0.6-1.9l2,0.4c-0.2,0.5-0.3,1-0.5,1.5h7.8v1.8H404.5z M409.5,372.7v-1h-5.7c0,0.3,0,0.7,0,1H409.5z
						 M409.5,369.1h-5.7v1h5.7V369.1z"/>
					<path class="st0" d="M416.5,362.4h5.3v1.7h-3.4v8.5h-1.9V362.4z"/>
					<path class="st0" d="M435.9,364.5v12.9h-2v-0.8h-7.6v0.8h-1.9v-12.9h4.1c0.2-0.7,0.4-1.5,0.4-2.1l2.3,0.3
						c-0.2,0.6-0.5,1.3-0.8,1.8H435.9z M426.3,366.3v1.6h7.6v-1.6H426.3z M426.3,369.7v1.6h7.6v-1.6H426.3z M433.9,374.8v-1.7h-7.6
						v1.7H433.9z"/>
					<path class="st0" d="M453.1,363.4v1.4h-14.3v-1.4h6.2c-0.1-0.3-0.2-0.5-0.3-0.7l1.9-0.4c0.2,0.4,0.4,0.8,0.6,1.2H453.1z
						 M439,368.6h14v2.7h-1.7v-1.5h-10.6v1.6H439V368.6z M452,372.7c-0.6,0.3-1.3,0.6-2,0.8c0.6,1.1,1.6,1.9,3.1,2.3
						c-0.4,0.3-0.8,0.9-1,1.4c-1.7-0.5-2.8-1.7-3.5-3.2l-0.6,0.2c0.3,1.1,0.1,2.2-0.6,2.7c-0.5,0.4-1,0.6-1.6,0.6
						c-0.3,0-0.7,0-1.1,0c0-0.4-0.2-1.1-0.4-1.5c-1.3,0.6-2.8,1.1-4.3,1.4c-0.2-0.4-0.6-0.9-0.8-1.2c2.7-0.4,5.4-1.3,6.9-2.7
						c-0.1-0.1-0.2-0.2-0.3-0.4c-1.4,1-3.6,1.8-5.6,2.1c-0.2-0.3-0.5-0.7-0.8-1c2-0.3,4.4-1,5.7-1.8c-0.1-0.1-0.2-0.1-0.3-0.2
						c-1.4,0.5-2.9,0.9-4.4,1.2c-0.1-0.3-0.4-0.8-0.7-1.1c1.3-0.2,2.7-0.4,3.9-0.8h-2.3v-1.2h9.3v1.2h-4.4l-0.1,0
						c0.6,0.4,1,0.8,1.3,1.3c1.2-0.4,2.6-0.9,3.5-1.3L452,372.7z M451.1,365.4v2.8H441v-2.8H451.1z M449,366.4h-6.1v0.7h6.1V366.4z
						 M446.4,374.5c-0.6,0.5-1.3,0.9-2.1,1.3c0.5,0,0.9,0,1.2,0c0.3,0,0.5,0,0.7-0.2C446.4,375.4,446.5,375,446.4,374.5z"/>
					<path class="st0" d="M459.5,377.5h-5.3v-1.7h3.4v-8.5h1.9V377.5z"/>
					<path class="st0" d="M463.4,370.9c0-3.2,0.9-5.8,2.4-8.3l1.5,0.6c-1.3,2.3-2,5-2,7.7c0,2.6,0.6,5.3,2,7.7l-1.5,0.6
						C464.2,376.8,463.4,374.2,463.4,370.9z"/>
					<path class="st0" d="M469.3,367h1.9l0.2,0.9h0.1c0.8-0.6,1.7-1.2,2.6-1.2c2.2,0,3.5,1.8,3.5,4.6c0,3.1-1.8,4.8-3.8,4.8
						c-0.8,0-1.5-0.4-2.2-1l0.1,1.5v2.7h-2.3V367z M475.2,371.4c0-1.7-0.5-2.7-1.8-2.7c-0.6,0-1.2,0.3-1.8,0.9v3.9
						c0.6,0.5,1.2,0.7,1.6,0.7C474.4,374.3,475.2,373.4,475.2,371.4z"/>
					<path class="st0" d="M479.6,367h1.9l0.2,1.6h0.1c0.7-1.2,1.6-1.8,2.5-1.8c0.5,0,0.8,0.1,1.1,0.2l-0.4,2
						c-0.3-0.1-0.6-0.1-0.9-0.1c-0.7,0-1.6,0.5-2.1,1.8v5.3h-2.3V367z"/>
					<path class="st0" d="M485.8,371.5c0-3,2.1-4.7,4.3-4.7c2.2,0,4.3,1.7,4.3,4.7c0,3-2.1,4.7-4.3,4.7
						C487.9,376.2,485.8,374.5,485.8,371.5z M492.1,371.5c0-1.7-0.7-2.8-1.9-2.8c-1.2,0-1.9,1.1-1.9,2.8c0,1.7,0.7,2.8,1.9,2.8
						C491.4,374.3,492.1,373.2,492.1,371.5z"/>
					<path class="st0" d="M496.3,372.6V367h2.4v5.3c0,1.4,0.4,1.9,1.2,1.9c0.7,0,1.2-0.3,1.8-1.1V367h2.4v9h-1.9l-0.2-1.3h-0.1
						c-0.8,0.9-1.6,1.5-2.9,1.5C497.2,376.2,496.3,374.9,496.3,372.6z"/>
					<path class="st0" d="M506.6,367h1.9l0.2,1.2h0.1c0.8-0.8,1.7-1.4,2.9-1.4c1.9,0,2.8,1.3,2.8,3.6v5.6h-2.4v-5.3
						c0-1.4-0.4-1.9-1.3-1.9c-0.7,0-1.2,0.4-1.9,1v6.2h-2.3V367z"/>
					<path class="st0" d="M516.4,371.5c0-2.9,1.8-4.7,3.8-4.7c1,0,1.6,0.4,2.3,1l-0.1-1.4v-3.2h2.4V376h-1.9l-0.2-0.9h0
						c-0.7,0.6-1.6,1.2-2.5,1.2C517.8,376.2,516.4,374.5,516.4,371.5z M522.3,373.4v-3.9c-0.5-0.5-1.1-0.7-1.7-0.7
						c-1,0-1.9,1-1.9,2.8c0,1.9,0.7,2.8,1.9,2.8C521.2,374.3,521.8,374,522.3,373.4z"/>
					<path class="st0" d="M526.7,378.6c1.3-2.3,2-5,2-7.7c0-2.6-0.6-5.3-2-7.7l1.5-0.6c1.5,2.5,2.4,5.1,2.4,8.3
						c0,3.2-0.9,5.8-2.4,8.3L526.7,378.6z"/>
					<path class="st0" d="M546.8,366.3c-0.6,1.5-1.4,2.9-2.4,4c0.4,3,1,5.2,1.5,5.2c0.2,0,0.4-0.8,0.4-2.6c0.4,0.4,0.9,0.8,1.4,1
						c-0.3,2.6-0.8,3.3-2.1,3.3c-1.4,0-2.3-2.3-2.8-5.5c-0.3,0.2-0.6,0.4-0.9,0.7c-0.1-0.2-0.4-0.4-0.7-0.7h-1.9
						c0.4,0.7,1,1.7,1.2,2.2l-1.2,0.7c-0.2-0.5-0.5-1.2-0.9-1.8v2.7c0,0.4,0.1,0.5,0.5,0.5h1.2c0.4,0,0.4-0.2,0.5-1.7
						c0.2,0.2,0.7,0.4,1,0.5c-0.2-0.5-0.4-1.1-0.7-1.6l1.2-0.5c0.5,1.1,1.1,2.5,1.4,3.4l-1.3,0.6c-0.1-0.4-0.3-0.8-0.4-1.3
						c-0.2,1.5-0.6,1.9-1.6,1.9h-1.6c-1.4,0-1.7-0.4-1.7-1.7v-2.7h1.5l-0.3-0.5l1-0.5h-3.1V368h5.2v2.7c0.5-0.3,0.9-0.6,1.3-1
						c-0.2-1.4-0.3-2.9-0.3-4.4h-6.6v0.7h6.1v1.3h-6.1c0,2.8-0.3,7.2-1.7,10c-0.3-0.3-1.1-0.8-1.5-1c1.3-2.8,1.5-6.8,1.5-9.4v-3.1
						h8.3c0-0.5,0-1,0-1.5h1.8v0.5l1-0.7c0.5,0.4,1.2,0.9,1.6,1.2l-0.6,0.4h1.3v1.5h-3.3c0,0.8,0.1,1.6,0.1,2.4c0.4-0.6,0.7-1.3,1-2
						L546.8,366.3z M534.8,376.3c0.3-1,0.6-2.5,0.7-3.6l1.2,0.5c-0.2,1-0.4,2.6-0.6,3.6L534.8,376.3z M539.7,369.3h-2.2v1.2h2.2
						V369.3z M544.9,363.9c-0.3-0.3-0.7-0.6-1-0.8c0,0.3,0,0.5,0,0.8H544.9z"/>
					<path class="st0" d="M561,370.6c-0.7,1.6-1.8,2.8-3.1,3.7c1.5,0.5,3.3,0.9,5.3,1.1c-0.4,0.4-0.9,1.3-1.2,1.8
						c-2.3-0.3-4.4-0.8-6.1-1.7c-1.8,0.9-4,1.4-6.2,1.7c-0.2-0.4-0.7-1.3-1.1-1.7c2-0.2,3.9-0.6,5.4-1.2c-1-0.7-1.8-1.5-2.5-2.5
						l0.5-0.2h-0.8v-1.7h8.1l0.4-0.1L561,370.6z M550.8,370.5H549V367h2.3c-0.2-0.5-0.5-1.1-0.8-1.6l1.4-0.4c-0.8,0-1.6,0.1-2.4,0.1
						c0-0.5-0.3-1.2-0.4-1.6c4.2-0.1,9-0.5,11.9-1.1l1.3,1.5c-1.7,0.3-3.8,0.6-5.9,0.8c0.3,0.6,0.6,1.5,0.7,2.1L556,367h2.8
						c0.4-0.7,0.8-1.7,1-2.4l2,0.5c-0.4,0.7-0.8,1.3-1.2,1.9h2.3v3.5h-1.9v-1.8h-10.3V370.5z M556.3,364.7c-1.3,0.1-2.7,0.2-4.1,0.3
						c0.4,0.6,0.7,1.3,0.9,1.8l-0.8,0.2h3.1c-0.1-0.6-0.3-1.4-0.6-2L556.3,364.7z M553.5,371.6c0.7,0.7,1.5,1.3,2.4,1.9
						c0.8-0.5,1.6-1.1,2.2-1.9H553.5z"/>
				</g>
			</g>
			<path id="Rectangle_2250" class="st1" d="M254.1,491.5h259.8c1.1,0,2,0.9,2,2v16c0,1.1-0.9,2-2,2H254.1c-1.1,0-2-0.9-2-2v-16
				C252.1,492.4,253,491.5,254.1,491.5z"/>
			<path id="Rectangle_2248" class="st0" d="M254.1,491.3h111.4l0,0v20l0,0H254.1c-1.1,0-2-0.9-2-2v-16
				C252.1,492.2,253,491.3,254.1,491.3z"/>
			<line id="Line_358" class="st2" x1="439.5" y1="491.5" x2="439.5" y2="511.5"/>
		</g>
		<g id="Union_7" transform="translate(-3904.999 -11996)">
			<path class="st4" d="M4251.6,12476.2l-3.6-7.2h-108c-1.1,0-2-0.9-2-2v-23c0-1.1,0.9-2,2-2h309c1.1,0,2,0.9,2,2v23
				c0,1.1-0.9,2-2,2h-192l-3.6,7.2c-0.2,0.5-0.8,0.7-1.3,0.4C4251.9,12476.6,4251.7,12476.4,4251.6,12476.2L4251.6,12476.2z"/>
			<path class="st0" d="M4252.5,12475.8L4252.5,12475.8l3.6-7.2l0.3-0.6h0.6h192c0.6,0,1-0.4,1-1v-23c0-0.6-0.4-1-1-1h-309
				c-0.6,0-1,0.4-1,1v23c0,0.6,0.4,1,1,1h108h0.6l0.3,0.6L4252.5,12475.8 M4252.5,12476.8c-0.4,0-0.7-0.2-0.9-0.6l-3.6-7.2h-108
				c-1.1,0-2-0.9-2-2v-23c0-1.1,0.9-2,2-2h309c1.1,0,2,0.9,2,2v23c0,1.1-0.9,2-2,2h-192l-3.6,7.2
				C4253.2,12476.6,4252.9,12476.8,4252.5,12476.8z"/>
		</g>
	</g>
</g>
</svg>
