<svg xmlns="http://www.w3.org/2000/svg" width="259.625" height="209.857" viewBox="0 0 259.625 209.857">
  <g id="data7_m" transform="translate(4472.238 10514.6)">
    <path id="Path_1833" data-name="Path 1833" d="M.459-3.312a3.7,3.7,0,0,1,.909-2.651,3.091,3.091,0,0,1,2.347-.958,3.256,3.256,0,0,1,1.7.45A2.939,2.939,0,0,1,6.566-5.216a4.075,4.075,0,0,1,.4,1.825A4.007,4.007,0,0,1,6.545-1.54,2.85,2.85,0,0,1,5.362-.3a3.38,3.38,0,0,1-1.651.42A3.215,3.215,0,0,1,1.995-.348,2.985,2.985,0,0,1,.849-1.614,3.838,3.838,0,0,1,.459-3.312Zm.928.014a2.724,2.724,0,0,0,.661,1.937,2.174,2.174,0,0,0,1.658.707,2.171,2.171,0,0,0,1.672-.714A2.888,2.888,0,0,0,6.035-3.4a3.484,3.484,0,0,0-.281-1.45,2.156,2.156,0,0,0-.821-.96A2.226,2.226,0,0,0,3.72-6.146a2.3,2.3,0,0,0-1.644.656A2.932,2.932,0,0,0,1.387-3.3ZM8.141,0V-6.8h4.917V-6H9.041v2.083H12.8v.8H9.041V-.8h4.175V0Zm11.17-2.384.9.227A3.029,3.029,0,0,1,19.193-.466a2.805,2.805,0,0,1-1.8.582,3.23,3.23,0,0,1-1.788-.448,2.8,2.8,0,0,1-1.048-1.3A4.626,4.626,0,0,1,14.2-3.451,4.007,4.007,0,0,1,14.6-5.3a2.781,2.781,0,0,1,1.155-1.2,3.375,3.375,0,0,1,1.649-.411,2.788,2.788,0,0,1,1.716.52,2.7,2.7,0,0,1,.969,1.461l-.886.209a2.1,2.1,0,0,0-.687-1.081,1.829,1.829,0,0,0-1.132-.339,2.2,2.2,0,0,0-1.31.376,1.984,1.984,0,0,0-.74,1.009,4.062,4.062,0,0,0-.213,1.306,4.15,4.15,0,0,0,.253,1.515,1.883,1.883,0,0,0,.786.967,2.205,2.205,0,0,0,1.155.32A1.935,1.935,0,0,0,18.6-1.09,2.231,2.231,0,0,0,19.311-2.384ZM21.319,0V-6.8h2.343a5.682,5.682,0,0,1,1.211.1,2.3,2.3,0,0,1,1,.487,2.767,2.767,0,0,1,.8,1.162,4.561,4.561,0,0,1,.267,1.617,4.75,4.75,0,0,1-.181,1.373,3.331,3.331,0,0,1-.464.99,2.464,2.464,0,0,1-.619.617,2.524,2.524,0,0,1-.812.341A4.633,4.633,0,0,1,23.773,0Zm.9-.8h1.452a3.523,3.523,0,0,0,1.055-.125,1.51,1.51,0,0,0,.61-.353,2.145,2.145,0,0,0,.5-.86,4.207,4.207,0,0,0,.179-1.31,3.164,3.164,0,0,0-.35-1.64,1.763,1.763,0,0,0-.851-.768A3.518,3.518,0,0,0,23.648-6H22.219ZM36.358-2.774q0,.074-.079.074l-1.243-.019H32.461V-.427L32.48.58a.066.066,0,0,1-.074.074H31.9A.066.066,0,0,1,31.826.58l.019-1.007V-2.718h-2.5L28.11-2.7a.066.066,0,0,1-.074-.074v-.45A.066.066,0,0,1,28.11-3.3l1.234.019h2.5V-6.754H29.878l-1.313.019a.066.066,0,0,1-.074-.074V-7.25a.066.066,0,0,1,.074-.074l1.313.019h4.7l1.3-.019q.079,0,.079.074v.441q0,.074-.079.074l-1.3-.019h-2.12V-3.28h2.574L36.279-3.3q.079,0,.079.074ZM35.351-5.965q0,.042-.083.111a.736.736,0,0,0-.172.26,11.407,11.407,0,0,1-1.039,1.726q-.093.125-.13.125a.533.533,0,0,1-.144-.074,1.239,1.239,0,0,0-.343-.162,8.389,8.389,0,0,0,1.123-1.851,2.051,2.051,0,0,0,.144-.478,4.038,4.038,0,0,1,.561.237Q35.351-6.026,35.351-5.965ZM30.727-4.1a.2.2,0,0,1,.009.046q0,.037-.088.07l-.32.135a.448.448,0,0,1-.121.037q-.028,0-.051-.07a9.57,9.57,0,0,0-1.03-2.06.081.081,0,0,1-.023-.046q0-.032.111-.088l.264-.139a.2.2,0,0,1,.079-.032q.023,0,.056.051A9.386,9.386,0,0,1,30.727-4.1ZM45.621-6.109q-.023.241-.023.724a31.5,31.5,0,0,1-.292,4.541,2.291,2.291,0,0,1-.427,1.1.982.982,0,0,1-.77.329q-.3,0-.891-.056a.322.322,0,0,1-.172-.051A.46.46,0,0,1,43,.315a1.537,1.537,0,0,0-.153-.441,6.955,6.955,0,0,0,1.243.135.51.51,0,0,0,.459-.343,2.815,2.815,0,0,0,.2-.719,29.306,29.306,0,0,0,.264-4.588H41.651A8.023,8.023,0,0,1,40.709-4.2q-.079.1-.125.1t-.13-.107a.971.971,0,0,0-.3-.246,7.517,7.517,0,0,0,1.512-2.584,3.95,3.95,0,0,0,.19-.849,4.674,4.674,0,0,1,.571.162q.13.046.13.116a.269.269,0,0,1-.093.162,1.554,1.554,0,0,0-.227.473q-.209.538-.334.8h2.5l1.127-.019Q45.621-6.193,45.621-6.109ZM40.5-2.556a1.721,1.721,0,0,0-.023.274.894.894,0,0,0,0,.1q0,.088,0,.093a.164.164,0,0,1-.026.1.508.508,0,0,1-.141.086,17.593,17.593,0,0,1-2.092.951A2.074,2.074,0,0,0,37.9-.8a.208.208,0,0,1-.139.074q-.065,0-.107-.093a3.345,3.345,0,0,1-.209-.543,4.428,4.428,0,0,0,.923-.227l.371-.135v-3.01h-.26l-.863.019q-.079,0-.079-.074v-.4q0-.088.079-.088l.863.019h.26V-6.383a9.184,9.184,0,0,0-.07-1.313q.32.014.617.056.107.019.107.088a1.166,1.166,0,0,1-.037.162,4.922,4.922,0,0,0-.06.988v1.146h.116l.854-.019q.079,0,.079.088v.4q0,.074-.079.074l-.854-.019h-.116v2.783A10.789,10.789,0,0,0,40.5-2.556Zm3.683-.237a1.771,1.771,0,0,0-.014.237q0,.074,0,.162v.032q0,.042,0,.056a.158.158,0,0,1-.037.116.681.681,0,0,1-.13.079,14.185,14.185,0,0,1-2.3,1.085.974.974,0,0,0-.329.172.223.223,0,0,1-.144.074q-.065,0-.107-.093a2.573,2.573,0,0,1-.209-.552,3.96,3.96,0,0,0,.923-.246A17.76,17.76,0,0,0,44.188-2.792ZM43.928-3.8a.066.066,0,0,1-.074.074l-.807-.019H42.3l-.8.019a.066.066,0,0,1-.074-.074v-.408q0-.079.074-.079l.8.019h.751l.807-.019q.074,0,.074.079ZM46.9-5.91v-.8h4.4v.649a9.277,9.277,0,0,0-1.287,1.837,11.188,11.188,0,0,0-.986,2.356A8.758,8.758,0,0,0,48.706,0h-.858a8.333,8.333,0,0,1,.315-1.939,10.181,10.181,0,0,1,.865-2.192,9.4,9.4,0,0,1,1.2-1.779ZM52.593,0V-.951h.951V0Zm2.171-3.354A6.223,6.223,0,0,1,55.012-5.3a2.415,2.415,0,0,1,.738-1.134,1.886,1.886,0,0,1,1.232-.4,2.009,2.009,0,0,1,.96.22,1.836,1.836,0,0,1,.682.635,3.409,3.409,0,0,1,.422,1.011A6.719,6.719,0,0,1,59.2-3.354a6.24,6.24,0,0,1-.246,1.932,2.415,2.415,0,0,1-.735,1.136,1.886,1.886,0,0,1-1.236.4,1.866,1.866,0,0,1-1.545-.705A4.481,4.481,0,0,1,54.764-3.354Zm.858,0a4.264,4.264,0,0,0,.392,2.229,1.155,1.155,0,0,0,.967.554,1.154,1.154,0,0,0,.967-.557,4.265,4.265,0,0,0,.392-2.227,4.263,4.263,0,0,0-.392-2.231,1.163,1.163,0,0,0-.976-.552,1.07,1.07,0,0,0-.918.487A4.313,4.313,0,0,0,55.622-3.354ZM62.724,0V-1.628h-2.95v-.765l3.1-4.407h.682v4.407h.918v.765h-.918V0Zm0-2.394V-5.46L60.595-2.394Z" transform="translate(-4285.907 -10506.714)" fill="#df5a5a"/>
    <g id="Group_1876" data-name="Group 1876" transform="translate(-4472.846 -10513.29)">
      <g id="data_7-06" transform="translate(0 6.807)">
        <g id="Group_1868" data-name="Group 1868" transform="translate(31.969 188.545)">
          <g id="Group_1865" data-name="Group 1865" transform="translate(0 3.087)">
            <path id="Path_1839" data-name="Path 1839" d="M.374-3.177A5.9,5.9,0,0,1,.609-5.016a2.288,2.288,0,0,1,.7-1.074,1.786,1.786,0,0,1,1.167-.378,1.9,1.9,0,0,1,.91.209,1.739,1.739,0,0,1,.646.6,3.23,3.23,0,0,1,.4.958,6.365,6.365,0,0,1,.145,1.523,5.912,5.912,0,0,1-.233,1.83,2.288,2.288,0,0,1-.7,1.077A1.786,1.786,0,0,1,2.474.11,1.768,1.768,0,0,1,1.011-.558,4.245,4.245,0,0,1,.374-3.177Zm.813,0a4.04,4.04,0,0,0,.371,2.112,1.094,1.094,0,0,0,.916.525,1.093,1.093,0,0,0,.916-.527,4.041,4.041,0,0,0,.371-2.109A4.038,4.038,0,0,0,3.39-5.291a1.1,1.1,0,0,0-.925-.523,1.014,1.014,0,0,0-.87.461A4.086,4.086,0,0,0,1.187-3.177Z" transform="translate(0 9)" fill="#6f727a"/>
            <path id="Path_1838" data-name="Path 1838" d="M4.531-.76V0H.272A1.4,1.4,0,0,1,.365-.549a2.906,2.906,0,0,1,.521-.857A8.159,8.159,0,0,1,1.92-2.382,8.773,8.773,0,0,0,3.34-3.746,1.634,1.634,0,0,0,3.709-4.7a1.057,1.057,0,0,0-.336-.793A1.213,1.213,0,0,0,2.5-5.814a1.235,1.235,0,0,0-.914.343,1.3,1.3,0,0,0-.347.949L.422-4.605A2,2,0,0,1,1.05-5.992a2.144,2.144,0,0,1,1.463-.477,2.042,2.042,0,0,1,1.468.514A1.688,1.688,0,0,1,4.522-4.68a1.933,1.933,0,0,1-.158.76,2.95,2.95,0,0,1-.525.787A12.793,12.793,0,0,1,2.619-2q-.712.6-.914.811a2.6,2.6,0,0,0-.334.428Z" transform="translate(44.258 9)" fill="#6f727a"/>
            <path id="Path_1837" data-name="Path 1837" d="M2.909,0V-1.542H.114v-.725l2.94-4.175H3.7v4.175h.87v.725H3.7V0Zm0-2.268v-2.9L.892-2.268Z" transform="translate(88.512 9)" fill="#6f727a"/>
            <path id="Path_1836" data-name="Path 1836" d="M4.478-4.865,3.691-4.8a1.49,1.49,0,0,0-.3-.677A1.047,1.047,0,0,0,2.6-5.818a1.087,1.087,0,0,0-.664.211,1.8,1.8,0,0,0-.589.8,4.157,4.157,0,0,0-.224,1.49,1.833,1.833,0,0,1,.7-.646,1.879,1.879,0,0,1,.866-.211A1.793,1.793,0,0,1,4.036-3.6a2.09,2.09,0,0,1,.556,1.505A2.477,2.477,0,0,1,4.331-.965a1.905,1.905,0,0,1-.719.8A1.962,1.962,0,0,1,2.575.11,2.027,2.027,0,0,1,.962-.617a3.672,3.672,0,0,1-.624-2.4,4.3,4.3,0,0,1,.69-2.716A1.984,1.984,0,0,1,2.65-6.469,1.819,1.819,0,0,1,3.9-6.042,1.81,1.81,0,0,1,4.478-4.865ZM1.248-2.087a1.835,1.835,0,0,0,.174.782,1.294,1.294,0,0,0,.486.569,1.214,1.214,0,0,0,.655.2,1.116,1.116,0,0,0,.861-.4,1.591,1.591,0,0,0,.36-1.1A1.489,1.489,0,0,0,3.428-3.1a1.17,1.17,0,0,0-.9-.385,1.22,1.22,0,0,0-.91.385A1.386,1.386,0,0,0,1.248-2.087Z" transform="translate(132.78 9)" fill="#6f727a"/>
            <path id="Path_1835" data-name="Path 1835" d="M1.591-3.494a1.489,1.489,0,0,1-.729-.514,1.345,1.345,0,0,1-.237-.8A1.564,1.564,0,0,1,1.129-5.99a1.874,1.874,0,0,1,1.345-.479,1.887,1.887,0,0,1,1.358.49,1.586,1.586,0,0,1,.514,1.193,1.314,1.314,0,0,1-.235.78,1.483,1.483,0,0,1-.714.512,1.732,1.732,0,0,1,.9.624,1.714,1.714,0,0,1,.31,1.028A1.851,1.851,0,0,1,4.025-.453,2.125,2.125,0,0,1,2.487.11,2.12,2.12,0,0,1,.949-.455,1.878,1.878,0,0,1,.365-1.863,1.7,1.7,0,0,1,.683-2.916,1.6,1.6,0,0,1,1.591-3.494Zm-.158-1.34a1,1,0,0,0,.294.747,1.043,1.043,0,0,0,.765.29,1.023,1.023,0,0,0,.749-.288.952.952,0,0,0,.292-.705.987.987,0,0,0-.3-.732,1.025,1.025,0,0,0-.749-.3,1.035,1.035,0,0,0-.751.29A.934.934,0,0,0,1.433-4.834ZM1.178-1.859a1.431,1.431,0,0,0,.16.655,1.132,1.132,0,0,0,.477.49A1.394,1.394,0,0,0,2.5-.541a1.276,1.276,0,0,0,.936-.365A1.248,1.248,0,0,0,3.8-1.833a1.269,1.269,0,0,0-.38-.945,1.3,1.3,0,0,0-.951-.374,1.25,1.25,0,0,0-.925.369A1.256,1.256,0,0,0,1.178-1.859Z" transform="translate(177.033 9)" fill="#6f727a"/>
            <path id="Path_1834" data-name="Path 1834" d="M3.353,0H2.562V-5.041a4.088,4.088,0,0,1-.749.545,5.311,5.311,0,0,1-.833.409v-.765a4.777,4.777,0,0,0,1.16-.756,2.973,2.973,0,0,0,.7-.861h.51ZM5.379-3.177a5.9,5.9,0,0,1,.235-1.839,2.288,2.288,0,0,1,.7-1.074,1.786,1.786,0,0,1,1.167-.378,1.9,1.9,0,0,1,.91.209,1.739,1.739,0,0,1,.646.6,3.23,3.23,0,0,1,.4.958A6.365,6.365,0,0,1,9.58-3.177a5.912,5.912,0,0,1-.233,1.83,2.288,2.288,0,0,1-.7,1.077A1.786,1.786,0,0,1,7.479.11,1.768,1.768,0,0,1,6.016-.558,4.245,4.245,0,0,1,5.379-3.177Zm.813,0a4.04,4.04,0,0,0,.371,2.112,1.094,1.094,0,0,0,.916.525A1.093,1.093,0,0,0,8.4-1.068a4.041,4.041,0,0,0,.371-2.109A4.038,4.038,0,0,0,8.4-5.291a1.1,1.1,0,0,0-.925-.523,1.014,1.014,0,0,0-.87.461A4.086,4.086,0,0,0,6.192-3.177Z" transform="translate(218.683 10)" fill="#6f727a"/>
          </g>
          <line id="Line_459" data-name="Line 459" x2="221.29" transform="translate(2.594)" fill="none" stroke="#55585f" stroke-miterlimit="10" stroke-width="1"/>
        </g>
        <g id="Group_1871" data-name="Group 1871" transform="translate(34.563 7.515)">
          <line id="Line_466" data-name="Line 466" y1="181.03" transform="translate(0)" fill="none" stroke="#55585f" stroke-miterlimit="10" stroke-width="1"/>
        </g>
        <g id="Group_1874" data-name="Group 1874" transform="translate(35.013 1.327)">
          <g id="Group_1873" data-name="Group 1873">
            <g id="Group_1872" data-name="Group 1872">
              <path id="Rectangle_2367" data-name="Rectangle 2367" d="M0,0H174.992a4,4,0,0,1,4,4V4a4,4,0,0,1-4,4H0A0,0,0,0,1,0,8V0A0,0,0,0,1,0,0Z" transform="translate(0 11.157)" fill="#efefef"/>
              <path id="Rectangle_2368" data-name="Rectangle 2368" d="M0,0H164.641a4,4,0,0,1,4,4V4a4,4,0,0,1-4,4H0A0,0,0,0,1,0,8V0A0,0,0,0,1,0,0Z" transform="translate(0 25.157)" fill="#efefef"/>
              <path id="Rectangle_2369" data-name="Rectangle 2369" d="M0,0H163.975a4,4,0,0,1,4,4V4a4,4,0,0,1-4,4H0A0,0,0,0,1,0,8V0A0,0,0,0,1,0,0Z" transform="translate(0 40.157)" fill="#efefef"/>
              <path id="Rectangle_2370" data-name="Rectangle 2370" d="M0,0H161.536a4,4,0,0,1,4,4V4a4,4,0,0,1-4,4H0A0,0,0,0,1,0,8V0A0,0,0,0,1,0,0Z" transform="translate(0 54.156)" fill="#efefef"/>
              <path id="Rectangle_2371" data-name="Rectangle 2371" d="M0,0H158.874a4,4,0,0,1,4,4V4a4,4,0,0,1-4,4H0A0,0,0,0,1,0,8V0A0,0,0,0,1,0,0Z" transform="translate(0 68.157)" fill="#efefef"/>
              <path id="Rectangle_2373" data-name="Rectangle 2373" d="M0,0H150.889a4,4,0,0,1,4,4V4a4,4,0,0,1-4,4H0A0,0,0,0,1,0,8V0A0,0,0,0,1,0,0Z" transform="translate(0 83.157)" fill="#efefef"/>
              <path id="Rectangle_2374" data-name="Rectangle 2374" d="M0,0H145.351a4,4,0,0,1,4,4V4a4,4,0,0,1-4,4H0A0,0,0,0,1,0,8V0A0,0,0,0,1,0,0Z" transform="translate(0 97.157)" fill="#efefef"/>
              <path id="Rectangle_2375" data-name="Rectangle 2375" d="M0,0H132.249a12,12,0,0,1,12,12v0a12,12,0,0,1-12,12H0a0,0,0,0,1,0,0V0A0,0,0,0,1,0,0Z" transform="translate(0 111.157)" fill="#4891f2"/>
              <path id="Rectangle_2376" data-name="Rectangle 2376" d="M0,0H140.249a4,4,0,0,1,4,4V4a4,4,0,0,1-4,4H0A0,0,0,0,1,0,8V0A0,0,0,0,1,0,0Z" transform="translate(0 141.157)" fill="#efefef"/>
              <path id="Rectangle_2377" data-name="Rectangle 2377" d="M0,0H134.778a4,4,0,0,1,4,4V4a4,4,0,0,1-4,4H0A0,0,0,0,1,0,8V0A0,0,0,0,1,0,0Z" transform="translate(0 156.157)" fill="#efefef"/>
              <path id="Rectangle_2378" data-name="Rectangle 2378" d="M0,0H132.782a4,4,0,0,1,4,4V4a4,4,0,0,1-4,4H0A0,0,0,0,1,0,8V0A0,0,0,0,1,0,0Z" transform="translate(0 170.156)" fill="#efefef"/>
            </g>
          </g>
        </g>
        <g id="Group_1875" data-name="Group 1875" transform="translate(0 0)">
          <path id="Path_1832" data-name="Path 1832" d="M7.552.274a.066.066,0,0,1-.074.074H7.018A.066.066,0,0,1,6.944.274v-.58h-4.4v.6q0,.074-.065.074H2.013A.066.066,0,0,1,1.939.292l.019-3.256V-4.8L1.939-7.19q0-.079.074-.079l1.322.019h2.82l1.322-.019q.074,0,.074.079L7.533-5.038v2.073ZM6.944-.849V-3.6h-4.4V-.849Zm0-3.284V-6.708h-4.4v2.574Zm11.7,2.667a1.64,1.64,0,0,0-.274.362q-.088.144-.116.144a.525.525,0,0,1-.139-.065,9.989,9.989,0,0,1-3.7-3.994q0,1.387.019,3.289h.682l1.188-.019q.079,0,.079.074v.408a.07.07,0,0,1-.079.079l-1.187-.019h-.673q.009.533.028,1.285.009.455.009.51a.066.066,0,0,1-.074.074h-.506a.066.066,0,0,1-.074-.074q0-.037,0-.3.019-.821.023-1.5h-.58L12.1-1.187q-.074,0-.074-.079v-.408a.066.066,0,0,1,.074-.074l1.178.019h.589q.028-1.382.028-3.191A9.966,9.966,0,0,1,10.432-.988a.46.46,0,0,1-.153.074q-.056,0-.116-.135a1.082,1.082,0,0,0-.283-.339,8.889,8.889,0,0,0,2.194-1.772A10,10,0,0,0,13.587-5.3H11.573l-1.266.019a.066.066,0,0,1-.074-.074v-.431a.066.066,0,0,1,.074-.074l1.266.019H13.86v-.844a7.123,7.123,0,0,0-.065-1.15,5.826,5.826,0,0,1,.654.056q.116.019.116.079a.3.3,0,0,1-.023.107,1.012,1.012,0,0,0-.032.1,3.815,3.815,0,0,0-.051.8v.854H16.94l1.271-.019a.066.066,0,0,1,.074.074v.431a.066.066,0,0,1-.074.074L16.94-5.3H14.723A9.66,9.66,0,0,0,18.647-1.466Z" transform="translate(10.373 179.483)" fill="#efefef"/>
          <path id="Path_1831" data-name="Path 1831" d="M7.25.561q0,.065-.074.065H6.745Q6.67.626,6.67.561V.144H2.816V.589a.07.07,0,0,1-.079.079H2.31q-.065,0-.065-.079l.009-1.73v-.844L2.245-3.126q0-.074.065-.074l1.276.019H5.91L7.171-3.2q.079,0,.079.074L7.241-2.111v.951ZM6.67-.329v-1H2.816v1Zm0-1.466v-.914H2.816V-1.8ZM9.045-3.451a1.167,1.167,0,0,0-.264.343q-.093.172-.144.172a.425.425,0,0,1-.13-.037A12.351,12.351,0,0,1,4.954-5.14q0,.515.028,1.127Q5-3.562,5-3.544a.066.066,0,0,1-.074.074H4.458a.066.066,0,0,1-.074-.074q0-.014.023-.6.019-.52.023-.979A10.762,10.762,0,0,1,1-2.959a.433.433,0,0,1-.125.037q-.056,0-.144-.167a1.007,1.007,0,0,0-.246-.3A10.6,10.6,0,0,0,4-5.3H2.148l-1.29.019q-.079,0-.079-.074v-.371q0-.065.079-.065l1.29.019H4.411v-.951q-1.308.13-2.347.19l-.093,0a.149.149,0,0,1-.116-.037.773.773,0,0,1-.065-.13,1.1,1.1,0,0,0-.209-.32q1.345-.046,2.983-.2a16.264,16.264,0,0,0,1.916-.3,3.107,3.107,0,0,0,.64-.2,2.623,2.623,0,0,1,.5.362.186.186,0,0,1,.07.135q0,.093-.19.093a3.635,3.635,0,0,0-.561.065q-.858.167-1.967.288v1H7.338l1.29-.019q.079,0,.079.065v.371q0,.074-.079.074L7.338-5.3H5.362A12.394,12.394,0,0,0,7.144-4.207,14.4,14.4,0,0,0,9.045-3.451Zm9.686.867a.809.809,0,0,0-.246.329q-.065.135-.121.135a.342.342,0,0,1-.144-.056,5.156,5.156,0,0,1-2.245-2.073H14.431A5.38,5.38,0,0,1,13.8-3.233a.206.206,0,0,1,.065-.009l.872.019h.886l.914-.019q.074,0,.074.065l-.019.659v.506l.019.645a.066.066,0,0,1-.074.074l-.914-.019H13.833v.635a.959.959,0,0,0,.083.533,3.849,3.849,0,0,0,1.6.162,8.766,8.766,0,0,0,1.2-.056A.807.807,0,0,0,17.145-.2a.733.733,0,0,0,.2-.362,4.942,4.942,0,0,0,.079-.6,1.977,1.977,0,0,0,.334.2q.172.079.172.148,0,.023-.009.1a1.474,1.474,0,0,1-.4.942,1.264,1.264,0,0,1-.687.246,11.17,11.17,0,0,1-1.359.06A13.154,13.154,0,0,1,13.99.478a.893.893,0,0,1-.473-.162,1.186,1.186,0,0,1-.227-.867v-.687l-.019-.492a.066.066,0,0,1,.074-.074l.942.019h1.767v-.96H14.732l-.881.019a.066.066,0,0,1-.074-.074V-3.21a7.031,7.031,0,0,1-1.359,1.243.526.526,0,0,1-.153.074q-.046,0-.125-.13a.866.866,0,0,0-.255-.278,6.519,6.519,0,0,0,1.229-.937,4.33,4.33,0,0,0,.747-1.011H13.5l-1.35.019q-.074,0-.074-.083v-.353q0-.083.074-.083l1.35.019h.371V-5.91l-1.2.019q-.074,0-.074-.065v-.38a.066.066,0,0,1,.074-.074l1.2.019v-.4a5.561,5.561,0,0,0-.056-.988q.306.014.571.046.111.019.111.079a.359.359,0,0,1-.046.148,2.327,2.327,0,0,0-.056.705v.408h1.554v-.4a4.74,4.74,0,0,0-.065-.988q.315.014.58.046.116.019.116.079a.359.359,0,0,1-.046.148,2.156,2.156,0,0,0-.06.705v.408H16.7l1.313-.019a.066.066,0,0,1,.074.074v.38q0,.065-.074.065L16.7-5.91h-.227v1.178h.7l1.345-.019q.07,0,.07.083v.353q0,.083-.07.083l-1.345-.019h-.622A4.8,4.8,0,0,0,18.731-2.584ZM15.948-4.731V-5.91H14.394v1.178ZM11.8-2.157q-.315.96-.849,2.2a2.476,2.476,0,0,0-.158.427q0,.116-.079.116a.375.375,0,0,1-.144-.056,4.436,4.436,0,0,1-.455-.306,3.876,3.876,0,0,0,.427-.7,12.565,12.565,0,0,0,.84-2.245,1.135,1.135,0,0,0,.329.278q.121.07.121.13A.83.83,0,0,1,11.8-2.157Zm.371-4.495a.127.127,0,0,1,.032.074.2.2,0,0,1-.065.107l-.209.26q-.065.074-.093.074t-.056-.037A6.442,6.442,0,0,0,10.539-7.26q-.042-.023-.042-.046t.065-.093l.209-.218q.065-.07.1-.07a.117.117,0,0,1,.056.019A6.551,6.551,0,0,1,12.172-6.652Zm-.441,2.329q.037.037.037.056a.144.144,0,0,1-.046.079l-.227.264q-.083.1-.107.1a.089.089,0,0,1-.056-.032,6.4,6.4,0,0,0-1.28-1.039q-.046-.023-.046-.046t.056-.083l.2-.241q.046-.065.093-.065a.144.144,0,0,1,.06.019A7.539,7.539,0,0,1,11.731-4.323Z" transform="translate(10.373 165.483)" fill="#efefef"/>
          <path id="Path_1830" data-name="Path 1830" d="M4.161-6.281q0,.079-.083.079L2.964-6.225H2.718v.858h.162l.979-.019q.065,0,.065.074l-.009.867v1.252l.009.872q0,.074-.065.074l-.979-.019H2.718v.9h.19l1.123-.019q.074,0,.074.065v.371a.066.066,0,0,1-.074.074L2.908-.886h-.19V-.45L2.737.645q0,.065-.074.065H2.25q-.074,0-.074-.065L2.194-.45V-.886H1.749L.608-.867q-.065,0-.065-.074v-.371a.057.057,0,0,1,.065-.065l1.141.019h.445v-.9H2.022l-.969.019a.066.066,0,0,1-.074-.074L1-3.191V-4.444L.979-5.311a.066.066,0,0,1,.074-.074l.969.019h.172v-.858H1.823L.705-6.2a.07.07,0,0,1-.079-.079v-.362q0-.074.079-.074L1.823-6.7h.371V-6.8a7.244,7.244,0,0,0-.065-1.062q.343.014.58.046.107.019.107.088a1.209,1.209,0,0,1-.037.153,2.277,2.277,0,0,0-.06.663V-6.7h.246l1.113-.019q.083,0,.083.074ZM3.423-2.7v-.928H1.5V-2.7Zm0-1.354v-.877H1.5v.877ZM9.12-.571A.066.066,0,0,1,9.045-.5L7.784-.515h-.64V-.39L7.162.626A.066.066,0,0,1,7.088.7H6.67A.066.066,0,0,1,6.6.626L6.615-.39V-.515H5.52L4.258-.5q-.079,0-.079-.074V-.914q0-.074.079-.074l.13,0q.139.009.306.014v-.682l-.019-.543a.066.066,0,0,1,.074-.074L5.9-2.25h.714v-.677h-.7l-1.058.019q-.074,0-.074-.083l.023-.571v-.469L4.787-4.6q0-.083.074-.083l1.058.019H7.185l1.044-.019q.074,0,.074.083l-.019.571v.469l.019.571q0,.083-.074.083L7.185-2.927H7.144v.677H7.5l1.132-.019a.066.066,0,0,1,.074.074v.334a.066.066,0,0,1-.074.074L7.5-1.8H7.144v.835h.64L9.045-.988a.066.066,0,0,1,.074.074ZM7.76-3.344V-4.23H5.321v.886ZM6.615-.969V-1.8H5.209v.835ZM9.027-5.321q0,.083-.065.083L7.719-5.256H5.571l-1.248.019q-.065,0-.065-.083v-.325q0-.074.065-.074L5.437-5.7q.167-.436.306-.891l-.979.019q-.079,0-.079-.074v-.325q0-.074.079-.074l1.025.019h.074l.088-.315A2.208,2.208,0,0,0,6.026-7.9a3.928,3.928,0,0,1,.566.07q.116.014.116.083a.248.248,0,0,1-.065.135.731.731,0,0,0-.111.227l-.1.353h.617L8.1-7.046a.066.066,0,0,1,.074.074l-.019.543V-5.7l.807-.019q.065,0,.065.074ZM7.621-5.7v-.891H6.3q-.162.529-.292.891Zm9.621,4.022a1.5,1.5,0,0,1-.325.71.577.577,0,0,1-.427.162q-.594,0-1.072-1.118a6.493,6.493,0,0,1-1.48,1.15A.765.765,0,0,1,13.8-.71q-.056,0-.153-.125a1.162,1.162,0,0,0-.255-.246,5.346,5.346,0,0,0,1.832-1.35L15.2-2.514a12.7,12.7,0,0,1-.436-2.635H12.9l-1.3.019q-.088,0-.088-.074v-.343q0-.074.088-.074l1.3.019h1.837a2.537,2.537,0,0,1-.009-.255,6.2,6.2,0,0,0-.079-.789,2.678,2.678,0,0,1,.515.046q.153.028.153.1a.357.357,0,0,1-.046.144.672.672,0,0,0-.032.264V-5.6h.427l1.313-.019a.066.066,0,0,1,.074.074V-5.2a.066.066,0,0,1-.074.074l-1.313-.019h-.4A14.2,14.2,0,0,0,15.6-2.941a4.6,4.6,0,0,0,.408-.83,3.188,3.188,0,0,0,.218-.747,2.381,2.381,0,0,1,.464.2q.1.046.1.121,0,.037-.107.144a2.173,2.173,0,0,0-.218.436,7.682,7.682,0,0,1-.691,1.243,3.5,3.5,0,0,0,.408.8q.186.26.311.26.292,0,.38-.891a1.089,1.089,0,0,0,.278.25q.121.074.121.135A.732.732,0,0,1,17.242-1.679ZM14.143-2.8a.066.066,0,0,1-.074.074l-.71-.019h-.608l-.724.019a.066.066,0,0,1-.074-.074l.019-.6v-.469l-.019-.608a.066.066,0,0,1,.074-.074l.724.019h.608l.71-.019a.066.066,0,0,1,.074.074l-.019.608V-3.4Zm-.482-.325V-4.152H12.436v1.025Zm.779.659a1.834,1.834,0,0,0-.056.32.349.349,0,0,1-.046.181.412.412,0,0,1-.153.07q-.932.278-1.995.492a1.513,1.513,0,0,0-.39.125.247.247,0,0,1-.116.056q-.056,0-.093-.1a4.3,4.3,0,0,1-.144-.51,4.237,4.237,0,0,0,.844-.1A13.242,13.242,0,0,0,14.44-2.468ZM16.7-6.044a.1.1,0,0,1,.023.051q0,.019-.056.074l-.167.153a.269.269,0,0,1-.1.06q-.014,0-.051-.042a4.146,4.146,0,0,0-.617-.617q-.037-.028-.037-.042t.074-.074l.172-.13a.13.13,0,0,1,.074-.042.107.107,0,0,1,.056.032A5.646,5.646,0,0,1,16.7-6.044ZM18.04.631q0,.074-.083.074h-.431a.066.066,0,0,1-.074-.074V.116h-6.4V.631a.066.066,0,0,1-.074.074h-.441A.066.066,0,0,1,10.46.631l.019-3.558v-1.9L10.46-7.362a.066.066,0,0,1,.074-.074l1.322.019h4.787l1.313-.019q.083,0,.083.074l-.019,2.254v2.18ZM17.451-.39V-6.9h-6.4V-.39Z" transform="translate(10.373 150.483)" fill="#efefef"/>
          <path id="Path_1829" data-name="Path 1829" d="M7.5.5Q7.5.58,7.413.58H6.953Q6.888.58,6.888.5V.056H2.612V.538q0,.079-.074.079h-.45q-.074,0-.074-.079l.019-1.7v-.826L2.013-3.108a.066.066,0,0,1,.074-.074L3.4-3.164H6.109l1.3-.019q.083,0,.083.074l-.019,1v.923ZM6.888-.478V-2.63H2.612V-.478ZM8.614-4.258a.135.135,0,0,1,.028.06q0,.032-.093.1l-.274.181a.292.292,0,0,1-.121.06q-.028,0-.06-.046-.269-.385-.6-.775-2.973.38-5.789.524a1.338,1.338,0,0,0-.464.079.328.328,0,0,1-.162.056Q1-4.017.969-4.133.9-4.388.826-4.759q.315.014.612.014.209,0,.366,0l.673-.028A21.045,21.045,0,0,0,3.706-7.269a2.516,2.516,0,0,0,.167-.645,3.907,3.907,0,0,1,.608.162q.144.056.144.135a.208.208,0,0,1-.074.139,1.508,1.508,0,0,0-.25.417A25.22,25.22,0,0,1,3.136-4.806q2.087-.121,3.952-.325A13.269,13.269,0,0,0,5.859-6.29q-.037-.032-.037-.056t.088-.1l.209-.139a.223.223,0,0,1,.107-.06A.127.127,0,0,1,6.3-6.61,14.377,14.377,0,0,1,8.614-4.258Zm9.565,3.173-.065.469a2.414,2.414,0,0,1-.246.854q-.218.353-.96.353-.436,0-.789-.019a.364.364,0,0,1-.176-.042A.367.367,0,0,1,15.892.39a.958.958,0,0,0-.135-.334,10.2,10.2,0,0,0,1.113.07q.441,0,.561-.246a1.86,1.86,0,0,0,.139-.612h-4.94l-.111.306q-.037.083-.093.083a.391.391,0,0,1-.07-.009l-.315-.056q-.1-.019-.1-.06a.328.328,0,0,1,.028-.093,8.785,8.785,0,0,0,.371-1,3.2,3.2,0,0,0,.1-.5.084.084,0,0,1,.093-.083l1.2.019h3.391v-.533H13.652l-1.294.019q-.074,0-.074-.083v-.306a.066.066,0,0,1,.074-.074l1.294.019h2.593L17.576-3.1a.066.066,0,0,1,.074.074l-.019.5v.246l.019.524a.066.066,0,0,1-.074.074L16.245-1.7H12.937q-.111.394-.162.543h3.989L18.1-1.178q.088,0,.088.07A.076.076,0,0,1,18.179-1.085ZM18.531-5.3a.107.107,0,0,1,.014.042q0,.023-.079.06l-.144.065a.258.258,0,0,1-.088.032q-.028,0-.056-.06a2.326,2.326,0,0,1-.093-.227l-.543.079v1.072l.019.663q0,.079-.074.079h-.315q-.065,0-.065-.079l.019-.663V-5.251q-.353.037-.492.046a1.1,1.1,0,0,0-.334.07.2.2,0,0,1-.1.046q-.056,0-.083-.107a2.184,2.184,0,0,1-.074-.353q.135.009.237.009t.237-.009q.083-.083.445-.492a6.57,6.57,0,0,0-.775-.724q-.032-.023-.032-.042a.2.2,0,0,1,.046-.07l.135-.153q.042-.051.065-.051a.105.105,0,0,1,.06.032l.181.139a6.528,6.528,0,0,0,.39-.6,2.2,2.2,0,0,0,.139-.371,2.262,2.262,0,0,1,.371.162q.074.046.074.1t-.074.093a.588.588,0,0,0-.153.181,7.36,7.36,0,0,1-.492.677q.056.046.325.311a5.5,5.5,0,0,0,.357-.51,1.65,1.65,0,0,0,.181-.362,2.877,2.877,0,0,1,.334.2q.074.06.074.1t-.074.1a.778.778,0,0,0-.227.227,9.422,9.422,0,0,1-.886,1.025q.473-.042.951-.111l-.181-.3a.057.057,0,0,1-.014-.032q0-.028.06-.051l.144-.07A.224.224,0,0,1,18-6.156q.023,0,.056.037A4.643,4.643,0,0,1,18.531-5.3ZM14.1-5.288a.107.107,0,0,1,.014.042q0,.023-.079.06l-.144.07a.287.287,0,0,1-.088.028q-.032,0-.056-.06t-.056-.125q-.032-.083-.037-.1l-.515.079v1.062l.019.663q0,.079-.074.079h-.315q-.065,0-.065-.079l.019-.663V-5.251q-.334.037-.464.046a1.1,1.1,0,0,0-.334.07.205.205,0,0,1-.093.046q-.056,0-.088-.107a2.184,2.184,0,0,1-.074-.353q.255.014.311.014t.125,0q.431-.478.464-.52a5.635,5.635,0,0,0-.807-.751q-.028-.028-.028-.042a.178.178,0,0,1,.046-.074l.135-.148q.042-.051.065-.051a.112.112,0,0,1,.06.028l.2.162a4.064,4.064,0,0,0,.38-.58,2.2,2.2,0,0,0,.139-.371,2.262,2.262,0,0,1,.371.162q.074.046.074.1t-.074.093a.588.588,0,0,0-.153.181q-.2.3-.482.654.227.209.334.325l.339-.492a1.65,1.65,0,0,0,.181-.362,2.878,2.878,0,0,1,.334.2q.074.06.074.1t-.074.1a.821.821,0,0,0-.232.227,8.513,8.513,0,0,1-.881,1.025q.274-.023.932-.1l-.181-.3a.057.057,0,0,1-.014-.032q0-.023.06-.051l.144-.07a.224.224,0,0,1,.06-.019q.023,0,.051.037A4.471,4.471,0,0,1,14.1-5.288Zm1.777,1.661a.066.066,0,0,1-.074.074l-.561-.019h-.39l-.557.019a.066.066,0,0,1-.074-.074l.023-.441V-4.3l-.023-.431q0-.083.074-.083l.557.019h.39L15.8-4.82q.074,0,.074.083l-.019.431v.237Zm-.38-.269v-.58h-.9v.58ZM11.625-2.1a18.743,18.743,0,0,1-.872,2.05,1.614,1.614,0,0,0-.181.408q-.014.116-.093.116a.218.218,0,0,1-.135-.056A3.617,3.617,0,0,1,9.936.093a3.71,3.71,0,0,0,.464-.71,13.3,13.3,0,0,0,.835-2.05,1.377,1.377,0,0,0,.278.274q.148.111.148.167A.349.349,0,0,1,11.625-2.1Zm.1-4.588q.032.032.032.051a.269.269,0,0,1-.06.1l-.2.227q-.065.079-.1.079a.089.089,0,0,1-.056-.032,6.6,6.6,0,0,0-1.085-.988q-.051-.037-.051-.06T10.27-7.4l.176-.209q.06-.074.093-.074a.1.1,0,0,1,.051.023A6.382,6.382,0,0,1,11.722-6.689Zm-.306,2.273a.1.1,0,0,1,.037.06.213.213,0,0,1-.056.1L11.2-4q-.056.06-.074.06a.089.089,0,0,1-.056-.032,5.978,5.978,0,0,0-1.141-.923q-.051-.028-.051-.051a.177.177,0,0,1,.051-.088l.181-.241q.042-.056.07-.056a.158.158,0,0,1,.07.028A7.094,7.094,0,0,1,11.416-4.416Zm4.648-2.217a.07.07,0,0,1-.079.079l-.673-.019h-.589l-.691.019a.07.07,0,0,1-.079-.079v-.255q0-.074.079-.074l.691.019h.589l.673-.019q.079,0,.079.074Zm-.172-.738a.066.066,0,0,1-.074.074l-.552-.019h-.408l-.552.019a.066.066,0,0,1-.074-.074v-.237q0-.079.074-.079l.552.023h.408l.552-.023q.074,0,.074.079Zm-.046,2.148q0,.074-.079.074l-.529-.019h-.38l-.533.019a.066.066,0,0,1-.074-.074V-5.45q0-.079.074-.079l.533.023h.38l.529-.023a.07.07,0,0,1,.079.079Zm0-.705q0,.074-.079.074l-.529-.019h-.38l-.533.019a.066.066,0,0,1-.074-.074v-.227a.066.066,0,0,1,.074-.074l.533.019h.38l.529-.019q.079,0,.079.074ZM12.52-4.806a.144.144,0,0,1-.046.088.839.839,0,0,0-.116.246,5.88,5.88,0,0,1-.274.733q-.046.1-.088.1a.208.208,0,0,1-.083-.037,1.008,1.008,0,0,0-.255-.116,4,4,0,0,0,.329-.789,1.5,1.5,0,0,0,.079-.4,2.362,2.362,0,0,1,.339.088Q12.52-4.852,12.52-4.806Zm4.379,0a.144.144,0,0,1-.046.088.839.839,0,0,0-.116.246,5.638,5.638,0,0,1-.274.724q-.051.1-.088.1a.208.208,0,0,1-.083-.037,1.008,1.008,0,0,0-.255-.116,4.014,4.014,0,0,0,.329-.779,1.5,1.5,0,0,0,.079-.4,2.166,2.166,0,0,1,.339.088Q16.9-4.852,16.9-4.806Zm1.67.863a1.243,1.243,0,0,0-.246.116.208.208,0,0,1-.1.056q-.037,0-.079-.093a5.266,5.266,0,0,1-.348-.942.147.147,0,0,1-.009-.042q0-.032.093-.06l.172-.051a.256.256,0,0,1,.051-.009q.028,0,.042.051A4.289,4.289,0,0,0,18.569-3.943ZM13.981-4.1a.2.2,0,0,1,0,.032q0,.042-.079.06l-.19.046a.269.269,0,0,1-.07.014q-.037,0-.046-.06a3.877,3.877,0,0,0-.227-.844.106.106,0,0,1-.009-.032q0-.037.088-.056l.148-.037.06-.009q.028,0,.056.046A3.851,3.851,0,0,1,13.981-4.1Z" transform="translate(10.373 127.483)" fill="#4891f2"/>
          <path id="Path_1828" data-name="Path 1828" d="M8.906-3.479q0,.083-.088.083L7.575-3.414H1.953L.705-3.4q-.074,0-.074-.083V-3.85a.066.066,0,0,1,.074-.074l1.248.019h2.44V-4.82H3.052L1.712-4.8q-.065,0-.065-.074v-.362q0-.074.065-.074l1.341.019H4.393v-.835h-1.8l-1.331.019a.066.066,0,0,1-.074-.074v-.362a.066.066,0,0,1,.074-.074L2.588-6.6H5.381a9.729,9.729,0,0,0,.5-.854,1.763,1.763,0,0,0,.139-.436,3.466,3.466,0,0,1,.533.176q.107.056.107.116a.135.135,0,0,1-.088.116.551.551,0,0,0-.172.176q-.218.366-.464.705H6.949l1.322-.019a.066.066,0,0,1,.074.074v.362a.066.066,0,0,1-.074.074L6.949-6.128H4.963v.835H6.452l1.331-.019q.079,0,.079.074v.362q0,.074-.079.074L6.452-4.82H4.963v.914H7.575l1.243-.019q.088,0,.088.074Zm.111,3.6a1.016,1.016,0,0,0-.237.371Q8.7.663,8.633.663A.713.713,0,0,1,8.512.645,5.445,5.445,0,0,1,4.657-1.721a3.333,3.333,0,0,1-1,1.28A6.011,6.011,0,0,1,1.03.645,1,1,0,0,1,.9.663Q.83.663.761.5A1.088,1.088,0,0,0,.524.148,5.68,5.68,0,0,0,3.307-.835,2.482,2.482,0,0,0,4.142-1.92H2.185L.9-1.9A.066.066,0,0,1,.83-1.976v-.38A.066.066,0,0,1,.9-2.431l1.28.019h2.1a2.67,2.67,0,0,0,.06-.547,1.693,1.693,0,0,0-.023-.288q.339.028.543.065.153.032.153.107a.313.313,0,0,1-.065.158,2.54,2.54,0,0,0-.107.506h2.5l1.285-.019a.066.066,0,0,1,.074.074v.38a.066.066,0,0,1-.074.074L7.343-1.92H5.038A5.421,5.421,0,0,0,9.018.121Zm-5.2-7.13a.149.149,0,0,1,.023.065q0,.037-.1.083l-.246.125a.449.449,0,0,1-.121.046q-.032,0-.06-.056a3.348,3.348,0,0,0-.552-.826.137.137,0,0,1-.037-.07q0-.046.1-.083l.255-.116a.281.281,0,0,1,.093-.028.118.118,0,0,1,.07.037A4.571,4.571,0,0,1,3.813-7.009Zm13.429,5.33a1.5,1.5,0,0,1-.325.71.577.577,0,0,1-.427.162q-.594,0-1.072-1.118a6.493,6.493,0,0,1-1.48,1.15A.765.765,0,0,1,13.8-.71q-.056,0-.153-.125a1.162,1.162,0,0,0-.255-.246,5.346,5.346,0,0,0,1.832-1.35L15.2-2.514a12.7,12.7,0,0,1-.436-2.635H12.9l-1.3.019q-.088,0-.088-.074v-.343q0-.074.088-.074l1.3.019h1.837a2.537,2.537,0,0,1-.009-.255,6.2,6.2,0,0,0-.079-.789,2.678,2.678,0,0,1,.515.046q.153.028.153.1a.357.357,0,0,1-.046.144.672.672,0,0,0-.032.264V-5.6h.427l1.313-.019a.066.066,0,0,1,.074.074V-5.2a.066.066,0,0,1-.074.074l-1.313-.019h-.4A14.2,14.2,0,0,0,15.6-2.941a4.6,4.6,0,0,0,.408-.83,3.188,3.188,0,0,0,.218-.747,2.381,2.381,0,0,1,.464.2q.1.046.1.121,0,.037-.107.144a2.173,2.173,0,0,0-.218.436,7.682,7.682,0,0,1-.691,1.243,3.5,3.5,0,0,0,.408.8q.186.26.311.26.292,0,.38-.891a1.089,1.089,0,0,0,.278.25q.121.074.121.135A.732.732,0,0,1,17.242-1.679ZM14.143-2.8a.066.066,0,0,1-.074.074l-.71-.019h-.608l-.724.019a.066.066,0,0,1-.074-.074l.019-.6v-.469l-.019-.608a.066.066,0,0,1,.074-.074l.724.019h.608l.71-.019a.066.066,0,0,1,.074.074l-.019.608V-3.4Zm-.482-.325V-4.152H12.436v1.025Zm.779.659a1.834,1.834,0,0,0-.056.32.349.349,0,0,1-.046.181.412.412,0,0,1-.153.07q-.932.278-1.995.492a1.513,1.513,0,0,0-.39.125.247.247,0,0,1-.116.056q-.056,0-.093-.1a4.3,4.3,0,0,1-.144-.51,4.237,4.237,0,0,0,.844-.1A13.242,13.242,0,0,0,14.44-2.468ZM16.7-6.044a.1.1,0,0,1,.023.051q0,.019-.056.074l-.167.153a.269.269,0,0,1-.1.06q-.014,0-.051-.042a4.146,4.146,0,0,0-.617-.617q-.037-.028-.037-.042t.074-.074l.172-.13a.13.13,0,0,1,.074-.042.107.107,0,0,1,.056.032A5.646,5.646,0,0,1,16.7-6.044ZM18.04.631q0,.074-.083.074h-.431a.066.066,0,0,1-.074-.074V.116h-6.4V.631a.066.066,0,0,1-.074.074h-.441A.066.066,0,0,1,10.46.631l.019-3.558v-1.9L10.46-7.362a.066.066,0,0,1,.074-.074l1.322.019h4.787l1.313-.019q.083,0,.083.074l-.019,2.254v2.18ZM17.451-.39V-6.9h-6.4V-.39Z" transform="translate(10.373 106.483)" fill="#efefef"/>
          <path id="Path_1827" data-name="Path 1827" d="M8.957-6.462a.066.066,0,0,1-.074.074L7.552-6.406H6.058v.775H7.116l1.3-.019a.066.066,0,0,1,.074.074l-.019.663v.64l.019.663a.066.066,0,0,1-.074.074l-1.3-.019H4.643l-1.3.019a.066.066,0,0,1-.074-.074l.019-.663v-.64l-.019-.663A.066.066,0,0,1,3.34-5.65l1.3.019H5.52v-.775H4.36l-1.322.019a.066.066,0,0,1-.074-.074v-.362A.066.066,0,0,1,3.038-6.9l1.322.019H5.52v-.264a3.6,3.6,0,0,0-.07-.8,5.084,5.084,0,0,1,.6.056q.111.014.111.074a.707.707,0,0,1-.046.153,1.3,1.3,0,0,0-.06.482v.3H7.552L8.883-6.9a.066.066,0,0,1,.074.074ZM6.383-3.989V-5.2H5.339v1.206Zm1.559,0V-5.2H6.9v1.206Zm-3.117,0V-5.2H3.808v1.206Zm-1.9-1.294a.143.143,0,0,1-.074.116.871.871,0,0,0-.232.274,9,9,0,0,1-.529.849V-.635L2.106.589q0,.065-.074.065H1.591q-.074,0-.074-.065L1.535-.635V-2.347q0-.343.019-1.025a7.941,7.941,0,0,1-.826.849Q.645-2.44.6-2.44T.5-2.565a.887.887,0,0,0-.237-.3A7.61,7.61,0,0,0,2.18-5.2a2.02,2.02,0,0,0,.181-.469A2.01,2.01,0,0,1,2.83-5.4Q2.922-5.325,2.922-5.283ZM8.939-2.519q0,.074-.079.074L7.533-2.463H4.161l-1.322.019a.066.066,0,0,1-.074-.074v-.362a.066.066,0,0,1,.074-.074l1.322.019H7.533L8.86-2.955q.079,0,.079.074ZM7.663-.571a1.554,1.554,0,0,1-.176.635A.769.769,0,0,1,7.208.32,3.079,3.079,0,0,1,5.924.492,4.221,4.221,0,0,1,4.861.4a.529.529,0,0,1-.408-.561V-1.2a6.243,6.243,0,0,0-.037-.714,5.412,5.412,0,0,1,.575.06q.116.009.116.074a.575.575,0,0,1-.037.116,1.284,1.284,0,0,0-.056.455v.77a.324.324,0,0,0,.246.357,3.355,3.355,0,0,0,.724.056,2.373,2.373,0,0,0,.9-.111q.246-.13.26-.844A1.685,1.685,0,0,0,7.5-.8q.172.06.172.135Q7.672-.645,7.663-.571ZM2.932-7.408q0,.06-.083.1a.889.889,0,0,0-.25.227A9.845,9.845,0,0,1,.909-5.316a.356.356,0,0,1-.144.074q-.032,0-.121-.135A.919.919,0,0,0,.39-5.664,6.722,6.722,0,0,0,2.125-7.38a1.777,1.777,0,0,0,.223-.427,3.172,3.172,0,0,1,.492.274Q2.932-7.478,2.932-7.408ZM3.892-1.5A4.576,4.576,0,0,1,3.085.153Q3.048.2,3.015.2A.293.293,0,0,1,2.922.172L2.612.009q-.079-.042-.079-.074a.112.112,0,0,1,.028-.06,3.826,3.826,0,0,0,.789-1.568q.019-.06.056-.06a.524.524,0,0,1,.116.032l.278.107q.1.042.1.079A.075.075,0,0,1,3.892-1.5ZM9.1-.19a.147.147,0,0,1,.009.042q0,.032-.088.083L8.739.083a.26.26,0,0,1-.1.037Q8.6.121,8.577.056a6.986,6.986,0,0,0-.854-1.5A.113.113,0,0,1,7.7-1.5q0-.028.083-.07L8.053-1.7a.254.254,0,0,1,.074-.023q.023,0,.06.046A8.064,8.064,0,0,1,9.1-.19ZM6.856-1.322a.083.083,0,0,1,.023.051q0,.032-.06.083l-.237.181a.3.3,0,0,1-.116.065q-.023,0-.056-.046a5.588,5.588,0,0,0-.854-.932q-.037-.028-.037-.046T5.6-2.06L5.812-2.2A.206.206,0,0,1,5.9-2.254a.107.107,0,0,1,.056.032A5.843,5.843,0,0,1,6.856-1.322Zm10.386-.357a1.5,1.5,0,0,1-.325.71.577.577,0,0,1-.427.162q-.594,0-1.072-1.118a6.493,6.493,0,0,1-1.48,1.15A.765.765,0,0,1,13.8-.71q-.056,0-.153-.125a1.162,1.162,0,0,0-.255-.246,5.346,5.346,0,0,0,1.832-1.35L15.2-2.514a12.7,12.7,0,0,1-.436-2.635H12.9l-1.3.019q-.088,0-.088-.074v-.343q0-.074.088-.074l1.3.019h1.837a2.537,2.537,0,0,1-.009-.255,6.2,6.2,0,0,0-.079-.789,2.678,2.678,0,0,1,.515.046q.153.028.153.1a.357.357,0,0,1-.046.144.672.672,0,0,0-.032.264V-5.6h.427l1.313-.019a.066.066,0,0,1,.074.074V-5.2a.066.066,0,0,1-.074.074l-1.313-.019h-.4A14.2,14.2,0,0,0,15.6-2.941a4.6,4.6,0,0,0,.408-.83,3.188,3.188,0,0,0,.218-.747,2.381,2.381,0,0,1,.464.2q.1.046.1.121,0,.037-.107.144a2.173,2.173,0,0,0-.218.436,7.682,7.682,0,0,1-.691,1.243,3.5,3.5,0,0,0,.408.8q.186.26.311.26.292,0,.38-.891a1.089,1.089,0,0,0,.278.25q.121.074.121.135A.732.732,0,0,1,17.242-1.679ZM14.143-2.8a.066.066,0,0,1-.074.074l-.71-.019h-.608l-.724.019a.066.066,0,0,1-.074-.074l.019-.6v-.469l-.019-.608a.066.066,0,0,1,.074-.074l.724.019h.608l.71-.019a.066.066,0,0,1,.074.074l-.019.608V-3.4Zm-.482-.325V-4.152H12.436v1.025Zm.779.659a1.834,1.834,0,0,0-.056.32.349.349,0,0,1-.046.181.412.412,0,0,1-.153.07q-.932.278-1.995.492a1.513,1.513,0,0,0-.39.125.247.247,0,0,1-.116.056q-.056,0-.093-.1a4.3,4.3,0,0,1-.144-.51,4.237,4.237,0,0,0,.844-.1A13.242,13.242,0,0,0,14.44-2.468ZM16.7-6.044a.1.1,0,0,1,.023.051q0,.019-.056.074l-.167.153a.269.269,0,0,1-.1.06q-.014,0-.051-.042a4.146,4.146,0,0,0-.617-.617q-.037-.028-.037-.042t.074-.074l.172-.13a.13.13,0,0,1,.074-.042.107.107,0,0,1,.056.032A5.646,5.646,0,0,1,16.7-6.044ZM18.04.631q0,.074-.083.074h-.431a.066.066,0,0,1-.074-.074V.116h-6.4V.631a.066.066,0,0,1-.074.074h-.441A.066.066,0,0,1,10.46.631l.019-3.558v-1.9L10.46-7.362a.066.066,0,0,1,.074-.074l1.322.019h4.787l1.313-.019q.083,0,.083.074l-.019,2.254v2.18ZM17.451-.39V-6.9h-6.4V-.39Z" transform="translate(10.373 91.483)" fill="#efefef"/>
          <path id="Path_1826" data-name="Path 1826" d="M8.957-4.031q0,.074-.079.074l-1.3-.019H6.174a8.274,8.274,0,0,1-.334,1H7.246L8.5-2.992a.066.066,0,0,1,.074.074L8.558-1.911v.687L8.568-.153a.671.671,0,0,1-.2.561,1.618,1.618,0,0,1-.779.144A.37.37,0,0,1,7.413.529.215.215,0,0,1,7.362.4.89.89,0,0,0,7.2.009q.255.019.552.019a.279.279,0,0,0,.232-.079.389.389,0,0,0,.051-.232V-2.5H7.018V-.77L7.037.274q0,.079-.083.079H6.592q-.074,0-.074-.079L6.536-.77V-2.5H5.566V-.77L5.585.274q0,.079-.083.079H5.14q-.074,0-.074-.079L5.084-.77V-2.5H4.133V-.524L4.152.561a.066.066,0,0,1-.074.074H3.665A.066.066,0,0,1,3.59.561L3.609-.524V-1.958l-.019-.96a.066.066,0,0,1,.074-.074l1.276.019h.334a6.784,6.784,0,0,0,.339-1H4.7l-1.313.019q-.079,0-.079-.074v-.38q0-.074.079-.074L4.7-4.467H7.58l1.3-.019q.079,0,.079.074ZM3.164-6.7q0,.088-.079.088l-.826-.019H2.194v1.985l.742-.019a.066.066,0,0,1,.074.074v.4a.066.066,0,0,1-.074.074l-.742-.019v2.176l.951-.427a1.252,1.252,0,0,0-.023.246q0,.051,0,.1.009.088.009.125,0,.088-.153.167A17.261,17.261,0,0,1,1.3-1.034a2.18,2.18,0,0,0-.445.181.184.184,0,0,1-.125.065q-.056,0-.1-.093Q.575-1,.445-1.406a7.178,7.178,0,0,0,.9-.227l.3-.107V-4.133H1.526l-.747.019Q.7-4.115.7-4.189v-.4q0-.074.079-.074l.747.019h.116V-6.629H1.47L.654-6.61Q.58-6.61.58-6.7v-.39a.066.066,0,0,1,.074-.074l.816.019h.789l.826-.019q.079,0,.079.074Zm5.367-.529a.524.524,0,0,1-.037.121,1.18,1.18,0,0,0-.056.445v.58l.019.724a.066.066,0,0,1-.074.074L7.144-5.3h-2.1l-1.225.019a.066.066,0,0,1-.074-.074l.019-.724v-.58a3.073,3.073,0,0,0-.07-.71,4.4,4.4,0,0,1,.571.056q.107.014.107.079a.493.493,0,0,1-.046.158,1.142,1.142,0,0,0-.051.417v.886H5.784V-6.888a5.8,5.8,0,0,0-.056-.969q.227.009.589.051.107.014.107.074a.613.613,0,0,1-.06.172,2.885,2.885,0,0,0-.046.673v1.113H7.9v-.872a3.862,3.862,0,0,0-.056-.724,5.187,5.187,0,0,1,.575.056Q8.531-7.3,8.531-7.227Zm9.815,3.145a.066.066,0,0,1-.074.074l-1.266-.019H14.5V-.39h1.925l1.322-.019a.066.066,0,0,1,.074.074V.1a.066.066,0,0,1-.074.074L16.426.153H12.079L10.757.172q-.079,0-.079-.074V-.334q0-.074.079-.074l1.322.019h1.8V-4.026H11.518l-1.257.019a.066.066,0,0,1-.074-.074v-.441a.066.066,0,0,1,.074-.074l1.257.019h2.366v-1.9a7.2,7.2,0,0,0-.07-1.2,6.071,6.071,0,0,1,.687.06q.107.014.107.083a.456.456,0,0,1-.051.162,3.475,3.475,0,0,0-.056.854v1.939h2.5L18.272-4.6a.066.066,0,0,1,.074.074Z" transform="translate(10.373 76.483)" fill="#efefef"/>
          <path id="Path_1825" data-name="Path 1825" d="M6.132-.937q0,.074-.079.074H5.682a.066.066,0,0,1-.074-.074v-.306H4.031v.482q0,.079-.074.079h-.38A.07.07,0,0,1,3.5-.761L3.516-2.18v-.6L3.5-3.637a.066.066,0,0,1,.074-.074l.849.019h.789l.849-.019a.066.066,0,0,1,.074.074l-.019.705V-2.3Zm-.524-.779v-1.5H4.031v1.5ZM8.925-4.745q0,.074-.079.074l-.13,0q-.4-.009-.932-.014v3.075L7.793-.3a.9.9,0,0,1-.227.705.967.967,0,0,1-.408.167,4.432,4.432,0,0,1-.71.042H6.281A.344.344,0,0,1,6.1.589.346.346,0,0,1,6.053.427,1.3,1.3,0,0,0,5.882.009a7.171,7.171,0,0,0,.779.046A.636.636,0,0,0,7.106-.06a.44.44,0,0,0,.1-.32V-4.69H4.657l-1.331.019q-.065,0-.065-.074V-5.13q0-.083.065-.083L4.657-5.2H7.538l1.308-.019q.079,0,.079.083ZM8.883-6.592q0,.074-.065.074L7.575-6.536H6.262l.019.654q0,.079-.074.079H5.789a.07.07,0,0,1-.079-.079l.019-.654H3.743l.019.654q0,.079-.074.079H3.27a.07.07,0,0,1-.079-.079l.019-.654H1.93L.7-6.517q-.079,0-.079-.074V-7q0-.074.079-.074l1.234.019H3.21a5.174,5.174,0,0,0-.065-.863q.283.014.589.051.107.014.107.083a.253.253,0,0,1-.037.125,1.642,1.642,0,0,0-.06.6H5.729a4.549,4.549,0,0,0-.056-.863q.4.019.58.037.1.019.1.088a.328.328,0,0,1-.037.135,1.771,1.771,0,0,0-.056.6H7.575l1.243-.019q.065,0,.065.074ZM3.126-5.548q0,.051-.083.125a.879.879,0,0,0-.172.264q-.218.445-.543.979V-.635L2.347.608q0,.065-.074.065H1.814Q1.74.673,1.74.608L1.758-.635V-2.25q0-.042.028-1.178A7.6,7.6,0,0,1,.835-2.412q-.1.083-.13.083T.589-2.44a1.106,1.106,0,0,0-.246-.315A6.614,6.614,0,0,0,2.366-5.367a2.3,2.3,0,0,0,.153-.506q.32.125.492.209Q3.126-5.6,3.126-5.548Zm13.61,2.236q0,.074-.065.074L15.41-3.256h-.951v.408h.58l1.141-.019a.066.066,0,0,1,.074.074l-.019.6v.455l.019.594a.066.066,0,0,1-.074.074l-1.141-.023h-.371A5.41,5.41,0,0,0,16.5-.209a1.1,1.1,0,0,0-.218.274Q16.217.19,16.17.19a.354.354,0,0,1-.125-.042A5.054,5.054,0,0,1,14.431-.923q0,.649.028,1.09,0,.074.014.232,0,.065,0,.083,0,.079-.074.079h-.334q-.074,0-.074-.079,0-.019.009-.176.032-.482.046-1.229A5.783,5.783,0,0,1,12.028.353a.569.569,0,0,1-.144.042q-.051,0-.125-.13a.807.807,0,0,0-.227-.246,6.27,6.27,0,0,0,2.213-1.113h-.227l-1.141.023a.066.066,0,0,1-.074-.074l.019-.594v-.455l-.019-.6a.066.066,0,0,1,.074-.074l1.141.019h.5v-.408h-.886l-1.262.019q-.079,0-.079-.074v-.25q0-.074.079-.074l1.262.019h.886a3.2,3.2,0,0,0-.06-.543,3.767,3.767,0,0,1,.487.046q.111.019.111.07a.447.447,0,0,1-.046.111.785.785,0,0,0-.046.315h.951l1.262-.019q.065,0,.065.074ZM15.79-1.387v-.436H14.449v.436Zm0-.728v-.422H14.449v.422Zm-1.767.728v-.436H12.766v.436Zm0-.728v-.422H12.766v.422ZM18.012-.306a1.3,1.3,0,0,1-.065.478A.562.562,0,0,1,17.766.4a1.731,1.731,0,0,1-.979.181.316.316,0,0,1-.181-.032A.371.371,0,0,1,16.555.4a1.073,1.073,0,0,0-.139-.371,5.941,5.941,0,0,0,.635.037q.269,0,.339-.1a.625.625,0,0,0,.07-.357V-4.142H15.771l-1.011.019a.066.066,0,0,1-.074-.074l.019-.635v-.622l-.019-.654a.066.066,0,0,1,.074-.074l1.011.019h1.146l1.011-.019A.066.066,0,0,1,18-6.109l-.019,1.141v3.335ZM17.46-4.5v-.482H15.21V-4.5Zm0-.826v-.464H15.21v.464ZM13.8-4.2a.066.066,0,0,1-.074.074l-.937-.019H11.1V-.9l.009,1.5a.057.057,0,0,1-.065.065h-.422q-.074,0-.074-.065l.019-1.5V-4.606l-.019-1.5a.066.066,0,0,1,.074-.074l1.058.019h1.1l.937-.019a.066.066,0,0,1,.074.074l-.023.7v.52ZM13.271-4.5v-.482H11.1V-4.5Zm0-.826v-.464H11.1v.464Zm5.121-1.549q0,.065-.079.065L17.08-6.833h-1.3l.019.4q0,.065-.079.065h-.4q-.074,0-.074-.065,0-.019,0-.135t.014-.264H13.174l.023.39q0,.065-.079.065h-.4q-.074,0-.074-.065,0-.019,0-.135t.014-.255H11.448L10.2-6.814q-.074,0-.074-.065v-.353a.066.066,0,0,1,.074-.074l1.248.019h1.215a2.9,2.9,0,0,0-.07-.645q.4.014.571.037.107.019.107.083a.273.273,0,0,1-.046.125.944.944,0,0,0-.051.4h2.092a3.1,3.1,0,0,0-.065-.645q.4.014.571.037.1.019.1.083a.273.273,0,0,1-.046.125,1.031,1.031,0,0,0-.046.4h1.3l1.234-.019q.079,0,.079.074Z" transform="translate(10.373 62.483)" fill="#efefef"/>
          <path id="Path_1824" data-name="Path 1824" d="M7.236-3.024,7.2-2.338A7.29,7.29,0,0,1,6.791.079a.854.854,0,0,1-.826.464q-.408,0-.724-.028A.3.3,0,0,1,5.075.469.57.57,0,0,1,5.024.3a1.471,1.471,0,0,0-.135-.4,4.792,4.792,0,0,0,.9.088.674.674,0,0,0,.348-.07.518.518,0,0,0,.181-.255,8.223,8.223,0,0,0,.3-2.24H4.588A3.777,3.777,0,0,1,3.479-.5,4.842,4.842,0,0,1,1.387.552a.905.905,0,0,1-.125.019q-.056,0-.144-.162A1.1,1.1,0,0,0,.854.065,4.583,4.583,0,0,0,3.1-.918,2.964,2.964,0,0,0,4-2.584h-.39l-1.257.019q-.065,0-.065-.074v-.394q0-.074.065-.074l1.257.019H5.886l1.266-.019A.074.074,0,0,1,7.236-3.024Zm1.651-3.4a.066.066,0,0,1-.074.074L7.57-6.374H6.248l.019.626q0,.088-.074.088H5.775q-.079,0-.079-.088l.009-.19q0-.2.009-.436H3.72l.019.635q0,.079-.074.079H3.247q-.074,0-.074-.079l0-.195q.009-.2.014-.441H1.934L.691-6.355a.066.066,0,0,1-.074-.074v-.413a.066.066,0,0,1,.074-.074L1.934-6.9H3.191a4.865,4.865,0,0,0-.06-.969,4.608,4.608,0,0,1,.589.056q.107.019.107.079a.238.238,0,0,1-.046.13,2.156,2.156,0,0,0-.06.705H5.715a4.591,4.591,0,0,0-.065-.979,5.141,5.141,0,0,1,.6.056q.1.019.1.088a.289.289,0,0,1-.037.121,2.287,2.287,0,0,0-.06.714H7.57l1.243-.019a.066.066,0,0,1,.074.074Zm.1,3.7a1.425,1.425,0,0,0-.288.362q-.083.144-.111.144A.356.356,0,0,1,8.442-2.3,7.1,7.1,0,0,1,7-3.479a6.267,6.267,0,0,1-.867-1.243H4.718L3.873-4.7A.066.066,0,0,1,3.8-4.778v-.39q0-.079.074-.079l.844.019h.858l.854-.019a.1.1,0,0,1,.093.074,1.913,1.913,0,0,0,.162.353A5.18,5.18,0,0,0,8.985-2.728ZM3.409-4.741a.163.163,0,0,1-.083.125.863.863,0,0,0-.232.274,7.6,7.6,0,0,1-2.06,2,.356.356,0,0,1-.144.074q-.037,0-.125-.144A1.26,1.26,0,0,0,.492-2.7a5.687,5.687,0,0,0,2.1-1.893,2.137,2.137,0,0,0,.237-.492q.339.144.487.227Q3.409-4.792,3.409-4.741ZM16.736-3.312q0,.074-.065.074L15.41-3.256h-.951v.408h.58l1.141-.019a.066.066,0,0,1,.074.074l-.019.6v.455l.019.594a.066.066,0,0,1-.074.074l-1.141-.023h-.371A5.41,5.41,0,0,0,16.5-.209a1.1,1.1,0,0,0-.218.274Q16.217.19,16.17.19a.354.354,0,0,1-.125-.042A5.054,5.054,0,0,1,14.431-.923q0,.649.028,1.09,0,.074.014.232,0,.065,0,.083,0,.079-.074.079h-.334q-.074,0-.074-.079,0-.019.009-.176.032-.482.046-1.229A5.783,5.783,0,0,1,12.028.353a.569.569,0,0,1-.144.042q-.051,0-.125-.13a.807.807,0,0,0-.227-.246,6.27,6.27,0,0,0,2.213-1.113h-.227l-1.141.023a.066.066,0,0,1-.074-.074l.019-.594v-.455l-.019-.6a.066.066,0,0,1,.074-.074l1.141.019h.5v-.408h-.886l-1.262.019q-.079,0-.079-.074v-.25q0-.074.079-.074l1.262.019h.886a3.2,3.2,0,0,0-.06-.543,3.767,3.767,0,0,1,.487.046q.111.019.111.07a.447.447,0,0,1-.046.111.785.785,0,0,0-.046.315h.951l1.262-.019q.065,0,.065.074ZM15.79-1.387v-.436H14.449v.436Zm0-.728v-.422H14.449v.422Zm-1.767.728v-.436H12.766v.436Zm0-.728v-.422H12.766v.422ZM18.012-.306a1.3,1.3,0,0,1-.065.478A.562.562,0,0,1,17.766.4a1.731,1.731,0,0,1-.979.181.316.316,0,0,1-.181-.032A.371.371,0,0,1,16.555.4a1.073,1.073,0,0,0-.139-.371,5.941,5.941,0,0,0,.635.037q.269,0,.339-.1a.625.625,0,0,0,.07-.357V-4.142H15.771l-1.011.019a.066.066,0,0,1-.074-.074l.019-.635v-.622l-.019-.654a.066.066,0,0,1,.074-.074l1.011.019h1.146l1.011-.019A.066.066,0,0,1,18-6.109l-.019,1.141v3.335ZM17.46-4.5v-.482H15.21V-4.5Zm0-.826v-.464H15.21v.464ZM13.8-4.2a.066.066,0,0,1-.074.074l-.937-.019H11.1V-.9l.009,1.5a.057.057,0,0,1-.065.065h-.422q-.074,0-.074-.065l.019-1.5V-4.606l-.019-1.5a.066.066,0,0,1,.074-.074l1.058.019h1.1l.937-.019a.066.066,0,0,1,.074.074l-.023.7v.52ZM13.271-4.5v-.482H11.1V-4.5Zm0-.826v-.464H11.1v.464Zm5.121-1.549q0,.065-.079.065L17.08-6.833h-1.3l.019.4q0,.065-.079.065h-.4q-.074,0-.074-.065,0-.019,0-.135t.014-.264H13.174l.023.39q0,.065-.079.065h-.4q-.074,0-.074-.065,0-.019,0-.135t.014-.255H11.448L10.2-6.814q-.074,0-.074-.065v-.353a.066.066,0,0,1,.074-.074l1.248.019h1.215a2.9,2.9,0,0,0-.07-.645q.4.014.571.037.107.019.107.083a.273.273,0,0,1-.046.125.944.944,0,0,0-.051.4h2.092a3.1,3.1,0,0,0-.065-.645q.4.014.571.037.1.019.1.083a.273.273,0,0,1-.046.125,1.031,1.031,0,0,0-.046.4h1.3l1.234-.019q.079,0,.079.074Z" transform="translate(10.373 49.483)" fill="#efefef"/>
          <path id="Path_1823" data-name="Path 1823" d="M9.129-2.157a1.318,1.318,0,0,0-.3.362q-.065.135-.1.135a.342.342,0,0,1-.144-.056A8.582,8.582,0,0,1,6.174-3.581H3.256A8.671,8.671,0,0,1,1.007-1.67.59.59,0,0,1,.872-1.6q-.037,0-.125-.144A.808.808,0,0,0,.473-2.06,7.27,7.27,0,0,0,2.565-3.581H1.995L.738-3.562q-.074,0-.074-.083V-4a.066.066,0,0,1,.074-.074l1.257.019h.969a5.475,5.475,0,0,0,.58-.993H3.113l-1.327.023A.07.07,0,0,1,1.707-5.1v-.353q0-.074.079-.074l1.327.019h.631q.111-.306.274-.877H2.556l-1.322.019q-.079,0-.079-.074V-6.8q0-.074.079-.074l1.322.019H4.128a4.3,4.3,0,0,0,.125-.872q0-.093-.009-.19a3.839,3.839,0,0,1,.589.083q.153.032.153.107a.229.229,0,0,1-.056.13,2.182,2.182,0,0,0-.213.659L4.7-6.861H6.9l1.322-.019q.079,0,.079.074v.362q0,.074-.079.074L6.9-6.387H4.588q-.162.571-.278.877h2.1l1.331-.019a.066.066,0,0,1,.074.074V-5.1q0,.079-.074.079L6.411-5.047H5.775a5.02,5.02,0,0,0,.626.993H7.515l1.252-.019A.066.066,0,0,1,8.841-4v.353q0,.083-.074.083L7.515-3.581H6.837A8.2,8.2,0,0,0,9.129-2.157ZM5.8-4.054a6.933,6.933,0,0,1-.561-.993H4.128a7.47,7.47,0,0,1-.529.993Zm-.719.909a.579.579,0,0,1-.06.181,2.524,2.524,0,0,0-.046.645v1.248L5-.218a.715.715,0,0,1-.255.626A2.237,2.237,0,0,1,3.665.571.29.29,0,0,1,3.5.543.423.423,0,0,1,3.437.38a1.038,1.038,0,0,0-.19-.4A6.2,6.2,0,0,0,3.98.019a.521.521,0,0,0,.366-.1.34.34,0,0,0,.088-.264V-2.338A4.488,4.488,0,0,0,4.37-3.28q.093,0,.6.06Q5.084-3.205,5.084-3.145ZM8.47-.181a.868.868,0,0,0-.274.3q-.083.139-.139.139A.584.584,0,0,1,7.923.223,8.458,8.458,0,0,1,5.478-1.1q-.037-.028-.037-.051t.088-.1L5.706-1.4a.208.208,0,0,1,.1-.056.093.093,0,0,1,.051.028A7.161,7.161,0,0,0,8.47-.181ZM3.952-1.169a1,1,0,0,1,.019.13q0,.07-.162.158a12.747,12.747,0,0,1-1.874.826A1.033,1.033,0,0,0,1.6.088.219.219,0,0,1,1.48.162q-.056,0-.1-.083a3.623,3.623,0,0,1-.19-.487,3.819,3.819,0,0,0,.645-.153,11.947,11.947,0,0,0,2.1-.909v.083A1.219,1.219,0,0,0,3.952-1.169Zm2.9-1.3q0,.056-.083.083a.568.568,0,0,0-.2.125,7.5,7.5,0,0,1-.733.6.392.392,0,0,1-.135.074q-.037,0-.148-.116a1.229,1.229,0,0,0-.241-.181,4.337,4.337,0,0,0,.858-.673,1.278,1.278,0,0,0,.209-.292,4.554,4.554,0,0,1,.39.255A.163.163,0,0,1,6.856-2.468ZM3.9-2.013q.037.032.037.056t-.056.074l-.172.19Q3.637-1.6,3.6-1.6t-.056-.042a4.035,4.035,0,0,0-.84-.742q-.032-.019-.032-.042t.07-.1L2.913-2.7A.156.156,0,0,1,3-2.751a.157.157,0,0,1,.056.023A4.931,4.931,0,0,1,3.9-2.013Zm13.341.334a1.5,1.5,0,0,1-.325.71.577.577,0,0,1-.427.162q-.594,0-1.072-1.118a6.493,6.493,0,0,1-1.48,1.15A.765.765,0,0,1,13.8-.71q-.056,0-.153-.125a1.162,1.162,0,0,0-.255-.246,5.346,5.346,0,0,0,1.832-1.35L15.2-2.514a12.7,12.7,0,0,1-.436-2.635H12.9l-1.3.019q-.088,0-.088-.074v-.343q0-.074.088-.074l1.3.019h1.837a2.537,2.537,0,0,1-.009-.255,6.2,6.2,0,0,0-.079-.789,2.678,2.678,0,0,1,.515.046q.153.028.153.1a.357.357,0,0,1-.046.144.672.672,0,0,0-.032.264V-5.6h.427l1.313-.019a.066.066,0,0,1,.074.074V-5.2a.066.066,0,0,1-.074.074l-1.313-.019h-.4A14.2,14.2,0,0,0,15.6-2.941a4.6,4.6,0,0,0,.408-.83,3.188,3.188,0,0,0,.218-.747,2.381,2.381,0,0,1,.464.2q.1.046.1.121,0,.037-.107.144a2.173,2.173,0,0,0-.218.436,7.682,7.682,0,0,1-.691,1.243,3.5,3.5,0,0,0,.408.8q.186.26.311.26.292,0,.38-.891a1.089,1.089,0,0,0,.278.25q.121.074.121.135A.732.732,0,0,1,17.242-1.679ZM14.143-2.8a.066.066,0,0,1-.074.074l-.71-.019h-.608l-.724.019a.066.066,0,0,1-.074-.074l.019-.6v-.469l-.019-.608a.066.066,0,0,1,.074-.074l.724.019h.608l.71-.019a.066.066,0,0,1,.074.074l-.019.608V-3.4Zm-.482-.325V-4.152H12.436v1.025Zm.779.659a1.834,1.834,0,0,0-.056.32.349.349,0,0,1-.046.181.412.412,0,0,1-.153.07q-.932.278-1.995.492a1.513,1.513,0,0,0-.39.125.247.247,0,0,1-.116.056q-.056,0-.093-.1a4.3,4.3,0,0,1-.144-.51,4.237,4.237,0,0,0,.844-.1A13.242,13.242,0,0,0,14.44-2.468ZM16.7-6.044a.1.1,0,0,1,.023.051q0,.019-.056.074l-.167.153a.269.269,0,0,1-.1.06q-.014,0-.051-.042a4.146,4.146,0,0,0-.617-.617q-.037-.028-.037-.042t.074-.074l.172-.13a.13.13,0,0,1,.074-.042.107.107,0,0,1,.056.032A5.646,5.646,0,0,1,16.7-6.044ZM18.04.631q0,.074-.083.074h-.431a.066.066,0,0,1-.074-.074V.116h-6.4V.631a.066.066,0,0,1-.074.074h-.441A.066.066,0,0,1,10.46.631l.019-3.558v-1.9L10.46-7.362a.066.066,0,0,1,.074-.074l1.322.019h4.787l1.313-.019q.083,0,.083.074l-.019,2.254v2.18ZM17.451-.39V-6.9h-6.4V-.39Z" transform="translate(10.373 34.483)" fill="#efefef"/>
          <path id="Path_1822" data-name="Path 1822" d="M8.9-3.057q0,.083-.074.083L7.589-2.992H1.92L.682-2.973q-.074,0-.074-.083v-.306a.066.066,0,0,1,.074-.074l1.239.019H4.435v-.589H2.69L1.359-4Q1.28-4,1.28-4.063V-4.37q0-.074.079-.074l1.331.019H4.435v-.589H3.191L1.832-5a.066.066,0,0,1-.074-.074l.019-.775v-.844l-.019-.77a.066.066,0,0,1,.074-.074l1.359.019H6.3l1.359-.019a.066.066,0,0,1,.074.074l-.019.77v.844l.019.775A.066.066,0,0,1,7.658-5L6.3-5.014H4.968v.589H6.81l1.331-.019a.066.066,0,0,1,.074.074v.306Q8.215-4,8.141-4L6.81-4.008H4.968v.589H7.589l1.239-.019a.066.066,0,0,1,.074.074ZM7.181-5.4v-.659H4.968V-5.4Zm0-1.048V-7.1H4.968v.645ZM4.435-5.4v-.659H2.31V-5.4Zm0-1.048V-7.1H2.31v.645ZM8.739.315A.066.066,0,0,1,8.665.39L7.4.371H2.148L.872.39A.066.066,0,0,1,.8.315V-.046A.066.066,0,0,1,.872-.121L2.148-.1H4.425V-.844h-1.2L1.9-.826q-.088,0-.088-.074v-.334q0-.074.088-.074l1.327.019h1.2v-.037a4.13,4.13,0,0,0-.065-.835,5.165,5.165,0,0,1,.589.056q.1.014.1.074a.385.385,0,0,1-.037.135,2.053,2.053,0,0,0-.056.571v.037H6.346l1.341-.019a.066.066,0,0,1,.074.074V-.9a.066.066,0,0,1-.074.074L6.346-.844H4.959V-.1H7.4L8.665-.121a.066.066,0,0,1,.074.074ZM2.213-2.5A5.492,5.492,0,0,1,1.15-1.378a.152.152,0,0,1-.074.042.177.177,0,0,1-.088-.051l-.227-.19Q.687-1.642.687-1.67t.037-.051a3.67,3.67,0,0,0,.988-1.016q.032-.051.065-.051a.3.3,0,0,1,.111.042l.241.125q.1.051.1.083A.053.053,0,0,1,2.213-2.5ZM8.6-1.74a.09.09,0,0,1,.019.046q0,.032-.083.088L8.3-1.452a.276.276,0,0,1-.111.046q-.032,0-.06-.051a6.575,6.575,0,0,0-.9-1.072q-.037-.032-.037-.051t.088-.079L7.5-2.774a.3.3,0,0,1,.1-.037.136.136,0,0,1,.074.037A7.333,7.333,0,0,1,8.6-1.74Zm-4.68-.037q0,.019,0,.028,0,.056-.116.079l-.264.046a.655.655,0,0,1-.083.009q-.051,0-.06-.079a4.078,4.078,0,0,0-.172-.881.2.2,0,0,1,0-.032q0-.032.111-.051l.246-.051a.261.261,0,0,1,.06-.009q.046,0,.074.07A3.754,3.754,0,0,1,3.924-1.777Zm2.25-.074a.088.088,0,0,1,0,.028q0,.042-.1.074l-.269.1a.326.326,0,0,1-.07.014q-.037,0-.06-.074a4.783,4.783,0,0,0-.38-.854A.079.079,0,0,1,5.288-2.6q0-.028.088-.056l.246-.079a.255.255,0,0,1,.07-.019q.023,0,.056.046A5.159,5.159,0,0,1,6.174-1.851ZM18.36-6.712a.066.066,0,0,1-.074.074l-1.248-.019H15.284V-5.2h1.044l1.341-.019a.066.066,0,0,1,.074.074l-.019,1.647v1.586L17.743.478a.066.066,0,0,1-.074.074h-.45a.066.066,0,0,1-.074-.074V-.065H11.332V.5a.066.066,0,0,1-.074.074h-.441A.066.066,0,0,1,10.743.5L10.762-1.9V-3.312L10.743-5.14a.066.066,0,0,1,.074-.074l1.341.019h.9q.019-.608.019-.988v-.473h-1.6l-1.248.019a.066.066,0,0,1-.074-.074v-.431a.066.066,0,0,1,.074-.074l1.248.019h5.571l1.248-.019a.066.066,0,0,1,.074.074ZM17.145-.6V-4.671h-1.86v1.508q0,.353.093.417a.772.772,0,0,0,.38.065.762.762,0,0,0,.427-.083.484.484,0,0,0,.13-.325,6.98,6.98,0,0,0,.032-.738,1.381,1.381,0,0,0,.343.181.281.281,0,0,1,.144.079.225.225,0,0,1,.028.13.756.756,0,0,1,0,.083q-.042.84-.3,1.025a1.308,1.308,0,0,1-.77.181,1.888,1.888,0,0,1-.8-.125q-.274-.135-.274-.631V-4.671H13.582a4.8,4.8,0,0,1-.441,1.735,3.065,3.065,0,0,1-1,1.132A.231.231,0,0,1,12-1.74q-.056,0-.158-.1a1.025,1.025,0,0,0-.334-.218,2.846,2.846,0,0,0,1.141-1.183,4.193,4.193,0,0,0,.357-1.429H11.332V-.6ZM14.714-5.2V-6.656H13.642v.5q0,.353-.019.96Zm13.2,2.055a.066.066,0,0,1-.074.074l-1.243-.019h-.135v1.661l.009,1.16a.766.766,0,0,1-.26.673,2.529,2.529,0,0,1-1.215.162.3.3,0,0,1-.181-.032A.3.3,0,0,1,24.747.39a1.335,1.335,0,0,0-.181-.38q.441.037.867.037A.572.572,0,0,0,25.8-.037a.361.361,0,0,0,.088-.278V-3.085H20.9l-1.239.019a.066.066,0,0,1-.074-.074v-.394a.066.066,0,0,1,.074-.074L20.9-3.59h5.692l1.243-.019a.066.066,0,0,1,.074.074ZM27.7-6.875a.066.066,0,0,1-.074.074l-1.169-.019v1.025l.009,1.067a1.151,1.151,0,0,1-.06.431.579.579,0,0,1-.2.223,2.044,2.044,0,0,1-1.016.153H25a.372.372,0,0,1-.19-.028.314.314,0,0,1-.056-.144,1,1,0,0,0-.19-.38q.445.037.867.037a.582.582,0,0,0,.371-.083.35.35,0,0,0,.083-.269V-6.819h-4.7L19.9-6.8q-.079,0-.079-.074v-.394q0-.074.079-.074l1.28.019h5.158l1.285-.019a.066.066,0,0,1,.074.074ZM24.177-.292q0,.074-.079.074h-.4a.066.066,0,0,1-.074-.074V-.608H21.556v.482a.07.07,0,0,1-.079.079h-.4Q21-.046,21-.125L21.022-1.3v-.422L21-2.347a.066.066,0,0,1,.074-.074l.969.019h1.081l.969-.019q.079,0,.079.074l-.019.515V-1.4Zm-.552-.751v-.923H21.556v.923Zm.552-3.488q0,.074-.079.074l-.946-.019H22.1l-.965.019a.066.066,0,0,1-.074-.074l.019-.561v-.455l-.019-.561a.066.066,0,0,1,.074-.074l.965.019h1.053l.946-.019q.079,0,.079.074l-.019.561v.455ZM23.634-4.9v-.835H21.6V-4.9Z" transform="translate(0 20.483)" fill="#efefef"/>
        </g>
      </g>
      <line id="Line_479" data-name="Line 479" y2="183" transform="translate(190.346 11.79)" fill="none" stroke="#df5a5a" stroke-width="1" stroke-dasharray="1"/>
    </g>
    <text id="p" transform="translate(-4321 -10390)" fill="#fff" font-size="10" font-family="SourceHanSansTW-Regular, Source Han Sans TW"><tspan x="0" y="12">6.52</tspan></text>
  </g>
</svg>
