<svg xmlns="http://www.w3.org/2000/svg" width="262.328" height="251.613" viewBox="0 0 262.328 251.613">
  <g id="data9_m" transform="translate(8787.911 12488.613)">
    <g id="Group_1947" data-name="Group 1947" transform="translate(-8997 -12765.333)">
      <g id="data_8-08" transform="translate(218 278)">
        <g id="Group_1707" data-name="Group 1707" transform="translate(0 0.029)">
          <g id="Group_1703" data-name="Group 1703" transform="translate(0 0)">
            <g id="Group_1700" data-name="Group 1700" transform="translate(0 0)">
              <path id="Path_1694" data-name="Path 1694" d="M.415-3.53A6.55,6.55,0,0,1,.676-5.574a2.542,2.542,0,0,1,.776-1.194,1.985,1.985,0,0,1,1.3-.42,2.115,2.115,0,0,1,1.011.232,1.932,1.932,0,0,1,.718.669,3.589,3.589,0,0,1,.444,1.064A7.072,7.072,0,0,1,5.083-3.53,6.569,6.569,0,0,1,4.824-1.5,2.542,2.542,0,0,1,4.05-.3a1.985,1.985,0,0,1-1.3.422A1.964,1.964,0,0,1,1.123-.62,4.717,4.717,0,0,1,.415-3.53Zm.9,0a4.488,4.488,0,0,0,.413,2.346A1.216,1.216,0,0,0,2.749-.6a1.215,1.215,0,0,0,1.018-.586A4.49,4.49,0,0,0,4.18-3.53a4.487,4.487,0,0,0-.413-2.349A1.225,1.225,0,0,0,2.739-6.46a1.126,1.126,0,0,0-.967.513A4.54,4.54,0,0,0,1.318-3.53Z" transform="translate(21 203.626)" fill="#efefef"/>
              <path id="Path_1693" data-name="Path 1693" d="M5.034-.845V0H.3a1.555,1.555,0,0,1,.1-.61,3.229,3.229,0,0,1,.579-.952,9.065,9.065,0,0,1,1.15-1.084A9.748,9.748,0,0,0,3.711-4.163a1.815,1.815,0,0,0,.41-1.057A1.175,1.175,0,0,0,3.748-6.1a1.347,1.347,0,0,0-.974-.359,1.373,1.373,0,0,0-1.016.381,1.441,1.441,0,0,0-.386,1.055l-.9-.093a2.224,2.224,0,0,1,.7-1.541,2.382,2.382,0,0,1,1.626-.53,2.269,2.269,0,0,1,1.631.571,1.876,1.876,0,0,1,.6,1.416,2.148,2.148,0,0,1-.176.845,3.278,3.278,0,0,1-.583.874A14.215,14.215,0,0,1,2.91-2.222q-.791.664-1.016.9a2.89,2.89,0,0,0-.371.476ZM5.977-3.53a6.55,6.55,0,0,1,.261-2.043,2.542,2.542,0,0,1,.776-1.194,1.985,1.985,0,0,1,1.3-.42,2.115,2.115,0,0,1,1.011.232,1.932,1.932,0,0,1,.718.669,3.589,3.589,0,0,1,.444,1.064,7.072,7.072,0,0,1,.161,1.692A6.569,6.569,0,0,1,10.386-1.5,2.542,2.542,0,0,1,9.612-.3a1.985,1.985,0,0,1-1.3.422A1.964,1.964,0,0,1,6.685-.62,4.717,4.717,0,0,1,5.977-3.53Zm.9,0a4.488,4.488,0,0,0,.413,2.346A1.216,1.216,0,0,0,8.311-.6a1.215,1.215,0,0,0,1.018-.586A4.49,4.49,0,0,0,9.741-3.53a4.487,4.487,0,0,0-.413-2.349A1.225,1.225,0,0,0,8.3-6.46a1.126,1.126,0,0,0-.967.513A4.54,4.54,0,0,0,6.88-3.53Z" transform="translate(16 163.895)" fill="#efefef"/>
              <path id="Path_1692" data-name="Path 1692" d="M3.232,0V-1.714H.127V-2.52L3.394-7.158h.718V-2.52h.967v.806H4.111V0Zm0-2.52V-5.747L.991-2.52ZM5.977-3.53a6.55,6.55,0,0,1,.261-2.043,2.542,2.542,0,0,1,.776-1.194,1.985,1.985,0,0,1,1.3-.42,2.115,2.115,0,0,1,1.011.232,1.932,1.932,0,0,1,.718.669,3.589,3.589,0,0,1,.444,1.064,7.072,7.072,0,0,1,.161,1.692A6.569,6.569,0,0,1,10.386-1.5,2.542,2.542,0,0,1,9.612-.3a1.985,1.985,0,0,1-1.3.422A1.964,1.964,0,0,1,6.685-.62,4.717,4.717,0,0,1,5.977-3.53Zm.9,0a4.488,4.488,0,0,0,.413,2.346A1.216,1.216,0,0,0,8.311-.6a1.215,1.215,0,0,0,1.018-.586A4.49,4.49,0,0,0,9.741-3.53a4.487,4.487,0,0,0-.413-2.349A1.225,1.225,0,0,0,8.3-6.46a1.126,1.126,0,0,0-.967.513A4.54,4.54,0,0,0,6.88-3.53Z" transform="translate(16 124.164)" fill="#efefef"/>
              <path id="Path_1691" data-name="Path 1691" d="M4.976-5.405,4.1-5.337a1.655,1.655,0,0,0-.332-.752,1.163,1.163,0,0,0-.879-.376,1.208,1.208,0,0,0-.737.234,2,2,0,0,0-.654.884A4.618,4.618,0,0,0,1.25-3.691a2.037,2.037,0,0,1,.776-.718,2.088,2.088,0,0,1,.962-.234A1.993,1.993,0,0,1,4.485-4,2.322,2.322,0,0,1,5.1-2.324a2.752,2.752,0,0,1-.291,1.252,2.117,2.117,0,0,1-.8.886A2.18,2.18,0,0,1,2.861.122,2.252,2.252,0,0,1,1.069-.686,4.08,4.08,0,0,1,.376-3.35a4.775,4.775,0,0,1,.767-3.018,2.2,2.2,0,0,1,1.8-.82,2.021,2.021,0,0,1,1.384.474A2.011,2.011,0,0,1,4.976-5.405ZM1.387-2.319a2.039,2.039,0,0,0,.193.869,1.437,1.437,0,0,0,.54.632A1.349,1.349,0,0,0,2.847-.6,1.24,1.24,0,0,0,3.8-1.05a1.768,1.768,0,0,0,.4-1.221,1.655,1.655,0,0,0-.4-1.169,1.3,1.3,0,0,0-1-.427A1.356,1.356,0,0,0,1.8-3.44,1.54,1.54,0,0,0,1.387-2.319ZM5.977-3.53a6.55,6.55,0,0,1,.261-2.043,2.542,2.542,0,0,1,.776-1.194,1.985,1.985,0,0,1,1.3-.42,2.115,2.115,0,0,1,1.011.232,1.932,1.932,0,0,1,.718.669,3.589,3.589,0,0,1,.444,1.064,7.072,7.072,0,0,1,.161,1.692A6.569,6.569,0,0,1,10.386-1.5,2.542,2.542,0,0,1,9.612-.3a1.985,1.985,0,0,1-1.3.422A1.964,1.964,0,0,1,6.685-.62,4.717,4.717,0,0,1,5.977-3.53Zm.9,0a4.488,4.488,0,0,0,.413,2.346A1.216,1.216,0,0,0,8.311-.6a1.215,1.215,0,0,0,1.018-.586A4.49,4.49,0,0,0,9.741-3.53a4.487,4.487,0,0,0-.413-2.349A1.225,1.225,0,0,0,8.3-6.46a1.126,1.126,0,0,0-.967.513A4.54,4.54,0,0,0,6.88-3.53Z" transform="translate(16 84.433)" fill="#efefef"/>
              <path id="Path_1690" data-name="Path 1690" d="M1.768-3.882a1.654,1.654,0,0,1-.811-.571,1.494,1.494,0,0,1-.264-.889,1.738,1.738,0,0,1,.562-1.313,2.083,2.083,0,0,1,1.494-.532,2.1,2.1,0,0,1,1.509.544,1.762,1.762,0,0,1,.571,1.326,1.46,1.46,0,0,1-.261.867,1.647,1.647,0,0,1-.793.569,1.924,1.924,0,0,1,1,.693,1.9,1.9,0,0,1,.344,1.143A2.056,2.056,0,0,1,4.473-.5,2.361,2.361,0,0,1,2.764.122,2.356,2.356,0,0,1,1.055-.505,2.087,2.087,0,0,1,.405-2.07,1.892,1.892,0,0,1,.759-3.24,1.773,1.773,0,0,1,1.768-3.882ZM1.592-5.371a1.115,1.115,0,0,0,.327.83,1.159,1.159,0,0,0,.85.322,1.136,1.136,0,0,0,.833-.32,1.058,1.058,0,0,0,.325-.784,1.1,1.1,0,0,0-.334-.813,1.139,1.139,0,0,0-.833-.33,1.15,1.15,0,0,0-.835.322A1.037,1.037,0,0,0,1.592-5.371ZM1.309-2.065a1.59,1.59,0,0,0,.178.728,1.258,1.258,0,0,0,.53.544A1.549,1.549,0,0,0,2.773-.6a1.418,1.418,0,0,0,1.04-.405,1.387,1.387,0,0,0,.41-1.03A1.41,1.41,0,0,0,3.8-3.086,1.447,1.447,0,0,0,2.744-3.5a1.389,1.389,0,0,0-1.028.41A1.4,1.4,0,0,0,1.309-2.065ZM5.977-3.53a6.55,6.55,0,0,1,.261-2.043,2.542,2.542,0,0,1,.776-1.194,1.985,1.985,0,0,1,1.3-.42,2.115,2.115,0,0,1,1.011.232,1.932,1.932,0,0,1,.718.669,3.589,3.589,0,0,1,.444,1.064,7.072,7.072,0,0,1,.161,1.692A6.569,6.569,0,0,1,10.386-1.5,2.542,2.542,0,0,1,9.612-.3a1.985,1.985,0,0,1-1.3.422A1.964,1.964,0,0,1,6.685-.62,4.717,4.717,0,0,1,5.977-3.53Zm.9,0a4.488,4.488,0,0,0,.413,2.346A1.216,1.216,0,0,0,8.311-.6a1.215,1.215,0,0,0,1.018-.586A4.49,4.49,0,0,0,9.741-3.53a4.487,4.487,0,0,0-.413-2.349A1.225,1.225,0,0,0,8.3-6.46a1.126,1.126,0,0,0-.967.513A4.54,4.54,0,0,0,6.88-3.53Z" transform="translate(16 44.702)" fill="#efefef"/>
              <path id="Path_1689" data-name="Path 1689" d="M3.726,0H2.847V-5.6A4.543,4.543,0,0,1,2.014-5a5.9,5.9,0,0,1-.925.454v-.85a5.308,5.308,0,0,0,1.289-.84,3.3,3.3,0,0,0,.781-.957h.566ZM5.977-3.53a6.55,6.55,0,0,1,.261-2.043,2.542,2.542,0,0,1,.776-1.194,1.985,1.985,0,0,1,1.3-.42,2.115,2.115,0,0,1,1.011.232,1.932,1.932,0,0,1,.718.669,3.589,3.589,0,0,1,.444,1.064,7.072,7.072,0,0,1,.161,1.692A6.569,6.569,0,0,1,10.386-1.5,2.542,2.542,0,0,1,9.612-.3a1.985,1.985,0,0,1-1.3.422A1.964,1.964,0,0,1,6.685-.62,4.717,4.717,0,0,1,5.977-3.53Zm.9,0a4.488,4.488,0,0,0,.413,2.346A1.216,1.216,0,0,0,8.311-.6a1.215,1.215,0,0,0,1.018-.586A4.49,4.49,0,0,0,9.741-3.53a4.487,4.487,0,0,0-.413-2.349A1.225,1.225,0,0,0,8.3-6.46a1.126,1.126,0,0,0-.967.513A4.54,4.54,0,0,0,6.88-3.53Zm4.658,0A6.55,6.55,0,0,1,11.8-5.574a2.542,2.542,0,0,1,.776-1.194,1.985,1.985,0,0,1,1.3-.42,2.115,2.115,0,0,1,1.011.232,1.932,1.932,0,0,1,.718.669,3.589,3.589,0,0,1,.444,1.064,7.072,7.072,0,0,1,.161,1.692A6.569,6.569,0,0,1,15.947-1.5a2.542,2.542,0,0,1-.774,1.2,1.985,1.985,0,0,1-1.3.422A1.964,1.964,0,0,1,12.246-.62,4.717,4.717,0,0,1,11.538-3.53Zm.9,0a4.488,4.488,0,0,0,.413,2.346A1.216,1.216,0,0,0,13.872-.6a1.215,1.215,0,0,0,1.018-.586A4.49,4.49,0,0,0,15.3-3.53a4.487,4.487,0,0,0-.413-2.349,1.225,1.225,0,0,0-1.028-.581,1.126,1.126,0,0,0-.967.513A4.54,4.54,0,0,0,12.441-3.53ZM25.454-.21a.733.733,0,0,1-.229.63.851.851,0,0,1-.356.137,5.305,5.305,0,0,1-.723.034.255.255,0,0,1-.156-.029A.388.388,0,0,1,23.916.4,1.781,1.781,0,0,0,23.735.01a7.085,7.085,0,0,0,.742.039.435.435,0,0,0,.308-.083A.365.365,0,0,0,24.863-.3V-2.119H21.875v1.05q.757-.088,1.318-.181-.249-.361-.278-.4a.133.133,0,0,1-.034-.063q0-.034.093-.073l.21-.093a.314.314,0,0,1,.083-.024q.029,0,.068.054a7.592,7.592,0,0,1,.8,1.309.24.24,0,0,1,.015.059q0,.039-.093.083l-.225.112a.307.307,0,0,1-.107.039q-.034,0-.059-.059-.19-.42-.239-.522-1.45.254-3.467.449a1.26,1.26,0,0,0-.43.093.237.237,0,0,1-.117.059q-.068,0-.112-.132-.059-.21-.127-.557.215,0,.4,0,.342,0,.693-.024.918-.068,1.069-.083v-1.1H18.506V-.352l.02.952a.069.069,0,0,1-.078.078h-.464A.069.069,0,0,1,17.905.6l.02-.952v-1.27l-.02-.928a.069.069,0,0,1,.078-.078l1.411.02h1.938V-3.33h-1.1l-1.372.02a.069.069,0,0,1-.078-.078l.02-.84V-5.239l-.02-.84a.069.069,0,0,1,.078-.078l1.372.02h2.881l1.382-.02a.069.069,0,0,1,.078.078l-.02.84v1.011l.02.84a.069.069,0,0,1-.078.078l-1.382-.02h-1.24v.723h2.09l1.411-.02a.069.069,0,0,1,.078.078l-.02.981v.41Zm-1.46-3.56v-.781H21.875v.781Zm-2.661,0v-.781H19.365v.781ZM23.994-4.98V-5.7H21.875v.718Zm-2.661,0V-5.7H19.365v.718Zm4.712-2.051q0,.078-.083.078l-1.309-.02H23.345l.02.459q0,.083-.078.083h-.435q-.088,0-.088-.083,0-.015.01-.156t.01-.3h-2.31l.02.459q0,.083-.078.083h-.439a.073.073,0,0,1-.083-.083q0-.015.01-.156t.01-.3H18.726l-1.313.02a.069.069,0,0,1-.078-.078v-.4q0-.068.078-.068l1.313.02h1.187a4.375,4.375,0,0,0-.059-.82q.3.015.62.054.1.015.1.088a.266.266,0,0,1-.039.132,1.428,1.428,0,0,0-.063.547h2.31a4.305,4.305,0,0,0-.059-.811q.327.02.61.054.107.015.107.088a.266.266,0,0,1-.039.132,1.5,1.5,0,0,0-.059.537h1.309l1.309-.02q.083,0,.083.068ZM36.084-.068a1.3,1.3,0,0,0-.347.405q-.088.142-.132.142A.3.3,0,0,1,35.454.41,8.005,8.005,0,0,1,31.733-5.1,7.4,7.4,0,0,1,27.925.4a.51.51,0,0,1-.151.068q-.034,0-.137-.151a1.544,1.544,0,0,0-.371-.356,6.79,6.79,0,0,0,3.159-3.037,7.7,7.7,0,0,0,.859-3.745,10.9,10.9,0,0,0-.068-1.187,5.211,5.211,0,0,1,.747.078q.142.034.142.122a.591.591,0,0,1-.059.2,1.436,1.436,0,0,0-.088.562q0,.352-.015.522a9.728,9.728,0,0,0,1.377,3.9A7.8,7.8,0,0,0,36.084-.068Z" transform="translate(-10 8.304)" fill="#efefef"/>
            </g>
            <line id="Line_196" data-name="Line 196" y1="198.649" transform="translate(32.289 5.023)" fill="none" stroke="#efefef" stroke-miterlimit="10" stroke-width="1"/>
          </g>
          <g id="Group_1706" data-name="Group 1706" transform="translate(36.869 44.121)">
            <g id="Group_1705" data-name="Group 1705">
              <g id="Group_1704" data-name="Group 1704">
                <rect id="Rectangle_2187" data-name="Rectangle 2187" width="23.807" height="159.551" fill="#efefef"/>
                <rect id="Rectangle_2188" data-name="Rectangle 2188" width="23.807" height="148.39" transform="translate(33.162 11.161)" fill="#efefef"/>
                <rect id="Rectangle_2189" data-name="Rectangle 2189" width="23.807" height="136.454" transform="translate(66.259 23.097)" fill="#efefef"/>
                <rect id="Rectangle_2190" data-name="Rectangle 2190" width="23.807" height="129.744" transform="translate(99.357 29.807)" fill="#efefef"/>
                <rect id="Rectangle_2191" data-name="Rectangle 2191" width="23.807" height="123.938" transform="translate(132.454 35.614)" fill="#efefef"/>
                <rect id="Rectangle_2192" data-name="Rectangle 2192" width="23.807" height="120.776" transform="translate(165.551 38.775)" fill="#efefef"/>
              </g>
            </g>
          </g>
        </g>
        <g id="Group_1721" data-name="Group 1721" transform="translate(46.87 0)">
          <g id="Group_1714" data-name="Group 1714" transform="translate(184.068)">
            <g id="Group_1711" data-name="Group 1711" transform="translate(3.08)">
              <path id="Path_1688" data-name="Path 1688" d="M.547-1.655l.845-.078a1.468,1.468,0,0,0,.41.864A1.126,1.126,0,0,0,2.578-.6a1.34,1.34,0,0,0,.71-.186,1.517,1.517,0,0,0,.5-.5,2.913,2.913,0,0,0,.327-.837,4.412,4.412,0,0,0,.132-1.074q0-.059,0-.176a2.013,2.013,0,0,1-.72.681,1.957,1.957,0,0,1-.989.261,2,2,0,0,1-1.5-.645,2.359,2.359,0,0,1-.615-1.7,2.415,2.415,0,0,1,.642-1.753,2.145,2.145,0,0,1,1.609-.664,2.3,2.3,0,0,1,1.277.376A2.349,2.349,0,0,1,4.822-5.74a5.278,5.278,0,0,1,.3,2.014,6.519,6.519,0,0,1-.3,2.185A2.559,2.559,0,0,1,3.938-.3,2.294,2.294,0,0,1,2.559.122,2.006,2.006,0,0,1,1.187-.344,2.006,2.006,0,0,1,.547-1.655Zm3.6-3.159a1.721,1.721,0,0,0-.4-1.2,1.263,1.263,0,0,0-.969-.444,1.338,1.338,0,0,0-1.021.479,1.774,1.774,0,0,0-.435,1.24A1.532,1.532,0,0,0,1.731-3.63,1.359,1.359,0,0,0,2.749-3.2a1.3,1.3,0,0,0,1-.427A1.683,1.683,0,0,0,4.146-4.814Zm2-.625a2.176,2.176,0,0,1,.386-1.3A1.291,1.291,0,0,1,7.646-7.28,1.45,1.45,0,0,1,8.762-6.8,2.022,2.022,0,0,1,9.2-5.386a2.006,2.006,0,0,1-.447,1.4,1.431,1.431,0,0,1-1.1.491,1.39,1.39,0,0,1-1.082-.483A2.134,2.134,0,0,1,6.143-5.439ZM7.671-6.675a.661.661,0,0,0-.544.283,1.794,1.794,0,0,0-.217,1.04,1.613,1.613,0,0,0,.22.969.665.665,0,0,0,.542.281.665.665,0,0,0,.549-.283A1.783,1.783,0,0,0,8.438-5.42a1.623,1.623,0,0,0-.22-.974A.669.669,0,0,0,7.671-6.675Zm0,6.938L11.592-7.28H12.3L8.4.264Zm3.1-1.943a2.173,2.173,0,0,1,.386-1.306,1.3,1.3,0,0,1,1.123-.535A1.45,1.45,0,0,1,13.4-3.04a2.022,2.022,0,0,1,.442,1.414,2.006,2.006,0,0,1-.447,1.4,1.436,1.436,0,0,1-1.106.491A1.387,1.387,0,0,1,11.2-.222,2.136,2.136,0,0,1,10.771-1.68ZM12.3-2.915a.665.665,0,0,0-.549.283,1.794,1.794,0,0,0-.217,1.04,1.614,1.614,0,0,0,.22.967.663.663,0,0,0,.542.283.67.67,0,0,0,.554-.283,1.783,1.783,0,0,0,.217-1.035,1.623,1.623,0,0,0-.22-.974A.669.669,0,0,0,12.3-2.915Z" transform="translate(0 201.059)" fill="#4891f2"/>
              <path id="Path_1687" data-name="Path 1687" d="M3.726,0H2.847V-5.6A4.543,4.543,0,0,1,2.014-5a5.9,5.9,0,0,1-.925.454v-.85a5.308,5.308,0,0,0,1.289-.84,3.3,3.3,0,0,0,.781-.957h.566ZM10.6-.845V0H5.864a1.555,1.555,0,0,1,.1-.61,3.229,3.229,0,0,1,.579-.952A9.065,9.065,0,0,1,7.7-2.646,9.748,9.748,0,0,0,9.272-4.163a1.815,1.815,0,0,0,.41-1.057A1.175,1.175,0,0,0,9.309-6.1a1.347,1.347,0,0,0-.974-.359,1.373,1.373,0,0,0-1.016.381,1.441,1.441,0,0,0-.386,1.055l-.9-.093a2.224,2.224,0,0,1,.7-1.541,2.382,2.382,0,0,1,1.626-.53,2.269,2.269,0,0,1,1.631.571,1.876,1.876,0,0,1,.6,1.416,2.148,2.148,0,0,1-.176.845,3.278,3.278,0,0,1-.583.874,14.215,14.215,0,0,1-1.355,1.26q-.791.664-1.016.9a2.89,2.89,0,0,0-.371.476ZM11.7-5.439a2.176,2.176,0,0,1,.386-1.3,1.291,1.291,0,0,1,1.118-.537,1.45,1.45,0,0,1,1.116.481,2.022,2.022,0,0,1,.442,1.414,2.006,2.006,0,0,1-.447,1.4,1.431,1.431,0,0,1-1.1.491,1.39,1.39,0,0,1-1.082-.483A2.134,2.134,0,0,1,11.7-5.439Zm1.528-1.235a.661.661,0,0,0-.544.283,1.794,1.794,0,0,0-.217,1.04,1.613,1.613,0,0,0,.22.969.665.665,0,0,0,.542.281.665.665,0,0,0,.549-.283A1.783,1.783,0,0,0,14-5.42a1.623,1.623,0,0,0-.22-.974A.669.669,0,0,0,13.232-6.675Zm0,6.938L17.153-7.28h.713L13.965.264Zm3.1-1.943a2.173,2.173,0,0,1,.386-1.306,1.3,1.3,0,0,1,1.123-.535,1.45,1.45,0,0,1,1.116.481A2.022,2.022,0,0,1,19.4-1.626a2.006,2.006,0,0,1-.447,1.4,1.436,1.436,0,0,1-1.106.491,1.387,1.387,0,0,1-1.082-.486A2.136,2.136,0,0,1,16.333-1.68Zm1.533-1.235a.665.665,0,0,0-.549.283,1.794,1.794,0,0,0-.217,1.04,1.614,1.614,0,0,0,.22.967.663.663,0,0,0,.542.283.67.67,0,0,0,.554-.283,1.783,1.783,0,0,0,.217-1.035,1.623,1.623,0,0,0-.22-.974A.669.669,0,0,0,17.866-2.915Z" transform="translate(0 105.327)" fill="#4891f2"/>
              <path id="Path_1686" data-name="Path 1686" d="M3.726,0H2.847V-5.6A4.543,4.543,0,0,1,2.014-5a5.9,5.9,0,0,1-.925.454v-.85a5.308,5.308,0,0,0,1.289-.84,3.3,3.3,0,0,0,.781-.957h.566ZM5.977-1.875,6.9-1.953A1.655,1.655,0,0,0,7.375-.94a1.293,1.293,0,0,0,.9.339,1.4,1.4,0,0,0,1.074-.479,1.8,1.8,0,0,0,.439-1.27,1.63,1.63,0,0,0-.422-1.187A1.473,1.473,0,0,0,8.262-3.97a1.532,1.532,0,0,0-.767.193,1.489,1.489,0,0,0-.537.5l-.825-.107.693-3.677h3.56v.84H7.529L7.144-4.3A2.329,2.329,0,0,1,8.5-4.746a2.143,2.143,0,0,1,1.582.649,2.27,2.27,0,0,1,.645,1.67,2.607,2.607,0,0,1-.566,1.68,2.269,2.269,0,0,1-1.88.869A2.316,2.316,0,0,1,6.682-.425,2.134,2.134,0,0,1,5.977-1.875ZM11.7-5.439a2.176,2.176,0,0,1,.386-1.3,1.291,1.291,0,0,1,1.118-.537,1.45,1.45,0,0,1,1.116.481,2.022,2.022,0,0,1,.442,1.414,2.006,2.006,0,0,1-.447,1.4,1.431,1.431,0,0,1-1.1.491,1.39,1.39,0,0,1-1.082-.483A2.134,2.134,0,0,1,11.7-5.439Zm1.528-1.235a.661.661,0,0,0-.544.283,1.794,1.794,0,0,0-.217,1.04,1.613,1.613,0,0,0,.22.969.665.665,0,0,0,.542.281.665.665,0,0,0,.549-.283A1.783,1.783,0,0,0,14-5.42a1.623,1.623,0,0,0-.22-.974A.669.669,0,0,0,13.232-6.675Zm0,6.938L17.153-7.28h.713L13.965.264Zm3.1-1.943a2.173,2.173,0,0,1,.386-1.306,1.3,1.3,0,0,1,1.123-.535,1.45,1.45,0,0,1,1.116.481A2.022,2.022,0,0,1,19.4-1.626a2.006,2.006,0,0,1-.447,1.4,1.436,1.436,0,0,1-1.106.491,1.387,1.387,0,0,1-1.082-.486A2.136,2.136,0,0,1,16.333-1.68Zm1.533-1.235a.665.665,0,0,0-.549.283,1.794,1.794,0,0,0-.217,1.04,1.614,1.614,0,0,0,.22.967.663.663,0,0,0,.542.283.67.67,0,0,0,.554-.283,1.783,1.783,0,0,0,.217-1.035,1.623,1.623,0,0,0-.22-.974A.669.669,0,0,0,17.866-2.915Z" transform="translate(0 6)" fill="#4891f2"/>
            </g>
            <line id="Line_211" data-name="Line 211" y1="198.649" transform="translate(0 5.052)" fill="none" stroke="#4891f2" stroke-miterlimit="10" stroke-width="1"/>
          </g>
          <g id="Group_1717" data-name="Group 1717" transform="translate(1.936 41.439)">
            <g id="Group_1716" data-name="Group 1716">
              <g id="Group_1715" data-name="Group 1715">
                <line id="Line_215" data-name="Line 215" x1="33.097" y2="20.839" transform="translate(0 50.711)" fill="none" stroke="#4891f2" stroke-linecap="round" stroke-miterlimit="10" stroke-width="2"/>
                <line id="Line_216" data-name="Line 216" x1="33.097" y2="19.871" transform="translate(33.097 30.839)" fill="none" stroke="#4891f2" stroke-linecap="round" stroke-miterlimit="10" stroke-width="2"/>
                <line id="Line_217" data-name="Line 217" x1="33.162" y2="10.258" transform="translate(66.195 20.581)" fill="none" stroke="#4891f2" stroke-linecap="round" stroke-miterlimit="10" stroke-width="2"/>
                <line id="Line_218" data-name="Line 218" x1="33.097" y2="10.645" transform="translate(99.357 9.936)" fill="none" stroke="#4891f2" stroke-linecap="round" stroke-miterlimit="10" stroke-width="2"/>
                <line id="Line_219" data-name="Line 219" x1="33.097" y2="9.936" transform="translate(132.454)" fill="none" stroke="#4891f2" stroke-linecap="round" stroke-miterlimit="10" stroke-width="2"/>
              </g>
            </g>
          </g>
          <g id="Group_1720" data-name="Group 1720" transform="translate(0 39.504)">
            <g id="Group_1719" data-name="Group 1719">
              <g id="Group_1718" data-name="Group 1718">
                <rect id="Rectangle_2193" data-name="Rectangle 2193" width="3.871" height="3.871" rx="1.936" transform="translate(0 71.55)" fill="#4891f2" stroke="#4891f2" stroke-miterlimit="10" stroke-width="0.5"/>
                <rect id="Rectangle_2194" data-name="Rectangle 2194" width="3.871" height="3.871" rx="1.936" transform="translate(33.097 50.711)" fill="#4891f2" stroke="#4891f2" stroke-miterlimit="10" stroke-width="0.5"/>
                <rect id="Rectangle_2195" data-name="Rectangle 2195" width="3.871" height="3.871" rx="1.936" transform="translate(66.195 30.839)" fill="#4891f2" stroke="#4891f2" stroke-miterlimit="10" stroke-width="0.5"/>
                <rect id="Rectangle_2196" data-name="Rectangle 2196" width="3.871" height="3.871" rx="1.936" transform="translate(99.357 20.581)" fill="#4891f2" stroke="#4891f2" stroke-miterlimit="10" stroke-width="0.5"/>
                <rect id="Rectangle_2197" data-name="Rectangle 2197" width="3.871" height="3.871" rx="1.936" transform="translate(132.454 9.936)" fill="#4891f2" stroke="#4891f2" stroke-miterlimit="10" stroke-width="0.5"/>
                <rect id="Rectangle_2198" data-name="Rectangle 2198" width="3.871" height="3.871" rx="1.936" transform="translate(165.551)" fill="#4891f2" stroke="#4891f2" stroke-miterlimit="10" stroke-width="0.5"/>
              </g>
            </g>
          </g>
        </g>
      </g>
      <g id="Group_1689" data-name="Group 1689" transform="translate(259.701 483.221)">
        <g id="Group_1686" data-name="Group 1686" transform="translate(0 0)">
          <path id="Path_1685" data-name="Path 1685" d="M2.98,0h-.7V-4.48A3.634,3.634,0,0,1,1.611-4a4.721,4.721,0,0,1-.74.363v-.68A4.246,4.246,0,0,0,1.9-4.984a2.643,2.643,0,0,0,.625-.766H2.98Zm1.8-2.824A5.24,5.24,0,0,1,4.99-4.459a2.033,2.033,0,0,1,.621-.955A1.588,1.588,0,0,1,6.648-5.75a1.692,1.692,0,0,1,.809.186,1.546,1.546,0,0,1,.574.535,2.871,2.871,0,0,1,.355.852,5.658,5.658,0,0,1,.129,1.354A5.255,5.255,0,0,1,8.309-1.2a2.034,2.034,0,0,1-.619.957A1.588,1.588,0,0,1,6.648.1,1.571,1.571,0,0,1,5.348-.5,3.774,3.774,0,0,1,4.781-2.824Zm.723,0a3.591,3.591,0,0,0,.33,1.877.973.973,0,0,0,.814.467.972.972,0,0,0,.814-.469,3.592,3.592,0,0,0,.33-1.875A3.59,3.59,0,0,0,7.463-4.7a.98.98,0,0,0-.822-.465.9.9,0,0,0-.773.41A3.632,3.632,0,0,0,5.5-2.824Zm3.73,1.313.7-.094a1.549,1.549,0,0,0,.412.861,1.018,1.018,0,0,0,.709.264A1.136,1.136,0,0,0,11.9-.824a1.16,1.16,0,0,0,.342-.852,1.079,1.079,0,0,0-.316-.8,1.094,1.094,0,0,0-.8-.314,2.019,2.019,0,0,0-.5.078l.078-.617a1.075,1.075,0,0,0,.113.008,1.448,1.448,0,0,0,.809-.234.8.8,0,0,0,.359-.723.855.855,0,0,0-.262-.641.93.93,0,0,0-.676-.254.958.958,0,0,0-.684.258,1.294,1.294,0,0,0-.352.773l-.7-.125a1.807,1.807,0,0,1,.586-1.1,1.694,1.694,0,0,1,1.137-.389,1.873,1.873,0,0,1,.863.2,1.455,1.455,0,0,1,.6.549,1.41,1.41,0,0,1,.209.738,1.209,1.209,0,0,1-.2.676,1.36,1.36,0,0,1-.59.484,1.329,1.329,0,0,1,.789.486,1.48,1.48,0,0,1,.281.924A1.69,1.69,0,0,1,12.438-.42,1.923,1.923,0,0,1,11.055.1,1.8,1.8,0,0,1,9.8-.348,1.737,1.737,0,0,1,9.234-1.512Z" transform="translate(0 8.378)" fill="#d48773"/>
          <path id="Path_1684" data-name="Path 1684" d="M2.98,0h-.7V-4.48A3.634,3.634,0,0,1,1.611-4a4.721,4.721,0,0,1-.74.363v-.68A4.246,4.246,0,0,0,1.9-4.984a2.643,2.643,0,0,0,.625-.766H2.98Zm1.8-2.824A5.24,5.24,0,0,1,4.99-4.459a2.033,2.033,0,0,1,.621-.955A1.588,1.588,0,0,1,6.648-5.75a1.692,1.692,0,0,1,.809.186,1.546,1.546,0,0,1,.574.535,2.871,2.871,0,0,1,.355.852,5.658,5.658,0,0,1,.129,1.354A5.255,5.255,0,0,1,8.309-1.2a2.034,2.034,0,0,1-.619.957A1.588,1.588,0,0,1,6.648.1,1.571,1.571,0,0,1,5.348-.5,3.774,3.774,0,0,1,4.781-2.824Zm.723,0a3.591,3.591,0,0,0,.33,1.877.973.973,0,0,0,.814.467.972.972,0,0,0,.814-.469,3.592,3.592,0,0,0,.33-1.875A3.59,3.59,0,0,0,7.463-4.7a.98.98,0,0,0-.822-.465.9.9,0,0,0-.773.41A3.632,3.632,0,0,0,5.5-2.824ZM11.484,0V-1.371H9v-.645l2.613-3.711h.574v3.711h.773v.645h-.773V0Zm0-2.016V-4.6L9.691-2.016Z" transform="translate(34.299 9.112)" fill="#d48773"/>
          <path id="Path_1683" data-name="Path 1683" d="M2.98,0h-.7V-4.48A3.634,3.634,0,0,1,1.611-4a4.721,4.721,0,0,1-.74.363v-.68A4.246,4.246,0,0,0,1.9-4.984a2.643,2.643,0,0,0,.625-.766H2.98Zm1.8-2.824A5.24,5.24,0,0,1,4.99-4.459a2.033,2.033,0,0,1,.621-.955A1.588,1.588,0,0,1,6.648-5.75a1.692,1.692,0,0,1,.809.186,1.546,1.546,0,0,1,.574.535,2.871,2.871,0,0,1,.355.852,5.658,5.658,0,0,1,.129,1.354A5.255,5.255,0,0,1,8.309-1.2a2.034,2.034,0,0,1-.619.957A1.588,1.588,0,0,1,6.648.1,1.571,1.571,0,0,1,5.348-.5,3.774,3.774,0,0,1,4.781-2.824Zm.723,0a3.591,3.591,0,0,0,.33,1.877.973.973,0,0,0,.814.467.972.972,0,0,0,.814-.469,3.592,3.592,0,0,0,.33-1.875A3.59,3.59,0,0,0,7.463-4.7a.98.98,0,0,0-.822-.465.9.9,0,0,0-.773.41A3.632,3.632,0,0,0,5.5-2.824ZM9.23-1.5l.738-.062a1.324,1.324,0,0,0,.381.811,1.034,1.034,0,0,0,.721.271,1.122,1.122,0,0,0,.859-.383,1.443,1.443,0,0,0,.352-1.016,1.3,1.3,0,0,0-.338-.949,1.178,1.178,0,0,0-.885-.348,1.226,1.226,0,0,0-.613.154,1.191,1.191,0,0,0-.43.4l-.66-.086L9.91-5.648h2.848v.672H10.473l-.309,1.539A1.864,1.864,0,0,1,11.246-3.8a1.714,1.714,0,0,1,1.266.52,1.816,1.816,0,0,1,.516,1.336A2.085,2.085,0,0,1,12.574-.6a1.815,1.815,0,0,1-1.5.7A1.852,1.852,0,0,1,9.795-.34,1.707,1.707,0,0,1,9.23-1.5Z" transform="translate(66.727 8.378)" fill="#d48773"/>
          <path id="Path_1682" data-name="Path 1682" d="M2.98,0h-.7V-4.48A3.634,3.634,0,0,1,1.611-4a4.721,4.721,0,0,1-.74.363v-.68A4.246,4.246,0,0,0,1.9-4.984a2.643,2.643,0,0,0,.625-.766H2.98Zm1.8-2.824A5.24,5.24,0,0,1,4.99-4.459a2.033,2.033,0,0,1,.621-.955A1.588,1.588,0,0,1,6.648-5.75a1.692,1.692,0,0,1,.809.186,1.546,1.546,0,0,1,.574.535,2.871,2.871,0,0,1,.355.852,5.658,5.658,0,0,1,.129,1.354A5.255,5.255,0,0,1,8.309-1.2a2.034,2.034,0,0,1-.619.957A1.588,1.588,0,0,1,6.648.1,1.571,1.571,0,0,1,5.348-.5,3.774,3.774,0,0,1,4.781-2.824Zm.723,0a3.591,3.591,0,0,0,.33,1.877.973.973,0,0,0,.814.467.972.972,0,0,0,.814-.469,3.592,3.592,0,0,0,.33-1.875A3.59,3.59,0,0,0,7.463-4.7a.98.98,0,0,0-.822-.465.9.9,0,0,0-.773.41A3.632,3.632,0,0,0,5.5-2.824Zm7.375-1.5-.7.055a1.324,1.324,0,0,0-.266-.6.931.931,0,0,0-.7-.3.966.966,0,0,0-.59.188,1.6,1.6,0,0,0-.523.707,3.7,3.7,0,0,0-.2,1.324,1.629,1.629,0,0,1,.621-.574,1.67,1.67,0,0,1,.77-.187,1.594,1.594,0,0,1,1.2.518,1.858,1.858,0,0,1,.494,1.338,2.2,2.2,0,0,1-.232,1,1.693,1.693,0,0,1-.639.709A1.744,1.744,0,0,1,11.188.1,1.8,1.8,0,0,1,9.754-.549,3.264,3.264,0,0,1,9.2-2.68a3.82,3.82,0,0,1,.613-2.414,1.763,1.763,0,0,1,1.441-.656,1.617,1.617,0,0,1,1.107.379A1.609,1.609,0,0,1,12.879-4.324ZM10.008-1.855a1.631,1.631,0,0,0,.154.7,1.15,1.15,0,0,0,.432.506,1.079,1.079,0,0,0,.582.174.992.992,0,0,0,.766-.359,1.415,1.415,0,0,0,.32-.977,1.324,1.324,0,0,0-.316-.936,1.04,1.04,0,0,0-.8-.342,1.085,1.085,0,0,0-.809.342A1.232,1.232,0,0,0,10.008-1.855Z" transform="translate(99.441 8.378)" fill="#d48773"/>
          <path id="Path_1681" data-name="Path 1681" d="M2.98,0h-.7V-4.48A3.634,3.634,0,0,1,1.611-4a4.721,4.721,0,0,1-.74.363v-.68A4.246,4.246,0,0,0,1.9-4.984a2.643,2.643,0,0,0,.625-.766H2.98Zm1.8-2.824A5.24,5.24,0,0,1,4.99-4.459a2.033,2.033,0,0,1,.621-.955A1.588,1.588,0,0,1,6.648-5.75a1.692,1.692,0,0,1,.809.186,1.546,1.546,0,0,1,.574.535,2.871,2.871,0,0,1,.355.852,5.658,5.658,0,0,1,.129,1.354A5.255,5.255,0,0,1,8.309-1.2a2.034,2.034,0,0,1-.619.957A1.588,1.588,0,0,1,6.648.1,1.571,1.571,0,0,1,5.348-.5,3.774,3.774,0,0,1,4.781-2.824Zm.723,0a3.591,3.591,0,0,0,.33,1.877.973.973,0,0,0,.814.467.972.972,0,0,0,.814-.469,3.592,3.592,0,0,0,.33-1.875A3.59,3.59,0,0,0,7.463-4.7a.98.98,0,0,0-.822-.465.9.9,0,0,0-.773.41A3.632,3.632,0,0,0,5.5-2.824ZM9.277-4.977v-.676h3.707v.547A7.812,7.812,0,0,0,11.9-3.559a9.421,9.421,0,0,0-.83,1.984A7.376,7.376,0,0,0,10.8,0h-.723a7.017,7.017,0,0,1,.266-1.633,8.574,8.574,0,0,1,.729-1.846,7.912,7.912,0,0,1,1.01-1.5Z" transform="translate(133.56 8.378)" fill="#d48773"/>
          <path id="Path_1680" data-name="Path 1680" d="M2.608,0H1.993V-3.92A3.18,3.18,0,0,1,1.41-3.5a4.131,4.131,0,0,1-.648.318v-.595a3.716,3.716,0,0,0,.9-.588,2.312,2.312,0,0,0,.547-.67h.4ZM4.184-2.471A4.585,4.585,0,0,1,4.366-3.9a1.779,1.779,0,0,1,.543-.836,1.389,1.389,0,0,1,.907-.294,1.481,1.481,0,0,1,.708.162,1.352,1.352,0,0,1,.5.468,2.512,2.512,0,0,1,.311.745,4.951,4.951,0,0,1,.113,1.184A4.6,4.6,0,0,1,7.27-1.048a1.78,1.78,0,0,1-.542.837,1.389,1.389,0,0,1-.911.3,1.375,1.375,0,0,1-1.138-.52A3.3,3.3,0,0,1,4.184-2.471Zm.632,0A3.142,3.142,0,0,0,5.1-.829a.851.851,0,0,0,.713.408.85.85,0,0,0,.713-.41,3.143,3.143,0,0,0,.289-1.641A3.141,3.141,0,0,0,6.53-4.115a.857.857,0,0,0-.719-.407.788.788,0,0,0-.677.359A3.178,3.178,0,0,0,4.816-2.471Zm4.208-.246a1.158,1.158,0,0,1-.567-.4,1.046,1.046,0,0,1-.185-.622,1.217,1.217,0,0,1,.393-.919A1.458,1.458,0,0,1,9.71-5.031a1.467,1.467,0,0,1,1.056.381,1.234,1.234,0,0,1,.4.928,1.022,1.022,0,0,1-.183.607,1.153,1.153,0,0,1-.555.4,1.347,1.347,0,0,1,.7.485,1.333,1.333,0,0,1,.241.8,1.44,1.44,0,0,1-.455,1.08,1.653,1.653,0,0,1-1.2.438,1.649,1.649,0,0,1-1.2-.439,1.461,1.461,0,0,1-.455-1.1,1.324,1.324,0,0,1,.248-.819A1.241,1.241,0,0,1,9.023-2.717ZM8.9-3.76a.78.78,0,0,0,.229.581.811.811,0,0,0,.595.226.8.8,0,0,0,.583-.224.74.74,0,0,0,.227-.549.767.767,0,0,0-.234-.569.8.8,0,0,0-.583-.231.805.805,0,0,0-.584.226A.726.726,0,0,0,8.9-3.76ZM8.7-1.446a1.113,1.113,0,0,0,.125.509A.88.88,0,0,0,9.2-.555a1.084,1.084,0,0,0,.53.135A.993.993,0,0,0,10.456-.7a.971.971,0,0,0,.287-.721.987.987,0,0,0-.3-.735,1.013,1.013,0,0,0-.74-.291.972.972,0,0,0-.719.287A.977.977,0,0,0,8.7-1.446Zm9.389-.6q0,.055-.065.055h-.308a.048.048,0,0,1-.055-.055v-.68H12.722v.68q0,.055-.058.055h-.314a.048.048,0,0,1-.055-.055l.014-.567v-.154l-.014-.267q0-.048.055-.048l.133,0q.13.007.28.01L12.694-4.7a4,4,0,0,0-.079-.742,1.181,1.181,0,0,1,.349.113,5.764,5.764,0,0,0,.6-.219,1.154,1.154,0,0,0,.273-.167,2.4,2.4,0,0,1,.294.253.114.114,0,0,1,.041.075q0,.058-.079.058a.718.718,0,0,0-.25.055q-.424.154-.786.246l.014.349H13.6l.42-.014a.048.048,0,0,1,.055.055V-4.4q0,.048-.055.048l-.42-.014h-.52L13.1-3.9h.52l.407-.014a.048.048,0,0,1,.055.055v.232q0,.048-.055.048l-.407-.014h-.506l.024.523h4.122l.027-.509h-.5l-.414.014q-.055,0-.055-.048v-.232a.048.048,0,0,1,.055-.055l.414.014h.516l.038-.485H16.8l-.414.014q-.055,0-.055-.048v-.222q0-.065.055-.065l.414.014h.561l.034-.482h-.567l-.5.014q-.065,0-.065-.055v-.253q0-.058.065-.058l.5.017h.4l.5-.017a.057.057,0,0,1,.065.065q-.038.267-.065.783l-.089,1.6q.154,0,.294-.01l.1,0q.065,0,.065.048l-.014.239v.181Zm.167,1.189A.048.048,0,0,1,18.2-.8l-.9-.014h-1.89v.161l.007.574a.5.5,0,0,1-.191.455.719.719,0,0,1-.321.092q-.185.021-.615.021a.232.232,0,0,1-.13-.021.264.264,0,0,1-.044-.113,1.376,1.376,0,0,0-.133-.287A6.858,6.858,0,0,0,14.7.1a.364.364,0,0,0,.246-.062A.252.252,0,0,0,15-.154v-.66H13.074L12.168-.8a.048.048,0,0,1-.055-.055v-.291a.048.048,0,0,1,.055-.055l.906.014H15a3.9,3.9,0,0,0-.041-.441l.349.065a5.454,5.454,0,0,0,.9-.434H14.325l-.9.014a.048.048,0,0,1-.055-.055V-2.29q0-.048.055-.048l.9.007H16.28a1.008,1.008,0,0,0,.167-.007.233.233,0,0,1,.075-.021q.058,0,.185.133.14.157.14.208a.08.08,0,0,1-.072.082,1.7,1.7,0,0,0-.273.14,6.956,6.956,0,0,1-1.09.516v.092H17.3l.9-.014a.048.048,0,0,1,.055.055ZM16.013-4.789q.031.021.031.038t-.038.055l-.106.113q-.055.058-.075.058t-.044-.027q-.239-.185-.5-.349a4.31,4.31,0,0,1-.721.386.387.387,0,0,1-.106.034q-.031,0-.106-.082a.672.672,0,0,0-.174-.147A3.788,3.788,0,0,0,15-5.076q-.109-.062-.526-.28-.038-.017-.038-.034t.038-.055l.113-.106q.038-.041.062-.041a.134.134,0,0,1,.044.01q.325.164.588.325l.188-.154a1.459,1.459,0,0,0,.229-.273,1.636,1.636,0,0,1,.267.174q.051.038.051.072t-.051.055a.446.446,0,0,0-.14.085l-.256.208Q15.808-4.932,16.013-4.789Zm0,1.374L15.9-3.3q-.062.068-.079.068a.079.079,0,0,1-.041-.024q-.161-.126-.5-.352a3.564,3.564,0,0,1-.714.379.818.818,0,0,1-.106.034q-.031,0-.1-.079a.609.609,0,0,0-.181-.15A4.1,4.1,0,0,0,15-3.78q-.164-.1-.513-.28-.041-.017-.041-.034a.087.087,0,0,1,.027-.048l.106-.113q.044-.048.065-.048a.1.1,0,0,1,.038.01q.3.15.6.332.075-.058.2-.167A1.153,1.153,0,0,0,15.7-4.4a1.549,1.549,0,0,1,.26.167q.051.038.051.068t-.058.065a.434.434,0,0,0-.14.075q-.01.01-.26.219.277.174.458.3.031.021.031.034A.117.117,0,0,1,16.013-3.415Zm9.194,2.2a.048.048,0,0,1-.055.055l-.916-.014H22.661V-.7L22.675.455A.042.042,0,0,1,22.627.5h-.352q-.062,0-.062-.048L22.227-.7v-.468H20.1l-.919.014a.048.048,0,0,1-.055-.055v-.318a.048.048,0,0,1,.055-.055l.919.014h.208V-2.594L20.3-3.206a.048.048,0,0,1,.055-.055l.981.014h.9V-4.4h-1.6a7.131,7.131,0,0,1-.889,1.087q-.065.075-.092.075t-.1-.085a.713.713,0,0,0-.239-.188,5.643,5.643,0,0,0,1.374-1.842,1.955,1.955,0,0,0,.147-.461q.178.044.434.133a.1.1,0,0,1,.068.092.137.137,0,0,1-.062.1.721.721,0,0,0-.178.253q-.154.308-.236.455H23.81l.974-.014a.048.048,0,0,1,.055.055v.3a.048.048,0,0,1-.055.055L23.81-4.4H22.661v1.155h.848l.971-.014q.051,0,.051.055v.3q0,.055-.051.055l-.971-.014h-.848v1.292h1.576l.916-.014a.048.048,0,0,1,.055.055Zm-2.98-.359V-2.861h-1.49v1.292Z" transform="translate(166.278 8)" fill="#d48773"/>
        </g>
      </g>
      <g id="Group_1689-2" data-name="Group 1689" transform="translate(249.647 481.845)">
        <line id="Line_177" data-name="Line 177" x2="199.239" transform="translate(0)" fill="none" stroke="#55585f" stroke-miterlimit="10" stroke-width="1"/>
      </g>
    </g>
    <g id="Group_1948" data-name="Group 1948" transform="translate(-9462 -13322.223)">
      <rect id="Rectangle_2063" data-name="Rectangle 2063" width="160" height="24" rx="12" transform="translate(729 1061.223)" fill="#3d3c3c"/>
      <path id="內文p" d="M7.67,5.58A4.263,4.263,0,0,0,6.59,4.9l-.35.37a4.047,4.047,0,0,1,1.07.7ZM5,9.62c-1.12.2-2.23.4-2.99.52l.1.56c.82-.15,1.88-.36,2.92-.56Zm-.87-.88H2.98v-1H4.13ZM2.46,7.27V9.21H4.67V7.27ZM6.9,7.1a6.88,6.88,0,0,1-.74,1.84,14.573,14.573,0,0,1-.37-2.3H7.92V6.08H5.74c-.02-.35-.04-.7-.06-1.06H5.04c.02.36.05.71.08,1.06H2.11v.56H5.17A13.852,13.852,0,0,0,5.72,9.6a5.4,5.4,0,0,1-1.51,1.3,3.839,3.839,0,0,1,.44.47,6.271,6.271,0,0,0,1.32-1.15,1.632,1.632,0,0,0,1.04.97c.52.2.86-.2.99-1.29a1.871,1.871,0,0,1-.48-.33c-.07.64-.17,1.07-.31,1.03-.33-.05-.6-.39-.81-.92A7.761,7.761,0,0,0,7.51,7.23ZM1.56,11.66V4.77H8.42v6.89ZM.85,4.09v8.7h.71v-.46H8.42v.46h.73V4.09Zm14.51,4.7V6.14h2.87V8.79Zm-3.63,0V6.14h2.86V8.79Zm3.63-3.38V3.63h-.77V5.41H11v4.73h.73V9.52h2.86v3.24h.77V9.52h2.87v.57h.76V5.41ZM25.4,11.73V9.19h3.21V8.47H25.4V6.29h3.58V5.56H25.4V3.64h-.76V5.56H22.61a13.726,13.726,0,0,0,.56-1.6l-.75-.16a9.116,9.116,0,0,1-1.85,3.68,4.979,4.979,0,0,1,.68.44,8.972,8.972,0,0,0,1.04-1.63h2.35V8.47H21.67v.72h2.97v2.54H20.59v.72h8.86v-.72ZM38.19,7.94a6.492,6.492,0,0,0-.7-.87,6.655,6.655,0,0,0,.76-1.11l-.52-.08a5.7,5.7,0,0,1-.55.84c-.15-.15-.3-.3-.45-.44a5.8,5.8,0,0,0,.57-.86l-.51-.09a3.886,3.886,0,0,1-.41.62c-.17-.15-.35-.31-.53-.45l-.41.27a6.272,6.272,0,0,1,.62.56,5.208,5.208,0,0,1-.87.72,1.524,1.524,0,0,1,.34.33,5.745,5.745,0,0,0,.87-.72,6.047,6.047,0,0,1,.43.45,6.521,6.521,0,0,1-1.26,1.02,1.221,1.221,0,0,1,.33.35,6.731,6.731,0,0,0,1.25-1.03,9.527,9.527,0,0,1,.61.81Zm.2.65H35.05V5.2h3.34Zm.68-4.01H36.43c.14-.25.29-.56.43-.86l-.74-.15a9.492,9.492,0,0,1-.36,1.01H34.39V9.21h4.68ZM37.71,10.9a14.659,14.659,0,0,0-.96-1.53l-.49.23a17.6,17.6,0,0,1,.94,1.6ZM33.96,9.4a12.178,12.178,0,0,0-.63-1.92l-.53.15c.11.26.21.56.3.85l-1.54.26a19.027,19.027,0,0,0,2.17-3.3l-.62-.31a13.332,13.332,0,0,1-.71,1.35l-1.04.1a15.125,15.125,0,0,0,1.4-2.69l-.67-.27a12.71,12.71,0,0,1-1.18,2.52c-.18.3-.35.51-.51.55a6.6,6.6,0,0,1,.23.66,4.921,4.921,0,0,1,1.39-.25,10.936,10.936,0,0,1-.84,1.19c-.28.36-.51.62-.71.67a4.156,4.156,0,0,1,.22.65,10.786,10.786,0,0,1,2.58-.59,5.582,5.582,0,0,1,.13.57ZM31,10.02a9.338,9.338,0,0,1-.56,2.3,2.635,2.635,0,0,1,.54.2,12.426,12.426,0,0,0,.58-2.4Zm.91.1a17.33,17.33,0,0,1,.25,2.12l.56-.12c-.04-.58-.16-1.44-.28-2.12Zm.92-.19c.16.55.35,1.26.43,1.73l.51-.16a11.071,11.071,0,0,0-.44-1.71Zm1.41,2.32a9.631,9.631,0,0,0,.67-2.13l-.53-.19a8.591,8.591,0,0,1-.68,2.06Zm1.94-.29c-.38,0-.44-.04-.44-.27V9.93H35.1V11.7c0,.65.21.82,1.02.82h1.44c.66,0,.84-.27.91-1.36a1.758,1.758,0,0,1-.56-.24c-.04.92-.1,1.04-.41,1.04Zm2.01-1.86a18.41,18.41,0,0,1,.85,1.98l.56-.26c-.19-.51-.56-1.31-.88-1.94Zm6.84,1.96c-.32-.17-.75-.38-1.21-.58a2.162,2.162,0,0,0,.75-1.24h1.06V9.7h-1V9.3h-.61v.4H42.76c.11-.22.22-.43.32-.64h2.26V8.13c.15.13.36.31.45.41a7.174,7.174,0,0,0,.55-1.11,14.21,14.21,0,0,0,.74,2.64,4.959,4.959,0,0,1-2.07,2.01Zm-1.09-1.82a1.921,1.921,0,0,1-.75.99c-.37-.15-.75-.28-1.11-.39.12-.19.24-.39.37-.6ZM41.56,7.92H42.8v.66H41.56Zm3.12,0v.66H43.39V7.92Zm3.46-1.65a11.741,11.741,0,0,1-.69,3.05,13.651,13.651,0,0,1-.73-2.93l.05-.12Zm-6.4.22V5.85H42.8v.64ZM42.8,4.8v.55H41.74V4.8Zm1.73,0v.55H43.39V4.8ZM43.39,6.49V5.85h1.14v.64Zm6.17-.22V5.6H46.97c.16-.6.31-1.23.43-1.84l-.65-.13a13.245,13.245,0,0,1-1.41,4.35V7.45H43.39V7.01h1.75V5.88h.57V5.32h-.57V4.28H43.39V3.63H42.8v.65H41.16V5.32h-.69v.56h.69V7.01H42.8v.44H40.92V9.06H42.4c-.1.21-.2.42-.32.64h-1.6v.54h1.29c-.21.32-.42.64-.61.88a13.864,13.864,0,0,1,1.42.47,9.317,9.317,0,0,1-2.18.67,1.7,1.7,0,0,1,.32.5,8.9,8.9,0,0,0,2.55-.88,10.3,10.3,0,0,1,1.28.62l.24-.22a3.171,3.171,0,0,1,.34.5,5.916,5.916,0,0,0,2.28-2.02,5.065,5.065,0,0,0,1.75,1.96,2.685,2.685,0,0,1,.48-.57,4.582,4.582,0,0,1-1.85-2.05A11.659,11.659,0,0,0,48.8,6.27Z" transform="translate(756 1066.223)" fill="#aca4a4"/>
      <path id="內文p-2" data-name="內文p" d="M4.68,8.97C4.45,8.69,3.43,7.55,3.1,7.24V7.13H4.73v-.7H3.1V4.81a9.724,9.724,0,0,0,1.53-.44l-.43-.6a18.282,18.282,0,0,1-3.6.87,2.629,2.629,0,0,1,.21.57c.5-.06,1.04-.14,1.57-.24V6.43H.62v.7H2.26A10.1,10.1,0,0,1,.29,10.27a3.385,3.385,0,0,1,.39.69,10.728,10.728,0,0,0,1.7-2.74v4.53H3.1V8c.4.52.93,1.24,1.13,1.58Zm4.88,3.18A29.847,29.847,0,0,0,7.83,7.74l-.67.25c.38.85.78,1.84,1.11,2.76l-3.01.43A43.9,43.9,0,0,0,7.17,4.04L6.38,3.9a41.021,41.021,0,0,1-1.54,6.11c-.28.79-.5,1.34-.73,1.42a7.19,7.19,0,0,1,.25.74c.28-.15.7-.23,4.14-.77.13.39.23.76.31,1.06Zm5.8-3.36V6.14h2.87V8.79Zm-3.63,0V6.14h2.86V8.79Zm3.63-3.38V3.63h-.77V5.41H11v4.73h.73V9.52h2.86v3.24h.77V9.52h2.87v.57h.76V5.41ZM25.4,11.73V9.19h3.21V8.47H25.4V6.29h3.58V5.56H25.4V3.64h-.76V5.56H22.61a13.726,13.726,0,0,0,.56-1.6l-.75-.16a9.116,9.116,0,0,1-1.85,3.68,4.979,4.979,0,0,1,.68.44,8.972,8.972,0,0,0,1.04-1.63h2.35V8.47H21.67v.72h2.97v2.54H20.59v.72h8.86v-.72Zm12.27-.31H32.31V8.88h5.36ZM39.21,6.2V5.5h-4V3.64h-.75V8.18H31.58v4.58h.73v-.63h5.36v.58h.75V8.18H35.21V6.2Zm2.98,5.16V7.44h2.54V6.71H42.19V3.64h-.76v7.44a.889.889,0,0,1-.39.75,2.422,2.422,0,0,1,.35.63,17.38,17.38,0,0,1,3.47-1.05,4.731,4.731,0,0,1-.07-.69Zm4.56.47c-.47,0-.56-.1-.56-.65V7.44h2.69V6.71H46.19V3.63h-.75v7.54c0,1.08.26,1.37,1.23,1.37h1.68c.94,0,1.14-.56,1.24-2.19a1.736,1.736,0,0,1-.69-.32c-.07,1.43-.13,1.8-.6,1.8Z" transform="translate(829 1066.223)" fill="#aca4a4"/>
      <rect id="Rectangle_2136" data-name="Rectangle 2136" width="10" height="9" rx="2" transform="translate(744 1070.223)" fill="#fff"/>
      <rect id="Rectangle_2137" data-name="Rectangle 2137" width="14" height="2" rx="1" transform="translate(813 1073.223)" fill="#356bd0"/>
    </g>
  </g>
</svg>
