<svg xmlns="http://www.w3.org/2000/svg" width="243.271" height="261.871" viewBox="0 0 243.271 261.871">
  <g id="data10_m" transform="translate(8874.873 11995.871)">
    <g id="Group_1950" data-name="Group 1950" transform="translate(-9130 -12296.531)">
      <g id="data_10-09" transform="translate(258 303)">
        <g id="Group_1733" data-name="Group 1733" transform="translate(0 0)">
          <g id="Group_1725" data-name="Group 1725" transform="translate(16.784 212.458)">
            <line id="Line_220" data-name="Line 220" x2="193.289" transform="translate(0)" fill="none" stroke="#55585f" stroke-miterlimit="10" stroke-width="1"/>
          </g>
          <g id="Group_1729" data-name="Group 1729">
            <g id="Group_1726" data-name="Group 1726">
              <path id="Path_1676" data-name="Path 1676" d="M.415-3.53A6.55,6.55,0,0,1,.676-5.574a2.542,2.542,0,0,1,.776-1.194,1.985,1.985,0,0,1,1.3-.42,2.115,2.115,0,0,1,1.011.232,1.932,1.932,0,0,1,.718.669,3.589,3.589,0,0,1,.444,1.064A7.072,7.072,0,0,1,5.083-3.53,6.569,6.569,0,0,1,4.824-1.5,2.542,2.542,0,0,1,4.05-.3a1.985,1.985,0,0,1-1.3.422A1.964,1.964,0,0,1,1.123-.62,4.717,4.717,0,0,1,.415-3.53Zm.9,0a4.488,4.488,0,0,0,.413,2.346A1.216,1.216,0,0,0,2.749-.6a1.215,1.215,0,0,0,1.018-.586A4.49,4.49,0,0,0,4.18-3.53a4.487,4.487,0,0,0-.413-2.349A1.225,1.225,0,0,0,2.739-6.46a1.126,1.126,0,0,0-.967.513A4.54,4.54,0,0,0,1.318-3.53Z" transform="translate(7 213.124)" fill="#4891f2"/>
              <path id="Path_1675" data-name="Path 1675" d="M3.726,0H2.847V-5.6A4.543,4.543,0,0,1,2.014-5a5.9,5.9,0,0,1-.925.454v-.85a5.308,5.308,0,0,0,1.289-.84,3.3,3.3,0,0,0,.781-.957h.566ZM14.331-.21A.733.733,0,0,1,14.1.42a.851.851,0,0,1-.356.137,5.305,5.305,0,0,1-.723.034.255.255,0,0,1-.156-.029A.388.388,0,0,1,12.793.4,1.781,1.781,0,0,0,12.612.01a7.085,7.085,0,0,0,.742.039.435.435,0,0,0,.308-.083A.365.365,0,0,0,13.74-.3V-2.119H10.752v1.05q.757-.088,1.318-.181-.249-.361-.278-.4a.133.133,0,0,1-.034-.063q0-.034.093-.073l.21-.093a.314.314,0,0,1,.083-.024q.029,0,.068.054a7.592,7.592,0,0,1,.8,1.309.24.24,0,0,1,.015.059q0,.039-.093.083l-.225.112a.307.307,0,0,1-.107.039q-.034,0-.059-.059-.19-.42-.239-.522-1.45.254-3.467.449a1.26,1.26,0,0,0-.43.093.237.237,0,0,1-.117.059q-.068,0-.112-.132-.059-.21-.127-.557.215,0,.4,0,.342,0,.693-.024.918-.068,1.069-.083v-1.1H7.383V-.352L7.4.6a.069.069,0,0,1-.078.078H6.86A.069.069,0,0,1,6.782.6L6.8-.352v-1.27l-.02-.928a.069.069,0,0,1,.078-.078l1.411.02H10.21V-3.33h-1.1l-1.372.02a.069.069,0,0,1-.078-.078l.02-.84V-5.239l-.02-.84a.069.069,0,0,1,.078-.078l1.372.02h2.881l1.382-.02a.069.069,0,0,1,.078.078l-.02.84v1.011l.02.84a.069.069,0,0,1-.078.078l-1.382-.02h-1.24v.723h2.09l1.411-.02a.069.069,0,0,1,.078.078l-.02.981v.41Zm-1.46-3.56v-.781H10.752v.781Zm-2.661,0v-.781H8.242v.781ZM12.871-4.98V-5.7H10.752v.718Zm-2.661,0V-5.7H8.242v.718Zm4.712-2.051q0,.078-.083.078l-1.309-.02H12.222l.02.459q0,.083-.078.083h-.435q-.088,0-.088-.083,0-.015.01-.156t.01-.3H9.351l.02.459q0,.083-.078.083H8.853a.073.073,0,0,1-.083-.083q0-.015.01-.156t.01-.3H7.6l-1.313.02a.069.069,0,0,1-.078-.078v-.4q0-.068.078-.068L7.6-7.48H8.789A4.375,4.375,0,0,0,8.73-8.3q.3.015.62.054.1.015.1.088a.266.266,0,0,1-.039.132,1.428,1.428,0,0,0-.063.547h2.31a4.305,4.305,0,0,0-.059-.811q.327.02.61.054.107.015.107.088a.266.266,0,0,1-.039.132,1.5,1.5,0,0,0-.059.537H13.53l1.309-.02q.083,0,.083.068Z" transform="translate(-3 180.261)" fill="#4891f2"/>
              <path id="Path_1674" data-name="Path 1674" d="M5.034-.845V0H.3a1.555,1.555,0,0,1,.1-.61,3.229,3.229,0,0,1,.579-.952,9.065,9.065,0,0,1,1.15-1.084A9.748,9.748,0,0,0,3.711-4.163a1.815,1.815,0,0,0,.41-1.057A1.175,1.175,0,0,0,3.748-6.1a1.347,1.347,0,0,0-.974-.359,1.373,1.373,0,0,0-1.016.381,1.441,1.441,0,0,0-.386,1.055l-.9-.093a2.224,2.224,0,0,1,.7-1.541,2.382,2.382,0,0,1,1.626-.53,2.269,2.269,0,0,1,1.631.571,1.876,1.876,0,0,1,.6,1.416,2.148,2.148,0,0,1-.176.845,3.278,3.278,0,0,1-.583.874A14.215,14.215,0,0,1,2.91-2.222q-.791.664-1.016.9a2.89,2.89,0,0,0-.371.476Zm9.3.635A.733.733,0,0,1,14.1.42a.851.851,0,0,1-.356.137,5.305,5.305,0,0,1-.723.034.255.255,0,0,1-.156-.029A.388.388,0,0,1,12.793.4,1.781,1.781,0,0,0,12.612.01a7.085,7.085,0,0,0,.742.039.435.435,0,0,0,.308-.083A.365.365,0,0,0,13.74-.3V-2.119H10.752v1.05q.757-.088,1.318-.181-.249-.361-.278-.4a.133.133,0,0,1-.034-.063q0-.034.093-.073l.21-.093a.314.314,0,0,1,.083-.024q.029,0,.068.054a7.592,7.592,0,0,1,.8,1.309.24.24,0,0,1,.015.059q0,.039-.093.083l-.225.112a.307.307,0,0,1-.107.039q-.034,0-.059-.059-.19-.42-.239-.522-1.45.254-3.467.449a1.26,1.26,0,0,0-.43.093.237.237,0,0,1-.117.059q-.068,0-.112-.132-.059-.21-.127-.557.215,0,.4,0,.342,0,.693-.024.918-.068,1.069-.083v-1.1H7.383V-.352L7.4.6a.069.069,0,0,1-.078.078H6.86A.069.069,0,0,1,6.782.6L6.8-.352v-1.27l-.02-.928a.069.069,0,0,1,.078-.078l1.411.02H10.21V-3.33h-1.1l-1.372.02a.069.069,0,0,1-.078-.078l.02-.84V-5.239l-.02-.84a.069.069,0,0,1,.078-.078l1.372.02h2.881l1.382-.02a.069.069,0,0,1,.078.078l-.02.84v1.011l.02.84a.069.069,0,0,1-.078.078l-1.382-.02h-1.24v.723h2.09l1.411-.02a.069.069,0,0,1,.078.078l-.02.981v.41Zm-1.46-3.56v-.781H10.752v.781Zm-2.661,0v-.781H8.242v.781ZM12.871-4.98V-5.7H10.752v.718Zm-2.661,0V-5.7H8.242v.718Zm4.712-2.051q0,.078-.083.078l-1.309-.02H12.222l.02.459q0,.083-.078.083h-.435q-.088,0-.088-.083,0-.015.01-.156t.01-.3H9.351l.02.459q0,.083-.078.083H8.853a.073.073,0,0,1-.083-.083q0-.015.01-.156t.01-.3H7.6l-1.313.02a.069.069,0,0,1-.078-.078v-.4q0-.068.078-.068L7.6-7.48H8.789A4.375,4.375,0,0,0,8.73-8.3q.3.015.62.054.1.015.1.088a.266.266,0,0,1-.039.132,1.428,1.428,0,0,0-.063.547h2.31a4.305,4.305,0,0,0-.059-.811q.327.02.61.054.107.015.107.088a.266.266,0,0,1-.039.132,1.5,1.5,0,0,0-.059.537H13.53l1.309-.02q.083,0,.083.068Z" transform="translate(-3 148.045)" fill="#4891f2"/>
              <path id="Path_1673" data-name="Path 1673" d="M.42-1.89,1.3-2.007A1.936,1.936,0,0,0,1.814-.93,1.272,1.272,0,0,0,2.7-.6a1.42,1.42,0,0,0,1.047-.43,1.45,1.45,0,0,0,.427-1.064,1.348,1.348,0,0,0-.4-1,1.367,1.367,0,0,0-1.006-.393,2.523,2.523,0,0,0-.62.1l.1-.771a1.343,1.343,0,0,0,.142.01A1.81,1.81,0,0,0,3.4-4.443a1,1,0,0,0,.449-.9,1.069,1.069,0,0,0-.327-.8,1.162,1.162,0,0,0-.845-.317,1.2,1.2,0,0,0-.854.322,1.618,1.618,0,0,0-.439.967L.508-5.332A2.259,2.259,0,0,1,1.24-6.7a2.117,2.117,0,0,1,1.421-.486,2.341,2.341,0,0,1,1.079.251,1.819,1.819,0,0,1,.754.686,1.762,1.762,0,0,1,.261.923,1.511,1.511,0,0,1-.249.845,1.7,1.7,0,0,1-.737.605,1.661,1.661,0,0,1,.986.608,1.85,1.85,0,0,1,.352,1.155A2.113,2.113,0,0,1,4.424-.525,2.4,2.4,0,0,1,2.7.127,2.249,2.249,0,0,1,1.13-.435,2.171,2.171,0,0,1,.42-1.89ZM14.331-.21A.733.733,0,0,1,14.1.42a.851.851,0,0,1-.356.137,5.305,5.305,0,0,1-.723.034.255.255,0,0,1-.156-.029A.388.388,0,0,1,12.793.4,1.781,1.781,0,0,0,12.612.01a7.085,7.085,0,0,0,.742.039.435.435,0,0,0,.308-.083A.365.365,0,0,0,13.74-.3V-2.119H10.752v1.05q.757-.088,1.318-.181-.249-.361-.278-.4a.133.133,0,0,1-.034-.063q0-.034.093-.073l.21-.093a.314.314,0,0,1,.083-.024q.029,0,.068.054a7.592,7.592,0,0,1,.8,1.309.24.24,0,0,1,.015.059q0,.039-.093.083l-.225.112a.307.307,0,0,1-.107.039q-.034,0-.059-.059-.19-.42-.239-.522-1.45.254-3.467.449a1.26,1.26,0,0,0-.43.093.237.237,0,0,1-.117.059q-.068,0-.112-.132-.059-.21-.127-.557.215,0,.4,0,.342,0,.693-.024.918-.068,1.069-.083v-1.1H7.383V-.352L7.4.6a.069.069,0,0,1-.078.078H6.86A.069.069,0,0,1,6.782.6L6.8-.352v-1.27l-.02-.928a.069.069,0,0,1,.078-.078l1.411.02H10.21V-3.33h-1.1l-1.372.02a.069.069,0,0,1-.078-.078l.02-.84V-5.239l-.02-.84a.069.069,0,0,1,.078-.078l1.372.02h2.881l1.382-.02a.069.069,0,0,1,.078.078l-.02.84v1.011l.02.84a.069.069,0,0,1-.078.078l-1.382-.02h-1.24v.723h2.09l1.411-.02a.069.069,0,0,1,.078.078l-.02.981v.41Zm-1.46-3.56v-.781H10.752v.781Zm-2.661,0v-.781H8.242v.781ZM12.871-4.98V-5.7H10.752v.718Zm-2.661,0V-5.7H8.242v.718Zm4.712-2.051q0,.078-.083.078l-1.309-.02H12.222l.02.459q0,.083-.078.083h-.435q-.088,0-.088-.083,0-.015.01-.156t.01-.3H9.351l.02.459q0,.083-.078.083H8.853a.073.073,0,0,1-.083-.083q0-.015.01-.156t.01-.3H7.6l-1.313.02a.069.069,0,0,1-.078-.078v-.4q0-.068.078-.068L7.6-7.48H8.789A4.375,4.375,0,0,0,8.73-8.3q.3.015.62.054.1.015.1.088a.266.266,0,0,1-.039.132,1.428,1.428,0,0,0-.063.547h2.31a4.305,4.305,0,0,0-.059-.811q.327.02.61.054.107.015.107.088a.266.266,0,0,1-.039.132,1.5,1.5,0,0,0-.059.537H13.53l1.309-.02q.083,0,.083.068Z" transform="translate(-3 115.829)" fill="#4891f2"/>
              <path id="Path_1672" data-name="Path 1672" d="M3.232,0V-1.714H.127V-2.52L3.394-7.158h.718V-2.52h.967v.806H4.111V0Zm0-2.52V-5.747L.991-2.52Zm11.1,2.31A.733.733,0,0,1,14.1.42a.851.851,0,0,1-.356.137,5.305,5.305,0,0,1-.723.034.255.255,0,0,1-.156-.029A.388.388,0,0,1,12.793.4,1.781,1.781,0,0,0,12.612.01a7.085,7.085,0,0,0,.742.039.435.435,0,0,0,.308-.083A.365.365,0,0,0,13.74-.3V-2.119H10.752v1.05q.757-.088,1.318-.181-.249-.361-.278-.4a.133.133,0,0,1-.034-.063q0-.034.093-.073l.21-.093a.314.314,0,0,1,.083-.024q.029,0,.068.054a7.592,7.592,0,0,1,.8,1.309.24.24,0,0,1,.015.059q0,.039-.093.083l-.225.112a.307.307,0,0,1-.107.039q-.034,0-.059-.059-.19-.42-.239-.522-1.45.254-3.467.449a1.26,1.26,0,0,0-.43.093.237.237,0,0,1-.117.059q-.068,0-.112-.132-.059-.21-.127-.557.215,0,.4,0,.342,0,.693-.024.918-.068,1.069-.083v-1.1H7.383V-.352L7.4.6a.069.069,0,0,1-.078.078H6.86A.069.069,0,0,1,6.782.6L6.8-.352v-1.27l-.02-.928a.069.069,0,0,1,.078-.078l1.411.02H10.21V-3.33h-1.1l-1.372.02a.069.069,0,0,1-.078-.078l.02-.84V-5.239l-.02-.84a.069.069,0,0,1,.078-.078l1.372.02h2.881l1.382-.02a.069.069,0,0,1,.078.078l-.02.84v1.011l.02.84a.069.069,0,0,1-.078.078l-1.382-.02h-1.24v.723h2.09l1.411-.02a.069.069,0,0,1,.078.078l-.02.981v.41Zm-1.46-3.56v-.781H10.752v.781Zm-2.661,0v-.781H8.242v.781ZM12.871-4.98V-5.7H10.752v.718Zm-2.661,0V-5.7H8.242v.718Zm4.712-2.051q0,.078-.083.078l-1.309-.02H12.222l.02.459q0,.083-.078.083h-.435q-.088,0-.088-.083,0-.015.01-.156t.01-.3H9.351l.02.459q0,.083-.078.083H8.853a.073.073,0,0,1-.083-.083q0-.015.01-.156t.01-.3H7.6l-1.313.02a.069.069,0,0,1-.078-.078v-.4q0-.068.078-.068L7.6-7.48H8.789A4.375,4.375,0,0,0,8.73-8.3q.3.015.62.054.1.015.1.088a.266.266,0,0,1-.039.132,1.428,1.428,0,0,0-.063.547h2.31a4.305,4.305,0,0,0-.059-.811q.327.02.61.054.107.015.107.088a.266.266,0,0,1-.039.132,1.5,1.5,0,0,0-.059.537H13.53l1.309-.02q.083,0,.083.068Z" transform="translate(-3 83.613)" fill="#4891f2"/>
              <path id="Path_1671" data-name="Path 1671" d="M.415-1.875l.923-.078A1.655,1.655,0,0,0,1.814-.94a1.293,1.293,0,0,0,.9.339,1.4,1.4,0,0,0,1.074-.479,1.8,1.8,0,0,0,.439-1.27,1.63,1.63,0,0,0-.422-1.187A1.473,1.473,0,0,0,2.7-3.97a1.532,1.532,0,0,0-.767.193,1.489,1.489,0,0,0-.537.5L.571-3.384l.693-3.677h3.56v.84H1.968L1.582-4.3a2.329,2.329,0,0,1,1.353-.449A2.143,2.143,0,0,1,4.517-4.1a2.27,2.27,0,0,1,.645,1.67,2.607,2.607,0,0,1-.566,1.68,2.269,2.269,0,0,1-1.88.869A2.316,2.316,0,0,1,1.121-.425,2.134,2.134,0,0,1,.415-1.875ZM14.331-.21A.733.733,0,0,1,14.1.42a.851.851,0,0,1-.356.137,5.305,5.305,0,0,1-.723.034.255.255,0,0,1-.156-.029A.388.388,0,0,1,12.793.4,1.781,1.781,0,0,0,12.612.01a7.085,7.085,0,0,0,.742.039.435.435,0,0,0,.308-.083A.365.365,0,0,0,13.74-.3V-2.119H10.752v1.05q.757-.088,1.318-.181-.249-.361-.278-.4a.133.133,0,0,1-.034-.063q0-.034.093-.073l.21-.093a.314.314,0,0,1,.083-.024q.029,0,.068.054a7.592,7.592,0,0,1,.8,1.309.24.24,0,0,1,.015.059q0,.039-.093.083l-.225.112a.307.307,0,0,1-.107.039q-.034,0-.059-.059-.19-.42-.239-.522-1.45.254-3.467.449a1.26,1.26,0,0,0-.43.093.237.237,0,0,1-.117.059q-.068,0-.112-.132-.059-.21-.127-.557.215,0,.4,0,.342,0,.693-.024.918-.068,1.069-.083v-1.1H7.383V-.352L7.4.6a.069.069,0,0,1-.078.078H6.86A.069.069,0,0,1,6.782.6L6.8-.352v-1.27l-.02-.928a.069.069,0,0,1,.078-.078l1.411.02H10.21V-3.33h-1.1l-1.372.02a.069.069,0,0,1-.078-.078l.02-.84V-5.239l-.02-.84a.069.069,0,0,1,.078-.078l1.372.02h2.881l1.382-.02a.069.069,0,0,1,.078.078l-.02.84v1.011l.02.84a.069.069,0,0,1-.078.078l-1.382-.02h-1.24v.723h2.09l1.411-.02a.069.069,0,0,1,.078.078l-.02.981v.41Zm-1.46-3.56v-.781H10.752v.781Zm-2.661,0v-.781H8.242v.781ZM12.871-4.98V-5.7H10.752v.718Zm-2.661,0V-5.7H8.242v.718Zm4.712-2.051q0,.078-.083.078l-1.309-.02H12.222l.02.459q0,.083-.078.083h-.435q-.088,0-.088-.083,0-.015.01-.156t.01-.3H9.351l.02.459q0,.083-.078.083H8.853a.073.073,0,0,1-.083-.083q0-.015.01-.156t.01-.3H7.6l-1.313.02a.069.069,0,0,1-.078-.078v-.4q0-.068.078-.068L7.6-7.48H8.789A4.375,4.375,0,0,0,8.73-8.3q.3.015.62.054.1.015.1.088a.266.266,0,0,1-.039.132,1.428,1.428,0,0,0-.063.547h2.31a4.305,4.305,0,0,0-.059-.811q.327.02.61.054.107.015.107.088a.266.266,0,0,1-.039.132,1.5,1.5,0,0,0-.059.537H13.53l1.309-.02q.083,0,.083.068Z" transform="translate(-3 51.397)" fill="#4891f2"/>
              <path id="Path_1670" data-name="Path 1670" d="M4.976-5.405,4.1-5.337a1.655,1.655,0,0,0-.332-.752,1.163,1.163,0,0,0-.879-.376,1.208,1.208,0,0,0-.737.234,2,2,0,0,0-.654.884A4.618,4.618,0,0,0,1.25-3.691a2.037,2.037,0,0,1,.776-.718,2.088,2.088,0,0,1,.962-.234A1.993,1.993,0,0,1,4.485-4,2.322,2.322,0,0,1,5.1-2.324a2.752,2.752,0,0,1-.291,1.252,2.117,2.117,0,0,1-.8.886A2.18,2.18,0,0,1,2.861.122,2.252,2.252,0,0,1,1.069-.686,4.08,4.08,0,0,1,.376-3.35a4.775,4.775,0,0,1,.767-3.018,2.2,2.2,0,0,1,1.8-.82,2.021,2.021,0,0,1,1.384.474A2.011,2.011,0,0,1,4.976-5.405ZM1.387-2.319a2.039,2.039,0,0,0,.193.869,1.437,1.437,0,0,0,.54.632A1.349,1.349,0,0,0,2.847-.6,1.24,1.24,0,0,0,3.8-1.05a1.768,1.768,0,0,0,.4-1.221,1.655,1.655,0,0,0-.4-1.169,1.3,1.3,0,0,0-1-.427A1.356,1.356,0,0,0,1.8-3.44,1.54,1.54,0,0,0,1.387-2.319ZM14.331-.21A.733.733,0,0,1,14.1.42a.851.851,0,0,1-.356.137,5.305,5.305,0,0,1-.723.034.255.255,0,0,1-.156-.029A.388.388,0,0,1,12.793.4,1.781,1.781,0,0,0,12.612.01a7.085,7.085,0,0,0,.742.039.435.435,0,0,0,.308-.083A.365.365,0,0,0,13.74-.3V-2.119H10.752v1.05q.757-.088,1.318-.181-.249-.361-.278-.4a.133.133,0,0,1-.034-.063q0-.034.093-.073l.21-.093a.314.314,0,0,1,.083-.024q.029,0,.068.054a7.592,7.592,0,0,1,.8,1.309.24.24,0,0,1,.015.059q0,.039-.093.083l-.225.112a.307.307,0,0,1-.107.039q-.034,0-.059-.059-.19-.42-.239-.522-1.45.254-3.467.449a1.26,1.26,0,0,0-.43.093.237.237,0,0,1-.117.059q-.068,0-.112-.132-.059-.21-.127-.557.215,0,.4,0,.342,0,.693-.024.918-.068,1.069-.083v-1.1H7.383V-.352L7.4.6a.069.069,0,0,1-.078.078H6.86A.069.069,0,0,1,6.782.6L6.8-.352v-1.27l-.02-.928a.069.069,0,0,1,.078-.078l1.411.02H10.21V-3.33h-1.1l-1.372.02a.069.069,0,0,1-.078-.078l.02-.84V-5.239l-.02-.84a.069.069,0,0,1,.078-.078l1.372.02h2.881l1.382-.02a.069.069,0,0,1,.078.078l-.02.84v1.011l.02.84a.069.069,0,0,1-.078.078l-1.382-.02h-1.24v.723h2.09l1.411-.02a.069.069,0,0,1,.078.078l-.02.981v.41Zm-1.46-3.56v-.781H10.752v.781Zm-2.661,0v-.781H8.242v.781ZM12.871-4.98V-5.7H10.752v.718Zm-2.661,0V-5.7H8.242v.718Zm4.712-2.051q0,.078-.083.078l-1.309-.02H12.222l.02.459q0,.083-.078.083h-.435q-.088,0-.088-.083,0-.015.01-.156t.01-.3H9.351l.02.459q0,.083-.078.083H8.853a.073.073,0,0,1-.083-.083q0-.015.01-.156t.01-.3H7.6l-1.313.02a.069.069,0,0,1-.078-.078v-.4q0-.068.078-.068L7.6-7.48H8.789A4.375,4.375,0,0,0,8.73-8.3q.3.015.62.054.1.015.1.088a.266.266,0,0,1-.039.132,1.428,1.428,0,0,0-.063.547h2.31a4.305,4.305,0,0,0-.059-.811q.327.02.61.054.107.015.107.088a.266.266,0,0,1-.039.132,1.5,1.5,0,0,0-.059.537H13.53l1.309-.02q.083,0,.083.068Z" transform="translate(-3 19.182)" fill="#4891f2"/>
              <path id="Path_1669" data-name="Path 1669" d="M9.482-1.372A2.076,2.076,0,0,1,9,.068a1.235,1.235,0,0,1-.61.259A5.315,5.315,0,0,1,7.52.381,3.435,3.435,0,0,1,6.221.22.688.688,0,0,1,5.864-.1a1.645,1.645,0,0,1-.093-.64V-4.37H4.111A6.034,6.034,0,0,1,3.384-1.1,4.878,4.878,0,0,1,1.23.459.678.678,0,0,1,1.06.508Q1.011.508.913.371A1.786,1.786,0,0,0,.581-.01,5.519,5.519,0,0,0,2.3-.879,2.766,2.766,0,0,0,3.2-2.217,7.392,7.392,0,0,0,3.472-4.37H2.08l-1.318.02q-.083,0-.083-.078v-.464q0-.078.083-.078l1.318.02H7.92l1.318-.02q.083,0,.083.078v.464q0,.078-.083.078L7.92-4.37h-1.5V-.928a1.725,1.725,0,0,0,.044.493.285.285,0,0,0,.186.156A3.337,3.337,0,0,0,7.539-.2,3.186,3.186,0,0,0,8.2-.249.826.826,0,0,0,8.569-.43a2.505,2.505,0,0,0,.313-1.421,2.471,2.471,0,0,0,.449.239q.161.068.161.142A.929.929,0,0,1,9.482-1.372ZM8.35-6.938a.069.069,0,0,1-.078.078L6.851-6.88H3.208l-1.416.02q-.083,0-.083-.078v-.474q0-.078.083-.078l1.416.02H6.851l1.421-.02a.069.069,0,0,1,.078.078Z" transform="translate(3 6)" fill="#4891f2"/>
              <path id="Path_1668" data-name="Path 1668" d="M9.517-.469a1.367,1.367,0,0,0-.347.386q-.093.151-.132.151A.413.413,0,0,1,8.9-.01,8.125,8.125,0,0,1,6.533-2.441,10.183,10.183,0,0,1,5.4-5.308H5.229q-.493.386-.85.62A4.887,4.887,0,0,1,5.815-1.172,2.384,2.384,0,0,1,5.493.3,1.285,1.285,0,0,1,4.468.649,5.645,5.645,0,0,1,3.887.62Q3.745.61,3.721.581A.4.4,0,0,1,3.667.43,1.286,1.286,0,0,0,3.486,0a7.5,7.5,0,0,0,1.03.068.582.582,0,0,0,.527-.239,1.983,1.983,0,0,0,.19-1.021,4.177,4.177,0,0,0-.068-.776A12.718,12.718,0,0,1,1.118.19.553.553,0,0,1,.967.239Q.908.239.825.088A1.437,1.437,0,0,0,.518-.249a13.328,13.328,0,0,0,2.622-1,9.654,9.654,0,0,0,1.9-1.294,4.981,4.981,0,0,0-.322-.781,11.421,11.421,0,0,1-1.626.947,15.385,15.385,0,0,1-1.665.654.8.8,0,0,1-.156.049q-.059,0-.142-.142A.972.972,0,0,0,.84-2.129a12.98,12.98,0,0,0,2.095-.728A10.422,10.422,0,0,0,4.468-3.74a6,6,0,0,0-.552-.679,11.945,11.945,0,0,1-2.2.918.6.6,0,0,1-.146.039q-.059,0-.137-.127a1.256,1.256,0,0,0-.3-.332A9.932,9.932,0,0,0,4.429-5.308H3.535l-1.377.02q-.083,0-.083-.093v-.371q0-.088.083-.088l1.377.02h2.9l1.382-.02q.078,0,.078.088v.371q0,.093-.078.093l-1.382-.02H5.967a8.6,8.6,0,0,0,.679,1.948A7.83,7.83,0,0,0,7.759-4.448,2.756,2.756,0,0,0,8.066-4.9a4.684,4.684,0,0,1,.493.356.186.186,0,0,1,.078.132q0,.063-.112.132a2.59,2.59,0,0,0-.459.4,11.1,11.1,0,0,1-1.147,1A7.188,7.188,0,0,0,9.517-.469ZM9.058-5.42q0,.073-.078.073H8.516q-.078,0-.078-.073v-1.4h-6.9v1.4q0,.073-.078.073H1q-.078,0-.078-.073l.02-1.035v-.312L.918-7.29A.069.069,0,0,1,1-7.368l1.382.02H4.619v-.122a3.768,3.768,0,0,0-.073-.869q.4.02.664.049.117.02.117.083a1.006,1.006,0,0,1-.059.19,1.749,1.749,0,0,0-.049.537v.132H7.6l1.382-.02a.069.069,0,0,1,.078.078l-.02.454v.381Z" transform="translate(213.4 6)" fill="#fff"/>
            </g>
            <line id="Line_237" data-name="Line 237" y1="193.289" transform="translate(16.784 19.169)" fill="none" stroke="#4891f2" stroke-miterlimit="10" stroke-width="1"/>
          </g>
          <g id="Group_1732" data-name="Group 1732" transform="translate(121.621 28.711)">
            <g id="Group_1731" data-name="Group 1731">
              <g id="Group_1730" data-name="Group 1730">
                <rect id="Rectangle_2199" data-name="Rectangle 2199" width="9.291" height="115.76" transform="translate(0 67.987)" fill="#4891f2"/>
                <rect id="Rectangle_2200" data-name="Rectangle 2200" width="9.291" height="183.747" transform="translate(51.602)" fill="#4891f2"/>
              </g>
            </g>
          </g>
        </g>
        <g id="Group_1747" data-name="Group 1747" transform="translate(21.304 14.83)">
          <g id="Group_1740" data-name="Group 1740" transform="translate(188.769 0)">
            <g id="Group_1737" data-name="Group 1737" transform="translate(2.997)">
              <path id="Path_1679" data-name="Path 1679" d="M1.768-3.882a1.654,1.654,0,0,1-.811-.571,1.494,1.494,0,0,1-.264-.889,1.738,1.738,0,0,1,.562-1.313,2.083,2.083,0,0,1,1.494-.532,2.1,2.1,0,0,1,1.509.544,1.762,1.762,0,0,1,.571,1.326,1.46,1.46,0,0,1-.261.867,1.647,1.647,0,0,1-.793.569,1.924,1.924,0,0,1,1,.693,1.9,1.9,0,0,1,.344,1.143A2.056,2.056,0,0,1,4.473-.5,2.361,2.361,0,0,1,2.764.122,2.356,2.356,0,0,1,1.055-.505,2.087,2.087,0,0,1,.405-2.07,1.892,1.892,0,0,1,.759-3.24,1.773,1.773,0,0,1,1.768-3.882ZM1.592-5.371a1.115,1.115,0,0,0,.327.83,1.159,1.159,0,0,0,.85.322,1.136,1.136,0,0,0,.833-.32,1.058,1.058,0,0,0,.325-.784,1.1,1.1,0,0,0-.334-.813,1.139,1.139,0,0,0-.833-.33,1.15,1.15,0,0,0-.835.322A1.037,1.037,0,0,0,1.592-5.371ZM1.309-2.065a1.59,1.59,0,0,0,.178.728,1.258,1.258,0,0,0,.53.544A1.549,1.549,0,0,0,2.773-.6a1.418,1.418,0,0,0,1.04-.405,1.387,1.387,0,0,0,.41-1.03A1.41,1.41,0,0,0,3.8-3.086,1.447,1.447,0,0,0,2.744-3.5a1.389,1.389,0,0,0-1.028.41A1.4,1.4,0,0,0,1.309-2.065ZM5.977-3.53a6.55,6.55,0,0,1,.261-2.043,2.542,2.542,0,0,1,.776-1.194,1.985,1.985,0,0,1,1.3-.42,2.115,2.115,0,0,1,1.011.232,1.932,1.932,0,0,1,.718.669,3.589,3.589,0,0,1,.444,1.064,7.072,7.072,0,0,1,.161,1.692A6.569,6.569,0,0,1,10.386-1.5,2.542,2.542,0,0,1,9.612-.3a1.985,1.985,0,0,1-1.3.422A1.964,1.964,0,0,1,6.685-.62,4.717,4.717,0,0,1,5.977-3.53Zm.9,0a4.488,4.488,0,0,0,.413,2.346A1.216,1.216,0,0,0,8.311-.6a1.215,1.215,0,0,0,1.018-.586A4.49,4.49,0,0,0,9.741-3.53a4.487,4.487,0,0,0-.413-2.349A1.225,1.225,0,0,0,8.3-6.46a1.126,1.126,0,0,0-.967.513A4.54,4.54,0,0,0,6.88-3.53Zm4.658,0A6.55,6.55,0,0,1,11.8-5.574a2.542,2.542,0,0,1,.776-1.194,1.985,1.985,0,0,1,1.3-.42,2.115,2.115,0,0,1,1.011.232,1.932,1.932,0,0,1,.718.669,3.589,3.589,0,0,1,.444,1.064,7.072,7.072,0,0,1,.161,1.692A6.569,6.569,0,0,1,15.947-1.5a2.542,2.542,0,0,1-.774,1.2,1.985,1.985,0,0,1-1.3.422A1.964,1.964,0,0,1,12.246-.62,4.717,4.717,0,0,1,11.538-3.53Zm.9,0a4.488,4.488,0,0,0,.413,2.346A1.216,1.216,0,0,0,13.872-.6a1.215,1.215,0,0,0,1.018-.586A4.49,4.49,0,0,0,15.3-3.53a4.487,4.487,0,0,0-.413-2.349,1.225,1.225,0,0,0-1.028-.581,1.126,1.126,0,0,0-.967.513A4.54,4.54,0,0,0,12.441-3.53Zm4.658,0a6.55,6.55,0,0,1,.261-2.043,2.542,2.542,0,0,1,.776-1.194,1.985,1.985,0,0,1,1.3-.42,2.115,2.115,0,0,1,1.011.232,1.932,1.932,0,0,1,.718.669,3.589,3.589,0,0,1,.444,1.064,7.072,7.072,0,0,1,.161,1.692A6.569,6.569,0,0,1,21.509-1.5a2.542,2.542,0,0,1-.774,1.2,1.985,1.985,0,0,1-1.3.422A1.964,1.964,0,0,1,17.808-.62,4.717,4.717,0,0,1,17.1-3.53Zm.9,0a4.488,4.488,0,0,0,.413,2.346A1.216,1.216,0,0,0,19.434-.6a1.215,1.215,0,0,0,1.018-.586,4.49,4.49,0,0,0,.413-2.344,4.487,4.487,0,0,0-.413-2.349,1.225,1.225,0,0,0-1.028-.581,1.126,1.126,0,0,0-.967.513A4.54,4.54,0,0,0,18-3.53Z" transform="translate(0 199.295)" fill="#fff"/>
              <path id="Path_1678" data-name="Path 1678" d="M3.726,0H2.847V-5.6A4.543,4.543,0,0,1,2.014-5a5.9,5.9,0,0,1-.925.454v-.85a5.308,5.308,0,0,0,1.289-.84,3.3,3.3,0,0,0,.781-.957h.566ZM5.977-3.53a6.55,6.55,0,0,1,.261-2.043,2.542,2.542,0,0,1,.776-1.194,1.985,1.985,0,0,1,1.3-.42,2.115,2.115,0,0,1,1.011.232,1.932,1.932,0,0,1,.718.669,3.589,3.589,0,0,1,.444,1.064,7.072,7.072,0,0,1,.161,1.692A6.569,6.569,0,0,1,10.386-1.5,2.542,2.542,0,0,1,9.612-.3a1.985,1.985,0,0,1-1.3.422A1.964,1.964,0,0,1,6.685-.62,4.717,4.717,0,0,1,5.977-3.53Zm.9,0a4.488,4.488,0,0,0,.413,2.346A1.216,1.216,0,0,0,8.311-.6a1.215,1.215,0,0,0,1.018-.586A4.49,4.49,0,0,0,9.741-3.53a4.487,4.487,0,0,0-.413-2.349A1.225,1.225,0,0,0,8.3-6.46a1.126,1.126,0,0,0-.967.513A4.54,4.54,0,0,0,6.88-3.53Zm4.658,0A6.55,6.55,0,0,1,11.8-5.574a2.542,2.542,0,0,1,.776-1.194,1.985,1.985,0,0,1,1.3-.42,2.115,2.115,0,0,1,1.011.232,1.932,1.932,0,0,1,.718.669,3.589,3.589,0,0,1,.444,1.064,7.072,7.072,0,0,1,.161,1.692A6.569,6.569,0,0,1,15.947-1.5a2.542,2.542,0,0,1-.774,1.2,1.985,1.985,0,0,1-1.3.422A1.964,1.964,0,0,1,12.246-.62,4.717,4.717,0,0,1,11.538-3.53Zm.9,0a4.488,4.488,0,0,0,.413,2.346A1.216,1.216,0,0,0,13.872-.6a1.215,1.215,0,0,0,1.018-.586A4.49,4.49,0,0,0,15.3-3.53a4.487,4.487,0,0,0-.413-2.349,1.225,1.225,0,0,0-1.028-.581,1.126,1.126,0,0,0-.967.513A4.54,4.54,0,0,0,12.441-3.53Zm4.658,0a6.55,6.55,0,0,1,.261-2.043,2.542,2.542,0,0,1,.776-1.194,1.985,1.985,0,0,1,1.3-.42,2.115,2.115,0,0,1,1.011.232,1.932,1.932,0,0,1,.718.669,3.589,3.589,0,0,1,.444,1.064,7.072,7.072,0,0,1,.161,1.692A6.569,6.569,0,0,1,21.509-1.5a2.542,2.542,0,0,1-.774,1.2,1.985,1.985,0,0,1-1.3.422A1.964,1.964,0,0,1,17.808-.62,4.717,4.717,0,0,1,17.1-3.53Zm.9,0a4.488,4.488,0,0,0,.413,2.346A1.216,1.216,0,0,0,19.434-.6a1.215,1.215,0,0,0,1.018-.586,4.49,4.49,0,0,0,.413-2.344,4.487,4.487,0,0,0-.413-2.349,1.225,1.225,0,0,0-1.028-.581,1.126,1.126,0,0,0-.967.513A4.54,4.54,0,0,0,18-3.53Zm4.658,0a6.55,6.55,0,0,1,.261-2.043A2.542,2.542,0,0,1,23.7-6.768a1.985,1.985,0,0,1,1.3-.42,2.115,2.115,0,0,1,1.011.232,1.932,1.932,0,0,1,.718.669,3.589,3.589,0,0,1,.444,1.064,7.072,7.072,0,0,1,.161,1.692A6.569,6.569,0,0,1,27.07-1.5,2.542,2.542,0,0,1,26.3-.3,1.985,1.985,0,0,1,25,.122,1.964,1.964,0,0,1,23.369-.62,4.717,4.717,0,0,1,22.661-3.53Zm.9,0a4.488,4.488,0,0,0,.413,2.346A1.216,1.216,0,0,0,25-.6a1.215,1.215,0,0,0,1.018-.586,4.49,4.49,0,0,0,.413-2.344,4.487,4.487,0,0,0-.413-2.349,1.225,1.225,0,0,0-1.028-.581,1.126,1.126,0,0,0-.967.513A4.54,4.54,0,0,0,23.564-3.53Z" transform="translate(0 102.647)" fill="#fff"/>
              <path id="Path_1677" data-name="Path 1677" d="M3.726,0H2.847V-5.6A4.543,4.543,0,0,1,2.014-5a5.9,5.9,0,0,1-.925.454v-.85a5.308,5.308,0,0,0,1.289-.84,3.3,3.3,0,0,0,.781-.957h.566ZM10.6-.845V0H5.864a1.555,1.555,0,0,1,.1-.61,3.229,3.229,0,0,1,.579-.952A9.065,9.065,0,0,1,7.7-2.646,9.748,9.748,0,0,0,9.272-4.163a1.815,1.815,0,0,0,.41-1.057A1.175,1.175,0,0,0,9.309-6.1a1.347,1.347,0,0,0-.974-.359,1.373,1.373,0,0,0-1.016.381,1.441,1.441,0,0,0-.386,1.055l-.9-.093a2.224,2.224,0,0,1,.7-1.541,2.382,2.382,0,0,1,1.626-.53,2.269,2.269,0,0,1,1.631.571,1.876,1.876,0,0,1,.6,1.416,2.148,2.148,0,0,1-.176.845,3.278,3.278,0,0,1-.583.874,14.215,14.215,0,0,1-1.355,1.26q-.791.664-1.016.9a2.89,2.89,0,0,0-.371.476Zm.942-2.686A6.55,6.55,0,0,1,11.8-5.574a2.542,2.542,0,0,1,.776-1.194,1.985,1.985,0,0,1,1.3-.42,2.115,2.115,0,0,1,1.011.232,1.932,1.932,0,0,1,.718.669,3.589,3.589,0,0,1,.444,1.064,7.072,7.072,0,0,1,.161,1.692A6.569,6.569,0,0,1,15.947-1.5a2.542,2.542,0,0,1-.774,1.2,1.985,1.985,0,0,1-1.3.422A1.964,1.964,0,0,1,12.246-.62,4.717,4.717,0,0,1,11.538-3.53Zm.9,0a4.488,4.488,0,0,0,.413,2.346A1.216,1.216,0,0,0,13.872-.6a1.215,1.215,0,0,0,1.018-.586A4.49,4.49,0,0,0,15.3-3.53a4.487,4.487,0,0,0-.413-2.349,1.225,1.225,0,0,0-1.028-.581,1.126,1.126,0,0,0-.967.513A4.54,4.54,0,0,0,12.441-3.53Zm4.658,0a6.55,6.55,0,0,1,.261-2.043,2.542,2.542,0,0,1,.776-1.194,1.985,1.985,0,0,1,1.3-.42,2.115,2.115,0,0,1,1.011.232,1.932,1.932,0,0,1,.718.669,3.589,3.589,0,0,1,.444,1.064,7.072,7.072,0,0,1,.161,1.692A6.569,6.569,0,0,1,21.509-1.5a2.542,2.542,0,0,1-.774,1.2,1.985,1.985,0,0,1-1.3.422A1.964,1.964,0,0,1,17.808-.62,4.717,4.717,0,0,1,17.1-3.53Zm.9,0a4.488,4.488,0,0,0,.413,2.346A1.216,1.216,0,0,0,19.434-.6a1.215,1.215,0,0,0,1.018-.586,4.49,4.49,0,0,0,.413-2.344,4.487,4.487,0,0,0-.413-2.349,1.225,1.225,0,0,0-1.028-.581,1.126,1.126,0,0,0-.967.513A4.54,4.54,0,0,0,18-3.53Zm4.658,0a6.55,6.55,0,0,1,.261-2.043A2.542,2.542,0,0,1,23.7-6.768a1.985,1.985,0,0,1,1.3-.42,2.115,2.115,0,0,1,1.011.232,1.932,1.932,0,0,1,.718.669,3.589,3.589,0,0,1,.444,1.064,7.072,7.072,0,0,1,.161,1.692A6.569,6.569,0,0,1,27.07-1.5,2.542,2.542,0,0,1,26.3-.3,1.985,1.985,0,0,1,25,.122,1.964,1.964,0,0,1,23.369-.62,4.717,4.717,0,0,1,22.661-3.53Zm.9,0a4.488,4.488,0,0,0,.413,2.346A1.216,1.216,0,0,0,25-.6a1.215,1.215,0,0,0,1.018-.586,4.49,4.49,0,0,0,.413-2.344,4.487,4.487,0,0,0-.413-2.349,1.225,1.225,0,0,0-1.028-.581,1.126,1.126,0,0,0-.967.513A4.54,4.54,0,0,0,23.564-3.53Z" transform="translate(0 6)" fill="#fff"/>
            </g>
            <line id="Line_262" data-name="Line 262" y1="193.289" transform="translate(0 4.34)" fill="none" stroke="#fff" stroke-miterlimit="10" stroke-width="1"/>
          </g>
          <g id="Group_1743" data-name="Group 1743" transform="translate(1.883 39.495)">
            <g id="Group_1742" data-name="Group 1742">
              <g id="Group_1741" data-name="Group 1741">
                <line id="Line_266" data-name="Line 266" x1="12.869" y2="38.733" transform="translate(0 97.618)" fill="none" stroke="#fff" stroke-linecap="round" stroke-miterlimit="10" stroke-width="2"/>
                <line id="Line_267" data-name="Line 267" x1="12.932" y2="28.877" transform="translate(12.869 68.74)" fill="none" stroke="#fff" stroke-linecap="round" stroke-miterlimit="10" stroke-width="2"/>
                <line id="Line_268" data-name="Line 268" x1="12.869" y2="22.035" transform="translate(25.801 46.706)" fill="none" stroke="#fff" stroke-linecap="round" stroke-miterlimit="10" stroke-width="2"/>
                <line id="Line_269" data-name="Line 269" x1="12.869" y2="23.416" transform="translate(38.67 23.29)" fill="none" stroke="#fff" stroke-linecap="round" stroke-miterlimit="10" stroke-width="2"/>
                <line id="Line_270" data-name="Line 270" x1="12.932" y2="8.851" transform="translate(51.54 14.439)" fill="none" stroke="#fff" stroke-linecap="round" stroke-miterlimit="10" stroke-width="2"/>
                <line id="Line_271" data-name="Line 271" x1="12.869" y2="11.425" transform="translate(64.472 3.013)" fill="none" stroke="#fff" stroke-linecap="round" stroke-miterlimit="10" stroke-width="2"/>
                <line id="Line_272" data-name="Line 272" x1="12.869" y2="2.448" transform="translate(77.341 0.565)" fill="none" stroke="#fff" stroke-linecap="round" stroke-miterlimit="10" stroke-width="2"/>
                <line id="Line_273" data-name="Line 273" x1="12.869" y2="0.565" transform="translate(90.21)" fill="none" stroke="#fff" stroke-linecap="round" stroke-miterlimit="10" stroke-width="2"/>
                <line id="Line_274" data-name="Line 274" x1="12.932" y1="1.13" transform="translate(103.079)" fill="none" stroke="#fff" stroke-linecap="round" stroke-miterlimit="10" stroke-width="2"/>
                <line id="Line_275" data-name="Line 275" x1="12.869" y1="1.004" transform="translate(116.011 1.13)" fill="none" stroke="#fff" stroke-linecap="round" stroke-miterlimit="10" stroke-width="2"/>
                <line id="Line_276" data-name="Line 276" x1="12.869" y1="3.264" transform="translate(128.88 2.134)" fill="none" stroke="#fff" stroke-linecap="round" stroke-miterlimit="10" stroke-width="2"/>
                <line id="Line_277" data-name="Line 277" x1="12.869" y1="5.273" transform="translate(141.749 5.399)" fill="none" stroke="#fff" stroke-linecap="round" stroke-miterlimit="10" stroke-width="2"/>
                <line id="Line_278" data-name="Line 278" x1="12.932" y2="4.645" transform="translate(154.619 6.027)" fill="none" stroke="#fff" stroke-linecap="round" stroke-miterlimit="10" stroke-width="2"/>
                <line id="Line_279" data-name="Line 279" x1="12.869" y2="2.323" transform="translate(167.551 3.704)" fill="none" stroke="#fff" stroke-linecap="round" stroke-miterlimit="10" stroke-width="2"/>
              </g>
            </g>
          </g>
          <g id="Group_1746" data-name="Group 1746" transform="translate(0 37.611)">
            <g id="Group_1745" data-name="Group 1745">
              <g id="Group_1744" data-name="Group 1744">
                <rect id="Rectangle_2201" data-name="Rectangle 2201" width="3.767" height="3.767" rx="1.883" transform="translate(0 136.351)" fill="#fff" stroke="#fff" stroke-miterlimit="10" stroke-width="0.5"/>
                <rect id="Rectangle_2202" data-name="Rectangle 2202" width="3.767" height="3.767" rx="1.883" transform="translate(12.869 97.618)" fill="#fff" stroke="#fff" stroke-miterlimit="10" stroke-width="0.5"/>
                <rect id="Rectangle_2203" data-name="Rectangle 2203" width="3.767" height="3.767" rx="1.883" transform="translate(25.801 68.74)" fill="#fff" stroke="#fff" stroke-miterlimit="10" stroke-width="0.5"/>
                <rect id="Rectangle_2204" data-name="Rectangle 2204" width="3.767" height="3.767" rx="1.883" transform="translate(38.67 46.706)" fill="#fff" stroke="#fff" stroke-miterlimit="10" stroke-width="0.5"/>
                <rect id="Rectangle_2205" data-name="Rectangle 2205" width="3.767" height="3.767" rx="1.883" transform="translate(51.54 23.29)" fill="#fff" stroke="#fff" stroke-miterlimit="10" stroke-width="0.5"/>
                <rect id="Rectangle_2206" data-name="Rectangle 2206" width="3.767" height="3.767" rx="1.883" transform="translate(64.472 14.439)" fill="#fff" stroke="#fff" stroke-miterlimit="10" stroke-width="0.5"/>
                <rect id="Rectangle_2207" data-name="Rectangle 2207" width="3.767" height="3.767" rx="1.883" transform="translate(77.341 3.013)" fill="#fff" stroke="#fff" stroke-miterlimit="10" stroke-width="0.5"/>
                <rect id="Rectangle_2208" data-name="Rectangle 2208" width="3.767" height="3.767" rx="1.883" transform="translate(90.21 0.565)" fill="#fff" stroke="#fff" stroke-miterlimit="10" stroke-width="0.5"/>
                <rect id="Rectangle_2209" data-name="Rectangle 2209" width="3.767" height="3.767" rx="1.883" transform="translate(103.079)" fill="#fff" stroke="#fff" stroke-miterlimit="10" stroke-width="0.5"/>
                <rect id="Rectangle_2210" data-name="Rectangle 2210" width="3.767" height="3.767" rx="1.883" transform="translate(116.011 1.13)" fill="#fff" stroke="#fff" stroke-miterlimit="10" stroke-width="0.5"/>
                <rect id="Rectangle_2211" data-name="Rectangle 2211" width="3.767" height="3.767" rx="1.883" transform="translate(128.88 2.134)" fill="#fff" stroke="#fff" stroke-miterlimit="10" stroke-width="0.5"/>
                <rect id="Rectangle_2212" data-name="Rectangle 2212" width="3.767" height="3.767" rx="1.883" transform="translate(141.749 5.399)" fill="#fff" stroke="#fff" stroke-miterlimit="10" stroke-width="0.5"/>
                <rect id="Rectangle_2213" data-name="Rectangle 2213" width="3.767" height="3.767" rx="1.883" transform="translate(154.619 10.672)" fill="#fff" stroke="#fff" stroke-miterlimit="10" stroke-width="0.5"/>
                <rect id="Rectangle_2214" data-name="Rectangle 2214" width="3.767" height="3.767" rx="1.883" transform="translate(167.551 6.027)" fill="#fff" stroke="#fff" stroke-miterlimit="10" stroke-width="0.5"/>
                <rect id="Rectangle_2215" data-name="Rectangle 2215" width="3.767" height="3.767" rx="1.883" transform="translate(180.42 3.704)" fill="#fff" stroke="#fff" stroke-miterlimit="10" stroke-width="0.5"/>
              </g>
            </g>
          </g>
        </g>
      </g>
      <path id="Path_1666" data-name="Path 1666" d="M.88,0H4.9V-.76H3.43V-7.34h-.7a4.416,4.416,0,0,1-1.52.53v.58h1.3V-.76H.88ZM8.33.13c1.39,0,2.28-1.27,2.28-3.82S9.72-7.47,8.33-7.47,6.04-6.24,6.04-3.69,6.93.13,8.33.13Zm0-.73c-.84,0-1.4-.93-1.4-3.09,0-2.14.56-3.05,1.4-3.05s1.39.91,1.39,3.05C9.72-1.53,9.16-.6,8.33-.6Zm5.41.73a2.134,2.134,0,0,0,2.35-2.09,1.886,1.886,0,0,0-1.55-1.86v-.04a1.83,1.83,0,0,0,1.3-1.77,1.883,1.883,0,0,0-2.13-1.84,2.935,2.935,0,0,0-2.05.88l.49.58a2.14,2.14,0,0,1,1.52-.71,1.125,1.125,0,0,1,1.24,1.16c0,.79-.52,1.4-2.03,1.4v.7c1.69,0,2.28.59,2.28,1.46A1.352,1.352,0,0,1,13.67-.63a2.423,2.423,0,0,1-1.82-.84l-.46.6A3.035,3.035,0,0,0,13.74.13Z" transform="translate(374.634 530.03)" fill="#d48773"/>
      <path id="Path_1667" data-name="Path 1667" d="M.88,0H4.9V-.76H3.43V-7.34h-.7a4.416,4.416,0,0,1-1.52.53v.58h1.3V-.76H.88ZM8.33.13c1.39,0,2.28-1.27,2.28-3.82S9.72-7.47,8.33-7.47,6.04-6.24,6.04-3.69,6.93.13,8.33.13Zm0-.73c-.84,0-1.4-.93-1.4-3.09,0-2.14.56-3.05,1.4-3.05s1.39.91,1.39,3.05C9.72-1.53,9.16-.6,8.33-.6Zm4.75.6h.95c.11-2.87.43-4.58,2.15-6.78v-.56H11.59v.79h3.55A10.856,10.856,0,0,0,13.08,0Zm9.74-5.25a4.5,4.5,0,0,0-.72-.55,5.687,5.687,0,0,0,.58-.64l-.52-.17a3.571,3.571,0,0,1-.5.53c-.26-.14-.52-.29-.77-.4l-.37.33a7.351,7.351,0,0,1,.72.39,6.012,6.012,0,0,1-.95.55,2.58,2.58,0,0,1,.41.39,7.077,7.077,0,0,0,1-.65,5.453,5.453,0,0,1,.72.58Zm-.03-1.79c-.18-.14-.42-.3-.69-.47a5.136,5.136,0,0,0,.55-.61l-.52-.14a4.259,4.259,0,0,1-.47.49c-.26-.14-.51-.27-.75-.37l-.36.33a6.664,6.664,0,0,1,.7.36,6.027,6.027,0,0,1-.89.51,3.132,3.132,0,0,1,.42.36,6.948,6.948,0,0,0,.93-.6,4.949,4.949,0,0,1,.69.51Zm-4.65,2.8h7.03V-3h.73V-4.81h-.78c.08-.89.17-2.18.22-3.17H23.03v.51h1.59l-.03.54H23.08v.51h1.48l-.05.54H23.02v.51h1.45c-.02.2-.04.38-.06.56H18.93l-.04-.56h1.39v-.51H18.86l-.04-.54h1.42v-.51H18.79l-.04-.49a10.484,10.484,0,0,0,1.54-.39l-.33-.46a18.716,18.716,0,0,1-1.93.49l.2,2.97h-.8V-3h.71ZM26.1-1.81h-4v-.18a10.421,10.421,0,0,0,2.26-1.24l-.45-.37-.15.04h-4.7V-3h3.91a9.282,9.282,0,0,1-1.59.76v.43H17.21v.63h4.17V-.05c0,.14-.04.17-.21.18-.15,0-.71,0-1.33-.02a2.8,2.8,0,0,1,.26.63,5.984,5.984,0,0,0,1.61-.1c.31-.11.39-.28.39-.67V-1.18h4Zm3.44-.43V-4.22h2.24v1.98Zm6.61,0H32.53V-4.22h2.93v-.7H32.53V-6.44h3.16v-.72H29.73c.16-.34.32-.7.46-1.05l-.75-.18a8.462,8.462,0,0,1-2.25,3.45,4.6,4.6,0,0,1,.64.47,9.239,9.239,0,0,0,1.52-1.97h2.43v1.52H28.8v2.68H27.16v.72h4.62V.77h.75V-1.52h3.62Z" transform="translate(427.362 530.03)" fill="#d48773"/>
    </g>
    <g id="Group_1951" data-name="Group 1951" transform="translate(-9515 -12816)">
      <rect id="Rectangle_2063" data-name="Rectangle 2063" width="215" height="21" rx="10.5" transform="translate(655 1061)" fill="#3d3c3c"/>
      <path id="內文p" d="M2.79,4.94A7.013,7.013,0,0,0,1.91,3.7l-.59.28a7.7,7.7,0,0,1,.85,1.29Zm.57,2.37a7.47,7.47,0,0,1-.63.96c-.11-.14-.22-.28-.31-.38V7.87A12.094,12.094,0,0,0,3.47,5.62l-.39-.24-.13.03H.61v.66H2.63A10.631,10.631,0,0,1,.29,9.56a2.587,2.587,0,0,1,.39.6A10.3,10.3,0,0,0,1.72,8.93v3.79h.7v-4c.3.45.66.95.8,1.22l.45-.49c-.1-.13-.37-.47-.63-.8.25-.29.54-.66.81-1.01Zm5.1.04V8.39H6.86V7.35Zm-1.6,2.71V8.99h1.6v1.07Zm-2.21,0V8.99H6.14v1.07ZM6.14,7.35V8.39H4.65V7.35Zm3.4-1.64V5.03H8.93l.39-.37a6.358,6.358,0,0,0-1.52-1l-.41.4a6.537,6.537,0,0,1,1.42.97H6.86V3.64H6.14V5.03H3.65v.68H6.14v1H3.96v6.06h.69V10.66H6.14V12.7h.72V10.66h1.6v1.27c0,.12-.03.15-.15.15s-.45.01-.85,0a2.138,2.138,0,0,1,.22.66,2.948,2.948,0,0,0,1.17-.12c.24-.12.31-.31.31-.67V6.71H6.86v-1Zm5.68,1.94c.76-.28,1.73-.64,2.65-.99l-.11-.55c-1.04.37-2.09.74-2.81.97Zm1.96-1.9a5.515,5.515,0,0,0-1.34-.91l-.39.45a4.773,4.773,0,0,1,1.32.95ZM13.86,7.42c0,.11-.03.15-.15.15s-.52.01-.96,0a2.756,2.756,0,0,1,.19.55,4.271,4.271,0,0,0,1.29-.09c.24-.1.32-.27.32-.6V4.14H10.76v.61h3.1ZM11.18,5.28a5.135,5.135,0,0,1,1.3.98l.4-.48a5.52,5.52,0,0,0-1.31-.94ZM13.2,6.3c-.99.39-2,.76-2.68.97l.29.61c.72-.28,1.62-.65,2.5-1.03Zm4.26,3.91H12.61V9.24h4.85Zm-4.85,1.6V10.8h4.85v1.01Zm2-4.09a8.6,8.6,0,0,1-.39.94H11.88v4.13h.73V12.4h4.85v.39h.75V8.66H14.95c.14-.24.29-.52.43-.79ZM19,4.14H15.18v.61H18.3V7.43c0,.12-.04.15-.16.16-.14,0-.57,0-1.04-.02a2.194,2.194,0,0,1,.21.59,4.566,4.566,0,0,0,1.35-.1c.26-.11.34-.28.34-.63Zm4.52,7.16a12.07,12.07,0,0,1-2.95.91,3.966,3.966,0,0,1,.53.56,14.348,14.348,0,0,0,3.09-1.17Zm-.96-1.12h5v.63h-5Zm3.21-3.35v.69h.7V6.83h2.11a.648.648,0,0,1-.12.36c-.05.06-.12.07-.23.07s-.38-.01-.69-.04a1.115,1.115,0,0,1,.12.32H23.2a2.087,2.087,0,0,0,.71-.71ZM23.53,5.74a1.766,1.766,0,0,1-.15.6H22.06q.045-.285.09-.6Zm.7-1.06h1.54v.57H24.23Zm3.79,0v.57H26.47V4.68ZM25.77,6.34H24.11a2.354,2.354,0,0,0,.1-.6h1.56Zm1.79,2.3h-5V8.02h5Zm0,1.07h-5V9.1h5Zm.74,1.58V7.73c.1,0,.19-.01.26-.01a.71.71,0,0,0,.48-.18c.14-.13.2-.42.26-.96.01-.09.02-.24.02-.24H26.47v-.6H28.7V4.19H26.47V3.64h-.7v.55H24.23V3.64h-.68v.55H21.11v.49h2.44v.57H21.56c-.06.52-.16,1.14-.25,1.58h1.7a4.893,4.893,0,0,1-2.41.93,2.634,2.634,0,0,1,.35.58c.33-.07.63-.14.89-.22v3.17h4.43l-.37.36a24.353,24.353,0,0,1,2.94,1.07l.56-.46a27.086,27.086,0,0,0-2.81-.97ZM36.95,8.2a6.644,6.644,0,0,0,1.99,4.76l.6-.31a6.253,6.253,0,0,1,0-8.9l-.6-.31A6.644,6.644,0,0,0,36.95,8.2ZM49.46,5.1H46.55l.65-.3a5.348,5.348,0,0,0-.84-1.22l-.62.27a6.284,6.284,0,0,1,.79,1.25H44.01v.69h5.45ZM47.18,6.39a11.039,11.039,0,0,1,1.71,2.12l.55-.46A11.131,11.131,0,0,0,47.69,6Zm-1.85-.34A6.851,6.851,0,0,1,43.7,8.12a4.676,4.676,0,0,1,.52.45A9.2,9.2,0,0,0,46,6.35ZM43.82,8.79c-.17-.3-.94-1.61-1.18-1.95v-.4h1.12v-.7H42.64V3.63h-.68V5.74h-1.3v.7h1.16a11.076,11.076,0,0,1-1.49,3.79,3.316,3.316,0,0,1,.4.71,11.718,11.718,0,0,0,1.23-3.02v4.84h.68V7.81c.27.54.6,1.2.73,1.54Zm3.77-.99a6.685,6.685,0,0,1-1,2.14,7.368,7.368,0,0,1-1.15-2.1l-.64.18a8.935,8.935,0,0,0,1.33,2.48,7.508,7.508,0,0,1-2.5,1.72,3.1,3.1,0,0,1,.47.56,7.9,7.9,0,0,0,2.5-1.73,6.659,6.659,0,0,0,2.52,1.65,2.626,2.626,0,0,1,.5-.64,6.448,6.448,0,0,1-2.54-1.57A7.621,7.621,0,0,0,48.3,7.98Zm6.79-1.94a12.463,12.463,0,0,1-.74,2.69,17.731,17.731,0,0,0-1.65-1.56,10.359,10.359,0,0,0,.48-1.13Zm.21-.7H52.71c.14-.45.25-.91.36-1.39l-.73-.14a9.924,9.924,0,0,1-1.9,4.42,4.111,4.111,0,0,1,.61.47,7.538,7.538,0,0,0,.63-.93A15.558,15.558,0,0,1,53.3,9.27a6.672,6.672,0,0,1-2.84,2.85,2.716,2.716,0,0,1,.61.61c2.12-1.17,3.66-3.52,4.18-7.44l-.51-.17Zm2.28,1.7V3.64h-.76v9.12h.76V7.33a18.049,18.049,0,0,1,2.15,2.08l.59-.51a20.058,20.058,0,0,0-2.47-2.26Zm9.3-.11a4.5,4.5,0,0,0-.72-.55,5.687,5.687,0,0,0,.58-.64l-.52-.17a3.571,3.571,0,0,1-.5.53c-.26-.14-.52-.29-.77-.4l-.37.33a7.35,7.35,0,0,1,.72.39,6.011,6.011,0,0,1-.95.55,2.58,2.58,0,0,1,.41.39,7.077,7.077,0,0,0,1-.65,5.453,5.453,0,0,1,.72.58Zm-.03-1.79c-.18-.14-.42-.3-.69-.47A5.135,5.135,0,0,0,66,3.88l-.52-.14a4.26,4.26,0,0,1-.47.49c-.26-.14-.51-.27-.75-.37l-.36.33a6.664,6.664,0,0,1,.7.36,6.027,6.027,0,0,1-.89.51,3.132,3.132,0,0,1,.42.36,6.947,6.947,0,0,0,.93-.6,4.949,4.949,0,0,1,.69.51Zm-4.65,2.8h7.03V9h.73V7.19h-.78c.08-.89.17-2.18.22-3.17H66.38v.51h1.59l-.03.54H66.43v.51h1.48l-.05.54H66.37v.51h1.45c-.02.2-.04.38-.06.56H62.28l-.04-.56h1.39V6.12H62.21l-.04-.54h1.42V5.07H62.14l-.04-.49a10.484,10.484,0,0,0,1.54-.39l-.33-.46a18.717,18.717,0,0,1-1.93.49l.2,2.97h-.8V9h.71Zm7.96,2.43h-4v-.18a10.42,10.42,0,0,0,2.26-1.24l-.45-.37-.15.04h-4.7V9h3.91a9.282,9.282,0,0,1-1.59.76v.43H60.56v.63h4.17v1.13c0,.14-.04.17-.21.18-.15,0-.71,0-1.33-.02a2.8,2.8,0,0,1,.26.63,5.984,5.984,0,0,0,1.61-.1c.31-.11.39-.28.39-.67V10.82h4Zm5.77-2.54c.76-.28,1.73-.64,2.65-.99l-.11-.55c-1.04.37-2.09.74-2.81.97Zm1.96-1.9a5.515,5.515,0,0,0-1.34-.91l-.39.45a4.773,4.773,0,0,1,1.32.95ZM73.86,7.42c0,.11-.03.15-.15.15s-.52.01-.96,0a2.756,2.756,0,0,1,.19.55,4.271,4.271,0,0,0,1.29-.09c.24-.1.32-.27.32-.6V4.14H70.76v.61h3.1ZM71.18,5.28a5.135,5.135,0,0,1,1.3.98l.4-.48a5.52,5.52,0,0,0-1.31-.94ZM73.2,6.3c-.99.39-2,.76-2.68.97l.29.61c.72-.28,1.62-.65,2.5-1.03Zm4.26,3.91H72.61V9.24h4.85Zm-4.85,1.6V10.8h4.85v1.01Zm2-4.09a8.6,8.6,0,0,1-.39.94H71.88v4.13h.73V12.4h4.85v.39h.75V8.66H74.95c.14-.24.29-.52.43-.79ZM79,4.14H75.18v.61H78.3V7.43c0,.12-.04.15-.16.16-.14,0-.57,0-1.04-.02a2.194,2.194,0,0,1,.21.59,4.566,4.566,0,0,0,1.35-.1c.26-.11.34-.28.34-.63Zm9.31,1.34a11.776,11.776,0,0,0-2.07-1.64l-.54.29c.29.19.6.42.89.65l-3.4.12a12.961,12.961,0,0,0,1.51-.98l-.66-.33a9.648,9.648,0,0,1-1.71,1.15,1.7,1.7,0,0,1-.62.23,4.443,4.443,0,0,1,.22.64,44.6,44.6,0,0,1,5.29-.31c.2.18.37.35.51.5Zm-.78,4.59c-1.11,1.14-3.34,1.81-5.76,2.09a2.955,2.955,0,0,1,.36.61c2.5-.35,4.79-1.1,6.01-2.4ZM85.27,8.1a10.337,10.337,0,0,1-3.13,1.38,2.711,2.711,0,0,1,.44.46,10.721,10.721,0,0,0,3.24-1.57Zm1.09.96a10.467,10.467,0,0,1-4.15,1.65,3.126,3.126,0,0,1,.4.54,11.249,11.249,0,0,0,4.32-1.9Zm3-1.51a6.544,6.544,0,0,0-1.14-1.48l-.52.24c.14.15.29.31.42.48l-1.36.08a6.57,6.57,0,0,0,.67-.9l-.67-.28a3.986,3.986,0,0,1-.68,1.04.641.641,0,0,1-.32.22l.05.11a5.6,5.6,0,0,1-.49-.48c.06-.09.12-.19.17-.28l-.68-.21a4.73,4.73,0,0,1-.84,1.09,8.033,8.033,0,0,0-.61-.91l-.54.19c.1.13.2.26.3.41l-1.16.05a7.841,7.841,0,0,0,.89-1.01l-.67-.29a5.275,5.275,0,0,1-.9,1.13.856.856,0,0,1-.4.24,3.515,3.515,0,0,1,.24.63,10.6,10.6,0,0,1,2.3-.22,1.667,1.667,0,0,1,.08.2,9.3,9.3,0,0,1-3.06,1.5,2.9,2.9,0,0,1,.43.58A9.053,9.053,0,0,0,84.94,7.1a10.324,10.324,0,0,0,4.28,2.5,2.654,2.654,0,0,1,.47-.58A10.793,10.793,0,0,1,86.37,7.5c.31-.04.91-.09,2.13-.18a3.652,3.652,0,0,1,.3.5Zm6.15,1.42c0,.09-.02.13-.13.13a6.6,6.6,0,0,1-.75-.01,1.97,1.97,0,0,1,.19.51,3.226,3.226,0,0,0,1.05-.09c.22-.1.28-.23.28-.54V6.34h-.27V6.33H94.57V5.26h1.65V4.63H94.57V3.7h-.65V6.93h1.59ZM94.24,7.36a3.885,3.885,0,0,1-.55,1.65,3.275,3.275,0,0,1,.52.32,5.025,5.025,0,0,0,.61-1.87Zm-.83,3.22a11.529,11.529,0,0,1-2.78,1.6,6.686,6.686,0,0,1,.44.56,15.9,15.9,0,0,0,2.98-1.71Zm2.55.48a22.919,22.919,0,0,1,2.83,1.65l.49-.56a24.232,24.232,0,0,0-2.91-1.6Zm2.59-1.33c.09-1.47.14-3.83.15-5.59H96.58v.65h1.44c0,.4-.01.82-.02,1.25H96.67v.64h1.32c-.02.42-.03.83-.05,1.23H96.62v.63h1.3c-.02.43-.05.84-.07,1.19H92.18l-.04-1.22h1.29V7.87H92.11l-.04-1.22h1.32V6.01H92.05l-.04-1.17c.51-.16,1.06-.35,1.52-.54l-.36-.61a16.407,16.407,0,0,1-1.85.77l.19,5.27H90.5v.69h9.01V9.73Zm4.5-1.53a6.644,6.644,0,0,0-1.99-4.76l-.6.31a6.253,6.253,0,0,1,0,8.9l.6.31A6.644,6.644,0,0,0,103.05,8.2Z" transform="translate(678 1063)" fill="#aca4a4"/>
      <path id="內文p-2" data-name="內文p" d="M5.78,5.11A8.2,8.2,0,0,0,5,3.58l-.77.22a7.794,7.794,0,0,1,.74,1.57ZM7.09,6.12A9.174,9.174,0,0,1,5.03,9.47,10.108,10.108,0,0,1,2.85,6.12Zm2.41,0V5.39H.54v.73H2.08a11.266,11.266,0,0,0,2.4,3.87A10.756,10.756,0,0,1,.4,12.06a4.141,4.141,0,0,1,.46.69,11.5,11.5,0,0,0,4.16-2.23,10.109,10.109,0,0,0,4.1,2.19,3.42,3.42,0,0,1,.51-.69A9.822,9.822,0,0,1,5.59,9.99,10.553,10.553,0,0,0,7.93,6.12Zm4.03,3.87-1.09.36V7.87h1V7.18h-1V5.01h1.15v-.7h-3.1v.7h1.24V7.18H10.6v.69h1.13v2.7c-.51.17-.97.31-1.34.42l.17.75c.89-.29,2.03-.68,3.1-1.04Zm1.23-3.37h1.52V7.89H14.76Zm0-1.88h1.52V6H14.76ZM18.45,6H16.92V4.74h1.53Zm0,1.89H16.92V6.62h1.53Zm-1.47,3.87V10.39h2.33V9.71H16.98V8.54h2.18V4.09H14.08V8.54h2.15V9.71H13.96v.68h2.27v1.37H13.19v.68h6.44v-.68ZM28.44,7.24H25.97V6.29h2.47Zm0,1.52H25.97V7.8h2.47Zm0,1.53H25.97V9.32h2.47ZM25.29,5.7v5.18h3.86V5.7H27.18c.1-.28.21-.62.31-.94h2.04V4.11H24.9v.65h1.8c-.07.3-.15.65-.23.94ZM24.01,4a9.523,9.523,0,0,1-.57,1.26l.5.18c.22-.32.46-.79.7-1.24ZM21.87,5.17a3.988,3.988,0,0,0-.6-1.18l-.52.21a4.243,4.243,0,0,1,.57,1.21Zm.49,3.16h.66V6.46h1.74V5.84H23.02V3.68h-.66V5.84H20.53v.62h1.83Zm.83-1.24a12.789,12.789,0,0,1,1.28,1.27l.42-.49c-.2-.19-1.07-.91-1.31-1.08Zm-1.56-.34a3.579,3.579,0,0,1-1.27,1.47,2.511,2.511,0,0,1,.44.48,4.394,4.394,0,0,0,1.31-1.77Zm3.01,5.03a17.578,17.578,0,0,0-1.77-1.26,2.239,2.239,0,0,0,.07-.44h1.92V9.45H24.2l.33-.22a4.447,4.447,0,0,0-.69-.81l-.43.27a4.883,4.883,0,0,1,.63.76H22.97V8.54h-.65v.91h-1.8v.63h1.76c-.1.73-.5,1.49-1.89,2.08a2.2,2.2,0,0,1,.38.54,3.46,3.46,0,0,0,1.89-1.6c.57.4,1.21.88,1.56,1.19Zm1.68-.7a4.945,4.945,0,0,1-1.73,1.21c.15.14.38.36.5.5a6.368,6.368,0,0,0,1.88-1.34Zm1.11.39a11.308,11.308,0,0,1,1.67,1.3l.58-.41a13.087,13.087,0,0,0-1.71-1.26Zm5.36-6.53a7.013,7.013,0,0,0-.88-1.24l-.59.28a7.7,7.7,0,0,1,.85,1.29Zm.57,2.37a7.47,7.47,0,0,1-.63.96c-.11-.14-.22-.28-.31-.38V7.87a12.094,12.094,0,0,0,1.05-2.25l-.39-.24-.13.03H30.61v.66h2.02a10.631,10.631,0,0,1-2.34,3.49,2.587,2.587,0,0,1,.39.6,10.3,10.3,0,0,0,1.04-1.23v3.79h.7v-4c.3.45.66.95.8,1.22l.45-.49c-.1-.13-.37-.47-.63-.8.25-.29.54-.66.81-1.01Zm5.1.04V8.39h-1.6V7.35Zm-1.6,2.71V8.99h1.6v1.07Zm-2.21,0V8.99h1.49v1.07Zm1.49-2.71V8.39H34.65V7.35Zm3.4-1.64V5.03h-.61l.39-.37a6.358,6.358,0,0,0-1.52-1l-.41.4a6.537,6.537,0,0,1,1.42.97H36.86V3.64h-.72V5.03H33.65v.68h2.49v1H33.96v6.06h.69V10.66h1.49V12.7h.72V10.66h1.6v1.27c0,.12-.03.15-.15.15s-.45.01-.85,0a2.138,2.138,0,0,1,.22.66,2.948,2.948,0,0,0,1.17-.12c.24-.12.31-.31.31-.67V6.71h-2.3v-1Zm5.68,1.94c.76-.28,1.73-.64,2.65-.99l-.11-.55c-1.04.37-2.09.74-2.81.97Zm1.96-1.9a5.515,5.515,0,0,0-1.34-.91l-.39.45a4.773,4.773,0,0,1,1.32.95ZM43.86,7.42c0,.11-.03.15-.15.15s-.52.01-.96,0a2.756,2.756,0,0,1,.19.55,4.271,4.271,0,0,0,1.29-.09c.24-.1.32-.27.32-.6V4.14H40.76v.61h3.1ZM41.18,5.28a5.135,5.135,0,0,1,1.3.98l.4-.48a5.52,5.52,0,0,0-1.31-.94ZM43.2,6.3c-.99.39-2,.76-2.68.97l.29.61c.72-.28,1.62-.65,2.5-1.03Zm4.26,3.91H42.61V9.24h4.85Zm-4.85,1.6V10.8h4.85v1.01Zm2-4.09a8.6,8.6,0,0,1-.39.94H41.88v4.13h.73V12.4h4.85v.39h.75V8.66H44.95c.14-.24.29-.52.43-.79ZM49,4.14H45.18v.61H48.3V7.43c0,.12-.04.15-.16.16-.14,0-.57,0-1.04-.02a2.194,2.194,0,0,1,.21.59,4.566,4.566,0,0,0,1.35-.1c.26-.11.34-.28.34-.63Zm4.44,6.36-1.09.27V8.23h1.01V7.55H52.35V5.04h1.23V4.36H50.5v.68h1.16V7.55H50.64v.68h1.02v2.71c-.48.1-.92.21-1.27.28l.14.71c.85-.22,1.95-.48,2.99-.77Zm2.11-6.87h-.67V7.51A13.585,13.585,0,0,0,54,5.94l-.55.21a14.626,14.626,0,0,1,1.03,2.06l.4-.18c-.01,1.72-.26,3.19-1.94,4.22a2.869,2.869,0,0,1,.46.53c1.9-1.18,2.15-2.89,2.15-4.9Zm2.36,8.09V8.63h1.25V7.95H57.91V5.01h1.42V4.33H55.84v.68H57.2V7.95H56.02v.68H57.2v3.09H55.33v.7h4.21v-.7Z" transform="translate(804 1063)" fill="#aca4a4"/>
      <rect id="Rectangle_2136" data-name="Rectangle 2136" width="8" height="7" rx="2" transform="translate(667 1068)" fill="#4891f2"/>
      <rect id="Rectangle_2137" data-name="Rectangle 2137" width="13" height="1" rx="0.5" transform="translate(789 1071)" fill="#fff"/>
    </g>
  </g>
</svg>
