<svg xmlns="http://www.w3.org/2000/svg" width="330.231" height="238.513" viewBox="0 0 330.231 238.513">
  <g id="data2_m" transform="translate(8876.604 15609.513)">
    <g id="Group_1928" data-name="Group 1928" transform="translate(-4367 -636)">
      <g id="Group_1577" data-name="Group 1577" transform="translate(-4484.788 -14759.425)">
        <rect id="Rectangle_2063" data-name="Rectangle 2063" width="296" height="24" rx="12" transform="translate(-0.212 0.425)" fill="#3d3c3c"/>
        <path id="內文p" d="M9.39,7.25V6.49H5.26a23.22,23.22,0,0,0,.16-2.84h-.8a21.3,21.3,0,0,1-.15,2.84H.66v.76H4.35A6.492,6.492,0,0,1,.46,12.14a2.145,2.145,0,0,1,.56.61A7,7,0,0,0,5.01,7.8a8.073,8.073,0,0,0,3.98,4.95,3.825,3.825,0,0,1,.56-.7,7.29,7.29,0,0,1-3.93-4.8Zm6.78-.5a4.5,4.5,0,0,0-.72-.55,5.687,5.687,0,0,0,.58-.64l-.52-.17a3.571,3.571,0,0,1-.5.53c-.26-.14-.52-.29-.77-.4l-.37.33a7.351,7.351,0,0,1,.72.39,6.011,6.011,0,0,1-.95.55,2.58,2.58,0,0,1,.41.39,7.076,7.076,0,0,0,1-.65,5.453,5.453,0,0,1,.72.58Zm-.03-1.79c-.18-.14-.42-.3-.69-.47A5.136,5.136,0,0,0,16,3.88l-.52-.14a4.259,4.259,0,0,1-.47.49c-.26-.14-.51-.27-.75-.37l-.36.33a6.664,6.664,0,0,1,.7.36,6.027,6.027,0,0,1-.89.51,3.132,3.132,0,0,1,.42.36,6.948,6.948,0,0,0,.93-.6,4.949,4.949,0,0,1,.69.51Zm-4.65,2.8h7.03V9h.73V7.19h-.78c.08-.89.17-2.18.22-3.17H16.38v.51h1.59l-.03.54H16.43v.51h1.48l-.05.54H16.37v.51h1.45c-.02.2-.04.38-.06.56H12.28l-.04-.56h1.39V6.12H12.21l-.04-.54h1.42V5.07H12.14l-.04-.49a10.484,10.484,0,0,0,1.54-.39l-.33-.46a18.716,18.716,0,0,1-1.93.49l.2,2.97h-.8V9h.71Zm7.96,2.43h-4v-.18a10.421,10.421,0,0,0,2.26-1.24l-.45-.37-.15.04h-4.7V9h3.91a9.282,9.282,0,0,1-1.59.76v.43H10.56v.63h4.17v1.13c0,.14-.04.17-.21.18-.15,0-.71,0-1.33-.02a2.8,2.8,0,0,1,.26.63,5.984,5.984,0,0,0,1.61-.1c.31-.11.39-.28.39-.67V10.82h4Zm8.67-2.54a6.259,6.259,0,0,1-1.83,2.74,6.994,6.994,0,0,1-1.86-2.74ZM23.44,4.83h2.69c-.16.72-.36,1.5-.54,2.12H23.4c.03-.43.04-.84.04-1.22Zm5.14,2.08-.14.04H26.39c.22-.8.48-1.93.68-2.85H20.94v.73h1.75v.9a7.931,7.931,0,0,1-2.29,6.23,2.994,2.994,0,0,1,.54.63,7.845,7.845,0,0,0,2.4-4.94h.37a8.427,8.427,0,0,0,1.98,3.21,8.479,8.479,0,0,1-3,1.3,2.593,2.593,0,0,1,.42.68,9.368,9.368,0,0,0,3.17-1.46,7.714,7.714,0,0,0,2.81,1.39,3.223,3.223,0,0,1,.51-.7,7.816,7.816,0,0,1-2.7-1.19,7.369,7.369,0,0,0,2.2-3.74Zm7.59-.16a4.5,4.5,0,0,0-.72-.55,5.687,5.687,0,0,0,.58-.64l-.52-.17a3.571,3.571,0,0,1-.5.53c-.26-.14-.52-.29-.77-.4l-.37.33a7.351,7.351,0,0,1,.72.39,6.011,6.011,0,0,1-.95.55,2.58,2.58,0,0,1,.41.39,7.076,7.076,0,0,0,1-.65,5.453,5.453,0,0,1,.72.58Zm-.03-1.79c-.18-.14-.42-.3-.69-.47A5.136,5.136,0,0,0,36,3.88l-.52-.14a4.259,4.259,0,0,1-.47.49c-.26-.14-.51-.27-.75-.37l-.36.33a6.664,6.664,0,0,1,.7.36,6.027,6.027,0,0,1-.89.51,3.133,3.133,0,0,1,.42.36,6.948,6.948,0,0,0,.93-.6,4.949,4.949,0,0,1,.69.51Zm-4.65,2.8h7.03V9h.73V7.19h-.78c.08-.89.17-2.18.22-3.17H36.38v.51h1.59l-.03.54H36.43v.51h1.48l-.05.54H36.37v.51h1.45c-.02.2-.04.38-.06.56H32.28l-.04-.56h1.39V6.12H32.21l-.04-.54h1.42V5.07H32.14l-.04-.49a10.484,10.484,0,0,0,1.54-.39l-.33-.46a18.717,18.717,0,0,1-1.93.49l.2,2.97h-.8V9h.71Zm7.96,2.43h-4v-.18a10.42,10.42,0,0,0,2.26-1.24l-.45-.37-.15.04h-4.7V9h3.91a9.282,9.282,0,0,1-1.59.76v.43H30.56v.63h4.17v1.13c0,.14-.04.17-.21.18-.15,0-.71,0-1.33-.02a2.8,2.8,0,0,1,.26.63,5.984,5.984,0,0,0,1.61-.1c.31-.11.39-.28.39-.67V10.82h4Zm5.09-4.66h4.2V6.62h.71V4.88H46.96l.21-.08a6.787,6.787,0,0,0-.65-1.24l-.67.22a5.33,5.33,0,0,1,.54,1.1H43.85V6.62h.69ZM48.65,7.3V6.64h-4V7.3ZM43.2,4.01l-.12.03H40.82v8.71h.67V4.72h1.32c-.21.67-.51,1.53-.79,2.25a2.957,2.957,0,0,1,.89,2.01.867.867,0,0,1-.21.7.6.6,0,0,1-.31.09,2.875,2.875,0,0,1-.58-.01,1.506,1.506,0,0,1,.19.66,3.7,3.7,0,0,0,.67-.02.99.99,0,0,0,.52-.19,1.413,1.413,0,0,0,.39-1.16,3.106,3.106,0,0,0-.9-2.16c.34-.8.7-1.77,1-2.59ZM48.01,12c-.22,0-.26-.04-.26-.29V9.1h1.77V8.42H43.89V9.1h1.39c-.13,1.55-.53,2.53-2.25,3.07a2.232,2.232,0,0,1,.43.59c1.89-.66,2.37-1.83,2.54-3.66h1.05v2.62c0,.71.16.92.86.92h.88c.6,0,.79-.33.85-1.63a1.652,1.652,0,0,1-.64-.27c-.02,1.09-.06,1.26-.28,1.26Z" transform="translate(169.788 4.425)" fill="#aca4a4"/>
        <path id="內文p-2" data-name="內文p" d="M6.37,10.2v.93H3.52V10.2Zm.67-.56H2.83v2.54h.69v-.49H7.04ZM9.02,8.42H.99v4.34h.72V9.05H8.28v2.93c0,.12-.04.15-.17.16s-.58.01-1.01-.01a2.24,2.24,0,0,1,.24.55,4.5,4.5,0,0,0,1.32-.09c.27-.1.36-.25.36-.61ZM7.18,7.33H2.87v-.9H7.18ZM2.14,5.88v2h5.8v-2Zm3.39-1.2c-.11-.32-.26-.74-.4-1.08l-.72.17c.1.28.22.62.31.91H.63v.64H9.34V4.68Zm9.83,4.11V6.14h2.87V8.79Zm-3.63,0V6.14h2.86V8.79Zm3.63-3.38V3.63h-.77V5.41H11v4.73h.73V9.52h2.86v3.24h.77V9.52h2.87v.57h.76V5.41Zm13.91.54a7.948,7.948,0,0,0-.8-1.69l-.55.2a8.114,8.114,0,0,1,.77,1.72ZM26.71,4.71H25.63a9.427,9.427,0,0,0-.42-1.01l-.61.13c.12.27.24.6.34.88H23.71V5.3h3Zm-4.1,1.43H21.56V4.74h1.05ZM21.56,8.82h1.05v1.36c-.36.08-.72.16-1.05.23Zm1.05-.62H21.56V6.77h1.05Zm1.07-3.46V4.06H20.46v.68h.53v5.79c-.23.03-.44.08-.63.11l.15.64c.61-.15,1.35-.31,2.1-.49v1.98h.59V4.74Zm.84,6.05V9.85h1.42v.94Zm1.42-2.4v.92H24.52V8.39Zm2.89-.56a8.916,8.916,0,0,1-.84,1.91c-.1-.69-.18-1.53-.23-2.46h1.77V6.63H27.72c-.05-.93-.07-1.94-.08-2.99h-.65c.02,1.05.05,2.06.09,2.99H26.07c.11-.33.24-.75.36-1.13l-.62-.11a10.481,10.481,0,0,1-.29,1.24h-.71a8.617,8.617,0,0,0-.28-1.23l-.55.08a9.816,9.816,0,0,1,.24,1.15h-.68v.65h3.58a27.641,27.641,0,0,0,.34,3.25,7.9,7.9,0,0,1-.94,1.05V7.85H23.93v4.18h.59v-.7h1.42v.27h.56a6.491,6.491,0,0,1-.84.67,3.284,3.284,0,0,1,.43.4,8.148,8.148,0,0,0,1.55-1.41c.25.93.6,1.47,1.1,1.48.34.01.67-.39.86-1.89a2,2,0,0,1-.48-.37c-.07.91-.2,1.45-.36,1.45-.25-.01-.46-.49-.63-1.31a9.213,9.213,0,0,0,1.28-2.5Z" transform="translate(102.788 4.425)" fill="#aca4a4"/>
        <path id="內文p-3" data-name="內文p" d="M7.67,5.58A4.263,4.263,0,0,0,6.59,4.9l-.35.37a4.047,4.047,0,0,1,1.07.7ZM5,9.62c-1.12.2-2.23.4-2.99.52l.1.56c.82-.15,1.88-.36,2.92-.56Zm-.87-.88H2.98v-1H4.13ZM2.46,7.27V9.21H4.67V7.27ZM6.9,7.1a6.88,6.88,0,0,1-.74,1.84,14.573,14.573,0,0,1-.37-2.3H7.92V6.08H5.74c-.02-.35-.04-.7-.06-1.06H5.04c.02.36.05.71.08,1.06H2.11v.56H5.17A13.852,13.852,0,0,0,5.72,9.6a5.4,5.4,0,0,1-1.51,1.3,3.839,3.839,0,0,1,.44.47,6.271,6.271,0,0,0,1.32-1.15,1.632,1.632,0,0,0,1.04.97c.52.2.86-.2.99-1.29a1.871,1.871,0,0,1-.48-.33c-.07.64-.17,1.07-.31,1.03-.33-.05-.6-.39-.81-.92A7.761,7.761,0,0,0,7.51,7.23ZM1.56,11.66V4.77H8.42v6.89ZM.85,4.09v8.7h.71v-.46H8.42v.46h.73V4.09Zm14.51,4.7V6.14h2.87V8.79Zm-3.63,0V6.14h2.86V8.79Zm3.63-3.38V3.63h-.77V5.41H11v4.73h.73V9.52h2.86v3.24h.77V9.52h2.87v.57h.76V5.41Zm9.29-1.63v7.95c0,.2-.08.27-.29.27-.19.01-.91.02-1.64-.01a3.547,3.547,0,0,1,.31.77,6.94,6.94,0,0,0,1.91-.13c.35-.13.5-.35.5-.9V3.78ZM27.04,6.3a16.9,16.9,0,0,1,1.89,4.47l.78-.33a15.9,15.9,0,0,0-1.97-4.41Zm-5-.2a9.371,9.371,0,0,1-1.68,4.11,4.017,4.017,0,0,1,.7.39,11.216,11.216,0,0,0,1.8-4.35Z" transform="translate(35.788 4.425)" fill="#aca4a4"/>
        <text id="內文p-4" data-name="內文p" transform="translate(256.788 4.425)" fill="#aca4a4" font-size="10" font-family="SourceHanSansTW-Regular, Source Han Sans TW"><tspan x="0" y="12">教師</tspan></text>
        <line id="Line_56" data-name="Line 56" x2="18.909" transform="translate(146.152 12.212)" fill="none" stroke="#fff" stroke-linecap="round" stroke-width="4"/>
        <line id="Line_116" data-name="Line 116" x2="18.909" transform="translate(79.182 12.212)" fill="none" stroke="#1feac3" stroke-linecap="round" stroke-width="4"/>
        <line id="Line_117" data-name="Line 117" x2="18.909" transform="translate(12.212 12.212)" fill="none" stroke="#ff6cd7" stroke-linecap="round" stroke-width="4"/>
        <line id="Line_57" data-name="Line 57" x2="18.909" transform="translate(233.607 12.212)" fill="none" stroke="#356bd0" stroke-linecap="round" stroke-width="4"/>
      </g>
      <path id="內文p-5" data-name="內文p" d="M6.5,10.412V8.42H9.732v1.992Zm-3.8,0c.036-.444.048-.888.048-1.284V8.42H5.616v1.992ZM5.616,5.66V7.58H2.748V5.66ZM9.732,7.58H6.5V5.66H9.732Zm.876-2.772H1.872v4.32c0,1.668-.12,3.78-1.44,5.268a2.912,2.912,0,0,1,.684.588,6.89,6.89,0,0,0,1.5-3.72h3V14.8H6.5v-3.54H9.732V13.7c0,.228-.084.3-.324.312-.216,0-1.032.012-1.872-.024a3.527,3.527,0,0,1,.3.864,7.83,7.83,0,0,0,2.232-.144c.384-.156.54-.42.54-1ZM3.876,18.588A7.608,7.608,0,0,0,2.844,16.92l-.78.3a7,7,0,0,1,.972,1.7ZM2.664,21.42c.024-.528.036-1.092.048-1.656h2.76v-.828H.648v.828H1.836C1.8,23.016,1.692,25.68.408,27.228a2.309,2.309,0,0,1,.672.648c1.08-1.3,1.428-3.264,1.56-5.64H4.176c-.12,3.108-.252,4.248-.48,4.512a.34.34,0,0,1-.348.156c-.168,0-.5,0-.924-.036a2.036,2.036,0,0,1,.228.816,6.329,6.329,0,0,0,1.092-.012.819.819,0,0,0,.684-.372c.336-.432.468-1.716.612-5.472.012-.12.012-.408.012-.408Zm3.648,4.116a17.015,17.015,0,0,1,3.24,2.112l.6-.78a18.327,18.327,0,0,0-3.276-2ZM9.72,23.148a15.167,15.167,0,0,0-2.1-1.572l-.576.576a16.976,16.976,0,0,1,2.064,1.656ZM8.088,16.9a7.349,7.349,0,0,1-3,4.272,3.39,3.39,0,0,1,.624.708A7.793,7.793,0,0,0,8.3,18.684a9.194,9.194,0,0,0,2.664,3.12,3.507,3.507,0,0,1,.66-.732,8.281,8.281,0,0,1-2.94-3.264,6.061,6.061,0,0,0,.216-.66Zm-.372,16.12h2.1a13.673,13.673,0,0,1-1.044,3.792A16.508,16.508,0,0,1,7.716,33.016ZM3.432,31.984H4.644a11.888,11.888,0,0,1-.852,1.188h-.36Zm8.052,1.032v-.84H7.98A21.035,21.035,0,0,0,8.46,30.1l-.888-.144A12.84,12.84,0,0,1,5.7,35.1l-.42-.312-.168.048H3.36c.3-.276.576-.576.852-.876H6.3v-.792H4.848a13.255,13.255,0,0,0,1.5-2.688l-.828-.24a11.884,11.884,0,0,1-.852,1.7v-.732H3.432v-1.26H2.6v1.26H1.032v.768H2.6v1.188H.528v.792H3.06a10.282,10.282,0,0,1-2.616,1.9,8.273,8.273,0,0,1,.636.684,12.866,12.866,0,0,0,1.452-.984H4.4a7.658,7.658,0,0,1-1.368,1.068v.828c-.948.108-1.812.216-2.5.3l.108.816c.684-.084,1.5-.2,2.388-.324v1.716c0,.132-.036.168-.2.18s-.66.012-1.26-.012a3.423,3.423,0,0,1,.288.78,4.95,4.95,0,0,0,1.6-.132c.336-.132.432-.348.432-.8V38.14c.78-.12,1.572-.228,2.364-.336l-.012-.78c-.792.108-1.584.216-2.352.312v-.48A9.54,9.54,0,0,0,5.7,35.272a4.546,4.546,0,0,1,.648.564,8.39,8.39,0,0,0,.8-1.416,15.656,15.656,0,0,0,1.092,3.324,6.751,6.751,0,0,1-2.856,2.412,3.776,3.776,0,0,1,.54.8,8.01,8.01,0,0,0,2.8-2.328A6.519,6.519,0,0,0,10.956,40.9a2.916,2.916,0,0,1,.624-.756,5.906,5.906,0,0,1-2.316-2.352,13.661,13.661,0,0,0,1.464-4.776ZM3.9,49.928V51.98H1.812V49.928Zm-.108-4.4v1.764H1.812V45.524Zm-1.98,2.52H4.584V44.756H2.82c.216-.492.468-1.116.66-1.656l-.96-.144A13.653,13.653,0,0,1,2,44.756H1v8.8h.816v-.8H4.7V49.16H1.812ZM11.424,44.4v-.8H5.064v.8H7.8v1.476H5.508v6.252h.816V46.688H7.8V53.9h.84V46.688h1.6v4.488c0,.12-.036.168-.168.168s-.492,0-.924-.012a3.082,3.082,0,0,1,.24.78,3.391,3.391,0,0,0,1.332-.144c.276-.132.348-.384.348-.78V45.872H8.64V44.4ZM6.408,61.524H8.052l-.288.252a9.139,9.139,0,0,1,.912.372l-2.268.036Zm-3.7-.6V60.18H5.544v.744Zm0-2.04H5.544v.72H2.712Zm6.612,0v.72H6.408v-.72Zm0,2.04H6.408V60.18H9.324Zm2.088,2.592H8.556v-.768l1.188-.036a8.1,8.1,0,0,1,.684.48l.528-.5a9.805,9.805,0,0,0-2.148-1.164H10.2V58.272H6.408V57.6h4.524v-.72H6.408v-.9H5.544v.9H.948v.72h4.6v.672H1.872v3.252H5.544v.66c-1.716.024-3.288.036-4.476.036l.036.7c1.728-.024,4.128-.072,6.588-.144v.744H.6v.732H3.084l-.588.5a10.35,10.35,0,0,1,1.98,1.56l.636-.588a10,10,0,0,0-1.968-1.476H7.692V65.94c0,.156-.06.2-.24.216s-.864.012-1.6-.012a2.721,2.721,0,0,1,.288.768,6.948,6.948,0,0,0,1.932-.132c.384-.12.48-.36.48-.816V64.248h2.856ZM4.3,77.68A10.745,10.745,0,0,1,.744,78.868a3.239,3.239,0,0,1,.54.672,11.147,11.147,0,0,0,3.684-1.548Zm2.9.42c1.14.42,2.664,1.032,3.456,1.416l.552-.564c-.828-.384-2.352-.96-3.48-1.332Zm.708-6.264A9.387,9.387,0,0,1,7.2,73.024l.42.132H4.308l.492-.132a4.826,4.826,0,0,0-.636-1.188ZM6.42,76.324v-.9h3.756V74.74H6.42v-.864h4.344v-.72H8.016a13.206,13.206,0,0,0,.828-1.1l-.78-.216h3.12v-.744H9.336c.312-.456.708-1.116,1.044-1.728l-.912-.252a10.02,10.02,0,0,1-.924,1.824l.48.156H7.572V68.968H6.72v2.124H5.292V68.968h-.84v2.124H2.988l.6-.24a7.361,7.361,0,0,0-1.02-1.764l-.756.264a9.46,9.46,0,0,1,.96,1.74H.84v.744h3.1L3.3,72a5.125,5.125,0,0,1,.612,1.152H1.32v.72H5.544v.864H1.932v.684H5.544v.9H.8v.756h4.74v2.844H6.42V77.08h4.812v-.756ZM2.8,89.624V85.7H4v-.828H2.8V82.1H1.968v2.772H.7V85.7H1.968v4.224c-.54.192-1.02.372-1.428.492l.288.888c.96-.372,2.184-.864,3.324-1.332L4,89.18Zm6.636-.552v1h-3.5v-1Zm-3.5,2.556v-.9h3.5v.9ZM5.1,92.888h.828v-.564h3.5v.564h.852v-4.5H5.1ZM5.316,82.3a9.532,9.532,0,0,1,.84,1.392l.768-.372a5.828,5.828,0,0,0-.864-1.332Zm.276,2.568a6.314,6.314,0,0,1,.816,1.716l.54-.228a6.85,6.85,0,0,0-.84-1.68Zm3.132,1.74a18.4,18.4,0,0,0,1.092-1.7L9.2,84.68a10.556,10.556,0,0,1-.936,1.74Zm1.356.4H8.016V84.332H10.08ZM5.22,84.332h2.1v2.676H5.22ZM9.2,83.7c.324-.42.684-.948,1.008-1.44L9.3,81.932A10.844,10.844,0,0,1,8.28,83.7h-3.8v3.948h6.372V83.7Zm1,16.432a5.9,5.9,0,0,0,1.068-.072c-.036-.2-.072-.54-.1-.78a5.183,5.183,0,0,1-1,.072H7.968c-.384,0-.48-.144-.48-.576V97.416h3.228v-.792H7.488V94.968H6.612v3.78c0,1.008.288,1.38,1.344,1.38Zm-7.92.972a19.667,19.667,0,0,1,1.9,1.3l.48-.492a21.182,21.182,0,0,0-1.908-1.248Zm-.1-1.128H4.668V102.4c-.96.48-1.908.96-2.58,1.26a11.366,11.366,0,0,0,.1-1.512ZM5.52,99.2H1.356v2.928A5.323,5.323,0,0,1,.6,105.324a2.748,2.748,0,0,1,.612.624,4.681,4.681,0,0,0,.864-2.244l.312.72c.672-.384,1.488-.852,2.28-1.32v1.848c0,.156-.036.2-.2.2s-.648.012-1.224-.012a2.981,2.981,0,0,1,.288.744,4.664,4.664,0,0,0,1.572-.144c.324-.132.42-.336.42-.792Zm-1.488-3.1c.252.372.5.78.744,1.188l-2.46.168a15.872,15.872,0,0,0,1.668-2.208l-.888-.3a12.426,12.426,0,0,1-1.524,2.2,1.421,1.421,0,0,1-.636.468,5.827,5.827,0,0,1,.288.84c.276-.132.7-.18,3.948-.444.156.3.288.576.384.816l.768-.348a16.423,16.423,0,0,0-1.572-2.652Zm4.128,8.916c-.564,0-.672-.072-.672-.468v-1.8h3.36v-.8H7.488v-1.428H6.612v4.032c0,.984.3,1.26,1.464,1.26H10.2c1,0,1.26-.408,1.368-1.968a2.717,2.717,0,0,1-.792-.336c-.06,1.284-.144,1.512-.648,1.512Zm-3.744,8.164H1.9V110.68h2.52ZM1.9,116.86v-2.88h2.52v2.88ZM2.9,107.932a14.811,14.811,0,0,1-.48,1.944H1.08v8.736H1.9v-.948H5.232v-7.788H3.24c.2-.516.42-1.176.624-1.764Zm8.2,1.908H7.512a16.856,16.856,0,0,0,.516-1.728l-.852-.2a12.176,12.176,0,0,1-1.836,4.356,6.559,6.559,0,0,1,.732.5,10.1,10.1,0,0,0,1.128-2.1h3.048c-.156,4.776-.336,6.6-.732,7.02-.12.156-.252.18-.492.18-.276,0-1,0-1.776-.072a2.064,2.064,0,0,1,.3.876,12.646,12.646,0,0,0,1.776.012,1.194,1.194,0,0,0,.948-.48c.48-.588.636-2.436.828-7.908Zm-1.9,5.4a23.478,23.478,0,0,0-1.884-2.712l-.7.408a21.35,21.35,0,0,1,1.824,2.772Zm2.088,6.316H4.968v.816h6.324Zm-.072,5.424a13.854,13.854,0,0,0-1.44-2.04c.408-.6.888-1.356,1.236-1.968l-.792-.216a20.34,20.34,0,0,1-1.332,2.208,13.127,13.127,0,0,1,1.608,2.364Zm-3.048-4.212a20.167,20.167,0,0,1-1.3,2.184A10.771,10.771,0,0,1,8.364,127.3l.744-.336a16.107,16.107,0,0,0-1.356-2.04c.4-.588.864-1.356,1.2-1.956ZM7.02,127.016A14.431,14.431,0,0,0,5.7,124.94a22.739,22.739,0,0,0,1.188-1.98l-.78-.2c-.276.564-.792,1.476-1.26,2.208a12.1,12.1,0,0,1,1.428,2.364Zm-2.184.924a15.414,15.414,0,0,0-.78-2.46l-.684.192c.144.36.276.768.408,1.176l-1.884.24a23.9,23.9,0,0,0,2.664-3.864l-.768-.456a16.885,16.885,0,0,1-.864,1.6l-1.236.108a21.342,21.342,0,0,0,1.824-3.192l-.792-.324a16.6,16.6,0,0,1-1.584,3.012c-.252.372-.456.612-.66.66a7.922,7.922,0,0,1,.276.792,6.285,6.285,0,0,1,1.656-.276c-.432.636-.8,1.14-.984,1.356-.348.432-.624.732-.888.792a5.71,5.71,0,0,1,.288.828,14.728,14.728,0,0,1,3.144-.588,6.227,6.227,0,0,1,.132.648Zm-3.78.7a13.5,13.5,0,0,1-.576,2.8c.18.072.552.192.708.276a15.166,15.166,0,0,0,.612-2.952Zm1.224.084a21.173,21.173,0,0,1,.3,2.532l.72-.12a20.274,20.274,0,0,0-.336-2.52Zm1.164-.216a16.169,16.169,0,0,1,.588,2.028l.66-.228a13.334,13.334,0,0,0-.612-2ZM8.5,130.82v-2.28h2.436v-.8h-5.7v.8H7.62v2.28H4.56v.816h6.852v-.816ZM4.224,143.16a14.483,14.483,0,0,1-3.54,1.092,4.76,4.76,0,0,1,.636.672,17.217,17.217,0,0,0,3.708-1.4Zm-1.152-1.344h6v.756h-6Zm3.852-4.02v.828h.84V137.8H10.3a.778.778,0,0,1-.144.432c-.06.072-.144.084-.276.084s-.456-.012-.828-.048a1.338,1.338,0,0,1,.144.384H3.84a2.5,2.5,0,0,0,.852-.852Zm-2.688-1.308a2.119,2.119,0,0,1-.18.72H2.472q.054-.342.108-.72Zm.84-1.272H6.924v.684H5.076Zm4.548,0v.684H7.764v-.684Zm-2.7,1.992H4.932a2.824,2.824,0,0,0,.12-.72H6.924Zm2.148,2.76h-6v-.744h6Zm0,1.284h-6v-.732h6Zm.888,1.9v-4.272c.12,0,.228-.012.312-.012a.851.851,0,0,0,.576-.216c.168-.156.24-.5.312-1.152.012-.108.024-.288.024-.288H7.764v-.72H10.44v-1.86H7.764v-.66h-.84v.66H5.076v-.66H4.26v.66H1.332v.588H4.26v.684H1.872c-.072.624-.192,1.368-.3,1.9h2.04A5.872,5.872,0,0,1,.72,138.912a3.161,3.161,0,0,1,.42.7c.4-.084.756-.168,1.068-.264v3.8H7.524l-.444.432a29.225,29.225,0,0,1,3.528,1.284l.672-.552a32.506,32.506,0,0,0-3.372-1.164Z" transform="translate(-4191 -14947)" fill="#4891f2" opacity="0.85"/>
      <g id="Group_1627" data-name="Group 1627" transform="translate(-4510 -14976.007)">
        <g id="data_2-03" transform="translate(18.909 0)">
          <g id="Group_1601" data-name="Group 1601" transform="translate(269.253 0)">
            <g id="Group_1598" data-name="Group 1598" transform="translate(3.163 0)">
              <path id="Path_1754" data-name="Path 1754" d="M.374-3.177A5.9,5.9,0,0,1,.609-5.016a2.288,2.288,0,0,1,.7-1.074,1.786,1.786,0,0,1,1.167-.378,1.9,1.9,0,0,1,.91.209,1.739,1.739,0,0,1,.646.6,3.23,3.23,0,0,1,.4.958,6.365,6.365,0,0,1,.145,1.523,5.912,5.912,0,0,1-.233,1.83,2.288,2.288,0,0,1-.7,1.077A1.786,1.786,0,0,1,2.474.11,1.768,1.768,0,0,1,1.011-.558,4.245,4.245,0,0,1,.374-3.177Zm.813,0a4.04,4.04,0,0,0,.371,2.112,1.094,1.094,0,0,0,.916.525,1.093,1.093,0,0,0,.916-.527,4.041,4.041,0,0,0,.371-2.109A4.038,4.038,0,0,0,3.39-5.291a1.1,1.1,0,0,0-.925-.523,1.014,1.014,0,0,0-.87.461A4.086,4.086,0,0,0,1.187-3.177Z" transform="translate(0 194.018)" fill="#356bd0"/>
              <path id="Path_1753" data-name="Path 1753" d="M3.353,0H2.562V-5.041a4.088,4.088,0,0,1-.749.545,5.311,5.311,0,0,1-.833.409v-.765a4.777,4.777,0,0,0,1.16-.756,2.973,2.973,0,0,0,.7-.861h.51Zm9.242-2.043q0,.079-.075.079l-1.16-.018h-1.9l-1.169.018q-.075,0-.075-.079l.022-.7V-3.52l-.022-.7q0-.079.075-.079l1.169.018h1.9L12.52-4.3q.075,0,.075.079l-.018.7v.773Zm-.532-.343v-.558H8.741v.558Zm0-.954V-3.88H8.741v.541ZM7.809-7.216a.19.19,0,0,1-.075.123,1.246,1.246,0,0,0-.18.352A12.082,12.082,0,0,1,6.97-5.392V-.857L6.992.558q0,.062-.075.062H6.486A.054.054,0,0,1,6.425.558L6.442-.857V-3.142q0-.879.009-1.332a9.866,9.866,0,0,1-.839,1.138q-.062.07-.1.07t-.083-.1a1.1,1.1,0,0,0-.215-.343A9.711,9.711,0,0,0,7.044-6.877a2.1,2.1,0,0,0,.136-.6,3.548,3.548,0,0,1,.527.163Q7.809-7.269,7.809-7.216Zm5.7,2.373q0,.062-.075.062L12.173-4.8H8.96l-1.27.018q-.075,0-.075-.062v-.325q0-.07.075-.07l1.27.018h.3a3.97,3.97,0,0,0-.308-.655.135.135,0,0,1-.018-.053q0-.022.083-.048l.25-.079a.237.237,0,0,1,.07-.018q.031,0,.066.053a4.716,4.716,0,0,1,.352.8h1.358q.1-.215.215-.488a1.388,1.388,0,0,0,.092-.387,4.284,4.284,0,0,1,.5.119q.1.035.1.088t-.075.1a.516.516,0,0,0-.114.163q-.123.264-.207.4h.541l1.257-.018q.075,0,.075.07Zm-.453-1.441a.062.062,0,0,1-.07.07l-1.226-.018H9.347l-1.226.018a.062.062,0,0,1-.07-.07v-.325a.062.062,0,0,1,.07-.07l1.226.018h.791v-.211a3.033,3.033,0,0,0-.053-.633,3.724,3.724,0,0,1,.567.044q.11.018.11.066a.8.8,0,0,1-.057.145,1.231,1.231,0,0,0-.035.378v.211h1.085l1.226-.018a.062.062,0,0,1,.07.07ZM12.208-.4a1.31,1.31,0,0,1-.167.536.738.738,0,0,1-.255.22,3.14,3.14,0,0,1-1.252.163A4.049,4.049,0,0,1,9.5.426.544.544,0,0,1,9.11-.145V-.9a5.8,5.8,0,0,0-.035-.672,4.735,4.735,0,0,1,.532.053q.088.009.088.07a.3.3,0,0,1-.035.11,1.261,1.261,0,0,0-.044.413v.584q0,.294.233.347a4.919,4.919,0,0,0,.738.044,2.35,2.35,0,0,0,.9-.11q.224-.11.233-.712a1.357,1.357,0,0,0,.352.163q.145.04.145.114A.82.82,0,0,1,12.208-.4ZM8.525-1.169a4.92,4.92,0,0,1-.69,1.4Q7.8.277,7.77.277A.169.169,0,0,1,7.69.242L7.418.1q-.079-.04-.079-.07a.112.112,0,0,1,.026-.048A3.868,3.868,0,0,0,8.051-1.34q.013-.066.048-.066a.2.2,0,0,1,.075.022l.281.105q.075.026.075.066A.276.276,0,0,1,8.525-1.169Zm5.032.989a.117.117,0,0,1,.022.053q0,.031-.083.083L13.25.11a.217.217,0,0,1-.092.044Q13.126.154,13.1.1a6.449,6.449,0,0,0-.778-1.266.106.106,0,0,1-.026-.057q0-.026.075-.07l.224-.136a.258.258,0,0,1,.079-.031.1.1,0,0,1,.057.031A6.263,6.263,0,0,1,13.557-.18Zm-2.3-.844a.117.117,0,0,1,.022.053q0,.026-.066.079l-.2.154a.294.294,0,0,1-.114.07q-.018,0-.048-.044a3.733,3.733,0,0,0-.708-.809.072.072,0,0,1-.026-.044q0-.026.083-.083l.189-.123a.173.173,0,0,1,.083-.044.118.118,0,0,1,.062.031A5.025,5.025,0,0,1,11.254-1.024Z" transform="translate(0 157.554)" fill="#356bd0"/>
              <path id="Path_1752" data-name="Path 1752" d="M4.531-.76V0H.272A1.4,1.4,0,0,1,.365-.549a2.906,2.906,0,0,1,.521-.857A8.159,8.159,0,0,1,1.92-2.382,8.773,8.773,0,0,0,3.34-3.746,1.634,1.634,0,0,0,3.709-4.7a1.057,1.057,0,0,0-.336-.793A1.213,1.213,0,0,0,2.5-5.814a1.235,1.235,0,0,0-.914.343,1.3,1.3,0,0,0-.347.949L.422-4.605A2,2,0,0,1,1.05-5.992a2.144,2.144,0,0,1,1.463-.477,2.042,2.042,0,0,1,1.468.514A1.688,1.688,0,0,1,4.522-4.68a1.933,1.933,0,0,1-.158.76,2.95,2.95,0,0,1-.525.787A12.793,12.793,0,0,1,2.619-2q-.712.6-.914.811a2.6,2.6,0,0,0-.334.428Zm8.064-1.283q0,.079-.075.079l-1.16-.018h-1.9l-1.169.018q-.075,0-.075-.079l.022-.7V-3.52l-.022-.7q0-.079.075-.079l1.169.018h1.9L12.52-4.3q.075,0,.075.079l-.018.7v.773Zm-.532-.343v-.558H8.741v.558Zm0-.954V-3.88H8.741v.541ZM7.809-7.216a.19.19,0,0,1-.075.123,1.246,1.246,0,0,0-.18.352A12.082,12.082,0,0,1,6.97-5.392V-.857L6.992.558q0,.062-.075.062H6.486A.054.054,0,0,1,6.425.558L6.442-.857V-3.142q0-.879.009-1.332a9.866,9.866,0,0,1-.839,1.138q-.062.07-.1.07t-.083-.1a1.1,1.1,0,0,0-.215-.343A9.711,9.711,0,0,0,7.044-6.877a2.1,2.1,0,0,0,.136-.6,3.548,3.548,0,0,1,.527.163Q7.809-7.269,7.809-7.216Zm5.7,2.373q0,.062-.075.062L12.173-4.8H8.96l-1.27.018q-.075,0-.075-.062v-.325q0-.07.075-.07l1.27.018h.3a3.97,3.97,0,0,0-.308-.655.135.135,0,0,1-.018-.053q0-.022.083-.048l.25-.079a.237.237,0,0,1,.07-.018q.031,0,.066.053a4.716,4.716,0,0,1,.352.8h1.358q.1-.215.215-.488a1.388,1.388,0,0,0,.092-.387,4.284,4.284,0,0,1,.5.119q.1.035.1.088t-.075.1a.516.516,0,0,0-.114.163q-.123.264-.207.4h.541l1.257-.018q.075,0,.075.07Zm-.453-1.441a.062.062,0,0,1-.07.07l-1.226-.018H9.347l-1.226.018a.062.062,0,0,1-.07-.07v-.325a.062.062,0,0,1,.07-.07l1.226.018h.791v-.211a3.033,3.033,0,0,0-.053-.633,3.724,3.724,0,0,1,.567.044q.11.018.11.066a.8.8,0,0,1-.057.145,1.231,1.231,0,0,0-.035.378v.211h1.085l1.226-.018a.062.062,0,0,1,.07.07ZM12.208-.4a1.31,1.31,0,0,1-.167.536.738.738,0,0,1-.255.22,3.14,3.14,0,0,1-1.252.163A4.049,4.049,0,0,1,9.5.426.544.544,0,0,1,9.11-.145V-.9a5.8,5.8,0,0,0-.035-.672,4.735,4.735,0,0,1,.532.053q.088.009.088.07a.3.3,0,0,1-.035.11,1.261,1.261,0,0,0-.044.413v.584q0,.294.233.347a4.919,4.919,0,0,0,.738.044,2.35,2.35,0,0,0,.9-.11q.224-.11.233-.712a1.357,1.357,0,0,0,.352.163q.145.04.145.114A.82.82,0,0,1,12.208-.4ZM8.525-1.169a4.92,4.92,0,0,1-.69,1.4Q7.8.277,7.77.277A.169.169,0,0,1,7.69.242L7.418.1q-.079-.04-.079-.07a.112.112,0,0,1,.026-.048A3.868,3.868,0,0,0,8.051-1.34q.013-.066.048-.066a.2.2,0,0,1,.075.022l.281.105q.075.026.075.066A.276.276,0,0,1,8.525-1.169Zm5.032.989a.117.117,0,0,1,.022.053q0,.031-.083.083L13.25.11a.217.217,0,0,1-.092.044Q13.126.154,13.1.1a6.449,6.449,0,0,0-.778-1.266.106.106,0,0,1-.026-.057q0-.026.075-.07l.224-.136a.258.258,0,0,1,.079-.031.1.1,0,0,1,.057.031A6.263,6.263,0,0,1,13.557-.18Zm-2.3-.844a.117.117,0,0,1,.022.053q0,.026-.066.079l-.2.154a.294.294,0,0,1-.114.07q-.018,0-.048-.044a3.733,3.733,0,0,0-.708-.809.072.072,0,0,1-.026-.044q0-.026.083-.083l.189-.123a.173.173,0,0,1,.083-.044.118.118,0,0,1,.062.031A5.025,5.025,0,0,1,11.254-1.024Z" transform="translate(0 120.665)" fill="#356bd0"/>
              <path id="Path_1751" data-name="Path 1751" d="M.378-1.7l.791-.105a1.743,1.743,0,0,0,.464.969,1.145,1.145,0,0,0,.8.3,1.278,1.278,0,0,0,.943-.387,1.3,1.3,0,0,0,.385-.958,1.214,1.214,0,0,0-.356-.9A1.23,1.23,0,0,0,2.5-3.138a2.271,2.271,0,0,0-.558.088l.088-.694a1.209,1.209,0,0,0,.127.009A1.629,1.629,0,0,0,3.063-4a.9.9,0,0,0,.4-.813.962.962,0,0,0-.294-.721,1.046,1.046,0,0,0-.76-.286,1.077,1.077,0,0,0-.769.29,1.456,1.456,0,0,0-.4.87L.457-4.8a2.033,2.033,0,0,1,.659-1.233A1.906,1.906,0,0,1,2.4-6.469a2.107,2.107,0,0,1,.971.226,1.637,1.637,0,0,1,.679.617,1.586,1.586,0,0,1,.235.831,1.36,1.36,0,0,1-.224.76,1.53,1.53,0,0,1-.664.545,1.5,1.5,0,0,1,.888.547A1.665,1.665,0,0,1,4.6-1.9a1.9,1.9,0,0,1-.615,1.43A2.164,2.164,0,0,1,2.426.114,2.024,2.024,0,0,1,1.017-.391,1.954,1.954,0,0,1,.378-1.7Zm12.217-.343q0,.079-.075.079l-1.16-.018h-1.9l-1.169.018q-.075,0-.075-.079l.022-.7V-3.52l-.022-.7q0-.079.075-.079l1.169.018h1.9L12.52-4.3q.075,0,.075.079l-.018.7v.773Zm-.532-.343v-.558H8.741v.558Zm0-.954V-3.88H8.741v.541ZM7.809-7.216a.19.19,0,0,1-.075.123,1.246,1.246,0,0,0-.18.352A12.082,12.082,0,0,1,6.97-5.392V-.857L6.992.558q0,.062-.075.062H6.486A.054.054,0,0,1,6.425.558L6.442-.857V-3.142q0-.879.009-1.332a9.866,9.866,0,0,1-.839,1.138q-.062.07-.1.07t-.083-.1a1.1,1.1,0,0,0-.215-.343A9.711,9.711,0,0,0,7.044-6.877a2.1,2.1,0,0,0,.136-.6,3.548,3.548,0,0,1,.527.163Q7.809-7.269,7.809-7.216Zm5.7,2.373q0,.062-.075.062L12.173-4.8H8.96l-1.27.018q-.075,0-.075-.062v-.325q0-.07.075-.07l1.27.018h.3a3.97,3.97,0,0,0-.308-.655.135.135,0,0,1-.018-.053q0-.022.083-.048l.25-.079a.237.237,0,0,1,.07-.018q.031,0,.066.053a4.716,4.716,0,0,1,.352.8h1.358q.1-.215.215-.488a1.388,1.388,0,0,0,.092-.387,4.284,4.284,0,0,1,.5.119q.1.035.1.088t-.075.1a.516.516,0,0,0-.114.163q-.123.264-.207.4h.541l1.257-.018q.075,0,.075.07Zm-.453-1.441a.062.062,0,0,1-.07.07l-1.226-.018H9.347l-1.226.018a.062.062,0,0,1-.07-.07v-.325a.062.062,0,0,1,.07-.07l1.226.018h.791v-.211a3.033,3.033,0,0,0-.053-.633,3.724,3.724,0,0,1,.567.044q.11.018.11.066a.8.8,0,0,1-.057.145,1.231,1.231,0,0,0-.035.378v.211h1.085l1.226-.018a.062.062,0,0,1,.07.07ZM12.208-.4a1.31,1.31,0,0,1-.167.536.738.738,0,0,1-.255.22,3.14,3.14,0,0,1-1.252.163A4.049,4.049,0,0,1,9.5.426.544.544,0,0,1,9.11-.145V-.9a5.8,5.8,0,0,0-.035-.672,4.735,4.735,0,0,1,.532.053q.088.009.088.07a.3.3,0,0,1-.035.11,1.261,1.261,0,0,0-.044.413v.584q0,.294.233.347a4.919,4.919,0,0,0,.738.044,2.35,2.35,0,0,0,.9-.11q.224-.11.233-.712a1.357,1.357,0,0,0,.352.163q.145.04.145.114A.82.82,0,0,1,12.208-.4ZM8.525-1.169a4.92,4.92,0,0,1-.69,1.4Q7.8.277,7.77.277A.169.169,0,0,1,7.69.242L7.418.1q-.079-.04-.079-.07a.112.112,0,0,1,.026-.048A3.868,3.868,0,0,0,8.051-1.34q.013-.066.048-.066a.2.2,0,0,1,.075.022l.281.105q.075.026.075.066A.276.276,0,0,1,8.525-1.169Zm5.032.989a.117.117,0,0,1,.022.053q0,.031-.083.083L13.25.11a.217.217,0,0,1-.092.044Q13.126.154,13.1.1a6.449,6.449,0,0,0-.778-1.266.106.106,0,0,1-.026-.057q0-.026.075-.07l.224-.136a.258.258,0,0,1,.079-.031.1.1,0,0,1,.057.031A6.263,6.263,0,0,1,13.557-.18Zm-2.3-.844a.117.117,0,0,1,.022.053q0,.026-.066.079l-.2.154a.294.294,0,0,1-.114.07q-.018,0-.048-.044a3.733,3.733,0,0,0-.708-.809.072.072,0,0,1-.026-.044q0-.026.083-.083l.189-.123a.173.173,0,0,1,.083-.044.118.118,0,0,1,.062.031A5.025,5.025,0,0,1,11.254-1.024Z" transform="translate(0 83.777)" fill="#356bd0"/>
              <path id="Path_1750" data-name="Path 1750" d="M2.909,0V-1.542H.114v-.725l2.94-4.175H3.7v4.175h.87v.725H3.7V0Zm0-2.268v-2.9L.892-2.268Zm9.686.224q0,.079-.075.079l-1.16-.018h-1.9l-1.169.018q-.075,0-.075-.079l.022-.7V-3.52l-.022-.7q0-.079.075-.079l1.169.018h1.9L12.52-4.3q.075,0,.075.079l-.018.7v.773Zm-.532-.343v-.558H8.741v.558Zm0-.954V-3.88H8.741v.541ZM7.809-7.216a.19.19,0,0,1-.075.123,1.246,1.246,0,0,0-.18.352A12.082,12.082,0,0,1,6.97-5.392V-.857L6.992.558q0,.062-.075.062H6.486A.054.054,0,0,1,6.425.558L6.442-.857V-3.142q0-.879.009-1.332a9.866,9.866,0,0,1-.839,1.138q-.062.07-.1.07t-.083-.1a1.1,1.1,0,0,0-.215-.343A9.711,9.711,0,0,0,7.044-6.877a2.1,2.1,0,0,0,.136-.6,3.548,3.548,0,0,1,.527.163Q7.809-7.269,7.809-7.216Zm5.7,2.373q0,.062-.075.062L12.173-4.8H8.96l-1.27.018q-.075,0-.075-.062v-.325q0-.07.075-.07l1.27.018h.3a3.97,3.97,0,0,0-.308-.655.135.135,0,0,1-.018-.053q0-.022.083-.048l.25-.079a.237.237,0,0,1,.07-.018q.031,0,.066.053a4.716,4.716,0,0,1,.352.8h1.358q.1-.215.215-.488a1.388,1.388,0,0,0,.092-.387,4.284,4.284,0,0,1,.5.119q.1.035.1.088t-.075.1a.516.516,0,0,0-.114.163q-.123.264-.207.4h.541l1.257-.018q.075,0,.075.07Zm-.453-1.441a.062.062,0,0,1-.07.07l-1.226-.018H9.347l-1.226.018a.062.062,0,0,1-.07-.07v-.325a.062.062,0,0,1,.07-.07l1.226.018h.791v-.211a3.033,3.033,0,0,0-.053-.633,3.724,3.724,0,0,1,.567.044q.11.018.11.066a.8.8,0,0,1-.057.145,1.231,1.231,0,0,0-.035.378v.211h1.085l1.226-.018a.062.062,0,0,1,.07.07ZM12.208-.4a1.31,1.31,0,0,1-.167.536.738.738,0,0,1-.255.22,3.14,3.14,0,0,1-1.252.163A4.049,4.049,0,0,1,9.5.426.544.544,0,0,1,9.11-.145V-.9a5.8,5.8,0,0,0-.035-.672,4.735,4.735,0,0,1,.532.053q.088.009.088.07a.3.3,0,0,1-.035.11,1.261,1.261,0,0,0-.044.413v.584q0,.294.233.347a4.919,4.919,0,0,0,.738.044,2.35,2.35,0,0,0,.9-.11q.224-.11.233-.712a1.357,1.357,0,0,0,.352.163q.145.04.145.114A.82.82,0,0,1,12.208-.4ZM8.525-1.169a4.92,4.92,0,0,1-.69,1.4Q7.8.277,7.77.277A.169.169,0,0,1,7.69.242L7.418.1q-.079-.04-.079-.07a.112.112,0,0,1,.026-.048A3.868,3.868,0,0,0,8.051-1.34q.013-.066.048-.066a.2.2,0,0,1,.075.022l.281.105q.075.026.075.066A.276.276,0,0,1,8.525-1.169Zm5.032.989a.117.117,0,0,1,.022.053q0,.031-.083.083L13.25.11a.217.217,0,0,1-.092.044Q13.126.154,13.1.1a6.449,6.449,0,0,0-.778-1.266.106.106,0,0,1-.026-.057q0-.026.075-.07l.224-.136a.258.258,0,0,1,.079-.031.1.1,0,0,1,.057.031A6.263,6.263,0,0,1,13.557-.18Zm-2.3-.844a.117.117,0,0,1,.022.053q0,.026-.066.079l-.2.154a.294.294,0,0,1-.114.07q-.018,0-.048-.044a3.733,3.733,0,0,0-.708-.809.072.072,0,0,1-.026-.044q0-.026.083-.083l.189-.123a.173.173,0,0,1,.083-.044.118.118,0,0,1,.062.031A5.025,5.025,0,0,1,11.254-1.024Z" transform="translate(0 46.889)" fill="#356bd0"/>
              <path id="Path_1749" data-name="Path 1749" d="M.374-1.687l.831-.07a1.489,1.489,0,0,0,.428.912,1.163,1.163,0,0,0,.811.305A1.263,1.263,0,0,0,3.41-.971a1.623,1.623,0,0,0,.4-1.143,1.467,1.467,0,0,0-.38-1.068,1.326,1.326,0,0,0-1-.391,1.379,1.379,0,0,0-.69.174,1.34,1.34,0,0,0-.483.45l-.743-.1.624-3.309h3.2V-5.6H1.771L1.424-3.867a2.1,2.1,0,0,1,1.217-.4,1.928,1.928,0,0,1,1.424.584,2.043,2.043,0,0,1,.58,1.5,2.346,2.346,0,0,1-.51,1.512A2.042,2.042,0,0,1,2.443.11,2.084,2.084,0,0,1,1.009-.382,1.921,1.921,0,0,1,.374-1.687Zm12.221-.356q0,.079-.075.079l-1.16-.018h-1.9l-1.169.018q-.075,0-.075-.079l.022-.7V-3.52l-.022-.7q0-.079.075-.079l1.169.018h1.9L12.52-4.3q.075,0,.075.079l-.018.7v.773Zm-.532-.343v-.558H8.741v.558Zm0-.954V-3.88H8.741v.541ZM7.809-7.216a.19.19,0,0,1-.075.123,1.246,1.246,0,0,0-.18.352A12.082,12.082,0,0,1,6.97-5.392V-.857L6.992.558q0,.062-.075.062H6.486A.054.054,0,0,1,6.425.558L6.442-.857V-3.142q0-.879.009-1.332a9.866,9.866,0,0,1-.839,1.138q-.062.07-.1.07t-.083-.1a1.1,1.1,0,0,0-.215-.343A9.711,9.711,0,0,0,7.044-6.877a2.1,2.1,0,0,0,.136-.6,3.548,3.548,0,0,1,.527.163Q7.809-7.269,7.809-7.216Zm5.7,2.373q0,.062-.075.062L12.173-4.8H8.96l-1.27.018q-.075,0-.075-.062v-.325q0-.07.075-.07l1.27.018h.3a3.97,3.97,0,0,0-.308-.655.135.135,0,0,1-.018-.053q0-.022.083-.048l.25-.079a.237.237,0,0,1,.07-.018q.031,0,.066.053a4.716,4.716,0,0,1,.352.8h1.358q.1-.215.215-.488a1.388,1.388,0,0,0,.092-.387,4.284,4.284,0,0,1,.5.119q.1.035.1.088t-.075.1a.516.516,0,0,0-.114.163q-.123.264-.207.4h.541l1.257-.018q.075,0,.075.07Zm-.453-1.441a.062.062,0,0,1-.07.07l-1.226-.018H9.347l-1.226.018a.062.062,0,0,1-.07-.07v-.325a.062.062,0,0,1,.07-.07l1.226.018h.791v-.211a3.033,3.033,0,0,0-.053-.633,3.724,3.724,0,0,1,.567.044q.11.018.11.066a.8.8,0,0,1-.057.145,1.231,1.231,0,0,0-.035.378v.211h1.085l1.226-.018a.062.062,0,0,1,.07.07ZM12.208-.4a1.31,1.31,0,0,1-.167.536.738.738,0,0,1-.255.22,3.14,3.14,0,0,1-1.252.163A4.049,4.049,0,0,1,9.5.426.544.544,0,0,1,9.11-.145V-.9a5.8,5.8,0,0,0-.035-.672,4.735,4.735,0,0,1,.532.053q.088.009.088.07a.3.3,0,0,1-.035.11,1.261,1.261,0,0,0-.044.413v.584q0,.294.233.347a4.919,4.919,0,0,0,.738.044,2.35,2.35,0,0,0,.9-.11q.224-.11.233-.712a1.357,1.357,0,0,0,.352.163q.145.04.145.114A.82.82,0,0,1,12.208-.4ZM8.525-1.169a4.92,4.92,0,0,1-.69,1.4Q7.8.277,7.77.277A.169.169,0,0,1,7.69.242L7.418.1q-.079-.04-.079-.07a.112.112,0,0,1,.026-.048A3.868,3.868,0,0,0,8.051-1.34q.013-.066.048-.066a.2.2,0,0,1,.075.022l.281.105q.075.026.075.066A.276.276,0,0,1,8.525-1.169Zm5.032.989a.117.117,0,0,1,.022.053q0,.031-.083.083L13.25.11a.217.217,0,0,1-.092.044Q13.126.154,13.1.1a6.449,6.449,0,0,0-.778-1.266.106.106,0,0,1-.026-.057q0-.026.075-.07l.224-.136a.258.258,0,0,1,.079-.031.1.1,0,0,1,.057.031A6.263,6.263,0,0,1,13.557-.18Zm-2.3-.844a.117.117,0,0,1,.022.053q0,.026-.066.079l-.2.154a.294.294,0,0,1-.114.07q-.018,0-.048-.044a3.733,3.733,0,0,0-.708-.809.072.072,0,0,1-.026-.044q0-.026.083-.083l.189-.123a.173.173,0,0,1,.083-.044.118.118,0,0,1,.062.031A5.025,5.025,0,0,1,11.254-1.024Z" transform="translate(0 10)" fill="#356bd0"/>
            </g>
            <line id="Line_86" data-name="Line 86" y1="184.478" transform="translate(0 7.419)" fill="none" stroke="#356bd0" stroke-miterlimit="10" stroke-width="1"/>
          </g>
          <g id="Group_1604" data-name="Group 1604" transform="translate(33.879 14.831)">
            <g id="Group_1603" data-name="Group 1603" transform="translate(0)">
              <g id="Group_1602" data-name="Group 1602">
                <rect id="Rectangle_2109" data-name="Rectangle 2109" width="24.295" height="95.886" transform="translate(0 81.121)" fill="#356bd0"/>
                <rect id="Rectangle_2110" data-name="Rectangle 2110" width="24.295" height="154.948" transform="translate(40.182 22.119)" fill="#356bd0"/>
                <rect id="Rectangle_2111" data-name="Rectangle 2111" width="24.295" height="143.888" transform="translate(80.364 33.178)" fill="#356bd0"/>
                <rect id="Rectangle_2112" data-name="Rectangle 2112" width="24.295" height="154.948" transform="translate(121.334 22.119)" fill="#356bd0"/>
                <rect id="Rectangle_2113" data-name="Rectangle 2113" width="24.295" height="177.066" transform="translate(161.516)" fill="#356bd0"/>
                <rect id="Rectangle_2114" data-name="Rectangle 2114" width="24.295" height="143.888" transform="translate(201.698 33.178)" fill="#356bd0"/>
              </g>
            </g>
          </g>
          <g id="Group_1626" data-name="Group 1626" transform="translate(0 0.793)">
            <g id="Group_1607" data-name="Group 1607" transform="translate(25.519 191.104)">
              <line id="Line_93" data-name="Line 93" x2="242.964" fill="none" stroke="#55585f" stroke-miterlimit="10" stroke-width="1"/>
            </g>
            <g id="Group_1611" data-name="Group 1611" transform="translate(0 0)">
              <g id="Group_1608" data-name="Group 1608" transform="translate(0)">
                <path id="Path_1748" data-name="Path 1748" d="M3.353,0H2.562V-5.041a4.088,4.088,0,0,1-.749.545,5.311,5.311,0,0,1-.833.409v-.765a4.777,4.777,0,0,0,1.16-.756,2.973,2.973,0,0,0,.7-.861h.51ZM5.379-3.177a5.9,5.9,0,0,1,.235-1.839,2.288,2.288,0,0,1,.7-1.074,1.786,1.786,0,0,1,1.167-.378,1.9,1.9,0,0,1,.91.209,1.739,1.739,0,0,1,.646.6,3.23,3.23,0,0,1,.4.958A6.365,6.365,0,0,1,9.58-3.177a5.912,5.912,0,0,1-.233,1.83,2.288,2.288,0,0,1-.7,1.077A1.786,1.786,0,0,1,7.479.11,1.768,1.768,0,0,1,6.016-.558,4.245,4.245,0,0,1,5.379-3.177Zm.813,0a4.04,4.04,0,0,0,.371,2.112,1.094,1.094,0,0,0,.916.525A1.093,1.093,0,0,0,8.4-1.068a4.041,4.041,0,0,0,.371-2.109A4.038,4.038,0,0,0,8.4-5.291a1.1,1.1,0,0,0-.925-.523,1.014,1.014,0,0,0-.87.461A4.086,4.086,0,0,0,6.192-3.177ZM17.9-.189A.66.66,0,0,1,17.7.378.766.766,0,0,1,17.376.5a4.775,4.775,0,0,1-.65.031.229.229,0,0,1-.141-.026A.349.349,0,0,1,16.519.36a1.6,1.6,0,0,0-.163-.352,6.376,6.376,0,0,0,.668.035A.392.392,0,0,0,17.3-.031a.328.328,0,0,0,.07-.237V-1.907H14.682v.945q.681-.079,1.187-.163-.224-.325-.25-.36a.12.12,0,0,1-.031-.057q0-.031.083-.066l.189-.083a.283.283,0,0,1,.075-.022q.026,0,.062.048a6.833,6.833,0,0,1,.721,1.178.216.216,0,0,1,.013.053q0,.035-.083.075l-.2.1a.276.276,0,0,1-.1.035q-.031,0-.053-.053-.171-.378-.215-.47-1.305.229-3.12.4a1.134,1.134,0,0,0-.387.083.213.213,0,0,1-.105.053q-.062,0-.1-.119-.053-.189-.114-.5.193,0,.356,0,.308,0,.624-.022.826-.062.962-.075v-.989H11.65V-.316l.018.857a.062.062,0,0,1-.07.07H11.18a.062.062,0,0,1-.07-.07l.018-.857V-1.459l-.018-.835a.062.062,0,0,1,.07-.07l1.27.018h1.745V-3h-.989l-1.235.018a.062.062,0,0,1-.07-.07l.018-.756v-.91L11.9-5.471a.062.062,0,0,1,.07-.07l1.235.018H15.8l1.244-.018a.062.062,0,0,1,.07.07l-.018.756v.91l.018.756a.062.062,0,0,1-.07.07L15.8-3H14.682v.65h1.881l1.27-.018a.062.062,0,0,1,.07.07l-.018.883v.369Zm-1.314-3.2v-.7H14.682v.7Zm-2.4,0v-.7H12.423v.7Zm2.4-1.09v-.646H14.682v.646Zm-2.4,0v-.646H12.423v.646Zm4.241-1.846q0,.07-.075.07l-1.178-.018H16l.018.413q0,.075-.07.075h-.391q-.079,0-.079-.075,0-.013.009-.141t.009-.272H13.421l.018.413q0,.075-.07.075h-.4a.066.066,0,0,1-.075-.075q0-.013.009-.141t.009-.272H11.848l-1.182.018a.062.062,0,0,1-.07-.07v-.36q0-.062.07-.062l1.182.018h1.068a3.937,3.937,0,0,0-.053-.738q.272.013.558.048.092.013.092.079a.239.239,0,0,1-.035.119,1.285,1.285,0,0,0-.057.492H15.5a3.875,3.875,0,0,0-.053-.729q.294.018.549.048.1.013.1.079a.239.239,0,0,1-.035.119A1.347,1.347,0,0,0,16-6.732h1.178L18.36-6.75q.075,0,.075.062Z" transform="translate(0 193.649)" fill="#fff"/>
                <path id="Path_1747" data-name="Path 1747" d="M3.353,0H2.562V-5.041a4.088,4.088,0,0,1-.749.545,5.311,5.311,0,0,1-.833.409v-.765a4.777,4.777,0,0,0,1.16-.756,2.973,2.973,0,0,0,.7-.861h.51ZM5.379-1.687l.831-.07a1.489,1.489,0,0,0,.428.912,1.163,1.163,0,0,0,.811.305,1.263,1.263,0,0,0,.967-.431,1.623,1.623,0,0,0,.4-1.143,1.467,1.467,0,0,0-.38-1.068,1.326,1.326,0,0,0-1-.391,1.379,1.379,0,0,0-.69.174,1.34,1.34,0,0,0-.483.45l-.743-.1.624-3.309h3.2V-5.6H6.776L6.429-3.867a2.1,2.1,0,0,1,1.217-.4,1.928,1.928,0,0,1,1.424.584,2.043,2.043,0,0,1,.58,1.5,2.346,2.346,0,0,1-.51,1.512A2.042,2.042,0,0,1,7.449.11,2.084,2.084,0,0,1,6.014-.382,1.921,1.921,0,0,1,5.379-1.687ZM17.9-.189A.66.66,0,0,1,17.7.378.766.766,0,0,1,17.376.5a4.775,4.775,0,0,1-.65.031.229.229,0,0,1-.141-.026A.349.349,0,0,1,16.519.36a1.6,1.6,0,0,0-.163-.352,6.376,6.376,0,0,0,.668.035A.392.392,0,0,0,17.3-.031a.328.328,0,0,0,.07-.237V-1.907H14.682v.945q.681-.079,1.187-.163-.224-.325-.25-.36a.12.12,0,0,1-.031-.057q0-.031.083-.066l.189-.083a.283.283,0,0,1,.075-.022q.026,0,.062.048a6.833,6.833,0,0,1,.721,1.178.216.216,0,0,1,.013.053q0,.035-.083.075l-.2.1a.276.276,0,0,1-.1.035q-.031,0-.053-.053-.171-.378-.215-.47-1.305.229-3.12.4a1.134,1.134,0,0,0-.387.083.213.213,0,0,1-.105.053q-.062,0-.1-.119-.053-.189-.114-.5.193,0,.356,0,.308,0,.624-.022.826-.062.962-.075v-.989H11.65V-.316l.018.857a.062.062,0,0,1-.07.07H11.18a.062.062,0,0,1-.07-.07l.018-.857V-1.459l-.018-.835a.062.062,0,0,1,.07-.07l1.27.018h1.745V-3h-.989l-1.235.018a.062.062,0,0,1-.07-.07l.018-.756v-.91L11.9-5.471a.062.062,0,0,1,.07-.07l1.235.018H15.8l1.244-.018a.062.062,0,0,1,.07.07l-.018.756v.91l.018.756a.062.062,0,0,1-.07.07L15.8-3H14.682v.65h1.881l1.27-.018a.062.062,0,0,1,.07.07l-.018.883v.369Zm-1.314-3.2v-.7H14.682v.7Zm-2.4,0v-.7H12.423v.7Zm2.4-1.09v-.646H14.682v.646Zm-2.4,0v-.646H12.423v.646Zm4.241-1.846q0,.07-.075.07l-1.178-.018H16l.018.413q0,.075-.07.075h-.391q-.079,0-.079-.075,0-.013.009-.141t.009-.272H13.421l.018.413q0,.075-.07.075h-.4a.066.066,0,0,1-.075-.075q0-.013.009-.141t.009-.272H11.848l-1.182.018a.062.062,0,0,1-.07-.07v-.36q0-.062.07-.062l1.182.018h1.068a3.937,3.937,0,0,0-.053-.738q.272.013.558.048.092.013.092.079a.239.239,0,0,1-.035.119,1.285,1.285,0,0,0-.057.492H15.5a3.875,3.875,0,0,0-.053-.729q.294.018.549.048.1.013.1.079a.239.239,0,0,1-.035.119A1.347,1.347,0,0,0,16-6.732h1.178L18.36-6.75q.075,0,.075.062Z" transform="translate(0 101.428)" fill="#fff"/>
                <path id="Path_1746" data-name="Path 1746" d="M4.531-.76V0H.272A1.4,1.4,0,0,1,.365-.549a2.906,2.906,0,0,1,.521-.857A8.159,8.159,0,0,1,1.92-2.382,8.773,8.773,0,0,0,3.34-3.746,1.634,1.634,0,0,0,3.709-4.7a1.057,1.057,0,0,0-.336-.793A1.213,1.213,0,0,0,2.5-5.814a1.235,1.235,0,0,0-.914.343,1.3,1.3,0,0,0-.347.949L.422-4.605A2,2,0,0,1,1.05-5.992a2.144,2.144,0,0,1,1.463-.477,2.042,2.042,0,0,1,1.468.514A1.688,1.688,0,0,1,4.522-4.68a1.933,1.933,0,0,1-.158.76,2.95,2.95,0,0,1-.525.787A12.793,12.793,0,0,1,2.619-2q-.712.6-.914.811a2.6,2.6,0,0,0-.334.428Zm.848-2.417a5.9,5.9,0,0,1,.235-1.839,2.288,2.288,0,0,1,.7-1.074,1.786,1.786,0,0,1,1.167-.378,1.9,1.9,0,0,1,.91.209,1.739,1.739,0,0,1,.646.6,3.23,3.23,0,0,1,.4.958A6.365,6.365,0,0,1,9.58-3.177a5.912,5.912,0,0,1-.233,1.83,2.288,2.288,0,0,1-.7,1.077A1.786,1.786,0,0,1,7.479.11,1.768,1.768,0,0,1,6.016-.558,4.245,4.245,0,0,1,5.379-3.177Zm.813,0a4.04,4.04,0,0,0,.371,2.112,1.094,1.094,0,0,0,.916.525A1.093,1.093,0,0,0,8.4-1.068a4.041,4.041,0,0,0,.371-2.109A4.038,4.038,0,0,0,8.4-5.291a1.1,1.1,0,0,0-.925-.523,1.014,1.014,0,0,0-.87.461A4.086,4.086,0,0,0,6.192-3.177ZM17.9-.189A.66.66,0,0,1,17.7.378.766.766,0,0,1,17.376.5a4.775,4.775,0,0,1-.65.031.229.229,0,0,1-.141-.026A.349.349,0,0,1,16.519.36a1.6,1.6,0,0,0-.163-.352,6.376,6.376,0,0,0,.668.035A.392.392,0,0,0,17.3-.031a.328.328,0,0,0,.07-.237V-1.907H14.682v.945q.681-.079,1.187-.163-.224-.325-.25-.36a.12.12,0,0,1-.031-.057q0-.031.083-.066l.189-.083a.283.283,0,0,1,.075-.022q.026,0,.062.048a6.833,6.833,0,0,1,.721,1.178.216.216,0,0,1,.013.053q0,.035-.083.075l-.2.1a.276.276,0,0,1-.1.035q-.031,0-.053-.053-.171-.378-.215-.47-1.305.229-3.12.4a1.134,1.134,0,0,0-.387.083.213.213,0,0,1-.105.053q-.062,0-.1-.119-.053-.189-.114-.5.193,0,.356,0,.308,0,.624-.022.826-.062.962-.075v-.989H11.65V-.316l.018.857a.062.062,0,0,1-.07.07H11.18a.062.062,0,0,1-.07-.07l.018-.857V-1.459l-.018-.835a.062.062,0,0,1,.07-.07l1.27.018h1.745V-3h-.989l-1.235.018a.062.062,0,0,1-.07-.07l.018-.756v-.91L11.9-5.471a.062.062,0,0,1,.07-.07l1.235.018H15.8l1.244-.018a.062.062,0,0,1,.07.07l-.018.756v.91l.018.756a.062.062,0,0,1-.07.07L15.8-3H14.682v.65h1.881l1.27-.018a.062.062,0,0,1,.07.07l-.018.883v.369Zm-1.314-3.2v-.7H14.682v.7Zm-2.4,0v-.7H12.423v.7Zm2.4-1.09v-.646H14.682v.646Zm-2.4,0v-.646H12.423v.646Zm4.241-1.846q0,.07-.075.07l-1.178-.018H16l.018.413q0,.075-.07.075h-.391q-.079,0-.079-.075,0-.013.009-.141t.009-.272H13.421l.018.413q0,.075-.07.075h-.4a.066.066,0,0,1-.075-.075q0-.013.009-.141t.009-.272H11.848l-1.182.018a.062.062,0,0,1-.07-.07v-.36q0-.062.07-.062l1.182.018h1.068a3.937,3.937,0,0,0-.053-.738q.272.013.558.048.092.013.092.079a.239.239,0,0,1-.035.119,1.285,1.285,0,0,0-.057.492H15.5a3.875,3.875,0,0,0-.053-.729q.294.018.549.048.1.013.1.079a.239.239,0,0,1-.035.119A1.347,1.347,0,0,0,16-6.732h1.178L18.36-6.75q.075,0,.075.062Z" transform="translate(0.091 10.213)" fill="#fff"/>
              </g>
              <line id="Line_100" data-name="Line 100" y1="184.478" transform="translate(25.519 6.626)" fill="none" stroke="#fff" stroke-miterlimit="10" stroke-width="1"/>
            </g>
            <g id="Group_1618" data-name="Group 1618" transform="translate(45.755 6.743)">
              <g id="Group_1613" data-name="Group 1613">
                <g id="Group_1612" data-name="Group 1612">
                  <line id="Line_104" data-name="Line 104" x1="40.531" y2="3.706" transform="translate(0 27.707)" fill="none" stroke="#fff" stroke-linecap="round" stroke-miterlimit="10" stroke-width="2"/>
                  <line id="Line_105" data-name="Line 105" x1="40.531" y2="4.353" transform="translate(40.531 23.354)" fill="none" stroke="#fff" stroke-linecap="round" stroke-miterlimit="10" stroke-width="2"/>
                  <line id="Line_106" data-name="Line 106" x1="40.531" y2="6.589" transform="translate(81.062 16.765)" fill="none" stroke="#fff" stroke-linecap="round" stroke-miterlimit="10" stroke-width="2"/>
                  <line id="Line_107" data-name="Line 107" x1="40.531" y2="16.765" transform="translate(121.593)" fill="none" stroke="#fff" stroke-linecap="round" stroke-miterlimit="10" stroke-width="2"/>
                </g>
              </g>
              <g id="Group_1615" data-name="Group 1615" transform="translate(0 130.182)">
                <g id="Group_1614" data-name="Group 1614">
                  <line id="Line_108" data-name="Line 108" x1="40.531" y2="6.883" transform="translate(0 28.825)" fill="none" stroke="#1feac3" stroke-linecap="round" stroke-miterlimit="10" stroke-width="2"/>
                  <line id="Line_109" data-name="Line 109" x1="40.531" y2="11.589" transform="translate(40.531 17.236)" fill="none" stroke="#1feac3" stroke-linecap="round" stroke-miterlimit="10" stroke-width="2"/>
                  <line id="Line_110" data-name="Line 110" x1="40.531" y2="6.706" transform="translate(81.062 10.53)" fill="none" stroke="#1feac3" stroke-linecap="round" stroke-miterlimit="10" stroke-width="2"/>
                  <line id="Line_111" data-name="Line 111" x1="40.531" y2="10.53" transform="translate(121.593)" fill="none" stroke="#1feac3" stroke-linecap="round" stroke-miterlimit="10" stroke-width="2"/>
                </g>
              </g>
              <g id="Group_1617" data-name="Group 1617" transform="translate(0 25.06)">
                <g id="Group_1616" data-name="Group 1616">
                  <line id="Line_112" data-name="Line 112" x1="40.531" y2="10.765" transform="translate(0 47.296)" fill="none" stroke="#ff6cd7" stroke-linecap="round" stroke-miterlimit="10" stroke-width="2"/>
                  <line id="Line_113" data-name="Line 113" x1="40.531" y2="15.707" transform="translate(40.531 31.59)" fill="none" stroke="#ff6cd7" stroke-linecap="round" stroke-miterlimit="10" stroke-width="2"/>
                  <line id="Line_114" data-name="Line 114" x1="40.531" y2="18.06" transform="translate(81.062 13.53)" fill="none" stroke="#ff6cd7" stroke-linecap="round" stroke-miterlimit="10" stroke-width="2"/>
                  <line id="Line_115" data-name="Line 115" x1="40.531" y2="13.53" transform="translate(121.593)" fill="none" stroke="#ff6cd7" stroke-linecap="round" stroke-miterlimit="10" stroke-width="2"/>
                </g>
              </g>
            </g>
            <g id="Group_1625" data-name="Group 1625" transform="translate(43.99 4.979)">
              <g id="Group_1620" data-name="Group 1620">
                <g id="Group_1619" data-name="Group 1619">
                  <rect id="Rectangle_2115" data-name="Rectangle 2115" width="3.53" height="3.53" transform="translate(0 31.413)" fill="gray" stroke="#000" stroke-miterlimit="10" stroke-width="0.5"/>
                  <rect id="Rectangle_2116" data-name="Rectangle 2116" width="3.53" height="3.53" transform="translate(40.531 27.707)" fill="gray" stroke="#000" stroke-miterlimit="10" stroke-width="0.5"/>
                  <rect id="Rectangle_2117" data-name="Rectangle 2117" width="3.53" height="3.53" transform="translate(81.062 23.354)" fill="gray" stroke="#000" stroke-miterlimit="10" stroke-width="0.5"/>
                  <rect id="Rectangle_2118" data-name="Rectangle 2118" width="3.53" height="3.53" transform="translate(121.593 16.765)" fill="gray" stroke="#000" stroke-miterlimit="10" stroke-width="0.5"/>
                  <rect id="Rectangle_2119" data-name="Rectangle 2119" width="3.53" height="3.53" transform="translate(162.124)" fill="gray" stroke="#000" stroke-miterlimit="10" stroke-width="0.5"/>
                </g>
              </g>
              <g id="Group_1622" data-name="Group 1622" transform="translate(0 130.182)">
                <g id="Group_1621" data-name="Group 1621" transform="translate(0 0)">
                  <rect id="Rectangle_2120" data-name="Rectangle 2120" width="3.53" height="3.53" transform="translate(0 35.707)" fill="#dfdfdf" stroke="#000" stroke-miterlimit="10" stroke-width="0.5"/>
                  <rect id="Rectangle_2121" data-name="Rectangle 2121" width="3.53" height="3.53" transform="translate(40.531 28.825)" fill="#dfdfdf" stroke="#000" stroke-miterlimit="10" stroke-width="0.5"/>
                  <rect id="Rectangle_2122" data-name="Rectangle 2122" width="3.53" height="3.53" transform="translate(81.062 17.236)" fill="#dfdfdf" stroke="#000" stroke-miterlimit="10" stroke-width="0.5"/>
                  <rect id="Rectangle_2123" data-name="Rectangle 2123" width="3.53" height="3.53" transform="translate(121.593 10.53)" fill="#dfdfdf" stroke="#000" stroke-miterlimit="10" stroke-width="0.5"/>
                  <rect id="Rectangle_2124" data-name="Rectangle 2124" width="3.53" height="3.53" transform="translate(162.124)" fill="#dfdfdf" stroke="#000" stroke-miterlimit="10" stroke-width="0.5"/>
                </g>
              </g>
              <g id="Group_1624" data-name="Group 1624" transform="translate(0 25.06)">
                <g id="Group_1623" data-name="Group 1623">
                  <rect id="Rectangle_2125" data-name="Rectangle 2125" width="3.53" height="3.53" transform="translate(0 58.061)" stroke="#000" stroke-miterlimit="10" stroke-width="0.5"/>
                  <rect id="Rectangle_2126" data-name="Rectangle 2126" width="3.53" height="3.53" transform="translate(40.531 47.296)" stroke="#000" stroke-miterlimit="10" stroke-width="0.5"/>
                  <rect id="Rectangle_2127" data-name="Rectangle 2127" width="3.53" height="3.53" transform="translate(81.062 31.59)" stroke="#000" stroke-miterlimit="10" stroke-width="0.5"/>
                  <rect id="Rectangle_2128" data-name="Rectangle 2128" width="3.53" height="3.53" transform="translate(121.593 13.53)" stroke="#000" stroke-miterlimit="10" stroke-width="0.5"/>
                  <rect id="Rectangle_2129" data-name="Rectangle 2129" width="3.53" height="3.53" transform="translate(162.124)" stroke="#000" stroke-miterlimit="10" stroke-width="0.5"/>
                </g>
              </g>
            </g>
          </g>
        </g>
        <path id="內文p-6" data-name="內文p" d="M11.052,5.972v-.8H3.66c.18-.336.336-.684.492-1.02L3.276,3.9A11.267,11.267,0,0,1,.516,7.9c.228.132.6.384.792.528a13.951,13.951,0,0,0,1.9-2.46Zm-4.284,6.6.408-.444a9.05,9.05,0,0,0-2.28-1.5l-.5.492A10.809,10.809,0,0,1,6.54,12.572H2.832c.1-.576.2-1.248.3-1.944H8.88c-.048.816-.1,1.452-.144,1.944Zm2.22-4.6c-.024.708-.048,1.32-.072,1.884H6.864l.516-.528A9.157,9.157,0,0,0,5.2,8.012l-.5.5A8.593,8.593,0,0,1,6.828,9.86h-3.6c.1-.636.18-1.272.264-1.884Zm2.472,2.676V9.836H9.78c.024-.648.06-1.38.084-2.22,0-.108.012-.432.012-.432H2.7c-.084.8-.216,1.728-.336,2.652H.552v.816H2.244c-.156,1.008-.324,1.98-.456,2.7h.48v.012H8.64a1.683,1.683,0,0,1-.24.7.476.476,0,0,1-.444.168,13.25,13.25,0,0,1-1.392-.048,1.811,1.811,0,0,1,.228.708,13.8,13.8,0,0,0,1.536.024,1.1,1.1,0,0,0,.84-.432,2.783,2.783,0,0,0,.348-1.116h1.536v-.792H9.612c.06-.5.1-1.14.144-1.92Zm-3.192,8.08a18.249,18.249,0,0,0-.6-1.86l-.84.216A13.266,13.266,0,0,1,7.392,19Zm2.64.4H4.44v.864h6.468Zm-4,6.636a47.513,47.513,0,0,0-.888-5.04l-.8.18a43.139,43.139,0,0,1,.816,5.112ZM3.456,17A13.338,13.338,0,0,1,.5,21.768a4.333,4.333,0,0,1,.5.876A12.2,12.2,0,0,0,2.2,21.192V27.9h.888V19.8A17.018,17.018,0,0,0,4.3,17.256Zm5.5,9.564c.432-1.6.924-3.936,1.236-5.772l-.924-.168a52.081,52.081,0,0,1-1.14,5.94H3.936v.864H11.4v-.864ZM7.4,33.7a5.4,5.4,0,0,0-.864-.66,6.825,6.825,0,0,0,.7-.768l-.624-.2a4.285,4.285,0,0,1-.6.636c-.312-.168-.624-.348-.924-.48l-.444.4a8.822,8.822,0,0,1,.864.468,7.214,7.214,0,0,1-1.14.66,3.1,3.1,0,0,1,.492.468,8.492,8.492,0,0,0,1.2-.78,6.543,6.543,0,0,1,.864.7Zm-.036-2.148c-.216-.168-.5-.36-.828-.564a6.163,6.163,0,0,0,.66-.732l-.624-.168a5.111,5.111,0,0,1-.564.588c-.312-.168-.612-.324-.9-.444l-.432.4a8,8,0,0,1,.84.432,7.233,7.233,0,0,1-1.068.612,3.759,3.759,0,0,1,.5.432,8.338,8.338,0,0,0,1.116-.72A5.939,5.939,0,0,1,6.9,32Zm-5.58,3.36h8.436V36.4H11.1V34.228h-.936c.1-1.068.2-2.616.264-3.8H7.656v.612H9.564l-.036.648H7.716V32.3H9.492l-.06.648H7.644v.612h1.74c-.024.24-.048.456-.072.672H2.736l-.048-.672H4.356v-.612h-1.7L2.6,32.3h1.7v-.612H2.568L2.52,31.1a12.581,12.581,0,0,0,1.848-.468l-.4-.552a22.46,22.46,0,0,1-2.316.588l.24,3.564H.936V36.4h.852Zm9.552,2.916H6.54v-.216a12.5,12.5,0,0,0,2.712-1.488l-.54-.444-.18.048H2.892V36.4H7.584a11.138,11.138,0,0,1-1.908.912v.516h-5v.756h5V39.94c0,.168-.048.2-.252.216-.18,0-.852,0-1.6-.024a3.36,3.36,0,0,1,.312.756,7.18,7.18,0,0,0,1.932-.12c.372-.132.468-.336.468-.8v-1.38h4.8ZM6.48,52.676V49.628h3.852v-.864H6.48V46.148h4.3v-.876H6.48v-2.3H5.568v2.3H3.132a16.471,16.471,0,0,0,.672-1.92l-.9-.192a10.939,10.939,0,0,1-2.22,4.416A5.975,5.975,0,0,1,1.5,48.1a10.767,10.767,0,0,0,1.248-1.956h2.82v2.616H2v.864H5.568v3.048H.708v.864H11.34v-.864Zm4.872,9.16H6.432V57.648H10.68v-.876H1.3v.876H5.52v4.188H.672v.876H5.52v4.2h.912v-4.2h4.92Zm-9.216-3.36a14.043,14.043,0,0,1,1.08,2.748l.84-.288a11.5,11.5,0,0,0-1.14-2.7ZM8.5,61.26a23.56,23.56,0,0,0,1.476-2.82l-.936-.264a17.907,17.907,0,0,1-1.3,2.832ZM5.16,77.02H9.216v-.8H5.16Zm.276-3.528v.816H9.012v-.816ZM6.5,70.948A17.044,17.044,0,0,0,7.176,69.2l-.9-.228a12.643,12.643,0,0,1-1.824,3.768v-.768H3.06V69.22H2.2v2.748H.648v.852H2.2v4.092c-.66.3-1.272.576-1.752.768l.336.9c1.116-.54,2.6-1.272,4-1.956l-.24-.816c-.492.228-1,.468-1.476.7V72.82H4.4a7.531,7.531,0,0,1-.564.648c.228.132.636.384.816.516a12.017,12.017,0,0,0,1.452-2.2h4.26c-.156,4.836-.336,6.684-.732,7.092a.6.6,0,0,1-.516.192,17.568,17.568,0,0,1-1.812-.084A2.244,2.244,0,0,1,7.6,79.9a13.86,13.86,0,0,0,1.86.012,1.205,1.205,0,0,0,.984-.492c.48-.6.636-2.5.828-8,0-.12.012-.468.012-.468ZM3.552,82.364A8.357,8.357,0,0,1,.468,86.8a4.951,4.951,0,0,1,.744.66,10.464,10.464,0,0,0,3.264-4.872Zm-1.284,4.1v.864H4.716C4.428,89.36,3.768,91.256.948,92.2a2.737,2.737,0,0,1,.576.78c3.048-1.116,3.828-3.276,4.14-5.652h3.1c-.144,3.024-.312,4.224-.624,4.524-.12.132-.252.156-.5.156-.288,0-1.02-.012-1.8-.084a1.982,1.982,0,0,1,.288.9A17.206,17.206,0,0,0,8,92.852a1.22,1.22,0,0,0,.936-.432c.408-.456.576-1.836.744-5.52.012-.12.024-.432.024-.432Zm3.156-4.3v.84H7.548a9.322,9.322,0,0,0,3.408,4.428,5.362,5.362,0,0,1,.636-.8,8.014,8.014,0,0,1-3.408-4.464Zm-2.04,17.68-.78.312V98.208h.78v-.816H2.6V94.968h-.78v2.424H.564v.816h1.26v2.268c-.54.216-1.02.4-1.428.54l.288.828,1.14-.48v3.588c0,.144-.06.192-.192.192-.108,0-.516,0-.948-.012a3.6,3.6,0,0,1,.24.78,3.037,3.037,0,0,0,1.32-.156c.264-.144.36-.36.36-.816v-3.888c.312-.144.648-.288.96-.42Zm5.268,2.928h.972v1.812H8.652Zm.972-4.644v1.548H8.652V98.136Zm0,3.948H8.652V100.4h.972Zm-2.9-1.692h-.9V99.264h.9Zm-2.484,0V99.264h.876v1.128Zm.528-3.78H6.3v.816H4.764Zm6.768,7.98H10.308V102.78h1.008v-.7H10.308V100.4h.972v-.72h-.972V98.136h1.02v-.78H8.616a17.976,17.976,0,0,0,.624-2.064,8.884,8.884,0,0,1,.792,2l.684-.264a8.711,8.711,0,0,0-.852-2l-.612.228.036-.156-.708-.144a11.105,11.105,0,0,1-1.392,3.708H5.82V98H7.008V96.612h.684v-.636H7.008V94.968H6.3v1.008H4.764V94.968H4.08v1.008H3.312v.636H4.08V98H5.112v.66H3.624v2.316H5.112v.66H3.576v.636H5.1a4.863,4.863,0,0,1-.084.744H3.264v.66h1.56a3.091,3.091,0,0,1-1.812,1.692,3.05,3.05,0,0,1,.42.552,3.772,3.772,0,0,0,1.9-1.584A9.212,9.212,0,0,1,6.936,105.7l.456-.576a9.785,9.785,0,0,0-1.8-1.4l.012-.036H7.536v-.66H5.748a7.185,7.185,0,0,0,.06-.744h1.56v-.636H5.82v-.66H7.344V99.12a2.712,2.712,0,0,1,.264.264c.108-.168.216-.348.324-.528v7.068h.72v-.648h2.88Zm-7.116,8.6H1.9V110.68h2.52ZM1.9,116.86v-2.88h2.52v2.88ZM2.9,107.932a14.811,14.811,0,0,1-.48,1.944H1.08v8.736H1.9v-.948H5.232v-7.788H3.24c.2-.516.42-1.176.624-1.764Zm8.2,1.908H7.512a16.856,16.856,0,0,0,.516-1.728l-.852-.2a12.176,12.176,0,0,1-1.836,4.356,6.559,6.559,0,0,1,.732.5,10.1,10.1,0,0,0,1.128-2.1h3.048c-.156,4.776-.336,6.6-.732,7.02-.12.156-.252.18-.492.18-.276,0-1,0-1.776-.072a2.064,2.064,0,0,1,.3.876,12.646,12.646,0,0,0,1.776.012,1.194,1.194,0,0,0,.948-.48c.48-.588.636-2.436.828-7.908Zm-1.9,5.4a23.478,23.478,0,0,0-1.884-2.712l-.7.408a21.35,21.35,0,0,1,1.824,2.772Zm-1.488,8.776h2.1a13.673,13.673,0,0,1-1.044,3.792A16.508,16.508,0,0,1,7.716,124.016Zm-4.284-1.032H4.644a11.887,11.887,0,0,1-.852,1.188h-.36Zm8.052,1.032v-.84H7.98a21.036,21.036,0,0,0,.48-2.076l-.888-.144A12.84,12.84,0,0,1,5.7,126.1l-.42-.312-.168.048H3.36c.3-.276.576-.576.852-.876H6.3v-.792H4.848a13.254,13.254,0,0,0,1.5-2.688l-.828-.24a11.884,11.884,0,0,1-.852,1.7v-.732H3.432v-1.26H2.6v1.26H1.032v.768H2.6v1.188H.528v.792H3.06a10.282,10.282,0,0,1-2.616,1.9,8.273,8.273,0,0,1,.636.684,12.866,12.866,0,0,0,1.452-.984H4.4a7.658,7.658,0,0,1-1.368,1.068v.828c-.948.108-1.812.216-2.5.3l.108.816c.684-.084,1.5-.2,2.388-.324v1.716c0,.132-.036.168-.2.18s-.66.012-1.26-.012a3.423,3.423,0,0,1,.288.78,4.95,4.95,0,0,0,1.6-.132c.336-.132.432-.348.432-.8V129.14c.78-.12,1.572-.228,2.364-.336l-.012-.78c-.792.108-1.584.216-2.352.312v-.48A9.541,9.541,0,0,0,5.7,126.272a4.546,4.546,0,0,1,.648.564,8.39,8.39,0,0,0,.8-1.416,15.656,15.656,0,0,0,1.092,3.324,6.752,6.752,0,0,1-2.856,2.412,3.776,3.776,0,0,1,.54.8,8.01,8.01,0,0,0,2.8-2.328,6.519,6.519,0,0,0,2.232,2.268,2.917,2.917,0,0,1,.624-.756,5.906,5.906,0,0,1-2.316-2.352,13.661,13.661,0,0,0,1.464-4.776ZM10,138.72H2.244v2.136a4.792,4.792,0,0,1-1.224,3.6,2.452,2.452,0,0,1,.708.552,5.714,5.714,0,0,0,1.38-4.128v-1.4H9.06v2.2c-2.088.372-4.272.72-5.628.924l.288.8c1.476-.264,3.444-.672,5.34-1.056v1.536c0,.168-.072.24-.288.24-.18.012-.984.012-1.728-.012a3.031,3.031,0,0,1,.252.768,9.644,9.644,0,0,0,2.148-.108c.408-.12.552-.348.552-.888Zm-6.5,1.824a21,21,0,0,1,4.392,1.176l.276-.66a21.4,21.4,0,0,0-4.38-1.092Zm-.216-3.168c.552-.444,1.116-.924,1.668-1.452H7.68l-.5.324c.4.264.8.588,1.2.9Zm7.968-2.256h-5.5c.288-.3.576-.624.852-.936l-.888-.372c-.348.444-.744.9-1.128,1.308H.768v.8H3.78a13.663,13.663,0,0,1-1.044.9,2.567,2.567,0,0,1-1.008.624c.1.24.216.66.264.84.408-.144,1.02-.156,7.164-.468.324.312.612.612.828.864l.756-.516a17.725,17.725,0,0,0-2.664-2.244h3.168Zm.048,12.436H4.968v.816h6.324Zm-.072,5.424a13.854,13.854,0,0,0-1.44-2.04c.408-.6.888-1.356,1.236-1.968l-.792-.216a20.341,20.341,0,0,1-1.332,2.208,13.127,13.127,0,0,1,1.608,2.364Zm-3.048-4.212a20.169,20.169,0,0,1-1.3,2.184A10.771,10.771,0,0,1,8.364,153.3l.744-.336a16.108,16.108,0,0,0-1.356-2.04c.4-.588.864-1.356,1.2-1.956ZM7.02,153.016A14.431,14.431,0,0,0,5.7,150.94a22.739,22.739,0,0,0,1.188-1.98l-.78-.2c-.276.564-.792,1.476-1.26,2.208a12.1,12.1,0,0,1,1.428,2.364Zm-2.184.924a15.414,15.414,0,0,0-.78-2.46l-.684.192c.144.36.276.768.408,1.176l-1.884.24a23.9,23.9,0,0,0,2.664-3.864l-.768-.456a16.885,16.885,0,0,1-.864,1.6l-1.236.108a21.341,21.341,0,0,0,1.824-3.192l-.792-.324a16.6,16.6,0,0,1-1.584,3.012c-.252.372-.456.612-.66.66a7.922,7.922,0,0,1,.276.792,6.285,6.285,0,0,1,1.656-.276c-.432.636-.8,1.14-.984,1.356-.348.432-.624.732-.888.792a5.71,5.71,0,0,1,.288.828,14.728,14.728,0,0,1,3.144-.588,6.227,6.227,0,0,1,.132.648Zm-3.78.7a13.5,13.5,0,0,1-.576,2.8c.18.072.552.192.708.276a15.166,15.166,0,0,0,.612-2.952Zm1.224.084a21.173,21.173,0,0,1,.3,2.532l.72-.12a20.274,20.274,0,0,0-.336-2.52Zm1.164-.216a16.169,16.169,0,0,1,.588,2.028l.66-.228a13.334,13.334,0,0,0-.612-2ZM8.5,156.82v-2.28h2.436v-.8h-5.7v.8H7.62v2.28H4.56v.816h6.852v-.816ZM4.224,169.16a14.483,14.483,0,0,1-3.54,1.092,4.76,4.76,0,0,1,.636.672,17.217,17.217,0,0,0,3.708-1.4Zm-1.152-1.344h6v.756h-6Zm3.852-4.02v.828h.84V163.8H10.3a.778.778,0,0,1-.144.432c-.06.072-.144.084-.276.084s-.456-.012-.828-.048a1.338,1.338,0,0,1,.144.384H3.84a2.5,2.5,0,0,0,.852-.852Zm-2.688-1.308a2.119,2.119,0,0,1-.18.72H2.472q.054-.342.108-.72Zm.84-1.272H6.924v.684H5.076Zm4.548,0v.684H7.764v-.684Zm-2.7,1.992H4.932a2.824,2.824,0,0,0,.12-.72H6.924Zm2.148,2.76h-6v-.744h6Zm0,1.284h-6v-.732h6Zm.888,1.9v-4.272c.12,0,.228-.012.312-.012a.851.851,0,0,0,.576-.216c.168-.156.24-.5.312-1.152.012-.108.024-.288.024-.288H7.764v-.72H10.44v-1.86H7.764v-.66h-.84v.66H5.076v-.66H4.26v.66H1.332v.588H4.26v.684H1.872c-.072.624-.192,1.368-.3,1.9h2.04A5.872,5.872,0,0,1,.72,164.912a3.161,3.161,0,0,1,.42.7c.4-.084.756-.168,1.068-.264v3.8H7.524l-.444.432a29.225,29.225,0,0,1,3.528,1.284l.672-.552a32.506,32.506,0,0,0-3.372-1.164Z" transform="translate(0 29.007)" fill="#fff" opacity="0.85"/>
        <path id="內文p-7" data-name="內文p" d="M.88,12H4.9v-.76H3.43V4.66h-.7a4.416,4.416,0,0,1-1.52.53v.58h1.3v5.47H.88Zm7.45.13c1.39,0,2.28-1.27,2.28-3.82S9.72,4.53,8.33,4.53,6.04,5.76,6.04,8.31,6.93,12.13,8.33,12.13Zm0-.73c-.84,0-1.4-.93-1.4-3.09,0-2.14.56-3.05,1.4-3.05s1.39.91,1.39,3.05C9.72,10.47,9.16,11.4,8.33,11.4Zm4.75.6h.95c.11-2.87.43-4.58,2.15-6.78V4.66H11.59v.79h3.55A10.856,10.856,0,0,0,13.08,12ZM25.06,6.75a4.5,4.5,0,0,0-.72-.55,5.687,5.687,0,0,0,.58-.64l-.52-.17a3.571,3.571,0,0,1-.5.53c-.26-.14-.52-.29-.77-.4l-.37.33a7.351,7.351,0,0,1,.72.39,6.011,6.011,0,0,1-.95.55,2.58,2.58,0,0,1,.41.39,7.076,7.076,0,0,0,1-.65,5.453,5.453,0,0,1,.72.58Zm-.03-1.79c-.18-.14-.42-.3-.69-.47a5.136,5.136,0,0,0,.55-.61l-.52-.14a4.259,4.259,0,0,1-.47.49c-.26-.14-.51-.27-.75-.37l-.36.33a6.664,6.664,0,0,1,.7.36,6.027,6.027,0,0,1-.89.51,3.133,3.133,0,0,1,.42.36,6.948,6.948,0,0,0,.93-.6,4.949,4.949,0,0,1,.69.51Zm-4.65,2.8h7.03V9h.73V7.19h-.78c.08-.89.17-2.18.22-3.17H25.27v.51h1.59l-.03.54H25.32v.51H26.8l-.05.54H25.26v.51h1.45c-.02.2-.04.38-.06.56H21.17l-.04-.56h1.39V6.12H21.1l-.04-.54h1.42V5.07H21.03l-.04-.49a10.484,10.484,0,0,0,1.54-.39l-.33-.46a18.717,18.717,0,0,1-1.93.49l.2,2.97h-.8V9h.71Zm7.96,2.43h-4v-.18A10.421,10.421,0,0,0,26.6,8.77l-.45-.37L26,8.44H21.3V9h3.91a9.282,9.282,0,0,1-1.59.76v.43H19.45v.63h4.17v1.13c0,.14-.04.17-.21.18-.15,0-.71,0-1.33-.02a2.8,2.8,0,0,1,.26.63,5.984,5.984,0,0,0,1.61-.1c.31-.11.39-.28.39-.67V10.82h4Zm3.44-.43V7.78h2.24V9.76Zm6.61,0H34.77V7.78H37.7v-.7H34.77V5.56h3.16V4.84H31.97c.16-.34.32-.7.46-1.05l-.75-.18a8.462,8.462,0,0,1-2.25,3.45,4.6,4.6,0,0,1,.64.47,9.239,9.239,0,0,0,1.52-1.97h2.43V7.08H31.04V9.76H29.4v.72h4.62v2.29h.75V10.48h3.62Z" transform="translate(258 195.007)" fill="#d48773"/>
        <path id="內文p-8" data-name="內文p" d="M19.555,12h4.02v-.76H22.1V4.66h-.7a4.416,4.416,0,0,1-1.52.53v.58h1.3v5.47h-1.63Zm7.45.13c1.39,0,2.28-1.27,2.28-3.82S28.395,4.53,27,4.53s-2.29,1.23-2.29,3.78S25.6,12.13,27,12.13Zm0-.73c-.84,0-1.4-.93-1.4-3.09,0-2.14.56-3.05,1.4-3.05s1.39.91,1.39,3.05C28.395,10.47,27.835,11.4,27,11.4Zm5.7-3.27c.89,0,1.33.63,1.33,1.62s-.55,1.67-1.25,1.67c-.92,0-1.47-.83-1.58-2.35A1.9,1.9,0,0,1,32.7,8.13Zm.08,4a2.2,2.2,0,0,0,2.1-2.38c0-1.53-.79-2.3-2.03-2.3a2.28,2.28,0,0,0-1.67.89c.04-2.28.89-3.05,1.89-3.05a1.55,1.55,0,0,1,1.18.56l.5-.57a2.252,2.252,0,0,0-1.71-.75c-1.42,0-2.71,1.1-2.71,3.97C30.335,10.92,31.375,12.13,32.785,12.13Z" transform="translate(201 195.007)" fill="#d48773"/>
        <path id="內文p-9" data-name="內文p" d="M19.555,12h4.02v-.76H22.1V4.66h-.7a4.416,4.416,0,0,1-1.52.53v.58h1.3v5.47h-1.63Zm7.45.13c1.39,0,2.28-1.27,2.28-3.82S28.395,4.53,27,4.53s-2.29,1.23-2.29,3.78S25.6,12.13,27,12.13Zm0-.73c-.84,0-1.4-.93-1.4-3.09,0-2.14.56-3.05,1.4-3.05s1.39.91,1.39,3.05C28.395,10.47,27.835,11.4,27,11.4Zm3.21.6h4.61v-.79h-2.03c-.37,0-.82.04-1.2.07,1.72-1.63,2.87-3.12,2.87-4.58a2.011,2.011,0,0,0-2.13-2.17,2.8,2.8,0,0,0-2.16,1.08l.53.52a2.053,2.053,0,0,1,1.52-.85,1.289,1.289,0,0,1,1.35,1.45c0,1.26-1.06,2.72-3.36,4.73Z" transform="translate(38 195.007)" fill="#d48773"/>
        <ellipse id="Ellipse_121" data-name="Ellipse 121" cx="4" cy="3.5" rx="4" ry="3.5" transform="translate(61 169.007)" fill="#1feac3"/>
        <circle id="Ellipse_122" data-name="Ellipse 122" cx="3.5" cy="3.5" r="3.5" transform="translate(102 163.007)" fill="#1feac3"/>
        <circle id="Ellipse_123" data-name="Ellipse 123" cx="3.5" cy="3.5" r="3.5" transform="translate(142 151.007)" fill="#1feac3"/>
        <circle id="Ellipse_124" data-name="Ellipse 124" cx="3.5" cy="3.5" r="3.5" transform="translate(183 144.007)" fill="#1feac3"/>
        <circle id="Ellipse_125" data-name="Ellipse 125" cx="3.5" cy="3.5" r="3.5" transform="translate(223 134.007)" fill="#1feac3"/>
        <circle id="Ellipse_126" data-name="Ellipse 126" cx="3.5" cy="3.5" r="3.5" transform="translate(223 29.007)" fill="#ff6cd7"/>
        <circle id="Ellipse_131" data-name="Ellipse 131" cx="3.5" cy="3.5" r="3.5" transform="translate(223 4.007)" fill="#fff"/>
        <ellipse id="Ellipse_132" data-name="Ellipse 132" cx="3.5" cy="4" rx="3.5" ry="4" transform="translate(182 20.007)" fill="#fff"/>
        <circle id="Ellipse_133" data-name="Ellipse 133" cx="3.5" cy="3.5" r="3.5" transform="translate(142 27.007)" fill="#fff"/>
        <circle id="Ellipse_134" data-name="Ellipse 134" cx="3.5" cy="3.5" r="3.5" transform="translate(102 31.007)" fill="#fff"/>
        <circle id="Ellipse_135" data-name="Ellipse 135" cx="4" cy="4" r="4" transform="translate(61 35.007)" fill="#fff"/>
        <circle id="Ellipse_127" data-name="Ellipse 127" cx="3.5" cy="3.5" r="3.5" transform="translate(183 43.007)" fill="#ff6cd7"/>
        <circle id="Ellipse_128" data-name="Ellipse 128" cx="3.5" cy="3.5" r="3.5" transform="translate(142 61.007)" fill="#ff6cd7"/>
        <ellipse id="Ellipse_129" data-name="Ellipse 129" cx="3.5" cy="4" rx="3.5" ry="4" transform="translate(102 76.007)" fill="#ff6cd7"/>
        <ellipse id="Ellipse_130" data-name="Ellipse 130" cx="4" cy="3.5" rx="4" ry="3.5" transform="translate(61 87.007)" fill="#ff6cd7"/>
      </g>
    </g>
  </g>
</svg>
