<svg xmlns="http://www.w3.org/2000/svg" width="268.19" height="263.227" viewBox="0 0 268.19 263.227">
  <g id="data5_m" transform="translate(8779.664 14335)">
    <path id="內文p" d="M9.926,12.654v2.24H3.99v-2.24ZM2.282,17.2H3.99V16.49H9.926v.7h1.792V11.058H2.282ZM8.148,6.3C8.666,6.816,9.226,7.4,9.772,8.02L4.032,8.2a23.013,23.013,0,0,0,3.052-3.57L5.4,3.918A18.681,18.681,0,0,1,2.436,7.726a2.884,2.884,0,0,1-1.162.812,12.746,12.746,0,0,1,.546,1.6c.742-.252,1.736-.28,9.17-.644a12.247,12.247,0,0,1,.728,1.064l1.414-1.022A25.446,25.446,0,0,0,9.45,5.43Zm19.32,2.408a8.631,8.631,0,0,0-.63-1.5l-.686.252c.056.112.112.238.168.364l-.784.084A12.724,12.724,0,0,0,27.02,5.85l-.854-.378c-.1.21-.21.42-.322.63L25.2,6.13A9.35,9.35,0,0,0,26.082,4.6l-.9-.336a6.246,6.246,0,0,1-.854,1.792c-.154.21-.28.35-.448.378a4.5,4.5,0,0,1,.308.672A5.329,5.329,0,0,1,25.3,6.942a8.784,8.784,0,0,1-.7.868,1.171,1.171,0,0,1-.658.49,2.986,2.986,0,0,1,.322.686,9.492,9.492,0,0,1,2.366-.434c.056.168.112.322.14.448Zm-1.316,2.338a7.653,7.653,0,0,0-.308-1.694l-.714.2a8.681,8.681,0,0,1,.28,1.75ZM24.22,9.28a4.546,4.546,0,0,1-.462,1.582,4.153,4.153,0,0,1,.672.49A5.952,5.952,0,0,0,25,9.49Zm-.252-3.752H22.554l.56-.14a9,9,0,0,0-.5-1.078l-1.092.224a6.816,6.816,0,0,1,.42.994H20.622V6.4h3.346Zm-.28,2.31h-2.66v.756h2.66ZM21.98,9.714h.7v.616h-.7Zm-.966,1.344h2.674V8.972H21.014Zm2.674-4.3h-2.66v.756h2.66ZM20.86,8.678a9.488,9.488,0,0,0-.616-1.47l-.7.252c.056.112.126.238.182.364l-.8.084a11.929,11.929,0,0,0,1.5-2.044l-.854-.406a6.881,6.881,0,0,1-.336.63l-.63.028a7.237,7.237,0,0,0,.868-1.526l-.9-.322a6.971,6.971,0,0,1-.84,1.792.734.734,0,0,1-.462.378,3.665,3.665,0,0,1,.336.658A3.716,3.716,0,0,1,18.7,6.914a7.149,7.149,0,0,1-.7.9c-.252.266-.434.448-.658.476a4.814,4.814,0,0,1,.322.686,11.45,11.45,0,0,1,2.352-.434,4.459,4.459,0,0,1,.126.434Zm-.14,1.848a6.236,6.236,0,0,0-.42-1.442l-.644.252a6.028,6.028,0,0,1,.378,1.5Zm-1.148.392a6.252,6.252,0,0,0-.294-1.568l-.714.182a7.514,7.514,0,0,1,.266,1.624ZM17.64,5.724A10.138,10.138,0,0,0,15.61,4.31l-.952,1.12a9.368,9.368,0,0,1,1.96,1.54Zm-.28,3.57a9.348,9.348,0,0,0-2.086-1.316l-.91,1.162a9.959,9.959,0,0,1,2.016,1.428ZM16.17,17.05c.546-1.358,1.12-2.968,1.568-4.466l-1.316-.84a42.718,42.718,0,0,1-1.736,4.48Zm1.442-7.7a4.732,4.732,0,0,1-.462,1.582,4.705,4.705,0,0,1,.686.49,6.443,6.443,0,0,0,.574-1.876Zm2.38,4.858.112-.448h6.2V11.45H18.368v.924h6.4v.448H18.788a23.682,23.682,0,0,1-.63,2.394h7.084a1.411,1.411,0,0,1-.406.728,1,1,0,0,1-.6.112c-.336,0-1.274-.014-2.1-.1a2.815,2.815,0,0,1,.448,1.218c.868.028,1.708.042,2.17.028a2.2,2.2,0,0,0,1.3-.364,3.493,3.493,0,0,0,.854-2.044,3.743,3.743,0,0,0,.084-.588Zm6.244-4.872a7.741,7.741,0,0,1,.476,1.764l.7-.322a8.056,8.056,0,0,0-.5-1.694Zm5.88,6.86c2.1,0,3.486-1.2,3.486-2.772a3.013,3.013,0,0,0-1.736-2.772v-.07A3.018,3.018,0,0,0,35.2,8.216a2.719,2.719,0,0,0-3.01-2.758c-1.806,0-3.122,1.064-3.122,2.73a2.951,2.951,0,0,0,1.372,2.464v.07a3.015,3.015,0,0,0-1.778,2.7C28.658,15.048,30.142,16.2,32.116,16.2Zm.658-6.118c-1.092-.434-1.89-.91-1.89-1.89A1.2,1.2,0,0,1,32.144,6.9a1.32,1.32,0,0,1,1.372,1.442A2.481,2.481,0,0,1,32.774,10.078Zm-.6,4.662a1.588,1.588,0,0,1-1.736-1.54,2.491,2.491,0,0,1,.952-1.918c1.344.546,2.3.994,2.3,2.072A1.358,1.358,0,0,1,32.172,14.74Zm7.994-4.046c-.9,0-1.47-.574-1.47-1.792,0-1.274.63-1.9,1.4-1.9.882,0,1.6.7,1.778,2.59A2.067,2.067,0,0,1,40.166,10.694ZM36.974,15.02A3.886,3.886,0,0,0,39.816,16.2c2.058,0,3.976-1.694,3.976-5.614,0-3.6-1.764-5.138-3.724-5.138A3.247,3.247,0,0,0,36.806,8.9c0,2.2,1.246,3.262,2.968,3.262A2.881,2.881,0,0,0,41.9,11.03c-.084,2.6-1.05,3.486-2.212,3.486a2.377,2.377,0,0,1-1.638-.728ZM47.46,12.01c1.484,0,2.534-1.218,2.534-3.3s-1.05-3.262-2.534-3.262-2.52,1.19-2.52,3.262S45.976,12.01,47.46,12.01Zm0-1.162c-.6,0-1.064-.616-1.064-2.142s.462-2.1,1.064-2.1,1.078.574,1.078,2.1S48.062,10.848,47.46,10.848Zm.35,5.348h1.2L54.656,5.444H53.438Zm7.182,0c1.47,0,2.534-1.232,2.534-3.3s-1.064-3.276-2.534-3.276-2.52,1.19-2.52,3.276S53.522,16.2,54.992,16.2Zm0-1.176c-.6,0-1.078-.6-1.078-2.128s.476-2.114,1.078-2.114,1.078.588,1.078,2.114S55.594,15.02,54.992,15.02Z" transform="translate(-8571 -14307)" fill="#4891f2"/>
    <g id="Group_1939" data-name="Group 1939" transform="translate(-8780.51 -14238.936)">
      <rect id="Rectangle_2243" data-name="Rectangle 2243" width="206.631" height="15.725" rx="2" transform="translate(0.845 30.981)" fill="#4d505a"/>
      <path id="Rectangle_2241" data-name="Rectangle 2241" d="M2,0H174.236a0,0,0,0,1,0,0V15.725a0,0,0,0,1,0,0H2a2,2,0,0,1-2-2V2A2,2,0,0,1,2,0Z" transform="translate(0.845 30.981)" fill="#4891f2"/>
      <line id="Line_332" data-name="Line 332" y2="26.733" transform="translate(115.188 24.297)" fill="none" stroke="#f8f8f8" stroke-width="1" stroke-dasharray="1"/>
      <path id="內文p-2" data-name="內文p" d="M9.926,12.654v2.24H3.99v-2.24ZM2.282,17.2H3.99V16.49H9.926v.7h1.792V11.058H2.282ZM8.148,6.3C8.666,6.816,9.226,7.4,9.772,8.02L4.032,8.2a23.013,23.013,0,0,0,3.052-3.57L5.4,3.918A18.681,18.681,0,0,1,2.436,7.726a2.884,2.884,0,0,1-1.162.812,12.746,12.746,0,0,1,.546,1.6c.742-.252,1.736-.28,9.17-.644a12.247,12.247,0,0,1,.728,1.064l1.414-1.022A25.446,25.446,0,0,0,9.45,5.43Zm19.32,2.408a8.631,8.631,0,0,0-.63-1.5l-.686.252c.056.112.112.238.168.364l-.784.084A12.724,12.724,0,0,0,27.02,5.85l-.854-.378c-.1.21-.21.42-.322.63L25.2,6.13A9.35,9.35,0,0,0,26.082,4.6l-.9-.336a6.246,6.246,0,0,1-.854,1.792c-.154.21-.28.35-.448.378a4.5,4.5,0,0,1,.308.672A5.329,5.329,0,0,1,25.3,6.942a8.784,8.784,0,0,1-.7.868,1.171,1.171,0,0,1-.658.49,2.986,2.986,0,0,1,.322.686,9.492,9.492,0,0,1,2.366-.434c.056.168.112.322.14.448Zm-1.316,2.338a7.653,7.653,0,0,0-.308-1.694l-.714.2a8.681,8.681,0,0,1,.28,1.75ZM24.22,9.28a4.546,4.546,0,0,1-.462,1.582,4.153,4.153,0,0,1,.672.49A5.952,5.952,0,0,0,25,9.49Zm-.252-3.752H22.554l.56-.14a9,9,0,0,0-.5-1.078l-1.092.224a6.816,6.816,0,0,1,.42.994H20.622V6.4h3.346Zm-.28,2.31h-2.66v.756h2.66ZM21.98,9.714h.7v.616h-.7Zm-.966,1.344h2.674V8.972H21.014Zm2.674-4.3h-2.66v.756h2.66ZM20.86,8.678a9.488,9.488,0,0,0-.616-1.47l-.7.252c.056.112.126.238.182.364l-.8.084a11.929,11.929,0,0,0,1.5-2.044l-.854-.406a6.881,6.881,0,0,1-.336.63l-.63.028a7.237,7.237,0,0,0,.868-1.526l-.9-.322a6.971,6.971,0,0,1-.84,1.792.734.734,0,0,1-.462.378,3.665,3.665,0,0,1,.336.658A3.716,3.716,0,0,1,18.7,6.914a7.149,7.149,0,0,1-.7.9c-.252.266-.434.448-.658.476a4.814,4.814,0,0,1,.322.686,11.45,11.45,0,0,1,2.352-.434,4.459,4.459,0,0,1,.126.434Zm-.14,1.848a6.236,6.236,0,0,0-.42-1.442l-.644.252a6.028,6.028,0,0,1,.378,1.5Zm-1.148.392a6.252,6.252,0,0,0-.294-1.568l-.714.182a7.514,7.514,0,0,1,.266,1.624ZM17.64,5.724A10.138,10.138,0,0,0,15.61,4.31l-.952,1.12a9.368,9.368,0,0,1,1.96,1.54Zm-.28,3.57a9.348,9.348,0,0,0-2.086-1.316l-.91,1.162a9.959,9.959,0,0,1,2.016,1.428ZM16.17,17.05c.546-1.358,1.12-2.968,1.568-4.466l-1.316-.84a42.718,42.718,0,0,1-1.736,4.48Zm1.442-7.7a4.732,4.732,0,0,1-.462,1.582,4.705,4.705,0,0,1,.686.49,6.443,6.443,0,0,0,.574-1.876Zm2.38,4.858.112-.448h6.2V11.45H18.368v.924h6.4v.448H18.788a23.682,23.682,0,0,1-.63,2.394h7.084a1.411,1.411,0,0,1-.406.728,1,1,0,0,1-.6.112c-.336,0-1.274-.014-2.1-.1a2.815,2.815,0,0,1,.448,1.218c.868.028,1.708.042,2.17.028a2.2,2.2,0,0,0,1.3-.364,3.493,3.493,0,0,0,.854-2.044,3.743,3.743,0,0,0,.084-.588Zm6.244-4.872a7.741,7.741,0,0,1,.476,1.764l.7-.322a8.056,8.056,0,0,0-.5-1.694Zm5.88,6.86c2.1,0,3.486-1.2,3.486-2.772a3.013,3.013,0,0,0-1.736-2.772v-.07A3.018,3.018,0,0,0,35.2,8.216a2.719,2.719,0,0,0-3.01-2.758c-1.806,0-3.122,1.064-3.122,2.73a2.951,2.951,0,0,0,1.372,2.464v.07a3.015,3.015,0,0,0-1.778,2.7C28.658,15.048,30.142,16.2,32.116,16.2Zm.658-6.118c-1.092-.434-1.89-.91-1.89-1.89A1.2,1.2,0,0,1,32.144,6.9a1.32,1.32,0,0,1,1.372,1.442A2.481,2.481,0,0,1,32.774,10.078Zm-.6,4.662a1.588,1.588,0,0,1-1.736-1.54,2.491,2.491,0,0,1,.952-1.918c1.344.546,2.3.994,2.3,2.072A1.358,1.358,0,0,1,32.172,14.74Zm6.37-3,1.61-2.576c.294-.56.574-1.134.826-1.68h.056c-.028.6-.084,1.54-.084,2.142v2.114Zm5.558,0H42.868V5.64H40.4L36.54,11.912v1.4h4.41V16h1.918V13.312H44.1Zm3.36.266c1.484,0,2.534-1.218,2.534-3.3s-1.05-3.262-2.534-3.262-2.52,1.19-2.52,3.262S45.976,12.01,47.46,12.01Zm0-1.162c-.6,0-1.064-.616-1.064-2.142s.462-2.1,1.064-2.1,1.078.574,1.078,2.1S48.062,10.848,47.46,10.848Zm.35,5.348h1.2L54.656,5.444H53.438Zm7.182,0c1.47,0,2.534-1.232,2.534-3.3s-1.064-3.276-2.534-3.276-2.52,1.19-2.52,3.276S53.522,16.2,54.992,16.2Zm0-1.176c-.6,0-1.078-.6-1.078-2.128s.476-2.114,1.078-2.114,1.078.588,1.078,2.114S55.594,15.02,54.992,15.02Z" transform="translate(209.51 28.936)" fill="#4891f2"/>
      <path id="內文p-3" data-name="內文p" d="M5.39,16.2c2.744,0,4.634-2.058,4.634-5.418S8.134,5.444,5.39,5.444.756,7.4.756,10.778,2.646,16.2,5.39,16.2Zm0-1.792c-1.54,0-2.52-1.414-2.52-3.626s.98-3.556,2.52-3.556,2.52,1.33,2.52,3.556S6.93,14.4,5.39,14.4ZM12.054,16h6.51V14.264H14.126V11.492h3.64V9.756h-3.64V7.362H18.41V5.64H12.054Zm12.838.2a4.193,4.193,0,0,0,3.3-1.526L27.1,13.382A2.881,2.881,0,0,1,24.962,14.4c-1.638,0-2.7-1.358-2.7-3.612,0-2.226,1.176-3.57,2.744-3.57a2.672,2.672,0,0,1,1.9.868L28,6.774a4.226,4.226,0,0,0-3.038-1.33c-2.618,0-4.816,2-4.816,5.418C20.146,14.32,22.274,16.2,24.892,16.2Zm4.97-.2h2.954c3.052,0,5.012-1.736,5.012-5.222S35.868,5.64,32.7,5.64H29.862Zm2.072-1.666V7.292h.644c1.932,0,3.136.952,3.136,3.486s-1.2,3.556-3.136,3.556Zm20.02-3.43h-5.5V6.662h4.69V5.01H40V6.662h4.718V10.9H39.27V12.6h5.446v4.62h1.736V12.6h5.5Zm-11.1-3.346a14.04,14.04,0,0,1,1.022,2.912l1.624-.5a12.77,12.77,0,0,0-1.12-2.856Zm8.176,2.884a27.393,27.393,0,0,0,1.54-2.926L48.79,7.068a16.589,16.589,0,0,1-1.218,2.954Zm7.224,1.582V8.944h1.33V7.362h-1.33V4.324H54.7V7.362h-1.47V8.944H54.7v3.738c-.672.252-1.26.49-1.75.658l.672,1.68c1.26-.588,2.814-1.33,4.27-2.058L57.5,11.506Zm2.926,1.624h4.27V12.22h-4.27Zm.686-4.13v1.428H63.14V9.518Zm6.062-3.276H60.914c.224-.574.42-1.134.588-1.722l-1.54-.378A13.22,13.22,0,0,1,57.61,9,9.756,9.756,0,0,1,59,9.882a12.942,12.942,0,0,0,1.26-2.128H64.33c-.126,5-.266,7.238-.7,7.686a.694.694,0,0,1-.6.224c-.406,0-1.274,0-2.268-.084a3.854,3.854,0,0,1,.574,1.624,17.378,17.378,0,0,0,2.31-.028,1.853,1.853,0,0,0,1.414-.812c.56-.77.714-2.968.868-9.324ZM70.448,16.2a3.5,3.5,0,0,0,3.626-3.64,3.008,3.008,0,0,0-3.192-3.29,2.68,2.68,0,0,0-1.246.294l.2-2.2H73.6V5.64H68.054l-.28,5.026.938.616a2.479,2.479,0,0,1,1.554-.546,1.677,1.677,0,0,1,1.75,1.876,1.74,1.74,0,0,1-1.834,1.9,3.22,3.22,0,0,1-2.282-1.05l-.952,1.316A4.722,4.722,0,0,0,70.448,16.2Zm8.246,0a3.5,3.5,0,0,0,3.626-3.64,3.008,3.008,0,0,0-3.192-3.29,2.68,2.68,0,0,0-1.246.294l.2-2.2h3.766V5.64H76.3l-.28,5.026.938.616a2.479,2.479,0,0,1,1.554-.546,1.677,1.677,0,0,1,1.75,1.876,1.74,1.74,0,0,1-1.834,1.9,3.22,3.22,0,0,1-2.282-1.05l-.952,1.316A4.722,4.722,0,0,0,78.694,16.2Zm7.35-4.186c1.484,0,2.534-1.218,2.534-3.3s-1.05-3.262-2.534-3.262-2.52,1.19-2.52,3.262S84.56,12.01,86.044,12.01Zm0-1.162c-.6,0-1.064-.616-1.064-2.142s.462-2.1,1.064-2.1,1.078.574,1.078,2.1S86.646,10.848,86.044,10.848Zm.35,5.348h1.2L93.24,5.444H92.022Zm7.182,0c1.47,0,2.534-1.232,2.534-3.3s-1.064-3.276-2.534-3.276-2.52,1.19-2.52,3.276S92.106,16.2,93.576,16.2Zm0-1.176c-.6,0-1.078-.6-1.078-2.128s.476-2.114,1.078-2.114,1.078.588,1.078,2.114S94.178,15.02,93.576,15.02Z" transform="translate(62.51 49.936)" fill="#7e8391"/>
      <g id="Group_1778" data-name="Group 1778" transform="translate(26 0)">
        <rect id="Rectangle_2244" data-name="Rectangle 2244" width="183" height="21" rx="2" transform="translate(-7.49 -0.064)" fill="#eeeeef"/>
        <path id="Polygon_4" data-name="Polygon 4" d="M4.606,1.789a1,1,0,0,1,1.789,0l3.882,7.764A1,1,0,0,1,9.382,11H1.618A1,1,0,0,1,.724,9.553Z" transform="translate(154.51 28.936) rotate(180)" fill="#eeeeef"/>
        <path id="內文p-4" data-name="內文p" d="M15.2,14.36V12.44H8.832a15.587,15.587,0,0,0,.1-1.92V9.912H13.84V7.976H8.928V5.448h-2V7.976H4.7c.224-.624.432-1.264.608-1.92L3.3,5.624A12.383,12.383,0,0,1,.7,10.968,13.8,13.8,0,0,1,2.56,11.992a11.937,11.937,0,0,0,1.3-2.08H6.928v.608A13.047,13.047,0,0,1,6.8,12.44H.816v1.92h5.44C5.488,16.12,3.872,17.7.512,18.7A7.377,7.377,0,0,1,1.728,20.36c3.616-1.1,5.44-2.912,6.336-4.944a9.273,9.273,0,0,0,6.352,4.976,7.135,7.135,0,0,1,1.28-1.808A8.207,8.207,0,0,1,9.632,14.36Zm3.168,2.064a7.1,7.1,0,0,1-2,2.928,10.732,10.732,0,0,1,1.52,1.072,10.237,10.237,0,0,0,2.288-3.552Zm9.952-6.336a16.491,16.491,0,0,1-1.008,3.92,19.029,19.029,0,0,1-1.2-3.92ZM21.472,9.016H19.2V7.576h2.272Zm0,2.88H19.2V10.44h2.272Zm0,2.9H19.2V13.32h2.272Zm10-4.7V8.3H26.688A24.618,24.618,0,0,0,27.3,5.752l-1.984-.3a15.441,15.441,0,0,1-1.984,5.728v-5.1h-5.92V16.3h5.92V12.808c.32.256.624.528.8.688a9.048,9.048,0,0,0,.72-.976,17.722,17.722,0,0,0,1.328,3.5,8.286,8.286,0,0,1-2.7,2.3,13.226,13.226,0,0,0-1.408-1.936l-1.536.672a12.678,12.678,0,0,1,1.648,2.656l1.024-.528a8.824,8.824,0,0,1,.7,1.232A10.565,10.565,0,0,0,27.28,17.8a9.309,9.309,0,0,0,3.088,2.576A7.329,7.329,0,0,1,31.7,18.664,7.95,7.95,0,0,1,28.48,16.04a18.484,18.484,0,0,0,1.856-5.952Zm4.8-1.968v2.816H34.8V8.12ZM34.8,15.608V12.6h1.472v3.008Zm3.248-9.184H33.04V18.712H34.8V17.3h3.248Zm.928,9.536a22.562,22.562,0,0,1,1.84,2.688l1.664-.976a20.5,20.5,0,0,0-1.92-2.56Zm8.432-7.136V7.16h-3.6V5.448H41.936V7.16h-3.6V8.824h3.6v1.52H38.848v1.648h5.1V13.24h-5.6v1.648h5.6v3.44c0,.224-.08.288-.336.288-.24,0-1.12,0-1.888-.032a6.928,6.928,0,0,1,.592,1.792,7.035,7.035,0,0,0,2.672-.32c.64-.288.816-.768.816-1.68V14.888h1.536V13.24H45.808V11.992h1.168V10.344H43.808V8.824Zm2.448,4.464a22.367,22.367,0,0,0,.72-4.5L49.184,8.6a18.26,18.26,0,0,1-.784,4.176ZM56.528,17.8V14.744h4.528V17.8Zm4.528-7.712v2.9H56.528v-2.9ZM59.344,8.264c.256-.784.528-1.664.768-2.544L57.872,5.5a23.4,23.4,0,0,1-.48,2.768h-2.72v2.848a19.968,19.968,0,0,0-1.136-3.024l-1.072.432V5.448h-1.84V20.392h1.84V9.32a14.569,14.569,0,0,1,.784,2.512l1.424-.656v9.216h1.856V19.64h4.528v.624h1.952v-12Zm8.912,9.552V16.152h7.6v1.664Zm7.6-5.072v1.648h-7.6V12.744Zm0-3.408v1.648h-7.6V9.336ZM72.4,7.512c.256-.576.512-1.2.752-1.84l-2.3-.256a18.108,18.108,0,0,1-.432,2.1h-4.1V20.376h1.936v-.8h7.6v.784h2.032V7.512ZM86.336,18.2c-1.712,0-2-.144-2-.992V13.352h7.136v.912H93.5V6.36H82.16V8.312h9.312V11.48h-9.12v5.76c0,2.288.976,2.864,3.968,2.864H91.5c2.864,0,3.568-.832,3.92-3.888a7.267,7.267,0,0,1-1.936-.72c-.208,2.3-.432,2.7-2.032,2.7Zm15.1-4.16h5.04v1.168h-5.04Zm5.04-5.248v.992h-5.04V8.792Zm-5.04,2.576h5.04V12.44h-5.04Zm9.712,5.584V15.208h-2.736V8.792h2.336V7.048h-2.336V5.5H106.48V7.048h-5.04V5.5H99.552V7.048H97.328V8.792h2.224v6.416h-2.7v1.744h4.672a21.527,21.527,0,0,1-4.88,2.016,9.955,9.955,0,0,1,1.232,1.408,28.122,28.122,0,0,0,5.312-2.224l-1.52-1.2Zm-6.352,1.28a30.6,30.6,0,0,1,4.608,2.112l1.824-1.2a46.161,46.161,0,0,0-5.072-2.08ZM114.912,8.216H125.04V9.528h1.776V6.744h-5.84a8.585,8.585,0,0,0-.736-1.424l-1.664.464a7.632,7.632,0,0,1,.464.96H113.2V9.528h1.712Zm1.76,8.528h6.656v.512h-6.656Zm0-1.392h6.656v.5h-6.656Zm0-1.376h6.656v.464h-6.656Zm8.592,4.224V13.016H114.832V18.2h2.288a21.343,21.343,0,0,1-4.208.992,9.16,9.16,0,0,1,1.008,1.3,19.777,19.777,0,0,0,5.44-1.584l-.96-.7h2.928l-.656.72c1.84.48,3.712,1.12,4.864,1.552l1.3-1.168c-.944-.3-2.352-.72-3.76-1.1Zm-4.672-6.592.064-.512H122.7l-.048.512Zm-3.6-.512H119.1l-.064.512h-2.112Zm2.256-1.408-.048.464h-2.1l.064-.464Zm3.536.464h-2.016l.032-.464h2.016Zm1.776-.208.112-1.216h-9.056l-.16,1.216h-2.7V11.3h2.512l-.16,1.248h9.2l.128-1.248h2.9V9.944Zm16.048-1.392c-.1,1.216-.24,1.792-.432,1.984a.781.781,0,0,1-.56.16,17.311,17.311,0,0,1-1.76-.1,3.988,3.988,0,0,1,.56,1.76,20.257,20.257,0,0,0,2.08-.032,1.81,1.81,0,0,0,1.28-.576c.432-.48.64-1.632.8-4.208.032-.256.048-.7.048-.7h-5.216c.08-.384.144-.768.208-1.168l-1.968-.224c-.32,2.64-1.152,4.848-2.784,6.128a10.918,10.918,0,0,1,1.648,1.2,9.55,9.55,0,0,0,2.464-4.224Zm-7.12-1.392a11.871,11.871,0,0,0-3.008-1.648L129.44,6.92a11.749,11.749,0,0,1,2.928,1.792Zm-.96,4.24A12.772,12.772,0,0,0,129.5,9.8l-.992,1.424a13.139,13.139,0,0,1,2.96,1.744Zm-.592,2.512a50.087,50.087,0,0,1-2.9,5.024l1.632,1.248c.928-1.536,1.888-3.36,2.688-5.04Zm8.112.64a6.811,6.811,0,0,1-1.648,1.872,7.84,7.84,0,0,1-1.712-1.872Zm1.36-1.76-.336.064h-7.1v1.7h2.16l-1.232.416a10.737,10.737,0,0,0,1.92,2.464,13.837,13.837,0,0,1-4.032,1.232,6.392,6.392,0,0,1,.944,1.712,15.417,15.417,0,0,0,4.672-1.7,12.715,12.715,0,0,0,4,1.68,7.348,7.348,0,0,1,1.248-1.712,13.87,13.87,0,0,1-3.584-1.184,9.416,9.416,0,0,0,2.608-4.16Zm17.536.48V11.32h-6.1c.016-.416.032-.816.032-1.2V8.472h5.44V6.52H145.648V8.472h5.232v1.616c0,.4-.016.8-.048,1.232h-5.76v1.952h5.36c-.656,2.032-2.224,4.1-5.92,5.408a7.335,7.335,0,0,1,1.248,1.648c3.6-1.344,5.408-3.36,6.288-5.488a10.256,10.256,0,0,0,6.288,5.44,6.817,6.817,0,0,1,1.312-1.776,9.031,9.031,0,0,1-6.288-5.232Zm8.176-7.584V7.464h2.544a13.289,13.289,0,0,0,2.416,3.824h-8.288A16.576,16.576,0,0,0,166.3,6.472l-2-.48a11.3,11.3,0,0,1-3.968,5.84,12.428,12.428,0,0,1,1.6,1.408,13.511,13.511,0,0,0,1.2-1.152v1.056h2.7c-.32,2.32-1.152,4.432-4.768,5.6a6.375,6.375,0,0,1,1.264,1.76c4.144-1.552,5.184-4.288,5.584-7.36h3.152c-.144,3.328-.32,4.752-.64,5.1a.742.742,0,0,1-.64.224c-.4,0-1.232-.016-2.112-.08a4.6,4.6,0,0,1,.624,1.92,16.007,16.007,0,0,0,2.416-.048,1.9,1.9,0,0,0,1.456-.768c.56-.656.752-2.5.928-7.216a11.109,11.109,0,0,0,1.216.928,10.849,10.849,0,0,1,1.344-1.76,9.869,9.869,0,0,1-4.592-5.76Z" transform="translate(-2.49 -2.064)" fill="#303236"/>
      </g>
    </g>
    <g id="Group_1938" data-name="Group 1938" transform="translate(-8780.51 -14142.362)">
      <path id="內文p-5" data-name="內文p" d="M9.926,12.654v2.24H3.99v-2.24ZM2.282,17.2H3.99V16.49H9.926v.7h1.792V11.058H2.282ZM8.148,6.3C8.666,6.816,9.226,7.4,9.772,8.02L4.032,8.2a23.013,23.013,0,0,0,3.052-3.57L5.4,3.918A18.681,18.681,0,0,1,2.436,7.726a2.884,2.884,0,0,1-1.162.812,12.746,12.746,0,0,1,.546,1.6c.742-.252,1.736-.28,9.17-.644a12.247,12.247,0,0,1,.728,1.064l1.414-1.022A25.446,25.446,0,0,0,9.45,5.43Zm19.32,2.408a8.631,8.631,0,0,0-.63-1.5l-.686.252c.056.112.112.238.168.364l-.784.084A12.724,12.724,0,0,0,27.02,5.85l-.854-.378c-.1.21-.21.42-.322.63L25.2,6.13A9.35,9.35,0,0,0,26.082,4.6l-.9-.336a6.246,6.246,0,0,1-.854,1.792c-.154.21-.28.35-.448.378a4.5,4.5,0,0,1,.308.672A5.329,5.329,0,0,1,25.3,6.942a8.784,8.784,0,0,1-.7.868,1.171,1.171,0,0,1-.658.49,2.986,2.986,0,0,1,.322.686,9.492,9.492,0,0,1,2.366-.434c.056.168.112.322.14.448Zm-1.316,2.338a7.653,7.653,0,0,0-.308-1.694l-.714.2a8.681,8.681,0,0,1,.28,1.75ZM24.22,9.28a4.546,4.546,0,0,1-.462,1.582,4.153,4.153,0,0,1,.672.49A5.952,5.952,0,0,0,25,9.49Zm-.252-3.752H22.554l.56-.14a9,9,0,0,0-.5-1.078l-1.092.224a6.816,6.816,0,0,1,.42.994H20.622V6.4h3.346Zm-.28,2.31h-2.66v.756h2.66ZM21.98,9.714h.7v.616h-.7Zm-.966,1.344h2.674V8.972H21.014Zm2.674-4.3h-2.66v.756h2.66ZM20.86,8.678a9.488,9.488,0,0,0-.616-1.47l-.7.252c.056.112.126.238.182.364l-.8.084a11.929,11.929,0,0,0,1.5-2.044l-.854-.406a6.881,6.881,0,0,1-.336.63l-.63.028a7.237,7.237,0,0,0,.868-1.526l-.9-.322a6.971,6.971,0,0,1-.84,1.792.734.734,0,0,1-.462.378,3.665,3.665,0,0,1,.336.658A3.716,3.716,0,0,1,18.7,6.914a7.149,7.149,0,0,1-.7.9c-.252.266-.434.448-.658.476a4.814,4.814,0,0,1,.322.686,11.45,11.45,0,0,1,2.352-.434,4.459,4.459,0,0,1,.126.434Zm-.14,1.848a6.236,6.236,0,0,0-.42-1.442l-.644.252a6.028,6.028,0,0,1,.378,1.5Zm-1.148.392a6.252,6.252,0,0,0-.294-1.568l-.714.182a7.514,7.514,0,0,1,.266,1.624ZM17.64,5.724A10.138,10.138,0,0,0,15.61,4.31l-.952,1.12a9.368,9.368,0,0,1,1.96,1.54Zm-.28,3.57a9.348,9.348,0,0,0-2.086-1.316l-.91,1.162a9.959,9.959,0,0,1,2.016,1.428ZM16.17,17.05c.546-1.358,1.12-2.968,1.568-4.466l-1.316-.84a42.718,42.718,0,0,1-1.736,4.48Zm1.442-7.7a4.732,4.732,0,0,1-.462,1.582,4.705,4.705,0,0,1,.686.49,6.443,6.443,0,0,0,.574-1.876Zm2.38,4.858.112-.448h6.2V11.45H18.368v.924h6.4v.448H18.788a23.682,23.682,0,0,1-.63,2.394h7.084a1.411,1.411,0,0,1-.406.728,1,1,0,0,1-.6.112c-.336,0-1.274-.014-2.1-.1a2.815,2.815,0,0,1,.448,1.218c.868.028,1.708.042,2.17.028a2.2,2.2,0,0,0,1.3-.364,3.493,3.493,0,0,0,.854-2.044,3.743,3.743,0,0,0,.084-.588Zm6.244-4.872a7.741,7.741,0,0,1,.476,1.764l.7-.322a8.056,8.056,0,0,0-.5-1.694ZM30.6,16H32.69c.168-4.06.49-6.174,2.9-9.114V5.64H28.7V7.362h4.662C31.388,10.106,30.786,12.4,30.6,16Zm8.246,0h2.086c.168-4.06.49-6.174,2.9-9.114V5.64H36.946V7.362h4.662C39.634,10.106,39.032,12.4,38.85,16Zm8.61-3.99c1.484,0,2.534-1.218,2.534-3.3s-1.05-3.262-2.534-3.262-2.52,1.19-2.52,3.262S45.976,12.01,47.46,12.01Zm0-1.162c-.6,0-1.064-.616-1.064-2.142s.462-2.1,1.064-2.1,1.078.574,1.078,2.1S48.062,10.848,47.46,10.848Zm.35,5.348h1.2L54.656,5.444H53.438Zm7.182,0c1.47,0,2.534-1.232,2.534-3.3s-1.064-3.276-2.534-3.276-2.52,1.19-2.52,3.276S53.522,16.2,54.992,16.2Zm0-1.176c-.6,0-1.078-.6-1.078-2.128s.476-2.114,1.078-2.114,1.078.588,1.078,2.114S55.594,15.02,54.992,15.02Z" transform="translate(211.51 29.362)" fill="#4891f2"/>
      <path id="內文p-6" data-name="內文p" d="M5.39,16.2c2.744,0,4.634-2.058,4.634-5.418S8.134,5.444,5.39,5.444.756,7.4.756,10.778,2.646,16.2,5.39,16.2Zm0-1.792c-1.54,0-2.52-1.414-2.52-3.626s.98-3.556,2.52-3.556,2.52,1.33,2.52,3.556S6.93,14.4,5.39,14.4ZM12.054,16h6.51V14.264H14.126V11.492h3.64V9.756h-3.64V7.362H18.41V5.64H12.054Zm12.838.2a4.193,4.193,0,0,0,3.3-1.526L27.1,13.382A2.881,2.881,0,0,1,24.962,14.4c-1.638,0-2.7-1.358-2.7-3.612,0-2.226,1.176-3.57,2.744-3.57a2.672,2.672,0,0,1,1.9.868L28,6.774a4.226,4.226,0,0,0-3.038-1.33c-2.618,0-4.816,2-4.816,5.418C20.146,14.32,22.274,16.2,24.892,16.2Zm4.97-.2h2.954c3.052,0,5.012-1.736,5.012-5.222S35.868,5.64,32.7,5.64H29.862Zm2.072-1.666V7.292h.644c1.932,0,3.136.952,3.136,3.486s-1.2,3.556-3.136,3.556Zm20.02-3.43h-5.5V6.662h4.69V5.01H40V6.662h4.718V10.9H39.27V12.6h5.446v4.62h1.736V12.6h5.5Zm-11.1-3.346a14.04,14.04,0,0,1,1.022,2.912l1.624-.5a12.77,12.77,0,0,0-1.12-2.856Zm8.176,2.884a27.393,27.393,0,0,0,1.54-2.926L48.79,7.068a16.589,16.589,0,0,1-1.218,2.954Zm7.224,1.582V8.944h1.33V7.362h-1.33V4.324H54.7V7.362h-1.47V8.944H54.7v3.738c-.672.252-1.26.49-1.75.658l.672,1.68c1.26-.588,2.814-1.33,4.27-2.058L57.5,11.506Zm2.926,1.624h4.27V12.22h-4.27Zm.686-4.13v1.428H63.14V9.518Zm6.062-3.276H60.914c.224-.574.42-1.134.588-1.722l-1.54-.378A13.22,13.22,0,0,1,57.61,9,9.756,9.756,0,0,1,59,9.882a12.942,12.942,0,0,0,1.26-2.128H64.33c-.126,5-.266,7.238-.7,7.686a.694.694,0,0,1-.6.224c-.406,0-1.274,0-2.268-.084a3.854,3.854,0,0,1,.574,1.624,17.378,17.378,0,0,0,2.31-.028,1.853,1.853,0,0,0,1.414-.812c.56-.77.714-2.968.868-9.324ZM70.448,16.2a3.5,3.5,0,0,0,3.626-3.64,3.008,3.008,0,0,0-3.192-3.29,2.68,2.68,0,0,0-1.246.294l.2-2.2H73.6V5.64H68.054l-.28,5.026.938.616a2.479,2.479,0,0,1,1.554-.546,1.677,1.677,0,0,1,1.75,1.876,1.74,1.74,0,0,1-1.834,1.9,3.22,3.22,0,0,1-2.282-1.05l-.952,1.316A4.722,4.722,0,0,0,70.448,16.2Zm6.678-4.452,1.61-2.576c.294-.56.574-1.134.826-1.68h.056c-.028.6-.084,1.54-.084,2.142v2.114Zm5.558,0H81.452V5.64H78.988l-3.864,6.272v1.4h4.41V16h1.918V13.312h1.232Zm2.66,4.452a1.346,1.346,0,1,0-1.274-1.344A1.289,1.289,0,0,0,85.344,16.2Zm6.146,0a3.5,3.5,0,0,0,3.626-3.64,3.008,3.008,0,0,0-3.192-3.29,2.68,2.68,0,0,0-1.246.294l.2-2.2H94.64V5.64H89.1l-.28,5.026.938.616a2.479,2.479,0,0,1,1.554-.546,1.677,1.677,0,0,1,1.75,1.876,1.74,1.74,0,0,1-1.834,1.9,3.22,3.22,0,0,1-2.282-1.05l-.952,1.316A4.722,4.722,0,0,0,91.49,16.2Zm7.35-4.186c1.484,0,2.534-1.218,2.534-3.3s-1.05-3.262-2.534-3.262-2.52,1.19-2.52,3.262S97.356,12.01,98.84,12.01Zm0-1.162c-.6,0-1.064-.616-1.064-2.142s.462-2.1,1.064-2.1,1.078.574,1.078,2.1S99.442,10.848,98.84,10.848Zm.35,5.348h1.2l5.642-10.752h-1.218Zm7.182,0c1.47,0,2.534-1.232,2.534-3.3s-1.064-3.276-2.534-3.276-2.52,1.19-2.52,3.276S104.9,16.2,106.372,16.2Zm0-1.176c-.6,0-1.078-.6-1.078-2.128s.476-2.114,1.078-2.114,1.078.588,1.078,2.114S106.974,15.02,106.372,15.02Z" transform="translate(59.51 53.362)" fill="#7e8391"/>
      <g id="Group_1779" data-name="Group 1779" transform="translate(45 0)">
        <rect id="Rectangle_2244-2" data-name="Rectangle 2244" width="218" height="21" rx="2" transform="translate(-43.49 0.362)" fill="#eeeeef"/>
        <path id="Polygon_4-2" data-name="Polygon 4" d="M4.09,2A1,1,0,0,1,5.91,2L9.357,9.586A1,1,0,0,1,8.447,11H1.553a1,1,0,0,1-.91-1.414Z" transform="translate(119.51 29.362) rotate(180)" fill="#eeeeef"/>
        <path id="內文p-7" data-name="內文p" d="M15.2,14.36V12.44H8.832a15.587,15.587,0,0,0,.1-1.92V9.912H13.84V7.976H8.928V5.448h-2V7.976H4.7c.224-.624.432-1.264.608-1.92L3.3,5.624A12.383,12.383,0,0,1,.7,10.968,13.8,13.8,0,0,1,2.56,11.992a11.937,11.937,0,0,0,1.3-2.08H6.928v.608A13.047,13.047,0,0,1,6.8,12.44H.816v1.92h5.44C5.488,16.12,3.872,17.7.512,18.7A7.377,7.377,0,0,1,1.728,20.36c3.616-1.1,5.44-2.912,6.336-4.944a9.273,9.273,0,0,0,6.352,4.976,7.135,7.135,0,0,1,1.28-1.808A8.207,8.207,0,0,1,9.632,14.36Zm3.168,2.064a7.1,7.1,0,0,1-2,2.928,10.732,10.732,0,0,1,1.52,1.072,10.237,10.237,0,0,0,2.288-3.552Zm9.952-6.336a16.491,16.491,0,0,1-1.008,3.92,19.029,19.029,0,0,1-1.2-3.92ZM21.472,9.016H19.2V7.576h2.272Zm0,2.88H19.2V10.44h2.272Zm0,2.9H19.2V13.32h2.272Zm10-4.7V8.3H26.688A24.618,24.618,0,0,0,27.3,5.752l-1.984-.3a15.441,15.441,0,0,1-1.984,5.728v-5.1h-5.92V16.3h5.92V12.808c.32.256.624.528.8.688a9.048,9.048,0,0,0,.72-.976,17.722,17.722,0,0,0,1.328,3.5,8.286,8.286,0,0,1-2.7,2.3,13.226,13.226,0,0,0-1.408-1.936l-1.536.672a12.678,12.678,0,0,1,1.648,2.656l1.024-.528a8.824,8.824,0,0,1,.7,1.232A10.565,10.565,0,0,0,27.28,17.8a9.309,9.309,0,0,0,3.088,2.576A7.329,7.329,0,0,1,31.7,18.664,7.95,7.95,0,0,1,28.48,16.04a18.484,18.484,0,0,0,1.856-5.952Zm4.8-1.968v2.816H34.8V8.12ZM34.8,15.608V12.6h1.472v3.008Zm3.248-9.184H33.04V18.712H34.8V17.3h3.248Zm.928,9.536a22.562,22.562,0,0,1,1.84,2.688l1.664-.976a20.5,20.5,0,0,0-1.92-2.56Zm8.432-7.136V7.16h-3.6V5.448H41.936V7.16h-3.6V8.824h3.6v1.52H38.848v1.648h5.1V13.24h-5.6v1.648h5.6v3.44c0,.224-.08.288-.336.288-.24,0-1.12,0-1.888-.032a6.928,6.928,0,0,1,.592,1.792,7.035,7.035,0,0,0,2.672-.32c.64-.288.816-.768.816-1.68V14.888h1.536V13.24H45.808V11.992h1.168V10.344H43.808V8.824ZM58.8,16.168v.64H53.216v-.64ZM53.216,18.7v-.64H58.8v.64Zm-1.872,1.68h1.872v-.432H58.8v.384h1.952V14.92H51.344Zm-.08-10.32a19.31,19.31,0,0,0,1.936-.88V9.5h5.616V9.08a17.7,17.7,0,0,0,2.176.976Zm8.608,3.184h-1.3c.256-.448.56-1.072.88-1.712l-1.248-.3h1.664Zm-7.84,0V11.224H53.84l-1.232.352a6.319,6.319,0,0,1,.544,1.664Zm3.136,0H53.536l1.024-.32a7.239,7.239,0,0,0-.64-1.7h1.248Zm2.688-2.016a12.516,12.516,0,0,1-.624,1.744l.96.272H56.7V11.224Zm-3.088-2.96c.48-.336.944-.688,1.36-1.04a15.627,15.627,0,0,0,1.344,1.04ZM55.68,5.32c-1.456,1.856-4.3,3.184-7.248,3.872a10.21,10.21,0,0,1,1.024,1.472c.32-.08.656-.192.992-.3v4.032h11.12V10.264c.336.1.672.208.992.288A6.541,6.541,0,0,1,63.76,9.1a15.382,15.382,0,0,1-6.64-2.88c.08-.1.16-.208.24-.3ZM68.672,9.24v1.632h1.68V9.24h1.536V7.848H67.536c.016-.176.016-.352.016-.512A17.8,17.8,0,0,0,71.68,6.6L70.624,5.5a20.514,20.514,0,0,1-4.7.72V7.288a3.417,3.417,0,0,1-1.392,2.976A6.816,6.816,0,0,1,65.76,11.48a4.652,4.652,0,0,0,1.52-2.24Zm6.592,3.792H68.656v-.72h6.608Zm0,1.792H68.656v-.736h6.608Zm0,1.792H68.656V15.9h6.608Zm1.648-5.7V9.24h2.256V7.848H74.032c.016-.16.016-.32.016-.48v-.08a19.332,19.332,0,0,0,4.528-.768L77.392,5.464a20.9,20.9,0,0,1-4.944.7V7.336A3.741,3.741,0,0,1,71.3,10.328a7.935,7.935,0,0,1,1.264.848H66.832v6.592h2.112a25.614,25.614,0,0,1-4.128,1.12,12.923,12.923,0,0,1,.912,1.6,28.967,28.967,0,0,0,5.152-2.112l-1.04-.608h4.144l-.576.928a45.554,45.554,0,0,1,4.816,1.776l.88-1.328c-1.008-.4-2.528-.928-4.032-1.376h2.112V11.176H72.768A4.359,4.359,0,0,0,73.824,9.24H75.2v1.68Zm8.88-.112a6.272,6.272,0,0,0,1.472-.128c-.064-.432-.128-1.088-.176-1.584a6.775,6.775,0,0,1-1.36.128H83.776c-.416,0-.5-.176-.5-.672V8.024h3.808V6.552H83.28V5.528H81.44V8.536c0,1.632.448,2.272,2.224,2.272Zm-3.648,4c.208-.368.432-.8.64-1.264h.832v1.264Zm4.992,3.008c-.256-.24-1.168-.976-1.808-1.44h2.1V14.808H85.392V13.544h1.776V12.008H83.312c.08-.32.16-.624.224-.944l-1.7-.32a7.756,7.756,0,0,1-1.28,3.328,10.234,10.234,0,0,1,1.344.736H80.672v1.568h2.64a5.008,5.008,0,0,1-2.752,2.768,6.583,6.583,0,0,1,1.248,1.248,6.849,6.849,0,0,0,2.832-2.72,17.942,17.942,0,0,1,1.408,1.616Zm5.056-1.488h2.624V14.76H92.192V12.632H93.44a10.252,10.252,0,0,1-.4,1.28l1.36.384a16.255,16.255,0,0,0,1.024-3.024l-1.168-.256L94,11.064H92.928l.864-.96c-.32-.208-.736-.464-1.2-.72a12.689,12.689,0,0,0,2.592-2.832l-1.136-.736-.336.1H87.888V7.384h4.56a9.153,9.153,0,0,1-1.408,1.2c-.56-.272-1.088-.5-1.568-.688L88.336,9.064a28.068,28.068,0,0,1,3.712,2h-4.48v1.568h2.944v4.992a4.637,4.637,0,0,1-.976-1.712,22.071,22.071,0,0,0,.192-2.432l-1.664-.064c-.048,2.608-.352,4.72-1.7,6.016a7.363,7.363,0,0,1,1.424,1.024A6.4,6.4,0,0,0,89.1,17.992,4.395,4.395,0,0,0,93.376,20.2h1.712a5.544,5.544,0,0,1,.48-1.536c-.48.016-1.728.016-2.064.016a6.08,6.08,0,0,1-1.312-.128Zm8.064,1.488V16.152h7.6v1.664Zm7.6-5.072v1.648h-7.6V12.744Zm0-3.408v1.648h-7.6V9.336ZM104.4,7.512c.256-.576.512-1.2.752-1.84l-2.3-.256a18.108,18.108,0,0,1-.432,2.1h-4.1V20.376h1.936v-.8h7.6v.784h2.032V7.512ZM118.336,18.2c-1.712,0-2-.144-2-.992V13.352h7.136v.912H125.5V6.36H114.16V8.312h9.312V11.48h-9.12v5.76c0,2.288.976,2.864,3.968,2.864H123.5c2.864,0,3.568-.832,3.92-3.888a7.267,7.267,0,0,1-1.936-.72c-.208,2.3-.432,2.7-2.032,2.7Zm12.608-1.136V13.928h2.544v3.136Zm2.544-4.784h-2.544V9.688h2.544Zm5.072-4.368a18.569,18.569,0,0,0,.624-2.032l-1.808-.416a16.55,16.55,0,0,1-2.16,5.152V8.024h-2.48c.272-.688.56-1.488.832-2.288l-2.08-.288a17.163,17.163,0,0,1-.464,2.576h-1.808V19.912h1.728V18.744h4.272V11.272a11.885,11.885,0,0,1,1.232.9,13.8,13.8,0,0,0,1.408-2.528h3.424c-.176,5.648-.384,8.048-.848,8.56a.853.853,0,0,1-.7.272c-.416,0-1.36,0-2.384-.1a4.483,4.483,0,0,1,.624,1.856,17.935,17.935,0,0,0,2.512-.032,2.135,2.135,0,0,0,1.536-.88c.656-.848.832-3.392,1.04-10.544.016-.224.016-.864.016-.864Zm1.856,7.3a38.615,38.615,0,0,0-2.352-3.552l-1.488.848a34.238,34.238,0,0,1,2.224,3.7Zm18.752-1.536V11.784h-6.16V9.736h5.008V7.848h-5.008V5.464h-2.032V7.848h-4.864V9.736h4.864v2.048h-6.064v1.888H150.1a15.513,15.513,0,0,1-5.728,4.384,9.73,9.73,0,0,1,1.408,1.648,17.571,17.571,0,0,0,5.2-4.288v4.992h2.032V15.32a16.86,16.86,0,0,0,5.2,4.4,9.067,9.067,0,0,1,1.376-1.648,15.613,15.613,0,0,1-5.7-4.4ZM163.712,9.4a7.745,7.745,0,0,1-2.832,4.64,11.4,11.4,0,0,1,1.472,1.248,8.586,8.586,0,0,0,1.84-2.192,12.953,12.953,0,0,1,1.072,1.12l1.28-1.328c-.368-.384-.976-.912-1.552-1.408a15.623,15.623,0,0,0,.576-1.728Zm11.424,4.144c-.592-.544-1.7-1.392-2.608-2.1a14.218,14.218,0,0,0,.528-1.712L171.2,9.4a7.13,7.13,0,0,1-2.016,3.856c-.08-.128-.16-.24-.24-.368V9.3h6.032V7.432h-6.032V5.464h-2V7.432H161.12V9.3h5.824V13a14.161,14.161,0,0,1-6.48,5.152,11.742,11.742,0,0,1,1.344,1.632,15.435,15.435,0,0,0,5.136-3.952v4.56h2V15.736a15.38,15.38,0,0,0,5.184,4.048,8.738,8.738,0,0,1,1.408-1.744,14,14,0,0,1-6.112-4.464,8.9,8.9,0,0,1,1.248.816,6.713,6.713,0,0,0,1.072-1.376,21.868,21.868,0,0,1,2.064,1.856Zm8.08,3.136c-.384-.464-1.968-2.368-2.608-3.008l.032-.352h2.368V11.592h-2.256c.016-.336.016-.656.016-.96V9.576h2V7.9h-2V5.608h-1.776V7.9h-2.08v1.68h2.08v1.04c0,.3,0,.64-.016.976h-2.32V13.32h2.208a8.275,8.275,0,0,1-2.416,5.52,7.018,7.018,0,0,1,1.36,1.3,9.372,9.372,0,0,0,2.448-4.5c.624.816,1.28,1.792,1.664,2.416Zm2.048-4.112h3.5v.96h-3.5Zm0-2.432h3.5v.944h-3.5Zm0-2.448h3.5v.944h-3.5Zm3.9,10.752c-.24,0-.272-.048-.272-.464V15.208h1.712v-9.2h-7.1v9.2h1.2A3.931,3.931,0,0,1,181.648,19a4.364,4.364,0,0,1,1.04,1.424c2.816-1.072,3.52-2.848,3.792-5.216h.656v2.784c0,1.584.3,2.1,1.712,2.1h1.088c1.024,0,1.472-.448,1.664-2.08a4.6,4.6,0,0,1-1.536-.656c-.048.944-.112,1.088-.336,1.088Zm3.552,1.584c2.272-.08,5.68-.224,8.88-.368l.048-1.424c-3.28.144-6.784.256-9.056.32Zm6.64-4.352h-1.408v-.528h1.408Zm0,1.36h-1.408V16.52h1.408ZM194.9,16.52h1.472v.512H194.9Zm0-1.376h1.472v.528H194.9Zm-1.472-.88v3.664h7.488V14.264Zm5.808-4.688h-1.344V9h1.344Zm-1.344-2.24h1.344v.512h-1.344Zm2.944-1.024h-2.944V5.448h-1.7v.864h-2.736V7.336h2.736v.512h-3.6V9h3.6v.576h-2.784V10.6h2.784v.48h-2.816v1.04h2.816v.48h-3.5v1.2H201.6V12.6h-3.712v-.48h3.12V11.08h-3.12V10.6h2.944V9h.848V7.848h-.848Zm3.024,1.072h-1.728v9.008h1.728Zm1.28-1.616V18.184c0,.256-.1.336-.352.336-.272,0-1.056,0-1.9-.032a7.369,7.369,0,0,1,.576,1.872,5.952,5.952,0,0,0,2.7-.368c.576-.288.784-.8.784-1.808V5.768Z" transform="translate(-38.49 -1.638)" fill="#303236"/>
      </g>
      <rect id="Rectangle_2250" data-name="Rectangle 2250" width="207.417" height="15.725" rx="2" transform="translate(0.845 31.51)" fill="#4d505a"/>
      <path id="Rectangle_2248" data-name="Rectangle 2248" d="M2,0H159.691a0,0,0,0,1,0,0V15.725a0,0,0,0,1,0,0H2a2,2,0,0,1-2-2V2A2,2,0,0,1,2,0Z" transform="translate(0.845 31.354)" fill="#4891f2"/>
      <line id="Line_358" data-name="Line 358" y2="26.733" transform="translate(112.829 26.793)" fill="none" stroke="#f8f8f8" stroke-width="1" stroke-dasharray="1"/>
    </g>
    <rect id="Rectangle_2463" data-name="Rectangle 2463" width="161" height="22" rx="2" transform="translate(-8737 -14335)" fill="#eeeeef"/>
    <path id="內文p-8" data-name="內文p" d="M13.3,11.94V10.26H7.728a13.639,13.639,0,0,0,.084-1.68V8.048h4.3V6.354h-4.3V4.142H6.062V6.354H4.116c.2-.546.378-1.106.532-1.68L2.884,4.3A10.835,10.835,0,0,1,.616,8.972a12.074,12.074,0,0,1,1.624.9,10.445,10.445,0,0,0,1.134-1.82H6.062V8.58a11.416,11.416,0,0,1-.112,1.68H.714v1.68h4.76C4.8,13.48,3.388,14.866.448,15.734A6.455,6.455,0,0,1,1.512,17.19c3.164-.966,4.76-2.548,5.544-4.326a8.114,8.114,0,0,0,5.558,4.354,6.243,6.243,0,0,1,1.12-1.582,7.181,7.181,0,0,1-5.306-3.7Zm2.772,1.806a6.212,6.212,0,0,1-1.75,2.562,9.39,9.39,0,0,1,1.33.938,8.957,8.957,0,0,0,2-3.108ZM24.78,8.2a14.43,14.43,0,0,1-.882,3.43,16.65,16.65,0,0,1-1.05-3.43Zm-5.992-.938H16.8V6h1.988Zm0,2.52H16.8V8.51h1.988Zm0,2.534H16.8V11.03h1.988ZM27.538,8.2V6.634H23.352a21.542,21.542,0,0,0,.532-2.226l-1.736-.266a13.511,13.511,0,0,1-1.736,5.012V4.688h-5.18v8.946h5.18V10.582c.28.224.546.462.7.6a7.917,7.917,0,0,0,.63-.854A15.507,15.507,0,0,0,22.9,13.4a7.25,7.25,0,0,1-2.366,2.016,11.573,11.573,0,0,0-1.232-1.694l-1.344.588A11.093,11.093,0,0,1,19.4,16.63l.9-.462a7.721,7.721,0,0,1,.616,1.078,9.245,9.245,0,0,0,2.954-2.3,8.145,8.145,0,0,0,2.7,2.254,6.413,6.413,0,0,1,1.162-1.5,6.956,6.956,0,0,1-2.814-2.3A16.174,16.174,0,0,0,26.544,8.2Zm4.2-1.722V8.944H30.45V6.48ZM30.45,13.032V10.4h1.288v2.632ZM33.292,5H28.91V15.748h1.54V14.516h2.842ZM34.1,13.34a19.742,19.742,0,0,1,1.61,2.352l1.456-.854a17.935,17.935,0,0,0-1.68-2.24ZM41.482,7.1V5.64h-3.15v-1.5H36.694v1.5h-3.15V7.1h3.15v1.33h-2.7V9.868h4.466V10.96h-4.9V12.4h4.9v3.01c0,.2-.07.252-.294.252s-.98,0-1.652-.028A6.062,6.062,0,0,1,37.03,17.2a6.156,6.156,0,0,0,2.338-.28c.56-.252.714-.672.714-1.47V12.4h1.344V10.96H40.082V9.868H41.1V8.426H38.332V7.1Zm11.956,8.176v.588H50.47v-.588ZM49.014,17.2H50.47v-.476h2.968V17.2h1.526V14.432h-5.95Zm.14-3.22h5.7V13.13h-5.7Zm5.7-2.156h-5.7V12.7h5.7ZM51.31,6.116a6.858,6.858,0,0,1-.294.644H48.972c.14-.21.294-.42.42-.644ZM48.65,7.908H50.2c-.126.616-.476.952-1.554,1.134Zm4.018,2.534c-.126-.35-.308-.784-.462-1.106L50.918,9.7c.084.224.2.49.28.742H48.636c.014-.266.014-.532.014-.77V9.364a2.988,2.988,0,0,1,.406.728c1.862-.308,2.394-.994,2.534-2.184H52.4v.546c0,.882.168,1.372,1.176,1.372h.966a2.828,2.828,0,0,0,.826-.084c-.056-.336-.07-.63-.1-.966a3.382,3.382,0,0,1-.756.084H54c-.224,0-.238-.126-.238-.392v-.56h1.512V6.76H52.6a11.782,11.782,0,0,0,.63-1.134l-1.036-.672-.224.056h-1.96c.1-.21.2-.434.294-.644l-1.5-.238a8.9,8.9,0,0,1-2,3V6.788H45.556V4.156H44.03V6.788H42.56v1.54h1.47v2.408c-.644.168-1.2.294-1.694.406l.364,1.6,1.33-.392v3.108c0,.182-.07.238-.238.238a11.04,11.04,0,0,1-1.148-.014,6.193,6.193,0,0,1,.42,1.54A3.575,3.575,0,0,0,45,16.91c.42-.266.56-.686.56-1.456V11.912c.434-.126.882-.266,1.316-.406l-.2-1.5-1.12.308V8.328H46.69a3.631,3.631,0,0,1,.392.462l.14-.112V9.686c0,1.932-.112,4.76-1.246,6.762a5.108,5.108,0,0,1,1.246.756,14.262,14.262,0,0,0,1.386-5.922v.126h6.818v-.966Zm7.588-1.288H65.73v.42H60.256Zm5.474-2.2v.406H60.256V6.956Zm0,1.5H60.256V8.062H65.73ZM58.2,10.54h4.438l-.462.308a5.012,5.012,0,0,1,1.274.938l.868-.616a3.517,3.517,0,0,0-.826-.63h4.228v1.12H69.2V9.574H67.41V6.186H63.518a2.369,2.369,0,0,0,.182-.434h5.4V4.576H56.868V5.752H61.95c-.028.14-.07.294-.112.434H58.66V9.574H56.77V11.66H58.2Zm7.364.588a9.813,9.813,0,0,1,1.33,1.792l1.218-.546A10.856,10.856,0,0,0,66.7,10.638Zm-6.776,2a6.257,6.257,0,0,0,1.47-1.764l-1.092-.56a5.032,5.032,0,0,1-1.442,1.54Zm2.2,1.05h3.85a6.465,6.465,0,0,1-1.792.868,10.99,10.99,0,0,1-2.142-.8Zm5.278-1.022-.308.07H62.188a3.454,3.454,0,0,0,.392-.392h1.778c.966,0,1.316-.28,1.428-1.316a3.967,3.967,0,0,1-1.064-.364c-.042.63-.14.742-.532.742H62.454c-.532,0-.63-.042-.63-.35v-.826H60.508v.826c0,.546.1.868.42,1.05a8.711,8.711,0,0,1-1.2.91c-.168-.14-.308-.266-.448-.406L58.1,13.62c.154.154.308.322.462.462a10.905,10.905,0,0,1-1.456.56,3.789,3.789,0,0,1,.966,1.036c.588-.238,1.148-.476,1.666-.728a11.867,11.867,0,0,0,1.19.63,29.9,29.9,0,0,1-4.494.378,5.639,5.639,0,0,1,.546,1.274,27.074,27.074,0,0,0,6.118-.868,27.868,27.868,0,0,0,5.628.826,6.3,6.3,0,0,1,.756-1.246,33.581,33.581,0,0,1-4.326-.42,6.238,6.238,0,0,0,2.086-1.764Zm6.454-6.9h2.632V8.174H72.716Zm1.428,4.55c.028-.378.056-.77.084-1.148h2.73V4.786H71.2V9.658h1.4c-.112,2.324-.392,4.844-2.226,6.356a4.374,4.374,0,0,1,1.106,1.218,7.942,7.942,0,0,0,2.464-4.97H75.5c-.1,2.212-.224,3.108-.434,3.346a.5.5,0,0,1-.462.182,11.28,11.28,0,0,1-1.372-.07,3.414,3.414,0,0,1,.42,1.442,10.331,10.331,0,0,0,1.694-.042A1.465,1.465,0,0,0,76.4,16.6c.392-.476.532-1.82.672-5.194,0-.2.014-.6.014-.6Zm5.488-4.97H78.008v7.882h1.624ZM81.3,4.422V15.2c0,.252-.112.336-.378.336-.294,0-1.19,0-2.1-.028a6.084,6.084,0,0,1,.574,1.722,7.436,7.436,0,0,0,2.786-.322c.574-.266.77-.728.77-1.708V4.422Zm8.61-.266c-.056,2.366.21,8.638-5.474,11.676A5.343,5.343,0,0,1,85.82,17.19a11.4,11.4,0,0,0,5.152-6.706,10.834,10.834,0,0,0,5.474,6.622,4.44,4.44,0,0,1,1.218-1.442c-4.886-2.156-5.74-7.434-5.936-9.324.056-.84.084-1.6.1-2.184Zm13.468,2.8V12.29h.9l-.49.476a26.993,26.993,0,0,1,2.268,1.974l1.092-1.162c-.462-.448-1.386-1.134-2.086-1.666v-.658h5.558V9.9h-5.558v-.84h5.18v-1.3h-5.18v-.8h5.978V5.528h-8.162c.126-.336.252-.686.364-1.022l-1.694-.392a9.612,9.612,0,0,1-2.87,4.648,9.508,9.508,0,0,1,1.372,1.162,11.462,11.462,0,0,0,2.17-2.968ZM100.17,16.7a28.951,28.951,0,0,0,1.134-3.43l-1.47-.588a16.267,16.267,0,0,1-1.232,3.3Zm11.452-.574c-.336-.952-1.064-2.45-1.624-3.6l-1.568.434c.238.56.518,1.2.784,1.834a4.717,4.717,0,0,1-1.5-.588c-.07,1.134-.2,1.316-.868,1.316h-2.506c-.84,0-.994-.07-.994-.49v-2.17H101.7v2.2c0,1.47.5,1.946,2.506,1.946h2.772c1.526,0,2.044-.448,2.254-2.184.28.686.532,1.358.686,1.834Zm13.076-5.18c-.168,0-.182-.084-.182-.308V9.224h-.938v1.4c0,.7.126,1.022.854,1.022h.49a2.205,2.205,0,0,0,.574-.056c-.028-.224-.042-.49-.056-.7a2.411,2.411,0,0,1-.546.056Zm-1.484.812V8.8H125.2V7.558h-1.988V6.914h-1.246v.644h-1.68V8.8h1.68v2.954ZM125.3,6.62V5.178h-4.774a11.007,11.007,0,0,0-.378-1.148l-1.68.308c.07.238.154.546.224.84h-5.25v3.85c0,2.086-.07,5.082-.98,7.168a6.26,6.26,0,0,1,1.33.98c1.036-2.268,1.232-5.866,1.232-8.148V6.62Zm-7.07,5.11V8.8h1.694V7.558H118.23V6.914h-1.246v.644h-1.526V8.8h1.526V11.73Zm-1.624-2.492h-.91v.546a1.893,1.893,0,0,1-.616,1.568,3.579,3.579,0,0,1,.8.644,2.875,2.875,0,0,0,.728-2.17Zm5.194,5c.238.294.518.63.8.952l-3.934.266a28.888,28.888,0,0,0,4.508-2.674l-1.232-.826a17.781,17.781,0,0,1-1.862,1.316l-2.086.1a17.222,17.222,0,0,0,2.212-1.386l-.854-.546h.266a1.626,1.626,0,0,0,.49-.056l-.014-.14a3.093,3.093,0,0,1,.728.6,2.612,2.612,0,0,0,.742-2.058V9.21h-.91v.532a1.762,1.762,0,0,1-.56,1.414c-.014-.154-.014-.294-.028-.434a1.672,1.672,0,0,1-.448.042c-.14,0-.154-.07-.154-.28V9.294h-.882V10.47c0,.49.07.77.378.9a12.5,12.5,0,0,1-2.352,1.568,2.671,2.671,0,0,1-.91.35,10.7,10.7,0,0,1,.378,1.232,9.926,9.926,0,0,1,2.366-.266,14.991,14.991,0,0,1-1.582.8,5.378,5.378,0,0,1-1.666.616,13.046,13.046,0,0,1,.392,1.33c.518-.168,1.288-.182,7.882-.658.2.266.378.518.518.728l1.274-.672c-.532-.714-1.54-1.89-2.268-2.716Zm14.42-2.072h-5.068v-.6h5.068ZM131.152,15.5v-.644h5.068V15.5Zm5.068-1.68h-5.068V13.2h5.068Zm3-4.088V8.412h-6.93c.084-.2.168-.406.238-.6h5.936V6.55h-5.488c.07-.224.14-.448.2-.672a47.2,47.2,0,0,0,5.236-.5l-.98-1.19a70.9,70.9,0,0,1-9.814.56,4.28,4.28,0,0,1,.308,1.246c1.092.014,2.254,0,3.416-.042-.042.21-.1.406-.154.6h-3.416V7.81h2.968c-.084.2-.168.406-.266.6h-3.682V9.728h2.982a9.33,9.33,0,0,1-3.416,3.262,9.65,9.65,0,0,1,1.05,1.344,10.714,10.714,0,0,0,2.156-1.68V17.26h1.6v-.5h5.068v.5h1.68V10.3h-6.552c.112-.2.224-.378.322-.574ZM153.174,6.76A12.08,12.08,0,0,0,151.1,4.534l-1.26.854A11.1,11.1,0,0,1,151.83,7.7Zm-1.792,3.388a11.639,11.639,0,0,1-1.33,1.9c-.154-.714-.294-1.526-.406-2.366h3.64V8.1h-3.808a34.5,34.5,0,0,1-.14-3.836h-1.75c.014,1.274.056,2.576.168,3.836h-2.688V6.214c.812-.168,1.582-.35,2.282-.56L146.23,4.24a35.551,35.551,0,0,1-5.558,1.176,6.356,6.356,0,0,1,.476,1.4c.714-.084,1.484-.182,2.24-.308V8.1h-2.646V9.686h2.646v1.876c-1.106.2-2.114.35-2.912.476l.406,1.68c.742-.14,1.61-.322,2.506-.5v2.03c0,.224-.084.294-.336.294s-1.064.028-1.848-.014a6.686,6.686,0,0,1,.588,1.68,6.017,6.017,0,0,0,2.52-.322c.56-.266.756-.714.756-1.624V12.864l2.282-.462-.126-1.512c-.714.126-1.442.266-2.156.392v-1.6h2.842a25.946,25.946,0,0,0,.714,3.752,14.261,14.261,0,0,1-3.122,1.974,7.3,7.3,0,0,1,1.106,1.344,14.521,14.521,0,0,0,2.59-1.708c.6,1.372,1.386,2.212,2.408,2.212,1.274,0,1.792-.616,2.058-3.066a4.257,4.257,0,0,1-1.372-.952c-.07,1.652-.238,2.324-.532,2.324-.42,0-.854-.644-1.232-1.722a13.831,13.831,0,0,0,2.324-3.066Z" transform="translate(-8733 -14335)" fill="#303236"/>
    <rect id="Rectangle_2461" data-name="Rectangle 2461" width="206.631" height="15.725" rx="2" transform="translate(-8779.664 -14303.88)" fill="#4d505a"/>
    <path id="內文p-9" data-name="內文p" d="M5.39,16.2c2.744,0,4.634-2.058,4.634-5.418S8.134,5.444,5.39,5.444.756,7.4.756,10.778,2.646,16.2,5.39,16.2Zm0-1.792c-1.54,0-2.52-1.414-2.52-3.626s.98-3.556,2.52-3.556,2.52,1.33,2.52,3.556S6.93,14.4,5.39,14.4ZM12.054,16h6.51V14.264H14.126V11.492h3.64V9.756h-3.64V7.362H18.41V5.64H12.054Zm12.838.2a4.193,4.193,0,0,0,3.3-1.526L27.1,13.382A2.881,2.881,0,0,1,24.962,14.4c-1.638,0-2.7-1.358-2.7-3.612,0-2.226,1.176-3.57,2.744-3.57a2.672,2.672,0,0,1,1.9.868L28,6.774a4.226,4.226,0,0,0-3.038-1.33c-2.618,0-4.816,2-4.816,5.418C20.146,14.32,22.274,16.2,24.892,16.2Zm4.97-.2h2.954c3.052,0,5.012-1.736,5.012-5.222S35.868,5.64,32.7,5.64H29.862Zm2.072-1.666V7.292h.644c1.932,0,3.136.952,3.136,3.486s-1.2,3.556-3.136,3.556Zm20.02-3.43h-5.5V6.662h4.69V5.01H40V6.662h4.718V10.9H39.27V12.6h5.446v4.62h1.736V12.6h5.5Zm-11.1-3.346a14.04,14.04,0,0,1,1.022,2.912l1.624-.5a12.77,12.77,0,0,0-1.12-2.856Zm8.176,2.884a27.393,27.393,0,0,0,1.54-2.926L48.79,7.068a16.589,16.589,0,0,1-1.218,2.954Zm7.224,1.582V8.944h1.33V7.362h-1.33V4.324H54.7V7.362h-1.47V8.944H54.7v3.738c-.672.252-1.26.49-1.75.658l.672,1.68c1.26-.588,2.814-1.33,4.27-2.058L57.5,11.506Zm2.926,1.624h4.27V12.22h-4.27Zm.686-4.13v1.428H63.14V9.518Zm6.062-3.276H60.914c.224-.574.42-1.134.588-1.722l-1.54-.378A13.22,13.22,0,0,1,57.61,9,9.756,9.756,0,0,1,59,9.882a12.942,12.942,0,0,0,1.26-2.128H64.33c-.126,5-.266,7.238-.7,7.686a.694.694,0,0,1-.6.224c-.406,0-1.274,0-2.268-.084a3.854,3.854,0,0,1,.574,1.624,17.378,17.378,0,0,0,2.31-.028,1.853,1.853,0,0,0,1.414-.812c.56-.77.714-2.968.868-9.324ZM70.448,16.2a3.5,3.5,0,0,0,3.626-3.64,3.008,3.008,0,0,0-3.192-3.29,2.68,2.68,0,0,0-1.246.294l.2-2.2H73.6V5.64H68.054l-.28,5.026.938.616a2.479,2.479,0,0,1,1.554-.546,1.677,1.677,0,0,1,1.75,1.876,1.74,1.74,0,0,1-1.834,1.9,3.22,3.22,0,0,1-2.282-1.05l-.952,1.316A4.722,4.722,0,0,0,70.448,16.2Zm8.764-1.554c-.868,0-1.568-.728-1.764-2.618a2.045,2.045,0,0,1,1.694-1.092c.9,0,1.47.574,1.47,1.806C80.612,14,79.982,14.642,79.212,14.642ZM82.348,6.62a3.838,3.838,0,0,0-2.814-1.176c-2.086,0-4,1.652-4,5.516,0,3.654,1.75,5.236,3.724,5.236A3.244,3.244,0,0,0,82.5,12.738c0-2.226-1.232-3.262-2.968-3.262a3.015,3.015,0,0,0-2.128,1.106C77.49,7.992,78.47,7.1,79.66,7.1a2.249,2.249,0,0,1,1.6.756Zm3.7,5.39c1.484,0,2.534-1.218,2.534-3.3s-1.05-3.262-2.534-3.262-2.52,1.19-2.52,3.262S84.56,12.01,86.044,12.01Zm0-1.162c-.6,0-1.064-.616-1.064-2.142s.462-2.1,1.064-2.1,1.078.574,1.078,2.1S86.646,10.848,86.044,10.848Zm.35,5.348h1.2L93.24,5.444H92.022Zm7.182,0c1.47,0,2.534-1.232,2.534-3.3s-1.064-3.276-2.534-3.276-2.52,1.19-2.52,3.276S92.106,16.2,93.576,16.2Zm0-1.176c-.6,0-1.078-.6-1.078-2.128s.476-2.114,1.078-2.114,1.078.588,1.078,2.114S94.178,15.02,93.576,15.02Z" transform="translate(-8717 -14283)" fill="#7e8391"/>
    <path id="Polygon_6" data-name="Polygon 6" d="M4.647,1.4a1,1,0,0,1,1.707,0L10.07,7.479A1,1,0,0,1,9.217,9H1.783A1,1,0,0,1,.93,7.479Z" transform="translate(-8590 -14305) rotate(180)" fill="#eeeeef"/>
    <path id="Rectangle_2462" data-name="Rectangle 2462" d="M2,0H184.615a0,0,0,0,1,0,0V15.725a0,0,0,0,1,0,0H2a2,2,0,0,1-2-2V2A2,2,0,0,1,2,0Z" transform="translate(-8779.664 -14303.88)" fill="#4891f2"/>
    <line id="Line_510" data-name="Line 510" y2="26.733" transform="translate(-8663.749 -14308.99)" fill="none" stroke="#f8f8f8" stroke-width="1" stroke-dasharray="1"/>
  </g>
</svg>
