<svg xmlns="http://www.w3.org/2000/svg" width="354.814" height="268.171" viewBox="0 0 354.814 268.171">
  <g id="data8_pc" transform="translate(-217 -283.838)">
    <text id="OECD平均70_" data-name="OECD平均70%" transform="translate(487.599 296.838)" fill="#df5a5a" font-size="12" font-family="ArialMT, Arial"><tspan x="0" y="0">OECD</tspan><tspan y="0" font-family="YuGothicUI-Regular, Yu Gothic UI">平均</tspan><tspan y="0">70%</tspan></text>
    <g id="Group_1889" data-name="Group 1889" transform="translate(2891 9878.222)">
      <g id="data_7-07" transform="translate(-2677 -9574.602)">
        <g id="Group_1881" data-name="Group 1881" transform="translate(66.78 232.351)">
          <g id="Group_1878" data-name="Group 1878" transform="translate(0 2.037)">
            <text id="_0" data-name="0" transform="translate(0 10)" fill="#6f727a" font-size="11" font-family="ArialMT, Arial"><tspan x="0" y="0">0</tspan></text>
            <text id="_10" data-name="10" transform="translate(31.738 11)" fill="#6f727a" font-size="12" font-family="ArialMT, Arial"><tspan x="0" y="0">10</tspan></text>
            <text id="_20" data-name="20" transform="translate(66.78 11)" fill="#6f727a" font-size="12" font-family="ArialMT, Arial"><tspan x="0" y="0">20</tspan></text>
            <text id="_30" data-name="30" transform="translate(101.823 11)" fill="#6f727a" font-size="12" font-family="ArialMT, Arial"><tspan x="0" y="0">30</tspan></text>
            <text id="_40" data-name="40" transform="translate(136.859 11)" fill="#6f727a" font-size="12" font-family="ArialMT, Arial"><tspan x="0" y="0">40</tspan></text>
            <text id="_50" data-name="50" transform="translate(171.907 11)" fill="#6f727a" font-size="12" font-family="ArialMT, Arial"><tspan x="0" y="0">50</tspan></text>
            <text id="_60" data-name="60" transform="translate(206.956 11)" fill="#6f727a" font-size="12" font-family="ArialMT, Arial"><tspan x="0" y="0">60</tspan></text>
            <text id="_70" data-name="70" transform="translate(241.993 11)" fill="#6f727a" font-size="12" font-family="ArialMT, Arial"><tspan x="0" y="0">70</tspan></text>
            <text id="_80" data-name="80" transform="translate(277.034 11)" fill="#6f727a" font-size="12" font-family="ArialMT, Arial"><tspan x="0" y="0">80</tspan></text>
          </g>
          <line id="Line_480" data-name="Line 480" x2="280.338" transform="translate(3.286)" fill="none" stroke="#55585f" stroke-miterlimit="10" stroke-width="1"/>
        </g>
        <g id="Group_1884" data-name="Group 1884" transform="translate(70.066 0)">
          <line id="Line_490" data-name="Line 490" y1="232.352" transform="translate(0)" fill="none" stroke="#55585f" stroke-miterlimit="10" stroke-width="1"/>
        </g>
        <g id="Group_1887" data-name="Group 1887" transform="translate(70.547 3.278)">
          <g id="Group_1886" data-name="Group 1886">
            <g id="Group_1885" data-name="Group 1885">
              <path id="Rectangle_2379" data-name="Rectangle 2379" d="M0,0H274.857a5,5,0,0,1,5,5V5a5,5,0,0,1-5,5H0a0,0,0,0,1,0,0V0A0,0,0,0,1,0,0Z" transform="translate(0 10.102)" fill="#efefef"/>
              <path id="Rectangle_2380" data-name="Rectangle 2380" d="M0,0H271.391a5,5,0,0,1,5,5V5a5,5,0,0,1-5,5H0a0,0,0,0,1,0,0V0A0,0,0,0,1,0,0Z" transform="translate(0 27.101)" fill="#efefef"/>
              <path id="Rectangle_2381" data-name="Rectangle 2381" d="M0,0H271.391a5,5,0,0,1,5,5V5a5,5,0,0,1-5,5H0a0,0,0,0,1,0,0V0A0,0,0,0,1,0,0Z" transform="translate(0 43.101)" fill="#efefef"/>
              <path id="Rectangle_2382" data-name="Rectangle 2382" d="M0,0H264.366a5,5,0,0,1,5,5V5a5,5,0,0,1-5,5H0a0,0,0,0,1,0,0V0A0,0,0,0,1,0,0Z" transform="translate(0 60.102)" fill="#efefef"/>
              <path id="Rectangle_2383" data-name="Rectangle 2383" d="M0,0H264.366a5,5,0,0,1,5,5V5a5,5,0,0,1-5,5H0a0,0,0,0,1,0,0V0A0,0,0,0,1,0,0Z" transform="translate(0 77.101)" fill="#efefef"/>
              <path id="Rectangle_2384" data-name="Rectangle 2384" d="M0,0H264.366a5,5,0,0,1,5,5V5a5,5,0,0,1-5,5H0a0,0,0,0,1,0,0V0A0,0,0,0,1,0,0Z" transform="translate(0 94.102)" fill="#efefef"/>
              <path id="Rectangle_2385" data-name="Rectangle 2385" d="M0,0H257.342a5,5,0,0,1,5,5V5a5,5,0,0,1-5,5H0a0,0,0,0,1,0,0V0A0,0,0,0,1,0,0Z" transform="translate(0 110.102)" fill="#efefef"/>
              <path id="Rectangle_2386" data-name="Rectangle 2386" d="M0,0H180.786a19,19,0,0,1,19,19v0a19,19,0,0,1-19,19H0a0,0,0,0,1,0,0V0A0,0,0,0,1,0,0Z" transform="translate(0 127.101)" fill="#4891f2"/>
              <path id="Rectangle_2387" data-name="Rectangle 2387" d="M0,0H191.227a5,5,0,0,1,5,5V5a5,5,0,0,1-5,5H0a0,0,0,0,1,0,0V0A0,0,0,0,1,0,0Z" transform="translate(0 172.102)" fill="#efefef"/>
              <path id="Rectangle_2388" data-name="Rectangle 2388" d="M0,0H180.737a5,5,0,0,1,5,5V5a5,5,0,0,1-5,5H0a0,0,0,0,1,0,0V0A0,0,0,0,1,0,0Z" transform="translate(0 189.102)" fill="#efefef"/>
              <path id="Rectangle_2389" data-name="Rectangle 2389" d="M0,0H156.2a5,5,0,0,1,5,5V5a5,5,0,0,1-5,5H0a0,0,0,0,1,0,0V0A0,0,0,0,1,0,0Z" transform="translate(0 206.102)" fill="#efefef"/>
            </g>
          </g>
        </g>
        <g id="Group_1888" data-name="Group 1888" transform="translate(0 2.534)">
          <text id="烏克蘭" transform="translate(26.281 216.617)" fill="#efefef" font-size="12" font-family="YuGothicUI-Regular, Yu Gothic UI"><tspan x="0" y="0">烏克蘭</tspan></text>
          <text id="斯洛維尼亞" transform="translate(3 199.255)" fill="#efefef" font-size="12" font-family="YuGothicUI-Regular, Yu Gothic UI"><tspan x="0" y="0">斯洛維尼亞</tspan></text>
          <text id="希臘" transform="translate(39 181.893)" fill="#efefef" font-size="12" font-family="YuGothicUI-Regular, Yu Gothic UI"><tspan x="0" y="0">希臘</tspan></text>
          <text id="台灣" transform="translate(39.422 152.531)" fill="#4891f2" font-size="12" font-family="YuGothicUI-Regular, Yu Gothic UI"><tspan x="0" y="0">台灣</tspan></text>
          <text id="日本" transform="translate(39.422 120.17)" fill="#efefef" font-size="12" font-family="YuGothicUI-Regular, Yu Gothic UI"><tspan x="0" y="0">日本</tspan></text>
          <text id="美國" transform="translate(39.422 103.808)" fill="#efefef" font-size="12" font-family="YuGothicUI-Regular, Yu Gothic UI"><tspan x="0" y="0">美國</tspan></text>
          <text id="冰島" transform="translate(39.422 87.447)" fill="#efefef" font-size="12" font-family="YuGothicUI-Regular, Yu Gothic UI"><tspan x="0" y="0">冰島</tspan></text>
          <text id="丹麥" transform="translate(39.422 71.085)" fill="#efefef" font-size="12" font-family="YuGothicUI-Regular, Yu Gothic UI"><tspan x="0" y="0">丹麥</tspan></text>
          <text id="韓國" transform="translate(39.422 53.723)" fill="#efefef" font-size="12" font-family="YuGothicUI-Regular, Yu Gothic UI"><tspan x="0" y="0">韓國</tspan></text>
          <text id="英國" transform="translate(39.422 36.362)" fill="#efefef" font-size="12" font-family="YuGothicUI-Regular, Yu Gothic UI"><tspan x="0" y="0">英國</tspan></text>
          <text id="新加坡" transform="translate(26.281 20)" fill="#efefef" font-size="12" font-family="YuGothicUI-Regular, Yu Gothic UI"><tspan x="0" y="0">新加坡</tspan></text>
        </g>
      </g>
      <line id="Line_503" data-name="Line 503" y2="232" transform="translate(-2361.819 -9574.722)" fill="none" stroke="#df5a5a" stroke-width="1" stroke-dasharray="1"/>
    </g>
    <text id="內文p" transform="translate(442 444)" fill="#fff" font-size="15" font-family="Arial-BoldMT, Arial" font-weight="700"><tspan x="0" y="14">57%</tspan></text>
  </g>
</svg>
