<svg xmlns="http://www.w3.org/2000/svg" width="282.752" height="206.913" viewBox="0 0 282.752 206.913">
  <g id="data10_m" transform="translate(-79.558 -145.087)">
    <g id="Group_2114" data-name="Group 2114" transform="translate(-546 -730)">
      <rect id="Rectangle_2063" data-name="Rectangle 2063" width="239" height="21" rx="10.5" transform="translate(648 1061)" fill="#3d3c3c"/>
      <path id="內文p" d="M2.79,4.94A7.013,7.013,0,0,0,1.91,3.7l-.59.28a7.7,7.7,0,0,1,.85,1.29Zm.57,2.37a7.47,7.47,0,0,1-.63.96c-.11-.14-.22-.28-.31-.38V7.87A12.094,12.094,0,0,0,3.47,5.62l-.39-.24-.13.03H.61v.66H2.63A10.631,10.631,0,0,1,.29,9.56a2.587,2.587,0,0,1,.39.6A10.3,10.3,0,0,0,1.72,8.93v3.79h.7v-4c.3.45.66.95.8,1.22l.45-.49c-.1-.13-.37-.47-.63-.8.25-.29.54-.66.81-1.01Zm5.1.04V8.39H6.86V7.35Zm-1.6,2.71V8.99h1.6v1.07Zm-2.21,0V8.99H6.14v1.07ZM6.14,7.35V8.39H4.65V7.35Zm3.4-1.64V5.03H8.93l.39-.37a6.358,6.358,0,0,0-1.52-1l-.41.4a6.537,6.537,0,0,1,1.42.97H6.86V3.64H6.14V5.03H3.65v.68H6.14v1H3.96v6.06h.69V10.66H6.14V12.7h.72V10.66h1.6v1.27c0,.12-.03.15-.15.15s-.45.01-.85,0a2.138,2.138,0,0,1,.22.66,2.948,2.948,0,0,0,1.17-.12c.24-.12.31-.31.31-.67V6.71H6.86v-1Zm5.68,1.94c.76-.28,1.73-.64,2.65-.99l-.11-.55c-1.04.37-2.09.74-2.81.97Zm1.96-1.9a5.515,5.515,0,0,0-1.34-.91l-.39.45a4.773,4.773,0,0,1,1.32.95ZM13.86,7.42c0,.11-.03.15-.15.15s-.52.01-.96,0a2.756,2.756,0,0,1,.19.55,4.271,4.271,0,0,0,1.29-.09c.24-.1.32-.27.32-.6V4.14H10.76v.61h3.1ZM11.18,5.28a5.135,5.135,0,0,1,1.3.98l.4-.48a5.52,5.52,0,0,0-1.31-.94ZM13.2,6.3c-.99.39-2,.76-2.68.97l.29.61c.72-.28,1.62-.65,2.5-1.03Zm4.26,3.91H12.61V9.24h4.85Zm-4.85,1.6V10.8h4.85v1.01Zm2-4.09a8.6,8.6,0,0,1-.39.94H11.88v4.13h.73V12.4h4.85v.39h.75V8.66H14.95c.14-.24.29-.52.43-.79ZM19,4.14H15.18v.61H18.3V7.43c0,.12-.04.15-.16.16-.14,0-.57,0-1.04-.02a2.194,2.194,0,0,1,.21.59,4.566,4.566,0,0,0,1.35-.1c.26-.11.34-.28.34-.63Zm4.52,7.16a12.07,12.07,0,0,1-2.95.91,3.966,3.966,0,0,1,.53.56,14.348,14.348,0,0,0,3.09-1.17Zm-.96-1.12h5v.63h-5Zm3.21-3.35v.69h.7V6.83h2.11a.648.648,0,0,1-.12.36c-.05.06-.12.07-.23.07s-.38-.01-.69-.04a1.115,1.115,0,0,1,.12.32H23.2a2.087,2.087,0,0,0,.71-.71ZM23.53,5.74a1.766,1.766,0,0,1-.15.6H22.06q.045-.285.09-.6Zm.7-1.06h1.54v.57H24.23Zm3.79,0v.57H26.47V4.68ZM25.77,6.34H24.11a2.354,2.354,0,0,0,.1-.6h1.56Zm1.79,2.3h-5V8.02h5Zm0,1.07h-5V9.1h5Zm.74,1.58V7.73c.1,0,.19-.01.26-.01a.71.71,0,0,0,.48-.18c.14-.13.2-.42.26-.96.01-.09.02-.24.02-.24H26.47v-.6H28.7V4.19H26.47V3.64h-.7v.55H24.23V3.64h-.68v.55H21.11v.49h2.44v.57H21.56c-.06.52-.16,1.14-.25,1.58h1.7a4.893,4.893,0,0,1-2.41.93,2.634,2.634,0,0,1,.35.58c.33-.07.63-.14.89-.22v3.17h4.43l-.37.36a24.353,24.353,0,0,1,2.94,1.07l.56-.46a27.086,27.086,0,0,0-2.81-.97ZM36.95,8.2a6.644,6.644,0,0,0,1.99,4.76l.6-.31a6.253,6.253,0,0,1,0-8.9l-.6-.31A6.644,6.644,0,0,0,36.95,8.2ZM49.46,5.1H46.55l.65-.3a5.348,5.348,0,0,0-.84-1.22l-.62.27a6.284,6.284,0,0,1,.79,1.25H44.01v.69h5.45ZM47.18,6.39a11.039,11.039,0,0,1,1.71,2.12l.55-.46A11.131,11.131,0,0,0,47.69,6Zm-1.85-.34A6.851,6.851,0,0,1,43.7,8.12a4.676,4.676,0,0,1,.52.45A9.2,9.2,0,0,0,46,6.35ZM43.82,8.79c-.17-.3-.94-1.61-1.18-1.95v-.4h1.12v-.7H42.64V3.63h-.68V5.74h-1.3v.7h1.16a11.076,11.076,0,0,1-1.49,3.79,3.316,3.316,0,0,1,.4.71,11.718,11.718,0,0,0,1.23-3.02v4.84h.68V7.81c.27.54.6,1.2.73,1.54Zm3.77-.99a6.685,6.685,0,0,1-1,2.14,7.368,7.368,0,0,1-1.15-2.1l-.64.18a8.935,8.935,0,0,0,1.33,2.48,7.508,7.508,0,0,1-2.5,1.72,3.1,3.1,0,0,1,.47.56,7.9,7.9,0,0,0,2.5-1.73,6.659,6.659,0,0,0,2.52,1.65,2.626,2.626,0,0,1,.5-.64,6.448,6.448,0,0,1-2.54-1.57A7.621,7.621,0,0,0,48.3,7.98Zm6.79-1.94a12.463,12.463,0,0,1-.74,2.69,17.731,17.731,0,0,0-1.65-1.56,10.359,10.359,0,0,0,.48-1.13Zm.21-.7H52.71c.14-.45.25-.91.36-1.39l-.73-.14a9.924,9.924,0,0,1-1.9,4.42,4.111,4.111,0,0,1,.61.47,7.538,7.538,0,0,0,.63-.93A15.558,15.558,0,0,1,53.3,9.27a6.672,6.672,0,0,1-2.84,2.85,2.716,2.716,0,0,1,.61.61c2.12-1.17,3.66-3.52,4.18-7.44l-.51-.17Zm2.28,1.7V3.64h-.76v9.12h.76V7.33a18.049,18.049,0,0,1,2.15,2.08l.59-.51a20.058,20.058,0,0,0-2.47-2.26Zm9.3-.11a4.5,4.5,0,0,0-.72-.55,5.687,5.687,0,0,0,.58-.64l-.52-.17a3.571,3.571,0,0,1-.5.53c-.26-.14-.52-.29-.77-.4l-.37.33a7.35,7.35,0,0,1,.72.39,6.011,6.011,0,0,1-.95.55,2.58,2.58,0,0,1,.41.39,7.077,7.077,0,0,0,1-.65,5.453,5.453,0,0,1,.72.58Zm-.03-1.79c-.18-.14-.42-.3-.69-.47A5.135,5.135,0,0,0,66,3.88l-.52-.14a4.26,4.26,0,0,1-.47.49c-.26-.14-.51-.27-.75-.37l-.36.33a6.664,6.664,0,0,1,.7.36,6.027,6.027,0,0,1-.89.51,3.132,3.132,0,0,1,.42.36,6.947,6.947,0,0,0,.93-.6,4.949,4.949,0,0,1,.69.51Zm-4.65,2.8h7.03V9h.73V7.19h-.78c.08-.89.17-2.18.22-3.17H66.38v.51h1.59l-.03.54H66.43v.51h1.48l-.05.54H66.37v.51h1.45c-.02.2-.04.38-.06.56H62.28l-.04-.56h1.39V6.12H62.21l-.04-.54h1.42V5.07H62.14l-.04-.49a10.484,10.484,0,0,0,1.54-.39l-.33-.46a18.717,18.717,0,0,1-1.93.49l.2,2.97h-.8V9h.71Zm7.96,2.43h-4v-.18a10.42,10.42,0,0,0,2.26-1.24l-.45-.37-.15.04h-4.7V9h3.91a9.282,9.282,0,0,1-1.59.76v.43H60.56v.63h4.17v1.13c0,.14-.04.17-.21.18-.15,0-.71,0-1.33-.02a2.8,2.8,0,0,1,.26.63,5.984,5.984,0,0,0,1.61-.1c.31-.11.39-.28.39-.67V10.82h4Zm5.77-2.54c.76-.28,1.73-.64,2.65-.99l-.11-.55c-1.04.37-2.09.74-2.81.97Zm1.96-1.9a5.515,5.515,0,0,0-1.34-.91l-.39.45a4.773,4.773,0,0,1,1.32.95ZM73.86,7.42c0,.11-.03.15-.15.15s-.52.01-.96,0a2.756,2.756,0,0,1,.19.55,4.271,4.271,0,0,0,1.29-.09c.24-.1.32-.27.32-.6V4.14H70.76v.61h3.1ZM71.18,5.28a5.135,5.135,0,0,1,1.3.98l.4-.48a5.52,5.52,0,0,0-1.31-.94ZM73.2,6.3c-.99.39-2,.76-2.68.97l.29.61c.72-.28,1.62-.65,2.5-1.03Zm4.26,3.91H72.61V9.24h4.85Zm-4.85,1.6V10.8h4.85v1.01Zm2-4.09a8.6,8.6,0,0,1-.39.94H71.88v4.13h.73V12.4h4.85v.39h.75V8.66H74.95c.14-.24.29-.52.43-.79ZM79,4.14H75.18v.61H78.3V7.43c0,.12-.04.15-.16.16-.14,0-.57,0-1.04-.02a2.194,2.194,0,0,1,.21.59,4.566,4.566,0,0,0,1.35-.1c.26-.11.34-.28.34-.63Zm9.31,1.34a11.776,11.776,0,0,0-2.07-1.64l-.54.29c.29.19.6.42.89.65l-3.4.12a12.961,12.961,0,0,0,1.51-.98l-.66-.33a9.648,9.648,0,0,1-1.71,1.15,1.7,1.7,0,0,1-.62.23,4.443,4.443,0,0,1,.22.64,44.6,44.6,0,0,1,5.29-.31c.2.18.37.35.51.5Zm-.78,4.59c-1.11,1.14-3.34,1.81-5.76,2.09a2.955,2.955,0,0,1,.36.61c2.5-.35,4.79-1.1,6.01-2.4ZM85.27,8.1a10.337,10.337,0,0,1-3.13,1.38,2.711,2.711,0,0,1,.44.46,10.721,10.721,0,0,0,3.24-1.57Zm1.09.96a10.467,10.467,0,0,1-4.15,1.65,3.126,3.126,0,0,1,.4.54,11.249,11.249,0,0,0,4.32-1.9Zm3-1.51a6.544,6.544,0,0,0-1.14-1.48l-.52.24c.14.15.29.31.42.48l-1.36.08a6.57,6.57,0,0,0,.67-.9l-.67-.28a3.986,3.986,0,0,1-.68,1.04.641.641,0,0,1-.32.22l.05.11a5.6,5.6,0,0,1-.49-.48c.06-.09.12-.19.17-.28l-.68-.21a4.73,4.73,0,0,1-.84,1.09,8.033,8.033,0,0,0-.61-.91l-.54.19c.1.13.2.26.3.41l-1.16.05a7.841,7.841,0,0,0,.89-1.01l-.67-.29a5.275,5.275,0,0,1-.9,1.13.856.856,0,0,1-.4.24,3.515,3.515,0,0,1,.24.63,10.6,10.6,0,0,1,2.3-.22,1.667,1.667,0,0,1,.08.2,9.3,9.3,0,0,1-3.06,1.5,2.9,2.9,0,0,1,.43.58A9.053,9.053,0,0,0,84.94,7.1a10.324,10.324,0,0,0,4.28,2.5,2.654,2.654,0,0,1,.47-.58A10.793,10.793,0,0,1,86.37,7.5c.31-.04.91-.09,2.13-.18a3.652,3.652,0,0,1,.3.5Zm6.15,1.42c0,.09-.02.13-.13.13a6.6,6.6,0,0,1-.75-.01,1.97,1.97,0,0,1,.19.51,3.226,3.226,0,0,0,1.05-.09c.22-.1.28-.23.28-.54V6.34h-.27V6.33H94.57V5.26h1.65V4.63H94.57V3.7h-.65V6.93h1.59ZM94.24,7.36a3.885,3.885,0,0,1-.55,1.65,3.275,3.275,0,0,1,.52.32,5.025,5.025,0,0,0,.61-1.87Zm-.83,3.22a11.529,11.529,0,0,1-2.78,1.6,6.686,6.686,0,0,1,.44.56,15.9,15.9,0,0,0,2.98-1.71Zm2.55.48a22.919,22.919,0,0,1,2.83,1.65l.49-.56a24.232,24.232,0,0,0-2.91-1.6Zm2.59-1.33c.09-1.47.14-3.83.15-5.59H96.58v.65h1.44c0,.4-.01.82-.02,1.25H96.67v.64h1.32c-.02.42-.03.83-.05,1.23H96.62v.63h1.3c-.02.43-.05.84-.07,1.19H92.18l-.04-1.22h1.29V7.87H92.11l-.04-1.22h1.32V6.01H92.05l-.04-1.17c.51-.16,1.06-.35,1.52-.54l-.36-.61a16.407,16.407,0,0,1-1.85.77l.19,5.27H90.5v.69h9.01V9.73Zm4.5-1.53a6.644,6.644,0,0,0-1.99-4.76l-.6.31a6.253,6.253,0,0,1,0,8.9l.6.31A6.644,6.644,0,0,0,103.05,8.2Z" transform="translate(768 1063)" fill="#aca4a4"/>
      <path id="內文p-2" data-name="內文p" d="M5.78,5.11A8.2,8.2,0,0,0,5,3.58l-.77.22a7.794,7.794,0,0,1,.74,1.57ZM7.09,6.12A9.174,9.174,0,0,1,5.03,9.47,10.108,10.108,0,0,1,2.85,6.12Zm2.41,0V5.39H.54v.73H2.08a11.266,11.266,0,0,0,2.4,3.87A10.756,10.756,0,0,1,.4,12.06a4.141,4.141,0,0,1,.46.69,11.5,11.5,0,0,0,4.16-2.23,10.109,10.109,0,0,0,4.1,2.19,3.42,3.42,0,0,1,.51-.69A9.822,9.822,0,0,1,5.59,9.99,10.553,10.553,0,0,0,7.93,6.12Zm4.03,3.87-1.09.36V7.87h1V7.18h-1V5.01h1.15v-.7h-3.1v.7h1.24V7.18H10.6v.69h1.13v2.7c-.51.17-.97.31-1.34.42l.17.75c.89-.29,2.03-.68,3.1-1.04Zm1.23-3.37h1.52V7.89H14.76Zm0-1.88h1.52V6H14.76ZM18.45,6H16.92V4.74h1.53Zm0,1.89H16.92V6.62h1.53Zm-1.47,3.87V10.39h2.33V9.71H16.98V8.54h2.18V4.09H14.08V8.54h2.15V9.71H13.96v.68h2.27v1.37H13.19v.68h6.44v-.68ZM28.44,7.24H25.97V6.29h2.47Zm0,1.52H25.97V7.8h2.47Zm0,1.53H25.97V9.32h2.47ZM25.29,5.7v5.18h3.86V5.7H27.18c.1-.28.21-.62.31-.94h2.04V4.11H24.9v.65h1.8c-.07.3-.15.65-.23.94ZM24.01,4a9.523,9.523,0,0,1-.57,1.26l.5.18c.22-.32.46-.79.7-1.24ZM21.87,5.17a3.988,3.988,0,0,0-.6-1.18l-.52.21a4.243,4.243,0,0,1,.57,1.21Zm.49,3.16h.66V6.46h1.74V5.84H23.02V3.68h-.66V5.84H20.53v.62h1.83Zm.83-1.24a12.789,12.789,0,0,1,1.28,1.27l.42-.49c-.2-.19-1.07-.91-1.31-1.08Zm-1.56-.34a3.579,3.579,0,0,1-1.27,1.47,2.511,2.511,0,0,1,.44.48,4.394,4.394,0,0,0,1.31-1.77Zm3.01,5.03a17.578,17.578,0,0,0-1.77-1.26,2.239,2.239,0,0,0,.07-.44h1.92V9.45H24.2l.33-.22a4.447,4.447,0,0,0-.69-.81l-.43.27a4.883,4.883,0,0,1,.63.76H22.97V8.54h-.65v.91h-1.8v.63h1.76c-.1.73-.5,1.49-1.89,2.08a2.2,2.2,0,0,1,.38.54,3.46,3.46,0,0,0,1.89-1.6c.57.4,1.21.88,1.56,1.19Zm1.68-.7a4.945,4.945,0,0,1-1.73,1.21c.15.14.38.36.5.5a6.368,6.368,0,0,0,1.88-1.34Zm1.11.39a11.308,11.308,0,0,1,1.67,1.3l.58-.41a13.087,13.087,0,0,0-1.71-1.26Zm5.36-6.53a7.013,7.013,0,0,0-.88-1.24l-.59.28a7.7,7.7,0,0,1,.85,1.29Zm.57,2.37a7.47,7.47,0,0,1-.63.96c-.11-.14-.22-.28-.31-.38V7.87a12.094,12.094,0,0,0,1.05-2.25l-.39-.24-.13.03H30.61v.66h2.02a10.631,10.631,0,0,1-2.34,3.49,2.587,2.587,0,0,1,.39.6,10.3,10.3,0,0,0,1.04-1.23v3.79h.7v-4c.3.45.66.95.8,1.22l.45-.49c-.1-.13-.37-.47-.63-.8.25-.29.54-.66.81-1.01Zm5.1.04V8.39h-1.6V7.35Zm-1.6,2.71V8.99h1.6v1.07Zm-2.21,0V8.99h1.49v1.07Zm1.49-2.71V8.39H34.65V7.35Zm3.4-1.64V5.03h-.61l.39-.37a6.358,6.358,0,0,0-1.52-1l-.41.4a6.537,6.537,0,0,1,1.42.97H36.86V3.64h-.72V5.03H33.65v.68h2.49v1H33.96v6.06h.69V10.66h1.49V12.7h.72V10.66h1.6v1.27c0,.12-.03.15-.15.15s-.45.01-.85,0a2.138,2.138,0,0,1,.22.66,2.948,2.948,0,0,0,1.17-.12c.24-.12.31-.31.31-.67V6.71h-2.3v-1Zm5.68,1.94c.76-.28,1.73-.64,2.65-.99l-.11-.55c-1.04.37-2.09.74-2.81.97Zm1.96-1.9a5.515,5.515,0,0,0-1.34-.91l-.39.45a4.773,4.773,0,0,1,1.32.95ZM43.86,7.42c0,.11-.03.15-.15.15s-.52.01-.96,0a2.756,2.756,0,0,1,.19.55,4.271,4.271,0,0,0,1.29-.09c.24-.1.32-.27.32-.6V4.14H40.76v.61h3.1ZM41.18,5.28a5.135,5.135,0,0,1,1.3.98l.4-.48a5.52,5.52,0,0,0-1.31-.94ZM43.2,6.3c-.99.39-2,.76-2.68.97l.29.61c.72-.28,1.62-.65,2.5-1.03Zm4.26,3.91H42.61V9.24h4.85Zm-4.85,1.6V10.8h4.85v1.01Zm2-4.09a8.6,8.6,0,0,1-.39.94H41.88v4.13h.73V12.4h4.85v.39h.75V8.66H44.95c.14-.24.29-.52.43-.79ZM49,4.14H45.18v.61H48.3V7.43c0,.12-.04.15-.16.16-.14,0-.57,0-1.04-.02a2.194,2.194,0,0,1,.21.59,4.566,4.566,0,0,0,1.35-.1c.26-.11.34-.28.34-.63Zm4.44,6.36-1.09.27V8.23h1.01V7.55H52.35V5.04h1.23V4.36H50.5v.68h1.16V7.55H50.64v.68h1.02v2.71c-.48.1-.92.21-1.27.28l.14.71c.85-.22,1.95-.48,2.99-.77Zm2.11-6.87h-.67V7.51A13.585,13.585,0,0,0,54,5.94l-.55.21a14.626,14.626,0,0,1,1.03,2.06l.4-.18c-.01,1.72-.26,3.19-1.94,4.22a2.869,2.869,0,0,1,.46.53c1.9-1.18,2.15-2.89,2.15-4.9Zm2.36,8.09V8.63h1.25V7.95H57.91V5.01h1.42V4.33H55.84v.68H57.2V7.95H56.02v.68H57.2v3.09H55.33v.7h4.21v-.7Z" transform="translate(680 1063)" fill="#aca4a4"/>
      <rect id="Rectangle_2136" data-name="Rectangle 2136" width="12" height="10" rx="2" transform="translate(753 1066)" fill="#4891f2"/>
      <rect id="Rectangle_2137" data-name="Rectangle 2137" width="14" height="3" rx="1.5" transform="translate(663 1070)" fill="#fff"/>
    </g>
    <g id="data_m-06" transform="translate(68.06 136.072)">
      <g id="Group_2110" data-name="Group 2110" transform="translate(-2)">
        <g id="Group_2107" data-name="Group 2107">
          <path id="Path_1889" data-name="Path 1889" d="M5.369-3.806A7.415,7.415,0,0,1,5.2-2.127,3.912,3.912,0,0,1,4.7-.892a2.227,2.227,0,0,1-.795.763A2.176,2.176,0,0,1,2.837.132a2.032,2.032,0,0,1-1.013-.25,2.124,2.124,0,0,1-.75-.729A3.7,3.7,0,0,1,.611-2.024a7.274,7.274,0,0,1-.158-1.6A8.234,8.234,0,0,1,.618-5.369,4,4,0,0,1,1.105-6.64a2.167,2.167,0,0,1,.8-.774A2.239,2.239,0,0,1,3-7.674Q5.369-7.674,5.369-3.806Zm-.884.084q0-3.221-1.532-3.221-1.616,0-1.616,3.279,0,3.058,1.584,3.058Q4.485-.605,4.485-3.721Z" transform="translate(279.94 173.463)" fill="#4891f2"/>
          <path id="Path_1888" data-name="Path 1888" d="M3.811,0H2.948V-6.522a2,2,0,0,1-.292.229,4.762,4.762,0,0,1-.432.255q-.239.126-.505.237a3.672,3.672,0,0,1-.518.174V-6.5a5.018,5.018,0,0,0,.6-.213q.318-.134.626-.3t.582-.347a4.618,4.618,0,0,0,.474-.355h.326ZM15.265-.226a.79.79,0,0,1-.247.679A.917.917,0,0,1,14.633.6a5.719,5.719,0,0,1-.779.037.275.275,0,0,1-.168-.032.418.418,0,0,1-.079-.174,1.92,1.92,0,0,0-.195-.421,7.638,7.638,0,0,0,.8.042.469.469,0,0,0,.332-.089.393.393,0,0,0,.084-.284V-2.284H11.406v1.132q.816-.095,1.421-.195-.268-.39-.3-.432a.144.144,0,0,1-.037-.068q0-.037.1-.079l.226-.1a.338.338,0,0,1,.089-.026q.032,0,.074.058a8.184,8.184,0,0,1,.863,1.411.258.258,0,0,1,.016.063q0,.042-.1.089l-.242.121a.331.331,0,0,1-.116.042q-.037,0-.063-.063-.205-.453-.258-.563-1.563.274-3.737.484a1.358,1.358,0,0,0-.463.1.256.256,0,0,1-.126.063q-.074,0-.121-.142Q8.569-.616,8.5-.99q.232.005.426.005.368,0,.747-.026.99-.074,1.153-.089V-2.284H7.774V-.379L7.8.647a.074.074,0,0,1-.084.084h-.5A.074.074,0,0,1,7.127.647L7.148-.379V-1.748l-.021-1a.074.074,0,0,1,.084-.084l1.521.021h2.09V-3.59H9.638l-1.479.021a.074.074,0,0,1-.084-.084L8.1-4.558v-1.09l-.021-.905a.074.074,0,0,1,.084-.084l1.479.021h3.106l1.49-.021a.074.074,0,0,1,.084.084l-.021.905v1.09l.021.905a.074.074,0,0,1-.084.084l-1.49-.021H11.406v.779h2.253l1.521-.021a.074.074,0,0,1,.084.084L15.244-1.69v.442ZM13.691-4.064v-.842H11.406v.842Zm-2.869,0v-.842H8.7v.842Zm2.869-1.305v-.774H11.406v.774Zm-2.869,0v-.774H8.7v.774ZM15.9-7.58q0,.084-.089.084L14.4-7.517H12.991l.021.495q0,.089-.084.089h-.468q-.095,0-.095-.089,0-.016.011-.168t.011-.326H9.9l.021.495q0,.089-.084.089H9.359a.079.079,0,0,1-.089-.089q0-.016.011-.168t.011-.326H8.011L6.6-7.5a.074.074,0,0,1-.084-.084v-.432q0-.074.084-.074l1.416.021H9.29a4.716,4.716,0,0,0-.063-.884q.326.016.668.058.111.016.111.095a.287.287,0,0,1-.042.142,1.539,1.539,0,0,0-.068.59h2.49a4.641,4.641,0,0,0-.063-.874q.353.021.658.058.116.016.116.095a.287.287,0,0,1-.042.142,1.613,1.613,0,0,0-.063.579H14.4l1.411-.021q.089,0,.089.074Z" transform="translate(279.94 150.374)" fill="#4891f2"/>
          <path id="Path_1887" data-name="Path 1887" d="M4.064-5.569a1.561,1.561,0,0,0-.108-.605A1.2,1.2,0,0,0,3.661-6.6a1.208,1.208,0,0,0-.44-.255,1.721,1.721,0,0,0-.547-.084,1.811,1.811,0,0,0-.495.068,2.4,2.4,0,0,0-.471.189,2.9,2.9,0,0,0-.442.29,3.194,3.194,0,0,0-.4.374v-.926a2.581,2.581,0,0,1,.813-.54,2.863,2.863,0,0,1,1.1-.187,2.649,2.649,0,0,1,.858.134,1.967,1.967,0,0,1,.684.392,1.813,1.813,0,0,1,.455.637,2.148,2.148,0,0,1,.166.869,2.978,2.978,0,0,1-.1.811,2.507,2.507,0,0,1-.311.684,3.3,3.3,0,0,1-.524.616,7.419,7.419,0,0,1-.742.6q-.532.379-.876.647a3.874,3.874,0,0,0-.547.5,1.459,1.459,0,0,0-.284.468,1.638,1.638,0,0,0-.082.54H5.232V0H.574V-.374a3.114,3.114,0,0,1,.105-.853,2.214,2.214,0,0,1,.347-.7,3.885,3.885,0,0,1,.634-.663q.392-.332.961-.747A6.073,6.073,0,0,0,3.308-3.9a2.928,2.928,0,0,0,.445-.537,1.928,1.928,0,0,0,.239-.545A2.349,2.349,0,0,0,4.064-5.569Zm11.2,5.343a.79.79,0,0,1-.247.679A.917.917,0,0,1,14.633.6a5.719,5.719,0,0,1-.779.037.275.275,0,0,1-.168-.032.418.418,0,0,1-.079-.174,1.92,1.92,0,0,0-.195-.421,7.638,7.638,0,0,0,.8.042.469.469,0,0,0,.332-.089.393.393,0,0,0,.084-.284V-2.284H11.406v1.132q.816-.095,1.421-.195-.268-.39-.3-.432a.144.144,0,0,1-.037-.068q0-.037.1-.079l.226-.1a.338.338,0,0,1,.089-.026q.032,0,.074.058a8.184,8.184,0,0,1,.863,1.411.258.258,0,0,1,.016.063q0,.042-.1.089l-.242.121a.331.331,0,0,1-.116.042q-.037,0-.063-.063-.205-.453-.258-.563-1.563.274-3.737.484a1.358,1.358,0,0,0-.463.1.256.256,0,0,1-.126.063q-.074,0-.121-.142Q8.569-.616,8.5-.99q.232.005.426.005.368,0,.747-.026.99-.074,1.153-.089V-2.284H7.774V-.379L7.8.647a.074.074,0,0,1-.084.084h-.5A.074.074,0,0,1,7.127.647L7.148-.379V-1.748l-.021-1a.074.074,0,0,1,.084-.084l1.521.021h2.09V-3.59H9.638l-1.479.021a.074.074,0,0,1-.084-.084L8.1-4.558v-1.09l-.021-.905a.074.074,0,0,1,.084-.084l1.479.021h3.106l1.49-.021a.074.074,0,0,1,.084.084l-.021.905v1.09l.021.905a.074.074,0,0,1-.084.084l-1.49-.021H11.406v.779h2.253l1.521-.021a.074.074,0,0,1,.084.084L15.244-1.69v.442ZM13.691-4.064v-.842H11.406v.842Zm-2.869,0v-.842H8.7v.842Zm2.869-1.305v-.774H11.406v.774Zm-2.869,0v-.774H8.7v.774ZM15.9-7.58q0,.084-.089.084L14.4-7.517H12.991l.021.495q0,.089-.084.089h-.468q-.095,0-.095-.089,0-.016.011-.168t.011-.326H9.9l.021.495q0,.089-.084.089H9.359a.079.079,0,0,1-.089-.089q0-.016.011-.168t.011-.326H8.011L6.6-7.5a.074.074,0,0,1-.084-.084v-.432q0-.074.084-.074l1.416.021H9.29a4.716,4.716,0,0,0-.063-.884q.326.016.668.058.111.016.111.095a.287.287,0,0,1-.042.142,1.539,1.539,0,0,0-.068.59h2.49a4.641,4.641,0,0,0-.063-.874q.353.021.658.058.116.016.116.095a.287.287,0,0,1-.042.142,1.613,1.613,0,0,0-.063.579H14.4l1.411-.021q.089,0,.089.074Z" transform="translate(280.339 127.284)" fill="#4891f2"/>
          <path id="Path_1886" data-name="Path 1886" d="M5.016-2.137a2.2,2.2,0,0,1-.192.929,2.051,2.051,0,0,1-.542.716,2.5,2.5,0,0,1-.84.461A3.4,3.4,0,0,1,2.363.132,3.136,3.136,0,0,1,.647-.279v-.926a2.75,2.75,0,0,0,1.748.6,2.375,2.375,0,0,0,.713-.1,1.6,1.6,0,0,0,.547-.29,1.286,1.286,0,0,0,.353-.458,1.43,1.43,0,0,0,.124-.605q0-1.479-2.105-1.479H1.4v-.732h.595q1.863,0,1.863-1.39,0-1.284-1.421-1.284a2.42,2.42,0,0,0-1.5.537v-.837a3.28,3.28,0,0,1,1.716-.432,2.637,2.637,0,0,1,.858.132,1.966,1.966,0,0,1,.658.368,1.633,1.633,0,0,1,.424.568,1.755,1.755,0,0,1,.15.732A1.842,1.842,0,0,1,3.237-3.958v.021a2.381,2.381,0,0,1,.711.187,1.9,1.9,0,0,1,.563.376,1.678,1.678,0,0,1,.371.545A1.739,1.739,0,0,1,5.016-2.137ZM15.265-.226a.79.79,0,0,1-.247.679A.917.917,0,0,1,14.633.6a5.719,5.719,0,0,1-.779.037.275.275,0,0,1-.168-.032.418.418,0,0,1-.079-.174,1.92,1.92,0,0,0-.195-.421,7.638,7.638,0,0,0,.8.042.469.469,0,0,0,.332-.089.393.393,0,0,0,.084-.284V-2.284H11.406v1.132q.816-.095,1.421-.195-.268-.39-.3-.432a.144.144,0,0,1-.037-.068q0-.037.1-.079l.226-.1a.338.338,0,0,1,.089-.026q.032,0,.074.058a8.184,8.184,0,0,1,.863,1.411.258.258,0,0,1,.016.063q0,.042-.1.089l-.242.121a.331.331,0,0,1-.116.042q-.037,0-.063-.063-.205-.453-.258-.563-1.563.274-3.737.484a1.358,1.358,0,0,0-.463.1.256.256,0,0,1-.126.063q-.074,0-.121-.142Q8.569-.616,8.5-.99q.232.005.426.005.368,0,.747-.026.99-.074,1.153-.089V-2.284H7.774V-.379L7.8.647a.074.074,0,0,1-.084.084h-.5A.074.074,0,0,1,7.127.647L7.148-.379V-1.748l-.021-1a.074.074,0,0,1,.084-.084l1.521.021h2.09V-3.59H9.638l-1.479.021a.074.074,0,0,1-.084-.084L8.1-4.558v-1.09l-.021-.905a.074.074,0,0,1,.084-.084l1.479.021h3.106l1.49-.021a.074.074,0,0,1,.084.084l-.021.905v1.09l.021.905a.074.074,0,0,1-.084.084l-1.49-.021H11.406v.779h2.253l1.521-.021a.074.074,0,0,1,.084.084L15.244-1.69v.442ZM13.691-4.064v-.842H11.406v.842Zm-2.869,0v-.842H8.7v.842Zm2.869-1.305v-.774H11.406v.774Zm-2.869,0v-.774H8.7v.774ZM15.9-7.58q0,.084-.089.084L14.4-7.517H12.991l.021.495q0,.089-.084.089h-.468q-.095,0-.095-.089,0-.016.011-.168t.011-.326H9.9l.021.495q0,.089-.084.089H9.359a.079.079,0,0,1-.089-.089q0-.016.011-.168t.011-.326H8.011L6.6-7.5a.074.074,0,0,1-.084-.084v-.432q0-.074.084-.074l1.416.021H9.29a4.716,4.716,0,0,0-.063-.884q.326.016.668.058.111.016.111.095a.287.287,0,0,1-.042.142,1.539,1.539,0,0,0-.068.59h2.49a4.641,4.641,0,0,0-.063-.874q.353.021.658.058.116.016.116.095a.287.287,0,0,1-.042.142,1.613,1.613,0,0,0-.063.579H14.4l1.411-.021q.089,0,.089.074Z" transform="translate(280.339 104.195)" fill="#4891f2"/>
          <path id="Path_1885" data-name="Path 1885" d="M4.474-7.548v4.985h.969v.79H4.474V0H3.621V-1.774H.074v-.747q.495-.558,1-1.192T2.04-5q.461-.653.853-1.3a11.906,11.906,0,0,0,.661-1.245ZM1.047-2.563H3.621v-3.7q-.395.69-.747,1.232T2.2-4.043q-.318.442-.608.8ZM15.265-.226a.79.79,0,0,1-.247.679A.917.917,0,0,1,14.633.6a5.719,5.719,0,0,1-.779.037.275.275,0,0,1-.168-.032.418.418,0,0,1-.079-.174,1.92,1.92,0,0,0-.195-.421,7.638,7.638,0,0,0,.8.042.469.469,0,0,0,.332-.089.393.393,0,0,0,.084-.284V-2.284H11.406v1.132q.816-.095,1.421-.195-.268-.39-.3-.432a.144.144,0,0,1-.037-.068q0-.037.1-.079l.226-.1a.338.338,0,0,1,.089-.026q.032,0,.074.058a8.184,8.184,0,0,1,.863,1.411.258.258,0,0,1,.016.063q0,.042-.1.089l-.242.121a.331.331,0,0,1-.116.042q-.037,0-.063-.063-.205-.453-.258-.563-1.563.274-3.737.484a1.358,1.358,0,0,0-.463.1.256.256,0,0,1-.126.063q-.074,0-.121-.142Q8.569-.616,8.5-.99q.232.005.426.005.368,0,.747-.026.99-.074,1.153-.089V-2.284H7.774V-.379L7.8.647a.074.074,0,0,1-.084.084h-.5A.074.074,0,0,1,7.127.647L7.148-.379V-1.748l-.021-1a.074.074,0,0,1,.084-.084l1.521.021h2.09V-3.59H9.638l-1.479.021a.074.074,0,0,1-.084-.084L8.1-4.558v-1.09l-.021-.905a.074.074,0,0,1,.084-.084l1.479.021h3.106l1.49-.021a.074.074,0,0,1,.084.084l-.021.905v1.09l.021.905a.074.074,0,0,1-.084.084l-1.49-.021H11.406v.779h2.253l1.521-.021a.074.074,0,0,1,.084.084L15.244-1.69v.442ZM13.691-4.064v-.842H11.406v.842Zm-2.869,0v-.842H8.7v.842Zm2.869-1.305v-.774H11.406v.774Zm-2.869,0v-.774H8.7v.774ZM15.9-7.58q0,.084-.089.084L14.4-7.517H12.991l.021.495q0,.089-.084.089h-.468q-.095,0-.095-.089,0-.016.011-.168t.011-.326H9.9l.021.495q0,.089-.084.089H9.359a.079.079,0,0,1-.089-.089q0-.016.011-.168t.011-.326H8.011L6.6-7.5a.074.074,0,0,1-.084-.084v-.432q0-.074.084-.074l1.416.021H9.29a4.716,4.716,0,0,0-.063-.884q.326.016.668.058.111.016.111.095a.287.287,0,0,1-.042.142,1.539,1.539,0,0,0-.068.59h2.49a4.641,4.641,0,0,0-.063-.874q.353.021.658.058.116.016.116.095a.287.287,0,0,1-.042.142,1.613,1.613,0,0,0-.063.579H14.4l1.411-.021q.089,0,.089.074Z" transform="translate(280.328 81.106)" fill="#4891f2"/>
          <path id="Path_1884" data-name="Path 1884" d="M5.1-2.305a2.541,2.541,0,0,1-.189,1,2.187,2.187,0,0,1-.54.768,2.416,2.416,0,0,1-.845.495,3.3,3.3,0,0,1-1.1.174A3.039,3.039,0,0,1,.863-.184V-1.1a2.874,2.874,0,0,0,1.574.495,2.13,2.13,0,0,0,.74-.121,1.643,1.643,0,0,0,.561-.337,1.442,1.442,0,0,0,.355-.521,1.764,1.764,0,0,0,.124-.668,1.432,1.432,0,0,0-.495-1.155,2.17,2.17,0,0,0-1.437-.418q-.153,0-.321.005l-.337.013Q1.458-3.8,1.3-3.79t-.292.026l.258-3.785h3.49v.779H2.011L1.858-4.553q.168-.011.358-.018t.337-.008a3.388,3.388,0,0,1,1.074.158,2.275,2.275,0,0,1,.8.45,1.887,1.887,0,0,1,.5.716A2.518,2.518,0,0,1,5.1-2.305ZM15.265-.226a.79.79,0,0,1-.247.679A.917.917,0,0,1,14.633.6a5.719,5.719,0,0,1-.779.037.275.275,0,0,1-.168-.032.418.418,0,0,1-.079-.174,1.92,1.92,0,0,0-.195-.421,7.638,7.638,0,0,0,.8.042.469.469,0,0,0,.332-.089.393.393,0,0,0,.084-.284V-2.284H11.406v1.132q.816-.095,1.421-.195-.268-.39-.3-.432a.144.144,0,0,1-.037-.068q0-.037.1-.079l.226-.1a.338.338,0,0,1,.089-.026q.032,0,.074.058a8.184,8.184,0,0,1,.863,1.411.258.258,0,0,1,.016.063q0,.042-.1.089l-.242.121a.331.331,0,0,1-.116.042q-.037,0-.063-.063-.205-.453-.258-.563-1.563.274-3.737.484a1.358,1.358,0,0,0-.463.1.256.256,0,0,1-.126.063q-.074,0-.121-.142Q8.569-.616,8.5-.99q.232.005.426.005.368,0,.747-.026.99-.074,1.153-.089V-2.284H7.774V-.379L7.8.647a.074.074,0,0,1-.084.084h-.5A.074.074,0,0,1,7.127.647L7.148-.379V-1.748l-.021-1a.074.074,0,0,1,.084-.084l1.521.021h2.09V-3.59H9.638l-1.479.021a.074.074,0,0,1-.084-.084L8.1-4.558v-1.09l-.021-.905a.074.074,0,0,1,.084-.084l1.479.021h3.106l1.49-.021a.074.074,0,0,1,.084.084l-.021.905v1.09l.021.905a.074.074,0,0,1-.084.084l-1.49-.021H11.406v.779h2.253l1.521-.021a.074.074,0,0,1,.084.084L15.244-1.69v.442ZM13.691-4.064v-.842H11.406v.842Zm-2.869,0v-.842H8.7v.842Zm2.869-1.305v-.774H11.406v.774Zm-2.869,0v-.774H8.7v.774ZM15.9-7.58q0,.084-.089.084L14.4-7.517H12.991l.021.495q0,.089-.084.089h-.468q-.095,0-.095-.089,0-.016.011-.168t.011-.326H9.9l.021.495q0,.089-.084.089H9.359a.079.079,0,0,1-.089-.089q0-.016.011-.168t.011-.326H8.011L6.6-7.5a.074.074,0,0,1-.084-.084v-.432q0-.074.084-.074l1.416.021H9.29a4.716,4.716,0,0,0-.063-.884q.326.016.668.058.111.016.111.095a.287.287,0,0,1-.042.142,1.539,1.539,0,0,0-.068.59h2.49a4.641,4.641,0,0,0-.063-.874q.353.021.658.058.116.016.116.095a.287.287,0,0,1-.042.142,1.613,1.613,0,0,0-.063.579H14.4l1.411-.021q.089,0,.089.074Z" transform="translate(280.339 58.017)" fill="#4891f2"/>
          <path id="Path_1883" data-name="Path 1883" d="M5.379-2.395A2.8,2.8,0,0,1,5.2-1.379a2.442,2.442,0,0,1-.495.8,2.21,2.21,0,0,1-.753.524,2.384,2.384,0,0,1-.947.187A2.153,2.153,0,0,1,1.987-.105a2.156,2.156,0,0,1-.763-.682A3.269,3.269,0,0,1,.747-1.874,5.889,5.889,0,0,1,.584-3.321,6.8,6.8,0,0,1,.8-5.108a4.341,4.341,0,0,1,.621-1.374,2.863,2.863,0,0,1,.971-.882,2.6,2.6,0,0,1,1.269-.311,3.055,3.055,0,0,1,1.253.216v.816a2.66,2.66,0,0,0-1.232-.3,1.835,1.835,0,0,0-.911.226,2.091,2.091,0,0,0-.695.64,3.119,3.119,0,0,0-.445,1,5.061,5.061,0,0,0-.155,1.3H1.5a1.813,1.813,0,0,1,1.721-.942,2.265,2.265,0,0,1,.892.168,1.926,1.926,0,0,1,.679.476,2.145,2.145,0,0,1,.434.734A2.8,2.8,0,0,1,5.379-2.395ZM4.5-2.284A2.349,2.349,0,0,0,4.4-3a1.541,1.541,0,0,0-.287-.537,1.237,1.237,0,0,0-.461-.34,1.55,1.55,0,0,0-.621-.118,1.454,1.454,0,0,0-.595.121,1.481,1.481,0,0,0-.474.329,1.524,1.524,0,0,0-.313.484,1.534,1.534,0,0,0-.113.587,2.341,2.341,0,0,0,.111.729,1.883,1.883,0,0,0,.311.592,1.477,1.477,0,0,0,.476.4,1.3,1.3,0,0,0,.613.145,1.4,1.4,0,0,0,.595-.124A1.327,1.327,0,0,0,4.1-1.074,1.6,1.6,0,0,0,4.39-1.6,2.1,2.1,0,0,0,4.5-2.284ZM15.265-.226a.79.79,0,0,1-.247.679A.917.917,0,0,1,14.633.6a5.719,5.719,0,0,1-.779.037.275.275,0,0,1-.168-.032.418.418,0,0,1-.079-.174,1.92,1.92,0,0,0-.195-.421,7.638,7.638,0,0,0,.8.042.469.469,0,0,0,.332-.089.393.393,0,0,0,.084-.284V-2.284H11.406v1.132q.816-.095,1.421-.195-.268-.39-.3-.432a.144.144,0,0,1-.037-.068q0-.037.1-.079l.226-.1a.338.338,0,0,1,.089-.026q.032,0,.074.058a8.184,8.184,0,0,1,.863,1.411.258.258,0,0,1,.016.063q0,.042-.1.089l-.242.121a.331.331,0,0,1-.116.042q-.037,0-.063-.063-.205-.453-.258-.563-1.563.274-3.737.484a1.358,1.358,0,0,0-.463.1.256.256,0,0,1-.126.063q-.074,0-.121-.142Q8.569-.616,8.5-.99q.232.005.426.005.368,0,.747-.026.99-.074,1.153-.089V-2.284H7.774V-.379L7.8.647a.074.074,0,0,1-.084.084h-.5A.074.074,0,0,1,7.127.647L7.148-.379V-1.748l-.021-1a.074.074,0,0,1,.084-.084l1.521.021h2.09V-3.59H9.638l-1.479.021a.074.074,0,0,1-.084-.084L8.1-4.558v-1.09l-.021-.905a.074.074,0,0,1,.084-.084l1.479.021h3.106l1.49-.021a.074.074,0,0,1,.084.084l-.021.905v1.09l.021.905a.074.074,0,0,1-.084.084l-1.49-.021H11.406v.779h2.253l1.521-.021a.074.074,0,0,1,.084.084L15.244-1.69v.442ZM13.691-4.064v-.842H11.406v.842Zm-2.869,0v-.842H8.7v.842Zm2.869-1.305v-.774H11.406v.774Zm-2.869,0v-.774H8.7v.774ZM15.9-7.58q0,.084-.089.084L14.4-7.517H12.991l.021.495q0,.089-.084.089h-.468q-.095,0-.095-.089,0-.016.011-.168t.011-.326H9.9l.021.495q0,.089-.084.089H9.359a.079.079,0,0,1-.089-.089q0-.016.011-.168t.011-.326H8.011L6.6-7.5a.074.074,0,0,1-.084-.084v-.432q0-.074.084-.074l1.416.021H9.29a4.716,4.716,0,0,0-.063-.884q.326.016.668.058.111.016.111.095a.287.287,0,0,1-.042.142,1.539,1.539,0,0,0-.068.59h2.49a4.641,4.641,0,0,0-.063-.874q.353.021.658.058.116.016.116.095a.287.287,0,0,1-.042.142,1.613,1.613,0,0,0-.063.579H14.4l1.411-.021q.089,0,.089.074Z" transform="translate(280.349 34.928)" fill="#4891f2"/>
          <path id="Path_1882" data-name="Path 1882" d="M10.222-1.479A2.237,2.237,0,0,1,9.7.074a1.331,1.331,0,0,1-.658.279,5.729,5.729,0,0,1-.937.058,3.7,3.7,0,0,1-1.4-.174.742.742,0,0,1-.384-.347,1.773,1.773,0,0,1-.1-.69V-4.711H4.432A6.5,6.5,0,0,1,3.648-1.19,5.259,5.259,0,0,1,1.326.495a.731.731,0,0,1-.184.053Q1.09.547.984.4A1.925,1.925,0,0,0,.626-.011,5.95,5.95,0,0,0,2.484-.947,2.982,2.982,0,0,0,3.448-2.39a7.969,7.969,0,0,0,.295-2.321h-1.5L.821-4.69q-.089,0-.089-.084v-.5q0-.084.089-.084l1.421.021h6.3l1.421-.021q.089,0,.089.084v.5q0,.084-.089.084L8.538-4.711H6.922V-1a1.86,1.86,0,0,0,.047.532.307.307,0,0,0,.2.168,3.6,3.6,0,0,0,.958.084,3.435,3.435,0,0,0,.716-.053.89.89,0,0,0,.395-.195,2.7,2.7,0,0,0,.337-1.532,2.664,2.664,0,0,0,.484.258q.174.074.174.153A1,1,0,0,1,10.222-1.479ZM9-7.48a.074.074,0,0,1-.084.084L7.385-7.417H3.458L1.932-7.4q-.089,0-.089-.084V-7.99q0-.084.089-.084l1.526.021H7.385l1.532-.021A.074.074,0,0,1,9-7.99Z" transform="translate(280.349 17.928)" fill="#4891f2"/>
        </g>
        <line id="Line_685" data-name="Line 685" y1="138.5" transform="translate(277.4 30.9)" fill="none" stroke="#4891f2" stroke-miterlimit="10" stroke-width="1"/>
        <g id="Group_2109" data-name="Group 2109" transform="translate(1.889)">
          <g id="Group_2108" data-name="Group 2108" transform="translate(271.6 30.9)">
            <line id="Line_686" data-name="Line 686" x2="3.911" transform="translate(0 138.5)" fill="none" stroke="#4891f2" stroke-miterlimit="10" stroke-width="1"/>
            <line id="Line_687" data-name="Line 687" x2="3.911" transform="translate(0 115.4)" fill="none" stroke="#4891f2" stroke-miterlimit="10" stroke-width="1"/>
            <line id="Line_688" data-name="Line 688" x2="3.911" transform="translate(0 92.3)" fill="none" stroke="#4891f2" stroke-miterlimit="10" stroke-width="1"/>
            <line id="Line_689" data-name="Line 689" x2="3.911" transform="translate(0 69.3)" fill="none" stroke="#4891f2" stroke-miterlimit="10" stroke-width="1"/>
            <line id="Line_690" data-name="Line 690" x2="3.911" transform="translate(0 46.2)" fill="none" stroke="#4891f2" stroke-miterlimit="10" stroke-width="1"/>
            <line id="Line_691" data-name="Line 691" x2="3.911" transform="translate(0 23.1)" fill="none" stroke="#4891f2" stroke-miterlimit="10" stroke-width="1"/>
            <line id="Line_692" data-name="Line 692" x2="3.911" fill="none" stroke="#4891f2" stroke-miterlimit="10" stroke-width="1"/>
          </g>
        </g>
      </g>
      <g id="Group_2113" data-name="Group 2113">
        <g id="Group_2112" data-name="Group 2112">
          <g id="Group_2111" data-name="Group 2111">
            <rect id="Rectangle_2689" data-name="Rectangle 2689" width="11" height="82.9" transform="translate(166.5 86.5)" fill="#4891f2"/>
            <rect id="Rectangle_2690" data-name="Rectangle 2690" width="11" height="131.7" transform="translate(227.9 37.7)" fill="#4891f2"/>
          </g>
        </g>
      </g>
      <g id="Group_2106" data-name="Group 2106">
        <g id="Group_2095" data-name="Group 2095">
          <line id="Line_650" data-name="Line 650" x2="230" transform="translate(41.7 169.5)" fill="none" stroke="#4891f2" stroke-miterlimit="10" stroke-width="1"/>
        </g>
        <g id="Group_2099" data-name="Group 2099">
          <g id="Group_2096" data-name="Group 2096">
            <path id="Path_1879" data-name="Path 1879" d="M.474-2.105a2.008,2.008,0,0,1,.095-.6A2.183,2.183,0,0,1,.84-3.274a2.243,2.243,0,0,1,.437-.479A2.083,2.083,0,0,1,1.869-4.1a2.238,2.238,0,0,1-.779-.7,1.662,1.662,0,0,1-.29-.95,1.833,1.833,0,0,1,.161-.768,1.851,1.851,0,0,1,.445-.611,2.056,2.056,0,0,1,.674-.4,2.4,2.4,0,0,1,.842-.145,2.376,2.376,0,0,1,.847.147,2.092,2.092,0,0,1,.674.405,1.819,1.819,0,0,1,.442.611,1.846,1.846,0,0,1,.158.763,1.662,1.662,0,0,1-.29.95,2.266,2.266,0,0,1-.768.7,2.064,2.064,0,0,1,.584.342A2.276,2.276,0,0,1,5-3.274a2.183,2.183,0,0,1,.271.566,2.008,2.008,0,0,1,.095.6A2.242,2.242,0,0,1,5.19-1.2a2.023,2.023,0,0,1-.5.7,2.321,2.321,0,0,1-.774.455,2.892,2.892,0,0,1-.992.163,2.854,2.854,0,0,1-.984-.163A2.356,2.356,0,0,1,1.163-.5a2.037,2.037,0,0,1-.508-.7A2.214,2.214,0,0,1,.474-2.105Zm.937-.074a1.783,1.783,0,0,0,.108.637,1.373,1.373,0,0,0,.305.484A1.333,1.333,0,0,0,2.3-.75a1.73,1.73,0,0,0,.624.108,1.643,1.643,0,0,0,.611-.111,1.423,1.423,0,0,0,.482-.311,1.4,1.4,0,0,0,.316-.484,1.694,1.694,0,0,0,.113-.632,1.614,1.614,0,0,0-.108-.592,1.482,1.482,0,0,0-.308-.487,1.447,1.447,0,0,0-.479-.332,1.558,1.558,0,0,0-.626-.121,1.575,1.575,0,0,0-.6.113,1.442,1.442,0,0,0-.479.316,1.463,1.463,0,0,0-.318.484A1.611,1.611,0,0,0,1.411-2.179Zm.268-3.5a1.258,1.258,0,0,0,.1.5,1.253,1.253,0,0,0,.268.4,1.261,1.261,0,0,0,.4.268,1.212,1.212,0,0,0,.484.1,1.2,1.2,0,0,0,.487-.1,1.258,1.258,0,0,0,.4-.271,1.314,1.314,0,0,0,.268-.4,1.216,1.216,0,0,0,.1-.492,1.291,1.291,0,0,0-.1-.505,1.237,1.237,0,0,0-.266-.4,1.244,1.244,0,0,0-.4-.266,1.244,1.244,0,0,0-.492-.1,1.256,1.256,0,0,0-.508.1,1.227,1.227,0,0,0-.395.271,1.185,1.185,0,0,0-.255.4A1.361,1.361,0,0,0,1.679-5.68Zm9.5,1.874a7.415,7.415,0,0,1-.171,1.679,3.912,3.912,0,0,1-.495,1.234,2.227,2.227,0,0,1-.795.763A2.176,2.176,0,0,1,8.648.132a2.032,2.032,0,0,1-1.013-.25,2.124,2.124,0,0,1-.75-.729,3.7,3.7,0,0,1-.463-1.176,7.274,7.274,0,0,1-.158-1.6A8.234,8.234,0,0,1,6.43-5.369,4,4,0,0,1,6.916-6.64a2.167,2.167,0,0,1,.8-.774,2.239,2.239,0,0,1,1.092-.261Q11.18-7.674,11.18-3.806Zm-.884.084q0-3.221-1.532-3.221-1.616,0-1.616,3.279,0,3.058,1.584,3.058Q10.3-.605,10.3-3.721Zm6.7-.084a7.415,7.415,0,0,1-.171,1.679,3.912,3.912,0,0,1-.495,1.234,2.227,2.227,0,0,1-.795.763,2.176,2.176,0,0,1-1.071.261,2.032,2.032,0,0,1-1.013-.25,2.124,2.124,0,0,1-.75-.729,3.7,3.7,0,0,1-.463-1.176,7.274,7.274,0,0,1-.158-1.6,8.234,8.234,0,0,1,.166-1.748,4,4,0,0,1,.487-1.271,2.167,2.167,0,0,1,.8-.774,2.239,2.239,0,0,1,1.092-.261Q16.991-7.674,16.991-3.806Zm-.884.084q0-3.221-1.532-3.221-1.616,0-1.616,3.279,0,3.058,1.584,3.058Q16.107-.605,16.107-3.721Zm6.7-.084a7.415,7.415,0,0,1-.171,1.679,3.912,3.912,0,0,1-.495,1.234,2.227,2.227,0,0,1-.795.763A2.176,2.176,0,0,1,20.27.132a2.032,2.032,0,0,1-1.013-.25,2.124,2.124,0,0,1-.75-.729,3.7,3.7,0,0,1-.463-1.176,7.274,7.274,0,0,1-.158-1.6,8.234,8.234,0,0,1,.166-1.748,4,4,0,0,1,.487-1.271,2.167,2.167,0,0,1,.8-.774,2.239,2.239,0,0,1,1.092-.261Q22.8-7.674,22.8-3.806Zm-.884.084q0-3.221-1.532-3.221-1.616,0-1.616,3.279,0,3.058,1.584,3.058Q21.918-.605,21.918-3.721Z" transform="translate(16.365 173.54)" fill="#fff"/>
            <path id="Path_1878" data-name="Path 1878" d="M3.811,0H2.948V-6.522a2,2,0,0,1-.292.229,4.762,4.762,0,0,1-.432.255q-.239.126-.505.237a3.672,3.672,0,0,1-.518.174V-6.5a5.018,5.018,0,0,0,.6-.213q.318-.134.626-.3t.582-.347a4.618,4.618,0,0,0,.474-.355h.326ZM11.18-3.806a7.415,7.415,0,0,1-.171,1.679,3.912,3.912,0,0,1-.495,1.234,2.227,2.227,0,0,1-.795.763A2.176,2.176,0,0,1,8.648.132a2.032,2.032,0,0,1-1.013-.25,2.124,2.124,0,0,1-.75-.729,3.7,3.7,0,0,1-.463-1.176,7.274,7.274,0,0,1-.158-1.6A8.234,8.234,0,0,1,6.43-5.369,4,4,0,0,1,6.916-6.64a2.167,2.167,0,0,1,.8-.774,2.239,2.239,0,0,1,1.092-.261Q11.18-7.674,11.18-3.806Zm-.884.084q0-3.221-1.532-3.221-1.616,0-1.616,3.279,0,3.058,1.584,3.058Q10.3-.605,10.3-3.721Zm6.7-.084a7.415,7.415,0,0,1-.171,1.679,3.912,3.912,0,0,1-.495,1.234,2.227,2.227,0,0,1-.795.763,2.176,2.176,0,0,1-1.071.261,2.032,2.032,0,0,1-1.013-.25,2.124,2.124,0,0,1-.75-.729,3.7,3.7,0,0,1-.463-1.176,7.274,7.274,0,0,1-.158-1.6,8.234,8.234,0,0,1,.166-1.748,4,4,0,0,1,.487-1.271,2.167,2.167,0,0,1,.8-.774,2.239,2.239,0,0,1,1.092-.261Q16.991-7.674,16.991-3.806Zm-.884.084q0-3.221-1.532-3.221-1.616,0-1.616,3.279,0,3.058,1.584,3.058Q16.107-.605,16.107-3.721Zm6.7-.084a7.415,7.415,0,0,1-.171,1.679,3.912,3.912,0,0,1-.495,1.234,2.227,2.227,0,0,1-.795.763A2.176,2.176,0,0,1,20.27.132a2.032,2.032,0,0,1-1.013-.25,2.124,2.124,0,0,1-.75-.729,3.7,3.7,0,0,1-.463-1.176,7.274,7.274,0,0,1-.158-1.6,8.234,8.234,0,0,1,.166-1.748,4,4,0,0,1,.487-1.271,2.167,2.167,0,0,1,.8-.774,2.239,2.239,0,0,1,1.092-.261Q22.8-7.674,22.8-3.806Zm-.884.084q0-3.221-1.532-3.221-1.616,0-1.616,3.279,0,3.058,1.584,3.058Q21.918-.605,21.918-3.721Zm6.7-.084a7.415,7.415,0,0,1-.171,1.679,3.912,3.912,0,0,1-.495,1.234,2.227,2.227,0,0,1-.795.763,2.176,2.176,0,0,1-1.071.261,2.032,2.032,0,0,1-1.013-.25,2.124,2.124,0,0,1-.75-.729,3.7,3.7,0,0,1-.463-1.176,7.274,7.274,0,0,1-.158-1.6,8.234,8.234,0,0,1,.166-1.748A4,4,0,0,1,24.35-6.64a2.167,2.167,0,0,1,.8-.774,2.239,2.239,0,0,1,1.092-.261Q28.613-7.674,28.613-3.806Zm-.884.084q0-3.221-1.532-3.221-1.616,0-1.616,3.279,0,3.058,1.584,3.058Q27.729-.605,27.729-3.721Z" transform="translate(10.941 104.272)" fill="#fff"/>
            <path id="Path_1877" data-name="Path 1877" d="M3.811,0H2.948V-6.522a2,2,0,0,1-.292.229,4.762,4.762,0,0,1-.432.255q-.239.126-.505.237a3.672,3.672,0,0,1-.518.174V-6.5a5.018,5.018,0,0,0,.6-.213q.318-.134.626-.3t.582-.347a4.618,4.618,0,0,0,.474-.355h.326ZM9.875-5.569a1.561,1.561,0,0,0-.108-.605A1.2,1.2,0,0,0,9.472-6.6a1.208,1.208,0,0,0-.44-.255,1.721,1.721,0,0,0-.547-.084,1.811,1.811,0,0,0-.495.068,2.4,2.4,0,0,0-.471.189,2.9,2.9,0,0,0-.442.29,3.194,3.194,0,0,0-.4.374v-.926a2.581,2.581,0,0,1,.813-.54,2.863,2.863,0,0,1,1.1-.187,2.649,2.649,0,0,1,.858.134,1.967,1.967,0,0,1,.684.392,1.813,1.813,0,0,1,.455.637,2.148,2.148,0,0,1,.166.869,2.978,2.978,0,0,1-.1.811,2.507,2.507,0,0,1-.311.684,3.3,3.3,0,0,1-.524.616,7.419,7.419,0,0,1-.742.6q-.532.379-.876.647a3.874,3.874,0,0,0-.547.5,1.459,1.459,0,0,0-.284.468,1.638,1.638,0,0,0-.082.54h3.758V0H6.385V-.374a3.114,3.114,0,0,1,.105-.853,2.214,2.214,0,0,1,.347-.7,3.885,3.885,0,0,1,.634-.663q.392-.332.961-.747A6.073,6.073,0,0,0,9.119-3.9a2.928,2.928,0,0,0,.445-.537A1.928,1.928,0,0,0,9.8-4.982,2.349,2.349,0,0,0,9.875-5.569Zm7.116,1.763a7.415,7.415,0,0,1-.171,1.679,3.912,3.912,0,0,1-.495,1.234,2.227,2.227,0,0,1-.795.763,2.176,2.176,0,0,1-1.071.261,2.032,2.032,0,0,1-1.013-.25,2.124,2.124,0,0,1-.75-.729,3.7,3.7,0,0,1-.463-1.176,7.274,7.274,0,0,1-.158-1.6,8.234,8.234,0,0,1,.166-1.748,4,4,0,0,1,.487-1.271,2.167,2.167,0,0,1,.8-.774,2.239,2.239,0,0,1,1.092-.261Q16.991-7.674,16.991-3.806Zm-.884.084q0-3.221-1.532-3.221-1.616,0-1.616,3.279,0,3.058,1.584,3.058Q16.107-.605,16.107-3.721Zm6.7-.084a7.415,7.415,0,0,1-.171,1.679,3.912,3.912,0,0,1-.495,1.234,2.227,2.227,0,0,1-.795.763A2.176,2.176,0,0,1,20.27.132a2.032,2.032,0,0,1-1.013-.25,2.124,2.124,0,0,1-.75-.729,3.7,3.7,0,0,1-.463-1.176,7.274,7.274,0,0,1-.158-1.6,8.234,8.234,0,0,1,.166-1.748,4,4,0,0,1,.487-1.271,2.167,2.167,0,0,1,.8-.774,2.239,2.239,0,0,1,1.092-.261Q22.8-7.674,22.8-3.806Zm-.884.084q0-3.221-1.532-3.221-1.616,0-1.616,3.279,0,3.058,1.584,3.058Q21.918-.605,21.918-3.721Zm6.7-.084a7.415,7.415,0,0,1-.171,1.679,3.912,3.912,0,0,1-.495,1.234,2.227,2.227,0,0,1-.795.763,2.176,2.176,0,0,1-1.071.261,2.032,2.032,0,0,1-1.013-.25,2.124,2.124,0,0,1-.75-.729,3.7,3.7,0,0,1-.463-1.176,7.274,7.274,0,0,1-.158-1.6,8.234,8.234,0,0,1,.166-1.748A4,4,0,0,1,24.35-6.64a2.167,2.167,0,0,1,.8-.774,2.239,2.239,0,0,1,1.092-.261Q28.613-7.674,28.613-3.806Zm-.884.084q0-3.221-1.532-3.221-1.616,0-1.616,3.279,0,3.058,1.584,3.058Q27.729-.605,27.729-3.721Z" transform="translate(10.941 35.005)" fill="#fff"/>
            <path id="Path_1876" data-name="Path 1876" d="M10.259-.505a1.474,1.474,0,0,0-.374.416q-.1.163-.142.163A.445.445,0,0,1,9.59-.011,8.759,8.759,0,0,1,7.043-2.632a10.977,10.977,0,0,1-1.226-3.09H5.637q-.532.416-.916.668a5.268,5.268,0,0,1,1.548,3.79A2.57,2.57,0,0,1,5.922.326,1.385,1.385,0,0,1,4.816.7,6.085,6.085,0,0,1,4.19.668Q4.037.658,4.011.626A.429.429,0,0,1,3.953.463,1.387,1.387,0,0,0,3.758,0,8.087,8.087,0,0,0,4.869.074a.627.627,0,0,0,.568-.258,2.137,2.137,0,0,0,.205-1.1,4.5,4.5,0,0,0-.074-.837A13.71,13.71,0,0,1,1.205.205a.6.6,0,0,1-.163.053Q.979.258.89.095A1.549,1.549,0,0,0,.558-.268,14.368,14.368,0,0,0,3.385-1.342,10.407,10.407,0,0,0,5.432-2.737a5.369,5.369,0,0,0-.347-.842A12.311,12.311,0,0,1,3.332-2.558a16.585,16.585,0,0,1-1.795.705.867.867,0,0,1-.168.053q-.063,0-.153-.153a1.048,1.048,0,0,0-.311-.342,13.992,13.992,0,0,0,2.258-.784,11.235,11.235,0,0,0,1.653-.953,6.473,6.473,0,0,0-.595-.732,12.877,12.877,0,0,1-2.369.99.65.65,0,0,1-.158.042q-.063,0-.147-.137a1.354,1.354,0,0,0-.321-.358A10.707,10.707,0,0,0,4.774-5.722H3.811L2.327-5.7q-.089,0-.089-.1v-.4q0-.095.089-.095l1.484.021H6.938L8.427-6.3q.084,0,.084.095v.4q0,.1-.084.1l-1.49-.021H6.432a9.274,9.274,0,0,0,.732,2.1A8.44,8.44,0,0,0,8.364-4.8,2.971,2.971,0,0,0,8.7-5.279a5.049,5.049,0,0,1,.532.384.2.2,0,0,1,.084.142q0,.068-.121.142a2.792,2.792,0,0,0-.495.432A11.967,11.967,0,0,1,7.459-3.106,7.749,7.749,0,0,0,10.259-.505ZM9.764-5.843q0,.079-.084.079h-.5q-.084,0-.084-.079V-7.348H1.658v1.505q0,.079-.084.079h-.5q-.084,0-.084-.079l.021-1.116V-7.3L.99-7.859a.074.074,0,0,1,.084-.084l1.49.021H4.979v-.132A4.062,4.062,0,0,0,4.9-8.99q.432.021.716.053.126.021.126.089a1.084,1.084,0,0,1-.063.205,1.885,1.885,0,0,0-.053.579v.142H8.19l1.49-.021a.074.074,0,0,1,.084.084l-.021.49v.411Z" transform="translate(10.941 18.005)" fill="#fff"/>
          </g>
          <line id="Line_667" data-name="Line 667" y1="138.5" transform="translate(41.7 31)" fill="none" stroke="#fff" stroke-miterlimit="10" stroke-width="1"/>
          <g id="Group_2098" data-name="Group 2098">
            <g id="Group_2097" data-name="Group 2097" transform="translate(41.7 31)">
              <line id="Line_668" data-name="Line 668" x2="3.355" transform="translate(0 138.5)" fill="none" stroke="#fff" stroke-miterlimit="10" stroke-width="1"/>
              <line id="Line_669" data-name="Line 669" x2="3.355" transform="translate(0 69.2)" fill="none" stroke="#fff" stroke-miterlimit="10" stroke-width="1"/>
              <line id="Line_670" data-name="Line 670" x2="3.355" fill="none" stroke="#fff" stroke-miterlimit="10" stroke-width="1"/>
            </g>
          </g>
        </g>
        <g id="Group_2102" data-name="Group 2102">
          <g id="Group_2101" data-name="Group 2101">
            <g id="Group_2100" data-name="Group 2100">
              <line id="Line_671" data-name="Line 671" x1="15.4" y2="27.8" transform="translate(49.3 126.1)" fill="none" stroke="#fff" stroke-linecap="round" stroke-miterlimit="10" stroke-width="2"/>
              <line id="Line_672" data-name="Line 672" x1="15.3" y2="20.7" transform="translate(64.7 105.4)" fill="none" stroke="#fff" stroke-linecap="round" stroke-miterlimit="10" stroke-width="2"/>
              <line id="Line_673" data-name="Line 673" x1="15.3" y2="15.8" transform="translate(80 89.6)" fill="none" stroke="#fff" stroke-linecap="round" stroke-miterlimit="10" stroke-width="2"/>
              <line id="Line_674" data-name="Line 674" x1="15.4" y2="16.8" transform="translate(95.3 72.8)" fill="none" stroke="#fff" stroke-linecap="round" stroke-miterlimit="10" stroke-width="2"/>
              <line id="Line_675" data-name="Line 675" x1="15.3" y2="6.3" transform="translate(110.7 66.5)" fill="none" stroke="#fff" stroke-linecap="round" stroke-miterlimit="10" stroke-width="2"/>
              <line id="Line_676" data-name="Line 676" x1="15.4" y2="8.2" transform="translate(126 58.3)" fill="none" stroke="#fff" stroke-linecap="round" stroke-miterlimit="10" stroke-width="2"/>
              <line id="Line_677" data-name="Line 677" x1="15.3" y2="1.7" transform="translate(141.4 56.6)" fill="none" stroke="#fff" stroke-linecap="round" stroke-miterlimit="10" stroke-width="2"/>
              <line id="Line_678" data-name="Line 678" x1="15.3" y2="0.4" transform="translate(156.7 56.2)" fill="none" stroke="#fff" stroke-linecap="round" stroke-miterlimit="10" stroke-width="2"/>
              <line id="Line_679" data-name="Line 679" x1="15.4" y1="0.8" transform="translate(172 56.2)" fill="none" stroke="#fff" stroke-linecap="round" stroke-miterlimit="10" stroke-width="2"/>
              <line id="Line_680" data-name="Line 680" x1="15.3" y1="0.7" transform="translate(187.4 57)" fill="none" stroke="#fff" stroke-linecap="round" stroke-miterlimit="10" stroke-width="2"/>
              <line id="Line_681" data-name="Line 681" x1="15.3" y1="2.4" transform="translate(202.7 57.7)" fill="none" stroke="#fff" stroke-linecap="round" stroke-miterlimit="10" stroke-width="2"/>
              <line id="Line_682" data-name="Line 682" x1="15.4" y1="3.7" transform="translate(218 60.1)" fill="none" stroke="#fff" stroke-linecap="round" stroke-miterlimit="10" stroke-width="2"/>
              <line id="Line_683" data-name="Line 683" x1="15.3" y2="3.3" transform="translate(233.4 60.5)" fill="none" stroke="#fff" stroke-linecap="round" stroke-miterlimit="10" stroke-width="2"/>
              <line id="Line_684" data-name="Line 684" x1="15.4" y2="1.7" transform="translate(248.7 58.8)" fill="none" stroke="#fff" stroke-linecap="round" stroke-miterlimit="10" stroke-width="2"/>
            </g>
          </g>
        </g>
        <g id="Group_2105" data-name="Group 2105">
          <g id="Group_2104" data-name="Group 2104">
            <g id="Group_2103" data-name="Group 2103">
              <rect id="Rectangle_2674" data-name="Rectangle 2674" width="6" height="6" rx="3" transform="translate(46.3 150.9)" fill="#fff"/>
              <rect id="Rectangle_2675" data-name="Rectangle 2675" width="6" height="6" rx="3" transform="translate(61.7 123.1)" fill="#fff"/>
              <rect id="Rectangle_2676" data-name="Rectangle 2676" width="6" height="6" rx="3" transform="translate(77 102.4)" fill="#fff"/>
              <rect id="Rectangle_2677" data-name="Rectangle 2677" width="6" height="6" rx="3" transform="translate(92.3 86.6)" fill="#fff"/>
              <rect id="Rectangle_2678" data-name="Rectangle 2678" width="6" height="6" rx="3" transform="translate(107.7 69.8)" fill="#fff"/>
              <rect id="Rectangle_2679" data-name="Rectangle 2679" width="6" height="6" rx="3" transform="translate(123 63.5)" fill="#fff"/>
              <rect id="Rectangle_2680" data-name="Rectangle 2680" width="6" height="6" rx="3" transform="translate(138.4 55.3)" fill="#fff"/>
              <rect id="Rectangle_2681" data-name="Rectangle 2681" width="6" height="6" rx="3" transform="translate(153.7 53.6)" fill="#fff"/>
              <rect id="Rectangle_2682" data-name="Rectangle 2682" width="6" height="6" rx="3" transform="translate(169 53.2)" fill="#fff"/>
              <rect id="Rectangle_2683" data-name="Rectangle 2683" width="6" height="6" rx="3" transform="translate(184.4 54)" fill="#fff"/>
              <rect id="Rectangle_2684" data-name="Rectangle 2684" width="6" height="6" rx="3" transform="translate(199.7 54.7)" fill="#fff"/>
              <rect id="Rectangle_2685" data-name="Rectangle 2685" width="6" height="6" rx="3" transform="translate(215 57.1)" fill="#fff"/>
              <rect id="Rectangle_2686" data-name="Rectangle 2686" width="6" height="6" rx="3" transform="translate(230.4 60.8)" fill="#fff"/>
              <rect id="Rectangle_2687" data-name="Rectangle 2687" width="6" height="6" rx="3" transform="translate(245.7 57.5)" fill="#fff"/>
              <rect id="Rectangle_2688" data-name="Rectangle 2688" width="6" height="6" rx="3" transform="translate(261.1 55.8)" fill="#fff"/>
            </g>
          </g>
        </g>
      </g>
    </g>
    <path id="Path_1880" data-name="Path 1880" d="M3.726,0H2.847V-5.6A4.543,4.543,0,0,1,2.014-5a5.9,5.9,0,0,1-.925.454v-.85a5.308,5.308,0,0,0,1.289-.84,3.3,3.3,0,0,0,.781-.957h.566ZM5.977-3.53a6.55,6.55,0,0,1,.261-2.043,2.542,2.542,0,0,1,.776-1.194,1.985,1.985,0,0,1,1.3-.42,2.115,2.115,0,0,1,1.011.232,1.932,1.932,0,0,1,.718.669,3.589,3.589,0,0,1,.444,1.064,7.072,7.072,0,0,1,.161,1.692A6.569,6.569,0,0,1,10.386-1.5,2.542,2.542,0,0,1,9.612-.3a1.985,1.985,0,0,1-1.3.422A1.964,1.964,0,0,1,6.685-.62,4.717,4.717,0,0,1,5.977-3.53Zm.9,0a4.488,4.488,0,0,0,.413,2.346A1.216,1.216,0,0,0,8.311-.6a1.215,1.215,0,0,0,1.018-.586A4.49,4.49,0,0,0,9.741-3.53a4.487,4.487,0,0,0-.413-2.349A1.225,1.225,0,0,0,8.3-6.46a1.126,1.126,0,0,0-.967.513A4.54,4.54,0,0,0,6.88-3.53ZM11.543-1.89l.879-.117A1.936,1.936,0,0,0,12.937-.93a1.272,1.272,0,0,0,.886.33,1.42,1.42,0,0,0,1.047-.43A1.45,1.45,0,0,0,15.3-2.095a1.348,1.348,0,0,0-.4-1A1.367,1.367,0,0,0,13.9-3.486a2.523,2.523,0,0,0-.62.1l.1-.771a1.343,1.343,0,0,0,.142.01,1.81,1.81,0,0,0,1.011-.293,1,1,0,0,0,.449-.9,1.069,1.069,0,0,0-.327-.8,1.162,1.162,0,0,0-.845-.317,1.2,1.2,0,0,0-.854.322,1.618,1.618,0,0,0-.439.967l-.879-.156a2.259,2.259,0,0,1,.732-1.37,2.117,2.117,0,0,1,1.421-.486,2.341,2.341,0,0,1,1.079.251,1.819,1.819,0,0,1,.754.686,1.762,1.762,0,0,1,.261.923,1.511,1.511,0,0,1-.249.845,1.7,1.7,0,0,1-.737.605,1.661,1.661,0,0,1,.986.608,1.85,1.85,0,0,1,.352,1.155,2.113,2.113,0,0,1-.684,1.589,2.4,2.4,0,0,1-1.729.652,2.249,2.249,0,0,1-1.565-.562A2.171,2.171,0,0,1,11.543-1.89Z" transform="translate(231.634 319.499)" fill="#4891f2"/>
    <path id="Path_1881" data-name="Path 1881" d="M3.726,0H2.847V-5.6A4.543,4.543,0,0,1,2.014-5a5.9,5.9,0,0,1-.925.454v-.85a5.308,5.308,0,0,0,1.289-.84,3.3,3.3,0,0,0,.781-.957h.566ZM5.977-3.53a6.55,6.55,0,0,1,.261-2.043,2.542,2.542,0,0,1,.776-1.194,1.985,1.985,0,0,1,1.3-.42,2.115,2.115,0,0,1,1.011.232,1.932,1.932,0,0,1,.718.669,3.589,3.589,0,0,1,.444,1.064,7.072,7.072,0,0,1,.161,1.692A6.569,6.569,0,0,1,10.386-1.5,2.542,2.542,0,0,1,9.612-.3a1.985,1.985,0,0,1-1.3.422A1.964,1.964,0,0,1,6.685-.62,4.717,4.717,0,0,1,5.977-3.53Zm.9,0a4.488,4.488,0,0,0,.413,2.346A1.216,1.216,0,0,0,8.311-.6a1.215,1.215,0,0,0,1.018-.586A4.49,4.49,0,0,0,9.741-3.53a4.487,4.487,0,0,0-.413-2.349A1.225,1.225,0,0,0,8.3-6.46a1.126,1.126,0,0,0-.967.513A4.54,4.54,0,0,0,6.88-3.53ZM11.6-6.221v-.845H16.23v.684a9.765,9.765,0,0,0-1.355,1.934,11.776,11.776,0,0,0-1.038,2.48A9.219,9.219,0,0,0,13.5,0h-.9a8.772,8.772,0,0,1,.332-2.041,10.717,10.717,0,0,1,.911-2.307A9.89,9.89,0,0,1,15.1-6.221Zm14.248,3.3q0,.078-.093.078h-.439a.069.069,0,0,1-.078-.078v-.972H18.174v.972q0,.078-.083.078h-.449a.069.069,0,0,1-.078-.078l.02-.811v-.22l-.02-.381q0-.068.078-.068l.19,0q.186.01.4.015l-.1-2.329a5.711,5.711,0,0,0-.112-1.06,1.687,1.687,0,0,1,.5.161,8.234,8.234,0,0,0,.854-.312,1.649,1.649,0,0,0,.391-.239,3.428,3.428,0,0,1,.42.361.163.163,0,0,1,.059.107q0,.083-.112.083a1.026,1.026,0,0,0-.356.078q-.605.22-1.123.352l.02.5h.762l.6-.02a.069.069,0,0,1,.078.078v.332q0,.068-.078.068l-.6-.02h-.742l.02.674h.742l.581-.02a.069.069,0,0,1,.078.078v.332q0,.068-.078.068l-.581-.02H18.73l.034.747h5.889l.039-.728h-.708l-.591.02q-.078,0-.078-.068v-.332a.069.069,0,0,1,.078-.078l.591.02h.737l.054-.693h-.781l-.591.02q-.078,0-.078-.068v-.317q0-.093.078-.093l.591.02h.8l.049-.688h-.811l-.708.02q-.093,0-.093-.078v-.361q0-.083.093-.083l.708.024H24.6l.718-.024a.082.082,0,0,1,.093.093q-.054.381-.093,1.118L25.2-4.38q.22,0,.42-.015l.137,0q.093,0,.093.068l-.02.342v.259Zm.239,1.7a.069.069,0,0,1-.078.078l-1.289-.02h-2.7v.229l.01.82a.72.72,0,0,1-.273.649,1.027,1.027,0,0,1-.459.132Q21.03.7,20.415.7a.332.332,0,0,1-.186-.029.376.376,0,0,1-.063-.161,1.965,1.965,0,0,0-.19-.41A9.8,9.8,0,0,0,21,.146a.52.52,0,0,0,.352-.088.361.361,0,0,0,.088-.278v-.942H18.677l-1.294.02a.069.069,0,0,1-.078-.078v-.415a.069.069,0,0,1,.078-.078l1.294.02h2.759a5.577,5.577,0,0,0-.059-.63l.5.093a7.792,7.792,0,0,0,1.279-.62h-2.69l-1.289.02A.069.069,0,0,1,19.1-2.91v-.361q0-.068.078-.068l1.289.01h2.793a1.44,1.44,0,0,0,.239-.01.333.333,0,0,1,.107-.029q.083,0,.264.19.2.225.2.3a.114.114,0,0,1-.1.117,2.421,2.421,0,0,0-.391.2,9.937,9.937,0,0,1-1.558.737v.132h2.7l1.289-.02a.069.069,0,0,1,.078.078Zm-3.208-5.62q.044.029.044.054t-.054.078l-.151.161q-.078.083-.107.083T22.544-6.5q-.342-.264-.708-.5a6.157,6.157,0,0,1-1.03.552.553.553,0,0,1-.151.049q-.044,0-.151-.117a.961.961,0,0,0-.249-.21,5.412,5.412,0,0,0,1.172-.522q-.156-.088-.752-.4-.054-.024-.054-.049t.054-.078l.161-.151q.054-.059.088-.059a.191.191,0,0,1,.063.015q.464.234.84.464l.269-.22a2.084,2.084,0,0,0,.327-.391,2.337,2.337,0,0,1,.381.249q.073.054.073.1T22.8-7.69a.637.637,0,0,0-.2.122l-.366.3Q22.583-7.046,22.876-6.841Zm0,1.963-.161.166q-.088.1-.112.1a.112.112,0,0,1-.059-.034q-.229-.181-.708-.5a5.092,5.092,0,0,1-1.021.542,1.169,1.169,0,0,1-.151.049q-.044,0-.142-.112a.87.87,0,0,0-.259-.215A5.852,5.852,0,0,0,21.426-5.4q-.234-.142-.732-.4-.059-.024-.059-.049a.124.124,0,0,1,.039-.068l.151-.161q.063-.068.093-.068a.148.148,0,0,1,.054.015q.43.215.854.474.107-.083.288-.239a1.646,1.646,0,0,0,.317-.381,2.213,2.213,0,0,1,.371.239q.073.054.073.1,0,.063-.083.093a.619.619,0,0,0-.2.107q-.015.015-.371.313.4.249.654.43.044.029.044.049A.168.168,0,0,1,22.876-4.878ZM36.011-1.729a.069.069,0,0,1-.078.078l-1.309-.02H32.373V-1l.02,1.65a.06.06,0,0,1-.068.068h-.5q-.088,0-.088-.068L31.753-1V-1.67H28.716L27.4-1.65a.069.069,0,0,1-.078-.078v-.454a.069.069,0,0,1,.078-.078l1.313.02h.3V-3.706l-.02-.874a.069.069,0,0,1,.078-.078l1.4.02h1.279v-1.65h-2.28A10.187,10.187,0,0,1,28.2-4.736q-.093.107-.132.107t-.137-.122a1.019,1.019,0,0,0-.342-.269,8.062,8.062,0,0,0,1.963-2.632,2.793,2.793,0,0,0,.21-.659q.254.063.62.19a.141.141,0,0,1,.1.132.2.2,0,0,1-.088.137,1.03,1.03,0,0,0-.254.361q-.22.439-.337.649h4.209l1.392-.02a.069.069,0,0,1,.078.078v.435a.069.069,0,0,1-.078.078l-1.392-.02H32.373v1.65h1.211l1.387-.02q.073,0,.073.078v.435q0,.078-.073.078l-1.387-.02H32.373v1.846h2.251l1.309-.02a.069.069,0,0,1,.078.078Zm-4.258-.513V-4.087H29.624v1.846Z" transform="translate(291.362 319.499)" fill="#4891f2"/>
  </g>
</svg>
