<svg xmlns="http://www.w3.org/2000/svg" width="416.604" height="330.007" viewBox="0 0 416.604 330.007">
  <g id="data2" transform="translate(2556.604 -43.993)">
    <text id="內文p" transform="translate(-2152 92)" fill="#4891f2" font-size="12" font-family="SourceHanSansTW-Regular, Source Han Sans TW" opacity="0.85"><tspan x="0" y="14">用</tspan><tspan x="0" y="27">於</tspan><tspan x="0" y="40">教</tspan><tspan x="0" y="53">師</tspan><tspan x="0" y="66">專</tspan><tspan x="0" y="79">業</tspan><tspan x="0" y="92">增</tspan><tspan x="0" y="105">能</tspan><tspan x="0" y="118">的</tspan><tspan x="0" y="131">經</tspan><tspan x="0" y="144">費</tspan></text>
    <g id="Group_1899" data-name="Group 1899" transform="translate(-3167 -719)">
      <rect id="Rectangle_2063" data-name="Rectangle 2063" width="375" height="31" rx="15.5" transform="translate(642 1062)" fill="#3d3c3c"/>
      <path id="內文p-2" data-name="內文p" d="M13.146,9.35V8.286H7.364A32.507,32.507,0,0,0,7.588,4.31H6.468a29.819,29.819,0,0,1-.21,3.976H.924V9.35H6.09A9.089,9.089,0,0,1,.644,16.2a3,3,0,0,1,.784.854,9.8,9.8,0,0,0,5.586-6.93C8.12,13.3,9.9,15.776,12.586,17.05a5.354,5.354,0,0,1,.784-.98c-2.7-1.106-4.522-3.64-5.5-6.72Zm9.492-.7a6.3,6.3,0,0,0-1.008-.77,7.962,7.962,0,0,0,.812-.9l-.728-.238a5,5,0,0,1-.7.742c-.364-.2-.728-.406-1.078-.56l-.518.462a10.291,10.291,0,0,1,1.008.546,8.416,8.416,0,0,1-1.33.77,3.612,3.612,0,0,1,.574.546,9.907,9.907,0,0,0,1.4-.91,7.634,7.634,0,0,1,1.008.812ZM22.6,6.144c-.252-.2-.588-.42-.966-.658a7.19,7.19,0,0,0,.77-.854l-.728-.2a5.963,5.963,0,0,1-.658.686c-.364-.2-.714-.378-1.05-.518l-.5.462a9.329,9.329,0,0,1,.98.5,8.438,8.438,0,0,1-1.246.714,4.385,4.385,0,0,1,.588.5,9.727,9.727,0,0,0,1.3-.84,6.928,6.928,0,0,1,.966.714Zm-6.51,3.92h9.842V11.8H26.95V9.266H25.858c.112-1.246.238-3.052.308-4.438H22.932v.714h2.226l-.042.756H23v.714h2.072L25,7.768H22.918v.714h2.03c-.028.28-.056.532-.084.784H17.192l-.056-.784h1.946V7.768H17.094l-.056-.756h1.988V6.3H17l-.056-.686A14.678,14.678,0,0,0,19.1,5.066l-.462-.644a26.2,26.2,0,0,1-2.7.686l.28,4.158h-1.12V11.8h.994Zm11.144,3.4h-5.6v-.252a14.589,14.589,0,0,0,3.164-1.736l-.63-.518-.21.056h-6.58V11.8h5.474a13,13,0,0,1-2.226,1.064v.6H14.784v.882h5.838V15.93c0,.2-.056.238-.294.252-.21,0-.994,0-1.862-.028a3.92,3.92,0,0,1,.364.882,8.377,8.377,0,0,0,2.254-.14c.434-.154.546-.392.546-.938v-1.61h5.6ZM39.368,9.91a8.763,8.763,0,0,1-2.562,3.836A9.791,9.791,0,0,1,34.2,9.91ZM32.816,5.962h3.766c-.224,1.008-.5,2.1-.756,2.968H32.76c.042-.6.056-1.176.056-1.708Zm7.2,2.912-.2.056h-2.87c.308-1.12.672-2.7.952-3.99H29.316V5.962h2.45v1.26c0,2.478-.238,5.964-3.206,8.722a4.192,4.192,0,0,1,.756.882,10.983,10.983,0,0,0,3.36-6.916h.518A11.8,11.8,0,0,0,35.966,14.4a11.871,11.871,0,0,1-4.2,1.82,3.63,3.63,0,0,1,.588.952,13.116,13.116,0,0,0,4.438-2.044,10.8,10.8,0,0,0,3.934,1.946,4.512,4.512,0,0,1,.714-.98,10.942,10.942,0,0,1-3.78-1.666A10.316,10.316,0,0,0,40.74,9.2ZM50.638,8.65a6.3,6.3,0,0,0-1.008-.77,7.962,7.962,0,0,0,.812-.9l-.728-.238a5,5,0,0,1-.7.742c-.364-.2-.728-.406-1.078-.56l-.518.462a10.291,10.291,0,0,1,1.008.546,8.416,8.416,0,0,1-1.33.77,3.613,3.613,0,0,1,.574.546,9.907,9.907,0,0,0,1.4-.91,7.634,7.634,0,0,1,1.008.812ZM50.6,6.144c-.252-.2-.588-.42-.966-.658a7.19,7.19,0,0,0,.77-.854l-.728-.2a5.963,5.963,0,0,1-.658.686c-.364-.2-.714-.378-1.05-.518l-.5.462a9.329,9.329,0,0,1,.98.5,8.438,8.438,0,0,1-1.246.714,4.385,4.385,0,0,1,.588.5,9.727,9.727,0,0,0,1.3-.84,6.929,6.929,0,0,1,.966.714Zm-6.51,3.92h9.842V11.8H54.95V9.266H53.858c.112-1.246.238-3.052.308-4.438H50.932v.714h2.226l-.042.756H51v.714h2.072L53,7.768H50.918v.714h2.03c-.028.28-.056.532-.084.784H45.192l-.056-.784h1.946V7.768H45.094l-.056-.756h1.988V6.3H45l-.056-.686A14.678,14.678,0,0,0,47.1,5.066l-.462-.644a26.2,26.2,0,0,1-2.7.686l.28,4.158h-1.12V11.8h.994Zm11.144,3.4h-5.6v-.252a14.589,14.589,0,0,0,3.164-1.736l-.63-.518-.21.056h-6.58V11.8h5.474a13,13,0,0,1-2.226,1.064v.6H42.784v.882h5.838V15.93c0,.2-.056.238-.294.252-.21,0-.994,0-1.862-.028a3.921,3.921,0,0,1,.364.882,8.377,8.377,0,0,0,2.254-.14c.434-.154.546-.392.546-.938v-1.61h5.6Zm7.126-6.524h5.88V8.468h.994V6.032H65.744l.294-.112a9.5,9.5,0,0,0-.91-1.736l-.938.308a7.462,7.462,0,0,1,.756,1.54H61.39V8.468h.966ZM68.11,9.42V8.5h-5.6V9.42ZM60.48,4.814l-.168.042H57.148V17.05h.938V5.808h1.848c-.294.938-.714,2.142-1.106,3.15a4.14,4.14,0,0,1,1.246,2.814,1.214,1.214,0,0,1-.294.98.835.835,0,0,1-.434.126,4.025,4.025,0,0,1-.812-.014,2.108,2.108,0,0,1,.266.924,5.175,5.175,0,0,0,.938-.028,1.387,1.387,0,0,0,.728-.266,1.978,1.978,0,0,0,.546-1.624,4.349,4.349,0,0,0-1.26-3.024c.476-1.12.98-2.478,1.4-3.626ZM67.214,16c-.308,0-.364-.056-.364-.406V11.94h2.478v-.952H61.446v.952h1.946c-.182,2.17-.742,3.542-3.15,4.3a3.125,3.125,0,0,1,.6.826C63.49,16.14,64.162,14.5,64.4,11.94h1.47v3.668c0,.994.224,1.288,1.2,1.288h1.232c.84,0,1.106-.462,1.19-2.282a2.313,2.313,0,0,1-.9-.378C68.572,15.762,68.516,16,68.208,16Z" transform="translate(857 1067)" fill="#aca4a4"/>
      <path id="內文p-3" data-name="內文p" d="M8.918,13.48v1.3H4.928v-1.3Zm.938-.784H3.962v3.556h.966v-.686H9.856Zm2.772-1.708H1.386v6.076H2.394V11.87h9.2v4.1c0,.168-.056.21-.238.224s-.812.014-1.414-.014a3.136,3.136,0,0,1,.336.77,6.3,6.3,0,0,0,1.848-.126c.378-.14.5-.35.5-.854ZM10.052,9.462H4.018V8.2h6.034ZM3,7.432v2.8h8.12v-2.8Zm4.746-1.68c-.154-.448-.364-1.036-.56-1.512l-1.008.238c.14.392.308.868.434,1.274H.882v.9H13.076v-.9ZM21.5,11.506V7.8h4.018v3.71Zm-5.082,0V7.8h4v3.71ZM21.5,6.774V4.282H20.426V6.774H15.4V13.4h1.022v-.868h4v4.536H21.5V12.528h4.018v.8h1.064V6.774Zm19.474.756a11.128,11.128,0,0,0-1.12-2.366l-.77.28a11.359,11.359,0,0,1,1.078,2.408ZM37.394,5.794H35.882a13.2,13.2,0,0,0-.588-1.414l-.854.182c.168.378.336.84.476,1.232H33.194V6.62h4.2Zm-5.74,2h-1.47V5.836h1.47Zm-1.47,3.752h1.47v1.9c-.5.112-1.008.224-1.47.322Zm1.47-.868h-1.47v-2h1.47Zm1.5-4.844V4.884H28.644v.952h.742v8.106c-.322.042-.616.112-.882.154l.21.9c.854-.21,1.89-.434,2.94-.686v2.772h.826V5.836Zm1.176,8.47V12.99h1.988v1.316Zm1.988-3.36v1.288H34.328V10.946Zm4.046-.784a12.482,12.482,0,0,1-1.176,2.674c-.14-.966-.252-2.142-.322-3.444h2.478v-.91H38.808c-.07-1.3-.1-2.716-.112-4.186h-.91c.028,1.47.07,2.884.126,4.186H36.5c.154-.462.336-1.05.5-1.582l-.868-.154a14.674,14.674,0,0,1-.406,1.736h-.994a12.064,12.064,0,0,0-.392-1.722l-.77.112a13.741,13.741,0,0,1,.336,1.61h-.952v.91h5.012a38.7,38.7,0,0,0,.476,4.55,11.062,11.062,0,0,1-1.316,1.47V10.19H33.5v5.852h.826v-.98h1.988v.378H37.1a9.087,9.087,0,0,1-1.176.938,4.6,4.6,0,0,1,.6.56,11.407,11.407,0,0,0,2.17-1.974c.35,1.3.84,2.058,1.54,2.072.476.014.938-.546,1.2-2.646a2.8,2.8,0,0,1-.672-.518c-.1,1.274-.28,2.03-.5,2.03-.35-.014-.644-.686-.882-1.834a12.9,12.9,0,0,0,1.792-3.5Z" transform="translate(772 1067)" fill="#aca4a4"/>
      <path id="內文p-4" data-name="內文p" d="M10.738,7.012A5.968,5.968,0,0,0,9.226,6.06l-.49.518a5.665,5.665,0,0,1,1.5.98ZM7,12.668c-1.568.28-3.122.56-4.186.728l.14.784c1.148-.21,2.632-.5,4.088-.784ZM5.782,11.436H4.172v-1.4h1.61ZM3.444,9.378v2.716H6.538V9.378ZM9.66,9.14a9.632,9.632,0,0,1-1.036,2.576A20.4,20.4,0,0,1,8.106,8.5h2.982V7.712H8.036c-.028-.49-.056-.98-.084-1.484h-.9c.028.5.07.994.112,1.484H2.954V8.5H7.238a19.392,19.392,0,0,0,.77,4.144,7.556,7.556,0,0,1-2.114,1.82,5.374,5.374,0,0,1,.616.658,8.78,8.78,0,0,0,1.848-1.61,2.285,2.285,0,0,0,1.456,1.358c.728.28,1.2-.28,1.386-1.806a2.62,2.62,0,0,1-.672-.462c-.1.9-.238,1.5-.434,1.442-.462-.07-.84-.546-1.134-1.288a10.865,10.865,0,0,0,1.554-3.43ZM2.184,15.524V5.878h9.6v9.646ZM1.19,4.926v12.18h.994v-.644h9.6v.644H12.81V4.926ZM21.5,11.506V7.8h4.018v3.71Zm-5.082,0V7.8h4v3.71ZM21.5,6.774V4.282H20.426V6.774H15.4V13.4h1.022v-.868h4v4.536H21.5V12.528h4.018v.8h1.064V6.774ZM34.51,4.492v11.13c0,.28-.112.378-.406.378-.266.014-1.274.028-2.3-.014a4.966,4.966,0,0,1,.434,1.078,9.716,9.716,0,0,0,2.674-.182c.49-.182.7-.49.7-1.26V4.492ZM37.856,8.02A23.663,23.663,0,0,1,40.5,14.278l1.092-.462a22.26,22.26,0,0,0-2.758-6.174Zm-7-.28A13.119,13.119,0,0,1,28.5,13.494a5.624,5.624,0,0,1,.98.546A15.7,15.7,0,0,0,32,7.95Z" transform="translate(687 1067)" fill="#aca4a4"/>
      <path id="內文p-5" data-name="內文p" d="M9,7.852h2.45a15.952,15.952,0,0,1-1.218,4.424A19.26,19.26,0,0,1,9,7.852Zm-5-1.2H5.418a13.869,13.869,0,0,1-.994,1.386H4Zm9.394,1.2v-.98H9.31A24.541,24.541,0,0,0,9.87,4.45L8.834,4.282A14.98,14.98,0,0,1,6.65,10.288l-.49-.364-.2.056H3.92c.35-.322.672-.672.994-1.022H7.35V8.034H5.656A15.464,15.464,0,0,0,7.406,4.9l-.966-.28a13.865,13.865,0,0,1-.994,1.988V5.752H4V4.282H3.038v1.47H1.2v.9H3.038V8.034H.616v.924H3.57A12,12,0,0,1,.518,11.17a9.652,9.652,0,0,1,.742.8A15.01,15.01,0,0,0,2.954,10.82H5.138a8.935,8.935,0,0,1-1.6,1.246v.966c-1.106.126-2.114.252-2.912.35l.126.952c.8-.1,1.75-.238,2.786-.378v2c0,.154-.042.2-.238.21s-.77.014-1.47-.014a3.993,3.993,0,0,1,.336.91,5.776,5.776,0,0,0,1.862-.154c.392-.154.5-.406.5-.938V13.83c.91-.14,1.834-.266,2.758-.392l-.014-.91c-.924.126-1.848.252-2.744.364v-.56A11.13,11.13,0,0,0,6.65,10.484a5.3,5.3,0,0,1,.756.658A9.788,9.788,0,0,0,8.344,9.49a18.266,18.266,0,0,0,1.274,3.878,7.877,7.877,0,0,1-3.332,2.814,4.405,4.405,0,0,1,.63.938A9.345,9.345,0,0,0,10.178,14.4a7.606,7.606,0,0,0,2.6,2.646,3.4,3.4,0,0,1,.728-.882,6.89,6.89,0,0,1-2.7-2.744,15.938,15.938,0,0,0,1.708-5.572Zm5.152,4.564V14.81H16.114V12.416Zm-.126-5.138V9.336h-2.31V7.278Zm-2.31,2.94h3.234V6.382H17.29c.252-.574.546-1.3.77-1.932l-1.12-.168a15.929,15.929,0,0,1-.6,2.1H15.162V16.644h.952v-.938h3.374V11.52H16.114ZM27.328,5.962V5.024h-7.42v.938H23.1V7.684H20.426v7.294h.952V8.636H23.1V17.05h.98V8.636h1.862v5.236c0,.14-.042.2-.2.2s-.574,0-1.078-.014a3.6,3.6,0,0,1,.28.91A3.956,3.956,0,0,0,26.5,14.8c.322-.154.406-.448.406-.91v-6.2H24.08V5.962Z" transform="translate(968 1067)" fill="#aca4a4"/>
      <line id="Line_56" data-name="Line 56" x2="24" transform="translate(827.5 1077.5)" fill="none" stroke="#fff" stroke-linecap="round" stroke-width="4"/>
      <line id="Line_116" data-name="Line 116" x2="24" transform="translate(742.5 1077.5)" fill="none" stroke="#1feac3" stroke-linecap="round" stroke-width="4"/>
      <line id="Line_117" data-name="Line 117" x2="24" transform="translate(657.5 1077.5)" fill="none" stroke="#ff6cd7" stroke-linecap="round" stroke-width="4"/>
      <line id="Line_57" data-name="Line 57" x2="24" transform="translate(938.5 1077.5)" fill="none" stroke="#356bd0" stroke-linecap="round" stroke-width="4"/>
    </g>
    <g id="Group_1900" data-name="Group 1900" transform="translate(-2748 -244)">
      <g id="data_2-03" transform="translate(199.595 177.708)">
        <g id="Group_1601" data-name="Group 1601" transform="translate(350.726 115.285)">
          <g id="Group_1598" data-name="Group 1598" transform="translate(10.436)">
            <text id="_0" data-name="0" transform="translate(0 242.098)" fill="#356bd0" font-size="12" font-family="ArialMT, Arial"><tspan x="0" y="0">0</tspan></text>
            <text id="_1億" data-name="1億" transform="translate(0 195.279)" fill="#356bd0" font-size="12" font-family="ArialMT, Arial"><tspan x="0" y="0">1</tspan><tspan y="0" font-family="YuGothicUI-Regular, Yu Gothic UI">億</tspan></text>
            <text id="_2億" data-name="2億" transform="translate(0 148.459)" fill="#356bd0" font-size="12" font-family="ArialMT, Arial"><tspan x="0" y="0">2</tspan><tspan y="0" font-family="YuGothicUI-Regular, Yu Gothic UI">億</tspan></text>
            <text id="_3億" data-name="3億" transform="translate(0 101.639)" fill="#356bd0" font-size="12" font-family="ArialMT, Arial"><tspan x="0" y="0">3</tspan><tspan y="0" font-family="YuGothicUI-Regular, Yu Gothic UI">億</tspan></text>
            <text id="_4億" data-name="4億" transform="translate(0 54.82)" fill="#356bd0" font-size="12" font-family="ArialMT, Arial"><tspan x="0" y="0">4</tspan><tspan y="0" font-family="YuGothicUI-Regular, Yu Gothic UI">億</tspan></text>
            <text id="_5億" data-name="5億" transform="translate(0 8)" fill="#356bd0" font-size="12" font-family="ArialMT, Arial"><tspan x="0" y="0">5</tspan><tspan y="0" font-family="YuGothicUI-Regular, Yu Gothic UI">億</tspan></text>
          </g>
          <line id="Line_86" data-name="Line 86" y1="234.144" transform="translate(6.421 4.417)" fill="none" stroke="#356bd0" stroke-miterlimit="10" stroke-width="1"/>
        </g>
        <g id="Group_1604" data-name="Group 1604" transform="translate(58.247 129.109)">
          <g id="Group_1603" data-name="Group 1603">
            <g id="Group_1602" data-name="Group 1602">
              <rect id="Rectangle_2109" data-name="Rectangle 2109" width="30.836" height="121.701" transform="translate(0.158 102.961)" fill="#356bd0"/>
              <rect id="Rectangle_2110" data-name="Rectangle 2110" width="30.836" height="196.663" transform="translate(51.158 28.073)" fill="#356bd0"/>
              <rect id="Rectangle_2111" data-name="Rectangle 2111" width="30.836" height="182.626" transform="translate(102.158 42.11)" fill="#356bd0"/>
              <rect id="Rectangle_2112" data-name="Rectangle 2112" width="30.836" height="196.663" transform="translate(154.158 28.073)" fill="#356bd0"/>
              <rect id="Rectangle_2113" data-name="Rectangle 2113" width="30.836" height="224.736" transform="translate(205.158)" fill="#356bd0"/>
              <rect id="Rectangle_2114" data-name="Rectangle 2114" width="30.836" height="182.626" transform="translate(256.158 42.11)" fill="#356bd0"/>
            </g>
          </g>
        </g>
        <g id="Group_1626" data-name="Group 1626" transform="translate(7.405 115.292)">
          <g id="Group_1607" data-name="Group 1607" transform="translate(40.389 232.655)">
            <line id="Line_93" data-name="Line 93" x2="308.375" transform="translate(0 5.898)" fill="none" stroke="#55585f" stroke-miterlimit="10" stroke-width="1"/>
          </g>
          <g id="Group_1611" data-name="Group 1611" transform="translate(0 0)">
            <g id="Group_1608" data-name="Group 1608">
              <text id="_10萬" data-name="10萬" transform="translate(8 242.09)" fill="#fff" font-size="12" font-family="ArialMT, Arial"><tspan x="0" y="0">10</tspan><tspan y="0" font-family="YuGothicUI-Regular, Yu Gothic UI">萬</tspan></text>
              <text id="_15萬" data-name="15萬" transform="translate(8 125.042)" fill="#fff" font-size="12" font-family="ArialMT, Arial"><tspan x="0" y="0">15</tspan><tspan y="0" font-family="YuGothicUI-Regular, Yu Gothic UI">萬</tspan></text>
              <text id="_20萬" data-name="20萬" transform="translate(8 8.999)" fill="#fff" font-size="12" font-family="ArialMT, Arial"><tspan x="0" y="0">20</tspan><tspan y="0" font-family="YuGothicUI-Regular, Yu Gothic UI">萬</tspan></text>
            </g>
            <line id="Line_100" data-name="Line 100" y1="234.144" transform="translate(40.389 4.409)" fill="none" stroke="#fff" stroke-miterlimit="10" stroke-width="1"/>
          </g>
          <g id="Group_1618" data-name="Group 1618" transform="translate(66.073 4.558)">
            <g id="Group_1613" data-name="Group 1613">
              <g id="Group_1612" data-name="Group 1612">
                <line id="Line_104" data-name="Line 104" x1="51.443" y2="4.704" transform="translate(0 35.166)" fill="none" stroke="#fff" stroke-linecap="round" stroke-miterlimit="10" stroke-width="2"/>
                <line id="Line_105" data-name="Line 105" x1="51.443" y2="5.525" transform="translate(51.443 29.641)" fill="none" stroke="#fff" stroke-linecap="round" stroke-miterlimit="10" stroke-width="2"/>
                <line id="Line_106" data-name="Line 106" x1="51.443" y2="8.362" transform="translate(102.886 21.279)" fill="none" stroke="#fff" stroke-linecap="round" stroke-miterlimit="10" stroke-width="2"/>
                <line id="Line_107" data-name="Line 107" x1="51.443" y2="21.279" transform="translate(154.329)" fill="none" stroke="#fff" stroke-linecap="round" stroke-miterlimit="10" stroke-width="2"/>
              </g>
            </g>
            <g id="Group_1615" data-name="Group 1615" transform="translate(0 165.23)">
              <g id="Group_1614" data-name="Group 1614">
                <line id="Line_108" data-name="Line 108" x1="51.443" y2="8.736" transform="translate(0 36.585)" fill="none" stroke="#1feac3" stroke-linecap="round" stroke-miterlimit="10" stroke-width="2"/>
                <line id="Line_109" data-name="Line 109" x1="51.443" y2="14.709" transform="translate(51.443 21.876)" fill="none" stroke="#1feac3" stroke-linecap="round" stroke-miterlimit="10" stroke-width="2"/>
                <line id="Line_110" data-name="Line 110" x1="51.443" y2="8.512" transform="translate(102.886 13.365)" fill="none" stroke="#1feac3" stroke-linecap="round" stroke-miterlimit="10" stroke-width="2"/>
                <line id="Line_111" data-name="Line 111" x1="51.443" y2="13.365" transform="translate(154.329)" fill="none" stroke="#1feac3" stroke-linecap="round" stroke-miterlimit="10" stroke-width="2"/>
              </g>
            </g>
            <g id="Group_1617" data-name="Group 1617" transform="translate(0 31.807)">
              <g id="Group_1616" data-name="Group 1616">
                <line id="Line_112" data-name="Line 112" x1="51.443" y2="13.663" transform="translate(0 60.029)" fill="none" stroke="#ff6cd7" stroke-linecap="round" stroke-miterlimit="10" stroke-width="2"/>
                <line id="Line_113" data-name="Line 113" x1="51.443" y2="19.935" transform="translate(51.443 40.094)" fill="none" stroke="#ff6cd7" stroke-linecap="round" stroke-miterlimit="10" stroke-width="2"/>
                <line id="Line_114" data-name="Line 114" x1="51.443" y2="22.922" transform="translate(102.886 17.173)" fill="none" stroke="#ff6cd7" stroke-linecap="round" stroke-miterlimit="10" stroke-width="2"/>
                <line id="Line_115" data-name="Line 115" x1="51.443" y2="17.173" transform="translate(154.329)" fill="none" stroke="#ff6cd7" stroke-linecap="round" stroke-miterlimit="10" stroke-width="2"/>
              </g>
            </g>
          </g>
          <g id="Group_1625" data-name="Group 1625" transform="translate(63.833 2.318)">
            <g id="Group_1620" data-name="Group 1620">
              <g id="Group_1619" data-name="Group 1619">
                <rect id="Rectangle_2115" data-name="Rectangle 2115" width="4.48" height="4.48" transform="translate(0 39.87)" fill="gray" stroke="#000" stroke-miterlimit="10" stroke-width="0.5"/>
                <rect id="Rectangle_2116" data-name="Rectangle 2116" width="4.48" height="4.48" transform="translate(51.443 35.166)" fill="gray" stroke="#000" stroke-miterlimit="10" stroke-width="0.5"/>
                <rect id="Rectangle_2117" data-name="Rectangle 2117" width="4.48" height="4.48" transform="translate(102.886 29.641)" fill="gray" stroke="#000" stroke-miterlimit="10" stroke-width="0.5"/>
                <rect id="Rectangle_2118" data-name="Rectangle 2118" width="4.48" height="4.48" transform="translate(154.329 21.279)" fill="gray" stroke="#000" stroke-miterlimit="10" stroke-width="0.5"/>
                <rect id="Rectangle_2119" data-name="Rectangle 2119" width="4.48" height="4.48" transform="translate(205.772)" fill="gray" stroke="#000" stroke-miterlimit="10" stroke-width="0.5"/>
              </g>
            </g>
            <g id="Group_1622" data-name="Group 1622" transform="translate(0 165.23)">
              <g id="Group_1621" data-name="Group 1621" transform="translate(0 0)">
                <rect id="Rectangle_2120" data-name="Rectangle 2120" width="4.48" height="4.48" transform="translate(0 45.321)" fill="#dfdfdf" stroke="#000" stroke-miterlimit="10" stroke-width="0.5"/>
                <rect id="Rectangle_2121" data-name="Rectangle 2121" width="4.48" height="4.48" transform="translate(51.443 36.585)" fill="#dfdfdf" stroke="#000" stroke-miterlimit="10" stroke-width="0.5"/>
                <rect id="Rectangle_2122" data-name="Rectangle 2122" width="4.48" height="4.48" transform="translate(102.886 21.876)" fill="#dfdfdf" stroke="#000" stroke-miterlimit="10" stroke-width="0.5"/>
                <rect id="Rectangle_2123" data-name="Rectangle 2123" width="4.48" height="4.48" transform="translate(154.329 13.365)" fill="#dfdfdf" stroke="#000" stroke-miterlimit="10" stroke-width="0.5"/>
                <rect id="Rectangle_2124" data-name="Rectangle 2124" width="4.48" height="4.48" transform="translate(205.772)" fill="#dfdfdf" stroke="#000" stroke-miterlimit="10" stroke-width="0.5"/>
              </g>
            </g>
            <g id="Group_1624" data-name="Group 1624" transform="translate(0 31.807)">
              <g id="Group_1623" data-name="Group 1623">
                <rect id="Rectangle_2125" data-name="Rectangle 2125" width="4.48" height="4.48" transform="translate(0 73.693)" stroke="#000" stroke-miterlimit="10" stroke-width="0.5"/>
                <rect id="Rectangle_2126" data-name="Rectangle 2126" width="4.48" height="4.48" transform="translate(51.443 60.029)" stroke="#000" stroke-miterlimit="10" stroke-width="0.5"/>
                <rect id="Rectangle_2127" data-name="Rectangle 2127" width="4.48" height="4.48" transform="translate(102.886 40.094)" stroke="#000" stroke-miterlimit="10" stroke-width="0.5"/>
                <rect id="Rectangle_2128" data-name="Rectangle 2128" width="4.48" height="4.48" transform="translate(154.329 17.173)" stroke="#000" stroke-miterlimit="10" stroke-width="0.5"/>
                <rect id="Rectangle_2129" data-name="Rectangle 2129" width="4.48" height="4.48" transform="translate(205.772)" stroke="#000" stroke-miterlimit="10" stroke-width="0.5"/>
              </g>
            </g>
          </g>
        </g>
      </g>
      <path id="內文p-6" data-name="內文p" d="M11.052,5.972v-.8H3.66c.18-.336.336-.684.492-1.02L3.276,3.9A11.267,11.267,0,0,1,.516,7.9c.228.132.6.384.792.528a13.951,13.951,0,0,0,1.9-2.46Zm-4.284,6.6.408-.444a9.05,9.05,0,0,0-2.28-1.5l-.5.492A10.809,10.809,0,0,1,6.54,12.572H2.832c.1-.576.2-1.248.3-1.944H8.88c-.048.816-.1,1.452-.144,1.944Zm2.22-4.6c-.024.708-.048,1.32-.072,1.884H6.864l.516-.528A9.157,9.157,0,0,0,5.2,8.012l-.5.5A8.593,8.593,0,0,1,6.828,9.86h-3.6c.1-.636.18-1.272.264-1.884Zm2.472,2.676V9.836H9.78c.024-.648.06-1.38.084-2.22,0-.108.012-.432.012-.432H2.7c-.084.8-.216,1.728-.336,2.652H.552v.816H2.244c-.156,1.008-.324,1.98-.456,2.7h.48v.012H8.64a1.683,1.683,0,0,1-.24.7.476.476,0,0,1-.444.168,13.25,13.25,0,0,1-1.392-.048,1.811,1.811,0,0,1,.228.708,13.8,13.8,0,0,0,1.536.024,1.1,1.1,0,0,0,.84-.432,2.783,2.783,0,0,0,.348-1.116h1.536v-.792H9.612c.06-.5.1-1.14.144-1.92Zm-3.192,8.08a18.249,18.249,0,0,0-.6-1.86l-.84.216A13.266,13.266,0,0,1,7.392,19Zm2.64.4H4.44v.864h6.468Zm-4,6.636a47.513,47.513,0,0,0-.888-5.04l-.8.18a43.139,43.139,0,0,1,.816,5.112ZM3.456,17A13.338,13.338,0,0,1,.5,21.768a4.333,4.333,0,0,1,.5.876A12.2,12.2,0,0,0,2.2,21.192V27.9h.888V19.8A17.018,17.018,0,0,0,4.3,17.256Zm5.5,9.564c.432-1.6.924-3.936,1.236-5.772l-.924-.168a52.081,52.081,0,0,1-1.14,5.94H3.936v.864H11.4v-.864ZM7.4,33.7a5.4,5.4,0,0,0-.864-.66,6.825,6.825,0,0,0,.7-.768l-.624-.2a4.285,4.285,0,0,1-.6.636c-.312-.168-.624-.348-.924-.48l-.444.4a8.822,8.822,0,0,1,.864.468,7.214,7.214,0,0,1-1.14.66,3.1,3.1,0,0,1,.492.468,8.492,8.492,0,0,0,1.2-.78,6.543,6.543,0,0,1,.864.7Zm-.036-2.148c-.216-.168-.5-.36-.828-.564a6.163,6.163,0,0,0,.66-.732l-.624-.168a5.111,5.111,0,0,1-.564.588c-.312-.168-.612-.324-.9-.444l-.432.4a8,8,0,0,1,.84.432,7.233,7.233,0,0,1-1.068.612,3.759,3.759,0,0,1,.5.432,8.338,8.338,0,0,0,1.116-.72A5.939,5.939,0,0,1,6.9,32Zm-5.58,3.36h8.436V36.4H11.1V34.228h-.936c.1-1.068.2-2.616.264-3.8H7.656v.612H9.564l-.036.648H7.716V32.3H9.492l-.06.648H7.644v.612h1.74c-.024.24-.048.456-.072.672H2.736l-.048-.672H4.356v-.612h-1.7L2.6,32.3h1.7v-.612H2.568L2.52,31.1a12.581,12.581,0,0,0,1.848-.468l-.4-.552a22.46,22.46,0,0,1-2.316.588l.24,3.564H.936V36.4h.852Zm9.552,2.916H6.54v-.216a12.5,12.5,0,0,0,2.712-1.488l-.54-.444-.18.048H2.892V36.4H7.584a11.138,11.138,0,0,1-1.908.912v.516h-5v.756h5V39.94c0,.168-.048.2-.252.216-.18,0-.852,0-1.6-.024a3.36,3.36,0,0,1,.312.756,7.18,7.18,0,0,0,1.932-.12c.372-.132.468-.336.468-.8v-1.38h4.8ZM6.48,52.676V49.628h3.852v-.864H6.48V46.148h4.3v-.876H6.48v-2.3H5.568v2.3H3.132a16.471,16.471,0,0,0,.672-1.92l-.9-.192a10.939,10.939,0,0,1-2.22,4.416A5.975,5.975,0,0,1,1.5,48.1a10.767,10.767,0,0,0,1.248-1.956h2.82v2.616H2v.864H5.568v3.048H.708v.864H11.34v-.864Zm4.872,9.16H6.432V57.648H10.68v-.876H1.3v.876H5.52v4.188H.672v.876H5.52v4.2h.912v-4.2h4.92Zm-9.216-3.36a14.043,14.043,0,0,1,1.08,2.748l.84-.288a11.5,11.5,0,0,0-1.14-2.7ZM8.5,61.26a23.56,23.56,0,0,0,1.476-2.82l-.936-.264a17.907,17.907,0,0,1-1.3,2.832ZM5.16,77.02H9.216v-.8H5.16Zm.276-3.528v.816H9.012v-.816ZM6.5,70.948A17.044,17.044,0,0,0,7.176,69.2l-.9-.228a12.643,12.643,0,0,1-1.824,3.768v-.768H3.06V69.22H2.2v2.748H.648v.852H2.2v4.092c-.66.3-1.272.576-1.752.768l.336.9c1.116-.54,2.6-1.272,4-1.956l-.24-.816c-.492.228-1,.468-1.476.7V72.82H4.4a7.531,7.531,0,0,1-.564.648c.228.132.636.384.816.516a12.017,12.017,0,0,0,1.452-2.2h4.26c-.156,4.836-.336,6.684-.732,7.092a.6.6,0,0,1-.516.192,17.568,17.568,0,0,1-1.812-.084A2.244,2.244,0,0,1,7.6,79.9a13.86,13.86,0,0,0,1.86.012,1.205,1.205,0,0,0,.984-.492c.48-.6.636-2.5.828-8,0-.12.012-.468.012-.468ZM3.552,82.364A8.357,8.357,0,0,1,.468,86.8a4.951,4.951,0,0,1,.744.66,10.464,10.464,0,0,0,3.264-4.872Zm-1.284,4.1v.864H4.716C4.428,89.36,3.768,91.256.948,92.2a2.737,2.737,0,0,1,.576.78c3.048-1.116,3.828-3.276,4.14-5.652h3.1c-.144,3.024-.312,4.224-.624,4.524-.12.132-.252.156-.5.156-.288,0-1.02-.012-1.8-.084a1.982,1.982,0,0,1,.288.9A17.206,17.206,0,0,0,8,92.852a1.22,1.22,0,0,0,.936-.432c.408-.456.576-1.836.744-5.52.012-.12.024-.432.024-.432Zm3.156-4.3v.84H7.548a9.322,9.322,0,0,0,3.408,4.428,5.362,5.362,0,0,1,.636-.8,8.014,8.014,0,0,1-3.408-4.464Zm-2.04,17.68-.78.312V98.208h.78v-.816H2.6V94.968h-.78v2.424H.564v.816h1.26v2.268c-.54.216-1.02.4-1.428.54l.288.828,1.14-.48v3.588c0,.144-.06.192-.192.192-.108,0-.516,0-.948-.012a3.6,3.6,0,0,1,.24.78,3.037,3.037,0,0,0,1.32-.156c.264-.144.36-.36.36-.816v-3.888c.312-.144.648-.288.96-.42Zm5.268,2.928h.972v1.812H8.652Zm.972-4.644v1.548H8.652V98.136Zm0,3.948H8.652V100.4h.972Zm-2.9-1.692h-.9V99.264h.9Zm-2.484,0V99.264h.876v1.128Zm.528-3.78H6.3v.816H4.764Zm6.768,7.98H10.308V102.78h1.008v-.7H10.308V100.4h.972v-.72h-.972V98.136h1.02v-.78H8.616a17.976,17.976,0,0,0,.624-2.064,8.884,8.884,0,0,1,.792,2l.684-.264a8.711,8.711,0,0,0-.852-2l-.612.228.036-.156-.708-.144a11.105,11.105,0,0,1-1.392,3.708H5.82V98H7.008V96.612h.684v-.636H7.008V94.968H6.3v1.008H4.764V94.968H4.08v1.008H3.312v.636H4.08V98H5.112v.66H3.624v2.316H5.112v.66H3.576v.636H5.1a4.863,4.863,0,0,1-.084.744H3.264v.66h1.56a3.091,3.091,0,0,1-1.812,1.692,3.05,3.05,0,0,1,.42.552,3.772,3.772,0,0,0,1.9-1.584A9.212,9.212,0,0,1,6.936,105.7l.456-.576a9.785,9.785,0,0,0-1.8-1.4l.012-.036H7.536v-.66H5.748a7.185,7.185,0,0,0,.06-.744h1.56v-.636H5.82v-.66H7.344V99.12a2.712,2.712,0,0,1,.264.264c.108-.168.216-.348.324-.528v7.068h.72v-.648h2.88Zm-7.116,8.6H1.9V110.68h2.52ZM1.9,116.86v-2.88h2.52v2.88ZM2.9,107.932a14.811,14.811,0,0,1-.48,1.944H1.08v8.736H1.9v-.948H5.232v-7.788H3.24c.2-.516.42-1.176.624-1.764Zm8.2,1.908H7.512a16.856,16.856,0,0,0,.516-1.728l-.852-.2a12.176,12.176,0,0,1-1.836,4.356,6.559,6.559,0,0,1,.732.5,10.1,10.1,0,0,0,1.128-2.1h3.048c-.156,4.776-.336,6.6-.732,7.02-.12.156-.252.18-.492.18-.276,0-1,0-1.776-.072a2.064,2.064,0,0,1,.3.876,12.646,12.646,0,0,0,1.776.012,1.194,1.194,0,0,0,.948-.48c.48-.588.636-2.436.828-7.908Zm-1.9,5.4a23.478,23.478,0,0,0-1.884-2.712l-.7.408a21.35,21.35,0,0,1,1.824,2.772Zm-1.488,8.776h2.1a13.673,13.673,0,0,1-1.044,3.792A16.508,16.508,0,0,1,7.716,124.016Zm-4.284-1.032H4.644a11.887,11.887,0,0,1-.852,1.188h-.36Zm8.052,1.032v-.84H7.98a21.036,21.036,0,0,0,.48-2.076l-.888-.144A12.84,12.84,0,0,1,5.7,126.1l-.42-.312-.168.048H3.36c.3-.276.576-.576.852-.876H6.3v-.792H4.848a13.254,13.254,0,0,0,1.5-2.688l-.828-.24a11.884,11.884,0,0,1-.852,1.7v-.732H3.432v-1.26H2.6v1.26H1.032v.768H2.6v1.188H.528v.792H3.06a10.282,10.282,0,0,1-2.616,1.9,8.273,8.273,0,0,1,.636.684,12.866,12.866,0,0,0,1.452-.984H4.4a7.658,7.658,0,0,1-1.368,1.068v.828c-.948.108-1.812.216-2.5.3l.108.816c.684-.084,1.5-.2,2.388-.324v1.716c0,.132-.036.168-.2.18s-.66.012-1.26-.012a3.423,3.423,0,0,1,.288.78,4.95,4.95,0,0,0,1.6-.132c.336-.132.432-.348.432-.8V129.14c.78-.12,1.572-.228,2.364-.336l-.012-.78c-.792.108-1.584.216-2.352.312v-.48A9.541,9.541,0,0,0,5.7,126.272a4.546,4.546,0,0,1,.648.564,8.39,8.39,0,0,0,.8-1.416,15.656,15.656,0,0,0,1.092,3.324,6.752,6.752,0,0,1-2.856,2.412,3.776,3.776,0,0,1,.54.8,8.01,8.01,0,0,0,2.8-2.328,6.519,6.519,0,0,0,2.232,2.268,2.917,2.917,0,0,1,.624-.756,5.906,5.906,0,0,1-2.316-2.352,13.661,13.661,0,0,0,1.464-4.776ZM10,138.72H2.244v2.136a4.792,4.792,0,0,1-1.224,3.6,2.452,2.452,0,0,1,.708.552,5.714,5.714,0,0,0,1.38-4.128v-1.4H9.06v2.2c-2.088.372-4.272.72-5.628.924l.288.8c1.476-.264,3.444-.672,5.34-1.056v1.536c0,.168-.072.24-.288.24-.18.012-.984.012-1.728-.012a3.031,3.031,0,0,1,.252.768,9.644,9.644,0,0,0,2.148-.108c.408-.12.552-.348.552-.888Zm-6.5,1.824a21,21,0,0,1,4.392,1.176l.276-.66a21.4,21.4,0,0,0-4.38-1.092Zm-.216-3.168c.552-.444,1.116-.924,1.668-1.452H7.68l-.5.324c.4.264.8.588,1.2.9Zm7.968-2.256h-5.5c.288-.3.576-.624.852-.936l-.888-.372c-.348.444-.744.9-1.128,1.308H.768v.8H3.78a13.663,13.663,0,0,1-1.044.9,2.567,2.567,0,0,1-1.008.624c.1.24.216.66.264.84.408-.144,1.02-.156,7.164-.468.324.312.612.612.828.864l.756-.516a17.725,17.725,0,0,0-2.664-2.244h3.168Zm.048,12.436H4.968v.816h6.324Zm-.072,5.424a13.854,13.854,0,0,0-1.44-2.04c.408-.6.888-1.356,1.236-1.968l-.792-.216a20.341,20.341,0,0,1-1.332,2.208,13.127,13.127,0,0,1,1.608,2.364Zm-3.048-4.212a20.169,20.169,0,0,1-1.3,2.184A10.771,10.771,0,0,1,8.364,153.3l.744-.336a16.108,16.108,0,0,0-1.356-2.04c.4-.588.864-1.356,1.2-1.956ZM7.02,153.016A14.431,14.431,0,0,0,5.7,150.94a22.739,22.739,0,0,0,1.188-1.98l-.78-.2c-.276.564-.792,1.476-1.26,2.208a12.1,12.1,0,0,1,1.428,2.364Zm-2.184.924a15.414,15.414,0,0,0-.78-2.46l-.684.192c.144.36.276.768.408,1.176l-1.884.24a23.9,23.9,0,0,0,2.664-3.864l-.768-.456a16.885,16.885,0,0,1-.864,1.6l-1.236.108a21.341,21.341,0,0,0,1.824-3.192l-.792-.324a16.6,16.6,0,0,1-1.584,3.012c-.252.372-.456.612-.66.66a7.922,7.922,0,0,1,.276.792,6.285,6.285,0,0,1,1.656-.276c-.432.636-.8,1.14-.984,1.356-.348.432-.624.732-.888.792a5.71,5.71,0,0,1,.288.828,14.728,14.728,0,0,1,3.144-.588,6.227,6.227,0,0,1,.132.648Zm-3.78.7a13.5,13.5,0,0,1-.576,2.8c.18.072.552.192.708.276a15.166,15.166,0,0,0,.612-2.952Zm1.224.084a21.173,21.173,0,0,1,.3,2.532l.72-.12a20.274,20.274,0,0,0-.336-2.52Zm1.164-.216a16.169,16.169,0,0,1,.588,2.028l.66-.228a13.334,13.334,0,0,0-.612-2ZM8.5,156.82v-2.28h2.436v-.8h-5.7v.8H7.62v2.28H4.56v.816h6.852v-.816ZM4.224,169.16a14.483,14.483,0,0,1-3.54,1.092,4.76,4.76,0,0,1,.636.672,17.217,17.217,0,0,0,3.708-1.4Zm-1.152-1.344h6v.756h-6Zm3.852-4.02v.828h.84V163.8H10.3a.778.778,0,0,1-.144.432c-.06.072-.144.084-.276.084s-.456-.012-.828-.048a1.338,1.338,0,0,1,.144.384H3.84a2.5,2.5,0,0,0,.852-.852Zm-2.688-1.308a2.119,2.119,0,0,1-.18.72H2.472q.054-.342.108-.72Zm.84-1.272H6.924v.684H5.076Zm4.548,0v.684H7.764v-.684Zm-2.7,1.992H4.932a2.824,2.824,0,0,0,.12-.72H6.924Zm2.148,2.76h-6v-.744h6Zm0,1.284h-6v-.732h6Zm.888,1.9v-4.272c.12,0,.228-.012.312-.012a.851.851,0,0,0,.576-.216c.168-.156.24-.5.312-1.152.012-.108.024-.288.024-.288H7.764v-.72H10.44v-1.86H7.764v-.66h-.84v.66H5.076v-.66H4.26v.66H1.332v.588H4.26v.684H1.872c-.072.624-.192,1.368-.3,1.9h2.04A5.872,5.872,0,0,1,.72,164.912a3.161,3.161,0,0,1,.42.7c.4-.084.756-.168,1.068-.264v3.8H7.524l-.444.432a29.225,29.225,0,0,1,3.528,1.284l.672-.552a32.506,32.506,0,0,0-3.372-1.164Z" transform="translate(191 322)" fill="#fff" opacity="0.85"/>
      <path id="內文p-7" data-name="內文p" d="M1.056,14H5.88v-.912H4.116v-7.9h-.84a5.3,5.3,0,0,1-1.824.636v.7h1.56v6.564H1.056Zm8.94.156c1.668,0,2.736-1.524,2.736-4.584S11.664,5.036,10,5.036,7.248,6.512,7.248,9.572,8.316,14.156,10,14.156Zm0-.876c-1.008,0-1.68-1.116-1.68-3.708,0-2.568.672-3.66,1.68-3.66S11.664,7,11.664,9.572C11.664,12.164,10.992,13.28,10,13.28Zm5.7.72h1.14c.132-3.444.516-5.5,2.58-8.136V5.192H13.908V6.14h4.26A13.027,13.027,0,0,0,15.7,14ZM30.072,7.7a5.4,5.4,0,0,0-.864-.66,6.824,6.824,0,0,0,.7-.768l-.624-.2a4.285,4.285,0,0,1-.6.636c-.312-.168-.624-.348-.924-.48l-.444.4a8.821,8.821,0,0,1,.864.468,7.214,7.214,0,0,1-1.14.66,3.1,3.1,0,0,1,.492.468,8.492,8.492,0,0,0,1.2-.78,6.543,6.543,0,0,1,.864.7Zm-.036-2.148c-.216-.168-.5-.36-.828-.564a6.163,6.163,0,0,0,.66-.732l-.624-.168a5.111,5.111,0,0,1-.564.588c-.312-.168-.612-.324-.9-.444l-.432.4a8,8,0,0,1,.84.432,7.233,7.233,0,0,1-1.068.612,3.759,3.759,0,0,1,.5.432,8.337,8.337,0,0,0,1.116-.72A5.939,5.939,0,0,1,29.568,6Zm-5.58,3.36h8.436V10.4h.876V8.228h-.936c.1-1.068.2-2.616.264-3.8H30.324v.612h1.908l-.036.648H30.384V6.3H32.16l-.06.648H30.312v.612h1.74c-.024.24-.048.456-.072.672H25.4l-.048-.672h1.668V6.944h-1.7L25.272,6.3h1.7V5.684h-1.74L25.188,5.1a12.581,12.581,0,0,0,1.848-.468l-.4-.552a22.46,22.46,0,0,1-2.316.588l.24,3.564H23.6V10.4h.852Zm9.552,2.916h-4.8v-.216a12.5,12.5,0,0,0,2.712-1.488l-.54-.444-.18.048H25.56V10.4h4.692a11.138,11.138,0,0,1-1.908.912v.516h-5v.756h5V13.94c0,.168-.048.2-.252.216-.18,0-.852,0-1.6-.024a3.36,3.36,0,0,1,.312.756,7.18,7.18,0,0,0,1.932-.12c.372-.132.468-.336.468-.8v-1.38h4.8Zm4.128-.516V8.936h2.688v2.376Zm7.932,0H41.724V8.936H45.24V8.1H41.724V6.272h3.792V5.408H38.364c.192-.408.384-.84.552-1.26l-.9-.216a10.155,10.155,0,0,1-2.7,4.14,5.523,5.523,0,0,1,.768.564,11.087,11.087,0,0,0,1.824-2.364h2.916V8.1H37.248v3.216H35.28v.864h5.544v2.748h.9V12.176h4.344Z" transform="translate(519 541)" fill="#d48773"/>
      <path id="內文p-8" data-name="內文p" d="M25.066,14H29.89v-.912H28.126v-7.9h-.84a5.3,5.3,0,0,1-1.824.636v.7h1.56v6.564H25.066Zm8.94.156c1.668,0,2.736-1.524,2.736-4.584s-1.068-4.536-2.736-4.536-2.748,1.476-2.748,4.536S32.326,14.156,34.006,14.156Zm0-.876c-1.008,0-1.68-1.116-1.68-3.708,0-2.568.672-3.66,1.68-3.66S35.674,7,35.674,9.572C35.674,12.164,35,13.28,34.006,13.28Zm6.84-3.924c1.068,0,1.6.756,1.6,1.944s-.66,2-1.5,2c-1.1,0-1.764-1-1.9-2.82A2.274,2.274,0,0,1,40.846,9.356Zm.1,4.8a2.641,2.641,0,0,0,2.52-2.856c0-1.836-.948-2.76-2.436-2.76a2.736,2.736,0,0,0-2,1.068c.048-2.736,1.068-3.66,2.268-3.66a1.86,1.86,0,0,1,1.416.672l.6-.684a2.7,2.7,0,0,0-2.052-.9C39.55,5.036,38,6.356,38,9.8,38,12.7,39.25,14.156,40.942,14.156Z" transform="translate(446 541)" fill="#d48773"/>
      <path id="內文p-9" data-name="內文p" d="M25.066,14H29.89v-.912H28.126v-7.9h-.84a5.3,5.3,0,0,1-1.824.636v.7h1.56v6.564H25.066Zm8.94.156c1.668,0,2.736-1.524,2.736-4.584s-1.068-4.536-2.736-4.536-2.748,1.476-2.748,4.536S32.326,14.156,34.006,14.156Zm0-.876c-1.008,0-1.68-1.116-1.68-3.708,0-2.568.672-3.66,1.68-3.66S35.674,7,35.674,9.572C35.674,12.164,35,13.28,34.006,13.28Zm3.852.72H43.39v-.948H40.954c-.444,0-.984.048-1.44.084,2.064-1.956,3.444-3.744,3.444-5.5a2.413,2.413,0,0,0-2.556-2.6,3.364,3.364,0,0,0-2.592,1.3l.636.624a2.463,2.463,0,0,1,1.824-1.02,1.546,1.546,0,0,1,1.62,1.74c0,1.512-1.272,3.264-4.032,5.676Z" transform="translate(239 541)" fill="#d48773"/>
      <circle id="Ellipse_121" data-name="Ellipse 121" cx="4.5" cy="4.5" r="4.5" transform="translate(269 503)" fill="#1feac3"/>
      <circle id="Ellipse_122" data-name="Ellipse 122" cx="4.5" cy="4.5" r="4.5" transform="translate(320 495)" fill="#1feac3"/>
      <circle id="Ellipse_123" data-name="Ellipse 123" cx="4.5" cy="4.5" r="4.5" transform="translate(371 480)" fill="#1feac3"/>
      <circle id="Ellipse_124" data-name="Ellipse 124" cx="4.5" cy="4.5" r="4.5" transform="translate(423 471)" fill="#1feac3"/>
      <circle id="Ellipse_125" data-name="Ellipse 125" cx="4.5" cy="4.5" r="4.5" transform="translate(474 458)" fill="#1feac3"/>
      <circle id="Ellipse_126" data-name="Ellipse 126" cx="4.5" cy="4.5" r="4.5" transform="translate(474 325)" fill="#ff6cd7"/>
      <circle id="Ellipse_131" data-name="Ellipse 131" cx="4.5" cy="4.5" r="4.5" transform="translate(474 293)" fill="#fff"/>
      <circle id="Ellipse_132" data-name="Ellipse 132" cx="4.5" cy="4.5" r="4.5" transform="translate(422 314)" fill="#fff"/>
      <circle id="Ellipse_133" data-name="Ellipse 133" cx="4.5" cy="4.5" r="4.5" transform="translate(371 322)" fill="#fff"/>
      <circle id="Ellipse_134" data-name="Ellipse 134" cx="4.5" cy="4.5" r="4.5" transform="translate(320 327)" fill="#fff"/>
      <circle id="Ellipse_135" data-name="Ellipse 135" cx="4.5" cy="4.5" r="4.5" transform="translate(269 333)" fill="#fff"/>
      <circle id="Ellipse_127" data-name="Ellipse 127" cx="4.5" cy="4.5" r="4.5" transform="translate(423 342)" fill="#ff6cd7"/>
      <circle id="Ellipse_128" data-name="Ellipse 128" cx="4.5" cy="4.5" r="4.5" transform="translate(371 365)" fill="#ff6cd7"/>
      <circle id="Ellipse_129" data-name="Ellipse 129" cx="4.5" cy="4.5" r="4.5" transform="translate(320 385)" fill="#ff6cd7"/>
      <circle id="Ellipse_130" data-name="Ellipse 130" cx="4.5" cy="4.5" r="4.5" transform="translate(269 398)" fill="#ff6cd7"/>
    </g>
  </g>
</svg>
