<svg xmlns="http://www.w3.org/2000/svg" width="367.744" height="332.402" viewBox="0 0 367.744 332.402">
  <g id="data6" transform="translate(7041 12983)">
    <g id="Group_1910" data-name="Group 1910" transform="translate(-7257 -13202)">
      <path id="Path_1560" data-name="Path 1560" d="M2,0H217a2,2,0,0,1,2,2V25a2,2,0,0,1-2,2H2a2,2,0,0,1-2-2V2A2,2,0,0,1,2,0Z" transform="translate(216 219)" fill="#eeeeef"/>
      <path id="內文p" d="M13.2,7.592c-.128,2.7-.288,3.808-.512,4.1a.629.629,0,0,1-.512.192c-.288,0-.88-.016-1.488-.064a4.594,4.594,0,0,1,.5,1.632,11.245,11.245,0,0,0,1.856-.032,1.6,1.6,0,0,0,1.168-.64c.432-.528.624-2.08.784-6.064.032-.208.048-.72.048-.72H6.88v1.6H9.952A10.328,10.328,0,0,1,9.584,9.4C8.992,8.888,8.256,8.312,7.7,7.864L6.688,8.872c.672.592,1.6,1.392,2.208,1.984a5.345,5.345,0,0,1-2.464,1.92A4.519,4.519,0,0,1,7.488,14.12c3.024-1.408,3.84-3.744,4.16-6.528ZM9.456,13.96a13.326,13.326,0,0,1,1.7,2.448l1.184-.816a10.494,10.494,0,0,0-1.776-2.368ZM6.272,8.088H3.5l1.072-.416A15.613,15.613,0,0,0,3.6,5.5L2,6.056a16.48,16.48,0,0,1,.832,2.032H.512v1.5h5.76Zm-.336,2.24H.976v1.44h4.96Zm-4.96,3.6h4.96V12.5H.976ZM4.3,18.056H2.528v-1.84H4.3Zm1.584-3.344H.96v5.472H2.528v-.64h3.36V18.456l1.1.464A10.538,10.538,0,0,0,8,15.24l-1.328-.384a11.269,11.269,0,0,1-.784,3.136Zm4.384,3.856c-.48,0-.56-.064-.56-.528V14.568H8.08v3.488c0,1.5.384,1.984,1.952,1.984h1.76c1.28,0,1.712-.576,1.872-2.8a5.1,5.1,0,0,1-1.456-.608c-.048,1.68-.128,1.936-.592,1.936Zm2.624-3.92a14.329,14.329,0,0,1,1.28,3.472l1.392-.512a14.681,14.681,0,0,0-1.392-3.424Zm7.9,2.224a11,11,0,0,1,.32,2.96l1.648-.208a11.11,11.11,0,0,0-.432-2.944Zm2.416-.16a13.936,13.936,0,0,1,.736,2.656l1.52-.384a12.7,12.7,0,0,0-.768-2.592Zm4.72-3.952c-.1.464-.192.912-.288,1.3H21.536a15.148,15.148,0,0,0,1.2-1.3ZM26.688,9.848c-.08.448-.176.88-.272,1.264H23.968c.272-.416.528-.832.768-1.264Zm4.4,4.208H29.376c.192-.864.4-1.984.576-2.944H28.128c.208-.88.448-1.968.608-2.928H25.6q.5-1.08.912-2.208l-1.9-.528a18.124,18.124,0,0,1-1.1,2.736h-2.32l.8-.336a11.042,11.042,0,0,0-1.232-2.336l-1.648.64a13.313,13.313,0,0,1,1.008,2.032H17.424V9.848H22.56a14.59,14.59,0,0,1-6.128,5.488A11.707,11.707,0,0,1,17.424,17c.4-.208.8-.416,1.184-.656a5.774,5.774,0,0,1-1.728,3.024l1.488.944A6.684,6.684,0,0,0,20.24,16.7l-1.456-.464c.288-.176.56-.352.816-.544h9.52c-.192,1.824-.4,2.624-.656,2.88a.687.687,0,0,1-.528.176,12.527,12.527,0,0,1-1.552-.08,4.16,4.16,0,0,1,.512,1.7,13.819,13.819,0,0,0,1.9-.032,1.7,1.7,0,0,0,1.2-.592c.5-.512.768-1.856,1.04-4.96ZM27.92,18.04a8.311,8.311,0,0,0-1.04-2.112l-1.312.448a9.06,9.06,0,0,1,.944,2.16Zm8.336-.224V16.152h7.6v1.664Zm7.6-5.072v1.648h-7.6V12.744Zm0-3.408v1.648h-7.6V9.336ZM40.4,7.512c.256-.576.512-1.2.752-1.84l-2.3-.256a18.108,18.108,0,0,1-.432,2.1h-4.1V20.376h1.936v-.8h7.6v.784h2.032V7.512ZM54.336,18.2c-1.712,0-2-.144-2-.992V13.352h7.136v.912H61.5V6.36H50.16V8.312h9.312V11.48h-9.12v5.76c0,2.288.976,2.864,3.968,2.864H59.5c2.864,0,3.568-.832,3.92-3.888a7.267,7.267,0,0,1-1.936-.72c-.208,2.3-.432,2.7-2.032,2.7Zm16.848-6.16V14.6h-3.04V12.04Zm1.888,4.384V10.232H66.288V17.64h1.856V16.424Zm6.16-9.9H64.816V8.44H75.392v9.5c0,.336-.144.448-.512.448-.384,0-1.776.016-2.912-.048a8.63,8.63,0,0,1,.784,2.016,10.8,10.8,0,0,0,3.616-.352c.752-.32,1.024-.88,1.024-2.032V8.44h1.84Zm10.656,4.656a16.313,16.313,0,0,0-2.528-3.84L85.632,8.2a16.306,16.306,0,0,1,2.384,3.968ZM86.96,14.008c-.8.32-1.616.656-2.416.992l-.288-8.656-1.984.08.32,9.344c-.8.32-1.52.576-2.128.784l.64,2.032c1.808-.752,4.176-1.76,6.288-2.7Zm8.688,4.784A34.9,34.9,0,0,0,92.1,14.68a24.731,24.731,0,0,0,1.952-8.128l-2.1-.192c-.592,6.576-2.24,10.448-7.312,12.368a11.187,11.187,0,0,1,1.52,1.68,11.424,11.424,0,0,0,4.864-3.888,28.033,28.033,0,0,1,2.992,3.856Zm9.856-5.264v2.208h-2.992V13.528Zm1.76,3.776V11.96h-6.512v6.4h1.76V17.3Zm.72-8.176H100v1.6h7.984ZM110.8,6.2H97.232V20.392h1.856V8.008h9.84V18.184c0,.256-.112.352-.384.368s-1.2.016-2.048-.032a6.471,6.471,0,0,1,.656,1.888,6.5,6.5,0,0,0,2.832-.368c.608-.3.816-.848.816-1.84Zm5.472,1.92v2.816H114.8V8.12ZM114.8,15.608V12.6h1.472v3.008Zm3.248-9.184H113.04V18.712h1.76V17.3h3.248Zm.928,9.536a22.562,22.562,0,0,1,1.84,2.688l1.664-.976a20.5,20.5,0,0,0-1.92-2.56Zm8.432-7.136V7.16h-3.6V5.448h-1.872V7.16h-3.6V8.824h3.6v1.52h-3.088v1.648h5.1V13.24h-5.6v1.648h5.6v3.44c0,.224-.08.288-.336.288-.24,0-1.12,0-1.888-.032a6.928,6.928,0,0,1,.592,1.792,7.035,7.035,0,0,0,2.672-.32c.64-.288.816-.768.816-1.68V14.888h1.536V13.24h-1.536V11.992h1.168V10.344h-3.168V8.824Zm6.288,6.352h1.232a6.114,6.114,0,0,1-.72,1.568,7.187,7.187,0,0,1-.64-1.36Zm2.08-1.312-.288.032H134.32a6.452,6.452,0,0,0,.336-.832l-1.424-.352a8.752,8.752,0,0,1-1.792,3.12,26.878,26.878,0,0,0,.24-3.744V9.768h3.232v.688l-2.688.144.064,1.168,2.624-.144c.048,1.216.528,1.76,2.24,1.76h3.472a9.4,9.4,0,0,0,1.968-.128c-.064-.4-.112-.864-.16-1.36a11.857,11.857,0,0,1-1.984.144h-3.072c-.56,0-.656-.16-.672-.528l3.712-.208-.048-1.152-3.664.208V9.768h4.3a11.743,11.743,0,0,1-.416,1.216l1.584.448a17.747,17.747,0,0,0,1.056-2.864l-1.344-.32-.3.08h-4.752v-.7h5.12V6.3h-5.12V5.464h-1.92V8.328h-5.04v3.744c0,2.112-.1,5.136-1.392,7.216a6.8,6.8,0,0,1,1.488,1.136,10.373,10.373,0,0,0,1.328-3.7c.256.272.528.576.672.752a5.483,5.483,0,0,0,.688-.784,5.862,5.862,0,0,0,.64,1.136,6.187,6.187,0,0,1-2.384,1.312,4.923,4.923,0,0,1,.832,1.312,7.958,7.958,0,0,0,2.56-1.5,7.448,7.448,0,0,0,4.72,1.168h3.968a5.141,5.141,0,0,1,.56-1.552c-.9.032-3.76.032-4.448.032a7.035,7.035,0,0,1-3.808-.8,9.232,9.232,0,0,0,1.392-3.712Zm6.016,4.192c.768,0,1.088-.4,1.184-1.712a3.406,3.406,0,0,1-1.1-.448c-.048.96-.1,1.152-.272,1.152h-.32c-.16,0-.192-.032-.192-.384v-2.72H137.28v1.088a2.71,2.71,0,0,1-1.168,2.416,6.288,6.288,0,0,1,1.168.992,3.863,3.863,0,0,0,1.488-3.12h.944v1.344c0,1.072.288,1.392,1.3,1.392Zm7.952-2.656c-.512.176-1.04.336-1.568.5V12.7h1.44V10.952h-1.44V8.136h1.712V6.36h-5.28V8.136h1.76v2.816h-1.616V12.7h1.616v3.76c-.736.208-1.392.384-1.952.528l.432,1.936c1.536-.5,3.456-1.1,5.216-1.728Zm2.464-4.832h1.648v1.376h-1.648Zm0-2.832h1.648V9.064h-1.648Zm4.832,1.328h-1.584V7.736h1.584Zm0,2.88h-1.584V10.568h1.584Zm-1.408,6.224v-1.52h3.392V14.936h-3.392V13.56h3.216V6.12H150.5v7.44h3.2v1.376h-3.312v1.712H153.7v1.52H149.28V19.9h10.288V18.168Zm14.48-9.744a10.67,10.67,0,0,1-2.64,1.872,12.821,12.821,0,0,0-1.808-1.552c.16-.112.32-.208.464-.32Zm1.776-1.76-.336.08h-3.376q.456-.432.864-.864l-2.048-.48a13.742,13.742,0,0,1-5.552,3.568,5.831,5.831,0,0,1,1.3,1.36c.512-.224.992-.464,1.456-.72a20.183,20.183,0,0,1,1.568,1.44,21.984,21.984,0,0,1-4.72,1.216,7.025,7.025,0,0,1,.88,1.68c4.608-.864,9.152-2.848,11.216-6.528Zm.448,7.664a8.549,8.549,0,0,1-2.688,2.208,15.7,15.7,0,0,0-1.872-1.584c.3-.208.624-.416.928-.624Zm1.6-1.776-.352.1H170.72c.352-.352.656-.7.976-1.072l-2.064-.48a13.51,13.51,0,0,1-6.72,4.144,5.994,5.994,0,0,1,1.168,1.472,17.4,17.4,0,0,0,2.064-.88c.576.48,1.216,1.024,1.664,1.488a26.432,26.432,0,0,1-6.928,1.264,8.007,8.007,0,0,1,.768,1.84c6.1-.576,11.344-2.256,13.6-7.12Zm5.968-7.04a16.943,16.943,0,0,1-3.552,5.984,13,13,0,0,1,1.024,1.984c.32-.352.64-.752.96-1.152v8.048h1.808V9.5a27.106,27.106,0,0,0,1.568-3.408Zm11.5,7.648h-4.1V10.408h3.344V8.552h-3.344v-2.9h-1.92v2.9h-1.328c.176-.608.336-1.216.464-1.84l-1.84-.384A14.686,14.686,0,0,1,180.8,11.56a12.3,12.3,0,0,1,1.648.912,11.29,11.29,0,0,0,.992-2.064h1.952V13.16h-4.32v1.856h4.32v5.376h1.92V15.016h4.1ZM203.792,16.7h-2.88v-.752h2.88Zm-2.88-2.9h2.88v.688h-2.88Zm-4.448-3.184V9.848h2.512v.768Zm7.04-.768v.768h-2.592V9.848Zm3.888,4.64h-1.664V12.52h-4.816v-.7h4.544V8.648h-4.544V7.992h6.112v-1.5h-6.112V5.448h-1.936v1.04h-5.968v1.5h5.968v.656H194.64v3.168h4.336v.7H194.24V13.8h4.736v.688H192.64v1.456h6.336V16.7h-4.864v1.376h4.864v.5c0,.288-.1.384-.4.4-.256,0-1.2,0-1.968-.032a5.865,5.865,0,0,1,.624,1.5,8.426,8.426,0,0,0,2.832-.272c.624-.272.848-.656.848-1.6v-.5h2.88v.656h1.936V15.944h1.664Z" transform="translate(221 219)" fill="#303236"/>
      <path id="Path_1561" data-name="Path 1561" d="M2,0H260.8a2,2,0,0,1,2,2V18a2,2,0,0,1-2,2H2a2,2,0,0,1-2-2V2A2,2,0,0,1,2,0Z" transform="translate(252.075 258)" fill="#4d505a"/>
      <path id="Path_1562" data-name="Path 1562" d="M2,0H147.7V20H2a2,2,0,0,1-2-2V2A2,2,0,0,1,2,0Z" transform="translate(252.075 258)" fill="#4891f2"/>
      <path id="Path_1564" data-name="Path 1564" d="M0,0V34" transform="translate(486.5 251.5)" fill="none" stroke="#aaa" stroke-width="1" stroke-dasharray="1"/>
      <path id="內文p-2" data-name="內文p" d="M11.344,15.176v2.56H4.56v-2.56Zm-8.736,5.2H4.56V19.56h6.784v.8h2.048V13.352H2.608Zm6.7-12.464C9.9,8.5,10.544,9.176,11.168,9.88l-6.56.208A26.3,26.3,0,0,0,8.1,6.008l-1.92-.816A21.349,21.349,0,0,1,2.784,9.544a3.3,3.3,0,0,1-1.328.928A14.567,14.567,0,0,1,2.08,12.3c.848-.288,1.984-.32,10.48-.736a14,14,0,0,1,.832,1.216l1.616-1.168A29.081,29.081,0,0,0,10.8,6.92Zm22.08,2.752a9.864,9.864,0,0,0-.72-1.712l-.784.288c.064.128.128.272.192.416l-.9.1A14.542,14.542,0,0,0,30.88,7.4L29.9,6.968c-.112.24-.24.48-.368.72L28.8,7.72a10.685,10.685,0,0,0,1.008-1.744l-1.024-.384a7.138,7.138,0,0,1-.976,2.048c-.176.24-.32.4-.512.432a5.14,5.14,0,0,1,.352.768,6.091,6.091,0,0,1,1.264-.192,10.039,10.039,0,0,1-.8.992,1.338,1.338,0,0,1-.752.56,3.412,3.412,0,0,1,.368.784,10.848,10.848,0,0,1,2.7-.5c.064.192.128.368.16.512Zm-1.5,2.672a8.746,8.746,0,0,0-.352-1.936l-.816.224a9.921,9.921,0,0,1,.32,2ZM27.68,11.32a5.2,5.2,0,0,1-.528,1.808,4.747,4.747,0,0,1,.768.56,6.8,6.8,0,0,0,.656-2.128Zm-.288-4.288H25.776l.64-.16A10.28,10.28,0,0,0,25.84,5.64L24.592,5.9a7.79,7.79,0,0,1,.48,1.136h-1.5v.992h3.824Zm-.32,2.64h-3.04v.864h3.04ZM25.12,11.816h.8v.7h-.8Zm-1.1,1.536h3.056V10.968H24.016ZM27.072,8.44h-3.04V9.3h3.04ZM23.84,10.632a10.843,10.843,0,0,0-.7-1.68l-.8.288c.064.128.144.272.208.416l-.912.1a13.633,13.633,0,0,0,1.712-2.336l-.976-.464a7.865,7.865,0,0,1-.384.72l-.72.032a8.271,8.271,0,0,0,.992-1.744l-1.024-.368a7.966,7.966,0,0,1-.96,2.048.838.838,0,0,1-.528.432,4.189,4.189,0,0,1,.384.752,4.247,4.247,0,0,1,1.248-.208,8.17,8.17,0,0,1-.8,1.024c-.288.3-.5.512-.752.544a5.5,5.5,0,0,1,.368.784,13.086,13.086,0,0,1,2.688-.5,5.1,5.1,0,0,1,.144.5Zm-.16,2.112A7.127,7.127,0,0,0,23.2,11.1l-.736.288A6.889,6.889,0,0,1,22.9,13.1Zm-1.312.448a7.145,7.145,0,0,0-.336-1.792l-.816.208a8.588,8.588,0,0,1,.3,1.856ZM20.16,7.256A11.586,11.586,0,0,0,17.84,5.64L16.752,6.92a10.706,10.706,0,0,1,2.24,1.76Zm-.32,4.08a10.684,10.684,0,0,0-2.384-1.5l-1.04,1.328a11.381,11.381,0,0,1,2.3,1.632ZM18.48,20.2c.624-1.552,1.28-3.392,1.792-5.1l-1.5-.96a48.82,48.82,0,0,1-1.984,5.12Zm1.648-8.8a5.408,5.408,0,0,1-.528,1.808,5.377,5.377,0,0,1,.784.56,7.364,7.364,0,0,0,.656-2.144Zm2.72,5.552.128-.512h7.088V13.8H20.992v1.056H28.3v.512H21.472a27.066,27.066,0,0,1-.72,2.736h8.1a1.612,1.612,0,0,1-.464.832,1.145,1.145,0,0,1-.688.128c-.384,0-1.456-.016-2.4-.112a3.217,3.217,0,0,1,.512,1.392c.992.032,1.952.048,2.48.032a2.518,2.518,0,0,0,1.488-.416,3.992,3.992,0,0,0,.976-2.336,4.277,4.277,0,0,0,.1-.672Zm7.136-5.568a8.846,8.846,0,0,1,.544,2.016l.8-.368a9.206,9.206,0,0,0-.576-1.936Zm6.432,7.84a4,4,0,0,0,4.144-4.16,3.438,3.438,0,0,0-3.648-3.76,3.062,3.062,0,0,0-1.424.336l.224-2.512h4.3V7.16H33.68L33.36,12.9l1.072.7a2.833,2.833,0,0,1,1.776-.624,1.916,1.916,0,0,1,2,2.144,1.988,1.988,0,0,1-2.1,2.176A3.68,3.68,0,0,1,33.5,16.1l-1.088,1.5A5.4,5.4,0,0,0,36.416,19.224ZM44.4,19h2.384c.192-4.64.56-7.056,3.312-10.416V7.16H42.224V9.128h5.328C45.3,12.264,44.608,14.888,44.4,19Zm9.84-4.56c1.7,0,2.9-1.392,2.9-3.776,0-2.368-1.2-3.728-2.9-3.728s-2.88,1.36-2.88,3.728C51.36,13.048,52.544,14.44,54.24,14.44Zm0-1.328c-.688,0-1.216-.7-1.216-2.448s.528-2.4,1.216-2.4,1.232.656,1.232,2.4S54.928,13.112,54.24,13.112Zm.4,6.112h1.376L62.464,6.936H61.072Zm8.208,0c1.68,0,2.9-1.408,2.9-3.776,0-2.384-1.216-3.744-2.9-3.744s-2.88,1.36-2.88,3.744C59.968,17.816,61.168,19.224,62.848,19.224Zm0-1.344c-.688,0-1.232-.688-1.232-2.432s.544-2.416,1.232-2.416,1.232.672,1.232,2.416S63.536,17.88,62.848,17.88Z" transform="translate(516 256)" fill="#4891f2"/>
      <path id="內文p-3" data-name="內文p" d="M6.16,19.224c3.136,0,5.3-2.352,5.3-6.192s-2.16-6.1-5.3-6.1-5.3,2.24-5.3,6.1C.864,16.872,3.024,19.224,6.16,19.224Zm0-2.048c-1.76,0-2.88-1.616-2.88-4.144,0-2.544,1.12-4.064,2.88-4.064s2.88,1.52,2.88,4.064C9.04,15.56,7.92,17.176,6.16,17.176ZM13.776,19h7.44V17.016H16.144V13.848H20.3V11.864h-4.16V9.128h4.9V7.16H13.776Zm14.672.224a4.792,4.792,0,0,0,3.776-1.744l-1.248-1.472a3.292,3.292,0,0,1-2.448,1.168c-1.872,0-3.088-1.552-3.088-4.128,0-2.544,1.344-4.08,3.136-4.08a3.053,3.053,0,0,1,2.176.992L32,8.456a4.83,4.83,0,0,0-3.472-1.52c-2.992,0-5.5,2.288-5.5,6.192C23.024,17.08,25.456,19.224,28.448,19.224ZM34.128,19H37.5c3.488,0,5.728-1.984,5.728-5.968,0-4-2.24-5.872-5.856-5.872H34.128ZM36.5,17.1V9.048h.736c2.208,0,3.584,1.088,3.584,3.984,0,2.88-1.376,4.064-3.584,4.064Zm22.88-3.92H53.088V8.328h5.36V6.44H45.712V8.328H51.1v4.848H44.88v1.936H51.1v5.28h1.984v-5.28h6.288ZM46.688,9.352a16.046,16.046,0,0,1,1.168,3.328l1.856-.576a14.6,14.6,0,0,0-1.28-3.264Zm9.344,3.3A31.305,31.305,0,0,0,57.792,9.3L55.76,8.792a18.959,18.959,0,0,1-1.392,3.376Zm8.256,1.808v-3.52h1.52V9.128h-1.52V5.656H62.512V9.128h-1.68v1.808h1.68v4.272c-.768.288-1.44.56-2,.752l.768,1.92c1.44-.672,3.216-1.52,4.88-2.352l-.448-1.664Zm3.344,1.856h4.88V14.68h-4.88Zm.784-4.72v1.632H72.16V11.592Zm6.928-3.744H69.616c.256-.656.48-1.3.672-1.968l-1.76-.432A15.109,15.109,0,0,1,65.84,11a11.15,11.15,0,0,1,1.584,1.008,14.791,14.791,0,0,0,1.44-2.432H73.52c-.144,5.712-.3,8.272-.8,8.784a.793.793,0,0,1-.688.256c-.464,0-1.456,0-2.592-.1a4.4,4.4,0,0,1,.656,1.856,19.86,19.86,0,0,0,2.64-.032,2.117,2.117,0,0,0,1.616-.928c.64-.88.816-3.392.992-10.656ZM79.072,19h2.384c.192-4.64.56-7.056,3.312-10.416V7.16H76.9V9.128h5.328C79.968,12.264,79.28,14.888,79.072,19Zm11.168.224c2.4,0,4-2.112,4-6.192s-1.6-6.1-4-6.1c-2.416,0-4.016,2-4.016,6.1C86.224,17.112,87.824,19.224,90.24,19.224Zm0-1.84c-1.024,0-1.792-1.024-1.792-4.352,0-3.312.768-4.272,1.792-4.272,1.008,0,1.776.96,1.776,4.272C92.016,16.36,91.248,17.384,90.24,17.384Zm8.1-2.944c1.7,0,2.9-1.392,2.9-3.776,0-2.368-1.2-3.728-2.9-3.728s-2.88,1.36-2.88,3.728C95.456,13.048,96.64,14.44,98.336,14.44Zm0-1.328c-.688,0-1.216-.7-1.216-2.448s.528-2.4,1.216-2.4,1.232.656,1.232,2.4S99.024,13.112,98.336,13.112Zm.4,6.112h1.376L106.56,6.936h-1.392Zm8.208,0c1.68,0,2.9-1.408,2.9-3.776,0-2.384-1.216-3.744-2.9-3.744s-2.88,1.36-2.88,3.744C104.064,17.816,105.264,19.224,106.944,19.224Zm0-1.344c-.688,0-1.232-.688-1.232-2.432s.544-2.416,1.232-2.416,1.232.672,1.232,2.416S107.632,17.88,106.944,17.88Z" transform="translate(428 284)" fill="#7e8391"/>
      <path id="Path_1563" data-name="Path 1563" d="M5.606,1.789a1,1,0,0,1,1.789,0l4.882,9.764A1,1,0,0,1,11.382,13H1.618a1,1,0,0,1-.894-1.447Z" transform="translate(406 255) rotate(180)" fill="#eeeeef"/>
    </g>
    <g id="Group_1909" data-name="Group 1909" transform="translate(-7257 -13204)">
      <rect id="Rectangle_2243" data-name="Rectangle 2243" width="262.8" height="20" rx="2" transform="translate(252.075 382)" fill="#4d505a"/>
      <path id="Rectangle_2241" data-name="Rectangle 2241" d="M2,0H211a0,0,0,0,1,0,0V20a0,0,0,0,1,0,0H2a2,2,0,0,1-2-2V2A2,2,0,0,1,2,0Z" transform="translate(252.075 382)" fill="#4891f2"/>
      <line id="Line_332" data-name="Line 332" y2="34" transform="translate(473.5 373.5)" fill="none" stroke="#aaa" stroke-width="1" stroke-dasharray="1"/>
      <path id="內文p-4" data-name="內文p" d="M11.344,15.176v2.56H4.56v-2.56Zm-8.736,5.2H4.56V19.56h6.784v.8h2.048V13.352H2.608Zm6.7-12.464C9.9,8.5,10.544,9.176,11.168,9.88l-6.56.208A26.3,26.3,0,0,0,8.1,6.008l-1.92-.816A21.349,21.349,0,0,1,2.784,9.544a3.3,3.3,0,0,1-1.328.928A14.567,14.567,0,0,1,2.08,12.3c.848-.288,1.984-.32,10.48-.736a14,14,0,0,1,.832,1.216l1.616-1.168A29.081,29.081,0,0,0,10.8,6.92Zm22.08,2.752a9.864,9.864,0,0,0-.72-1.712l-.784.288c.064.128.128.272.192.416l-.9.1A14.542,14.542,0,0,0,30.88,7.4L29.9,6.968c-.112.24-.24.48-.368.72L28.8,7.72a10.685,10.685,0,0,0,1.008-1.744l-1.024-.384a7.138,7.138,0,0,1-.976,2.048c-.176.24-.32.4-.512.432a5.14,5.14,0,0,1,.352.768,6.091,6.091,0,0,1,1.264-.192,10.039,10.039,0,0,1-.8.992,1.338,1.338,0,0,1-.752.56,3.412,3.412,0,0,1,.368.784,10.848,10.848,0,0,1,2.7-.5c.064.192.128.368.16.512Zm-1.5,2.672a8.746,8.746,0,0,0-.352-1.936l-.816.224a9.921,9.921,0,0,1,.32,2ZM27.68,11.32a5.2,5.2,0,0,1-.528,1.808,4.747,4.747,0,0,1,.768.56,6.8,6.8,0,0,0,.656-2.128Zm-.288-4.288H25.776l.64-.16A10.28,10.28,0,0,0,25.84,5.64L24.592,5.9a7.79,7.79,0,0,1,.48,1.136h-1.5v.992h3.824Zm-.32,2.64h-3.04v.864h3.04ZM25.12,11.816h.8v.7h-.8Zm-1.1,1.536h3.056V10.968H24.016ZM27.072,8.44h-3.04V9.3h3.04ZM23.84,10.632a10.843,10.843,0,0,0-.7-1.68l-.8.288c.064.128.144.272.208.416l-.912.1a13.633,13.633,0,0,0,1.712-2.336l-.976-.464a7.865,7.865,0,0,1-.384.72l-.72.032a8.271,8.271,0,0,0,.992-1.744l-1.024-.368a7.966,7.966,0,0,1-.96,2.048.838.838,0,0,1-.528.432,4.189,4.189,0,0,1,.384.752,4.247,4.247,0,0,1,1.248-.208,8.17,8.17,0,0,1-.8,1.024c-.288.3-.5.512-.752.544a5.5,5.5,0,0,1,.368.784,13.086,13.086,0,0,1,2.688-.5,5.1,5.1,0,0,1,.144.5Zm-.16,2.112A7.127,7.127,0,0,0,23.2,11.1l-.736.288A6.889,6.889,0,0,1,22.9,13.1Zm-1.312.448a7.145,7.145,0,0,0-.336-1.792l-.816.208a8.588,8.588,0,0,1,.3,1.856ZM20.16,7.256A11.586,11.586,0,0,0,17.84,5.64L16.752,6.92a10.706,10.706,0,0,1,2.24,1.76Zm-.32,4.08a10.684,10.684,0,0,0-2.384-1.5l-1.04,1.328a11.381,11.381,0,0,1,2.3,1.632ZM18.48,20.2c.624-1.552,1.28-3.392,1.792-5.1l-1.5-.96a48.82,48.82,0,0,1-1.984,5.12Zm1.648-8.8a5.408,5.408,0,0,1-.528,1.808,5.377,5.377,0,0,1,.784.56,7.364,7.364,0,0,0,.656-2.144Zm2.72,5.552.128-.512h7.088V13.8H20.992v1.056H28.3v.512H21.472a27.066,27.066,0,0,1-.72,2.736h8.1a1.612,1.612,0,0,1-.464.832,1.145,1.145,0,0,1-.688.128c-.384,0-1.456-.016-2.4-.112a3.217,3.217,0,0,1,.512,1.392c.992.032,1.952.048,2.48.032a2.518,2.518,0,0,0,1.488-.416,3.992,3.992,0,0,0,.976-2.336,4.277,4.277,0,0,0,.1-.672Zm7.136-5.568a8.846,8.846,0,0,1,.544,2.016l.8-.368a9.206,9.206,0,0,0-.576-1.936Zm6.72,7.84c2.4,0,3.984-1.376,3.984-3.168A3.444,3.444,0,0,0,38.7,12.888v-.08a3.449,3.449,0,0,0,1.52-2.7,3.107,3.107,0,0,0-3.44-3.152c-2.064,0-3.568,1.216-3.568,3.12a3.373,3.373,0,0,0,1.568,2.816v.08a3.445,3.445,0,0,0-2.032,3.088C32.752,17.912,34.448,19.224,36.7,19.224Zm.752-6.992c-1.248-.5-2.16-1.04-2.16-2.16A1.377,1.377,0,0,1,36.736,8.6,1.508,1.508,0,0,1,38.3,10.248,2.836,2.836,0,0,1,37.456,12.232Zm-.688,5.328a1.815,1.815,0,0,1-1.984-1.76,2.847,2.847,0,0,1,1.088-2.192c1.536.624,2.624,1.136,2.624,2.368A1.552,1.552,0,0,1,36.768,17.56Zm9.376,1.664c2.4,0,4-2.112,4-6.192s-1.6-6.1-4-6.1c-2.416,0-4.016,2-4.016,6.1C42.128,17.112,43.728,19.224,46.144,19.224Zm0-1.84c-1.024,0-1.792-1.024-1.792-4.352,0-3.312.768-4.272,1.792-4.272,1.008,0,1.776.96,1.776,4.272C47.92,16.36,47.152,17.384,46.144,17.384Zm8.1-2.944c1.7,0,2.9-1.392,2.9-3.776,0-2.368-1.2-3.728-2.9-3.728s-2.88,1.36-2.88,3.728C51.36,13.048,52.544,14.44,54.24,14.44Zm0-1.328c-.688,0-1.216-.7-1.216-2.448s.528-2.4,1.216-2.4,1.232.656,1.232,2.4S54.928,13.112,54.24,13.112Zm.4,6.112h1.376L62.464,6.936H61.072Zm8.208,0c1.68,0,2.9-1.408,2.9-3.776,0-2.384-1.216-3.744-2.9-3.744s-2.88,1.36-2.88,3.744C59.968,17.816,61.168,19.224,62.848,19.224Zm0-1.344c-.688,0-1.232-.688-1.232-2.432s.544-2.416,1.232-2.416,1.232.672,1.232,2.416S63.536,17.88,62.848,17.88Z" transform="translate(517 379)" fill="#4891f2"/>
      <path id="內文p-5" data-name="內文p" d="M6.16,19.224c3.136,0,5.3-2.352,5.3-6.192s-2.16-6.1-5.3-6.1-5.3,2.24-5.3,6.1C.864,16.872,3.024,19.224,6.16,19.224Zm0-2.048c-1.76,0-2.88-1.616-2.88-4.144,0-2.544,1.12-4.064,2.88-4.064s2.88,1.52,2.88,4.064C9.04,15.56,7.92,17.176,6.16,17.176ZM13.776,19h7.44V17.016H16.144V13.848H20.3V11.864h-4.16V9.128h4.9V7.16H13.776Zm14.672.224a4.792,4.792,0,0,0,3.776-1.744l-1.248-1.472a3.292,3.292,0,0,1-2.448,1.168c-1.872,0-3.088-1.552-3.088-4.128,0-2.544,1.344-4.08,3.136-4.08a3.053,3.053,0,0,1,2.176.992L32,8.456a4.83,4.83,0,0,0-3.472-1.52c-2.992,0-5.5,2.288-5.5,6.192C23.024,17.08,25.456,19.224,28.448,19.224ZM34.128,19H37.5c3.488,0,5.728-1.984,5.728-5.968,0-4-2.24-5.872-5.856-5.872H34.128ZM36.5,17.1V9.048h.736c2.208,0,3.584,1.088,3.584,3.984,0,2.88-1.376,4.064-3.584,4.064Zm22.88-3.92H53.088V8.328h5.36V6.44H45.712V8.328H51.1v4.848H44.88v1.936H51.1v5.28h1.984v-5.28h6.288ZM46.688,9.352a16.046,16.046,0,0,1,1.168,3.328l1.856-.576a14.6,14.6,0,0,0-1.28-3.264Zm9.344,3.3A31.305,31.305,0,0,0,57.792,9.3L55.76,8.792a18.959,18.959,0,0,1-1.392,3.376Zm8.256,1.808v-3.52h1.52V9.128h-1.52V5.656H62.512V9.128h-1.68v1.808h1.68v4.272c-.768.288-1.44.56-2,.752l.768,1.92c1.44-.672,3.216-1.52,4.88-2.352l-.448-1.664Zm3.344,1.856h4.88V14.68h-4.88Zm.784-4.72v1.632H72.16V11.592Zm6.928-3.744H69.616c.256-.656.48-1.3.672-1.968l-1.76-.432A15.109,15.109,0,0,1,65.84,11a11.15,11.15,0,0,1,1.584,1.008,14.791,14.791,0,0,0,1.44-2.432H73.52c-.144,5.712-.3,8.272-.8,8.784a.793.793,0,0,1-.688.256c-.464,0-1.456,0-2.592-.1a4.4,4.4,0,0,1,.656,1.856,19.86,19.86,0,0,0,2.64-.032,2.117,2.117,0,0,0,1.616-.928c.64-.88.816-3.392.992-10.656ZM80.8,19.224c2.4,0,3.984-1.376,3.984-3.168A3.444,3.444,0,0,0,82.8,12.888v-.08a3.449,3.449,0,0,0,1.52-2.7,3.107,3.107,0,0,0-3.44-3.152c-2.064,0-3.568,1.216-3.568,3.12a3.373,3.373,0,0,0,1.568,2.816v.08a3.445,3.445,0,0,0-2.032,3.088C76.848,17.912,78.544,19.224,80.8,19.224Zm.752-6.992c-1.248-.5-2.16-1.04-2.16-2.16A1.377,1.377,0,0,1,80.832,8.6,1.508,1.508,0,0,1,82.4,10.248,2.836,2.836,0,0,1,81.552,12.232Zm-.688,5.328A1.815,1.815,0,0,1,78.88,15.8a2.847,2.847,0,0,1,1.088-2.192c1.536.624,2.624,1.136,2.624,2.368A1.552,1.552,0,0,1,80.864,17.56Zm7.28-3.424,1.84-2.944c.336-.64.656-1.3.944-1.92h.064c-.032.688-.1,1.76-.1,2.448v2.416Zm6.352,0H93.088V7.16H90.272l-4.416,7.168v1.6H90.9V19h2.192V15.928H94.5Zm3.84.3c1.7,0,2.9-1.392,2.9-3.776,0-2.368-1.2-3.728-2.9-3.728s-2.88,1.36-2.88,3.728C95.456,13.048,96.64,14.44,98.336,14.44Zm0-1.328c-.688,0-1.216-.7-1.216-2.448s.528-2.4,1.216-2.4,1.232.656,1.232,2.4S99.024,13.112,98.336,13.112Zm.4,6.112h1.376L106.56,6.936h-1.392Zm8.208,0c1.68,0,2.9-1.408,2.9-3.776,0-2.384-1.216-3.744-2.9-3.744s-2.88,1.36-2.88,3.744C104.064,17.816,105.264,19.224,106.944,19.224Zm0-1.344c-.688,0-1.232-.688-1.232-2.432s.544-2.416,1.232-2.416,1.232.672,1.232,2.416S107.632,17.88,106.944,17.88Z" transform="translate(413 407)" fill="#7e8391"/>
      <g id="Group_1778" data-name="Group 1778" transform="translate(-97 -1)">
        <rect id="Rectangle_2244" data-name="Rectangle 2244" width="190" height="27" rx="2" transform="translate(394 344)" fill="#eeeeef"/>
        <path id="Polygon_4" data-name="Polygon 4" d="M5.606,1.789a1,1,0,0,1,1.789,0l4.882,9.764A1,1,0,0,1,11.382,13H1.618a1,1,0,0,1-.894-1.447Z" transform="translate(566 380) rotate(180)" fill="#eeeeef"/>
        <path id="內文p-6" data-name="內文p" d="M13.616,12.5a6.4,6.4,0,0,0,1.616-.144c-.064-.432-.144-1.12-.176-1.616a8.268,8.268,0,0,1-1.472.128H11.248c-.512,0-.608-.224-.608-.816V9h3.936V7.368H10.64V5.48H8.752v4.544c0,1.776.512,2.48,2.432,2.48ZM3.28,14.216a23.156,23.156,0,0,1,1.744,1.536L5.792,15v.528c-.96.512-1.9.992-2.624,1.312a18.99,18.99,0,0,0,.112-2.048Zm2.512-1.44v1.808c-.48-.416-1.168-.976-1.712-1.36l-.8.688V12.776Zm1.792-1.6H1.52v3.6a7.991,7.991,0,0,1-.912,4.4,7.681,7.681,0,0,1,1.328,1.28,7.058,7.058,0,0,0,1.136-3.008l.4,1.12c.72-.464,1.52-1.008,2.32-1.584v1.632c0,.208-.064.272-.272.272-.192,0-.816,0-1.392-.032A5.308,5.308,0,0,1,4.7,20.344a5.533,5.533,0,0,0,2.208-.272c.528-.256.672-.656.672-1.44ZM5.152,7.192c.208.384.432.832.672,1.3l-2.336.176A17.827,17.827,0,0,0,5.456,6.008l-1.92-.544A13.535,13.535,0,0,1,1.648,8.312a1.852,1.852,0,0,1-.88.64c.192.48.5,1.344.592,1.712.464-.192,1.12-.288,5.168-.688.16.384.3.72.4,1.008l1.664-.672a34.081,34.081,0,0,0-1.9-3.68Zm6.224,11.424c-.624,0-.736-.08-.736-.64V16.232h4.048v-1.68H10.64v-1.6H8.752v5.024c0,1.744.464,2.3,2.352,2.3h2.272c1.52,0,2.016-.624,2.208-2.72a5.209,5.209,0,0,1-1.648-.688c-.08,1.472-.192,1.744-.736,1.744Zm15.9-4.032h3.168v-1.76H27.28V10.168H25.36v2.656H22.112v1.76H25.36v3.648H21.488v1.76h9.584v-1.76H27.28ZM23.328,7.656c.224-.576.432-1.152.608-1.744l-2-.48c-.192.736-.432,1.472-.7,2.224h-4.32V9.48h3.472A12.126,12.126,0,0,1,16.4,14.088a13.3,13.3,0,0,1,.944,1.84,12.014,12.014,0,0,0,1.408-1.12v5.568h1.936V12.632A18.391,18.391,0,0,0,22.56,9.48h8.56V7.656Zm11.28,4.512v-.784h.96v.784Zm3.6-.784v.784h-.96v-.784Zm-.96-3.568v.736h-1.68V7.816ZM40,16.984V15.7H37.136c.032-.192.064-.384.08-.576h2.416V13.864H37.248v-.576H39.7V10.3H37.248V9.7h1.728V7.816h1.088V6.472H38.976V5.464H37.248V6.472h-1.68V5.464H33.92V6.472H32.736V7.816H33.92V9.7h1.648V10.3H33.2v2.992h2.368v.576h-2.4v1.264H35.52c-.016.192-.048.384-.08.576H32.672v1.28h2.32a5.193,5.193,0,0,1-2.576,2.224,5.837,5.837,0,0,1,1.2,1.232,6.092,6.092,0,0,0,2.64-2.224,23.659,23.659,0,0,1,2.192,1.936l1.136-1.408c-.4-.3-1.872-1.3-2.624-1.76Zm2.288.8V13.256h.576a16.093,16.093,0,0,0,1.152,4.16ZM44.928,7.72V8.84h-2.64V7.72Zm-2.64,3.824V10.408h2.64v1.136ZM46.224,13.5a10.835,10.835,0,0,1-1.36,1.344,14.35,14.35,0,0,1-.384-1.584h2.256V6.008H40.48V17.32a.93.93,0,0,1-.64.96,6.29,6.29,0,0,1,.672,1.9c.368-.24.928-.464,3.872-1.184a7.437,7.437,0,0,1-.1-1.008,6.757,6.757,0,0,0,2.128,2.448,6.645,6.645,0,0,1,1.248-1.552,5.643,5.643,0,0,1-2.224-2.56c.64-.448,1.376-1.008,2.048-1.536ZM60.24,11.912v-1.68H56.88V8.344H55.12v1.888H51.808v1.68h2.5a9.6,9.6,0,0,1-3.136,3.264,7.846,7.846,0,0,1,1.184,1.36A10.727,10.727,0,0,0,55.12,13.48v4h1.76V13.768a37.457,37.457,0,0,1,2.656,2.656l1.12-1.264A39.991,39.991,0,0,0,57.1,11.912ZM51.1,17.976V7.9h9.744v10.08ZM49.2,6.136v14.3h1.9v-.7h9.744v.7h1.984V6.136Zm20.5,9.04h1.232a6.114,6.114,0,0,1-.72,1.568,7.188,7.188,0,0,1-.64-1.36Zm2.08-1.312-.288.032H70.32a6.45,6.45,0,0,0,.336-.832l-1.424-.352a8.752,8.752,0,0,1-1.792,3.12,26.878,26.878,0,0,0,.24-3.744V9.768h3.232v.688l-2.688.144.064,1.168,2.624-.144c.048,1.216.528,1.76,2.24,1.76h3.472a9.4,9.4,0,0,0,1.968-.128c-.064-.4-.112-.864-.16-1.36a11.857,11.857,0,0,1-1.984.144H73.376c-.56,0-.656-.16-.672-.528l3.712-.208-.048-1.152L72.7,10.36V9.768h4.3a11.746,11.746,0,0,1-.416,1.216l1.584.448a17.749,17.749,0,0,0,1.056-2.864l-1.344-.32-.3.08H72.832v-.7h5.12V6.3h-5.12V5.464h-1.92V8.328h-5.04v3.744c0,2.112-.1,5.136-1.392,7.216a6.8,6.8,0,0,1,1.488,1.136,10.373,10.373,0,0,0,1.328-3.7c.256.272.528.576.672.752a5.483,5.483,0,0,0,.688-.784,5.862,5.862,0,0,0,.64,1.136,6.186,6.186,0,0,1-2.384,1.312,4.923,4.923,0,0,1,.832,1.312,7.958,7.958,0,0,0,2.56-1.5,7.448,7.448,0,0,0,4.72,1.168h3.968a5.14,5.14,0,0,1,.56-1.552c-.9.032-3.76.032-4.448.032a7.035,7.035,0,0,1-3.808-.8,9.232,9.232,0,0,0,1.392-3.712Zm6.016,4.192c.768,0,1.088-.4,1.184-1.712a3.406,3.406,0,0,1-1.1-.448c-.048.96-.1,1.152-.272,1.152h-.32c-.16,0-.192-.032-.192-.384v-2.72H73.28v1.088a2.71,2.71,0,0,1-1.168,2.416,6.288,6.288,0,0,1,1.168.992,3.863,3.863,0,0,0,1.488-3.12h.944v1.344c0,1.072.288,1.392,1.3,1.392ZM94.544,6.408H91.456c-.128-.352-.288-.768-.432-1.088l-1.792.336c.08.224.176.5.272.752H86.336V7.944h8.208ZM94.96,9.32H92.976c.176-.32.336-.672.528-1.04l-1.728-.32c-.112.4-.288.912-.464,1.36H89.5a7.76,7.76,0,0,0-.5-1.36l-1.536.3a7.43,7.43,0,0,1,.352,1.056H85.888v1.568H94.96Zm-9.392,5.488c-.5.176-.976.352-1.472.528V11.048h1.36V9.24H84.1V5.656H82.24V9.24H80.688v1.808H82.24v4.928c-.688.24-1.312.432-1.84.592l.624,1.952c1.44-.56,3.264-1.3,4.912-1.984Zm2.688-.416h4.1v.672h-4.1Zm0-1.776h4.1v.672h-4.1ZM92.88,18.7a.481.481,0,0,1-.288-.064c-.064-.064-.064-.176-.064-.384V16.264h1.648V11.432H86.512v4.832H87.84c-.224,1.424-.8,2.24-3.264,2.72a4.4,4.4,0,0,1,.976,1.456c2.992-.752,3.792-2.064,4.064-4.176h1.152V18.2c0,.976.144,1.312.448,1.584a1.969,1.969,0,0,0,1.216.384h1.024a3.23,3.23,0,0,0,.992-.144,1.29,1.29,0,0,0,.672-.592,5.866,5.866,0,0,0,.24-1.5,4.9,4.9,0,0,1-1.456-.784c-.016.576-.032,1.008-.064,1.2-.048.192-.112.288-.192.32a.987.987,0,0,1-.32.032Zm12.1-5.168v-3.44h3.616v3.44Zm-5.616,0v-3.44h3.6v3.44Zm5.616-5.312V5.448H102.96V8.216H97.44V16.28h1.92V15.4h3.6v4.992h2.016V15.4h3.616v.8h2V8.216Zm21.376-.3a27.386,27.386,0,0,0-2.144-2.3l-1.44.944a21.49,21.49,0,0,1,2.048,2.432Zm-8.192,4.272-1.648.4V10.248h1.712V8.488h-1.712V5.464H114.64V8.488h-1.984v1.76h1.984v2.8c-.8.192-1.568.368-2.192.5l.5,1.808,1.7-.416v3.312c0,.224-.08.3-.3.3-.208,0-.864,0-1.5-.016a6.366,6.366,0,0,1,.544,1.728,5.079,5.079,0,0,0,2.416-.352c.544-.272.72-.736.72-1.664V14.44c.64-.176,1.248-.336,1.872-.512Zm6.88-.944a13.774,13.774,0,0,1-1.984,3.2,26.393,26.393,0,0,1-.576-3.328l4.816-.48-.176-1.776-4.8.464c-.08-1.2-.144-2.464-.16-3.792h-1.952c.048,1.408.112,2.736.208,3.968l-2.016.192.192,1.824,1.984-.208a27.107,27.107,0,0,0,.9,4.752,13.05,13.05,0,0,1-3.776,2.336,7.5,7.5,0,0,1,1.536,1.472,13.056,13.056,0,0,0,2.992-1.968,4.037,4.037,0,0,0,3.184,2.368c.9.08,1.76-.672,2.176-3.632a6.33,6.33,0,0,1-1.584-1.1c-.112,1.712-.32,2.48-.688,2.448-.624-.1-1.152-.624-1.584-1.52a16.068,16.068,0,0,0,2.88-4.272Zm9.072,4.1h2.88V13.688h-2.88V12.264H132.3v1.424h-2.912v1.648H132.3v2.176c-1.3.208-2.5.4-3.456.528l.416,1.76c2.176-.384,5.2-.928,8-1.472l-.1-1.632c-1.008.16-2.048.336-3.056.512Zm-2.4-5.056A18.958,18.958,0,0,0,133.1,8.024h1.92l-1.344.784c.3.4.624.848.928,1.312Zm-2.7-2.256h2.032a12.688,12.688,0,0,1-.992,1.792,1.565,1.565,0,0,1-.736.672c.192.5.5,1.344.608,1.728.464-.192,1.152-.272,5.568-.64.144.288.272.56.368.8l1.44-.944a17.845,17.845,0,0,0-2.224-3.408h2.256V6.392h-8.32Zm10.7-1.088h-1.76V16.6h1.76Zm1.3-1.312V17.992c0,.272-.1.368-.368.368s-1.136,0-1.984-.032a7.771,7.771,0,0,1,.64,1.824,6.971,6.971,0,0,0,2.768-.352c.608-.3.8-.784.8-1.792V5.624Zm15.376,7.808v4.192h-3.376V12.6h4.864V6.792H155.76V10.76h-2.752V5.448H150.9V10.76h-2.64V6.792H146.24V12.6H150.9v5.024h-3.36V13.448h-2.144v6.064h10.992v.864h2.144V13.432Zm12.864,1.024A12.516,12.516,0,0,0,171.216,13a12.327,12.327,0,0,0,2,1.456Zm.432,3.728V16.056h3.008v2.128Zm-2.72-4.976H165.2V11.336h1.6V10.312a9.071,9.071,0,0,1,1.28,1.088,13.091,13.091,0,0,0,.944-1.1,12.607,12.607,0,0,0,.992,1.408,10.963,10.963,0,0,1-3.056,2Zm-4.032-5.536h2.128V9.7h-2.112Zm9.376.912a10.015,10.015,0,0,1-1.168,1.888,13.032,13.032,0,0,1-1.168-1.648l.128-.24ZM173.44,6.9l-.336.064h-2.24c.144-.352.272-.72.4-1.072l-1.808-.448a10.858,10.858,0,0,1-2.656,4.56V6.04h-5.52v5.3h2.24v6.016l-.8.16V12.456h-1.552v5.376l-.72.128.336,1.824c1.808-.416,4.24-.976,6.48-1.536l-.176-1.68L165.2,17V14.872h1.76v-.464a5.8,5.8,0,0,1,.592.912l.368-.16v5.2h1.76v-.544h3.008v.5h1.824V15.08l.032.016a7.409,7.409,0,0,1,1.184-1.6,10.258,10.258,0,0,1-3.312-1.776,12.205,12.205,0,0,0,2.224-4.3Z" transform="translate(400 345)" fill="#303236"/>
      </g>
    </g>
    <g id="Group_1908" data-name="Group 1908" transform="translate(-7257 -13190)">
      <path id="內文p-7" data-name="內文p" d="M11.344,15.176v2.56H4.56v-2.56Zm-8.736,5.2H4.56V19.56h6.784v.8h2.048V13.352H2.608Zm6.7-12.464C9.9,8.5,10.544,9.176,11.168,9.88l-6.56.208A26.3,26.3,0,0,0,8.1,6.008l-1.92-.816A21.349,21.349,0,0,1,2.784,9.544a3.3,3.3,0,0,1-1.328.928A14.567,14.567,0,0,1,2.08,12.3c.848-.288,1.984-.32,10.48-.736a14,14,0,0,1,.832,1.216l1.616-1.168A29.081,29.081,0,0,0,10.8,6.92Zm22.08,2.752a9.864,9.864,0,0,0-.72-1.712l-.784.288c.064.128.128.272.192.416l-.9.1A14.542,14.542,0,0,0,30.88,7.4L29.9,6.968c-.112.24-.24.48-.368.72L28.8,7.72a10.685,10.685,0,0,0,1.008-1.744l-1.024-.384a7.138,7.138,0,0,1-.976,2.048c-.176.24-.32.4-.512.432a5.14,5.14,0,0,1,.352.768,6.091,6.091,0,0,1,1.264-.192,10.039,10.039,0,0,1-.8.992,1.338,1.338,0,0,1-.752.56,3.412,3.412,0,0,1,.368.784,10.848,10.848,0,0,1,2.7-.5c.064.192.128.368.16.512Zm-1.5,2.672a8.746,8.746,0,0,0-.352-1.936l-.816.224a9.921,9.921,0,0,1,.32,2ZM27.68,11.32a5.2,5.2,0,0,1-.528,1.808,4.747,4.747,0,0,1,.768.56,6.8,6.8,0,0,0,.656-2.128Zm-.288-4.288H25.776l.64-.16A10.28,10.28,0,0,0,25.84,5.64L24.592,5.9a7.79,7.79,0,0,1,.48,1.136h-1.5v.992h3.824Zm-.32,2.64h-3.04v.864h3.04ZM25.12,11.816h.8v.7h-.8Zm-1.1,1.536h3.056V10.968H24.016ZM27.072,8.44h-3.04V9.3h3.04ZM23.84,10.632a10.843,10.843,0,0,0-.7-1.68l-.8.288c.064.128.144.272.208.416l-.912.1a13.633,13.633,0,0,0,1.712-2.336l-.976-.464a7.865,7.865,0,0,1-.384.72l-.72.032a8.271,8.271,0,0,0,.992-1.744l-1.024-.368a7.966,7.966,0,0,1-.96,2.048.838.838,0,0,1-.528.432,4.189,4.189,0,0,1,.384.752,4.247,4.247,0,0,1,1.248-.208,8.17,8.17,0,0,1-.8,1.024c-.288.3-.5.512-.752.544a5.5,5.5,0,0,1,.368.784,13.086,13.086,0,0,1,2.688-.5,5.1,5.1,0,0,1,.144.5Zm-.16,2.112A7.127,7.127,0,0,0,23.2,11.1l-.736.288A6.889,6.889,0,0,1,22.9,13.1Zm-1.312.448a7.145,7.145,0,0,0-.336-1.792l-.816.208a8.588,8.588,0,0,1,.3,1.856ZM20.16,7.256A11.586,11.586,0,0,0,17.84,5.64L16.752,6.92a10.706,10.706,0,0,1,2.24,1.76Zm-.32,4.08a10.684,10.684,0,0,0-2.384-1.5l-1.04,1.328a11.381,11.381,0,0,1,2.3,1.632ZM18.48,20.2c.624-1.552,1.28-3.392,1.792-5.1l-1.5-.96a48.82,48.82,0,0,1-1.984,5.12Zm1.648-8.8a5.408,5.408,0,0,1-.528,1.808,5.377,5.377,0,0,1,.784.56,7.364,7.364,0,0,0,.656-2.144Zm2.72,5.552.128-.512h7.088V13.8H20.992v1.056H28.3v.512H21.472a27.066,27.066,0,0,1-.72,2.736h8.1a1.612,1.612,0,0,1-.464.832,1.145,1.145,0,0,1-.688.128c-.384,0-1.456-.016-2.4-.112a3.217,3.217,0,0,1,.512,1.392c.992.032,1.952.048,2.48.032a2.518,2.518,0,0,0,1.488-.416,3.992,3.992,0,0,0,.976-2.336,4.277,4.277,0,0,0,.1-.672Zm7.136-5.568a8.846,8.846,0,0,1,.544,2.016l.8-.368a9.206,9.206,0,0,0-.576-1.936Zm4.64,2.752,1.84-2.944c.336-.64.656-1.3.944-1.92h.064c-.032.688-.1,1.76-.1,2.448v2.416Zm6.352,0H39.568V7.16H36.752l-4.416,7.168v1.6h5.04V19h2.192V15.928h1.408Zm4.832,5.088c2.256,0,4.16-1.264,4.16-3.44A2.959,2.959,0,0,0,47.6,12.872v-.08a2.805,2.805,0,0,0,1.984-2.7c0-2.032-1.552-3.152-3.84-3.152a5.253,5.253,0,0,0-3.552,1.456l1.2,1.44a3.379,3.379,0,0,1,2.24-1.056,1.415,1.415,0,0,1,1.584,1.488c0,1.056-.7,1.808-2.88,1.808v1.7c2.576,0,3.264.72,3.264,1.888,0,1.056-.816,1.648-2.016,1.648a3.761,3.761,0,0,1-2.64-1.216l-1.1,1.488A5.033,5.033,0,0,0,45.808,19.224ZM54.24,14.44c1.7,0,2.9-1.392,2.9-3.776,0-2.368-1.2-3.728-2.9-3.728s-2.88,1.36-2.88,3.728C51.36,13.048,52.544,14.44,54.24,14.44Zm0-1.328c-.688,0-1.216-.7-1.216-2.448s.528-2.4,1.216-2.4,1.232.656,1.232,2.4S54.928,13.112,54.24,13.112Zm.4,6.112h1.376L62.464,6.936H61.072Zm8.208,0c1.68,0,2.9-1.408,2.9-3.776,0-2.384-1.216-3.744-2.9-3.744s-2.88,1.36-2.88,3.744C59.968,17.816,61.168,19.224,62.848,19.224Zm0-1.344c-.688,0-1.232-.688-1.232-2.432s.544-2.416,1.232-2.416,1.232.672,1.232,2.416S63.536,17.88,62.848,17.88Z" transform="translate(518 489)" fill="#4891f2"/>
      <path id="內文p-8" data-name="內文p" d="M6.16,19.224c3.136,0,5.3-2.352,5.3-6.192s-2.16-6.1-5.3-6.1-5.3,2.24-5.3,6.1C.864,16.872,3.024,19.224,6.16,19.224Zm0-2.048c-1.76,0-2.88-1.616-2.88-4.144,0-2.544,1.12-4.064,2.88-4.064s2.88,1.52,2.88,4.064C9.04,15.56,7.92,17.176,6.16,17.176ZM13.776,19h7.44V17.016H16.144V13.848H20.3V11.864h-4.16V9.128h4.9V7.16H13.776Zm14.672.224a4.792,4.792,0,0,0,3.776-1.744l-1.248-1.472a3.292,3.292,0,0,1-2.448,1.168c-1.872,0-3.088-1.552-3.088-4.128,0-2.544,1.344-4.08,3.136-4.08a3.053,3.053,0,0,1,2.176.992L32,8.456a4.83,4.83,0,0,0-3.472-1.52c-2.992,0-5.5,2.288-5.5,6.192C23.024,17.08,25.456,19.224,28.448,19.224ZM34.128,19H37.5c3.488,0,5.728-1.984,5.728-5.968,0-4-2.24-5.872-5.856-5.872H34.128ZM36.5,17.1V9.048h.736c2.208,0,3.584,1.088,3.584,3.984,0,2.88-1.376,4.064-3.584,4.064Zm22.88-3.92H53.088V8.328h5.36V6.44H45.712V8.328H51.1v4.848H44.88v1.936H51.1v5.28h1.984v-5.28h6.288ZM46.688,9.352a16.046,16.046,0,0,1,1.168,3.328l1.856-.576a14.6,14.6,0,0,0-1.28-3.264Zm9.344,3.3A31.305,31.305,0,0,0,57.792,9.3L55.76,8.792a18.959,18.959,0,0,1-1.392,3.376Zm8.256,1.808v-3.52h1.52V9.128h-1.52V5.656H62.512V9.128h-1.68v1.808h1.68v4.272c-.768.288-1.44.56-2,.752l.768,1.92c1.44-.672,3.216-1.52,4.88-2.352l-.448-1.664Zm3.344,1.856h4.88V14.68h-4.88Zm.784-4.72v1.632H72.16V11.592Zm6.928-3.744H69.616c.256-.656.48-1.3.672-1.968l-1.76-.432A15.109,15.109,0,0,1,65.84,11a11.15,11.15,0,0,1,1.584,1.008,14.791,14.791,0,0,0,1.44-2.432H73.52c-.144,5.712-.3,8.272-.8,8.784a.793.793,0,0,1-.688.256c-.464,0-1.456,0-2.592-.1a4.4,4.4,0,0,1,.656,1.856,19.86,19.86,0,0,0,2.64-.032,2.117,2.117,0,0,0,1.616-.928c.64-.88.816-3.392.992-10.656ZM79.072,19h2.384c.192-4.64.56-7.056,3.312-10.416V7.16H76.9V9.128h5.328C79.968,12.264,79.28,14.888,79.072,19Zm7.76,0h7.12V17.1H91.728V7.16H89.984a7.68,7.68,0,0,1-2.752.992V9.608h2.144V17.1H86.832Zm11.5-4.56c1.7,0,2.9-1.392,2.9-3.776,0-2.368-1.2-3.728-2.9-3.728s-2.88,1.36-2.88,3.728C95.456,13.048,96.64,14.44,98.336,14.44Zm0-1.328c-.688,0-1.216-.7-1.216-2.448s.528-2.4,1.216-2.4,1.232.656,1.232,2.4S99.024,13.112,98.336,13.112Zm.4,6.112h1.376L106.56,6.936h-1.392Zm8.208,0c1.68,0,2.9-1.408,2.9-3.776,0-2.384-1.216-3.744-2.9-3.744s-2.88,1.36-2.88,3.744C104.064,17.816,105.264,19.224,106.944,19.224Zm0-1.344c-.688,0-1.232-.688-1.232-2.432s.544-2.416,1.232-2.416,1.232.672,1.232,2.416S107.632,17.88,106.944,17.88Z" transform="translate(391 519)" fill="#7e8391"/>
      <g id="Group_1779" data-name="Group 1779" transform="translate(-97 108)">
        <rect id="Rectangle_2244-2" data-name="Rectangle 2244" width="242" height="27" rx="2" transform="translate(434 344)" fill="#eeeeef"/>
        <path id="Polygon_4-2" data-name="Polygon 4" d="M5.606,1.789a1,1,0,0,1,1.789,0l4.882,9.764A1,1,0,0,1,11.382,13H1.618a1,1,0,0,1-.894-1.447Z" transform="translate(469 380) rotate(180)" fill="#eeeeef"/>
        <path id="內文p-9" data-name="內文p" d="M9.024,18.072V14.856h4.784v-1.84H9.024V10.2h5.392V8.344H9.024V5.464h-2v2.88H4.56c.272-.736.528-1.488.752-2.256L3.344,5.656A13.766,13.766,0,0,1,.512,11.384,15.13,15.13,0,0,1,2.224,12.52,13.187,13.187,0,0,0,3.712,10.2H7.024v2.816H2.688v1.84H7.024v3.216H.848v1.872H15.232V18.072ZM21.408,7.256c-.688-.448-2.08-1.152-2.976-1.6L17.36,7.032a33.111,33.111,0,0,1,2.912,1.76Zm-.768,4.32c-.7-.432-2.128-1.12-3.008-1.552l-1.024,1.408c.944.512,2.32,1.264,2.976,1.728Zm-2.208,8.64c.976-1.552,1.984-3.376,2.832-5.056l-1.392-1.28a47.288,47.288,0,0,1-3.04,5.04Zm10.384-2.208H24V15.656h4.816Zm2.608-6.1V10.088H27.36V7.9a20.451,20.451,0,0,0,3.488-.944l-1.472-1.5a31.485,31.485,0,0,1-7.472,1.5,6.705,6.705,0,0,1,.528,1.632c1.008-.1,2.064-.208,3.12-.368v1.872H21.3v1.824h4.256v2.016H22.288v6.464H24v-.656h4.816v.576h1.808V13.928H27.36V11.912Zm9.552,1.616v-3.44h3.616v3.44Zm-5.616,0v-3.44h3.6v3.44Zm5.616-5.312V5.448H38.96V8.216H33.44V16.28h1.92V15.4h3.6v4.992h2.016V15.4h3.616v.8h2V8.216Zm18.5,4.9H53.728V12.1h5.744ZM53.7,15.736c.016-.368.032-.7.032-1.04h5.744v1.04ZM63.12,9.16V7.368H55.312c.176-.5.352-.992.512-1.488l-1.968-.448a19.546,19.546,0,0,1-.64,1.936H48.928V9.16H52.4a12.113,12.113,0,0,1-3.84,4.464A11.031,11.031,0,0,1,49.808,15.1a12.909,12.909,0,0,0,1.984-1.744v1.3c0,1.488-.112,3.2-1.488,4.4A6.61,6.61,0,0,1,51.68,20.5a5.584,5.584,0,0,0,1.776-3.184h6.016v.96c0,.224-.1.3-.368.32-.272,0-1.2,0-2.016-.048a7.9,7.9,0,0,1,.576,1.84,7.047,7.047,0,0,0,2.832-.32c.656-.288.832-.8.832-1.744v-7.9h-7.44a10.413,10.413,0,0,0,.64-1.264Zm11.136,6.432h1.888V7.1h3.408V5.368h-5.3Zm10,2.224V16.152h7.6v1.664Zm7.6-5.072v1.648h-7.6V12.744Zm0-3.408v1.648h-7.6V9.336ZM88.4,7.512c.256-.576.512-1.2.752-1.84l-2.3-.256a18.108,18.108,0,0,1-.432,2.1h-4.1V20.376h1.936v-.8h7.6v.784h2.032V7.512Zm8.64,6.912h1.648V12.856H109.28v1.456h1.712V11.624H97.04Zm10-4.32h-6.112v-.72h6.112ZM99.024,8.36v2.768h10.048V8.36Zm5.152,10.272a.951.951,0,0,1-.736.224c-.288,0-.688-.016-1.152-.048a11.219,11.219,0,0,0,2.128-1.344A1.178,1.178,0,0,1,104.176,18.632Zm4.752-4.064a32.475,32.475,0,0,1-3.536,1.328,4.546,4.546,0,0,0-1.28-1.328l.064-.032h4.416V13.384h-9.28v1.152h2.3a25.074,25.074,0,0,1-3.888.816,5.621,5.621,0,0,1,.656,1.088,27.993,27.993,0,0,0,4.352-1.232,2.038,2.038,0,0,1,.3.208,15.632,15.632,0,0,1-5.664,1.824,6.123,6.123,0,0,1,.768.96,15.514,15.514,0,0,0,5.552-2.128c.1.112.192.24.272.352-1.488,1.328-4.192,2.272-6.88,2.672a5.939,5.939,0,0,1,.848,1.152,18.216,18.216,0,0,0,4.288-1.408,3.41,3.41,0,0,1,.448,1.472c.384.016.768.016,1.072.016a2.23,2.23,0,0,0,1.632-.576,2.552,2.552,0,0,0,.576-2.672l.64-.176a5.525,5.525,0,0,0,3.472,3.2,5.727,5.727,0,0,1,1.024-1.36A4.631,4.631,0,0,1,108,16.472a19.915,19.915,0,0,0,2.032-.8Zm-3.68-8.16a7.829,7.829,0,0,0-.592-1.152l-1.9.432a6.065,6.065,0,0,1,.32.72H96.88V7.816h14.256V6.408Zm12.512,3.84h-1.9v8.5h-3.408v1.728h5.312Zm13.984,11.984,1.472-.624a15.394,15.394,0,0,1-1.952-7.664A15.42,15.42,0,0,1,133.216,6.3l-1.472-.624a15.321,15.321,0,0,0-2.384,8.272A15.336,15.336,0,0,0,131.744,22.232Zm3.568.208h2.336V19.72l-.064-1.472a3.33,3.33,0,0,0,2.224.976c1.968,0,3.808-1.776,3.808-4.848,0-2.752-1.312-4.56-3.52-4.56a4.254,4.254,0,0,0-2.64,1.152h-.064l-.16-.928h-1.92Zm3.968-5.152a2.507,2.507,0,0,1-1.632-.672V12.68a2.526,2.526,0,0,1,1.776-.928c1.232,0,1.776.944,1.776,2.656C141.2,16.36,140.368,17.288,139.28,17.288ZM145.616,19h2.336V13.656c.512-1.3,1.36-1.76,2.064-1.76a2.824,2.824,0,0,1,.928.144l.416-2.032a2.535,2.535,0,0,0-1.056-.192,3.1,3.1,0,0,0-2.544,1.808H147.7l-.16-1.584h-1.92Zm10.528.224a4.366,4.366,0,0,0,4.3-4.688,4.322,4.322,0,1,0-8.608,0A4.366,4.366,0,0,0,156.144,19.224Zm0-1.92c-1.216,0-1.9-1.088-1.9-2.768,0-1.7.688-2.8,1.9-2.8s1.9,1.1,1.9,2.8C158.048,16.216,157.36,17.3,156.144,17.3Zm8.928,1.92a3.6,3.6,0,0,0,2.864-1.5H168l.176,1.28h1.92V10.04h-2.352v6.048a2.159,2.159,0,0,1-1.824,1.12c-.864,0-1.248-.48-1.248-1.872v-5.3H162.32v5.6C162.32,17.88,163.152,19.224,165.072,19.224ZM172.608,19h2.336V12.84a2.574,2.574,0,0,1,1.872-1.008c.88,0,1.264.5,1.264,1.872V19h2.352V13.416c0-2.256-.832-3.6-2.768-3.6a4.13,4.13,0,0,0-2.912,1.408h-.064l-.16-1.184h-1.92Zm13.408.224a3.716,3.716,0,0,0,2.48-1.152h.048l.192.928h1.9V6.232h-2.352V9.384l.1,1.408a3.084,3.084,0,0,0-2.272-.976c-1.936,0-3.76,1.792-3.76,4.72S183.792,19.224,186.016,19.224Zm.608-1.936c-1.184,0-1.856-.928-1.856-2.784,0-1.792.848-2.752,1.856-2.752a2.381,2.381,0,0,1,1.664.672V16.36A1.993,1.993,0,0,1,186.624,17.288Zm7.568,4.944a15.211,15.211,0,0,0,2.4-8.288,15.2,15.2,0,0,0-2.4-8.272l-1.456.624a15.42,15.42,0,0,1,1.952,7.648,15.394,15.394,0,0,1-1.952,7.664Zm7.9-2.416c.208-.992.464-2.576.624-3.584l-1.216-.464a31,31,0,0,1-.72,3.552Zm3.568-6.336h-2.176V12.328h2.176Zm4.208-6.544V6.12c.32.256.688.544.992.816Zm1.168,1.92a9.656,9.656,0,0,1-.976,2c-.064-.784-.112-1.6-.144-2.416h3.248v-1.5h-1.28l.592-.448c-.368-.336-1.088-.864-1.6-1.232l-1.008.7V5.448h-1.84c0,.5.016.992.032,1.488h-8.272v3.072c0,2.64-.128,6.656-1.472,9.424a5.925,5.925,0,0,1,1.52.992c1.376-2.864,1.664-7.184,1.7-10.032h6.128V9.128h-6.128V8.44h6.576c.08,1.472.176,2.96.336,4.352a8.688,8.688,0,0,1-1.3.992V11.048h-5.216v3.7h3.072l-.992.48.3.544h-1.488v2.72c0,1.312.32,1.728,1.728,1.728h1.552c.992,0,1.408-.416,1.584-1.888.192.5.352.96.448,1.312l1.344-.576c-.3-.864-.928-2.32-1.44-3.408l-1.248.48c.208.48.432,1.024.656,1.568a3.8,3.8,0,0,1-1.024-.464c-.032,1.456-.112,1.7-.48,1.7H204.8c-.4,0-.464-.048-.464-.464V15.784a17.083,17.083,0,0,1,.9,1.84l1.248-.672a22.118,22.118,0,0,0-1.232-2.208h1.888c.256.272.512.528.656.72.32-.208.64-.416.944-.656.528,3.168,1.424,5.472,2.816,5.472,1.28,0,1.792-.688,2.064-3.328a3.981,3.981,0,0,1-1.408-1.04c-.048,1.744-.192,2.56-.416,2.56-.5,0-1.072-2.144-1.456-5.152a13.26,13.26,0,0,0,2.416-4.032Zm9.7-.816a9.611,9.611,0,0,1,.608,1.984h-3.056l.832-.24a9.087,9.087,0,0,0-.9-1.824c1.36-.064,2.752-.16,4.1-.288Zm-3.968,3.632h10.32V13.5h1.856V10.024h-2.272c.368-.592.784-1.248,1.152-1.92l-2.032-.48a18.147,18.147,0,0,1-1.04,2.4h-2.784l1.184-.288a8.382,8.382,0,0,0-.72-2.064c2.128-.192,4.192-.448,5.92-.768l-1.28-1.536a89.567,89.567,0,0,1-11.936,1.088,6.021,6.021,0,0,1,.432,1.616c.768-.016,1.584-.048,2.384-.1l-1.424.4a9.975,9.975,0,0,1,.752,1.648h-2.288V13.5h1.776Zm7.376,2.976a7.922,7.922,0,0,1-2.176,1.856,9.311,9.311,0,0,1-2.432-1.856Zm1.584-1.824-.352.08H217.3v1.744h.752l-.528.224a10.765,10.765,0,0,0,2.528,2.512,22.343,22.343,0,0,1-5.44,1.168,6.551,6.551,0,0,1,1.12,1.68,20.972,20.972,0,0,0,6.224-1.712,19.3,19.3,0,0,0,6.112,1.68,9.2,9.2,0,0,1,1.168-1.776,21.812,21.812,0,0,1-5.3-1.088,9.4,9.4,0,0,0,3.072-3.728Z" transform="translate(440 345)" fill="#303236"/>
      </g>
      <rect id="Rectangle_2250" data-name="Rectangle 2250" width="263.8" height="20" rx="2" transform="translate(252.075 491.5)" fill="#4d505a"/>
      <path id="Rectangle_2248" data-name="Rectangle 2248" d="M2,0H113.4a0,0,0,0,1,0,0V20a0,0,0,0,1,0,0H2a2,2,0,0,1-2-2V2A2,2,0,0,1,2,0Z" transform="translate(252.075 491.301)" fill="#4891f2"/>
      <line id="Line_358" data-name="Line 358" y2="34" transform="translate(439.5 485.5)" fill="none" stroke="#aaa" stroke-width="1" stroke-dasharray="1"/>
    </g>
  </g>
</svg>
