<svg xmlns="http://www.w3.org/2000/svg" width="256" height="170.652" viewBox="0 0 256 170.652">
  <g id="data3_pc_m" transform="translate(-40.7 -32.292)">
    <line id="Line_580" data-name="Line 580" x2="256" transform="translate(40.7 184.134)" fill="none" stroke="#676060" stroke-miterlimit="10" stroke-width="1"/>
    <rect id="Rectangle_2633" data-name="Rectangle 2633" width="46.08" height="40.07" transform="translate(179.051 144.064)" fill="#356bd0"/>
    <rect id="Rectangle_2634" data-name="Rectangle 2634" width="46.08" height="84.035" transform="translate(229.138 100.099)" fill="#356bd0"/>
    <rect id="Rectangle_2635" data-name="Rectangle 2635" width="46.08" height="120.32" transform="translate(65.632 63.814)" fill="#df5a5a"/>
    <rect id="Rectangle_2636" data-name="Rectangle 2636" width="46.08" height="137.238" transform="translate(116.498 46.896)" fill="#df5a5a"/>
    <path id="內文p" d="M4.243,10H2.763V4.426A5.1,5.1,0,0,1,.853,5.547V4.2a4.278,4.278,0,0,0,1.258-.718,2.73,2.73,0,0,0,.932-1.234h1.2ZM6.453,3.763V2.389h5.058V3.463a7.959,7.959,0,0,0-1.274,1.769,10.313,10.313,0,0,0-.987,2.45A9.086,9.086,0,0,0,8.917,10H7.49a9.915,9.915,0,0,1,.661-3.263A10.875,10.875,0,0,1,9.817,3.763ZM12.764,10V8.521h1.479V10Zm3.948-4.164a1.656,1.656,0,0,1-1.095-1.595,1.868,1.868,0,0,1,.6-1.426,2.416,2.416,0,0,1,1.713-.563,2.419,2.419,0,0,1,1.708.563,1.86,1.86,0,0,1,.608,1.426,1.683,1.683,0,0,1-.279.955,1.766,1.766,0,0,1-.784.64,2.067,2.067,0,0,1,.976.753A1.992,1.992,0,0,1,20.5,7.731a2.325,2.325,0,0,1-.682,1.737A2.478,2.478,0,0,1,18,10.137a2.741,2.741,0,0,1-1.753-.553,2.156,2.156,0,0,1-.826-1.79,2.214,2.214,0,0,1,.311-1.15A2,2,0,0,1,16.712,5.836Zm.305-1.49a.926.926,0,0,0,.25.69.905.905,0,0,0,.666.247.916.916,0,0,0,.674-.25.93.93,0,0,0,.253-.692.86.86,0,0,0-.911-.916.918.918,0,0,0-.679.253A.9.9,0,0,0,17.017,4.347Zm-.137,3.306a1.359,1.359,0,0,0,.313.953,1.016,1.016,0,0,0,.782.342.982.982,0,0,0,.758-.329,1.363,1.363,0,0,0,.3-.95,1.23,1.23,0,0,0-.305-.871,1.01,1.01,0,0,0-.774-.329.925.925,0,0,0-.808.374A1.37,1.37,0,0,0,16.881,7.652Zm4.569-3.463A2.225,2.225,0,0,1,21.9,2.652a1.587,1.587,0,0,1,1.234-.5,1.623,1.623,0,0,1,1.261.5,2.224,2.224,0,0,1,.455,1.54A2.225,2.225,0,0,1,24.4,5.726a1.587,1.587,0,0,1-1.234.5,1.623,1.623,0,0,1-1.261-.5A2.224,2.224,0,0,1,21.449,4.189ZM22.6,4.178a1.994,1.994,0,0,0,.174,1.011.418.418,0,0,0,.363.189.423.423,0,0,0,.368-.189,2.048,2.048,0,0,0,.168-1.011,2.014,2.014,0,0,0-.168-1.005.444.444,0,0,0-.732-.005A1.994,1.994,0,0,0,22.6,4.178Zm1.663,6.116H23.171l4.111-8.143h1.063Zm2.39-2.027a2.225,2.225,0,0,1,.455-1.537,1.806,1.806,0,0,1,2.495,0,2.225,2.225,0,0,1,.455,1.537,2.234,2.234,0,0,1-.455,1.542,1.587,1.587,0,0,1-1.234.5,1.619,1.619,0,0,1-1.261-.5A2.234,2.234,0,0,1,26.655,8.268Zm1.153-.005a1.962,1.962,0,0,0,.174,1.005.415.415,0,0,0,.363.195.41.41,0,0,0,.363-.189,1.994,1.994,0,0,0,.174-1.011,2.048,2.048,0,0,0-.168-1.011.423.423,0,0,0-.368-.189.41.41,0,0,0-.363.189A1.994,1.994,0,0,0,27.808,8.263Z" transform="translate(123.7 30.14)" fill="#df5a5a"/>
    <path id="內文p-2" data-name="內文p" d="M4.243,10H2.763V4.426A5.1,5.1,0,0,1,.853,5.547V4.2a4.278,4.278,0,0,0,1.258-.718,2.73,2.73,0,0,0,.932-1.234h1.2ZM6.474,8.016l1.474-.153a1.264,1.264,0,0,0,.374.792,1.014,1.014,0,0,0,.716.292.994.994,0,0,0,.784-.376,1.712,1.712,0,0,0,.321-1.134,1.554,1.554,0,0,0-.318-1.066A1.061,1.061,0,0,0,9,6.015a1.506,1.506,0,0,0-1.142.563L6.653,6.4l.758-4.016h3.911V3.773H8.532L8.3,5.084a2.261,2.261,0,0,1,2.679.468,2.578,2.578,0,0,1,.684,1.858,2.786,2.786,0,0,1-.553,1.7,2.45,2.45,0,0,1-2.09,1.021A2.594,2.594,0,0,1,7.28,9.558,2.363,2.363,0,0,1,6.474,8.016ZM12.764,10V8.521h1.479V10Zm7.69-5.827-1.432.158a1.043,1.043,0,0,0-.274-.653.8.8,0,0,0-.574-.211.969.969,0,0,0-.792.421,3.547,3.547,0,0,0-.408,1.753,1.729,1.729,0,0,1,1.374-.653,2.1,2.1,0,0,1,1.587.705A2.557,2.557,0,0,1,20.6,7.516a2.612,2.612,0,0,1-.695,1.9A2.53,2.53,0,0,1,16.2,9.224a4.671,4.671,0,0,1-.753-2.977,4.759,4.759,0,0,1,.784-3.058,2.532,2.532,0,0,1,2.037-.937,2.163,2.163,0,0,1,1.455.492A2.306,2.306,0,0,1,20.455,4.173ZM17.1,7.4a1.676,1.676,0,0,0,.332,1.113.976.976,0,0,0,.758.392.863.863,0,0,0,.684-.321,1.618,1.618,0,0,0,.274-1.053,1.7,1.7,0,0,0-.295-1.1A.948.948,0,0,0,17.4,6.413,1.451,1.451,0,0,0,17.1,7.4Zm4.348-3.211A2.225,2.225,0,0,1,21.9,2.652a1.587,1.587,0,0,1,1.234-.5,1.623,1.623,0,0,1,1.261.5,2.224,2.224,0,0,1,.455,1.54A2.225,2.225,0,0,1,24.4,5.726a1.587,1.587,0,0,1-1.234.5,1.623,1.623,0,0,1-1.261-.5A2.224,2.224,0,0,1,21.449,4.189ZM22.6,4.178a1.994,1.994,0,0,0,.174,1.011.418.418,0,0,0,.363.189.423.423,0,0,0,.368-.189,2.048,2.048,0,0,0,.168-1.011,2.014,2.014,0,0,0-.168-1.005.444.444,0,0,0-.732-.005A1.994,1.994,0,0,0,22.6,4.178Zm1.663,6.116H23.171l4.111-8.143h1.063Zm2.39-2.027a2.225,2.225,0,0,1,.455-1.537,1.806,1.806,0,0,1,2.495,0,2.225,2.225,0,0,1,.455,1.537,2.234,2.234,0,0,1-.455,1.542,1.587,1.587,0,0,1-1.234.5,1.619,1.619,0,0,1-1.261-.5A2.234,2.234,0,0,1,26.655,8.268Zm1.153-.005a1.962,1.962,0,0,0,.174,1.005.415.415,0,0,0,.363.195.41.41,0,0,0,.363-.189,1.994,1.994,0,0,0,.174-1.011,2.048,2.048,0,0,0-.168-1.011.423.423,0,0,0-.368-.189.41.41,0,0,0-.363.189A1.994,1.994,0,0,0,27.808,8.263Z" transform="translate(71.7 47.14)" fill="#df5a5a"/>
    <path id="內文p-3" data-name="內文p" d="M.479,8.016l1.474-.153a1.264,1.264,0,0,0,.374.792,1.014,1.014,0,0,0,.716.292.994.994,0,0,0,.784-.376,1.712,1.712,0,0,0,.321-1.134,1.554,1.554,0,0,0-.318-1.066A1.061,1.061,0,0,0,3,6.015a1.506,1.506,0,0,0-1.142.563L.658,6.4l.758-4.016H5.327V3.773H2.537L2.305,5.084a2.261,2.261,0,0,1,2.679.468A2.578,2.578,0,0,1,5.669,7.41a2.786,2.786,0,0,1-.553,1.7,2.45,2.45,0,0,1-2.09,1.021,2.594,2.594,0,0,1-1.742-.574A2.363,2.363,0,0,1,.479,8.016ZM6.769,10V8.521H8.248V10Zm7.674-1.374V10H9.259a3.571,3.571,0,0,1,.505-1.476,9.825,9.825,0,0,1,1.663-1.85A10.462,10.462,0,0,0,12.654,5.41a1.627,1.627,0,0,0,.305-.905,1.029,1.029,0,0,0-.266-.761,1.13,1.13,0,0,0-1.471.013,1.433,1.433,0,0,0-.316.926L9.432,4.536a2.416,2.416,0,0,1,.826-1.753A2.775,2.775,0,0,1,12,2.252a2.51,2.51,0,0,1,1.795.616A2.02,2.02,0,0,1,14.444,4.4a2.666,2.666,0,0,1-.187.992,4.035,4.035,0,0,1-.592.987,9.476,9.476,0,0,1-.969.984q-.7.642-.887.853a2.553,2.553,0,0,0-.3.411Zm1.011-4.437a2.225,2.225,0,0,1,.455-1.537,1.587,1.587,0,0,1,1.234-.5,1.623,1.623,0,0,1,1.261.5,2.224,2.224,0,0,1,.455,1.54A2.225,2.225,0,0,1,18.4,5.726a1.587,1.587,0,0,1-1.234.5,1.623,1.623,0,0,1-1.261-.5A2.224,2.224,0,0,1,15.454,4.189Zm1.153-.011a1.994,1.994,0,0,0,.174,1.011.418.418,0,0,0,.363.189.423.423,0,0,0,.368-.189,2.048,2.048,0,0,0,.168-1.011,2.014,2.014,0,0,0-.168-1.005.444.444,0,0,0-.732-.005A1.994,1.994,0,0,0,16.607,4.178Zm1.663,6.116H17.175l4.111-8.143H22.35Zm2.39-2.027a2.225,2.225,0,0,1,.455-1.537,1.806,1.806,0,0,1,2.495,0,2.225,2.225,0,0,1,.455,1.537,2.234,2.234,0,0,1-.455,1.542,1.587,1.587,0,0,1-1.234.5,1.619,1.619,0,0,1-1.261-.5A2.234,2.234,0,0,1,20.66,8.268Zm1.153-.005a1.962,1.962,0,0,0,.174,1.005.415.415,0,0,0,.363.195.41.41,0,0,0,.363-.189,1.994,1.994,0,0,0,.174-1.011,2.048,2.048,0,0,0-.168-1.011.423.423,0,0,0-.368-.189.41.41,0,0,0-.363.189A1.994,1.994,0,0,0,21.813,8.263Z" transform="translate(187.7 127.14)" fill="#80adff"/>
    <path id="內文p-4" data-name="內文p" d="M4.243,10H2.763V4.426A5.1,5.1,0,0,1,.853,5.547V4.2a4.278,4.278,0,0,0,1.258-.718,2.73,2.73,0,0,0,.932-1.234h1.2ZM8.954,2.252a2.108,2.108,0,0,1,1.753.8,5.108,5.108,0,0,1,.753,3.142A5.12,5.12,0,0,1,10.7,9.342a2.105,2.105,0,0,1-1.748.79,2.208,2.208,0,0,1-1.816-.866,5.118,5.118,0,0,1-.69-3.087,5.1,5.1,0,0,1,.758-3.137A2.105,2.105,0,0,1,8.954,2.252Zm0,1.226a.739.739,0,0,0-.479.171,1.148,1.148,0,0,0-.326.613A8.458,8.458,0,0,0,8,6.194,8.4,8.4,0,0,0,8.132,8.06a1.312,1.312,0,0,0,.345.676.757.757,0,0,0,.955,0,1.148,1.148,0,0,0,.326-.613,8.383,8.383,0,0,0,.153-1.927,8.4,8.4,0,0,0-.137-1.866,1.33,1.33,0,0,0-.345-.679A.729.729,0,0,0,8.954,3.478ZM12.764,10V8.521h1.479V10Zm2.711-1.784,1.432-.158a1.036,1.036,0,0,0,.274.647.812.812,0,0,0,.584.211.953.953,0,0,0,.779-.421,3.587,3.587,0,0,0,.411-1.748,1.766,1.766,0,0,1-1.395.647,2.085,2.085,0,0,1-1.571-.7,2.562,2.562,0,0,1-.661-1.829,2.6,2.6,0,0,1,.7-1.892,2.524,2.524,0,0,1,3.7.189,4.691,4.691,0,0,1,.753,2.987A4.749,4.749,0,0,1,19.7,9.2a2.537,2.537,0,0,1-2.042.937,2.16,2.16,0,0,1-1.463-.482A2.325,2.325,0,0,1,15.475,8.216Zm3.348-3.232a1.687,1.687,0,0,0-.329-1.111.971.971,0,0,0-.761-.395.852.852,0,0,0-.682.324,1.652,1.652,0,0,0-.271,1.061,1.685,1.685,0,0,0,.295,1.1.924.924,0,0,0,.737.35.915.915,0,0,0,.718-.337A1.471,1.471,0,0,0,18.823,4.984Zm2.627-.795A2.225,2.225,0,0,1,21.9,2.652a1.587,1.587,0,0,1,1.234-.5,1.623,1.623,0,0,1,1.261.5,2.224,2.224,0,0,1,.455,1.54A2.225,2.225,0,0,1,24.4,5.726a1.587,1.587,0,0,1-1.234.5,1.623,1.623,0,0,1-1.261-.5A2.224,2.224,0,0,1,21.449,4.189ZM22.6,4.178a1.994,1.994,0,0,0,.174,1.011.418.418,0,0,0,.363.189.423.423,0,0,0,.368-.189,2.048,2.048,0,0,0,.168-1.011,2.014,2.014,0,0,0-.168-1.005.444.444,0,0,0-.732-.005A1.994,1.994,0,0,0,22.6,4.178Zm1.663,6.116H23.171l4.111-8.143h1.063Zm2.39-2.027a2.225,2.225,0,0,1,.455-1.537,1.806,1.806,0,0,1,2.495,0,2.225,2.225,0,0,1,.455,1.537,2.234,2.234,0,0,1-.455,1.542,1.587,1.587,0,0,1-1.234.5,1.619,1.619,0,0,1-1.261-.5A2.234,2.234,0,0,1,26.655,8.268Zm1.153-.005a1.962,1.962,0,0,0,.174,1.005.415.415,0,0,0,.363.195.41.41,0,0,0,.363-.189,1.994,1.994,0,0,0,.174-1.011,2.048,2.048,0,0,0-.168-1.011.423.423,0,0,0-.368-.189.41.41,0,0,0-.363.189A1.994,1.994,0,0,0,27.808,8.263Z" transform="translate(233.7 83.14)" fill="#80adff"/>
    <path id="Path_1803" data-name="Path 1803" d="M2.937-9.163A12.381,12.381,0,0,1,.231-4.8a4.889,4.889,0,0,1,.462.8,12.751,12.751,0,0,0,1.1-1.353V.825h.781V-6.556A16.2,16.2,0,0,0,3.707-8.932ZM5.159.572H8.085V-.11H5.159ZM4.928-5.005V-7.513c.759-.121,1.54-.264,2.3-.418.033,1.034.1,2.013.176,2.926Zm5.4.759v-.759H8.151c-.088-.957-.154-2-.187-3.08.726-.176,1.4-.363,1.969-.561l-.649-.616A28.729,28.729,0,0,1,4.158-8.085l.011.011H4.158v6.655a.733.733,0,0,1-.484.693,2.054,2.054,0,0,1,.308.671A15.232,15.232,0,0,1,6.963-1a4.508,4.508,0,0,1-.022-.682l-2.013.528V-4.246H7.48C7.8-1.287,8.426.737,9.57.77c.407,0,.792-.473,1-2.123a2.606,2.606,0,0,1-.583-.4C9.911-.715,9.779-.143,9.57-.143,8.976-.165,8.5-1.837,8.239-4.246ZM18.37-8.657a11.261,11.261,0,0,1,1.947,1.32l.506-.561a10.493,10.493,0,0,0-1.969-1.254Zm1.562,2.97a10.893,10.893,0,0,1-1.408,2.97,19.841,19.841,0,0,1-.6-3.817h3.5v-.8H17.864c-.033-.594-.044-1.21-.044-1.848h-.847c.011.627.022,1.243.066,1.848H12.452v3.069a8.537,8.537,0,0,1-1,4.642,3.254,3.254,0,0,1,.682.55,9.669,9.669,0,0,0,1.155-5.181v-.088h2c-.044,1.892-.1,2.585-.253,2.75-.066.1-.176.121-.33.121-.187,0-.66-.011-1.166-.055a1.7,1.7,0,0,1,.231.77,12.693,12.693,0,0,0,1.309,0,.851.851,0,0,0,.66-.319c.231-.286.3-1.21.352-3.674V-5.1H13.288v-1.43h3.8a21.629,21.629,0,0,0,.8,4.631A8.778,8.778,0,0,1,15.356.132a4.6,4.6,0,0,1,.594.649,9.835,9.835,0,0,0,2.266-1.826c.506,1.133,1.166,1.8,2.013,1.8S21.362.22,21.516-1.65a1.933,1.933,0,0,1-.7-.44C20.735-.627,20.6-.055,20.3-.055c-.561,0-1.067-.627-1.474-1.705a12.4,12.4,0,0,0,1.936-3.718ZM32.109-7.1a6.781,6.781,0,0,0-1.133-1.584l-.55.308a7.236,7.236,0,0,1,1.1,1.639Zm-4.488-.748H25.806a8.91,8.91,0,0,0-.583-1.364l-.748.165c.165.374.374.825.495,1.2H22.627v.726h4.994ZM23.595-3.014A6.558,6.558,0,0,1,22.583-.605c.165.1.462.3.594.4a8.324,8.324,0,0,0,1.1-2.662Zm.341-2.563h2.475v1.32H23.936ZM27.17-3.6V-6.248H23.221V-3.6h1.65V-.044c0,.11-.033.143-.154.143s-.473.011-.858,0A2.211,2.211,0,0,1,24.09.77,3,3,0,0,0,25.278.649c.264-.121.33-.308.33-.682V-3.6Zm.275,2.376a7.339,7.339,0,0,0-.814-1.914l-.583.264a8.113,8.113,0,0,1,.781,1.936Zm5.005-4.4v-.737H29.942c.066-.968.066-1.925.077-2.816h-.77c-.011.891-.011,1.848-.066,2.816H27.72v.737h1.419c-.2,2.321-.748,4.609-2.332,6A2.2,2.2,0,0,1,27.4.858c1.683-1.529,2.266-4,2.486-6.479ZM30.987-.044A.589.589,0,0,1,30.723-.1c-.066-.044-.088-.187-.088-.418V-4.752h-.726V-.605c0,.693.077.869.253,1a1.155,1.155,0,0,0,.682.187h.7a1.479,1.479,0,0,0,.627-.11.66.66,0,0,0,.341-.429,6.9,6.9,0,0,0,.121-1.3A1.682,1.682,0,0,1,32-1.584,11.537,11.537,0,0,1,31.944-.4q-.033.248-.165.3a.614.614,0,0,1-.319.055Z" transform="translate(92.713 202.021)" fill="#df5a5a"/>
    <path id="Path_1802" data-name="Path 1802" d="M7.007-1.98V-.957H3.872V-1.98ZM7.744-2.6H3.113V.2h.759V-.341H7.744ZM9.922-3.938H1.089V.836h.792V-3.245H9.108V-.022c0,.132-.044.165-.187.176S8.283.165,7.81.143a2.464,2.464,0,0,1,.264.605,4.949,4.949,0,0,0,1.452-.1c.3-.11.4-.275.4-.671ZM7.9-5.137H3.157v-.99H7.9Zm-5.544-1.6v2.2h6.38v-2.2Zm3.729-1.32C5.962-8.4,5.8-8.866,5.643-9.24l-.792.187c.11.308.242.682.341,1H.693v.7h9.581v-.7Zm12.287-.6a11.261,11.261,0,0,1,1.947,1.32l.506-.561a10.493,10.493,0,0,0-1.969-1.254Zm1.562,2.97a10.893,10.893,0,0,1-1.408,2.97,19.841,19.841,0,0,1-.6-3.817h3.5v-.8H17.864c-.033-.594-.044-1.21-.044-1.848h-.847c.011.627.022,1.243.066,1.848H12.452v3.069a8.537,8.537,0,0,1-1,4.642,3.254,3.254,0,0,1,.682.55,9.669,9.669,0,0,0,1.155-5.181v-.088h2c-.044,1.892-.1,2.585-.253,2.75-.066.1-.176.121-.33.121-.187,0-.66-.011-1.166-.055a1.7,1.7,0,0,1,.231.77,12.693,12.693,0,0,0,1.309,0,.851.851,0,0,0,.66-.319c.231-.286.3-1.21.352-3.674V-5.1H13.288v-1.43h3.8a21.629,21.629,0,0,0,.8,4.631A8.778,8.778,0,0,1,15.356.132a4.6,4.6,0,0,1,.594.649,9.835,9.835,0,0,0,2.266-1.826c.506,1.133,1.166,1.8,2.013,1.8S21.362.22,21.516-1.65a1.933,1.933,0,0,1-.7-.44C20.735-.627,20.6-.055,20.3-.055c-.561,0-1.067-.627-1.474-1.705a12.4,12.4,0,0,0,1.936-3.718ZM32.109-7.1a6.781,6.781,0,0,0-1.133-1.584l-.55.308a7.236,7.236,0,0,1,1.1,1.639Zm-4.488-.748H25.806a8.91,8.91,0,0,0-.583-1.364l-.748.165c.165.374.374.825.495,1.2H22.627v.726h4.994ZM23.595-3.014A6.558,6.558,0,0,1,22.583-.605c.165.1.462.3.594.4a8.324,8.324,0,0,0,1.1-2.662Zm.341-2.563h2.475v1.32H23.936ZM27.17-3.6V-6.248H23.221V-3.6h1.65V-.044c0,.11-.033.143-.154.143s-.473.011-.858,0A2.211,2.211,0,0,1,24.09.77,3,3,0,0,0,25.278.649c.264-.121.33-.308.33-.682V-3.6Zm.275,2.376a7.339,7.339,0,0,0-.814-1.914l-.583.264a8.113,8.113,0,0,1,.781,1.936Zm5.005-4.4v-.737H29.942c.066-.968.066-1.925.077-2.816h-.77c-.011.891-.011,1.848-.066,2.816H27.72v.737h1.419c-.2,2.321-.748,4.609-2.332,6A2.2,2.2,0,0,1,27.4.858c1.683-1.529,2.266-4,2.486-6.479ZM30.987-.044A.589.589,0,0,1,30.723-.1c-.066-.044-.088-.187-.088-.418V-4.752h-.726V-.605c0,.693.077.869.253,1a1.155,1.155,0,0,0,.682.187h.7a1.479,1.479,0,0,0,.627-.11.66.66,0,0,0,.341-.429,6.9,6.9,0,0,0,.121-1.3A1.682,1.682,0,0,1,32-1.584,11.537,11.537,0,0,1,31.944-.4q-.033.248-.165.3a.614.614,0,0,1-.319.055Z" transform="translate(213.72 202.021)" fill="#558ef9"/>
    <g id="Group_2035" data-name="Group 2035" transform="translate(77.431 164.879)">
      <path id="內文p-5" data-name="內文p" d="M5.059,7.726V9H.249A3.312,3.312,0,0,1,.718,7.63,9.114,9.114,0,0,1,2.261,5.914,9.705,9.705,0,0,0,3.4,4.742a1.51,1.51,0,0,0,.283-.84A.955.955,0,0,0,3.435,3.2a.921.921,0,0,0-.681-.247.914.914,0,0,0-.684.259,1.329,1.329,0,0,0-.293.859L.41,3.932a2.241,2.241,0,0,1,.767-1.626,2.574,2.574,0,0,1,1.611-.493,2.329,2.329,0,0,1,1.665.571A1.874,1.874,0,0,1,5.059,3.8a2.473,2.473,0,0,1-.173.92,3.743,3.743,0,0,1-.549.916,8.79,8.79,0,0,1-.9.913q-.649.6-.823.791a2.368,2.368,0,0,0-.281.381ZM8.306,1.813a1.956,1.956,0,0,1,1.626.742,4.738,4.738,0,0,1,.7,2.915,4.749,4.749,0,0,1-.7,2.92,1.953,1.953,0,0,1-1.621.732,2.049,2.049,0,0,1-1.685-.8,4.748,4.748,0,0,1-.64-2.864,4.729,4.729,0,0,1,.7-2.91A1.953,1.953,0,0,1,8.306,1.813Zm0,1.138a.685.685,0,0,0-.444.159,1.065,1.065,0,0,0-.3.569A7.846,7.846,0,0,0,7.417,5.47,7.788,7.788,0,0,0,7.544,7.2a1.217,1.217,0,0,0,.32.627.7.7,0,0,0,.886,0,1.065,1.065,0,0,0,.3-.569A7.777,7.777,0,0,0,9.194,5.47a7.788,7.788,0,0,0-.127-1.731,1.234,1.234,0,0,0-.32-.63A.676.676,0,0,0,8.306,2.95Zm5.562-1.138a1.956,1.956,0,0,1,1.626.742,4.738,4.738,0,0,1,.7,2.915,4.749,4.749,0,0,1-.7,2.92,1.953,1.953,0,0,1-1.621.732,2.049,2.049,0,0,1-1.685-.8,4.748,4.748,0,0,1-.64-2.864,4.729,4.729,0,0,1,.7-2.91A1.953,1.953,0,0,1,13.867,1.813Zm0,1.138a.685.685,0,0,0-.444.159,1.065,1.065,0,0,0-.3.569,7.846,7.846,0,0,0-.142,1.792A7.788,7.788,0,0,0,13.105,7.2a1.217,1.217,0,0,0,.32.627.7.7,0,0,0,.886,0,1.065,1.065,0,0,0,.3-.569,7.777,7.777,0,0,0,.142-1.787,7.788,7.788,0,0,0-.127-1.731,1.234,1.234,0,0,0-.32-.63A.676.676,0,0,0,13.867,2.95Zm3.271,4.395L18.467,7.2a.961.961,0,0,0,.254.6.753.753,0,0,0,.542.2.884.884,0,0,0,.723-.391,3.327,3.327,0,0,0,.381-1.621,1.638,1.638,0,0,1-1.294.6,1.934,1.934,0,0,1-1.458-.652A2.377,2.377,0,0,1,17,4.234a2.413,2.413,0,0,1,.647-1.755,2.342,2.342,0,0,1,3.435.176,4.352,4.352,0,0,1,.7,2.771,4.405,4.405,0,0,1-.728,2.832,2.354,2.354,0,0,1-1.895.869A2,2,0,0,1,17.8,8.68,2.157,2.157,0,0,1,17.139,7.345Zm3.105-3a1.565,1.565,0,0,0-.305-1.03.9.9,0,0,0-.706-.366.791.791,0,0,0-.632.3,1.532,1.532,0,0,0-.251.984,1.563,1.563,0,0,0,.273,1.018.858.858,0,0,0,.684.325.849.849,0,0,0,.667-.312A1.365,1.365,0,0,0,20.244,4.347Z" transform="translate(0.27 0.262)" fill="#fbfbfb"/>
      <path id="內文p-6" data-name="內文p" d="M5.059,7.726V9H.249A3.312,3.312,0,0,1,.718,7.63,9.114,9.114,0,0,1,2.261,5.914,9.705,9.705,0,0,0,3.4,4.742a1.51,1.51,0,0,0,.283-.84A.955.955,0,0,0,3.435,3.2a.921.921,0,0,0-.681-.247.914.914,0,0,0-.684.259,1.329,1.329,0,0,0-.293.859L.41,3.932a2.241,2.241,0,0,1,.767-1.626,2.574,2.574,0,0,1,1.611-.493,2.329,2.329,0,0,1,1.665.571A1.874,1.874,0,0,1,5.059,3.8a2.473,2.473,0,0,1-.173.92,3.743,3.743,0,0,1-.549.916,8.79,8.79,0,0,1-.9.913q-.649.6-.823.791a2.368,2.368,0,0,0-.281.381ZM8.306,1.813a1.956,1.956,0,0,1,1.626.742,4.738,4.738,0,0,1,.7,2.915,4.749,4.749,0,0,1-.7,2.92,1.953,1.953,0,0,1-1.621.732,2.049,2.049,0,0,1-1.685-.8,4.748,4.748,0,0,1-.64-2.864,4.729,4.729,0,0,1,.7-2.91A1.953,1.953,0,0,1,8.306,1.813Zm0,1.138a.685.685,0,0,0-.444.159,1.065,1.065,0,0,0-.3.569A7.846,7.846,0,0,0,7.417,5.47,7.788,7.788,0,0,0,7.544,7.2a1.217,1.217,0,0,0,.32.627.7.7,0,0,0,.886,0,1.065,1.065,0,0,0,.3-.569A7.777,7.777,0,0,0,9.194,5.47a7.788,7.788,0,0,0-.127-1.731,1.234,1.234,0,0,0-.32-.63A.676.676,0,0,0,8.306,2.95Zm5.562-1.138a1.956,1.956,0,0,1,1.626.742,4.738,4.738,0,0,1,.7,2.915,4.749,4.749,0,0,1-.7,2.92,1.953,1.953,0,0,1-1.621.732,2.049,2.049,0,0,1-1.685-.8,4.748,4.748,0,0,1-.64-2.864,4.729,4.729,0,0,1,.7-2.91A1.953,1.953,0,0,1,13.867,1.813Zm0,1.138a.685.685,0,0,0-.444.159,1.065,1.065,0,0,0-.3.569,7.846,7.846,0,0,0-.142,1.792A7.788,7.788,0,0,0,13.105,7.2a1.217,1.217,0,0,0,.32.627.7.7,0,0,0,.886,0,1.065,1.065,0,0,0,.3-.569,7.777,7.777,0,0,0,.142-1.787,7.788,7.788,0,0,0-.127-1.731,1.234,1.234,0,0,0-.32-.63A.676.676,0,0,0,13.867,2.95Zm3.271,4.395L18.467,7.2a.961.961,0,0,0,.254.6.753.753,0,0,0,.542.2.884.884,0,0,0,.723-.391,3.327,3.327,0,0,0,.381-1.621,1.638,1.638,0,0,1-1.294.6,1.934,1.934,0,0,1-1.458-.652A2.377,2.377,0,0,1,17,4.234a2.413,2.413,0,0,1,.647-1.755,2.342,2.342,0,0,1,3.435.176,4.352,4.352,0,0,1,.7,2.771,4.405,4.405,0,0,1-.728,2.832,2.354,2.354,0,0,1-1.895.869A2,2,0,0,1,17.8,8.68,2.157,2.157,0,0,1,17.139,7.345Zm3.105-3a1.565,1.565,0,0,0-.305-1.03.9.9,0,0,0-.706-.366.791.791,0,0,0-.632.3,1.532,1.532,0,0,0-.251.984,1.563,1.563,0,0,0,.273,1.018.858.858,0,0,0,.684.325.849.849,0,0,0,.667-.312A1.365,1.365,0,0,0,20.244,4.347Z" transform="translate(112.27 0.262)" fill="#fbfbfb" opacity="0.82"/>
      <path id="內文p-7" data-name="內文p" d="M5.059,7.726V9H.249A3.312,3.312,0,0,1,.718,7.63,9.114,9.114,0,0,1,2.261,5.914,9.705,9.705,0,0,0,3.4,4.742a1.51,1.51,0,0,0,.283-.84A.955.955,0,0,0,3.435,3.2a.921.921,0,0,0-.681-.247.914.914,0,0,0-.684.259,1.329,1.329,0,0,0-.293.859L.41,3.932a2.241,2.241,0,0,1,.767-1.626,2.574,2.574,0,0,1,1.611-.493,2.329,2.329,0,0,1,1.665.571A1.874,1.874,0,0,1,5.059,3.8a2.473,2.473,0,0,1-.173.92,3.743,3.743,0,0,1-.549.916,8.79,8.79,0,0,1-.9.913q-.649.6-.823.791a2.368,2.368,0,0,0-.281.381ZM8.306,1.813a1.956,1.956,0,0,1,1.626.742,4.738,4.738,0,0,1,.7,2.915,4.749,4.749,0,0,1-.7,2.92,1.953,1.953,0,0,1-1.621.732,2.049,2.049,0,0,1-1.685-.8,4.748,4.748,0,0,1-.64-2.864,4.729,4.729,0,0,1,.7-2.91A1.953,1.953,0,0,1,8.306,1.813Zm0,1.138a.685.685,0,0,0-.444.159,1.065,1.065,0,0,0-.3.569A7.846,7.846,0,0,0,7.417,5.47,7.788,7.788,0,0,0,7.544,7.2a1.217,1.217,0,0,0,.32.627.7.7,0,0,0,.886,0,1.065,1.065,0,0,0,.3-.569A7.777,7.777,0,0,0,9.194,5.47a7.788,7.788,0,0,0-.127-1.731,1.234,1.234,0,0,0-.32-.63A.676.676,0,0,0,8.306,2.95ZM15.059,9H13.687V3.829a4.73,4.73,0,0,1-1.772,1.04V3.624a3.968,3.968,0,0,0,1.167-.667,2.533,2.533,0,0,0,.864-1.145h1.113Zm3.228-3.862a1.536,1.536,0,0,1-1.016-1.479,1.733,1.733,0,0,1,.559-1.323,2.241,2.241,0,0,1,1.589-.522A2.244,2.244,0,0,1,21,2.335a1.726,1.726,0,0,1,.564,1.323,1.561,1.561,0,0,1-.259.886,1.638,1.638,0,0,1-.728.593,1.918,1.918,0,0,1,.906.7A1.848,1.848,0,0,1,21.8,6.9a2.157,2.157,0,0,1-.632,1.611,2.3,2.3,0,0,1-1.682.62,2.543,2.543,0,0,1-1.626-.513,2,2,0,0,1-.767-1.66,2.053,2.053,0,0,1,.288-1.067A1.855,1.855,0,0,1,18.286,5.138Zm.283-1.382a.859.859,0,0,0,.232.64.84.84,0,0,0,.618.229.85.85,0,0,0,.625-.232.863.863,0,0,0,.234-.642.8.8,0,0,0-.845-.85.851.851,0,0,0-.63.234A.838.838,0,0,0,18.569,3.756Zm-.127,3.066a1.26,1.26,0,0,0,.291.884.942.942,0,0,0,.725.317.911.911,0,0,0,.7-.305,1.264,1.264,0,0,0,.278-.881,1.141,1.141,0,0,0-.283-.808.937.937,0,0,0-.718-.305.858.858,0,0,0-.75.347A1.271,1.271,0,0,0,18.442,6.822Z" transform="translate(49.27 0.262)" fill="#fbfbfb"/>
      <path id="內文p-8" data-name="內文p" d="M5.059,7.726V9H.249A3.312,3.312,0,0,1,.718,7.63,9.114,9.114,0,0,1,2.261,5.914,9.705,9.705,0,0,0,3.4,4.742a1.51,1.51,0,0,0,.283-.84A.955.955,0,0,0,3.435,3.2a.921.921,0,0,0-.681-.247.914.914,0,0,0-.684.259,1.329,1.329,0,0,0-.293.859L.41,3.932a2.241,2.241,0,0,1,.767-1.626,2.574,2.574,0,0,1,1.611-.493,2.329,2.329,0,0,1,1.665.571A1.874,1.874,0,0,1,5.059,3.8a2.473,2.473,0,0,1-.173.92,3.743,3.743,0,0,1-.549.916,8.79,8.79,0,0,1-.9.913q-.649.6-.823.791a2.368,2.368,0,0,0-.281.381ZM8.306,1.813a1.956,1.956,0,0,1,1.626.742,4.738,4.738,0,0,1,.7,2.915,4.749,4.749,0,0,1-.7,2.92,1.953,1.953,0,0,1-1.621.732,2.049,2.049,0,0,1-1.685-.8,4.748,4.748,0,0,1-.64-2.864,4.729,4.729,0,0,1,.7-2.91A1.953,1.953,0,0,1,8.306,1.813Zm0,1.138a.685.685,0,0,0-.444.159,1.065,1.065,0,0,0-.3.569A7.846,7.846,0,0,0,7.417,5.47,7.788,7.788,0,0,0,7.544,7.2a1.217,1.217,0,0,0,.32.627.7.7,0,0,0,.886,0,1.065,1.065,0,0,0,.3-.569A7.777,7.777,0,0,0,9.194,5.47a7.788,7.788,0,0,0-.127-1.731,1.234,1.234,0,0,0-.32-.63A.676.676,0,0,0,8.306,2.95ZM15.059,9H13.687V3.829a4.73,4.73,0,0,1-1.772,1.04V3.624a3.968,3.968,0,0,0,1.167-.667,2.533,2.533,0,0,0,.864-1.145h1.113Zm3.228-3.862a1.536,1.536,0,0,1-1.016-1.479,1.733,1.733,0,0,1,.559-1.323,2.241,2.241,0,0,1,1.589-.522A2.244,2.244,0,0,1,21,2.335a1.726,1.726,0,0,1,.564,1.323,1.561,1.561,0,0,1-.259.886,1.638,1.638,0,0,1-.728.593,1.918,1.918,0,0,1,.906.7A1.848,1.848,0,0,1,21.8,6.9a2.157,2.157,0,0,1-.632,1.611,2.3,2.3,0,0,1-1.682.62,2.543,2.543,0,0,1-1.626-.513,2,2,0,0,1-.767-1.66,2.053,2.053,0,0,1,.288-1.067A1.855,1.855,0,0,1,18.286,5.138Zm.283-1.382a.859.859,0,0,0,.232.64.84.84,0,0,0,.618.229.85.85,0,0,0,.625-.232.863.863,0,0,0,.234-.642.8.8,0,0,0-.845-.85.851.851,0,0,0-.63.234A.838.838,0,0,0,18.569,3.756Zm-.127,3.066a1.26,1.26,0,0,0,.291.884.942.942,0,0,0,.725.317.911.911,0,0,0,.7-.305,1.264,1.264,0,0,0,.278-.881,1.141,1.141,0,0,0-.283-.808.937.937,0,0,0-.718-.305.858.858,0,0,0-.75.347A1.271,1.271,0,0,0,18.442,6.822Z" transform="translate(163.27 0.262)" fill="#fbfbfb" opacity="0.82"/>
    </g>
  </g>
</svg>
