<svg xmlns="http://www.w3.org/2000/svg" width="345.541" height="351.008" viewBox="0 0 345.541 351.008">
  <g id="data9" transform="translate(7908.803 12205.008)">
    <g id="Group_1917" data-name="Group 1917" transform="translate(-8128 -12485)">
      <g id="data_8-08" transform="translate(239 280)">
        <g id="Group_1707" data-name="Group 1707" transform="translate(0 0)">
          <g id="Group_1703" data-name="Group 1703" transform="translate(0 0)">
            <g id="Group_1700" data-name="Group 1700">
              <path id="Path_1609" data-name="Path 1609" d="M.457-3.883A7.205,7.205,0,0,1,.744-6.131,2.8,2.8,0,0,1,1.6-7.444a2.183,2.183,0,0,1,1.426-.462,2.327,2.327,0,0,1,1.112.255,2.125,2.125,0,0,1,.79.736,3.948,3.948,0,0,1,.489,1.171,7.779,7.779,0,0,1,.177,1.861,7.226,7.226,0,0,1-.285,2.237A2.8,2.8,0,0,1,4.455-.33,2.183,2.183,0,0,1,3.024.134,2.161,2.161,0,0,1,1.235-.682,5.189,5.189,0,0,1,.457-3.883Zm.994,0A4.937,4.937,0,0,0,1.9-1.3a1.337,1.337,0,0,0,1.12.642,1.336,1.336,0,0,0,1.12-.645A4.939,4.939,0,0,0,4.6-3.883a4.936,4.936,0,0,0-.454-2.583,1.347,1.347,0,0,0-1.131-.639,1.239,1.239,0,0,0-1.063.564A4.994,4.994,0,0,0,1.45-3.883Z" transform="translate(13.026 284.227)" fill="#efefef"/>
              <path id="Path_1608" data-name="Path 1608" d="M5.538-.929V0H.333A1.71,1.71,0,0,1,.446-.671a3.552,3.552,0,0,1,.636-1.047A9.972,9.972,0,0,1,2.347-2.911,10.723,10.723,0,0,0,4.082-4.579a2,2,0,0,0,.451-1.163,1.292,1.292,0,0,0-.411-.969,1.482,1.482,0,0,0-1.072-.395,1.51,1.51,0,0,0-1.117.419,1.585,1.585,0,0,0-.424,1.16l-.994-.1a2.446,2.446,0,0,1,.768-1.695,2.62,2.62,0,0,1,1.789-.583,2.5,2.5,0,0,1,1.794.628A2.063,2.063,0,0,1,5.527-5.72a2.362,2.362,0,0,1-.193.929,3.606,3.606,0,0,1-.642.961A15.636,15.636,0,0,1,3.2-2.444q-.87.73-1.117.991a3.179,3.179,0,0,0-.408.524ZM6.574-3.883a7.205,7.205,0,0,1,.287-2.248,2.8,2.8,0,0,1,.854-1.313,2.183,2.183,0,0,1,1.426-.462,2.327,2.327,0,0,1,1.112.255,2.125,2.125,0,0,1,.79.736,3.948,3.948,0,0,1,.489,1.171,7.779,7.779,0,0,1,.177,1.861,7.226,7.226,0,0,1-.285,2.237A2.8,2.8,0,0,1,10.573-.33,2.183,2.183,0,0,1,9.142.134,2.161,2.161,0,0,1,7.353-.682,5.189,5.189,0,0,1,6.574-3.883Zm.994,0A4.937,4.937,0,0,0,8.022-1.3a1.337,1.337,0,0,0,1.12.642,1.336,1.336,0,0,0,1.12-.645,4.939,4.939,0,0,0,.454-2.578,4.936,4.936,0,0,0-.454-2.583,1.347,1.347,0,0,0-1.131-.639,1.239,1.239,0,0,0-1.063.564A4.994,4.994,0,0,0,7.568-3.883Z" transform="translate(6.513 228.981)" fill="#efefef"/>
              <path id="Path_1607" data-name="Path 1607" d="M3.556,0V-1.885H.14v-.886l3.593-5.1h.79v5.1H5.586v.886H4.522V0Zm0-2.771v-3.55L1.09-2.771ZM6.574-3.883a7.205,7.205,0,0,1,.287-2.248,2.8,2.8,0,0,1,.854-1.313,2.183,2.183,0,0,1,1.426-.462,2.327,2.327,0,0,1,1.112.255,2.125,2.125,0,0,1,.79.736,3.948,3.948,0,0,1,.489,1.171,7.779,7.779,0,0,1,.177,1.861,7.226,7.226,0,0,1-.285,2.237A2.8,2.8,0,0,1,10.573-.33,2.183,2.183,0,0,1,9.142.134,2.161,2.161,0,0,1,7.353-.682,5.189,5.189,0,0,1,6.574-3.883Zm.994,0A4.937,4.937,0,0,0,8.022-1.3a1.337,1.337,0,0,0,1.12.642,1.336,1.336,0,0,0,1.12-.645,4.939,4.939,0,0,0,.454-2.578,4.936,4.936,0,0,0-.454-2.583,1.347,1.347,0,0,0-1.131-.639,1.239,1.239,0,0,0-1.063.564A4.994,4.994,0,0,0,7.568-3.883Z" transform="translate(6.5 173.736)" fill="#efefef"/>
              <path id="Path_1606" data-name="Path 1606" d="M5.473-5.946l-.961.075A1.821,1.821,0,0,0,4.146-6.7a1.279,1.279,0,0,0-.967-.414,1.329,1.329,0,0,0-.811.258,2.2,2.2,0,0,0-.72.972,5.08,5.08,0,0,0-.274,1.821,2.24,2.24,0,0,1,.854-.79,2.3,2.3,0,0,1,1.058-.258A2.192,2.192,0,0,1,4.933-4.4a2.554,2.554,0,0,1,.679,1.84,3.027,3.027,0,0,1-.32,1.378A2.329,2.329,0,0,1,4.415-.2,2.4,2.4,0,0,1,3.147.134,2.477,2.477,0,0,1,1.176-.755a4.488,4.488,0,0,1-.763-2.93A5.252,5.252,0,0,1,1.257-7a2.424,2.424,0,0,1,1.982-.9,2.224,2.224,0,0,1,1.523.521A2.212,2.212,0,0,1,5.473-5.946ZM1.525-2.551a2.243,2.243,0,0,0,.212.956,1.581,1.581,0,0,0,.594.7,1.484,1.484,0,0,0,.8.239,1.364,1.364,0,0,0,1.053-.494A1.945,1.945,0,0,0,4.625-2.5a1.82,1.82,0,0,0-.435-1.286,1.43,1.43,0,0,0-1.1-.47,1.491,1.491,0,0,0-1.112.47A1.694,1.694,0,0,0,1.525-2.551ZM6.574-3.883a7.205,7.205,0,0,1,.287-2.248,2.8,2.8,0,0,1,.854-1.313,2.183,2.183,0,0,1,1.426-.462,2.327,2.327,0,0,1,1.112.255,2.125,2.125,0,0,1,.79.736,3.948,3.948,0,0,1,.489,1.171,7.779,7.779,0,0,1,.177,1.861,7.226,7.226,0,0,1-.285,2.237A2.8,2.8,0,0,1,10.573-.33,2.183,2.183,0,0,1,9.142.134,2.161,2.161,0,0,1,7.353-.682,5.189,5.189,0,0,1,6.574-3.883Zm.994,0A4.937,4.937,0,0,0,8.022-1.3a1.337,1.337,0,0,0,1.12.642,1.336,1.336,0,0,0,1.12-.645,4.939,4.939,0,0,0,.454-2.578,4.936,4.936,0,0,0-.454-2.583,1.347,1.347,0,0,0-1.131-.639,1.239,1.239,0,0,0-1.063.564A4.994,4.994,0,0,0,7.568-3.883Z" transform="translate(6.526 118.49)" fill="#efefef"/>
              <path id="Path_1605" data-name="Path 1605" d="M1.944-4.27A1.82,1.82,0,0,1,1.053-4.9a1.644,1.644,0,0,1-.29-.978A1.912,1.912,0,0,1,1.38-7.321a2.291,2.291,0,0,1,1.644-.585,2.306,2.306,0,0,1,1.66.6,1.938,1.938,0,0,1,.628,1.458,1.606,1.606,0,0,1-.287.953,1.812,1.812,0,0,1-.873.626,2.117,2.117,0,0,1,1.1.763A2.1,2.1,0,0,1,5.634-2.25a2.262,2.262,0,0,1-.714,1.7A2.6,2.6,0,0,1,3.04.134a2.591,2.591,0,0,1-1.88-.69A2.3,2.3,0,0,1,.446-2.277,2.081,2.081,0,0,1,.835-3.564,1.95,1.95,0,0,1,1.944-4.27ZM1.751-5.908A1.226,1.226,0,0,0,2.111-5a1.275,1.275,0,0,0,.935.354,1.25,1.25,0,0,0,.916-.352,1.163,1.163,0,0,0,.357-.862,1.206,1.206,0,0,0-.368-.894,1.253,1.253,0,0,0-.916-.363,1.266,1.266,0,0,0-.918.354A1.141,1.141,0,0,0,1.751-5.908ZM1.439-2.272a1.749,1.749,0,0,0,.2.8,1.383,1.383,0,0,0,.583.6,1.7,1.7,0,0,0,.833.212,1.56,1.56,0,0,0,1.144-.446A1.526,1.526,0,0,0,4.646-2.24a1.551,1.551,0,0,0-.465-1.155,1.592,1.592,0,0,0-1.163-.457A1.528,1.528,0,0,0,1.888-3.4,1.535,1.535,0,0,0,1.439-2.272ZM6.574-3.883a7.205,7.205,0,0,1,.287-2.248,2.8,2.8,0,0,1,.854-1.313,2.183,2.183,0,0,1,1.426-.462,2.327,2.327,0,0,1,1.112.255,2.125,2.125,0,0,1,.79.736,3.948,3.948,0,0,1,.489,1.171,7.779,7.779,0,0,1,.177,1.861,7.226,7.226,0,0,1-.285,2.237A2.8,2.8,0,0,1,10.573-.33,2.183,2.183,0,0,1,9.142.134,2.161,2.161,0,0,1,7.353-.682,5.189,5.189,0,0,1,6.574-3.883Zm.994,0A4.937,4.937,0,0,0,8.022-1.3a1.337,1.337,0,0,0,1.12.642,1.336,1.336,0,0,0,1.12-.645,4.939,4.939,0,0,0,.454-2.578,4.936,4.936,0,0,0-.454-2.583,1.347,1.347,0,0,0-1.131-.639,1.239,1.239,0,0,0-1.063.564A4.994,4.994,0,0,0,7.568-3.883Z" transform="translate(6.513 63.245)" fill="#efefef"/>
              <path id="Path_1604" data-name="Path 1604" d="M4.1,0H3.131V-6.161a5,5,0,0,1-.916.666A6.492,6.492,0,0,1,1.2-5V-5.93a5.839,5.839,0,0,0,1.418-.924,3.634,3.634,0,0,0,.859-1.053H4.1ZM6.574-3.883a7.205,7.205,0,0,1,.287-2.248,2.8,2.8,0,0,1,.854-1.313,2.183,2.183,0,0,1,1.426-.462,2.327,2.327,0,0,1,1.112.255,2.125,2.125,0,0,1,.79.736,3.948,3.948,0,0,1,.489,1.171,7.779,7.779,0,0,1,.177,1.861,7.226,7.226,0,0,1-.285,2.237A2.8,2.8,0,0,1,10.573-.33,2.183,2.183,0,0,1,9.142.134,2.161,2.161,0,0,1,7.353-.682,5.189,5.189,0,0,1,6.574-3.883Zm.994,0A4.937,4.937,0,0,0,8.022-1.3a1.337,1.337,0,0,0,1.12.642,1.336,1.336,0,0,0,1.12-.645,4.939,4.939,0,0,0,.454-2.578,4.936,4.936,0,0,0-.454-2.583,1.347,1.347,0,0,0-1.131-.639,1.239,1.239,0,0,0-1.063.564A4.994,4.994,0,0,0,7.568-3.883Zm5.124,0a7.205,7.205,0,0,1,.287-2.248,2.8,2.8,0,0,1,.854-1.313,2.183,2.183,0,0,1,1.426-.462,2.327,2.327,0,0,1,1.112.255,2.125,2.125,0,0,1,.79.736,3.948,3.948,0,0,1,.489,1.171,7.779,7.779,0,0,1,.177,1.861,7.226,7.226,0,0,1-.285,2.237A2.8,2.8,0,0,1,16.691-.33a2.183,2.183,0,0,1-1.431.465,2.161,2.161,0,0,1-1.789-.816A5.189,5.189,0,0,1,12.692-3.883Zm.994,0A4.937,4.937,0,0,0,14.139-1.3a1.337,1.337,0,0,0,1.12.642,1.336,1.336,0,0,0,1.12-.645,4.939,4.939,0,0,0,.454-2.578,4.936,4.936,0,0,0-.454-2.583,1.347,1.347,0,0,0-1.131-.639,1.239,1.239,0,0,0-1.063.564A4.994,4.994,0,0,0,13.686-3.883ZM28-.231a.806.806,0,0,1-.252.693.936.936,0,0,1-.392.15A5.836,5.836,0,0,1,26.56.65a.28.28,0,0,1-.172-.032A.427.427,0,0,1,26.308.44a1.959,1.959,0,0,0-.2-.43,7.793,7.793,0,0,0,.816.043.479.479,0,0,0,.338-.091.4.4,0,0,0,.086-.29v-2H24.063v1.155q.833-.1,1.45-.2-.274-.4-.306-.44a.147.147,0,0,1-.038-.07q0-.038.1-.081l.231-.1a.345.345,0,0,1,.091-.027q.032,0,.075.059A8.351,8.351,0,0,1,26.549-.6a.264.264,0,0,1,.016.064q0,.043-.1.091l-.247.124a.338.338,0,0,1-.118.043q-.038,0-.064-.064-.209-.462-.263-.575-1.6.279-3.813.494a1.386,1.386,0,0,0-.473.1.261.261,0,0,1-.129.064q-.075,0-.124-.145-.064-.231-.14-.612.236.005.435.005.376,0,.763-.027,1.01-.075,1.176-.091V-2.331h-3.11V-.387L20.378.661a.076.076,0,0,1-.086.086h-.51A.076.076,0,0,1,19.7.661l.021-1.047v-1.4L19.7-2.8a.076.076,0,0,1,.086-.086l1.552.021h2.132v-.795H22.258l-1.509.021a.076.076,0,0,1-.086-.086l.021-.924V-5.763l-.021-.924a.076.076,0,0,1,.086-.086l1.509.021h3.169l1.52-.021a.076.076,0,0,1,.086.086l-.021.924v1.112l.021.924a.076.076,0,0,1-.086.086l-1.52-.021H24.063v.795h2.3l1.552-.021A.076.076,0,0,1,28-2.8l-.021,1.08v.451ZM26.394-4.146v-.859H24.063v.859Zm-2.927,0v-.859H21.3v.859Zm2.927-1.332v-.79H24.063v.79Zm-2.927,0v-.79H21.3v.79Zm5.183-2.256q0,.086-.091.086L27.119-7.67H25.679l.021.5q0,.091-.086.091h-.478q-.1,0-.1-.091,0-.016.011-.172t.011-.333H22.521l.021.5q0,.091-.086.091h-.483a.081.081,0,0,1-.091-.091q0-.016.011-.172T21.9-7.67H20.6l-1.445.021a.076.076,0,0,1-.086-.086v-.44q0-.075.086-.075l1.445.021H21.9a4.812,4.812,0,0,0-.064-.9q.333.016.682.059.113.016.113.1a.292.292,0,0,1-.043.145,1.571,1.571,0,0,0-.07.6h2.541A4.736,4.736,0,0,0,25-9.12q.36.021.671.059.118.016.118.1a.292.292,0,0,1-.043.145,1.646,1.646,0,0,0-.064.591h1.439l1.439-.021q.091,0,.091.075ZM39.692-.075a1.429,1.429,0,0,0-.381.446q-.1.156-.145.156A.335.335,0,0,1,39,.451a8.806,8.806,0,0,1-4.093-6.059A8.145,8.145,0,0,1,30.717.44a.561.561,0,0,1-.167.075q-.038,0-.15-.167a1.7,1.7,0,0,0-.408-.392,7.469,7.469,0,0,0,3.475-3.341,8.465,8.465,0,0,0,.945-4.12,12,12,0,0,0-.075-1.305,5.732,5.732,0,0,1,.822.086q.156.038.156.134a.65.65,0,0,1-.064.215,1.58,1.58,0,0,0-.1.618q0,.387-.016.575A10.7,10.7,0,0,0,36.652-2.9,8.581,8.581,0,0,0,39.692-.075Z" transform="translate(-21 10)" fill="#efefef"/>
            </g>
            <line id="Line_196" data-name="Line 196" y1="276.219" transform="translate(23.897 5.024)" fill="none" stroke="#efefef" stroke-miterlimit="10" stroke-width="1"/>
          </g>
          <g id="Group_1706" data-name="Group 1706" transform="translate(30.267 59.389)">
            <g id="Group_1705" data-name="Group 1705">
              <g id="Group_1704" data-name="Group 1704">
                <rect id="Rectangle_2187" data-name="Rectangle 2187" width="33.103" height="221.854" fill="#efefef"/>
                <rect id="Rectangle_2188" data-name="Rectangle 2188" width="33.103" height="206.334" transform="translate(46.111 15.52)" fill="#efefef"/>
                <rect id="Rectangle_2189" data-name="Rectangle 2189" width="33.103" height="189.738" transform="translate(92.133 32.116)" fill="#efefef"/>
                <rect id="Rectangle_2190" data-name="Rectangle 2190" width="33.103" height="180.408" transform="translate(138.154 41.446)" fill="#efefef"/>
                <rect id="Rectangle_2191" data-name="Rectangle 2191" width="33.103" height="172.334" transform="translate(184.176 49.52)" fill="#efefef"/>
                <rect id="Rectangle_2192" data-name="Rectangle 2192" width="33.103" height="167.938" transform="translate(230.197 53.916)" fill="#efefef"/>
              </g>
            </g>
          </g>
        </g>
        <g id="Group_1721" data-name="Group 1721" transform="translate(44.172 0)">
          <g id="Group_1714" data-name="Group 1714" transform="translate(255.944)">
            <g id="Group_1711" data-name="Group 1711" transform="translate(4.282)">
              <path id="Path_1612" data-name="Path 1612" d="M.6-1.821l.929-.086a1.614,1.614,0,0,0,.451.951,1.239,1.239,0,0,0,.854.3,1.474,1.474,0,0,0,.781-.2,1.669,1.669,0,0,0,.551-.545,3.2,3.2,0,0,0,.36-.921,4.854,4.854,0,0,0,.145-1.182q0-.064-.005-.193a2.214,2.214,0,0,1-.792.749,2.153,2.153,0,0,1-1.088.287,2.2,2.2,0,0,1-1.654-.709A2.6,2.6,0,0,1,.457-5.248a2.657,2.657,0,0,1,.706-1.928,2.36,2.36,0,0,1,1.77-.73,2.525,2.525,0,0,1,1.4.414A2.584,2.584,0,0,1,5.3-6.314,5.806,5.806,0,0,1,5.634-4.1a7.171,7.171,0,0,1-.328,2.4A2.815,2.815,0,0,1,4.332-.333,2.523,2.523,0,0,1,2.814.134,2.207,2.207,0,0,1,1.305-.379,2.207,2.207,0,0,1,.6-1.821ZM4.56-5.3a1.893,1.893,0,0,0-.443-1.321,1.389,1.389,0,0,0-1.066-.489,1.472,1.472,0,0,0-1.123.526A1.951,1.951,0,0,0,1.45-5.215,1.685,1.685,0,0,0,1.9-3.993a1.5,1.5,0,0,0,1.12.47,1.433,1.433,0,0,0,1.1-.47A1.851,1.851,0,0,0,4.56-5.3Zm2.2-.687a2.393,2.393,0,0,1,.424-1.434,1.42,1.42,0,0,1,1.23-.591,1.6,1.6,0,0,1,1.227.529,2.224,2.224,0,0,1,.486,1.555,2.207,2.207,0,0,1-.491,1.539,1.574,1.574,0,0,1-1.211.54,1.529,1.529,0,0,1-1.19-.532A2.348,2.348,0,0,1,6.757-5.983ZM8.438-7.342a.727.727,0,0,0-.6.312A1.974,1.974,0,0,0,7.6-5.887a1.774,1.774,0,0,0,.242,1.066.731.731,0,0,0,.6.309.732.732,0,0,0,.6-.312,1.961,1.961,0,0,0,.239-1.139A1.786,1.786,0,0,0,9.04-7.033.736.736,0,0,0,8.438-7.342ZM8.443.29l4.308-8.3h.784L9.244.29Zm3.405-2.138a2.39,2.39,0,0,1,.424-1.437,1.428,1.428,0,0,1,1.235-.588,1.6,1.6,0,0,1,1.227.529,2.224,2.224,0,0,1,.486,1.555A2.207,2.207,0,0,1,14.73-.25a1.579,1.579,0,0,1-1.217.54,1.526,1.526,0,0,1-1.19-.534A2.35,2.35,0,0,1,11.849-1.848Zm1.687-1.359a.732.732,0,0,0-.6.312,1.974,1.974,0,0,0-.239,1.144,1.775,1.775,0,0,0,.242,1.063.729.729,0,0,0,.6.312.737.737,0,0,0,.61-.312,1.961,1.961,0,0,0,.239-1.139A1.786,1.786,0,0,0,14.137-2.9.736.736,0,0,0,13.535-3.207Z" transform="translate(0 279.227)" fill="#4891f2"/>
              <path id="Path_1611" data-name="Path 1611" d="M4.1,0H3.131V-6.161a5,5,0,0,1-.916.666A6.492,6.492,0,0,1,1.2-5V-5.93a5.839,5.839,0,0,0,1.418-.924,3.634,3.634,0,0,0,.859-1.053H4.1Zm7.557-.929V0h-5.2a1.71,1.71,0,0,1,.113-.671A3.552,3.552,0,0,1,7.2-1.719,9.972,9.972,0,0,1,8.465-2.911,10.723,10.723,0,0,0,10.2-4.579a2,2,0,0,0,.451-1.163,1.292,1.292,0,0,0-.411-.969,1.482,1.482,0,0,0-1.072-.395,1.51,1.51,0,0,0-1.117.419,1.585,1.585,0,0,0-.424,1.16l-.994-.1A2.446,2.446,0,0,1,7.4-7.323,2.62,2.62,0,0,1,9.19-7.906a2.5,2.5,0,0,1,1.794.628,2.063,2.063,0,0,1,.661,1.558,2.362,2.362,0,0,1-.193.929,3.606,3.606,0,0,1-.642.961,15.637,15.637,0,0,1-1.49,1.386q-.87.73-1.117.991a3.179,3.179,0,0,0-.408.524Zm1.219-5.054A2.393,2.393,0,0,1,13.3-7.417a1.42,1.42,0,0,1,1.23-.591,1.6,1.6,0,0,1,1.227.529,2.224,2.224,0,0,1,.486,1.555,2.207,2.207,0,0,1-.491,1.539,1.574,1.574,0,0,1-1.211.54,1.529,1.529,0,0,1-1.19-.532A2.348,2.348,0,0,1,12.875-5.983Zm1.681-1.359a.727.727,0,0,0-.6.312,1.974,1.974,0,0,0-.239,1.144,1.774,1.774,0,0,0,.242,1.066.731.731,0,0,0,.6.309.732.732,0,0,0,.6-.312A1.961,1.961,0,0,0,15.4-5.962a1.786,1.786,0,0,0-.242-1.072A.736.736,0,0,0,14.556-7.342ZM14.561.29l4.308-8.3h.784L15.361.29Zm3.405-2.138a2.39,2.39,0,0,1,.424-1.437,1.428,1.428,0,0,1,1.235-.588,1.6,1.6,0,0,1,1.227.529,2.224,2.224,0,0,1,.486,1.555A2.207,2.207,0,0,1,20.848-.25a1.579,1.579,0,0,1-1.217.54,1.526,1.526,0,0,1-1.19-.534A2.35,2.35,0,0,1,17.966-1.848Zm1.687-1.359a.732.732,0,0,0-.6.312,1.974,1.974,0,0,0-.239,1.144,1.775,1.775,0,0,0,.242,1.063.729.729,0,0,0,.6.312.737.737,0,0,0,.61-.312A1.961,1.961,0,0,0,20.5-1.826,1.786,1.786,0,0,0,20.254-2.9.736.736,0,0,0,19.653-3.207Z" transform="translate(0 146.113)" fill="#4891f2"/>
              <path id="Path_1610" data-name="Path 1610" d="M4.1,0H3.131V-6.161a5,5,0,0,1-.916.666A6.492,6.492,0,0,1,1.2-5V-5.93a5.839,5.839,0,0,0,1.418-.924,3.634,3.634,0,0,0,.859-1.053H4.1ZM6.574-2.062l1.015-.086a1.82,1.82,0,0,0,.524,1.115A1.422,1.422,0,0,0,9.1-.661a1.543,1.543,0,0,0,1.182-.526,1.984,1.984,0,0,0,.483-1.4A1.793,1.793,0,0,0,10.3-3.889a1.62,1.62,0,0,0-1.217-.478,1.686,1.686,0,0,0-.843.212,1.637,1.637,0,0,0-.591.551l-.908-.118.763-4.044h3.916v.924H8.282L7.858-4.727a2.562,2.562,0,0,1,1.488-.494,2.357,2.357,0,0,1,1.74.714,2.5,2.5,0,0,1,.709,1.837,2.867,2.867,0,0,1-.623,1.848A2.5,2.5,0,0,1,9.1.134a2.547,2.547,0,0,1-1.754-.6A2.348,2.348,0,0,1,6.574-2.062Zm6.3-3.921A2.393,2.393,0,0,1,13.3-7.417a1.42,1.42,0,0,1,1.23-.591,1.6,1.6,0,0,1,1.227.529,2.224,2.224,0,0,1,.486,1.555,2.207,2.207,0,0,1-.491,1.539,1.574,1.574,0,0,1-1.211.54,1.529,1.529,0,0,1-1.19-.532A2.348,2.348,0,0,1,12.875-5.983Zm1.681-1.359a.727.727,0,0,0-.6.312,1.974,1.974,0,0,0-.239,1.144,1.774,1.774,0,0,0,.242,1.066.731.731,0,0,0,.6.309.732.732,0,0,0,.6-.312A1.961,1.961,0,0,0,15.4-5.962a1.786,1.786,0,0,0-.242-1.072A.736.736,0,0,0,14.556-7.342ZM14.561.29l4.308-8.3h.784L15.361.29Zm3.405-2.138a2.39,2.39,0,0,1,.424-1.437,1.428,1.428,0,0,1,1.235-.588,1.6,1.6,0,0,1,1.227.529,2.224,2.224,0,0,1,.486,1.555A2.207,2.207,0,0,1,20.848-.25a1.579,1.579,0,0,1-1.217.54,1.526,1.526,0,0,1-1.19-.534A2.35,2.35,0,0,1,17.966-1.848Zm1.687-1.359a.732.732,0,0,0-.6.312,1.974,1.974,0,0,0-.239,1.144,1.775,1.775,0,0,0,.242,1.063.729.729,0,0,0,.6.312.737.737,0,0,0,.61-.312A1.961,1.961,0,0,0,20.5-1.826,1.786,1.786,0,0,0,20.254-2.9.736.736,0,0,0,19.653-3.207Z" transform="translate(0 8)" fill="#4891f2"/>
            </g>
            <line id="Line_211" data-name="Line 211" y1="276.219" transform="translate(0 5.024)" fill="none" stroke="#4891f2" stroke-miterlimit="10" stroke-width="1"/>
          </g>
          <g id="Group_1717" data-name="Group 1717" transform="translate(2.691 55.621)">
            <g id="Group_1716" data-name="Group 1716">
              <g id="Group_1715" data-name="Group 1715">
                <line id="Line_215" data-name="Line 215" x1="46.021" y2="28.976" transform="translate(0 70.512)" fill="none" stroke="#4891f2" stroke-linecap="round" stroke-miterlimit="10" stroke-width="2"/>
                <line id="Line_216" data-name="Line 216" x1="46.021" y2="27.631" transform="translate(46.022 42.882)" fill="none" stroke="#4891f2" stroke-linecap="round" stroke-miterlimit="10" stroke-width="2"/>
                <line id="Line_217" data-name="Line 217" x1="46.111" y2="14.264" transform="translate(92.043 28.618)" fill="none" stroke="#4891f2" stroke-linecap="round" stroke-miterlimit="10" stroke-width="2"/>
                <line id="Line_218" data-name="Line 218" x1="46.021" y2="14.802" transform="translate(138.154 13.815)" fill="none" stroke="#4891f2" stroke-linecap="round" stroke-miterlimit="10" stroke-width="2"/>
                <line id="Line_219" data-name="Line 219" x1="46.021" y2="13.815" transform="translate(184.176)" fill="none" stroke="#4891f2" stroke-linecap="round" stroke-miterlimit="10" stroke-width="2"/>
              </g>
            </g>
          </g>
          <g id="Group_1720" data-name="Group 1720" transform="translate(0 52.93)">
            <g id="Group_1719" data-name="Group 1719">
              <g id="Group_1718" data-name="Group 1718">
                <rect id="Rectangle_2193" data-name="Rectangle 2193" width="5.383" height="5.383" rx="2.691" transform="translate(0 99.489)" fill="#4891f2" stroke="#4891f2" stroke-miterlimit="10" stroke-width="0.5"/>
                <rect id="Rectangle_2194" data-name="Rectangle 2194" width="5.383" height="5.383" rx="2.691" transform="translate(46.022 70.512)" fill="#4891f2" stroke="#4891f2" stroke-miterlimit="10" stroke-width="0.5"/>
                <rect id="Rectangle_2195" data-name="Rectangle 2195" width="5.383" height="5.383" rx="2.691" transform="translate(92.043 42.882)" fill="#4891f2" stroke="#4891f2" stroke-miterlimit="10" stroke-width="0.5"/>
                <rect id="Rectangle_2196" data-name="Rectangle 2196" width="5.383" height="5.383" rx="2.691" transform="translate(138.154 28.618)" fill="#4891f2" stroke="#4891f2" stroke-miterlimit="10" stroke-width="0.5"/>
                <rect id="Rectangle_2197" data-name="Rectangle 2197" width="5.383" height="5.383" rx="2.691" transform="translate(184.176 13.815)" fill="#4891f2" stroke="#4891f2" stroke-miterlimit="10" stroke-width="0.5"/>
                <rect id="Rectangle_2198" data-name="Rectangle 2198" width="5.383" height="5.383" rx="2.691" transform="translate(230.197)" fill="#4891f2" stroke="#4891f2" stroke-miterlimit="10" stroke-width="0.5"/>
              </g>
            </g>
          </g>
        </g>
      </g>
      <g id="Group_1689" data-name="Group 1689" transform="translate(275.984 564.358)">
        <g id="Group_1686" data-name="Group 1686" transform="translate(0 0)">
          <path id="Path_1618" data-name="Path 1618" d="M4.471,0H3.416V-6.721a5.451,5.451,0,0,1-1,.727,7.082,7.082,0,0,1-1.11.545v-1.02A6.369,6.369,0,0,0,2.854-7.477a3.964,3.964,0,0,0,.938-1.148h.68Zm2.7-4.236a7.86,7.86,0,0,1,.313-2.452,3.05,3.05,0,0,1,.932-1.433,2.382,2.382,0,0,1,1.556-.5,2.538,2.538,0,0,1,1.213.278,2.319,2.319,0,0,1,.861.8,4.306,4.306,0,0,1,.533,1.277,8.487,8.487,0,0,1,.193,2.03,7.882,7.882,0,0,1-.311,2.44A3.051,3.051,0,0,1,11.534-.36,2.382,2.382,0,0,1,9.973.146,2.357,2.357,0,0,1,8.021-.744,5.661,5.661,0,0,1,7.172-4.236Zm1.084,0a5.386,5.386,0,0,0,.5,2.815,1.459,1.459,0,0,0,1.222.7,1.458,1.458,0,0,0,1.222-.7,5.388,5.388,0,0,0,.5-2.812,5.384,5.384,0,0,0-.5-2.818,1.47,1.47,0,0,0-1.233-.7,1.351,1.351,0,0,0-1.16.615A5.448,5.448,0,0,0,8.256-4.236Zm5.6,1.969,1.055-.141a2.324,2.324,0,0,0,.618,1.292,1.527,1.527,0,0,0,1.063.4,1.7,1.7,0,0,0,1.257-.516,1.74,1.74,0,0,0,.513-1.277,1.618,1.618,0,0,0-.475-1.2,1.641,1.641,0,0,0-1.207-.472,3.028,3.028,0,0,0-.744.117l.117-.926a1.612,1.612,0,0,0,.17.012,2.172,2.172,0,0,0,1.213-.352,1.2,1.2,0,0,0,.539-1.084,1.282,1.282,0,0,0-.393-.961,1.4,1.4,0,0,0-1.014-.381,1.436,1.436,0,0,0-1.025.387,1.941,1.941,0,0,0-.527,1.16L13.957-6.4a2.711,2.711,0,0,1,.879-1.644,2.541,2.541,0,0,1,1.705-.583,2.809,2.809,0,0,1,1.295.3,2.183,2.183,0,0,1,.905.823,2.115,2.115,0,0,1,.313,1.107,1.813,1.813,0,0,1-.3,1.014,2.04,2.04,0,0,1-.885.727,1.993,1.993,0,0,1,1.184.729,2.22,2.22,0,0,1,.422,1.386,2.535,2.535,0,0,1-.82,1.907,2.885,2.885,0,0,1-2.074.782A2.7,2.7,0,0,1,14.7-.521,2.606,2.606,0,0,1,13.852-2.268Z" transform="translate(0 11.916)" fill="#d48773"/>
          <path id="Path_1617" data-name="Path 1617" d="M4.471,0H3.416V-6.721a5.451,5.451,0,0,1-1,.727,7.082,7.082,0,0,1-1.11.545v-1.02A6.369,6.369,0,0,0,2.854-7.477a3.964,3.964,0,0,0,.938-1.148h.68Zm2.7-4.236a7.86,7.86,0,0,1,.313-2.452,3.05,3.05,0,0,1,.932-1.433,2.382,2.382,0,0,1,1.556-.5,2.538,2.538,0,0,1,1.213.278,2.319,2.319,0,0,1,.861.8,4.306,4.306,0,0,1,.533,1.277,8.487,8.487,0,0,1,.193,2.03,7.882,7.882,0,0,1-.311,2.44A3.051,3.051,0,0,1,11.534-.36,2.382,2.382,0,0,1,9.973.146,2.357,2.357,0,0,1,8.021-.744,5.661,5.661,0,0,1,7.172-4.236Zm1.084,0a5.386,5.386,0,0,0,.5,2.815,1.459,1.459,0,0,0,1.222.7,1.458,1.458,0,0,0,1.222-.7,5.388,5.388,0,0,0,.5-2.812,5.384,5.384,0,0,0-.5-2.818,1.47,1.47,0,0,0-1.233-.7,1.351,1.351,0,0,0-1.16.615A5.448,5.448,0,0,0,8.256-4.236ZM17.227,0V-2.057H13.5v-.967L17.42-8.59h.861v5.566h1.16v.967h-1.16V0Zm0-3.023V-6.9L14.537-3.023Z" transform="translate(47.294 11.916)" fill="#d48773"/>
          <path id="Path_1616" data-name="Path 1616" d="M4.471,0H3.416V-6.721a5.451,5.451,0,0,1-1,.727,7.082,7.082,0,0,1-1.11.545v-1.02A6.369,6.369,0,0,0,2.854-7.477a3.964,3.964,0,0,0,.938-1.148h.68Zm2.7-4.236a7.86,7.86,0,0,1,.313-2.452,3.05,3.05,0,0,1,.932-1.433,2.382,2.382,0,0,1,1.556-.5,2.538,2.538,0,0,1,1.213.278,2.319,2.319,0,0,1,.861.8,4.306,4.306,0,0,1,.533,1.277,8.487,8.487,0,0,1,.193,2.03,7.882,7.882,0,0,1-.311,2.44A3.051,3.051,0,0,1,11.534-.36,2.382,2.382,0,0,1,9.973.146,2.357,2.357,0,0,1,8.021-.744,5.661,5.661,0,0,1,7.172-4.236Zm1.084,0a5.386,5.386,0,0,0,.5,2.815,1.459,1.459,0,0,0,1.222.7,1.458,1.458,0,0,0,1.222-.7,5.388,5.388,0,0,0,.5-2.812,5.384,5.384,0,0,0-.5-2.818,1.47,1.47,0,0,0-1.233-.7,1.351,1.351,0,0,0-1.16.615A5.448,5.448,0,0,0,8.256-4.236Zm5.59,1.986,1.107-.094a1.986,1.986,0,0,0,.571,1.216,1.551,1.551,0,0,0,1.081.407,1.684,1.684,0,0,0,1.289-.574,2.164,2.164,0,0,0,.527-1.523,1.956,1.956,0,0,0-.507-1.424,1.767,1.767,0,0,0-1.327-.521,1.839,1.839,0,0,0-.92.231,1.786,1.786,0,0,0-.645.6l-.99-.129.832-4.412h4.271v1.008H15.709l-.463,2.309A2.8,2.8,0,0,1,16.869-5.7a2.571,2.571,0,0,1,1.9.779,2.724,2.724,0,0,1,.773,2A3.128,3.128,0,0,1,18.861-.9,2.723,2.723,0,0,1,16.605.146,2.779,2.779,0,0,1,14.692-.51,2.561,2.561,0,0,1,13.846-2.25Z" transform="translate(92.783 11.916)" fill="#d48773"/>
          <path id="Path_1615" data-name="Path 1615" d="M4.471,0H3.416V-6.721a5.451,5.451,0,0,1-1,.727,7.082,7.082,0,0,1-1.11.545v-1.02A6.369,6.369,0,0,0,2.854-7.477a3.964,3.964,0,0,0,.938-1.148h.68Zm2.7-4.236a7.86,7.86,0,0,1,.313-2.452,3.05,3.05,0,0,1,.932-1.433,2.382,2.382,0,0,1,1.556-.5,2.538,2.538,0,0,1,1.213.278,2.319,2.319,0,0,1,.861.8,4.306,4.306,0,0,1,.533,1.277,8.487,8.487,0,0,1,.193,2.03,7.882,7.882,0,0,1-.311,2.44A3.051,3.051,0,0,1,11.534-.36,2.382,2.382,0,0,1,9.973.146,2.357,2.357,0,0,1,8.021-.744,5.661,5.661,0,0,1,7.172-4.236Zm1.084,0a5.386,5.386,0,0,0,.5,2.815,1.459,1.459,0,0,0,1.222.7,1.458,1.458,0,0,0,1.222-.7,5.388,5.388,0,0,0,.5-2.812,5.384,5.384,0,0,0-.5-2.818,1.47,1.47,0,0,0-1.233-.7,1.351,1.351,0,0,0-1.16.615A5.448,5.448,0,0,0,8.256-4.236Zm11.063-2.25L18.27-6.4a1.986,1.986,0,0,0-.4-.9,1.4,1.4,0,0,0-1.055-.451,1.449,1.449,0,0,0-.885.281,2.4,2.4,0,0,0-.785,1.061,5.542,5.542,0,0,0-.3,1.986,2.444,2.444,0,0,1,.932-.861,2.506,2.506,0,0,1,1.154-.281,2.391,2.391,0,0,1,1.8.776,2.787,2.787,0,0,1,.741,2.007,3.3,3.3,0,0,1-.349,1.5,2.54,2.54,0,0,1-.958,1.063,2.616,2.616,0,0,1-1.383.369,2.7,2.7,0,0,1-2.15-.97,4.9,4.9,0,0,1-.832-3.2,5.73,5.73,0,0,1,.92-3.621,2.645,2.645,0,0,1,2.162-.984,2.426,2.426,0,0,1,1.661.568A2.413,2.413,0,0,1,19.318-6.486Zm-4.307,3.7a2.447,2.447,0,0,0,.231,1.043,1.725,1.725,0,0,0,.647.759,1.619,1.619,0,0,0,.873.261,1.488,1.488,0,0,0,1.148-.539,2.122,2.122,0,0,0,.48-1.465,1.985,1.985,0,0,0-.475-1.4,1.56,1.56,0,0,0-1.2-.513,1.627,1.627,0,0,0-1.213.513A1.848,1.848,0,0,0,15.012-2.783Z" transform="translate(138.272 11.916)" fill="#d48773"/>
          <path id="Path_1614" data-name="Path 1614" d="M4.471,0H3.416V-6.721a5.451,5.451,0,0,1-1,.727,7.082,7.082,0,0,1-1.11.545v-1.02A6.369,6.369,0,0,0,2.854-7.477a3.964,3.964,0,0,0,.938-1.148h.68Zm2.7-4.236a7.86,7.86,0,0,1,.313-2.452,3.05,3.05,0,0,1,.932-1.433,2.382,2.382,0,0,1,1.556-.5,2.538,2.538,0,0,1,1.213.278,2.319,2.319,0,0,1,.861.8,4.306,4.306,0,0,1,.533,1.277,8.487,8.487,0,0,1,.193,2.03,7.882,7.882,0,0,1-.311,2.44A3.051,3.051,0,0,1,11.534-.36,2.382,2.382,0,0,1,9.973.146,2.357,2.357,0,0,1,8.021-.744,5.661,5.661,0,0,1,7.172-4.236Zm1.084,0a5.386,5.386,0,0,0,.5,2.815,1.459,1.459,0,0,0,1.222.7,1.458,1.458,0,0,0,1.222-.7,5.388,5.388,0,0,0,.5-2.812,5.384,5.384,0,0,0-.5-2.818,1.47,1.47,0,0,0-1.233-.7,1.351,1.351,0,0,0-1.16.615A5.448,5.448,0,0,0,8.256-4.236Zm5.66-3.229V-8.479h5.561v.82a11.718,11.718,0,0,0-1.626,2.32,14.132,14.132,0,0,0-1.245,2.977A11.063,11.063,0,0,0,16.2,0H15.117a10.526,10.526,0,0,1,.4-2.449,12.861,12.861,0,0,1,1.093-2.769,11.868,11.868,0,0,1,1.515-2.247Z" transform="translate(185.713 11.916)" fill="#d48773"/>
          <path id="Path_1613" data-name="Path 1613" d="M4.471,0H3.416V-6.721a5.451,5.451,0,0,1-1,.727,7.082,7.082,0,0,1-1.11.545v-1.02A6.369,6.369,0,0,0,2.854-7.477a3.964,3.964,0,0,0,.938-1.148h.68Zm2.7-4.236a7.86,7.86,0,0,1,.313-2.452,3.05,3.05,0,0,1,.932-1.433,2.382,2.382,0,0,1,1.556-.5,2.538,2.538,0,0,1,1.213.278,2.319,2.319,0,0,1,.861.8,4.306,4.306,0,0,1,.533,1.277,8.487,8.487,0,0,1,.193,2.03,7.882,7.882,0,0,1-.311,2.44A3.051,3.051,0,0,1,11.534-.36,2.382,2.382,0,0,1,9.973.146,2.357,2.357,0,0,1,8.021-.744,5.661,5.661,0,0,1,7.172-4.236Zm1.084,0a5.386,5.386,0,0,0,.5,2.815,1.459,1.459,0,0,0,1.222.7,1.458,1.458,0,0,0,1.222-.7,5.388,5.388,0,0,0,.5-2.812,5.384,5.384,0,0,0-.5-2.818,1.47,1.47,0,0,0-1.233-.7,1.351,1.351,0,0,0-1.16.615A5.448,5.448,0,0,0,8.256-4.236Zm7.213-.422a1.985,1.985,0,0,1-.973-.686A1.793,1.793,0,0,1,14.18-6.41a2.085,2.085,0,0,1,.674-1.576,2.5,2.5,0,0,1,1.793-.639,2.516,2.516,0,0,1,1.811.653,2.115,2.115,0,0,1,.686,1.591,1.752,1.752,0,0,1-.313,1.04,1.977,1.977,0,0,1-.952.683,2.309,2.309,0,0,1,1.2.832,2.285,2.285,0,0,1,.413,1.371A2.468,2.468,0,0,1,18.715-.6a2.833,2.833,0,0,1-2.051.75,2.827,2.827,0,0,1-2.051-.753,2.5,2.5,0,0,1-.779-1.878,2.27,2.27,0,0,1,.425-1.4A2.127,2.127,0,0,1,15.469-4.658Zm-.211-1.787a1.337,1.337,0,0,0,.393,1,1.391,1.391,0,0,0,1.02.387,1.364,1.364,0,0,0,1-.384,1.269,1.269,0,0,0,.39-.94,1.316,1.316,0,0,0-.4-.976,1.367,1.367,0,0,0-1-.4,1.381,1.381,0,0,0-1,.387A1.245,1.245,0,0,0,15.258-6.445Zm-.34,3.967a1.908,1.908,0,0,0,.214.873,1.509,1.509,0,0,0,.636.653,1.859,1.859,0,0,0,.908.231,1.7,1.7,0,0,0,1.248-.486,1.664,1.664,0,0,0,.492-1.236,1.692,1.692,0,0,0-.507-1.26,1.737,1.737,0,0,0-1.269-.5,1.667,1.667,0,0,0-1.233.492A1.675,1.675,0,0,0,14.918-2.479ZM31.014-3.5q0,.094-.111.094h-.527a.083.083,0,0,1-.094-.094V-4.67H21.809V-3.5q0,.094-.1.094H21.17a.083.083,0,0,1-.094-.094l.023-.973V-4.74L21.076-5.2q0-.082.094-.082l.229.006q.223.012.48.018l-.117-2.795a6.853,6.853,0,0,0-.135-1.271,2.024,2.024,0,0,1,.6.193A9.881,9.881,0,0,0,23.25-9.5a1.979,1.979,0,0,0,.469-.287,4.113,4.113,0,0,1,.5.434.2.2,0,0,1,.07.129q0,.1-.135.1a1.231,1.231,0,0,0-.428.094q-.727.264-1.348.422l.023.6h.914l.721-.023a.083.083,0,0,1,.094.094v.4q0,.082-.094.082l-.721-.023H22.43l.023.809h.891l.7-.023a.083.083,0,0,1,.094.094v.4q0,.082-.094.082l-.7-.023h-.867l.041.9h7.066l.047-.873h-.85l-.709.023q-.094,0-.094-.082v-.4a.083.083,0,0,1,.094-.094l.709.023h.885l.064-.832h-.937l-.709.023q-.094,0-.094-.082v-.381q0-.111.094-.111l.709.023h.961l.059-.826H28.84l-.85.023q-.111,0-.111-.094v-.434q0-.1.111-.1l.85.029h.686l.861-.029a.1.1,0,0,1,.111.111q-.064.457-.111,1.342l-.152,2.736q.264-.006.5-.018l.164-.006q.111,0,.111.082l-.023.41v.311ZM31.3-1.465a.083.083,0,0,1-.094.094L29.66-1.395H26.42v.275l.012.984A.864.864,0,0,1,26.1.645,1.232,1.232,0,0,1,25.553.8Q25.236.838,24.5.838A.4.4,0,0,1,24.275.8.452.452,0,0,1,24.2.609a2.358,2.358,0,0,0-.229-.492A11.756,11.756,0,0,0,25.2.176.625.625,0,0,0,25.617.07a.433.433,0,0,0,.105-.334V-1.395H22.412l-1.553.023a.083.083,0,0,1-.094-.094v-.5a.083.083,0,0,1,.094-.094l1.553.023h3.311a6.692,6.692,0,0,0-.07-.756l.6.111a9.351,9.351,0,0,0,1.535-.744H24.557L23.01-3.4a.083.083,0,0,1-.094-.094v-.434q0-.082.094-.082L24.557-4h3.352a1.728,1.728,0,0,0,.287-.012.4.4,0,0,1,.129-.035q.1,0,.316.229.24.27.24.357a.137.137,0,0,1-.123.141,2.905,2.905,0,0,0-.469.24,11.925,11.925,0,0,1-1.869.885v.158h3.24l1.547-.023a.083.083,0,0,1,.094.094Zm-3.85-6.744q.053.035.053.064t-.064.094l-.182.193q-.094.1-.129.1T27.053-7.8q-.41-.316-.85-.6a7.388,7.388,0,0,1-1.236.662.664.664,0,0,1-.182.059q-.053,0-.182-.141a1.153,1.153,0,0,0-.3-.252A6.494,6.494,0,0,0,25.711-8.7q-.187-.105-.9-.48-.064-.029-.064-.059t.064-.094L25-9.516q.064-.07.105-.07a.229.229,0,0,1,.076.018q.557.281,1.008.557l.322-.264a2.5,2.5,0,0,0,.393-.469,2.8,2.8,0,0,1,.457.3q.088.064.088.123t-.088.094a.765.765,0,0,0-.24.146l-.439.357Q27.1-8.455,27.451-8.209Zm0,2.355-.193.2q-.105.117-.135.117a.135.135,0,0,1-.07-.041q-.275-.217-.85-.6a6.11,6.11,0,0,1-1.225.65,1.4,1.4,0,0,1-.182.059q-.053,0-.17-.135a1.044,1.044,0,0,0-.311-.258,7.022,7.022,0,0,0,1.395-.615q-.281-.17-.879-.48-.07-.029-.07-.059a.149.149,0,0,1,.047-.082l.182-.193q.076-.082.111-.082a.178.178,0,0,1,.064.018q.516.258,1.025.568.129-.1.346-.287a1.976,1.976,0,0,0,.381-.457,2.656,2.656,0,0,1,.445.287q.088.064.088.117,0,.076-.1.111a.743.743,0,0,0-.24.129q-.018.018-.445.375.475.3.785.516.053.035.053.059A.2.2,0,0,1,27.451-5.854ZM43.213-2.074a.083.083,0,0,1-.094.094L41.549-2h-2.7v.8l.023,1.98a.073.073,0,0,1-.082.082h-.6q-.105,0-.105-.082L38.1-1.2V-2H34.459l-1.576.023a.083.083,0,0,1-.094-.094v-.545a.083.083,0,0,1,.094-.094l1.576.023h.357V-4.447L34.793-5.5a.083.083,0,0,1,.094-.094l1.682.023H38.1v-1.98H35.367a12.225,12.225,0,0,1-1.523,1.863q-.111.129-.158.129T33.521-5.7a1.223,1.223,0,0,0-.41-.322,9.675,9.675,0,0,0,2.355-3.158,3.352,3.352,0,0,0,.252-.791q.3.076.744.229a.169.169,0,0,1,.117.158.235.235,0,0,1-.105.164,1.236,1.236,0,0,0-.3.434q-.264.527-.4.779h5.051l1.67-.023a.083.083,0,0,1,.094.094v.521a.083.083,0,0,1-.094.094l-1.67-.023H38.848v1.98H40.3l1.664-.023q.088,0,.088.094v.521q0,.094-.088.094L40.3-4.9H38.848v2.215h2.7l1.57-.023a.083.083,0,0,1,.094.094ZM38.1-2.689V-4.9H35.549v2.215Z" transform="translate(231.208 12)" fill="#d48773"/>
        </g>
      </g>
      <g id="Group_1689-2" data-name="Group 1689" transform="translate(262.005 561.444)">
        <line id="Line_177" data-name="Line 177" x2="277.039" transform="translate(0)" fill="none" stroke="#55585f" stroke-miterlimit="10" stroke-width="1"/>
      </g>
    </g>
    <g id="Group_1918" data-name="Group 1918" transform="translate(-8567 -12947)">
      <rect id="Rectangle_2063" data-name="Rectangle 2063" width="223" height="31" rx="15.5" transform="translate(729 1062)" fill="#3d3c3c"/>
      <path id="內文p" d="M10.738,7.012A5.968,5.968,0,0,0,9.226,6.06l-.49.518a5.665,5.665,0,0,1,1.5.98ZM7,12.668c-1.568.28-3.122.56-4.186.728l.14.784c1.148-.21,2.632-.5,4.088-.784ZM5.782,11.436H4.172v-1.4h1.61ZM3.444,9.378v2.716H6.538V9.378ZM9.66,9.14a9.632,9.632,0,0,1-1.036,2.576A20.4,20.4,0,0,1,8.106,8.5h2.982V7.712H8.036c-.028-.49-.056-.98-.084-1.484h-.9c.028.5.07.994.112,1.484H2.954V8.5H7.238a19.392,19.392,0,0,0,.77,4.144,7.556,7.556,0,0,1-2.114,1.82,5.374,5.374,0,0,1,.616.658,8.78,8.78,0,0,0,1.848-1.61,2.285,2.285,0,0,0,1.456,1.358c.728.28,1.2-.28,1.386-1.806a2.62,2.62,0,0,1-.672-.462c-.1.9-.238,1.5-.434,1.442-.462-.07-.84-.546-1.134-1.288a10.865,10.865,0,0,0,1.554-3.43ZM2.184,15.524V5.878h9.6v9.646ZM1.19,4.926v12.18h.994v-.644h9.6v.644H12.81V4.926ZM21.5,11.506V7.8h4.018v3.71Zm-5.082,0V7.8h4v3.71ZM21.5,6.774V4.282H20.426V6.774H15.4V13.4h1.022v-.868h4v4.536H21.5V12.528h4.018v.8h1.064V6.774ZM35.56,15.622V12.066h4.494V11.058H35.56V8.006h5.012V6.984H35.56V4.3H34.5V6.984H31.654a19.216,19.216,0,0,0,.784-2.24l-1.05-.224A12.763,12.763,0,0,1,28.8,9.672a6.971,6.971,0,0,1,.952.616,12.561,12.561,0,0,0,1.456-2.282H34.5v3.052H30.338v1.008H34.5v3.556h-5.67V16.63h12.4V15.622Zm17.906-5.306a9.088,9.088,0,0,0-.98-1.218A9.318,9.318,0,0,0,53.55,7.544l-.728-.112a7.983,7.983,0,0,1-.77,1.176c-.21-.21-.42-.42-.63-.616a8.127,8.127,0,0,0,.8-1.2l-.714-.126a5.44,5.44,0,0,1-.574.868c-.238-.21-.49-.434-.742-.63l-.574.378a8.78,8.78,0,0,1,.868.784A7.291,7.291,0,0,1,49.266,9.07a2.134,2.134,0,0,1,.476.462A8.043,8.043,0,0,0,50.96,8.524a8.466,8.466,0,0,1,.6.63A9.129,9.129,0,0,1,49.8,10.582a1.709,1.709,0,0,1,.462.49A9.423,9.423,0,0,0,52.01,9.63a13.336,13.336,0,0,1,.854,1.134Zm.28.91H49.07V6.48h4.676ZM54.7,5.612H51c.2-.35.406-.784.6-1.2L50.568,4.2a13.288,13.288,0,0,1-.5,1.414H48.146v6.482H54.7Zm-1.9,8.848a20.522,20.522,0,0,0-1.344-2.142l-.686.322a24.633,24.633,0,0,1,1.316,2.24Zm-5.25-2.1a17.049,17.049,0,0,0-.882-2.688l-.742.21c.154.364.294.784.42,1.19l-2.156.364a26.638,26.638,0,0,0,3.038-4.62l-.868-.434a18.665,18.665,0,0,1-.994,1.89l-1.456.14a21.175,21.175,0,0,0,1.96-3.766l-.938-.378A17.794,17.794,0,0,1,43.274,7.8c-.252.42-.49.714-.714.77a9.242,9.242,0,0,1,.322.924,6.889,6.889,0,0,1,1.946-.35,15.31,15.31,0,0,1-1.176,1.666c-.392.5-.714.868-.994.938a5.819,5.819,0,0,1,.308.91c.266-.168.672-.266,3.612-.826a7.815,7.815,0,0,1,.182.8Zm-4.144.868a13.073,13.073,0,0,1-.784,3.22,3.689,3.689,0,0,1,.756.28,17.4,17.4,0,0,0,.812-3.36Zm1.274.14a24.262,24.262,0,0,1,.35,2.968l.784-.168c-.056-.812-.224-2.016-.392-2.968Zm1.288-.266c.224.77.49,1.764.6,2.422l.714-.224a15.5,15.5,0,0,0-.616-2.394Zm1.974,3.248a13.484,13.484,0,0,0,.938-2.982l-.742-.266a12.028,12.028,0,0,1-.952,2.884Zm2.716-.406c-.532,0-.616-.056-.616-.378V13.1h-.9V15.58c0,.91.294,1.148,1.428,1.148h2.016c.924,0,1.176-.378,1.274-1.9a2.461,2.461,0,0,1-.784-.336c-.056,1.288-.14,1.456-.574,1.456Zm2.814-2.6a25.773,25.773,0,0,1,1.19,2.772l.784-.364c-.266-.714-.784-1.834-1.232-2.716Zm9.576,2.744c-.448-.238-1.05-.532-1.694-.812a3.027,3.027,0,0,0,1.05-1.736h1.484V12.78h-1.4v-.56h-.854v.56H59.864c.154-.308.308-.6.448-.9h3.164v-1.3c.21.182.5.434.63.574a10.044,10.044,0,0,0,.77-1.554,19.894,19.894,0,0,0,1.036,3.7,6.943,6.943,0,0,1-2.9,2.814Zm-1.526-2.548a2.689,2.689,0,0,1-1.05,1.386c-.518-.21-1.05-.392-1.554-.546.168-.266.336-.546.518-.84Zm-3.332-3.248H59.92v.924H58.184Zm4.368,0v.924H60.746v-.924ZM67.4,7.978a16.438,16.438,0,0,1-.966,4.27,19.112,19.112,0,0,1-1.022-4.1l.07-.168Zm-8.96.308v-.9H59.92v.9ZM59.92,5.92v.77H58.436V5.92Zm2.422,0v.77h-1.6V5.92Zm-1.6,2.366v-.9h1.6v.9Zm8.638-.308V7.04H65.758c.224-.84.434-1.722.6-2.576l-.91-.182a18.543,18.543,0,0,1-1.974,6.09V9.63h-2.73V9.014H63.2V7.432h.8V6.648h-.8V5.192h-2.45v-.91H59.92v.91h-2.3V6.648h-.966v.784h.966V9.014h2.3V9.63H57.288v2.254H59.36c-.14.294-.28.588-.448.9h-2.24v.756h1.806c-.294.448-.588.9-.854,1.232a19.41,19.41,0,0,1,1.988.658,13.044,13.044,0,0,1-3.052.938,2.375,2.375,0,0,1,.448.7,12.464,12.464,0,0,0,3.57-1.232,14.416,14.416,0,0,1,1.792.868l.336-.308a4.439,4.439,0,0,1,.476.7,8.283,8.283,0,0,0,3.192-2.828,7.091,7.091,0,0,0,2.45,2.744,3.759,3.759,0,0,1,.672-.8,6.415,6.415,0,0,1-2.59-2.87A16.323,16.323,0,0,0,68.32,7.978Z" transform="translate(767 1067)" fill="#aca4a4"/>
      <path id="內文p-2" data-name="內文p" d="M6.552,11.758C6.23,11.366,4.8,9.77,4.34,9.336V9.182H6.622V8.2H4.34V5.934a13.614,13.614,0,0,0,2.142-.616l-.6-.84A25.594,25.594,0,0,1,.84,5.7a3.681,3.681,0,0,1,.294.8c.7-.084,1.456-.2,2.2-.336V8.2H.868v.98h2.3a14.137,14.137,0,0,1-2.758,4.4,4.738,4.738,0,0,1,.546.966,15.02,15.02,0,0,0,2.38-3.836V17.05H4.34V10.4c.56.728,1.3,1.736,1.582,2.212Zm6.832,4.452a41.786,41.786,0,0,0-2.422-6.174l-.938.35c.532,1.19,1.092,2.576,1.554,3.864l-4.214.6a61.463,61.463,0,0,0,2.674-10l-1.106-.2a57.43,57.43,0,0,1-2.156,8.554c-.392,1.106-.7,1.876-1.022,1.988a10.066,10.066,0,0,1,.35,1.036c.392-.21.98-.322,5.8-1.078.182.546.322,1.064.434,1.484Zm8.12-4.7V7.8h4.018v3.71Zm-5.082,0V7.8h4v3.71ZM21.5,6.774V4.282H20.426V6.774H15.4V13.4h1.022v-.868h4v4.536H21.5V12.528h4.018v.8h1.064V6.774ZM35.56,15.622V12.066h4.494V11.058H35.56V8.006h5.012V6.984H35.56V4.3H34.5V6.984H31.654a19.216,19.216,0,0,0,.784-2.24l-1.05-.224A12.763,12.763,0,0,1,28.8,9.672a6.971,6.971,0,0,1,.952.616,12.561,12.561,0,0,0,1.456-2.282H34.5v3.052H30.338v1.008H34.5v3.556h-5.67V16.63h12.4V15.622Zm17.178-.434h-7.5V11.632h7.5ZM54.894,7.88V6.9h-5.6V4.3h-1.05v6.356H44.212v6.412h1.022v-.882h7.5v.812h1.05V10.652H49.294V7.88ZM59.066,15.1V9.616h3.556V8.594H59.066V4.3H58V14.712a1.245,1.245,0,0,1-.546,1.05,3.391,3.391,0,0,1,.49.882c.336-.224.854-.392,4.858-1.47a6.623,6.623,0,0,1-.1-.966Zm6.384.658c-.658,0-.784-.14-.784-.91V9.616h3.766V8.594H64.666V4.282h-1.05V14.838c0,1.512.364,1.918,1.722,1.918H67.69c1.316,0,1.6-.784,1.736-3.066a2.43,2.43,0,0,1-.966-.448c-.1,2-.182,2.52-.84,2.52Z" transform="translate(869 1067)" fill="#aca4a4"/>
      <rect id="Rectangle_2136" data-name="Rectangle 2136" width="14" height="13" rx="2" transform="translate(749 1072)" fill="#fff"/>
      <rect id="Rectangle_2137" data-name="Rectangle 2137" width="15" height="3" rx="1.5" transform="translate(850 1077)" fill="#356bd0"/>
    </g>
  </g>
</svg>
