<svg xmlns="http://www.w3.org/2000/svg" width="311" height="317.34" viewBox="0 0 311 317.34">
  <g id="data10" transform="translate(6435 7388.34)">
    <g id="Group_1921" data-name="Group 1921" transform="translate(-6681 -7694)">
      <g id="data_10-09" transform="translate(214.072 209.601)">
        <g id="Group_1733" data-name="Group 1733" transform="translate(32.928 112.399)">
          <g id="Group_1725" data-name="Group 1725" transform="translate(31.372 233.012)">
            <line id="Line_220" data-name="Line 220" x2="234.612" transform="translate(0 5.867)" fill="none" stroke="#55585f" stroke-miterlimit="10" stroke-width="1"/>
          </g>
          <g id="Group_1729" data-name="Group 1729">
            <g id="Group_1726" data-name="Group 1726">
              <path id="Path_1627" data-name="Path 1627" d="M.374-3.177A5.9,5.9,0,0,1,.609-5.016a2.288,2.288,0,0,1,.7-1.074,1.786,1.786,0,0,1,1.167-.378,1.9,1.9,0,0,1,.91.209,1.739,1.739,0,0,1,.646.6,3.23,3.23,0,0,1,.4.958,6.365,6.365,0,0,1,.145,1.523,5.912,5.912,0,0,1-.233,1.83,2.288,2.288,0,0,1-.7,1.077A1.786,1.786,0,0,1,2.474.11,1.768,1.768,0,0,1,1.011-.558,4.245,4.245,0,0,1,.374-3.177Zm.813,0a4.04,4.04,0,0,0,.371,2.112,1.094,1.094,0,0,0,.916.525,1.093,1.093,0,0,0,.916-.527,4.041,4.041,0,0,0,.371-2.109A4.038,4.038,0,0,0,3.39-5.291a1.1,1.1,0,0,0-.925-.523,1.014,1.014,0,0,0-.87.461A4.086,4.086,0,0,0,1.187-3.177Z" transform="translate(22.138 241.619)" fill="#4891f2"/>
              <path id="Path_1626" data-name="Path 1626" d="M3.726,0H2.847V-5.6A4.543,4.543,0,0,1,2.014-5a5.9,5.9,0,0,1-.925.454v-.85a5.308,5.308,0,0,0,1.289-.84,3.3,3.3,0,0,0,.781-.957h.566ZM14.331-.21A.733.733,0,0,1,14.1.42a.851.851,0,0,1-.356.137,5.305,5.305,0,0,1-.723.034.255.255,0,0,1-.156-.029A.388.388,0,0,1,12.793.4,1.781,1.781,0,0,0,12.612.01a7.085,7.085,0,0,0,.742.039.435.435,0,0,0,.308-.083A.365.365,0,0,0,13.74-.3V-2.119H10.752v1.05q.757-.088,1.318-.181-.249-.361-.278-.4a.133.133,0,0,1-.034-.063q0-.034.093-.073l.21-.093a.314.314,0,0,1,.083-.024q.029,0,.068.054a7.592,7.592,0,0,1,.8,1.309.24.24,0,0,1,.015.059q0,.039-.093.083l-.225.112a.307.307,0,0,1-.107.039q-.034,0-.059-.059-.19-.42-.239-.522-1.45.254-3.467.449a1.26,1.26,0,0,0-.43.093.237.237,0,0,1-.117.059q-.068,0-.112-.132-.059-.21-.127-.557.215,0,.4,0,.342,0,.693-.024.918-.068,1.069-.083v-1.1H7.383V-.352L7.4.6a.069.069,0,0,1-.078.078H6.86A.069.069,0,0,1,6.782.6L6.8-.352v-1.27l-.02-.928a.069.069,0,0,1,.078-.078l1.411.02H10.21V-3.33h-1.1l-1.372.02a.069.069,0,0,1-.078-.078l.02-.84V-5.239l-.02-.84a.069.069,0,0,1,.078-.078l1.372.02h2.881l1.382-.02a.069.069,0,0,1,.078.078l-.02.84v1.011l.02.84a.069.069,0,0,1-.078.078l-1.382-.02h-1.24v.723h2.09l1.411-.02a.069.069,0,0,1,.078.078l-.02.981v.41Zm-1.46-3.56v-.781H10.752v.781Zm-2.661,0v-.781H8.242v.781ZM12.871-4.98V-5.7H10.752v.718Zm-2.661,0V-5.7H8.242v.718Zm4.712-2.051q0,.078-.083.078l-1.309-.02H12.222l.02.459q0,.083-.078.083h-.435q-.088,0-.088-.083,0-.015.01-.156t.01-.3H9.351l.02.459q0,.083-.078.083H8.853a.073.073,0,0,1-.083-.083q0-.015.01-.156t.01-.3H7.6l-1.313.02a.069.069,0,0,1-.078-.078v-.4q0-.068.078-.068L7.6-7.48H8.789A4.375,4.375,0,0,0,8.73-8.3q.3.015.62.054.1.015.1.088a.266.266,0,0,1-.039.132,1.428,1.428,0,0,0-.063.547h2.31a4.305,4.305,0,0,0-.059-.811q.327.02.61.054.107.015.107.088a.266.266,0,0,1-.039.132,1.5,1.5,0,0,0-.059.537H13.53l1.309-.02q.083,0,.083.068Z" transform="translate(12.011 203.516)" fill="#4891f2"/>
              <path id="Path_1625" data-name="Path 1625" d="M5.034-.845V0H.3a1.555,1.555,0,0,1,.1-.61,3.229,3.229,0,0,1,.579-.952,9.065,9.065,0,0,1,1.15-1.084A9.748,9.748,0,0,0,3.711-4.163a1.815,1.815,0,0,0,.41-1.057A1.175,1.175,0,0,0,3.748-6.1a1.347,1.347,0,0,0-.974-.359,1.373,1.373,0,0,0-1.016.381,1.441,1.441,0,0,0-.386,1.055l-.9-.093a2.224,2.224,0,0,1,.7-1.541,2.382,2.382,0,0,1,1.626-.53,2.269,2.269,0,0,1,1.631.571,1.876,1.876,0,0,1,.6,1.416,2.148,2.148,0,0,1-.176.845,3.278,3.278,0,0,1-.583.874A14.215,14.215,0,0,1,2.91-2.222q-.791.664-1.016.9a2.89,2.89,0,0,0-.371.476Zm9.3.635A.733.733,0,0,1,14.1.42a.851.851,0,0,1-.356.137,5.305,5.305,0,0,1-.723.034.255.255,0,0,1-.156-.029A.388.388,0,0,1,12.793.4,1.781,1.781,0,0,0,12.612.01a7.085,7.085,0,0,0,.742.039.435.435,0,0,0,.308-.083A.365.365,0,0,0,13.74-.3V-2.119H10.752v1.05q.757-.088,1.318-.181-.249-.361-.278-.4a.133.133,0,0,1-.034-.063q0-.034.093-.073l.21-.093a.314.314,0,0,1,.083-.024q.029,0,.068.054a7.592,7.592,0,0,1,.8,1.309.24.24,0,0,1,.015.059q0,.039-.093.083l-.225.112a.307.307,0,0,1-.107.039q-.034,0-.059-.059-.19-.42-.239-.522-1.45.254-3.467.449a1.26,1.26,0,0,0-.43.093.237.237,0,0,1-.117.059q-.068,0-.112-.132-.059-.21-.127-.557.215,0,.4,0,.342,0,.693-.024.918-.068,1.069-.083v-1.1H7.383V-.352L7.4.6a.069.069,0,0,1-.078.078H6.86A.069.069,0,0,1,6.782.6L6.8-.352v-1.27l-.02-.928a.069.069,0,0,1,.078-.078l1.411.02H10.21V-3.33h-1.1l-1.372.02a.069.069,0,0,1-.078-.078l.02-.84V-5.239l-.02-.84a.069.069,0,0,1,.078-.078l1.372.02h2.881l1.382-.02a.069.069,0,0,1,.078.078l-.02.84v1.011l.02.84a.069.069,0,0,1-.078.078l-1.382-.02h-1.24v.723h2.09l1.411-.02a.069.069,0,0,1,.078.078l-.02.981v.41Zm-1.46-3.56v-.781H10.752v.781Zm-2.661,0v-.781H8.242v.781ZM12.871-4.98V-5.7H10.752v.718Zm-2.661,0V-5.7H8.242v.718Zm4.712-2.051q0,.078-.083.078l-1.309-.02H12.222l.02.459q0,.083-.078.083h-.435q-.088,0-.088-.083,0-.015.01-.156t.01-.3H9.351l.02.459q0,.083-.078.083H8.853a.073.073,0,0,1-.083-.083q0-.015.01-.156t.01-.3H7.6l-1.313.02a.069.069,0,0,1-.078-.078v-.4q0-.068.078-.068L7.6-7.48H8.789A4.375,4.375,0,0,0,8.73-8.3q.3.015.62.054.1.015.1.088a.266.266,0,0,1-.039.132,1.428,1.428,0,0,0-.063.547h2.31a4.305,4.305,0,0,0-.059-.811q.327.02.61.054.107.015.107.088a.266.266,0,0,1-.039.132,1.5,1.5,0,0,0-.059.537H13.53l1.309-.02q.083,0,.083.068Z" transform="translate(11.011 164.412)" fill="#4891f2"/>
              <path id="Path_1624" data-name="Path 1624" d="M.42-1.89,1.3-2.007A1.936,1.936,0,0,0,1.814-.93,1.272,1.272,0,0,0,2.7-.6a1.42,1.42,0,0,0,1.047-.43,1.45,1.45,0,0,0,.427-1.064,1.348,1.348,0,0,0-.4-1,1.367,1.367,0,0,0-1.006-.393,2.523,2.523,0,0,0-.62.1l.1-.771a1.343,1.343,0,0,0,.142.01A1.81,1.81,0,0,0,3.4-4.443a1,1,0,0,0,.449-.9,1.069,1.069,0,0,0-.327-.8,1.162,1.162,0,0,0-.845-.317,1.2,1.2,0,0,0-.854.322,1.618,1.618,0,0,0-.439.967L.508-5.332A2.259,2.259,0,0,1,1.24-6.7a2.117,2.117,0,0,1,1.421-.486,2.341,2.341,0,0,1,1.079.251,1.819,1.819,0,0,1,.754.686,1.762,1.762,0,0,1,.261.923,1.511,1.511,0,0,1-.249.845,1.7,1.7,0,0,1-.737.605,1.661,1.661,0,0,1,.986.608,1.85,1.85,0,0,1,.352,1.155A2.113,2.113,0,0,1,4.424-.525,2.4,2.4,0,0,1,2.7.127,2.249,2.249,0,0,1,1.13-.435,2.171,2.171,0,0,1,.42-1.89ZM14.331-.21A.733.733,0,0,1,14.1.42a.851.851,0,0,1-.356.137,5.305,5.305,0,0,1-.723.034.255.255,0,0,1-.156-.029A.388.388,0,0,1,12.793.4,1.781,1.781,0,0,0,12.612.01a7.085,7.085,0,0,0,.742.039.435.435,0,0,0,.308-.083A.365.365,0,0,0,13.74-.3V-2.119H10.752v1.05q.757-.088,1.318-.181-.249-.361-.278-.4a.133.133,0,0,1-.034-.063q0-.034.093-.073l.21-.093a.314.314,0,0,1,.083-.024q.029,0,.068.054a7.592,7.592,0,0,1,.8,1.309.24.24,0,0,1,.015.059q0,.039-.093.083l-.225.112a.307.307,0,0,1-.107.039q-.034,0-.059-.059-.19-.42-.239-.522-1.45.254-3.467.449a1.26,1.26,0,0,0-.43.093.237.237,0,0,1-.117.059q-.068,0-.112-.132-.059-.21-.127-.557.215,0,.4,0,.342,0,.693-.024.918-.068,1.069-.083v-1.1H7.383V-.352L7.4.6a.069.069,0,0,1-.078.078H6.86A.069.069,0,0,1,6.782.6L6.8-.352v-1.27l-.02-.928a.069.069,0,0,1,.078-.078l1.411.02H10.21V-3.33h-1.1l-1.372.02a.069.069,0,0,1-.078-.078l.02-.84V-5.239l-.02-.84a.069.069,0,0,1,.078-.078l1.372.02h2.881l1.382-.02a.069.069,0,0,1,.078.078l-.02.84v1.011l.02.84a.069.069,0,0,1-.078.078l-1.382-.02h-1.24v.723h2.09l1.411-.02a.069.069,0,0,1,.078.078l-.02.981v.41Zm-1.46-3.56v-.781H10.752v.781Zm-2.661,0v-.781H8.242v.781ZM12.871-4.98V-5.7H10.752v.718Zm-2.661,0V-5.7H8.242v.718Zm4.712-2.051q0,.078-.083.078l-1.309-.02H12.222l.02.459q0,.083-.078.083h-.435q-.088,0-.088-.083,0-.015.01-.156t.01-.3H9.351l.02.459q0,.083-.078.083H8.853a.073.073,0,0,1-.083-.083q0-.015.01-.156t.01-.3H7.6l-1.313.02a.069.069,0,0,1-.078-.078v-.4q0-.068.078-.068L7.6-7.48H8.789A4.375,4.375,0,0,0,8.73-8.3q.3.015.62.054.1.015.1.088a.266.266,0,0,1-.039.132,1.428,1.428,0,0,0-.063.547h2.31a4.305,4.305,0,0,0-.059-.811q.327.02.61.054.107.015.107.088a.266.266,0,0,1-.039.132,1.5,1.5,0,0,0-.059.537H13.53l1.309-.02q.083,0,.083.068Z" transform="translate(12.011 125.309)" fill="#4891f2"/>
              <path id="Path_1623" data-name="Path 1623" d="M3.232,0V-1.714H.127V-2.52L3.394-7.158h.718V-2.52h.967v.806H4.111V0Zm0-2.52V-5.747L.991-2.52Zm11.1,2.31A.733.733,0,0,1,14.1.42a.851.851,0,0,1-.356.137,5.305,5.305,0,0,1-.723.034.255.255,0,0,1-.156-.029A.388.388,0,0,1,12.793.4,1.781,1.781,0,0,0,12.612.01a7.085,7.085,0,0,0,.742.039.435.435,0,0,0,.308-.083A.365.365,0,0,0,13.74-.3V-2.119H10.752v1.05q.757-.088,1.318-.181-.249-.361-.278-.4a.133.133,0,0,1-.034-.063q0-.034.093-.073l.21-.093a.314.314,0,0,1,.083-.024q.029,0,.068.054a7.592,7.592,0,0,1,.8,1.309.24.24,0,0,1,.015.059q0,.039-.093.083l-.225.112a.307.307,0,0,1-.107.039q-.034,0-.059-.059-.19-.42-.239-.522-1.45.254-3.467.449a1.26,1.26,0,0,0-.43.093.237.237,0,0,1-.117.059q-.068,0-.112-.132-.059-.21-.127-.557.215,0,.4,0,.342,0,.693-.024.918-.068,1.069-.083v-1.1H7.383V-.352L7.4.6a.069.069,0,0,1-.078.078H6.86A.069.069,0,0,1,6.782.6L6.8-.352v-1.27l-.02-.928a.069.069,0,0,1,.078-.078l1.411.02H10.21V-3.33h-1.1l-1.372.02a.069.069,0,0,1-.078-.078l.02-.84V-5.239l-.02-.84a.069.069,0,0,1,.078-.078l1.372.02h2.881l1.382-.02a.069.069,0,0,1,.078.078l-.02.84v1.011l.02.84a.069.069,0,0,1-.078.078l-1.382-.02h-1.24v.723h2.09l1.411-.02a.069.069,0,0,1,.078.078l-.02.981v.41Zm-1.46-3.56v-.781H10.752v.781Zm-2.661,0v-.781H8.242v.781ZM12.871-4.98V-5.7H10.752v.718Zm-2.661,0V-5.7H8.242v.718Zm4.712-2.051q0,.078-.083.078l-1.309-.02H12.222l.02.459q0,.083-.078.083h-.435q-.088,0-.088-.083,0-.015.01-.156t.01-.3H9.351l.02.459q0,.083-.078.083H8.853a.073.073,0,0,1-.083-.083q0-.015.01-.156t.01-.3H7.6l-1.313.02a.069.069,0,0,1-.078-.078v-.4q0-.068.078-.068L7.6-7.48H8.789A4.375,4.375,0,0,0,8.73-8.3q.3.015.62.054.1.015.1.088a.266.266,0,0,1-.039.132,1.428,1.428,0,0,0-.063.547h2.31a4.305,4.305,0,0,0-.059-.811q.327.02.61.054.107.015.107.088a.266.266,0,0,1-.039.132,1.5,1.5,0,0,0-.059.537H13.53l1.309-.02q.083,0,.083.068Z" transform="translate(11 86.206)" fill="#4891f2"/>
              <path id="Path_1622" data-name="Path 1622" d="M.415-1.875l.923-.078A1.655,1.655,0,0,0,1.814-.94a1.293,1.293,0,0,0,.9.339,1.4,1.4,0,0,0,1.074-.479,1.8,1.8,0,0,0,.439-1.27,1.63,1.63,0,0,0-.422-1.187A1.473,1.473,0,0,0,2.7-3.97a1.532,1.532,0,0,0-.767.193,1.489,1.489,0,0,0-.537.5L.571-3.384l.693-3.677h3.56v.84H1.968L1.582-4.3a2.329,2.329,0,0,1,1.353-.449A2.143,2.143,0,0,1,4.517-4.1a2.27,2.27,0,0,1,.645,1.67,2.607,2.607,0,0,1-.566,1.68,2.269,2.269,0,0,1-1.88.869A2.316,2.316,0,0,1,1.121-.425,2.134,2.134,0,0,1,.415-1.875ZM14.331-.21A.733.733,0,0,1,14.1.42a.851.851,0,0,1-.356.137,5.305,5.305,0,0,1-.723.034.255.255,0,0,1-.156-.029A.388.388,0,0,1,12.793.4,1.781,1.781,0,0,0,12.612.01a7.085,7.085,0,0,0,.742.039.435.435,0,0,0,.308-.083A.365.365,0,0,0,13.74-.3V-2.119H10.752v1.05q.757-.088,1.318-.181-.249-.361-.278-.4a.133.133,0,0,1-.034-.063q0-.034.093-.073l.21-.093a.314.314,0,0,1,.083-.024q.029,0,.068.054a7.592,7.592,0,0,1,.8,1.309.24.24,0,0,1,.015.059q0,.039-.093.083l-.225.112a.307.307,0,0,1-.107.039q-.034,0-.059-.059-.19-.42-.239-.522-1.45.254-3.467.449a1.26,1.26,0,0,0-.43.093.237.237,0,0,1-.117.059q-.068,0-.112-.132-.059-.21-.127-.557.215,0,.4,0,.342,0,.693-.024.918-.068,1.069-.083v-1.1H7.383V-.352L7.4.6a.069.069,0,0,1-.078.078H6.86A.069.069,0,0,1,6.782.6L6.8-.352v-1.27l-.02-.928a.069.069,0,0,1,.078-.078l1.411.02H10.21V-3.33h-1.1l-1.372.02a.069.069,0,0,1-.078-.078l.02-.84V-5.239l-.02-.84a.069.069,0,0,1,.078-.078l1.372.02h2.881l1.382-.02a.069.069,0,0,1,.078.078l-.02.84v1.011l.02.84a.069.069,0,0,1-.078.078l-1.382-.02h-1.24v.723h2.09l1.411-.02a.069.069,0,0,1,.078.078l-.02.981v.41Zm-1.46-3.56v-.781H10.752v.781Zm-2.661,0v-.781H8.242v.781ZM12.871-4.98V-5.7H10.752v.718Zm-2.661,0V-5.7H8.242v.718Zm4.712-2.051q0,.078-.083.078l-1.309-.02H12.222l.02.459q0,.083-.078.083h-.435q-.088,0-.088-.083,0-.015.01-.156t.01-.3H9.351l.02.459q0,.083-.078.083H8.853a.073.073,0,0,1-.083-.083q0-.015.01-.156t.01-.3H7.6l-1.313.02a.069.069,0,0,1-.078-.078v-.4q0-.068.078-.068L7.6-7.48H8.789A4.375,4.375,0,0,0,8.73-8.3q.3.015.62.054.1.015.1.088a.266.266,0,0,1-.039.132,1.428,1.428,0,0,0-.063.547h2.31a4.305,4.305,0,0,0-.059-.811q.327.02.61.054.107.015.107.088a.266.266,0,0,1-.039.132,1.5,1.5,0,0,0-.059.537H13.53l1.309-.02q.083,0,.083.068Z" transform="translate(11.011 47.103)" fill="#4891f2"/>
              <path id="Path_1621" data-name="Path 1621" d="M4.976-5.405,4.1-5.337a1.655,1.655,0,0,0-.332-.752,1.163,1.163,0,0,0-.879-.376,1.208,1.208,0,0,0-.737.234,2,2,0,0,0-.654.884A4.618,4.618,0,0,0,1.25-3.691a2.037,2.037,0,0,1,.776-.718,2.088,2.088,0,0,1,.962-.234A1.993,1.993,0,0,1,4.485-4,2.322,2.322,0,0,1,5.1-2.324a2.752,2.752,0,0,1-.291,1.252,2.117,2.117,0,0,1-.8.886A2.18,2.18,0,0,1,2.861.122,2.252,2.252,0,0,1,1.069-.686,4.08,4.08,0,0,1,.376-3.35a4.775,4.775,0,0,1,.767-3.018,2.2,2.2,0,0,1,1.8-.82,2.021,2.021,0,0,1,1.384.474A2.011,2.011,0,0,1,4.976-5.405ZM1.387-2.319a2.039,2.039,0,0,0,.193.869,1.437,1.437,0,0,0,.54.632A1.349,1.349,0,0,0,2.847-.6,1.24,1.24,0,0,0,3.8-1.05a1.768,1.768,0,0,0,.4-1.221,1.655,1.655,0,0,0-.4-1.169,1.3,1.3,0,0,0-1-.427A1.356,1.356,0,0,0,1.8-3.44,1.54,1.54,0,0,0,1.387-2.319ZM14.331-.21A.733.733,0,0,1,14.1.42a.851.851,0,0,1-.356.137,5.305,5.305,0,0,1-.723.034.255.255,0,0,1-.156-.029A.388.388,0,0,1,12.793.4,1.781,1.781,0,0,0,12.612.01a7.085,7.085,0,0,0,.742.039.435.435,0,0,0,.308-.083A.365.365,0,0,0,13.74-.3V-2.119H10.752v1.05q.757-.088,1.318-.181-.249-.361-.278-.4a.133.133,0,0,1-.034-.063q0-.034.093-.073l.21-.093a.314.314,0,0,1,.083-.024q.029,0,.068.054a7.592,7.592,0,0,1,.8,1.309.24.24,0,0,1,.015.059q0,.039-.093.083l-.225.112a.307.307,0,0,1-.107.039q-.034,0-.059-.059-.19-.42-.239-.522-1.45.254-3.467.449a1.26,1.26,0,0,0-.43.093.237.237,0,0,1-.117.059q-.068,0-.112-.132-.059-.21-.127-.557.215,0,.4,0,.342,0,.693-.024.918-.068,1.069-.083v-1.1H7.383V-.352L7.4.6a.069.069,0,0,1-.078.078H6.86A.069.069,0,0,1,6.782.6L6.8-.352v-1.27l-.02-.928a.069.069,0,0,1,.078-.078l1.411.02H10.21V-3.33h-1.1l-1.372.02a.069.069,0,0,1-.078-.078l.02-.84V-5.239l-.02-.84a.069.069,0,0,1,.078-.078l1.372.02h2.881l1.382-.02a.069.069,0,0,1,.078.078l-.02.84v1.011l.02.84a.069.069,0,0,1-.078.078l-1.382-.02h-1.24v.723h2.09l1.411-.02a.069.069,0,0,1,.078.078l-.02.981v.41Zm-1.46-3.56v-.781H10.752v.781Zm-2.661,0v-.781H8.242v.781ZM12.871-4.98V-5.7H10.752v.718Zm-2.661,0V-5.7H8.242v.718Zm4.712-2.051q0,.078-.083.078l-1.309-.02H12.222l.02.459q0,.083-.078.083h-.435q-.088,0-.088-.083,0-.015.01-.156t.01-.3H9.351l.02.459q0,.083-.078.083H8.853a.073.073,0,0,1-.083-.083q0-.015.01-.156t.01-.3H7.6l-1.313.02a.069.069,0,0,1-.078-.078v-.4q0-.068.078-.068L7.6-7.48H8.789A4.375,4.375,0,0,0,8.73-8.3q.3.015.62.054.1.015.1.088a.266.266,0,0,1-.039.132,1.428,1.428,0,0,0-.063.547h2.31a4.305,4.305,0,0,0-.059-.811q.327.02.61.054.107.015.107.088a.266.266,0,0,1-.039.132,1.5,1.5,0,0,0-.059.537H13.53l1.309-.02q.083,0,.083.068Z" transform="translate(12.022 8)" fill="#4891f2"/>
              <path id="Path_1620" data-name="Path 1620" d="M9.482-1.372A2.076,2.076,0,0,1,9,.068a1.235,1.235,0,0,1-.61.259A5.315,5.315,0,0,1,7.52.381,3.435,3.435,0,0,1,6.221.22.688.688,0,0,1,5.864-.1a1.645,1.645,0,0,1-.093-.64V-4.37H4.111A6.034,6.034,0,0,1,3.384-1.1,4.878,4.878,0,0,1,1.23.459.678.678,0,0,1,1.06.508Q1.011.508.913.371A1.786,1.786,0,0,0,.581-.01,5.519,5.519,0,0,0,2.3-.879,2.766,2.766,0,0,0,3.2-2.217,7.392,7.392,0,0,0,3.472-4.37H2.08l-1.318.02q-.083,0-.083-.078v-.464q0-.078.083-.078l1.318.02H7.92l1.318-.02q.083,0,.083.078v.464q0,.078-.083.078L7.92-4.37h-1.5V-.928a1.725,1.725,0,0,0,.044.493.285.285,0,0,0,.186.156A3.337,3.337,0,0,0,7.539-.2,3.186,3.186,0,0,0,8.2-.249.826.826,0,0,0,8.569-.43a2.505,2.505,0,0,0,.313-1.421,2.471,2.471,0,0,0,.449.239q.161.068.161.142A.929.929,0,0,1,9.482-1.372ZM8.35-6.938a.069.069,0,0,1-.078.078L6.851-6.88H3.208l-1.416.02q-.083,0-.083-.078v-.474q0-.078.083-.078l1.416.02H6.851l1.421-.02a.069.069,0,0,1,.078.078Z" transform="translate(17.022 -8)" fill="#4891f2"/>
              <path id="Path_1619" data-name="Path 1619" d="M9.517-.469a1.367,1.367,0,0,0-.347.386q-.093.151-.132.151A.413.413,0,0,1,8.9-.01,8.125,8.125,0,0,1,6.533-2.441,10.183,10.183,0,0,1,5.4-5.308H5.229q-.493.386-.85.62A4.887,4.887,0,0,1,5.815-1.172,2.384,2.384,0,0,1,5.493.3,1.285,1.285,0,0,1,4.468.649,5.645,5.645,0,0,1,3.887.62Q3.745.61,3.721.581A.4.4,0,0,1,3.667.43,1.286,1.286,0,0,0,3.486,0a7.5,7.5,0,0,0,1.03.068.582.582,0,0,0,.527-.239,1.983,1.983,0,0,0,.19-1.021,4.177,4.177,0,0,0-.068-.776A12.718,12.718,0,0,1,1.118.19.553.553,0,0,1,.967.239Q.908.239.825.088A1.437,1.437,0,0,0,.518-.249a13.328,13.328,0,0,0,2.622-1,9.654,9.654,0,0,0,1.9-1.294,4.981,4.981,0,0,0-.322-.781,11.421,11.421,0,0,1-1.626.947,15.385,15.385,0,0,1-1.665.654.8.8,0,0,1-.156.049q-.059,0-.142-.142A.972.972,0,0,0,.84-2.129a12.98,12.98,0,0,0,2.095-.728A10.422,10.422,0,0,0,4.468-3.74a6,6,0,0,0-.552-.679,11.945,11.945,0,0,1-2.2.918.6.6,0,0,1-.146.039q-.059,0-.137-.127a1.256,1.256,0,0,0-.3-.332A9.932,9.932,0,0,0,4.429-5.308H3.535l-1.377.02q-.083,0-.083-.093v-.371q0-.088.083-.088l1.377.02h2.9l1.382-.02q.078,0,.078.088v.371q0,.093-.078.093l-1.382-.02H5.967a8.6,8.6,0,0,0,.679,1.948A7.83,7.83,0,0,0,7.759-4.448,2.756,2.756,0,0,0,8.066-4.9a4.684,4.684,0,0,1,.493.356.186.186,0,0,1,.078.132q0,.063-.112.132a2.59,2.59,0,0,0-.459.4,11.1,11.1,0,0,1-1.147,1A7.188,7.188,0,0,0,9.517-.469ZM9.058-5.42q0,.073-.078.073H8.516q-.078,0-.078-.073v-1.4h-6.9v1.4q0,.073-.078.073H1q-.078,0-.078-.073l.02-1.035v-.312L.918-7.29A.069.069,0,0,1,1-7.368l1.382.02H4.619v-.122a3.768,3.768,0,0,0-.073-.869q.4.02.664.049.117.02.117.083a1.006,1.006,0,0,1-.059.19,1.749,1.749,0,0,0-.049.537v.132H7.6l1.382-.02a.069.069,0,0,1,.078.078l-.02.454v.381Z" transform="translate(270.022 -8)" fill="#fff"/>
            </g>
            <line id="Line_237" data-name="Line 237" y1="234.612" transform="translate(31.372 4.268)" fill="none" stroke="#4891f2" stroke-miterlimit="10" stroke-width="1"/>
          </g>
          <g id="Group_1732" data-name="Group 1732" transform="translate(33.506 15.85)">
            <g id="Group_1731" data-name="Group 1731">
              <g id="Group_1730" data-name="Group 1730">
                <rect id="Rectangle_2199" data-name="Rectangle 2199" width="11.277" height="140.508" transform="translate(125.116 82.522)" fill="#4891f2"/>
                <rect id="Rectangle_2200" data-name="Rectangle 2200" width="11.277" height="223.03" transform="translate(187.75)" fill="#4891f2"/>
              </g>
            </g>
          </g>
        </g>
        <g id="Group_1747" data-name="Group 1747" transform="translate(64.3 112.399)">
          <g id="Group_1740" data-name="Group 1740" transform="translate(228.745)">
            <g id="Group_1737" data-name="Group 1737" transform="translate(9.504)">
              <path id="Path_1632" data-name="Path 1632" d="M1.768-3.882a1.654,1.654,0,0,1-.811-.571,1.494,1.494,0,0,1-.264-.889,1.738,1.738,0,0,1,.562-1.313,2.083,2.083,0,0,1,1.494-.532,2.1,2.1,0,0,1,1.509.544,1.762,1.762,0,0,1,.571,1.326,1.46,1.46,0,0,1-.261.867,1.647,1.647,0,0,1-.793.569,1.924,1.924,0,0,1,1,.693,1.9,1.9,0,0,1,.344,1.143A2.056,2.056,0,0,1,4.473-.5,2.361,2.361,0,0,1,2.764.122,2.356,2.356,0,0,1,1.055-.505,2.087,2.087,0,0,1,.405-2.07,1.892,1.892,0,0,1,.759-3.24,1.773,1.773,0,0,1,1.768-3.882ZM1.592-5.371a1.115,1.115,0,0,0,.327.83,1.159,1.159,0,0,0,.85.322,1.136,1.136,0,0,0,.833-.32,1.058,1.058,0,0,0,.325-.784,1.1,1.1,0,0,0-.334-.813,1.139,1.139,0,0,0-.833-.33,1.15,1.15,0,0,0-.835.322A1.037,1.037,0,0,0,1.592-5.371ZM1.309-2.065a1.59,1.59,0,0,0,.178.728,1.258,1.258,0,0,0,.53.544A1.549,1.549,0,0,0,2.773-.6a1.418,1.418,0,0,0,1.04-.405,1.387,1.387,0,0,0,.41-1.03A1.41,1.41,0,0,0,3.8-3.086,1.447,1.447,0,0,0,2.744-3.5a1.389,1.389,0,0,0-1.028.41A1.4,1.4,0,0,0,1.309-2.065ZM5.977-3.53a6.55,6.55,0,0,1,.261-2.043,2.542,2.542,0,0,1,.776-1.194,1.985,1.985,0,0,1,1.3-.42,2.115,2.115,0,0,1,1.011.232,1.932,1.932,0,0,1,.718.669,3.589,3.589,0,0,1,.444,1.064,7.072,7.072,0,0,1,.161,1.692A6.569,6.569,0,0,1,10.386-1.5,2.542,2.542,0,0,1,9.612-.3a1.985,1.985,0,0,1-1.3.422A1.964,1.964,0,0,1,6.685-.62,4.717,4.717,0,0,1,5.977-3.53Zm.9,0a4.488,4.488,0,0,0,.413,2.346A1.216,1.216,0,0,0,8.311-.6a1.215,1.215,0,0,0,1.018-.586A4.49,4.49,0,0,0,9.741-3.53a4.487,4.487,0,0,0-.413-2.349A1.225,1.225,0,0,0,8.3-6.46a1.126,1.126,0,0,0-.967.513A4.54,4.54,0,0,0,6.88-3.53Zm4.658,0A6.55,6.55,0,0,1,11.8-5.574a2.542,2.542,0,0,1,.776-1.194,1.985,1.985,0,0,1,1.3-.42,2.115,2.115,0,0,1,1.011.232,1.932,1.932,0,0,1,.718.669,3.589,3.589,0,0,1,.444,1.064,7.072,7.072,0,0,1,.161,1.692A6.569,6.569,0,0,1,15.947-1.5a2.542,2.542,0,0,1-.774,1.2,1.985,1.985,0,0,1-1.3.422A1.964,1.964,0,0,1,12.246-.62,4.717,4.717,0,0,1,11.538-3.53Zm.9,0a4.488,4.488,0,0,0,.413,2.346A1.216,1.216,0,0,0,13.872-.6a1.215,1.215,0,0,0,1.018-.586A4.49,4.49,0,0,0,15.3-3.53a4.487,4.487,0,0,0-.413-2.349,1.225,1.225,0,0,0-1.028-.581,1.126,1.126,0,0,0-.967.513A4.54,4.54,0,0,0,12.441-3.53Zm4.658,0a6.55,6.55,0,0,1,.261-2.043,2.542,2.542,0,0,1,.776-1.194,1.985,1.985,0,0,1,1.3-.42,2.115,2.115,0,0,1,1.011.232,1.932,1.932,0,0,1,.718.669,3.589,3.589,0,0,1,.444,1.064,7.072,7.072,0,0,1,.161,1.692A6.569,6.569,0,0,1,21.509-1.5a2.542,2.542,0,0,1-.774,1.2,1.985,1.985,0,0,1-1.3.422A1.964,1.964,0,0,1,17.808-.62,4.717,4.717,0,0,1,17.1-3.53Zm.9,0a4.488,4.488,0,0,0,.413,2.346A1.216,1.216,0,0,0,19.434-.6a1.215,1.215,0,0,0,1.018-.586,4.49,4.49,0,0,0,.413-2.344,4.487,4.487,0,0,0-.413-2.349,1.225,1.225,0,0,0-1.028-.581,1.126,1.126,0,0,0-.967.513A4.54,4.54,0,0,0,18-3.53Z" transform="translate(0 242.619)" fill="#fff"/>
              <path id="Path_1631" data-name="Path 1631" d="M3.726,0H2.847V-5.6A4.543,4.543,0,0,1,2.014-5a5.9,5.9,0,0,1-.925.454v-.85a5.308,5.308,0,0,0,1.289-.84,3.3,3.3,0,0,0,.781-.957h.566ZM5.977-3.53a6.55,6.55,0,0,1,.261-2.043,2.542,2.542,0,0,1,.776-1.194,1.985,1.985,0,0,1,1.3-.42,2.115,2.115,0,0,1,1.011.232,1.932,1.932,0,0,1,.718.669,3.589,3.589,0,0,1,.444,1.064,7.072,7.072,0,0,1,.161,1.692A6.569,6.569,0,0,1,10.386-1.5,2.542,2.542,0,0,1,9.612-.3a1.985,1.985,0,0,1-1.3.422A1.964,1.964,0,0,1,6.685-.62,4.717,4.717,0,0,1,5.977-3.53Zm.9,0a4.488,4.488,0,0,0,.413,2.346A1.216,1.216,0,0,0,8.311-.6a1.215,1.215,0,0,0,1.018-.586A4.49,4.49,0,0,0,9.741-3.53a4.487,4.487,0,0,0-.413-2.349A1.225,1.225,0,0,0,8.3-6.46a1.126,1.126,0,0,0-.967.513A4.54,4.54,0,0,0,6.88-3.53Zm4.658,0A6.55,6.55,0,0,1,11.8-5.574a2.542,2.542,0,0,1,.776-1.194,1.985,1.985,0,0,1,1.3-.42,2.115,2.115,0,0,1,1.011.232,1.932,1.932,0,0,1,.718.669,3.589,3.589,0,0,1,.444,1.064,7.072,7.072,0,0,1,.161,1.692A6.569,6.569,0,0,1,15.947-1.5a2.542,2.542,0,0,1-.774,1.2,1.985,1.985,0,0,1-1.3.422A1.964,1.964,0,0,1,12.246-.62,4.717,4.717,0,0,1,11.538-3.53Zm.9,0a4.488,4.488,0,0,0,.413,2.346A1.216,1.216,0,0,0,13.872-.6a1.215,1.215,0,0,0,1.018-.586A4.49,4.49,0,0,0,15.3-3.53a4.487,4.487,0,0,0-.413-2.349,1.225,1.225,0,0,0-1.028-.581,1.126,1.126,0,0,0-.967.513A4.54,4.54,0,0,0,12.441-3.53Zm4.658,0a6.55,6.55,0,0,1,.261-2.043,2.542,2.542,0,0,1,.776-1.194,1.985,1.985,0,0,1,1.3-.42,2.115,2.115,0,0,1,1.011.232,1.932,1.932,0,0,1,.718.669,3.589,3.589,0,0,1,.444,1.064,7.072,7.072,0,0,1,.161,1.692A6.569,6.569,0,0,1,21.509-1.5a2.542,2.542,0,0,1-.774,1.2,1.985,1.985,0,0,1-1.3.422A1.964,1.964,0,0,1,17.808-.62,4.717,4.717,0,0,1,17.1-3.53Zm.9,0a4.488,4.488,0,0,0,.413,2.346A1.216,1.216,0,0,0,19.434-.6a1.215,1.215,0,0,0,1.018-.586,4.49,4.49,0,0,0,.413-2.344,4.487,4.487,0,0,0-.413-2.349,1.225,1.225,0,0,0-1.028-.581,1.126,1.126,0,0,0-.967.513A4.54,4.54,0,0,0,18-3.53Zm4.658,0a6.55,6.55,0,0,1,.261-2.043A2.542,2.542,0,0,1,23.7-6.768a1.985,1.985,0,0,1,1.3-.42,2.115,2.115,0,0,1,1.011.232,1.932,1.932,0,0,1,.718.669,3.589,3.589,0,0,1,.444,1.064,7.072,7.072,0,0,1,.161,1.692A6.569,6.569,0,0,1,27.07-1.5,2.542,2.542,0,0,1,26.3-.3,1.985,1.985,0,0,1,25,.122,1.964,1.964,0,0,1,23.369-.62,4.717,4.717,0,0,1,22.661-3.53Zm.9,0a4.488,4.488,0,0,0,.413,2.346A1.216,1.216,0,0,0,25-.6a1.215,1.215,0,0,0,1.018-.586,4.49,4.49,0,0,0,.413-2.344,4.487,4.487,0,0,0-.413-2.349,1.225,1.225,0,0,0-1.028-.581,1.126,1.126,0,0,0-.967.513A4.54,4.54,0,0,0,23.564-3.53Z" transform="translate(0 125.309)" fill="#fff"/>
              <path id="Path_1630" data-name="Path 1630" d="M3.726,0H2.847V-5.6A4.543,4.543,0,0,1,2.014-5a5.9,5.9,0,0,1-.925.454v-.85a5.308,5.308,0,0,0,1.289-.84,3.3,3.3,0,0,0,.781-.957h.566ZM10.6-.845V0H5.864a1.555,1.555,0,0,1,.1-.61,3.229,3.229,0,0,1,.579-.952A9.065,9.065,0,0,1,7.7-2.646,9.748,9.748,0,0,0,9.272-4.163a1.815,1.815,0,0,0,.41-1.057A1.175,1.175,0,0,0,9.309-6.1a1.347,1.347,0,0,0-.974-.359,1.373,1.373,0,0,0-1.016.381,1.441,1.441,0,0,0-.386,1.055l-.9-.093a2.224,2.224,0,0,1,.7-1.541,2.382,2.382,0,0,1,1.626-.53,2.269,2.269,0,0,1,1.631.571,1.876,1.876,0,0,1,.6,1.416,2.148,2.148,0,0,1-.176.845,3.278,3.278,0,0,1-.583.874,14.215,14.215,0,0,1-1.355,1.26q-.791.664-1.016.9a2.89,2.89,0,0,0-.371.476Zm.942-2.686A6.55,6.55,0,0,1,11.8-5.574a2.542,2.542,0,0,1,.776-1.194,1.985,1.985,0,0,1,1.3-.42,2.115,2.115,0,0,1,1.011.232,1.932,1.932,0,0,1,.718.669,3.589,3.589,0,0,1,.444,1.064,7.072,7.072,0,0,1,.161,1.692A6.569,6.569,0,0,1,15.947-1.5a2.542,2.542,0,0,1-.774,1.2,1.985,1.985,0,0,1-1.3.422A1.964,1.964,0,0,1,12.246-.62,4.717,4.717,0,0,1,11.538-3.53Zm.9,0a4.488,4.488,0,0,0,.413,2.346A1.216,1.216,0,0,0,13.872-.6a1.215,1.215,0,0,0,1.018-.586A4.49,4.49,0,0,0,15.3-3.53a4.487,4.487,0,0,0-.413-2.349,1.225,1.225,0,0,0-1.028-.581,1.126,1.126,0,0,0-.967.513A4.54,4.54,0,0,0,12.441-3.53Zm4.658,0a6.55,6.55,0,0,1,.261-2.043,2.542,2.542,0,0,1,.776-1.194,1.985,1.985,0,0,1,1.3-.42,2.115,2.115,0,0,1,1.011.232,1.932,1.932,0,0,1,.718.669,3.589,3.589,0,0,1,.444,1.064,7.072,7.072,0,0,1,.161,1.692A6.569,6.569,0,0,1,21.509-1.5a2.542,2.542,0,0,1-.774,1.2,1.985,1.985,0,0,1-1.3.422A1.964,1.964,0,0,1,17.808-.62,4.717,4.717,0,0,1,17.1-3.53Zm.9,0a4.488,4.488,0,0,0,.413,2.346A1.216,1.216,0,0,0,19.434-.6a1.215,1.215,0,0,0,1.018-.586,4.49,4.49,0,0,0,.413-2.344,4.487,4.487,0,0,0-.413-2.349,1.225,1.225,0,0,0-1.028-.581,1.126,1.126,0,0,0-.967.513A4.54,4.54,0,0,0,18-3.53Zm4.658,0a6.55,6.55,0,0,1,.261-2.043A2.542,2.542,0,0,1,23.7-6.768a1.985,1.985,0,0,1,1.3-.42,2.115,2.115,0,0,1,1.011.232,1.932,1.932,0,0,1,.718.669,3.589,3.589,0,0,1,.444,1.064,7.072,7.072,0,0,1,.161,1.692A6.569,6.569,0,0,1,27.07-1.5,2.542,2.542,0,0,1,26.3-.3,1.985,1.985,0,0,1,25,.122,1.964,1.964,0,0,1,23.369-.62,4.717,4.717,0,0,1,22.661-3.53Zm.9,0a4.488,4.488,0,0,0,.413,2.346A1.216,1.216,0,0,0,25-.6a1.215,1.215,0,0,0,1.018-.586,4.49,4.49,0,0,0,.413-2.344,4.487,4.487,0,0,0-.413-2.349,1.225,1.225,0,0,0-1.028-.581,1.126,1.126,0,0,0-.967.513A4.54,4.54,0,0,0,23.564-3.53Z" transform="translate(0 8)" fill="#fff"/>
            </g>
            <line id="Line_262" data-name="Line 262" y1="234.612" transform="translate(5.867 4.268)" fill="none" stroke="#fff" stroke-miterlimit="10" stroke-width="1"/>
          </g>
          <g id="Group_1743" data-name="Group 1743" transform="translate(7.772 46.938)">
            <g id="Group_1742" data-name="Group 1742">
              <g id="Group_1741" data-name="Group 1741">
                <line id="Line_266" data-name="Line 266" x1="15.62" y2="47.014" transform="translate(0 118.487)" fill="none" stroke="#fff" stroke-linecap="round" stroke-miterlimit="10" stroke-width="2"/>
                <line id="Line_267" data-name="Line 267" x1="15.697" y2="35.051" transform="translate(15.62 83.436)" fill="none" stroke="#fff" stroke-linecap="round" stroke-miterlimit="10" stroke-width="2"/>
                <line id="Line_268" data-name="Line 268" x1="15.62" y2="26.745" transform="translate(31.317 56.691)" fill="none" stroke="#fff" stroke-linecap="round" stroke-miterlimit="10" stroke-width="2"/>
                <line id="Line_269" data-name="Line 269" x1="15.62" y2="28.422" transform="translate(46.938 28.269)" fill="none" stroke="#fff" stroke-linecap="round" stroke-miterlimit="10" stroke-width="2"/>
                <line id="Line_270" data-name="Line 270" x1="15.697" y2="10.744" transform="translate(62.558 17.525)" fill="none" stroke="#fff" stroke-linecap="round" stroke-miterlimit="10" stroke-width="2"/>
                <line id="Line_271" data-name="Line 271" x1="15.62" y2="13.868" transform="translate(78.255 3.657)" fill="none" stroke="#fff" stroke-linecap="round" stroke-miterlimit="10" stroke-width="2"/>
                <line id="Line_272" data-name="Line 272" x1="15.62" y2="2.972" transform="translate(93.875 0.686)" fill="none" stroke="#fff" stroke-linecap="round" stroke-miterlimit="10" stroke-width="2"/>
                <line id="Line_273" data-name="Line 273" x1="15.62" y2="0.686" transform="translate(109.496)" fill="none" stroke="#fff" stroke-linecap="round" stroke-miterlimit="10" stroke-width="2"/>
                <line id="Line_274" data-name="Line 274" x1="15.697" y1="1.372" transform="translate(125.116)" fill="none" stroke="#fff" stroke-linecap="round" stroke-miterlimit="10" stroke-width="2"/>
                <line id="Line_275" data-name="Line 275" x1="15.62" y1="1.219" transform="translate(140.813 1.372)" fill="none" stroke="#fff" stroke-linecap="round" stroke-miterlimit="10" stroke-width="2"/>
                <line id="Line_276" data-name="Line 276" x1="15.62" y1="3.962" transform="translate(156.433 2.591)" fill="none" stroke="#fff" stroke-linecap="round" stroke-miterlimit="10" stroke-width="2"/>
                <line id="Line_277" data-name="Line 277" x1="15.62" y1="6.401" transform="translate(172.054 6.553)" fill="none" stroke="#fff" stroke-linecap="round" stroke-miterlimit="10" stroke-width="2"/>
                <line id="Line_278" data-name="Line 278" x1="15.697" y2="5.639" transform="translate(187.674 7.315)" fill="none" stroke="#fff" stroke-linecap="round" stroke-miterlimit="10" stroke-width="2"/>
                <line id="Line_279" data-name="Line 279" x1="15.62" y2="2.819" transform="translate(203.371 4.496)" fill="none" stroke="#fff" stroke-linecap="round" stroke-miterlimit="10" stroke-width="2"/>
              </g>
            </g>
          </g>
          <g id="Group_1746" data-name="Group 1746" transform="translate(5.486 44.652)">
            <g id="Group_1745" data-name="Group 1745">
              <g id="Group_1744" data-name="Group 1744">
                <rect id="Rectangle_2201" data-name="Rectangle 2201" width="4.572" height="4.572" rx="2.286" transform="translate(0 165.501)" fill="#fff" stroke="#fff" stroke-miterlimit="10" stroke-width="0.5"/>
                <rect id="Rectangle_2202" data-name="Rectangle 2202" width="4.572" height="4.572" rx="2.286" transform="translate(15.62 118.487)" fill="#fff" stroke="#fff" stroke-miterlimit="10" stroke-width="0.5"/>
                <rect id="Rectangle_2203" data-name="Rectangle 2203" width="4.572" height="4.572" rx="2.286" transform="translate(31.317 83.436)" fill="#fff" stroke="#fff" stroke-miterlimit="10" stroke-width="0.5"/>
                <rect id="Rectangle_2204" data-name="Rectangle 2204" width="4.572" height="4.572" rx="2.286" transform="translate(46.938 56.691)" fill="#fff" stroke="#fff" stroke-miterlimit="10" stroke-width="0.5"/>
                <rect id="Rectangle_2205" data-name="Rectangle 2205" width="4.572" height="4.572" rx="2.286" transform="translate(62.558 28.269)" fill="#fff" stroke="#fff" stroke-miterlimit="10" stroke-width="0.5"/>
                <rect id="Rectangle_2206" data-name="Rectangle 2206" width="4.572" height="4.572" rx="2.286" transform="translate(78.255 17.525)" fill="#fff" stroke="#fff" stroke-miterlimit="10" stroke-width="0.5"/>
                <rect id="Rectangle_2207" data-name="Rectangle 2207" width="4.572" height="4.572" rx="2.286" transform="translate(93.875 3.657)" fill="#fff" stroke="#fff" stroke-miterlimit="10" stroke-width="0.5"/>
                <rect id="Rectangle_2208" data-name="Rectangle 2208" width="4.572" height="4.572" rx="2.286" transform="translate(109.496 0.686)" fill="#fff" stroke="#fff" stroke-miterlimit="10" stroke-width="0.5"/>
                <rect id="Rectangle_2209" data-name="Rectangle 2209" width="4.572" height="4.572" rx="2.286" transform="translate(125.116)" fill="#fff" stroke="#fff" stroke-miterlimit="10" stroke-width="0.5"/>
                <rect id="Rectangle_2210" data-name="Rectangle 2210" width="4.572" height="4.572" rx="2.286" transform="translate(140.813 1.372)" fill="#fff" stroke="#fff" stroke-miterlimit="10" stroke-width="0.5"/>
                <rect id="Rectangle_2211" data-name="Rectangle 2211" width="4.572" height="4.572" rx="2.286" transform="translate(156.433 2.591)" fill="#fff" stroke="#fff" stroke-miterlimit="10" stroke-width="0.5"/>
                <rect id="Rectangle_2212" data-name="Rectangle 2212" width="4.572" height="4.572" rx="2.286" transform="translate(172.054 6.553)" fill="#fff" stroke="#fff" stroke-miterlimit="10" stroke-width="0.5"/>
                <rect id="Rectangle_2213" data-name="Rectangle 2213" width="4.572" height="4.572" rx="2.286" transform="translate(187.674 12.954)" fill="#fff" stroke="#fff" stroke-miterlimit="10" stroke-width="0.5"/>
                <rect id="Rectangle_2214" data-name="Rectangle 2214" width="4.572" height="4.572" rx="2.286" transform="translate(203.371 7.315)" fill="#fff" stroke="#fff" stroke-miterlimit="10" stroke-width="0.5"/>
                <rect id="Rectangle_2215" data-name="Rectangle 2215" width="4.572" height="4.572" rx="2.286" transform="translate(218.991 4.496)" fill="#fff" stroke="#fff" stroke-miterlimit="10" stroke-width="0.5"/>
              </g>
            </g>
          </g>
        </g>
      </g>
      <path id="Path_1628" data-name="Path 1628" d="M1.056,0H5.88V-.912H4.116v-7.9h-.84a5.3,5.3,0,0,1-1.824.636v.7h1.56V-.912H1.056ZM10,.156c1.668,0,2.736-1.524,2.736-4.584S11.664-8.964,10-8.964,7.248-7.488,7.248-4.428,8.316.156,10,.156ZM10-.72c-1.008,0-1.68-1.116-1.68-3.708,0-2.568.672-3.66,1.68-3.66S11.664-7,11.664-4.428C11.664-1.836,10.992-.72,10-.72Zm6.492.876a2.561,2.561,0,0,0,2.82-2.508,2.263,2.263,0,0,0-1.86-2.232v-.048a2.2,2.2,0,0,0,1.56-2.124,2.26,2.26,0,0,0-2.556-2.208,3.522,3.522,0,0,0-2.46,1.056l.588.7A2.568,2.568,0,0,1,16.4-8.064a1.35,1.35,0,0,1,1.488,1.392c0,.948-.624,1.68-2.436,1.68v.84c2.028,0,2.736.708,2.736,1.752A1.622,1.622,0,0,1,16.4-.756,2.908,2.908,0,0,1,14.22-1.764l-.552.72A3.641,3.641,0,0,0,16.488.156Z" transform="translate(399.569 578.001)" fill="#d48773"/>
      <path id="Path_1629" data-name="Path 1629" d="M1.056,0H5.88V-.912H4.116v-7.9h-.84a5.3,5.3,0,0,1-1.824.636v.7h1.56V-.912H1.056ZM10,.156c1.668,0,2.736-1.524,2.736-4.584S11.664-8.964,10-8.964,7.248-7.488,7.248-4.428,8.316.156,10,.156ZM10-.72c-1.008,0-1.68-1.116-1.68-3.708,0-2.568.672-3.66,1.68-3.66S11.664-7,11.664-4.428C11.664-1.836,10.992-.72,10-.72ZM15.7,0h1.14c.132-3.444.516-5.5,2.58-8.136v-.672H13.908v.948h4.26A13.027,13.027,0,0,0,15.7,0ZM27.384-6.3a5.4,5.4,0,0,0-.864-.66,6.824,6.824,0,0,0,.7-.768l-.624-.2a4.285,4.285,0,0,1-.6.636c-.312-.168-.624-.348-.924-.48l-.444.4a8.821,8.821,0,0,1,.864.468,7.214,7.214,0,0,1-1.14.66,3.1,3.1,0,0,1,.492.468,8.492,8.492,0,0,0,1.2-.78,6.543,6.543,0,0,1,.864.7Zm-.036-2.148c-.216-.168-.5-.36-.828-.564a6.163,6.163,0,0,0,.66-.732l-.624-.168a5.111,5.111,0,0,1-.564.588c-.312-.168-.612-.324-.9-.444l-.432.4a8,8,0,0,1,.84.432,7.233,7.233,0,0,1-1.068.612,3.759,3.759,0,0,1,.5.432,8.337,8.337,0,0,0,1.116-.72A5.939,5.939,0,0,1,26.88-8Zm-5.58,3.36H30.2V-3.6h.876V-5.772h-.936c.1-1.068.2-2.616.264-3.8H27.636v.612h1.908l-.036.648H27.7V-7.7h1.776l-.06.648H27.624v.612h1.74c-.024.24-.048.456-.072.672H22.716l-.048-.672h1.668v-.612h-1.7L22.584-7.7h1.7v-.612h-1.74L22.5-8.9a12.581,12.581,0,0,0,1.848-.468l-.4-.552a22.46,22.46,0,0,1-2.316.588l.24,3.564h-.96V-3.6h.852ZM31.32-2.172h-4.8v-.216a12.5,12.5,0,0,0,2.712-1.488l-.54-.444-.18.048h-5.64V-3.6h4.692a11.138,11.138,0,0,1-1.908.912v.516h-5v.756h5V-.06c0,.168-.048.2-.252.216-.18,0-.852,0-1.6-.024a3.36,3.36,0,0,1,.312.756,7.18,7.18,0,0,0,1.932-.12c.372-.132.468-.336.468-.8v-1.38h4.8Zm4.128-.516V-5.064h2.688v2.376Zm7.932,0H39.036V-5.064h3.516V-5.9H39.036V-7.728h3.792v-.864H35.676c.192-.408.384-.84.552-1.26l-.9-.216a10.155,10.155,0,0,1-2.7,4.14,5.523,5.523,0,0,1,.768.564A11.087,11.087,0,0,0,35.22-7.728h2.916V-5.9H34.56v3.216H32.592v.864h5.544V.924h.9V-1.824H43.38Z" transform="translate(463.569 578.001)" fill="#d48773"/>
    </g>
    <g id="Group_1920" data-name="Group 1920" transform="translate(-7094 -8164)">
      <rect id="Rectangle_2063" data-name="Rectangle 2063" width="311" height="31" rx="15.5" transform="translate(659 1062)" fill="#3d3c3c"/>
      <path id="內文p" d="M3.906,6.116A9.818,9.818,0,0,0,2.674,4.38l-.826.392a10.781,10.781,0,0,1,1.19,1.806Zm.8,3.318a10.458,10.458,0,0,1-.882,1.344c-.154-.2-.308-.392-.434-.532v-.028a16.932,16.932,0,0,0,1.47-3.15l-.546-.336-.182.042H.854V7.7H3.682A14.883,14.883,0,0,1,.406,12.584a3.622,3.622,0,0,1,.546.84A14.416,14.416,0,0,0,2.408,11.7v5.306h.98v-5.6c.42.63.924,1.33,1.12,1.708l.63-.686c-.14-.182-.518-.658-.882-1.12.35-.406.756-.924,1.134-1.414Zm7.14.056v1.456H9.6V9.49ZM9.6,13.284v-1.5h2.24v1.5Zm-3.094,0v-1.5H8.6v1.5ZM8.6,9.49v1.456H6.51V9.49Zm4.76-2.3V6.242H12.5l.546-.518a8.9,8.9,0,0,0-2.128-1.4l-.574.56a9.152,9.152,0,0,1,1.988,1.358H9.6V4.3H8.6V6.242H5.11v.952H8.6v1.4H5.544v8.484H6.51V14.124H8.6V16.98H9.6V14.124h2.24V15.9c0,.168-.042.21-.21.21s-.63.014-1.19,0a2.994,2.994,0,0,1,.308.924,4.128,4.128,0,0,0,1.638-.168c.336-.168.434-.434.434-.938V8.594H9.6v-1.4ZM21.308,9.91c1.064-.392,2.422-.9,3.71-1.386l-.154-.77c-1.456.518-2.926,1.036-3.934,1.358Zm2.744-2.66a7.721,7.721,0,0,0-1.876-1.274l-.546.63a6.682,6.682,0,0,1,1.848,1.33ZM19.4,9.588c0,.154-.042.21-.21.21s-.728.014-1.344,0a3.858,3.858,0,0,1,.266.77,5.979,5.979,0,0,0,1.806-.126c.336-.14.448-.378.448-.84V5H15.064V5.85H19.4Zm-3.752-3a7.189,7.189,0,0,1,1.82,1.372l.56-.672A7.728,7.728,0,0,0,16.2,5.976ZM18.48,8.02c-1.386.546-2.8,1.064-3.752,1.358l.406.854c1.008-.392,2.268-.91,3.5-1.442Zm5.964,5.474h-6.79V12.136h6.79Zm-6.79,2.24V14.32h6.79v1.414Zm2.8-5.726a12.043,12.043,0,0,1-.546,1.316H16.632v5.782h1.022V16.56h6.79v.546h1.05V11.324H20.93c.2-.336.406-.728.6-1.106ZM26.6,5H21.252V5.85H25.62V9.6c0,.168-.056.21-.224.224-.2,0-.8,0-1.456-.028a3.072,3.072,0,0,1,.294.826,6.393,6.393,0,0,0,1.89-.14c.364-.154.476-.392.476-.882ZM32.928,15.02a16.9,16.9,0,0,1-4.13,1.274,5.553,5.553,0,0,1,.742.784,20.087,20.087,0,0,0,4.326-1.638Zm-1.344-1.568h7v.882h-7Zm4.494-4.69v.966h.98V8.762h2.954a.908.908,0,0,1-.168.5c-.07.084-.168.1-.322.1s-.532-.014-.966-.056a1.561,1.561,0,0,1,.168.448H32.48a2.922,2.922,0,0,0,.994-.994ZM32.942,7.236a2.472,2.472,0,0,1-.21.84H30.884q.063-.4.126-.84Zm.98-1.484h2.156v.8H33.922Zm5.306,0v.8h-2.17v-.8Zm-3.15,2.324H33.754a3.3,3.3,0,0,0,.14-.84h2.184Zm2.506,3.22h-7v-.868h7Zm0,1.5h-7V11.94h7Zm1.036,2.212V10.022c.14,0,.266-.014.364-.014a.993.993,0,0,0,.672-.252c.2-.182.28-.588.364-1.344.014-.126.028-.336.028-.336h-3.99v-.84H40.18V5.066H37.058V4.3h-.98v.77H33.922V4.3H32.97v.77H29.554v.686H32.97v.8H30.184c-.084.728-.224,1.6-.35,2.212h2.38a6.851,6.851,0,0,1-3.374,1.3,3.688,3.688,0,0,1,.49.812c.462-.1.882-.2,1.246-.308v4.438h6.2l-.518.5a34.094,34.094,0,0,1,4.116,1.5l.784-.644a37.921,37.921,0,0,0-3.934-1.358ZM51.73,10.68a9.3,9.3,0,0,0,2.786,6.664l.84-.434a8.755,8.755,0,0,1,0-12.46l-.84-.434A9.3,9.3,0,0,0,51.73,10.68ZM69.244,6.34H65.17l.91-.42A7.487,7.487,0,0,0,64.9,4.212l-.868.378a8.8,8.8,0,0,1,1.106,1.75H61.614v.966h7.63ZM66.052,8.146a15.454,15.454,0,0,1,2.394,2.968l.77-.644a15.583,15.583,0,0,0-2.45-2.87Zm-2.59-.476a9.591,9.591,0,0,1-2.282,2.9,6.546,6.546,0,0,1,.728.63A12.876,12.876,0,0,0,64.4,8.09Zm-2.114,3.836c-.238-.42-1.316-2.254-1.652-2.73v-.56h1.568v-.98H59.7V4.282h-.952V7.236h-1.82v.98h1.624a15.507,15.507,0,0,1-2.086,5.306,4.643,4.643,0,0,1,.56.994,16.405,16.405,0,0,0,1.722-4.228v6.776H59.7v-6.93c.378.756.84,1.68,1.022,2.156Zm5.278-1.386a9.359,9.359,0,0,1-1.4,3,10.315,10.315,0,0,1-1.61-2.94l-.9.252A12.508,12.508,0,0,0,64.582,13.9a10.511,10.511,0,0,1-3.5,2.408,4.346,4.346,0,0,1,.658.784,11.058,11.058,0,0,0,3.5-2.422,9.323,9.323,0,0,0,3.528,2.31,3.677,3.677,0,0,1,.7-.9,9.027,9.027,0,0,1-3.556-2.2,10.669,10.669,0,0,0,1.708-3.514ZM76.132,7.4A17.449,17.449,0,0,1,75.1,11.17a24.823,24.823,0,0,0-2.31-2.184A14.5,14.5,0,0,0,73.458,7.4Zm.294-.98H73.794c.2-.63.35-1.274.5-1.946l-1.022-.2a13.893,13.893,0,0,1-2.66,6.188,5.756,5.756,0,0,1,.854.658,10.554,10.554,0,0,0,.882-1.3,21.782,21.782,0,0,1,2.268,2.352,9.341,9.341,0,0,1-3.976,3.99,3.8,3.8,0,0,1,.854.854c2.968-1.638,5.124-4.928,5.852-10.416l-.714-.238ZM79.618,8.8V4.3H78.554V17.064h1.064v-7.6a25.268,25.268,0,0,1,3.01,2.912l.826-.714A28.082,28.082,0,0,0,80,8.5Zm13.02-.154a6.3,6.3,0,0,0-1.008-.77,7.961,7.961,0,0,0,.812-.9l-.728-.238a5,5,0,0,1-.7.742c-.364-.2-.728-.406-1.078-.56l-.518.462a10.291,10.291,0,0,1,1.008.546,8.416,8.416,0,0,1-1.33.77,3.612,3.612,0,0,1,.574.546,9.907,9.907,0,0,0,1.4-.91,7.634,7.634,0,0,1,1.008.812ZM92.6,6.144c-.252-.2-.588-.42-.966-.658a7.189,7.189,0,0,0,.77-.854l-.728-.2a5.963,5.963,0,0,1-.658.686c-.364-.2-.714-.378-1.05-.518l-.5.462a9.33,9.33,0,0,1,.98.5,8.438,8.438,0,0,1-1.246.714,4.385,4.385,0,0,1,.588.5,9.727,9.727,0,0,0,1.3-.84,6.929,6.929,0,0,1,.966.714Zm-6.51,3.92h9.842V11.8H96.95V9.266H95.858c.112-1.246.238-3.052.308-4.438H92.932v.714h2.226l-.042.756H93v.714h2.072L95,7.768H92.918v.714h2.03c-.028.28-.056.532-.084.784H87.192l-.056-.784h1.946V7.768H87.094l-.056-.756h1.988V6.3H87l-.056-.686A14.678,14.678,0,0,0,89.1,5.066l-.462-.644a26.2,26.2,0,0,1-2.7.686l.28,4.158h-1.12V11.8h.994Zm11.144,3.4h-5.6v-.252a14.589,14.589,0,0,0,3.164-1.736l-.63-.518-.21.056h-6.58V11.8h5.474a13,13,0,0,1-2.226,1.064v.6H84.784v.882h5.838V15.93c0,.2-.056.238-.294.252-.21,0-.994,0-1.862-.028a3.92,3.92,0,0,1,.364.882,8.377,8.377,0,0,0,2.254-.14c.434-.154.546-.392.546-.938v-1.61h5.6Zm8.078-3.556c1.064-.392,2.422-.9,3.71-1.386l-.154-.77c-1.456.518-2.926,1.036-3.934,1.358Zm2.744-2.66a7.721,7.721,0,0,0-1.876-1.274l-.546.63a6.682,6.682,0,0,1,1.848,1.33ZM103.4,9.588c0,.154-.042.21-.21.21s-.728.014-1.344,0a3.858,3.858,0,0,1,.266.77,5.979,5.979,0,0,0,1.806-.126c.336-.14.448-.378.448-.84V5H99.064V5.85h4.34Zm-3.752-3a7.189,7.189,0,0,1,1.82,1.372l.56-.672A7.728,7.728,0,0,0,100.2,5.976ZM102.48,8.02c-1.386.546-2.8,1.064-3.752,1.358l.406.854c1.008-.392,2.268-.91,3.5-1.442Zm5.964,5.474h-6.79V12.136h6.79Zm-6.79,2.24V14.32h6.79v1.414Zm2.8-5.726a12.043,12.043,0,0,1-.546,1.316h-3.276v5.782h1.022V16.56h6.79v.546h1.05V11.324H104.93c.2-.336.406-.728.6-1.106ZM110.6,5h-5.348V5.85h4.368V9.6c0,.168-.056.21-.224.224-.2,0-.8,0-1.456-.028a3.072,3.072,0,0,1,.294.826,6.393,6.393,0,0,0,1.89-.14c.364-.154.476-.392.476-.882Zm13.034,1.876a16.487,16.487,0,0,0-2.9-2.3l-.756.406c.406.266.84.588,1.246.91l-4.76.168a18.146,18.146,0,0,0,2.114-1.372l-.924-.462a13.506,13.506,0,0,1-2.394,1.61,2.381,2.381,0,0,1-.868.322,6.221,6.221,0,0,1,.308.9c.434-.14,1.092-.14,7.406-.434.28.252.518.49.714.7ZM122.542,13.3c-1.554,1.6-4.676,2.534-8.064,2.926a4.138,4.138,0,0,1,.5.854c3.5-.49,6.706-1.54,8.414-3.36Zm-3.164-2.758A14.472,14.472,0,0,1,115,12.472a3.8,3.8,0,0,1,.616.644,15.01,15.01,0,0,0,4.536-2.2Zm1.526,1.344a14.654,14.654,0,0,1-5.81,2.31,4.377,4.377,0,0,1,.56.756,15.749,15.749,0,0,0,6.048-2.66Zm4.2-2.114a9.162,9.162,0,0,0-1.6-2.072l-.728.336c.2.21.406.434.588.672l-1.9.112a9.2,9.2,0,0,0,.938-1.26l-.938-.392a5.58,5.58,0,0,1-.952,1.456.9.9,0,0,1-.448.308l.07.154a7.845,7.845,0,0,1-.686-.672c.084-.126.168-.266.238-.392l-.952-.294a6.623,6.623,0,0,1-1.176,1.526,11.245,11.245,0,0,0-.854-1.274l-.756.266c.14.182.28.364.42.574l-1.624.07a10.977,10.977,0,0,0,1.246-1.414l-.938-.406a7.386,7.386,0,0,1-1.26,1.582,1.2,1.2,0,0,1-.56.336,4.921,4.921,0,0,1,.336.882,14.843,14.843,0,0,1,3.22-.308,2.334,2.334,0,0,1,.112.28,13.023,13.023,0,0,1-4.284,2.1,4.061,4.061,0,0,1,.6.812,12.674,12.674,0,0,0,5.7-3.612,14.453,14.453,0,0,0,5.992,3.5,3.716,3.716,0,0,1,.658-.812A15.11,15.11,0,0,1,120.918,9.7c.434-.056,1.274-.126,2.982-.252a5.112,5.112,0,0,1,.42.7Zm8.61,1.988c0,.126-.028.182-.182.182a9.237,9.237,0,0,1-1.05-.014,2.759,2.759,0,0,1,.266.714,4.516,4.516,0,0,0,1.47-.126c.308-.14.392-.322.392-.756V8.076h-.378V8.062H132.4v-1.5h2.31V5.682H132.4V4.38h-.91V8.9h2.226ZM131.936,9.5a5.439,5.439,0,0,1-.77,2.31,4.584,4.584,0,0,1,.728.448,7.035,7.035,0,0,0,.854-2.618Zm-1.162,4.508a16.14,16.14,0,0,1-3.892,2.24,9.361,9.361,0,0,1,.616.784,22.265,22.265,0,0,0,4.172-2.394Zm3.57.672a32.086,32.086,0,0,1,3.962,2.31l.686-.784a33.925,33.925,0,0,0-4.074-2.24Zm3.626-1.862c.126-2.058.2-5.362.21-7.826h-2.968v.91h2.016c0,.56-.014,1.148-.028,1.75h-1.862v.9h1.848c-.028.588-.042,1.162-.07,1.722h-1.848v.882h1.82c-.028.6-.07,1.176-.1,1.666h-7.938L129,11.114H130.8v-.9h-1.848L128.9,8.51h1.848v-.9H128.87l-.056-1.638c.714-.224,1.484-.49,2.128-.756l-.5-.854a22.97,22.97,0,0,1-2.59,1.078l.266,7.378H126.7v.966h12.614v-.966Zm6.3-2.142a9.3,9.3,0,0,0-2.786-6.664l-.84.434a8.755,8.755,0,0,1,0,12.46l.84.434A9.3,9.3,0,0,0,144.27,10.68Z" transform="translate(691 1067)" fill="#aca4a4"/>
      <path id="內文p-2" data-name="內文p" d="M8.092,6.354A11.487,11.487,0,0,0,7,4.212L5.922,4.52a10.911,10.911,0,0,1,1.036,2.2ZM9.926,7.768a12.843,12.843,0,0,1-2.884,4.69A14.151,14.151,0,0,1,3.99,7.768Zm3.374,0V6.746H.756V7.768H2.912a15.773,15.773,0,0,0,3.36,5.418,15.058,15.058,0,0,1-5.712,2.9,5.8,5.8,0,0,1,.644.966,16.1,16.1,0,0,0,5.824-3.122,14.153,14.153,0,0,0,5.74,3.066,4.789,4.789,0,0,1,.714-.966,13.75,13.75,0,0,1-5.656-2.842A14.774,14.774,0,0,0,11.1,7.768Zm5.642,5.418-1.526.5V10.218h1.4V9.252h-1.4V6.214h1.61v-.98h-4.34v.98h1.736V9.252H14.84v.966h1.582V14c-.714.238-1.358.434-1.876.588l.238,1.05c1.246-.406,2.842-.952,4.34-1.456Zm1.722-4.718h2.128v1.778H20.664Zm0-2.632h2.128V7.6H20.664ZM25.83,7.6H23.688V5.836H25.83Zm0,2.646H23.688V8.468H25.83Zm-2.058,5.418V13.746h3.262v-.952H23.772V11.156h3.052V4.926H19.712v6.23h3.01v1.638H19.544v.952h3.178v1.918H18.466v.952h9.016v-.952ZM39.816,9.336H36.358V8.006h3.458Zm0,2.128H36.358V10.12h3.458Zm0,2.142H36.358V12.248h3.458ZM35.406,7.18v7.252h5.4V7.18H38.052c.14-.392.294-.868.434-1.316h2.856v-.91H34.86v.91h2.52c-.1.42-.21.91-.322,1.316ZM33.614,4.8a13.332,13.332,0,0,1-.8,1.764l.7.252c.308-.448.644-1.106.98-1.736Zm-3,1.638a5.583,5.583,0,0,0-.84-1.652l-.728.294a5.94,5.94,0,0,1,.8,1.694Zm.686,4.424h.924V8.244h2.436V7.376H32.228V4.352H31.3V7.376H28.742v.868H31.3Zm1.162-1.736A17.9,17.9,0,0,1,34.258,10.9l.588-.686c-.28-.266-1.5-1.274-1.834-1.512ZM30.282,8.65A5.01,5.01,0,0,1,28.5,10.708a3.516,3.516,0,0,1,.616.672A6.152,6.152,0,0,0,30.954,8.9ZM34.5,15.692a24.609,24.609,0,0,0-2.478-1.764,3.134,3.134,0,0,0,.1-.616H34.8V12.43H33.88l.462-.308a6.226,6.226,0,0,0-.966-1.134l-.6.378a6.837,6.837,0,0,1,.882,1.064h-1.5V11.156h-.91V12.43h-2.52v.882h2.464c-.14,1.022-.7,2.086-2.646,2.912a3.084,3.084,0,0,1,.532.756,4.845,4.845,0,0,0,2.646-2.24c.8.56,1.694,1.232,2.184,1.666Zm2.352-.98a6.923,6.923,0,0,1-2.422,1.694c.21.2.532.5.7.7a8.916,8.916,0,0,0,2.632-1.876Zm1.554.546a15.831,15.831,0,0,1,2.338,1.82l.812-.574a18.322,18.322,0,0,0-2.394-1.764Zm7.5-9.142A9.818,9.818,0,0,0,44.674,4.38l-.826.392a10.781,10.781,0,0,1,1.19,1.806Zm.8,3.318a10.458,10.458,0,0,1-.882,1.344c-.154-.2-.308-.392-.434-.532v-.028a16.932,16.932,0,0,0,1.47-3.15l-.546-.336-.182.042H42.854V7.7h2.828a14.883,14.883,0,0,1-3.276,4.886,3.622,3.622,0,0,1,.546.84A14.416,14.416,0,0,0,44.408,11.7v5.306h.98v-5.6c.42.63.924,1.33,1.12,1.708l.63-.686c-.14-.182-.518-.658-.882-1.12.35-.406.756-.924,1.134-1.414Zm7.14.056v1.456H51.6V9.49ZM51.6,13.284v-1.5h2.24v1.5Zm-3.094,0v-1.5H50.6v1.5ZM50.6,9.49v1.456H48.51V9.49Zm4.76-2.3V6.242H54.5l.546-.518a8.9,8.9,0,0,0-2.128-1.4l-.574.56a9.152,9.152,0,0,1,1.988,1.358H51.6V4.3H50.6V6.242H47.11v.952H50.6v1.4H47.544v8.484h.966V14.124H50.6V16.98H51.6V14.124h2.24V15.9c0,.168-.042.21-.21.21s-.63.014-1.19,0a2.994,2.994,0,0,1,.308.924,4.128,4.128,0,0,0,1.638-.168c.336-.168.434-.434.434-.938V8.594H51.6v-1.4ZM63.308,9.91c1.064-.392,2.422-.9,3.71-1.386l-.154-.77c-1.456.518-2.926,1.036-3.934,1.358Zm2.744-2.66a7.721,7.721,0,0,0-1.876-1.274l-.546.63a6.682,6.682,0,0,1,1.848,1.33ZM61.4,9.588c0,.154-.042.21-.21.21s-.728.014-1.344,0a3.858,3.858,0,0,1,.266.77,5.979,5.979,0,0,0,1.806-.126c.336-.14.448-.378.448-.84V5H57.064V5.85H61.4Zm-3.752-3a7.189,7.189,0,0,1,1.82,1.372l.56-.672A7.728,7.728,0,0,0,58.2,5.976ZM60.48,8.02c-1.386.546-2.8,1.064-3.752,1.358l.406.854c1.008-.392,2.268-.91,3.5-1.442Zm5.964,5.474h-6.79V12.136h6.79Zm-6.79,2.24V14.32h6.79v1.414Zm2.8-5.726a12.044,12.044,0,0,1-.546,1.316H58.632v5.782h1.022V16.56h6.79v.546h1.05V11.324H62.93c.2-.336.406-.728.6-1.106ZM68.6,5H63.252V5.85H67.62V9.6c0,.168-.056.21-.224.224-.2,0-.8,0-1.456-.028a3.072,3.072,0,0,1,.294.826,6.393,6.393,0,0,0,1.89-.14c.364-.154.476-.392.476-.882Zm6.216,8.9-1.526.378V10.722H74.7V9.77H73.29V6.256h1.722V5.3H70.7v.952h1.624V9.77H70.9v.952h1.428v3.794c-.672.14-1.288.294-1.778.392l.2.994c1.19-.308,2.73-.672,4.186-1.078ZM77.77,4.282h-.938V9.714a19.019,19.019,0,0,0-1.232-2.2l-.77.294a20.477,20.477,0,0,1,1.442,2.884l.56-.252c-.014,2.408-.364,4.466-2.716,5.908a4.017,4.017,0,0,1,.644.742c2.66-1.652,3.01-4.046,3.01-6.86Zm3.3,11.326V11.282h1.75V10.33h-1.75V6.214h1.988V5.262H78.176v.952h1.9V10.33H78.428v.952H80.08v4.326H77.462v.98h5.894v-.98Z" transform="translate(872 1067)" fill="#aca4a4"/>
      <rect id="Rectangle_2136" data-name="Rectangle 2136" width="14" height="13" rx="2" transform="translate(673 1072)" fill="#4891f2"/>
      <rect id="Rectangle_2137" data-name="Rectangle 2137" width="21" height="3" rx="1.5" transform="translate(849 1077)" fill="#fff"/>
    </g>
  </g>
</svg>
