<svg xmlns="http://www.w3.org/2000/svg" width="260.656" height="233.673" viewBox="0 0 260.656 233.673">
  <g id="data7_m" transform="translate(8756.206 13352.402)">
    <g id="Group_1943" data-name="Group 1943" transform="translate(-4284 -2825)">
      <path id="Path_1733" data-name="Path 1733" d="M2.968.1c1.472,0,2.5-1.176,2.5-3.056S4.44-5.976,2.968-5.976.464-4.832.464-2.952,1.5.1,2.968.1Zm0-.648c-1.056,0-1.744-.944-1.744-2.408s.688-2.376,1.744-2.376,1.744.9,1.744,2.376S4.016-.544,2.968-.544ZM6.736,0h3.472V-.632H7.48V-2.768H9.7V-3.4H7.48V-5.24h2.64v-.632H6.736Zm6.92.1a2.267,2.267,0,0,0,1.8-.84L15.048-1.2a1.782,1.782,0,0,1-1.36.656c-1.12,0-1.824-.928-1.824-2.408,0-1.464.736-2.376,1.848-2.376a1.6,1.6,0,0,1,1.2.56l.4-.48A2.168,2.168,0,0,0,13.7-5.976c-1.488,0-2.6,1.152-2.6,3.048S12.2.1,13.656.1ZM16.544,0h1.5c1.768,0,2.736-1.1,2.736-2.952s-.968-2.92-2.768-2.92H16.544Zm.744-.608V-5.264h.664c1.384,0,2.064.824,2.064,2.312s-.68,2.344-2.064,2.344Zm11.52-2.168h-3.28V-5.568H28.36v-.584H22.1v.584H24.92v2.792H21.688v.584H24.92v2.8h.608v-2.8h3.28Zm-6.144-2.24a9.362,9.362,0,0,1,.72,1.832l.56-.192a7.664,7.664,0,0,0-.76-1.8ZM26.9-3.16a15.707,15.707,0,0,0,.984-1.88l-.624-.176A11.938,11.938,0,0,1,26.4-3.328ZM32.68-1.32h2.7v-.536h-2.7Zm.184-2.352v.544h2.384v-.544Zm.712-1.7a11.363,11.363,0,0,0,.448-1.168l-.6-.152a8.429,8.429,0,0,1-1.216,2.512v-.512H31.28V-6.52H30.7v1.832H29.672v.568H30.7v2.728c-.44.2-.848.384-1.168.512l.224.6c.744-.36,1.736-.848,2.664-1.3l-.16-.544c-.328.152-.664.312-.984.464V-4.12h.9a5.02,5.02,0,0,1-.376.432c.152.088.424.256.544.344a8.011,8.011,0,0,0,.968-1.464h2.84c-.1,3.224-.224,4.456-.488,4.728a.4.4,0,0,1-.344.128,11.712,11.712,0,0,1-1.208-.056A1.5,1.5,0,0,1,34.3.6a9.239,9.239,0,0,0,1.24.008A.8.8,0,0,0,36.2.28c.32-.4.424-1.664.552-5.336,0-.08.008-.312.008-.312Z" transform="translate(-4302.907 -10520.714)" fill="#bfbfbf"/>
      <g id="Group_1876" data-name="Group 1876" transform="translate(-4472.846 -10513.29)">
        <g id="data_7-06" transform="translate(0 6.807)">
          <g id="Group_1868" data-name="Group 1868" transform="translate(31.969 201.545)">
            <g id="Group_1865" data-name="Group 1865" transform="translate(0 3.087)">
              <path id="Path_1732" data-name="Path 1732" d="M.374-3.177A5.9,5.9,0,0,1,.609-5.016a2.288,2.288,0,0,1,.7-1.074,1.786,1.786,0,0,1,1.167-.378,1.9,1.9,0,0,1,.91.209,1.739,1.739,0,0,1,.646.6,3.23,3.23,0,0,1,.4.958,6.365,6.365,0,0,1,.145,1.523,5.912,5.912,0,0,1-.233,1.83,2.288,2.288,0,0,1-.7,1.077A1.786,1.786,0,0,1,2.474.11,1.768,1.768,0,0,1,1.011-.558,4.245,4.245,0,0,1,.374-3.177Zm.813,0a4.04,4.04,0,0,0,.371,2.112,1.094,1.094,0,0,0,.916.525,1.093,1.093,0,0,0,.916-.527,4.041,4.041,0,0,0,.371-2.109A4.038,4.038,0,0,0,3.39-5.291a1.1,1.1,0,0,0-.925-.523,1.014,1.014,0,0,0-.87.461A4.086,4.086,0,0,0,1.187-3.177Z" transform="translate(0 7)" fill="#55585f"/>
              <path id="Path_1731" data-name="Path 1731" d="M4.531-.76V0H.272A1.4,1.4,0,0,1,.365-.549a2.906,2.906,0,0,1,.521-.857A8.159,8.159,0,0,1,1.92-2.382,8.773,8.773,0,0,0,3.34-3.746,1.634,1.634,0,0,0,3.709-4.7a1.057,1.057,0,0,0-.336-.793A1.213,1.213,0,0,0,2.5-5.814a1.235,1.235,0,0,0-.914.343,1.3,1.3,0,0,0-.347.949L.422-4.605A2,2,0,0,1,1.05-5.992a2.144,2.144,0,0,1,1.463-.477,2.042,2.042,0,0,1,1.468.514A1.688,1.688,0,0,1,4.522-4.68a1.933,1.933,0,0,1-.158.76,2.95,2.95,0,0,1-.525.787A12.793,12.793,0,0,1,2.619-2q-.712.6-.914.811a2.6,2.6,0,0,0-.334.428Z" transform="translate(44.258 7)" fill="#55585f"/>
              <path id="Path_1730" data-name="Path 1730" d="M2.909,0V-1.542H.114v-.725l2.94-4.175H3.7v4.175h.87v.725H3.7V0Zm0-2.268v-2.9L.892-2.268Z" transform="translate(88.512 7)" fill="#55585f"/>
              <path id="Path_1729" data-name="Path 1729" d="M4.478-4.865,3.691-4.8a1.49,1.49,0,0,0-.3-.677A1.047,1.047,0,0,0,2.6-5.818a1.087,1.087,0,0,0-.664.211,1.8,1.8,0,0,0-.589.8,4.157,4.157,0,0,0-.224,1.49,1.833,1.833,0,0,1,.7-.646,1.879,1.879,0,0,1,.866-.211A1.793,1.793,0,0,1,4.036-3.6a2.09,2.09,0,0,1,.556,1.505A2.477,2.477,0,0,1,4.331-.965a1.905,1.905,0,0,1-.719.8A1.962,1.962,0,0,1,2.575.11,2.027,2.027,0,0,1,.962-.617a3.672,3.672,0,0,1-.624-2.4,4.3,4.3,0,0,1,.69-2.716A1.984,1.984,0,0,1,2.65-6.469,1.819,1.819,0,0,1,3.9-6.042,1.81,1.81,0,0,1,4.478-4.865ZM1.248-2.087a1.835,1.835,0,0,0,.174.782,1.294,1.294,0,0,0,.486.569,1.214,1.214,0,0,0,.655.2,1.116,1.116,0,0,0,.861-.4,1.591,1.591,0,0,0,.36-1.1A1.489,1.489,0,0,0,3.428-3.1a1.17,1.17,0,0,0-.9-.385,1.22,1.22,0,0,0-.91.385A1.386,1.386,0,0,0,1.248-2.087Z" transform="translate(132.78 7)" fill="#55585f"/>
              <path id="Path_1728" data-name="Path 1728" d="M1.591-3.494a1.489,1.489,0,0,1-.729-.514,1.345,1.345,0,0,1-.237-.8A1.564,1.564,0,0,1,1.129-5.99a1.874,1.874,0,0,1,1.345-.479,1.887,1.887,0,0,1,1.358.49,1.586,1.586,0,0,1,.514,1.193,1.314,1.314,0,0,1-.235.78,1.483,1.483,0,0,1-.714.512,1.732,1.732,0,0,1,.9.624,1.714,1.714,0,0,1,.31,1.028A1.851,1.851,0,0,1,4.025-.453,2.125,2.125,0,0,1,2.487.11,2.12,2.12,0,0,1,.949-.455,1.878,1.878,0,0,1,.365-1.863,1.7,1.7,0,0,1,.683-2.916,1.6,1.6,0,0,1,1.591-3.494Zm-.158-1.34a1,1,0,0,0,.294.747,1.043,1.043,0,0,0,.765.29,1.023,1.023,0,0,0,.749-.288.952.952,0,0,0,.292-.705.987.987,0,0,0-.3-.732,1.025,1.025,0,0,0-.749-.3,1.035,1.035,0,0,0-.751.29A.934.934,0,0,0,1.433-4.834ZM1.178-1.859a1.431,1.431,0,0,0,.16.655,1.132,1.132,0,0,0,.477.49A1.394,1.394,0,0,0,2.5-.541a1.276,1.276,0,0,0,.936-.365A1.248,1.248,0,0,0,3.8-1.833a1.269,1.269,0,0,0-.38-.945,1.3,1.3,0,0,0-.951-.374,1.25,1.25,0,0,0-.925.369A1.256,1.256,0,0,0,1.178-1.859Z" transform="translate(177.033 7)" fill="#55585f"/>
              <path id="Path_1727" data-name="Path 1727" d="M3.726,0H2.847V-5.6A4.543,4.543,0,0,1,2.014-5a5.9,5.9,0,0,1-.925.454v-.85a5.308,5.308,0,0,0,1.289-.84,3.3,3.3,0,0,0,.781-.957h.566ZM5.977-3.53a6.55,6.55,0,0,1,.261-2.043,2.542,2.542,0,0,1,.776-1.194,1.985,1.985,0,0,1,1.3-.42,2.115,2.115,0,0,1,1.011.232,1.932,1.932,0,0,1,.718.669,3.589,3.589,0,0,1,.444,1.064,7.072,7.072,0,0,1,.161,1.692A6.569,6.569,0,0,1,10.386-1.5,2.542,2.542,0,0,1,9.612-.3a1.985,1.985,0,0,1-1.3.422A1.964,1.964,0,0,1,6.685-.62,4.717,4.717,0,0,1,5.977-3.53Zm.9,0a4.488,4.488,0,0,0,.413,2.346A1.216,1.216,0,0,0,8.311-.6a1.215,1.215,0,0,0,1.018-.586A4.49,4.49,0,0,0,9.741-3.53a4.487,4.487,0,0,0-.413-2.349A1.225,1.225,0,0,0,8.3-6.46a1.126,1.126,0,0,0-.967.513A4.54,4.54,0,0,0,6.88-3.53Z" transform="translate(218.683 8)" fill="#55585f"/>
            </g>
            <line id="Line_459" data-name="Line 459" x2="221.29" transform="translate(2.594)" fill="none" stroke="#55585f" stroke-miterlimit="10" stroke-width="1"/>
          </g>
          <g id="Group_1871" data-name="Group 1871" transform="translate(34.563 1.326)">
            <line id="Line_466" data-name="Line 466" y1="200.219" fill="none" stroke="#55585f" stroke-miterlimit="10" stroke-width="1"/>
          </g>
          <g id="Group_1874" data-name="Group 1874" transform="translate(35.013 1.327)">
            <g id="Group_1873" data-name="Group 1873">
              <g id="Group_1872" data-name="Group 1872">
                <rect id="Rectangle_2367" data-name="Rectangle 2367" width="178.992" height="13.308" fill="#efefef"/>
                <rect id="Rectangle_2368" data-name="Rectangle 2368" width="168.641" height="13.308" transform="translate(0 18.41)" fill="#efefef"/>
                <rect id="Rectangle_2369" data-name="Rectangle 2369" width="167.975" height="13.308" transform="translate(0 36.854)" fill="#efefef"/>
                <rect id="Rectangle_2370" data-name="Rectangle 2370" width="165.536" height="13.308" transform="translate(0 55.355)" fill="#efefef"/>
                <rect id="Rectangle_2371" data-name="Rectangle 2371" width="162.874" height="13.308" transform="translate(0 73.782)" fill="#efefef"/>
                <rect id="Rectangle_2373" data-name="Rectangle 2373" width="154.889" height="13.308" transform="translate(0 92.209)" fill="#efefef"/>
                <rect id="Rectangle_2374" data-name="Rectangle 2374" width="149.351" height="13.308" transform="translate(0 110.71)" fill="#efefef"/>
                <rect id="Rectangle_2375" data-name="Rectangle 2375" width="144.249" height="13.308" transform="translate(0 129.137)" fill="#4891f2"/>
                <rect id="Rectangle_2376" data-name="Rectangle 2376" width="144.249" height="13.308" transform="translate(0 147.564)" fill="#efefef"/>
                <rect id="Rectangle_2377" data-name="Rectangle 2377" width="138.778" height="13.308" transform="translate(0 166.082)" fill="#efefef"/>
                <rect id="Rectangle_2378" data-name="Rectangle 2378" width="136.782" height="13.308" transform="translate(0 184.492)" fill="#efefef"/>
              </g>
            </g>
          </g>
          <g id="Group_1875" data-name="Group 1875" transform="translate(0 0)">
            <path id="Path_1726" data-name="Path 1726" d="M7.949.288a.069.069,0,0,1-.078.078H7.388A.069.069,0,0,1,7.31.288v-.61H2.681v.63q0,.078-.068.078H2.119A.069.069,0,0,1,2.041.308l.02-3.428V-5.049l-.02-2.52q0-.083.078-.083l1.392.02H6.479l1.392-.02q.078,0,.078.083L7.93-5.3V-3.12ZM7.31-.894v-2.9H2.681v2.9Zm0-3.457v-2.71H2.681v2.71ZM19.629-1.543a1.726,1.726,0,0,0-.288.381q-.093.151-.122.151a.553.553,0,0,1-.146-.068,10.514,10.514,0,0,1-3.892-4.2q0,1.46.02,3.462h.718l1.25-.02q.083,0,.083.078v.43a.073.073,0,0,1-.083.083l-1.25-.02H15.21q.01.562.029,1.353.01.479.01.537A.069.069,0,0,1,15.171.7h-.532A.069.069,0,0,1,14.561.62q0-.039,0-.312.02-.864.024-1.577h-.61l-1.24.02q-.078,0-.078-.083v-.43a.069.069,0,0,1,.078-.078l1.24.02h.62q.029-1.455.029-3.359A10.491,10.491,0,0,1,10.981-1.04a.484.484,0,0,1-.161.078q-.059,0-.122-.142a1.139,1.139,0,0,0-.3-.356,9.356,9.356,0,0,0,2.31-1.865A10.522,10.522,0,0,0,14.3-5.581H12.183l-1.333.02a.069.069,0,0,1-.078-.078v-.454a.069.069,0,0,1,.078-.078l1.333.02H14.59v-.889a7.5,7.5,0,0,0-.068-1.211,6.132,6.132,0,0,1,.688.059q.122.02.122.083A.319.319,0,0,1,15.308-8a1.065,1.065,0,0,0-.034.107,4.015,4.015,0,0,0-.054.84v.9h2.612l1.338-.02a.069.069,0,0,1,.078.078v.454a.069.069,0,0,1-.078.078l-1.338-.02H15.5A10.169,10.169,0,0,0,19.629-1.543Z" transform="translate(10.373 196.106)" fill="#efefef"/>
            <path id="Path_1725" data-name="Path 1725" d="M7.632.591q0,.068-.078.068H7.1q-.078,0-.078-.068V.151H2.964V.62A.073.073,0,0,1,2.881.7H2.432Q2.363.7,2.363.62L2.373-1.2V-2.09l-.01-1.2q0-.078.068-.078l1.343.02H6.221l1.328-.02q.083,0,.083.078l-.01,1.069v1Zm-.61-.937V-1.4H2.964V-.347Zm0-1.543v-.962H2.964v.962Zm2.5-1.743a1.229,1.229,0,0,0-.278.361q-.1.181-.151.181a.448.448,0,0,1-.137-.039,13,13,0,0,1-3.74-2.28q0,.542.029,1.187.02.474.02.493a.069.069,0,0,1-.078.078H4.692a.069.069,0,0,1-.078-.078q0-.015.024-.63.02-.547.024-1.03A11.329,11.329,0,0,1,1.055-3.115a.456.456,0,0,1-.132.039q-.059,0-.151-.176a1.06,1.06,0,0,0-.259-.317,11.154,11.154,0,0,0,3.7-2.012H2.261L.9-5.562Q.82-5.562.82-5.64V-6.03Q.82-6.1.9-6.1l1.357.02H4.644v-1q-1.377.137-2.471.2l-.1,0a.157.157,0,0,1-.122-.039.813.813,0,0,1-.068-.137,1.162,1.162,0,0,0-.22-.337Q3.081-7.437,4.8-7.6A17.12,17.12,0,0,0,6.821-7.91,3.27,3.27,0,0,0,7.5-8.12a2.761,2.761,0,0,1,.527.381A.2.2,0,0,1,8.1-7.6q0,.1-.2.1a3.826,3.826,0,0,0-.591.068q-.9.176-2.07.3v1.05h2.49L9.082-6.1q.083,0,.083.068v.391q0,.078-.083.078l-1.357-.02H5.645A13.046,13.046,0,0,0,7.52-4.429,15.161,15.161,0,0,0,9.521-3.633Zm10.2.913a.851.851,0,0,0-.259.347q-.068.142-.127.142a.361.361,0,0,1-.151-.059,5.428,5.428,0,0,1-2.363-2.183H15.19A5.664,5.664,0,0,1,14.521-3.4a.216.216,0,0,1,.068-.01l.918.02h.933l.962-.02q.078,0,.078.068l-.02.693v.532l.02.679a.069.069,0,0,1-.078.078l-.962-.02h-1.88v.669a1.01,1.01,0,0,0,.088.562A4.052,4.052,0,0,0,16.338.02,9.227,9.227,0,0,0,17.6-.039a.849.849,0,0,0,.444-.171.772.772,0,0,0,.21-.381,5.2,5.2,0,0,0,.083-.63,2.081,2.081,0,0,0,.352.21q.181.083.181.156,0,.024-.01.1a1.552,1.552,0,0,1-.42.991A1.33,1.33,0,0,1,17.72.5a11.758,11.758,0,0,1-1.431.063A13.846,13.846,0,0,1,14.727.5a.94.94,0,0,1-.5-.171,1.248,1.248,0,0,1-.239-.913V-1.3l-.02-.518a.069.069,0,0,1,.078-.078l.991.02H16.9V-2.891H15.508l-.928.02a.069.069,0,0,1-.078-.078v-.43A7.4,7.4,0,0,1,13.071-2.07a.553.553,0,0,1-.161.078q-.049,0-.132-.137a.912.912,0,0,0-.269-.293A6.862,6.862,0,0,0,13.8-3.408a4.558,4.558,0,0,0,.786-1.064h-.381l-1.421.02q-.078,0-.078-.088v-.371q0-.088.078-.088l1.421.02H14.6v-1.24l-1.26.02q-.078,0-.078-.068v-.4a.069.069,0,0,1,.078-.078l1.26.02v-.42a5.854,5.854,0,0,0-.059-1.04q.322.015.6.049.117.02.117.083a.378.378,0,0,1-.049.156,2.45,2.45,0,0,0-.059.742v.43h1.636v-.42a4.989,4.989,0,0,0-.068-1.04q.332.015.61.049.122.02.122.083A.378.378,0,0,1,17.4-7.9a2.269,2.269,0,0,0-.063.742v.43h.239l1.382-.02a.069.069,0,0,1,.078.078v.4q0,.068-.078.068l-1.382-.02h-.239v1.24h.732L19.487-5q.073,0,.073.088v.371q0,.088-.073.088l-1.416-.02h-.654A5.054,5.054,0,0,0,19.717-2.72ZM16.787-4.98v-1.24H15.151v1.24Zm-4.365,2.71Q12.09-1.26,11.528.049A2.606,2.606,0,0,0,11.362.5q0,.122-.083.122a.394.394,0,0,1-.151-.059,4.67,4.67,0,0,1-.479-.322A4.08,4.08,0,0,0,11.1-.5a13.227,13.227,0,0,0,.884-2.363,1.194,1.194,0,0,0,.347.293q.127.073.127.137A.874.874,0,0,1,12.422-2.271ZM12.813-7a.134.134,0,0,1,.034.078.206.206,0,0,1-.068.112l-.22.273q-.068.078-.1.078T12.4-6.5a6.781,6.781,0,0,0-1.309-1.143q-.044-.024-.044-.049t.068-.1l.22-.229q.068-.073.1-.073a.124.124,0,0,1,.059.02A6.9,6.9,0,0,1,12.813-7Zm-.464,2.451q.039.039.039.059a.151.151,0,0,1-.049.083l-.239.278q-.088.107-.112.107a.093.093,0,0,1-.059-.034,6.736,6.736,0,0,0-1.348-1.094q-.049-.024-.049-.049t.059-.088l.21-.254q.049-.068.1-.068a.152.152,0,0,1,.063.02A7.936,7.936,0,0,1,12.349-4.551Z" transform="translate(10.373 177.666)" fill="#efefef"/>
            <path id="Path_1724" data-name="Path 1724" d="M4.38-6.611q0,.083-.088.083L3.12-6.553H2.861v.9h.171l1.03-.02q.068,0,.068.078l-.01.913v1.318l.01.918q0,.078-.068.078l-1.03-.02H2.861v.952h.2l1.182-.02q.078,0,.078.068v.391a.069.069,0,0,1-.078.078L3.062-.933h-.2v.459L2.881.679q0,.068-.078.068H2.368Q2.29.747,2.29.679L2.31-.474V-.933H1.841l-1.2.02q-.068,0-.068-.078v-.391A.06.06,0,0,1,.64-1.45l1.2.02H2.31v-.952H2.129l-1.021.02a.069.069,0,0,1-.078-.078l.02-.918V-4.678l-.02-.913a.069.069,0,0,1,.078-.078l1.021.02H2.31v-.9H1.919L.742-6.528a.073.073,0,0,1-.083-.083v-.381q0-.078.083-.078l1.177.02H2.31v-.112a7.625,7.625,0,0,0-.068-1.118q.361.015.61.049.112.02.112.093a1.273,1.273,0,0,1-.039.161,2.4,2.4,0,0,0-.063.7v.229H3.12l1.172-.02q.088,0,.088.078ZM3.6-2.842v-.977H1.582v.977Zm0-1.426V-5.19H1.582v.923ZM9.6-.6a.069.069,0,0,1-.078.078L8.193-.542H7.52V-.41L7.539.659a.069.069,0,0,1-.078.078H7.021A.069.069,0,0,1,6.943.659L6.963-.41V-.542H5.811l-1.328.02Q4.4-.522,4.4-.6V-.962q0-.078.083-.078l.137,0q.146.01.322.015v-.718l-.02-.571A.069.069,0,0,1,5-2.388l1.211.02h.752v-.713H6.23l-1.113.02q-.078,0-.078-.088l.024-.6v-.493l-.024-.6q0-.088.078-.088l1.113.02H7.563l1.1-.02q.078,0,.078.088l-.02.6v.493l.02.6q0,.088-.078.088l-1.1-.02H7.52v.713h.371l1.191-.02a.069.069,0,0,1,.078.078v.352a.069.069,0,0,1-.078.078L7.891-1.9H7.52v.879h.674l1.328-.02A.069.069,0,0,1,9.6-.962ZM8.169-3.521v-.933H5.6v.933Zm-1.206,2.5V-1.9H5.483v.879ZM9.5-5.6q0,.088-.068.088l-1.309-.02H5.864l-1.313.02q-.068,0-.068-.088v-.342q0-.078.068-.078L5.723-6q.176-.459.322-.937l-1.03.02q-.083,0-.083-.078v-.342q0-.078.083-.078l1.079.02h.078l.093-.332a2.324,2.324,0,0,0,.078-.581,4.135,4.135,0,0,1,.6.073q.122.015.122.088a.261.261,0,0,1-.068.142.769.769,0,0,0-.117.239l-.1.371h.649l1.1-.02a.069.069,0,0,1,.078.078l-.02.571V-6l.85-.02q.068,0,.068.078ZM8.022-6v-.937H6.631Q6.46-6.382,6.323-6ZM18.149-1.768a1.581,1.581,0,0,1-.342.747.607.607,0,0,1-.449.171q-.625,0-1.128-1.177A6.834,6.834,0,0,1,14.673-.815a.8.8,0,0,1-.142.068q-.059,0-.161-.132a1.223,1.223,0,0,0-.269-.259A5.627,5.627,0,0,0,16.03-2.559L16-2.646a13.367,13.367,0,0,1-.459-2.773H13.579l-1.367.02q-.093,0-.093-.078V-5.84q0-.078.093-.078l1.367.02h1.934a2.67,2.67,0,0,1-.01-.269A6.526,6.526,0,0,0,15.42-7a2.819,2.819,0,0,1,.542.049q.161.029.161.107a.376.376,0,0,1-.049.151.707.707,0,0,0-.034.278V-5.9h.449l1.382-.02a.069.069,0,0,1,.078.078v.361a.069.069,0,0,1-.078.078l-1.382-.02h-.42A14.951,14.951,0,0,0,16.421-3.1a4.839,4.839,0,0,0,.43-.874,3.356,3.356,0,0,0,.229-.786,2.507,2.507,0,0,1,.488.21q.1.049.1.127,0,.039-.112.151a2.288,2.288,0,0,0-.229.459A8.086,8.086,0,0,1,16.6-2.5a3.686,3.686,0,0,0,.43.845q.2.273.327.273.308,0,.4-.937a1.146,1.146,0,0,0,.293.264q.127.078.127.142A.771.771,0,0,1,18.149-1.768ZM14.888-2.949a.069.069,0,0,1-.078.078l-.747-.02h-.64l-.762.02a.069.069,0,0,1-.078-.078l.02-.63v-.493l-.02-.64a.069.069,0,0,1,.078-.078l.762.02h.64l.747-.02a.069.069,0,0,1,.078.078l-.02.64v.493Zm-.508-.342V-4.37H13.091v1.079Zm.82.693a1.931,1.931,0,0,0-.059.337.367.367,0,0,1-.049.19A.433.433,0,0,1,14.932-2q-.981.293-2.1.518a1.593,1.593,0,0,0-.41.132.26.26,0,0,1-.122.059q-.059,0-.1-.1a4.529,4.529,0,0,1-.151-.537,4.46,4.46,0,0,0,.889-.1A13.939,13.939,0,0,0,15.2-2.6Zm2.383-3.765a.106.106,0,0,1,.024.054q0,.02-.059.078l-.176.161a.283.283,0,0,1-.107.063q-.015,0-.054-.044a4.364,4.364,0,0,0-.649-.649q-.039-.029-.039-.044t.078-.078l.181-.137A.137.137,0,0,1,16.86-7a.112.112,0,0,1,.059.034A5.943,5.943,0,0,1,17.583-6.362ZM18.989.664q0,.078-.088.078h-.454a.069.069,0,0,1-.078-.078V.122H11.631V.664a.069.069,0,0,1-.078.078h-.464a.069.069,0,0,1-.078-.078l.02-3.745v-2l-.02-2.671a.069.069,0,0,1,.078-.078l1.392.02H17.52l1.382-.02q.088,0,.088.078l-.02,2.373v2.295ZM18.369-.41V-7.266H11.631V-.41Z" transform="translate(10.373 159.224)" fill="#efefef"/>
            <path id="Path_1723" data-name="Path 1723" d="M7.891.527Q7.891.61,7.8.61H7.319q-.068,0-.068-.083V.059h-4.5V.566q0,.083-.078.083H2.2q-.078,0-.078-.083l.02-1.787V-2.09l-.02-1.182A.069.069,0,0,1,2.2-3.35l1.382.02H6.431L7.8-3.35q.088,0,.088.078l-.02,1.05v.972ZM7.251-.5V-2.769h-4.5V-.5ZM9.067-4.482a.143.143,0,0,1,.029.063q0,.034-.1.107l-.288.19a.307.307,0,0,1-.127.063q-.029,0-.063-.049-.283-.405-.63-.815-3.13.4-6.094.552a1.408,1.408,0,0,0-.488.083.345.345,0,0,1-.171.059q-.083,0-.117-.122Q.942-4.619.869-5.01,1.2-5,1.514-5q.22,0,.386,0l.708-.029A22.153,22.153,0,0,0,3.9-7.651a2.649,2.649,0,0,0,.176-.679,4.112,4.112,0,0,1,.64.171q.151.059.151.142a.219.219,0,0,1-.078.146,1.588,1.588,0,0,0-.264.439A26.547,26.547,0,0,1,3.3-5.059q2.2-.127,4.16-.342A13.968,13.968,0,0,0,6.167-6.621q-.039-.034-.039-.059t.093-.1l.22-.146a.234.234,0,0,1,.112-.063.134.134,0,0,1,.078.034A15.134,15.134,0,0,1,9.067-4.482Zm10.068,3.34-.068.493a2.541,2.541,0,0,1-.259.9Q18.579.62,17.8.62q-.459,0-.83-.02a.383.383,0,0,1-.186-.044A.386.386,0,0,1,16.729.41a1.009,1.009,0,0,0-.142-.352,10.741,10.741,0,0,0,1.172.073q.464,0,.591-.259A1.958,1.958,0,0,0,18.5-.771H13.3l-.117.322q-.039.088-.1.088a.411.411,0,0,1-.073-.01L12.676-.43q-.107-.02-.107-.063a.345.345,0,0,1,.029-.1,9.248,9.248,0,0,0,.391-1.05,3.365,3.365,0,0,0,.1-.522.088.088,0,0,1,.1-.088l1.26.02h3.569v-.562H14.37l-1.362.02q-.078,0-.078-.088v-.322a.069.069,0,0,1,.078-.078l1.362.02H17.1l1.4-.02a.069.069,0,0,1,.078.078l-.02.522V-2.4l.02.552a.069.069,0,0,1-.078.078l-1.4-.02H13.618q-.117.415-.171.571h4.2l1.4-.02q.093,0,.093.073A.08.08,0,0,1,19.136-1.143Zm.371-4.434a.112.112,0,0,1,.015.044q0,.024-.083.063l-.151.068a.271.271,0,0,1-.093.034q-.029,0-.059-.063a2.448,2.448,0,0,1-.1-.239l-.571.083v1.128l.02.7q0,.083-.078.083h-.332q-.068,0-.068-.083l.02-.7V-5.527q-.371.039-.518.049a1.153,1.153,0,0,0-.352.073.212.212,0,0,1-.1.049q-.059,0-.088-.112a2.3,2.3,0,0,1-.078-.371q.142.01.249.01t.249-.01q.088-.088.469-.518a6.916,6.916,0,0,0-.815-.762q-.034-.024-.034-.044a.21.21,0,0,1,.049-.073L17.2-7.4q.044-.054.068-.054a.111.111,0,0,1,.063.034l.19.146a6.871,6.871,0,0,0,.41-.63,2.311,2.311,0,0,0,.146-.391,2.381,2.381,0,0,1,.391.171q.078.049.078.1t-.078.1a.619.619,0,0,0-.161.19,7.747,7.747,0,0,1-.518.713q.059.049.342.327a5.788,5.788,0,0,0,.376-.537,1.736,1.736,0,0,0,.19-.381,3.029,3.029,0,0,1,.352.21q.078.063.078.107t-.078.1a.819.819,0,0,0-.239.239,9.918,9.918,0,0,1-.933,1.079q.5-.044,1-.117l-.19-.312a.06.06,0,0,1-.015-.034q0-.029.063-.054l.151-.073a.236.236,0,0,1,.063-.02q.024,0,.059.039A4.888,4.888,0,0,1,19.507-5.576Zm-4.668.01a.112.112,0,0,1,.015.044q0,.024-.083.063l-.151.073a.3.3,0,0,1-.093.029q-.034,0-.059-.063t-.059-.132q-.034-.088-.039-.107l-.542.083v1.118l.02.7q0,.083-.078.083h-.332q-.068,0-.068-.083l.02-.7V-5.527q-.352.039-.488.049a1.153,1.153,0,0,0-.352.073.216.216,0,0,1-.1.049q-.059,0-.093-.112a2.3,2.3,0,0,1-.078-.371q.269.015.327.015t.132,0q.454-.5.488-.547a5.932,5.932,0,0,0-.85-.791q-.029-.029-.029-.044A.187.187,0,0,1,12.4-7.29l.142-.156q.044-.054.068-.054a.118.118,0,0,1,.063.029l.21.171a4.278,4.278,0,0,0,.4-.61,2.311,2.311,0,0,0,.146-.391,2.381,2.381,0,0,1,.391.171q.078.049.078.1t-.078.1a.619.619,0,0,0-.161.19q-.21.317-.508.688.239.22.352.342l.356-.518a1.736,1.736,0,0,0,.19-.381,3.029,3.029,0,0,1,.352.21q.078.063.078.107t-.078.1a.864.864,0,0,0-.244.239,8.961,8.961,0,0,1-.928,1.079q.288-.024.981-.107l-.19-.312A.06.06,0,0,1,14-6.323q0-.024.063-.054l.151-.073a.236.236,0,0,1,.063-.02q.024,0,.054.039A4.707,4.707,0,0,1,14.839-5.566Zm1.87,1.748a.069.069,0,0,1-.078.078l-.591-.02h-.41l-.586.02a.069.069,0,0,1-.078-.078l.024-.464v-.249l-.024-.454q0-.088.078-.088l.586.02h.41l.591-.02q.078,0,.078.088l-.02.454v.249Zm-.4-.283v-.61h-.942v.61Zm-4.072,1.89a19.729,19.729,0,0,1-.918,2.158,1.7,1.7,0,0,0-.19.43Q11.113.5,11.03.5a.23.23,0,0,1-.142-.059A3.807,3.807,0,0,1,10.459.1a3.9,3.9,0,0,0,.488-.747,14,14,0,0,0,.879-2.158,1.45,1.45,0,0,0,.293.288q.156.117.156.176A.368.368,0,0,1,12.236-2.212Zm.1-4.829q.034.034.034.054a.283.283,0,0,1-.063.107l-.21.239q-.068.083-.1.083a.093.093,0,0,1-.059-.034A6.942,6.942,0,0,0,10.8-7.632q-.054-.039-.054-.063t.068-.093L11-8.008q.063-.078.1-.078a.106.106,0,0,1,.054.024A6.718,6.718,0,0,1,12.339-7.041Zm-.322,2.393a.107.107,0,0,1,.039.063.225.225,0,0,1-.059.1l-.21.273q-.059.063-.078.063a.093.093,0,0,1-.059-.034,6.293,6.293,0,0,0-1.2-.972q-.054-.029-.054-.054a.186.186,0,0,1,.054-.093l.19-.254q.044-.059.073-.059a.166.166,0,0,1,.073.029A7.467,7.467,0,0,1,12.017-4.648Zm4.893-2.334a.073.073,0,0,1-.083.083l-.708-.02H15.5l-.728.02a.073.073,0,0,1-.083-.083v-.269q0-.078.083-.078l.728.02h.62l.708-.02q.083,0,.083.078Zm-.181-.776a.069.069,0,0,1-.078.078l-.581-.02h-.43l-.581.02a.069.069,0,0,1-.078-.078v-.249q0-.083.078-.083l.581.024h.43l.581-.024q.078,0,.078.083ZM16.68-5.5q0,.078-.083.078l-.557-.02h-.4l-.562.02A.069.069,0,0,1,15-5.5v-.239q0-.083.078-.083l.562.024h.4L16.6-5.82a.073.073,0,0,1,.083.083Zm0-.742q0,.078-.083.078l-.557-.02h-.4l-.562.02A.069.069,0,0,1,15-6.24v-.239a.069.069,0,0,1,.078-.078l.562.02h.4l.557-.02q.083,0,.083.078Zm-3.5,1.182a.151.151,0,0,1-.049.093.883.883,0,0,0-.122.259,6.19,6.19,0,0,1-.288.771q-.049.107-.093.107a.219.219,0,0,1-.088-.039,1.061,1.061,0,0,0-.269-.122,4.212,4.212,0,0,0,.347-.83,1.576,1.576,0,0,0,.083-.42,2.486,2.486,0,0,1,.356.093Q13.179-5.107,13.179-5.059Zm4.609,0a.151.151,0,0,1-.049.093.883.883,0,0,0-.122.259,5.935,5.935,0,0,1-.288.762q-.054.107-.093.107a.219.219,0,0,1-.088-.039A1.061,1.061,0,0,0,16.88-4a4.225,4.225,0,0,0,.347-.82,1.576,1.576,0,0,0,.083-.42,2.281,2.281,0,0,1,.356.093Q17.788-5.107,17.788-5.059Zm1.758.908a1.308,1.308,0,0,0-.259.122.218.218,0,0,1-.107.059q-.039,0-.083-.1a5.544,5.544,0,0,1-.366-.991.155.155,0,0,1-.01-.044q0-.034.1-.063L19-5.22a.269.269,0,0,1,.054-.01q.029,0,.044.054A4.514,4.514,0,0,0,19.546-4.15Zm-4.829-.166a.206.206,0,0,1,0,.034q0,.044-.083.063l-.2.049a.283.283,0,0,1-.073.015q-.039,0-.049-.063a4.081,4.081,0,0,0-.239-.889.112.112,0,0,1-.01-.034q0-.039.093-.059l.156-.039a.61.61,0,0,1,.063-.01q.029,0,.059.049A4.054,4.054,0,0,1,14.717-4.316Z" transform="translate(10.373 140.784)" fill="#4891f2"/>
            <path id="Path_1722" data-name="Path 1722" d="M9.375-3.662q0,.088-.093.088l-1.309-.02H2.056l-1.313.02q-.078,0-.078-.088v-.391a.069.069,0,0,1,.078-.078l1.313.02H4.624v-.962H3.213L1.8-5.054q-.068,0-.068-.078v-.381q0-.078.068-.078l1.411.02H4.624V-6.45h-1.9l-1.4.02a.069.069,0,0,1-.078-.078V-6.89a.069.069,0,0,1,.078-.078l1.4.02H5.664a10.241,10.241,0,0,0,.522-.9,1.856,1.856,0,0,0,.146-.459,3.649,3.649,0,0,1,.562.186q.112.059.112.122a.142.142,0,0,1-.093.122.58.58,0,0,0-.181.186q-.229.386-.488.742H7.314l1.392-.02a.069.069,0,0,1,.078.078v.381a.069.069,0,0,1-.078.078L7.314-6.45H5.225v.879H6.792l1.4-.02q.083,0,.083.078v.381q0,.078-.083.078l-1.4-.02H5.225v.962H7.974l1.309-.02q.093,0,.093.078ZM9.492.127a1.07,1.07,0,0,0-.249.391Q9.155.7,9.087.7A.75.75,0,0,1,8.96.679,5.731,5.731,0,0,1,4.9-1.812,3.509,3.509,0,0,1,3.853-.464,6.327,6.327,0,0,1,1.084.679,1.055,1.055,0,0,1,.947.7Q.874.7.8.527A1.145,1.145,0,0,0,.552.156,5.979,5.979,0,0,0,3.481-.879,2.613,2.613,0,0,0,4.36-2.021H2.3L.952-2A.069.069,0,0,1,.874-2.08v-.4a.069.069,0,0,1,.078-.078l1.348.02H4.512a2.81,2.81,0,0,0,.063-.576,1.782,1.782,0,0,0-.024-.3q.356.029.571.068.161.034.161.112a.33.33,0,0,1-.068.166,2.674,2.674,0,0,0-.112.532H7.729l1.353-.02a.069.069,0,0,1,.078.078v.4A.069.069,0,0,1,9.082-2l-1.353-.02H5.3A5.706,5.706,0,0,0,9.492.127Zm-5.479-7.5a.157.157,0,0,1,.024.068q0,.039-.107.088l-.259.132a.472.472,0,0,1-.127.049q-.034,0-.063-.059A3.525,3.525,0,0,0,2.9-7.969a.144.144,0,0,1-.039-.073q0-.049.1-.088l.269-.122a.3.3,0,0,1,.1-.029.124.124,0,0,1,.073.039A4.812,4.812,0,0,1,4.014-7.378Zm14.136,5.61a1.581,1.581,0,0,1-.342.747.607.607,0,0,1-.449.171q-.625,0-1.128-1.177A6.834,6.834,0,0,1,14.673-.815a.8.8,0,0,1-.142.068q-.059,0-.161-.132a1.223,1.223,0,0,0-.269-.259A5.627,5.627,0,0,0,16.03-2.559L16-2.646a13.367,13.367,0,0,1-.459-2.773H13.579l-1.367.02q-.093,0-.093-.078V-5.84q0-.078.093-.078l1.367.02h1.934a2.67,2.67,0,0,1-.01-.269A6.526,6.526,0,0,0,15.42-7a2.819,2.819,0,0,1,.542.049q.161.029.161.107a.376.376,0,0,1-.049.151.707.707,0,0,0-.034.278V-5.9h.449l1.382-.02a.069.069,0,0,1,.078.078v.361a.069.069,0,0,1-.078.078l-1.382-.02h-.42A14.951,14.951,0,0,0,16.421-3.1a4.839,4.839,0,0,0,.43-.874,3.356,3.356,0,0,0,.229-.786,2.507,2.507,0,0,1,.488.21q.1.049.1.127,0,.039-.112.151a2.288,2.288,0,0,0-.229.459A8.086,8.086,0,0,1,16.6-2.5a3.686,3.686,0,0,0,.43.845q.2.273.327.273.308,0,.4-.937a1.146,1.146,0,0,0,.293.264q.127.078.127.142A.771.771,0,0,1,18.149-1.768ZM14.888-2.949a.069.069,0,0,1-.078.078l-.747-.02h-.64l-.762.02a.069.069,0,0,1-.078-.078l.02-.63v-.493l-.02-.64a.069.069,0,0,1,.078-.078l.762.02h.64l.747-.02a.069.069,0,0,1,.078.078l-.02.64v.493Zm-.508-.342V-4.37H13.091v1.079Zm.82.693a1.931,1.931,0,0,0-.059.337.367.367,0,0,1-.049.19A.433.433,0,0,1,14.932-2q-.981.293-2.1.518a1.593,1.593,0,0,0-.41.132.26.26,0,0,1-.122.059q-.059,0-.1-.1a4.529,4.529,0,0,1-.151-.537,4.46,4.46,0,0,0,.889-.1A13.939,13.939,0,0,0,15.2-2.6Zm2.383-3.765a.106.106,0,0,1,.024.054q0,.02-.059.078l-.176.161a.283.283,0,0,1-.107.063q-.015,0-.054-.044a4.364,4.364,0,0,0-.649-.649q-.039-.029-.039-.044t.078-.078l.181-.137A.137.137,0,0,1,16.86-7a.112.112,0,0,1,.059.034A5.943,5.943,0,0,1,17.583-6.362ZM18.989.664q0,.078-.088.078h-.454a.069.069,0,0,1-.078-.078V.122H11.631V.664a.069.069,0,0,1-.078.078h-.464a.069.069,0,0,1-.078-.078l.02-3.745v-2l-.02-2.671a.069.069,0,0,1,.078-.078l1.392.02H17.52l1.382-.02q.088,0,.088.078l-.02,2.373v2.295ZM18.369-.41V-7.266H11.631V-.41Z" transform="translate(10.373 122.342)" fill="#efefef"/>
            <path id="Path_1721" data-name="Path 1721" d="M9.429-6.8a.069.069,0,0,1-.078.078l-1.4-.02H6.377v.815H7.49l1.372-.02a.069.069,0,0,1,.078.078l-.02.7V-4.5l.02.7a.069.069,0,0,1-.078.078L7.49-3.74h-2.6l-1.372.02A.069.069,0,0,1,3.438-3.8l.02-.7v-.674l-.02-.7a.069.069,0,0,1,.078-.078l1.372.02h.923v-.815H4.59L3.2-6.724A.069.069,0,0,1,3.12-6.8v-.381A.069.069,0,0,1,3.2-7.261l1.392.02H5.811V-7.52a3.791,3.791,0,0,0-.073-.84,5.351,5.351,0,0,1,.635.059q.117.015.117.078a.744.744,0,0,1-.049.161,1.367,1.367,0,0,0-.063.508v.313H7.949l1.4-.02a.069.069,0,0,1,.078.078ZM6.719-4.2v-1.27H5.62V-4.2Zm1.641,0v-1.27h-1.1V-4.2Zm-3.281,0v-1.27H4.009V-4.2Zm-2-1.362A.15.15,0,0,1,3-5.439a.917.917,0,0,0-.244.288,9.477,9.477,0,0,1-.557.894V-.669L2.217.62q0,.068-.078.068H1.675Q1.6.688,1.6.62l.02-1.289v-1.8q0-.361.02-1.079a8.359,8.359,0,0,1-.869.894q-.088.088-.132.088T.527-2.7a.934.934,0,0,0-.249-.317A8.01,8.01,0,0,0,2.295-5.479a2.127,2.127,0,0,0,.19-.493,2.115,2.115,0,0,1,.493.283Q3.076-5.605,3.076-5.562Zm6.333,2.91q0,.078-.083.078l-1.4-.02H4.38l-1.392.02a.069.069,0,0,1-.078-.078v-.381a.069.069,0,0,1,.078-.078l1.392.02H7.93l1.4-.02q.083,0,.083.078ZM8.066-.6a1.636,1.636,0,0,1-.186.669.809.809,0,0,1-.293.269A3.241,3.241,0,0,1,6.235.518,4.443,4.443,0,0,1,5.117.42a.557.557,0,0,1-.43-.591V-1.26a6.572,6.572,0,0,0-.039-.752,5.7,5.7,0,0,1,.605.063q.122.01.122.078a.6.6,0,0,1-.039.122,1.352,1.352,0,0,0-.059.479v.811a.342.342,0,0,0,.259.376A3.532,3.532,0,0,0,6.3-.024a2.5,2.5,0,0,0,.947-.117Q7.5-.278,7.52-1.03A1.774,1.774,0,0,0,7.9-.84q.181.063.181.142Q8.076-.679,8.066-.6ZM3.086-7.8q0,.063-.088.107a.936.936,0,0,0-.264.239A10.363,10.363,0,0,1,.957-5.6a.375.375,0,0,1-.151.078q-.034,0-.127-.142a.968.968,0,0,0-.269-.3A7.075,7.075,0,0,0,2.236-7.769a1.871,1.871,0,0,0,.234-.449,3.339,3.339,0,0,1,.518.288Q3.086-7.871,3.086-7.8ZM4.1-1.582A4.817,4.817,0,0,1,3.247.161q-.039.054-.073.054a.309.309,0,0,1-.1-.034L2.749.01q-.083-.044-.083-.078A.118.118,0,0,1,2.7-.132a4.027,4.027,0,0,0,.83-1.65q.02-.063.059-.063a.552.552,0,0,1,.122.034L4-1.7q.107.044.107.083A.079.079,0,0,1,4.1-1.582ZM9.58-.2a.155.155,0,0,1,.01.044q0,.034-.093.088L9.2.088a.273.273,0,0,1-.1.039q-.044,0-.068-.068a7.354,7.354,0,0,0-.9-1.577A.119.119,0,0,1,8.1-1.577q0-.029.088-.073l.288-.142a.268.268,0,0,1,.078-.024q.024,0,.063.049A8.488,8.488,0,0,1,9.58-.2ZM7.217-1.392a.087.087,0,0,1,.024.054q0,.034-.063.088l-.249.19a.312.312,0,0,1-.122.068q-.024,0-.059-.049a5.882,5.882,0,0,0-.9-.981q-.039-.029-.039-.049t.088-.1l.22-.151a.217.217,0,0,1,.093-.054.112.112,0,0,1,.059.034A6.15,6.15,0,0,1,7.217-1.392Zm10.933-.376a1.581,1.581,0,0,1-.342.747.607.607,0,0,1-.449.171q-.625,0-1.128-1.177A6.834,6.834,0,0,1,14.673-.815a.8.8,0,0,1-.142.068q-.059,0-.161-.132a1.223,1.223,0,0,0-.269-.259A5.627,5.627,0,0,0,16.03-2.559L16-2.646a13.367,13.367,0,0,1-.459-2.773H13.579l-1.367.02q-.093,0-.093-.078V-5.84q0-.078.093-.078l1.367.02h1.934a2.67,2.67,0,0,1-.01-.269A6.526,6.526,0,0,0,15.42-7a2.819,2.819,0,0,1,.542.049q.161.029.161.107a.376.376,0,0,1-.049.151.707.707,0,0,0-.034.278V-5.9h.449l1.382-.02a.069.069,0,0,1,.078.078v.361a.069.069,0,0,1-.078.078l-1.382-.02h-.42A14.951,14.951,0,0,0,16.421-3.1a4.839,4.839,0,0,0,.43-.874,3.356,3.356,0,0,0,.229-.786,2.507,2.507,0,0,1,.488.21q.1.049.1.127,0,.039-.112.151a2.288,2.288,0,0,0-.229.459A8.086,8.086,0,0,1,16.6-2.5a3.686,3.686,0,0,0,.43.845q.2.273.327.273.308,0,.4-.937a1.146,1.146,0,0,0,.293.264q.127.078.127.142A.771.771,0,0,1,18.149-1.768ZM14.888-2.949a.069.069,0,0,1-.078.078l-.747-.02h-.64l-.762.02a.069.069,0,0,1-.078-.078l.02-.63v-.493l-.02-.64a.069.069,0,0,1,.078-.078l.762.02h.64l.747-.02a.069.069,0,0,1,.078.078l-.02.64v.493Zm-.508-.342V-4.37H13.091v1.079Zm.82.693a1.931,1.931,0,0,0-.059.337.367.367,0,0,1-.049.19A.433.433,0,0,1,14.932-2q-.981.293-2.1.518a1.593,1.593,0,0,0-.41.132.26.26,0,0,1-.122.059q-.059,0-.1-.1a4.529,4.529,0,0,1-.151-.537,4.46,4.46,0,0,0,.889-.1A13.939,13.939,0,0,0,15.2-2.6Zm2.383-3.765a.106.106,0,0,1,.024.054q0,.02-.059.078l-.176.161a.283.283,0,0,1-.107.063q-.015,0-.054-.044a4.364,4.364,0,0,0-.649-.649q-.039-.029-.039-.044t.078-.078l.181-.137A.137.137,0,0,1,16.86-7a.112.112,0,0,1,.059.034A5.943,5.943,0,0,1,17.583-6.362ZM18.989.664q0,.078-.088.078h-.454a.069.069,0,0,1-.078-.078V.122H11.631V.664a.069.069,0,0,1-.078.078h-.464a.069.069,0,0,1-.078-.078l.02-3.745v-2l-.02-2.671a.069.069,0,0,1,.078-.078l1.392.02H17.52l1.382-.02q.088,0,.088.078l-.02,2.373v2.295ZM18.369-.41V-7.266H11.631V-.41Z" transform="translate(10.373 103.901)" fill="#efefef"/>
            <path id="Path_1720" data-name="Path 1720" d="M9.429-4.243q0,.078-.083.078l-1.367-.02H6.5A8.709,8.709,0,0,1,6.147-3.13H7.627l1.323-.02a.069.069,0,0,1,.078.078l-.02,1.06v.723l.01,1.128a.706.706,0,0,1-.21.591,1.7,1.7,0,0,1-.82.151A.39.39,0,0,1,7.8.557.226.226,0,0,1,7.749.42.937.937,0,0,0,7.578.01q.269.02.581.02A.294.294,0,0,0,8.4-.054.409.409,0,0,0,8.457-.3V-2.632H7.388V-.811l.02,1.1q0,.083-.088.083H6.938Q6.86.371,6.86.288l.02-1.1V-2.632H5.859V-.811l.02,1.1q0,.083-.088.083H5.41q-.078,0-.078-.083l.02-1.1V-2.632h-1v2.08L4.37.591a.069.069,0,0,1-.078.078H3.857A.069.069,0,0,1,3.779.591L3.8-.552V-2.061l-.02-1.011a.069.069,0,0,1,.078-.078L5.2-3.13h.352a7.141,7.141,0,0,0,.356-1.055H4.951l-1.382.02q-.083,0-.083-.078v-.4q0-.078.083-.078l1.382.02H7.979l1.367-.02q.083,0,.083.078ZM3.33-7.051q0,.093-.083.093l-.869-.02H2.31v2.09l.781-.02a.069.069,0,0,1,.078.078v.42a.069.069,0,0,1-.078.078l-.781-.02v2.29l1-.449a1.318,1.318,0,0,0-.024.259q0,.054,0,.1.01.093.01.132,0,.093-.161.176a18.17,18.17,0,0,1-1.772.752A2.294,2.294,0,0,0,.9-.9.193.193,0,0,1,.767-.83q-.059,0-.107-.1-.054-.127-.19-.552a7.556,7.556,0,0,0,.942-.239l.317-.112v-2.52H1.606l-.786.02q-.083,0-.083-.078v-.42q0-.078.083-.078l.786.02h.122v-2.09H1.548l-.859.02q-.078,0-.078-.093v-.41a.069.069,0,0,1,.078-.078l.859.02h.83l.869-.02q.083,0,.083.078Zm5.649-.557a.552.552,0,0,1-.039.127,1.242,1.242,0,0,0-.059.469v.61l.02.762a.069.069,0,0,1-.078.078l-1.3-.02H5.308l-1.289.02A.069.069,0,0,1,3.94-5.64L3.96-6.4v-.61a3.234,3.234,0,0,0-.073-.747,4.632,4.632,0,0,1,.6.059q.112.015.112.083a.519.519,0,0,1-.049.166,1.2,1.2,0,0,0-.054.439v.933H6.089V-7.251A6.1,6.1,0,0,0,6.03-8.271q.239.01.62.054.112.015.112.078a.645.645,0,0,1-.063.181,3.037,3.037,0,0,0-.049.708v1.172H8.32V-7a4.065,4.065,0,0,0-.059-.762,5.46,5.46,0,0,1,.605.059Q8.979-7.686,8.979-7.607ZM19.312-4.3a.069.069,0,0,1-.078.078L17.9-4.238H15.264V-.41H17.29l1.392-.02a.069.069,0,0,1,.078.078V.1a.069.069,0,0,1-.078.078L17.29.161H12.715l-1.392.02Q11.24.181,11.24.1V-.352q0-.078.083-.078l1.392.02h1.9V-4.238h-2.49l-1.323.02a.069.069,0,0,1-.078-.078v-.464a.069.069,0,0,1,.078-.078l1.323.02h2.49v-2a7.573,7.573,0,0,0-.073-1.26,6.391,6.391,0,0,1,.723.063q.112.015.112.088a.48.48,0,0,1-.054.171,3.658,3.658,0,0,0-.059.9v2.041H17.9l1.333-.02a.069.069,0,0,1,.078.078Z" transform="translate(10.373 84.764)" fill="#efefef"/>
            <path id="Path_1719" data-name="Path 1719" d="M6.455-.986q0,.078-.083.078H5.981A.069.069,0,0,1,5.9-.986v-.322H4.243V-.8q0,.083-.078.083h-.4A.073.073,0,0,1,3.682-.8L3.7-2.295V-2.93l-.02-.9a.069.069,0,0,1,.078-.078l.894.02h.83l.894-.02a.069.069,0,0,1,.078.078l-.02.742v.669ZM5.9-1.807V-3.389H4.243v1.582ZM9.395-5q0,.078-.083.078l-.137,0q-.425-.01-.981-.015V-1.7L8.2-.312A.943.943,0,0,1,7.964.43a1.017,1.017,0,0,1-.43.176,4.666,4.666,0,0,1-.747.044H6.611A.362.362,0,0,1,6.421.62.364.364,0,0,1,6.372.449,1.363,1.363,0,0,0,6.191.01a7.548,7.548,0,0,0,.82.049A.67.67,0,0,0,7.48-.063a.464.464,0,0,0,.1-.337V-4.937H4.9l-1.4.02q-.068,0-.068-.078V-5.4q0-.088.068-.088l1.4.02H7.935l1.377-.02q.083,0,.083.088ZM9.351-6.938q0,.078-.068.078L7.974-6.88H6.592l.02.688q0,.083-.078.083H6.094a.073.073,0,0,1-.083-.083l.02-.688H3.94l.02.688q0,.083-.078.083H3.442a.073.073,0,0,1-.083-.083l.02-.688H2.031l-1.3.02q-.083,0-.083-.078v-.425q0-.078.083-.078l1.3.02H3.379a5.446,5.446,0,0,0-.068-.908q.3.015.62.054.112.015.112.088A.266.266,0,0,1,4-8.057a1.728,1.728,0,0,0-.063.635H6.03a4.788,4.788,0,0,0-.059-.908q.425.02.61.039.107.02.107.093a.346.346,0,0,1-.039.142,1.864,1.864,0,0,0-.059.635H7.974l1.309-.02q.068,0,.068.078Zm-6.06,1.1q0,.054-.088.132a.925.925,0,0,0-.181.278q-.229.469-.571,1.03v3.73L2.471.64q0,.068-.078.068H1.909q-.078,0-.078-.068l.02-1.309v-1.7q0-.044.029-1.24a8,8,0,0,1-1,1.069q-.1.088-.137.088T.62-2.568A1.164,1.164,0,0,0,.361-2.9,6.963,6.963,0,0,0,2.49-5.649a2.417,2.417,0,0,0,.161-.532q.337.132.518.22Q3.291-5.894,3.291-5.84ZM17.617-3.486q0,.078-.068.078l-1.328-.02h-1V-3h.61l1.2-.02a.069.069,0,0,1,.078.078l-.02.63v.479l.02.625a.069.069,0,0,1-.078.078l-1.2-.024h-.391a5.7,5.7,0,0,0,1.929.933,1.161,1.161,0,0,0-.229.288Q17.07.2,17.021.2A.373.373,0,0,1,16.89.156a5.32,5.32,0,0,1-1.7-1.128q0,.684.029,1.147,0,.078.015.244,0,.068,0,.088,0,.083-.078.083H14.81q-.078,0-.078-.083,0-.02.01-.186.034-.508.049-1.294A6.087,6.087,0,0,1,12.661.371a.6.6,0,0,1-.151.044q-.054,0-.132-.137A.849.849,0,0,0,12.139.02a6.6,6.6,0,0,0,2.329-1.172h-.239l-1.2.024a.069.069,0,0,1-.078-.078l.02-.625V-2.31l-.02-.63a.069.069,0,0,1,.078-.078l1.2.02h.522v-.43h-.933l-1.328.02q-.083,0-.083-.078V-3.75q0-.078.083-.078l1.328.02h.933a3.369,3.369,0,0,0-.063-.571,3.966,3.966,0,0,1,.513.049q.117.02.117.073a.47.47,0,0,1-.049.117.826.826,0,0,0-.049.332h1l1.328-.02q.068,0,.068.078Zm-1,2.026v-.459H15.21v.459Zm0-.767v-.444H15.21v.444Zm-1.86.767v-.459H13.438v.459Zm0-.767v-.444H13.438v.444Zm4.2,1.9a1.372,1.372,0,0,1-.068.5A.592.592,0,0,1,18.7.42a1.822,1.822,0,0,1-1.03.19.332.332,0,0,1-.19-.034A.391.391,0,0,1,17.427.42,1.129,1.129,0,0,0,17.28.029a6.253,6.253,0,0,0,.669.039q.283,0,.356-.1a.658.658,0,0,0,.073-.376V-4.36H16.6l-1.064.02a.069.069,0,0,1-.078-.078l.02-.669v-.654l-.02-.688a.069.069,0,0,1,.078-.078l1.064.02h1.206l1.064-.02a.069.069,0,0,1,.078.078l-.02,1.2v3.511Zm-.581-4.419v-.508H16.011v.508Zm0-.869V-6.1H16.011v.488ZM14.521-4.419a.069.069,0,0,1-.078.078l-.986-.02H11.689V-.942L11.7.64a.06.06,0,0,1-.068.068h-.444q-.078,0-.078-.068l.02-1.582V-4.849l-.02-1.582a.069.069,0,0,1,.078-.078l1.113.02h1.157l.986-.02a.069.069,0,0,1,.078.078L14.5-5.7v.547Zm-.552-.322v-.508h-2.28v.508Zm0-.869V-6.1h-2.28v.488ZM19.36-7.241q0,.068-.083.068l-1.3-.02H16.611l.02.42q0,.068-.083.068h-.42q-.078,0-.078-.068,0-.02,0-.142t.015-.278h-2.2l.024.41q0,.068-.083.068h-.42q-.078,0-.078-.068,0-.02,0-.142t.015-.269H12.051l-1.313.02q-.078,0-.078-.068v-.371a.069.069,0,0,1,.078-.078l1.313.02H13.33a3.055,3.055,0,0,0-.073-.679q.425.015.6.039.112.02.112.088a.287.287,0,0,1-.049.132.994.994,0,0,0-.054.42h2.2A3.264,3.264,0,0,0,16-8.35q.42.015.6.039.107.02.107.088a.287.287,0,0,1-.049.132,1.085,1.085,0,0,0-.049.42h1.367l1.3-.02q.083,0,.083.078Z" transform="translate(10.373 66.323)" fill="#efefef"/>
            <path id="Path_1718" data-name="Path 1718" d="M7.617-3.184l-.039.723A7.674,7.674,0,0,1,7.148.083a.9.9,0,0,1-.869.488q-.43,0-.762-.029A.31.31,0,0,1,5.342.493.6.6,0,0,1,5.288.313a1.548,1.548,0,0,0-.142-.425A5.044,5.044,0,0,0,6.1-.02a.71.71,0,0,0,.366-.073.545.545,0,0,0,.19-.269A8.656,8.656,0,0,0,6.968-2.72H4.829a3.976,3.976,0,0,1-1.167,2.2,5.1,5.1,0,0,1-2.2,1.1A.953.953,0,0,1,1.328.6Q1.27.6,1.177.43A1.163,1.163,0,0,0,.9.068,4.824,4.824,0,0,0,3.262-.967,3.12,3.12,0,0,0,4.209-2.72H3.8L2.476-2.7q-.068,0-.068-.078v-.415q0-.078.068-.078l1.323.02H6.2l1.333-.02A.078.078,0,0,1,7.617-3.184ZM9.355-6.768a.069.069,0,0,1-.078.078l-1.309-.02H6.577l.02.659q0,.093-.078.093H6.079Q6-5.957,6-6.05l.01-.2q0-.21.01-.459h-2.1l.02.669q0,.083-.078.083H3.418q-.078,0-.078-.083l0-.205q.01-.215.015-.464H2.036l-1.309.02a.069.069,0,0,1-.078-.078V-7.2A.069.069,0,0,1,.728-7.28l1.309.02H3.359A5.121,5.121,0,0,0,3.3-8.281a4.85,4.85,0,0,1,.62.059q.112.02.112.083A.25.25,0,0,1,3.979-8a2.269,2.269,0,0,0-.063.742h2.1a4.833,4.833,0,0,0-.068-1.03,5.412,5.412,0,0,1,.63.059q.1.02.1.093a.3.3,0,0,1-.039.127,2.408,2.408,0,0,0-.063.752H7.969l1.309-.02a.069.069,0,0,1,.078.078Zm.1,3.9a1.5,1.5,0,0,0-.3.381q-.088.151-.117.151a.375.375,0,0,1-.151-.078A7.469,7.469,0,0,1,7.373-3.662,6.6,6.6,0,0,1,6.46-4.971H4.966l-.889.02A.069.069,0,0,1,4-5.029v-.41q0-.083.078-.083l.889.02h.9l.9-.02a.1.1,0,0,1,.1.078,2.014,2.014,0,0,0,.171.371A5.453,5.453,0,0,0,9.458-2.871ZM3.589-4.99a.172.172,0,0,1-.088.132.908.908,0,0,0-.244.288,8,8,0,0,1-2.168,2.1.375.375,0,0,1-.151.078q-.039,0-.132-.151a1.327,1.327,0,0,0-.288-.3A5.987,5.987,0,0,0,2.729-4.829a2.25,2.25,0,0,0,.249-.518q.356.151.513.239Q3.589-5.044,3.589-4.99Zm14.028,1.5q0,.078-.068.078l-1.328-.02h-1V-3h.61l1.2-.02a.069.069,0,0,1,.078.078l-.02.63v.479l.02.625a.069.069,0,0,1-.078.078l-1.2-.024h-.391a5.7,5.7,0,0,0,1.929.933,1.161,1.161,0,0,0-.229.288Q17.07.2,17.021.2A.373.373,0,0,1,16.89.156a5.32,5.32,0,0,1-1.7-1.128q0,.684.029,1.147,0,.078.015.244,0,.068,0,.088,0,.083-.078.083H14.81q-.078,0-.078-.083,0-.02.01-.186.034-.508.049-1.294A6.087,6.087,0,0,1,12.661.371a.6.6,0,0,1-.151.044q-.054,0-.132-.137A.849.849,0,0,0,12.139.02a6.6,6.6,0,0,0,2.329-1.172h-.239l-1.2.024a.069.069,0,0,1-.078-.078l.02-.625V-2.31l-.02-.63a.069.069,0,0,1,.078-.078l1.2.02h.522v-.43h-.933l-1.328.02q-.083,0-.083-.078V-3.75q0-.078.083-.078l1.328.02h.933a3.369,3.369,0,0,0-.063-.571,3.966,3.966,0,0,1,.513.049q.117.02.117.073a.47.47,0,0,1-.049.117.826.826,0,0,0-.049.332h1l1.328-.02q.068,0,.068.078Zm-1,2.026v-.459H15.21v.459Zm0-.767v-.444H15.21v.444Zm-1.86.767v-.459H13.438v.459Zm0-.767v-.444H13.438v.444Zm4.2,1.9a1.372,1.372,0,0,1-.068.5A.592.592,0,0,1,18.7.42a1.822,1.822,0,0,1-1.03.19.332.332,0,0,1-.19-.034A.391.391,0,0,1,17.427.42,1.129,1.129,0,0,0,17.28.029a6.253,6.253,0,0,0,.669.039q.283,0,.356-.1a.658.658,0,0,0,.073-.376V-4.36H16.6l-1.064.02a.069.069,0,0,1-.078-.078l.02-.669v-.654l-.02-.688a.069.069,0,0,1,.078-.078l1.064.02h1.206l1.064-.02a.069.069,0,0,1,.078.078l-.02,1.2v3.511Zm-.581-4.419v-.508H16.011v.508Zm0-.869V-6.1H16.011v.488ZM14.521-4.419a.069.069,0,0,1-.078.078l-.986-.02H11.689V-.942L11.7.64a.06.06,0,0,1-.068.068h-.444q-.078,0-.078-.068l.02-1.582V-4.849l-.02-1.582a.069.069,0,0,1,.078-.078l1.113.02h1.157l.986-.02a.069.069,0,0,1,.078.078L14.5-5.7v.547Zm-.552-.322v-.508h-2.28v.508Zm0-.869V-6.1h-2.28v.488ZM19.36-7.241q0,.068-.083.068l-1.3-.02H16.611l.02.42q0,.068-.083.068h-.42q-.078,0-.078-.068,0-.02,0-.142t.015-.278h-2.2l.024.41q0,.068-.083.068h-.42q-.078,0-.078-.068,0-.02,0-.142t.015-.269H12.051l-1.313.02q-.078,0-.078-.068v-.371a.069.069,0,0,1,.078-.078l1.313.02H13.33a3.055,3.055,0,0,0-.073-.679q.425.015.6.039.112.02.112.088a.287.287,0,0,1-.049.132.994.994,0,0,0-.054.42h2.2A3.264,3.264,0,0,0,16-8.35q.42.015.6.039.107.02.107.088a.287.287,0,0,1-.049.132,1.085,1.085,0,0,0-.049.42h1.367l1.3-.02q.083,0,.083.078Z" transform="translate(10.373 47.882)" fill="#efefef"/>
            <path id="Path_1717" data-name="Path 1717" d="M9.609-2.271A1.387,1.387,0,0,0,9.3-1.89q-.068.142-.107.142a.36.36,0,0,1-.151-.059A9.034,9.034,0,0,1,6.5-3.77H3.428A9.127,9.127,0,0,1,1.06-1.758a.621.621,0,0,1-.142.068q-.039,0-.132-.151A.85.85,0,0,0,.5-2.168a7.653,7.653,0,0,0,2.2-1.6H2.1L.776-3.75Q.7-3.75.7-3.838v-.371a.069.069,0,0,1,.078-.078l1.323.02H3.12a5.764,5.764,0,0,0,.61-1.045H3.276l-1.4.024A.073.073,0,0,1,1.8-5.371v-.371q0-.078.083-.078l1.4.02H3.94q.117-.322.288-.923H2.69L1.3-6.7q-.083,0-.083-.078v-.381q0-.078.083-.078l1.392.02H4.346a4.53,4.53,0,0,0,.132-.918q0-.1-.01-.2a4.041,4.041,0,0,1,.62.088q.161.034.161.112A.241.241,0,0,1,5.19-8a2.3,2.3,0,0,0-.225.693l-.02.088H7.266l1.392-.02q.083,0,.083.078v.381q0,.078-.083.078l-1.392-.02H4.829q-.171.6-.293.923H6.748l1.4-.02a.069.069,0,0,1,.078.078v.371q0,.083-.078.083l-1.4-.024H6.079a5.284,5.284,0,0,0,.659,1.045H7.91l1.318-.02a.069.069,0,0,1,.078.078v.371q0,.088-.078.088L7.91-3.77H7.2A8.636,8.636,0,0,0,9.609-2.271Zm-3.5-2a7.3,7.3,0,0,1-.591-1.045H4.346a7.863,7.863,0,0,1-.557,1.045Zm-.757.957a.61.61,0,0,1-.063.19,2.657,2.657,0,0,0-.049.679v1.313l.02.9A.753.753,0,0,1,4.99.43,2.355,2.355,0,0,1,3.857.6.305.305,0,0,1,3.682.571.445.445,0,0,1,3.618.4a1.093,1.093,0,0,0-.2-.42A6.53,6.53,0,0,0,4.189.02a.548.548,0,0,0,.386-.1.358.358,0,0,0,.093-.278v-2.1A4.725,4.725,0,0,0,4.6-3.452q.1,0,.63.063Q5.352-3.374,5.352-3.311ZM8.916-.19a.914.914,0,0,0-.288.313Q8.54.269,8.481.269A.615.615,0,0,1,8.34.234a8.9,8.9,0,0,1-2.573-1.4q-.039-.029-.039-.054t.093-.1l.186-.151a.219.219,0,0,1,.107-.059.1.1,0,0,1,.054.029A7.538,7.538,0,0,0,8.916-.19ZM4.16-1.23a1.055,1.055,0,0,1,.02.137q0,.073-.171.166a13.418,13.418,0,0,1-1.973.869,1.087,1.087,0,0,0-.347.151.231.231,0,0,1-.132.078Q1.5.171,1.45.083a3.814,3.814,0,0,1-.2-.513,4.02,4.02,0,0,0,.679-.161,12.576,12.576,0,0,0,2.207-.957v.088A1.283,1.283,0,0,0,4.16-1.23ZM7.217-2.6q0,.059-.088.088a.6.6,0,0,0-.21.132,7.89,7.89,0,0,1-.771.63.413.413,0,0,1-.142.078q-.039,0-.156-.122a1.294,1.294,0,0,0-.254-.19,4.566,4.566,0,0,0,.9-.708A1.345,1.345,0,0,0,6.719-3a4.793,4.793,0,0,1,.41.269A.172.172,0,0,1,7.217-2.6Zm-3.11.479q.039.034.039.059t-.059.078l-.181.2q-.078.1-.117.1T3.73-1.729a4.247,4.247,0,0,0-.884-.781q-.034-.02-.034-.044t.073-.107l.181-.181A.164.164,0,0,1,3.159-2.9a.166.166,0,0,1,.059.024A5.19,5.19,0,0,1,4.106-2.119Zm14.043.352a1.581,1.581,0,0,1-.342.747.607.607,0,0,1-.449.171q-.625,0-1.128-1.177A6.834,6.834,0,0,1,14.673-.815a.8.8,0,0,1-.142.068q-.059,0-.161-.132a1.223,1.223,0,0,0-.269-.259A5.627,5.627,0,0,0,16.03-2.559L16-2.646a13.367,13.367,0,0,1-.459-2.773H13.579l-1.367.02q-.093,0-.093-.078V-5.84q0-.078.093-.078l1.367.02h1.934a2.67,2.67,0,0,1-.01-.269A6.526,6.526,0,0,0,15.42-7a2.819,2.819,0,0,1,.542.049q.161.029.161.107a.376.376,0,0,1-.049.151.707.707,0,0,0-.034.278V-5.9h.449l1.382-.02a.069.069,0,0,1,.078.078v.361a.069.069,0,0,1-.078.078l-1.382-.02h-.42A14.951,14.951,0,0,0,16.421-3.1a4.839,4.839,0,0,0,.43-.874,3.356,3.356,0,0,0,.229-.786,2.507,2.507,0,0,1,.488.21q.1.049.1.127,0,.039-.112.151a2.288,2.288,0,0,0-.229.459A8.086,8.086,0,0,1,16.6-2.5a3.686,3.686,0,0,0,.43.845q.2.273.327.273.308,0,.4-.937a1.146,1.146,0,0,0,.293.264q.127.078.127.142A.771.771,0,0,1,18.149-1.768ZM14.888-2.949a.069.069,0,0,1-.078.078l-.747-.02h-.64l-.762.02a.069.069,0,0,1-.078-.078l.02-.63v-.493l-.02-.64a.069.069,0,0,1,.078-.078l.762.02h.64l.747-.02a.069.069,0,0,1,.078.078l-.02.64v.493Zm-.508-.342V-4.37H13.091v1.079Zm.82.693a1.931,1.931,0,0,0-.059.337.367.367,0,0,1-.049.19A.433.433,0,0,1,14.932-2q-.981.293-2.1.518a1.593,1.593,0,0,0-.41.132.26.26,0,0,1-.122.059q-.059,0-.1-.1a4.529,4.529,0,0,1-.151-.537,4.46,4.46,0,0,0,.889-.1A13.939,13.939,0,0,0,15.2-2.6Zm2.383-3.765a.106.106,0,0,1,.024.054q0,.02-.059.078l-.176.161a.283.283,0,0,1-.107.063q-.015,0-.054-.044a4.364,4.364,0,0,0-.649-.649q-.039-.029-.039-.044t.078-.078l.181-.137A.137.137,0,0,1,16.86-7a.112.112,0,0,1,.059.034A5.943,5.943,0,0,1,17.583-6.362ZM18.989.664q0,.078-.088.078h-.454a.069.069,0,0,1-.078-.078V.122H11.631V.664a.069.069,0,0,1-.078.078h-.464a.069.069,0,0,1-.078-.078l.02-3.745v-2l-.02-2.671a.069.069,0,0,1,.078-.078l1.392.02H17.52l1.382-.02q.088,0,.088.078l-.02,2.373v2.295ZM18.369-.41V-7.266H11.631V-.41Z" transform="translate(10.373 29.441)" fill="#efefef"/>
            <path id="Path_1716" data-name="Path 1716" d="M9.37-3.218q0,.088-.078.088l-1.3-.02H2.021l-1.3.02Q.64-3.13.64-3.218V-3.54a.069.069,0,0,1,.078-.078l1.3.02H4.668v-.62H2.832l-1.4.01q-.083,0-.083-.068V-4.6q0-.078.083-.078l1.4.02H4.668v-.62H3.359l-1.431.02a.069.069,0,0,1-.078-.078l.02-.815v-.889l-.02-.811a.069.069,0,0,1,.078-.078l1.431.02H6.631l1.431-.02a.069.069,0,0,1,.078.078l-.02.811v.889l.02.815a.069.069,0,0,1-.078.078l-1.431-.02h-1.4v.62H7.168l1.4-.02a.069.069,0,0,1,.078.078v.322q0,.068-.078.068l-1.4-.01H5.229v.62H7.988l1.3-.02a.069.069,0,0,1,.078.078ZM7.559-5.688v-.693H5.229v.693Zm0-1.1v-.679H5.229v.679Zm-2.891,1.1v-.693H2.432v.693Zm0-1.1v-.679H2.432v.679ZM9.2.332A.069.069,0,0,1,9.121.41L7.788.391H2.261L.918.41A.069.069,0,0,1,.84.332V-.049A.069.069,0,0,1,.918-.127l1.343.02h2.4V-.889H3.4L2-.869q-.093,0-.093-.078V-1.3q0-.078.093-.078l1.4.02h1.26V-1.4a4.348,4.348,0,0,0-.068-.879,5.437,5.437,0,0,1,.62.059q.107.015.107.078A.405.405,0,0,1,5.278-2a2.161,2.161,0,0,0-.059.6v.039H6.68l1.411-.02a.069.069,0,0,1,.078.078v.352a.069.069,0,0,1-.078.078L6.68-.889H5.22v.781H7.788l1.333-.02A.069.069,0,0,1,9.2-.049ZM2.329-2.632A5.781,5.781,0,0,1,1.211-1.45a.16.16,0,0,1-.078.044A.186.186,0,0,1,1.04-1.46L.8-1.66q-.078-.068-.078-.1t.039-.054A3.863,3.863,0,0,0,1.8-2.881q.034-.054.068-.054a.31.31,0,0,1,.117.044l.254.132q.107.054.107.088A.056.056,0,0,1,2.329-2.632Zm6.729.8a.1.1,0,0,1,.02.049q0,.034-.088.093l-.249.161a.291.291,0,0,1-.117.049q-.034,0-.063-.054a6.921,6.921,0,0,0-.952-1.128q-.039-.034-.039-.054T7.661-2.8l.229-.122a.319.319,0,0,1,.1-.039.143.143,0,0,1,.078.039A7.719,7.719,0,0,1,9.058-1.831ZM4.131-1.87q0,.02,0,.029,0,.059-.122.083l-.278.049a.689.689,0,0,1-.088.01q-.054,0-.063-.083A4.292,4.292,0,0,0,3.4-2.71a.206.206,0,0,1,0-.034q0-.034.117-.054l.259-.054a.274.274,0,0,1,.063-.01q.049,0,.078.073A3.952,3.952,0,0,1,4.131-1.87ZM6.5-1.948a.092.092,0,0,1,0,.029q0,.044-.1.078l-.283.1a.344.344,0,0,1-.073.015q-.039,0-.063-.078a5.035,5.035,0,0,0-.4-.9.083.083,0,0,1-.015-.039q0-.029.093-.059l.259-.083a.269.269,0,0,1,.073-.02q.024,0,.059.049A5.431,5.431,0,0,1,6.5-1.948ZM19.326-7.065a.069.069,0,0,1-.078.078l-1.313-.02H16.089v1.538h1.1l1.411-.02a.069.069,0,0,1,.078.078l-.02,1.733v1.67L18.677.5A.069.069,0,0,1,18.6.581h-.474A.069.069,0,0,1,18.047.5V-.068H11.929V.522A.069.069,0,0,1,11.851.6h-.464a.069.069,0,0,1-.078-.078L11.328-2V-3.486l-.02-1.924a.069.069,0,0,1,.078-.078l1.411.02h.942q.02-.64.02-1.04v-.5H12.07l-1.313.02a.069.069,0,0,1-.078-.078V-7.52a.069.069,0,0,1,.078-.078l1.313.02h5.864l1.313-.02a.069.069,0,0,1,.078.078ZM18.047-.63V-4.917H16.089V-3.33q0,.371.1.439a.813.813,0,0,0,.4.068.8.8,0,0,0,.449-.088.509.509,0,0,0,.137-.342,7.348,7.348,0,0,0,.034-.776,1.454,1.454,0,0,0,.361.19.3.3,0,0,1,.151.083.236.236,0,0,1,.029.137.8.8,0,0,1,0,.088q-.044.884-.317,1.079a1.377,1.377,0,0,1-.811.19,1.988,1.988,0,0,1-.84-.132q-.288-.142-.288-.664v-1.86H14.3a5.051,5.051,0,0,1-.464,1.826A3.226,3.226,0,0,1,12.778-1.9a.243.243,0,0,1-.142.068q-.059,0-.166-.107a1.079,1.079,0,0,0-.352-.229,3,3,0,0,0,1.2-1.245,4.414,4.414,0,0,0,.376-1.5H11.929V-.63ZM15.488-5.469V-7.007H14.36v.527q0,.371-.02,1.011ZM29.38-3.306a.069.069,0,0,1-.078.078l-1.309-.02h-.142V-1.5l.01,1.221a.806.806,0,0,1-.273.708A2.662,2.662,0,0,1,26.309.6a.318.318,0,0,1-.19-.034A.316.316,0,0,1,26.05.41a1.405,1.405,0,0,0-.19-.4q.464.039.913.039a.6.6,0,0,0,.386-.088.38.38,0,0,0,.093-.293V-3.247H22l-1.3.02a.069.069,0,0,1-.078-.078v-.415A.069.069,0,0,1,20.7-3.8l1.3.02h5.991L29.3-3.8a.069.069,0,0,1,.078.078Zm-.22-3.931a.069.069,0,0,1-.078.078l-1.23-.02V-6.1l.01,1.123a1.212,1.212,0,0,1-.063.454.61.61,0,0,1-.21.234,2.152,2.152,0,0,1-1.069.161h-.2a.392.392,0,0,1-.2-.029.33.33,0,0,1-.059-.151,1.054,1.054,0,0,0-.2-.4q.469.039.913.039a.612.612,0,0,0,.391-.088.368.368,0,0,0,.088-.283V-7.178H22.3l-1.348.02q-.083,0-.083-.078v-.415q0-.078.083-.078l1.348.02h5.43l1.353-.02a.069.069,0,0,1,.078.078ZM25.449-.308q0,.078-.083.078h-.42a.069.069,0,0,1-.078-.078V-.64H22.69v.508a.073.073,0,0,1-.083.083h-.42q-.078,0-.078-.083l.02-1.235v-.444l-.02-.659a.069.069,0,0,1,.078-.078l1.021.02h1.138l1.021-.02q.083,0,.083.078l-.02.542v.459ZM24.868-1.1V-2.07H22.69V-1.1Zm.581-3.672q0,.078-.083.078l-1-.02H23.262l-1.016.02a.069.069,0,0,1-.078-.078l.02-.591V-5.84l-.02-.591a.069.069,0,0,1,.078-.078l1.016.02H24.37l1-.02q.083,0,.083.078l-.02.591v.479Zm-.571-.391V-6.04H22.739v.879Z" transform="translate(0 11)" fill="#efefef"/>
          </g>
        </g>
        <line id="Line_479" data-name="Line 479" x1="0.739" y2="209.239" transform="translate(190.271)" fill="none" stroke="#707070" stroke-width="1" stroke-dasharray="1"/>
      </g>
      <path id="p" d="M2.93,8.13c.89,0,1.33.63,1.33,1.62s-.55,1.67-1.25,1.67c-.92,0-1.47-.83-1.58-2.35A1.9,1.9,0,0,1,2.93,8.13Zm.08,4a2.2,2.2,0,0,0,2.1-2.38c0-1.53-.79-2.3-2.03-2.3a2.28,2.28,0,0,0-1.67.89c.04-2.28.89-3.05,1.89-3.05a1.55,1.55,0,0,1,1.18.56l.5-.57a2.252,2.252,0,0,0-1.71-.75C1.85,4.53.56,5.63.56,8.5.56,10.92,1.6,12.13,3.01,12.13Zm3.93,0a.66.66,0,0,0,.66-.69.662.662,0,1,0-1.32,0A.66.66,0,0,0,6.94,12.13Zm4,0a2.38,2.38,0,0,0,2.4-2.52,2.092,2.092,0,0,0-2.21-2.33,2.132,2.132,0,0,0-1.09.29l.18-2.12h2.77V4.66H9.42L9.19,8.1l.49.3a2,2,0,0,1,1.22-.43,1.483,1.483,0,0,1,1.52,1.67,1.584,1.584,0,0,1-1.56,1.73,2.411,2.411,0,0,1-1.8-.81l-.45.6A3.114,3.114,0,0,0,10.94,12.13ZM14.32,12h4.61v-.79H16.9c-.37,0-.82.04-1.2.07,1.72-1.63,2.87-3.12,2.87-4.58a2.011,2.011,0,0,0-2.13-2.17,2.8,2.8,0,0,0-2.16,1.08l.53.52a2.053,2.053,0,0,1,1.52-.85,1.289,1.289,0,0,1,1.35,1.45c0,1.26-1.06,2.72-3.36,4.73Z" transform="translate(-4316 -10377)" fill="#fff"/>
    </g>
  </g>
</svg>
