<svg xmlns="http://www.w3.org/2000/svg" width="288.567" height="196.948" viewBox="0 0 288.567 196.948">
  <g id="data9_m" transform="translate(-79.174 -152.052)">
    <g id="Group_2090" data-name="Group 2090" transform="translate(-587 -736.223)">
      <rect id="Rectangle_2063" data-name="Rectangle 2063" width="176" height="24" rx="12" transform="translate(722 1061.223)" fill="#3d3c3c"/>
      <path id="內文p" d="M8.268,6.079A4.6,4.6,0,0,0,7.1,5.346l-.377.4A4.362,4.362,0,0,1,7.88,6.5ZM5.39,10.434c-1.207.216-2.4.431-3.223.561l.108.6c.884-.162,2.027-.388,3.148-.6Zm-.938-.949H3.212V8.408h1.24ZM2.652,7.9V9.992H5.034V7.9Zm4.786-.183A7.417,7.417,0,0,1,6.64,9.7a15.71,15.71,0,0,1-.4-2.479h2.3v-.6H6.188c-.022-.377-.043-.755-.065-1.143h-.69c.022.388.054.765.086,1.143H2.275v.6h3.3a14.932,14.932,0,0,0,.593,3.191,5.818,5.818,0,0,1-1.628,1.4,4.138,4.138,0,0,1,.474.507,6.76,6.76,0,0,0,1.423-1.24,1.76,1.76,0,0,0,1.121,1.046c.561.216.927-.216,1.067-1.391a2.017,2.017,0,0,1-.517-.356c-.075.69-.183,1.153-.334,1.11-.356-.054-.647-.42-.873-.992A8.366,8.366,0,0,0,8.1,7.858ZM1.682,12.633V5.206h7.4v7.427ZM.916,4.473v9.379h.765v-.5h7.4v.5h.787V4.473ZM16.558,9.54V6.683h3.094V9.54Zm-3.913,0V6.683h3.083V9.54ZM16.558,5.9V3.977h-.83V5.9h-3.87v5.1h.787v-.668h3.083v3.493h.83V10.327h3.094v.614h.819V5.9Zm10.823,6.813V9.971h3.46V9.195h-3.46V6.845H31.24V6.058H27.381V3.988h-.819v2.07H24.374a14.8,14.8,0,0,0,.6-1.725l-.808-.172a9.827,9.827,0,0,1-1.994,3.967,5.367,5.367,0,0,1,.733.474,9.672,9.672,0,0,0,1.121-1.757h2.533v2.35h-3.2v.776h3.2v2.738H22.2v.776h9.551v-.776ZM41.169,8.623a7,7,0,0,0-.755-.938,7.174,7.174,0,0,0,.819-1.2L40.673,6.4a6.147,6.147,0,0,1-.593.906c-.162-.162-.323-.323-.485-.474a6.258,6.258,0,0,0,.614-.927l-.55-.1a4.189,4.189,0,0,1-.442.668c-.183-.162-.377-.334-.571-.485l-.442.291a6.761,6.761,0,0,1,.668.6,5.614,5.614,0,0,1-.938.776,1.643,1.643,0,0,1,.367.356,6.193,6.193,0,0,0,.938-.776,6.518,6.518,0,0,1,.464.485,7.029,7.029,0,0,1-1.358,1.1,1.316,1.316,0,0,1,.356.377A7.255,7.255,0,0,0,40.048,8.1a10.269,10.269,0,0,1,.658.873Zm.216.7h-3.6V5.67h3.6ZM42.117,5H39.272c.151-.269.313-.6.464-.927l-.8-.162A10.231,10.231,0,0,1,38.549,5H37.072V9.992h5.045Zm-1.466,6.813a15.8,15.8,0,0,0-1.035-1.649l-.528.248A18.968,18.968,0,0,1,40.1,12.138ZM36.609,10.2a13.128,13.128,0,0,0-.679-2.07l-.571.162c.119.28.226.6.323.916l-1.66.28a20.511,20.511,0,0,0,2.339-3.557l-.668-.334a14.372,14.372,0,0,1-.765,1.455l-1.121.108a16.3,16.3,0,0,0,1.509-2.9l-.722-.291a13.7,13.7,0,0,1-1.272,2.717c-.194.323-.377.55-.55.593a7.116,7.116,0,0,1,.248.711,5.3,5.3,0,0,1,1.5-.269A11.79,11.79,0,0,1,33.612,9c-.3.388-.55.668-.765.722a4.481,4.481,0,0,1,.237.7,11.628,11.628,0,0,1,2.781-.636,6.017,6.017,0,0,1,.14.614Zm-3.191.668a10.066,10.066,0,0,1-.6,2.479,2.84,2.84,0,0,1,.582.216,13.4,13.4,0,0,0,.625-2.587Zm.981.108a18.682,18.682,0,0,1,.27,2.285l.6-.129c-.043-.625-.172-1.552-.3-2.285Zm.992-.2c.172.593.377,1.358.464,1.865l.55-.172a11.935,11.935,0,0,0-.474-1.843Zm1.52,2.5a10.382,10.382,0,0,0,.722-2.3l-.571-.2a9.261,9.261,0,0,1-.733,2.221ZM39,12.957c-.41,0-.474-.043-.474-.291v-1.9h-.69v1.908c0,.7.226.884,1.1.884H40.49c.711,0,.906-.291.981-1.466a1.9,1.9,0,0,1-.6-.259c-.043.992-.108,1.121-.442,1.121Zm2.167-2.005a19.847,19.847,0,0,1,.916,2.134l.6-.28c-.2-.55-.6-1.412-.949-2.091Zm7.374,2.113c-.345-.183-.808-.41-1.3-.625a2.331,2.331,0,0,0,.808-1.337h1.143v-.582H48.111v-.431h-.658v.431H46.1c.119-.237.237-.464.345-.69h2.436v-1c.162.14.388.334.485.442a7.734,7.734,0,0,0,.593-1.2,15.319,15.319,0,0,0,.8,2.846,5.346,5.346,0,0,1-2.231,2.167ZM47.367,11.1a2.07,2.07,0,0,1-.808,1.067c-.4-.162-.808-.3-1.2-.42.129-.2.259-.42.4-.647ZM44.8,8.6h1.337v.711H44.8Zm3.363,0v.711H46.774V8.6Zm3.73-1.779a12.657,12.657,0,0,1-.744,3.288,14.716,14.716,0,0,1-.787-3.159l.054-.129ZM45,7.06V6.37h1.143v.69Zm1.143-1.822v.593H45V5.238Zm1.865,0v.593H46.774V5.238ZM46.774,7.06V6.37H48v.69Zm6.651-.237V6.1H50.634c.172-.647.334-1.326.464-1.984l-.7-.14a14.279,14.279,0,0,1-1.52,4.689V8.1h-2.1V7.621h1.887V6.4h.614V5.8h-.614V4.678H46.774v-.7h-.636v.7H44.37V5.8h-.744v.6h.744V7.621h1.768V8.1H44.112V9.831h1.6c-.108.226-.216.453-.345.69H43.637V11.1h1.391c-.226.345-.453.69-.658.949a14.946,14.946,0,0,1,1.531.507,10.043,10.043,0,0,1-2.35.722,1.829,1.829,0,0,1,.345.539,9.6,9.6,0,0,0,2.749-.949,11.1,11.1,0,0,1,1.38.668l.259-.237a3.418,3.418,0,0,1,.367.539,6.378,6.378,0,0,0,2.458-2.178,5.46,5.46,0,0,0,1.887,2.113,2.894,2.894,0,0,1,.517-.614,4.939,4.939,0,0,1-1.994-2.21,12.569,12.569,0,0,0,1.089-4.129Z" transform="translate(752 1065.223)" fill="#aca4a4"/>
      <path id="內文p-2" data-name="內文p" d="M5.045,9.734C4.8,9.432,3.7,8.2,3.342,7.869V7.75H5.1V7H3.342V5.249a10.483,10.483,0,0,0,1.649-.474l-.464-.647a19.707,19.707,0,0,1-3.881.938,2.834,2.834,0,0,1,.226.614c.539-.065,1.121-.151,1.692-.259V7H.668V7.75H2.436A10.885,10.885,0,0,1,.313,11.135a3.649,3.649,0,0,1,.42.744A11.565,11.565,0,0,0,2.566,8.925v4.883h.776V8.688c.431.561,1,1.337,1.218,1.7Zm5.261,3.428A32.175,32.175,0,0,0,8.441,8.408l-.722.269c.41.916.841,1.984,1.2,2.975l-3.245.464a47.327,47.327,0,0,0,2.059-7.7l-.852-.151a44.221,44.221,0,0,1-1.66,6.587c-.3.852-.539,1.445-.787,1.531a7.751,7.751,0,0,1,.269.8c.3-.162.755-.248,4.463-.83.14.42.248.819.334,1.143ZM16.558,9.54V6.683h3.094V9.54Zm-3.913,0V6.683h3.083V9.54ZM16.558,5.9V3.977h-.83V5.9h-3.87v5.1h.787v-.668h3.083v3.493h.83V10.327h3.094v.614h.819V5.9Zm10.823,6.813V9.971h3.46V9.195h-3.46V6.845H31.24V6.058H27.381V3.988h-.819v2.07H24.374a14.8,14.8,0,0,0,.6-1.725l-.808-.172a9.827,9.827,0,0,1-1.994,3.967,5.367,5.367,0,0,1,.733.474,9.672,9.672,0,0,0,1.121-1.757h2.533v2.35h-3.2v.776h3.2v2.738H22.2v.776h9.551v-.776Zm13.227-.334H34.83V9.637h5.778Zm1.66-5.627V5.993H37.956V3.988h-.808V8.882h-3.1v4.937h.787V13.14h5.778v.625h.808V8.882h-3.46V6.748Zm3.212,5.562V8.084h2.738V7.3H45.481V3.988h-.819v8.02a.958.958,0,0,1-.42.809,2.611,2.611,0,0,1,.377.679c.259-.172.658-.3,3.741-1.132a5.1,5.1,0,0,1-.075-.744Zm4.916.507c-.507,0-.6-.108-.6-.7V8.084h2.9V7.3h-2.9V3.977h-.809v8.128c0,1.164.28,1.477,1.326,1.477h1.811c1.013,0,1.229-.6,1.337-2.361a1.871,1.871,0,0,1-.744-.345c-.075,1.542-.14,1.94-.647,1.94Z" transform="translate(835 1065.223)" fill="#aca4a4"/>
      <rect id="Rectangle_2136" data-name="Rectangle 2136" width="13" height="10" rx="2" transform="translate(737 1069.223)" fill="#356bd0"/>
      <rect id="Rectangle_2137" data-name="Rectangle 2137" width="14" height="2" rx="1" transform="translate(819 1073.223)" fill="#fff"/>
    </g>
    <g id="data_m-05" transform="translate(70.343 124.995)">
      <g id="Group_2085" data-name="Group 2085">
        <g id="Group_2084" data-name="Group 2084">
          <g id="Group_2083" data-name="Group 2083">
            <rect id="Rectangle_2662" data-name="Rectangle 2662" width="27.6" height="111.2" transform="translate(47 59.3)" fill="#356bd0"/>
            <rect id="Rectangle_2663" data-name="Rectangle 2663" width="27.6" height="103.5" transform="translate(85.4 67)" fill="#356bd0"/>
            <rect id="Rectangle_2664" data-name="Rectangle 2664" width="27.6" height="95.2" transform="translate(123.7 75.3)" fill="#356bd0"/>
            <rect id="Rectangle_2665" data-name="Rectangle 2665" width="27.6" height="90.5" transform="translate(162.1 80)" fill="#356bd0"/>
            <rect id="Rectangle_2666" data-name="Rectangle 2666" width="27.6" height="86.4" transform="translate(200.4 84)" fill="#356bd0"/>
            <rect id="Rectangle_2667" data-name="Rectangle 2667" width="27.6" height="84.2" transform="translate(238.8 86.3)" fill="#356bd0"/>
          </g>
        </g>
      </g>
      <g id="Group_2068" data-name="Group 2068">
        <line id="Line_618" data-name="Line 618" x2="230" transform="translate(41.7 170.5)" fill="none" stroke="#558ef9" stroke-miterlimit="10" stroke-width="1"/>
      </g>
      <g id="Group_2072" data-name="Group 2072" transform="translate(-2)">
        <g id="Group_2069" data-name="Group 2069">
          <path id="Path_1863" data-name="Path 1863" d="M.59-1.784,1.5-1.869a1.582,1.582,0,0,0,.442.932,1.214,1.214,0,0,0,.837.29,1.445,1.445,0,0,0,.766-.2,1.635,1.635,0,0,0,.54-.534,3.14,3.14,0,0,0,.353-.9,4.757,4.757,0,0,0,.142-1.158q0-.063-.005-.189A2.17,2.17,0,0,1,3.8-2.9a2.11,2.11,0,0,1-1.066.282,2.155,2.155,0,0,1-1.621-.695A2.543,2.543,0,0,1,.447-5.143a2.6,2.6,0,0,1,.692-1.89,2.312,2.312,0,0,1,1.734-.716,2.474,2.474,0,0,1,1.376.405A2.532,2.532,0,0,1,5.2-6.187a5.69,5.69,0,0,1,.324,2.171A7.028,7.028,0,0,1,5.2-1.661,2.759,2.759,0,0,1,4.245-.326,2.473,2.473,0,0,1,2.758.132a2.162,2.162,0,0,1-1.479-.5A2.162,2.162,0,0,1,.59-1.784ZM4.469-5.19a1.855,1.855,0,0,0-.434-1.295A1.361,1.361,0,0,0,2.99-6.964a1.442,1.442,0,0,0-1.1.516,1.912,1.912,0,0,0-.468,1.337,1.652,1.652,0,0,0,.445,1.2,1.465,1.465,0,0,0,1.1.461,1.4,1.4,0,0,0,1.082-.461A1.814,1.814,0,0,0,4.469-5.19Zm2.153-.674a2.345,2.345,0,0,1,.416-1.405,1.392,1.392,0,0,1,1.205-.579,1.563,1.563,0,0,1,1.2.518,2.179,2.179,0,0,1,.476,1.524A2.162,2.162,0,0,1,9.44-4.3a1.542,1.542,0,0,1-1.187.529A1.5,1.5,0,0,1,7.088-4.29,2.3,2.3,0,0,1,6.622-5.864ZM8.269-7.2a.713.713,0,0,0-.587.305,1.934,1.934,0,0,0-.234,1.121,1.738,1.738,0,0,0,.237,1.045.717.717,0,0,0,.584.3.717.717,0,0,0,.592-.305A1.922,1.922,0,0,0,9.1-5.843a1.75,1.75,0,0,0-.237-1.05A.721.721,0,0,0,8.269-7.2ZM8.274.284,12.5-7.848h.768L9.059.284Zm3.337-2.095a2.342,2.342,0,0,1,.416-1.408A1.4,1.4,0,0,1,13.238-3.8a1.563,1.563,0,0,1,1.2.518,2.179,2.179,0,0,1,.476,1.524,2.162,2.162,0,0,1-.482,1.508,1.548,1.548,0,0,1-1.192.529,1.5,1.5,0,0,1-1.166-.524A2.3,2.3,0,0,1,11.612-1.811Zm1.653-1.332a.717.717,0,0,0-.592.305,1.934,1.934,0,0,0-.234,1.121,1.74,1.74,0,0,0,.237,1.042.715.715,0,0,0,.584.305.722.722,0,0,0,.6-.305,1.922,1.922,0,0,0,.234-1.116,1.75,1.75,0,0,0-.237-1.05A.721.721,0,0,0,13.264-3.142Z" transform="translate(283.898 174.54)" fill="#fff"/>
          <path id="Path_1862" data-name="Path 1862" d="M4.016,0H3.069V-6.037a4.9,4.9,0,0,1-.9.653,6.362,6.362,0,0,1-1,.49v-.916a5.722,5.722,0,0,0,1.39-.905,3.561,3.561,0,0,0,.842-1.032h.611Zm7.406-.911V0h-5.1a1.676,1.676,0,0,1,.111-.658,3.481,3.481,0,0,1,.624-1.026A9.772,9.772,0,0,1,8.3-2.853,10.508,10.508,0,0,0,10-4.487a1.957,1.957,0,0,0,.442-1.14,1.266,1.266,0,0,0-.4-.95,1.452,1.452,0,0,0-1.05-.387,1.48,1.48,0,0,0-1.095.411,1.553,1.553,0,0,0-.416,1.137l-.974-.1a2.4,2.4,0,0,1,.753-1.661,2.568,2.568,0,0,1,1.753-.571,2.446,2.446,0,0,1,1.758.616,2.022,2.022,0,0,1,.647,1.526,2.315,2.315,0,0,1-.189.911,3.534,3.534,0,0,1-.629.942A15.324,15.324,0,0,1,9.132-2.395q-.853.716-1.095.971a3.115,3.115,0,0,0-.4.513Zm1.195-4.953a2.345,2.345,0,0,1,.416-1.405,1.392,1.392,0,0,1,1.205-.579,1.563,1.563,0,0,1,1.2.518,2.179,2.179,0,0,1,.476,1.524A2.162,2.162,0,0,1,15.436-4.3a1.542,1.542,0,0,1-1.187.529,1.5,1.5,0,0,1-1.166-.521A2.3,2.3,0,0,1,12.617-5.864ZM14.265-7.2a.713.713,0,0,0-.587.305,1.934,1.934,0,0,0-.234,1.121,1.738,1.738,0,0,0,.237,1.045.717.717,0,0,0,.584.3.717.717,0,0,0,.592-.305,1.922,1.922,0,0,0,.234-1.116,1.75,1.75,0,0,0-.237-1.05A.721.721,0,0,0,14.265-7.2ZM14.27.284l4.221-8.132h.768L15.054.284Zm3.337-2.095a2.342,2.342,0,0,1,.416-1.408A1.4,1.4,0,0,1,19.233-3.8a1.563,1.563,0,0,1,1.2.518,2.179,2.179,0,0,1,.476,1.524,2.162,2.162,0,0,1-.482,1.508,1.548,1.548,0,0,1-1.192.529,1.5,1.5,0,0,1-1.166-.524A2.3,2.3,0,0,1,17.607-1.811ZM19.26-3.142a.717.717,0,0,0-.592.305,1.934,1.934,0,0,0-.234,1.121A1.74,1.74,0,0,0,18.67-.674a.715.715,0,0,0,.584.305.722.722,0,0,0,.6-.305,1.922,1.922,0,0,0,.234-1.116,1.75,1.75,0,0,0-.237-1.05A.721.721,0,0,0,19.26-3.142Z" transform="translate(278.485 105.272)" fill="#fff"/>
          <path id="Path_1861" data-name="Path 1861" d="M4.016,0H3.069V-6.037a4.9,4.9,0,0,1-.9.653,6.362,6.362,0,0,1-1,.49v-.916a5.722,5.722,0,0,0,1.39-.905,3.561,3.561,0,0,0,.842-1.032h.611ZM6.443-2.021l.995-.084a1.784,1.784,0,0,0,.513,1.092,1.393,1.393,0,0,0,.971.366,1.512,1.512,0,0,0,1.158-.516,1.944,1.944,0,0,0,.474-1.369A1.757,1.757,0,0,0,10.1-3.811a1.588,1.588,0,0,0-1.192-.468,1.652,1.652,0,0,0-.826.208,1.6,1.6,0,0,0-.579.54l-.89-.116.747-3.964H11.2v.905H8.117L7.7-4.632a2.511,2.511,0,0,1,1.458-.484,2.31,2.31,0,0,1,1.705.7,2.447,2.447,0,0,1,.695,1.8,2.81,2.81,0,0,1-.611,1.811A2.446,2.446,0,0,1,8.922.132,2.5,2.5,0,0,1,7.2-.458,2.3,2.3,0,0,1,6.443-2.021Zm6.174-3.842a2.345,2.345,0,0,1,.416-1.405,1.392,1.392,0,0,1,1.205-.579,1.563,1.563,0,0,1,1.2.518,2.179,2.179,0,0,1,.476,1.524A2.162,2.162,0,0,1,15.436-4.3a1.542,1.542,0,0,1-1.187.529,1.5,1.5,0,0,1-1.166-.521A2.3,2.3,0,0,1,12.617-5.864ZM14.265-7.2a.713.713,0,0,0-.587.305,1.934,1.934,0,0,0-.234,1.121,1.738,1.738,0,0,0,.237,1.045.717.717,0,0,0,.584.3.717.717,0,0,0,.592-.305,1.922,1.922,0,0,0,.234-1.116,1.75,1.75,0,0,0-.237-1.05A.721.721,0,0,0,14.265-7.2ZM14.27.284l4.221-8.132h.768L15.054.284Zm3.337-2.095a2.342,2.342,0,0,1,.416-1.408A1.4,1.4,0,0,1,19.233-3.8a1.563,1.563,0,0,1,1.2.518,2.179,2.179,0,0,1,.476,1.524,2.162,2.162,0,0,1-.482,1.508,1.548,1.548,0,0,1-1.192.529,1.5,1.5,0,0,1-1.166-.524A2.3,2.3,0,0,1,17.607-1.811ZM19.26-3.142a.717.717,0,0,0-.592.305,1.934,1.934,0,0,0-.234,1.121A1.74,1.74,0,0,0,18.67-.674a.715.715,0,0,0,.584.305.722.722,0,0,0,.6-.305,1.922,1.922,0,0,0,.234-1.116,1.75,1.75,0,0,0-.237-1.05A.721.721,0,0,0,19.26-3.142Z" transform="translate(278.484 36.005)" fill="#fff"/>
        </g>
        <line id="Line_626" data-name="Line 626" y1="138.5" transform="translate(276.2 32)" fill="none" stroke="#fff" stroke-miterlimit="10" stroke-width="1"/>
        <g id="Group_2071" data-name="Group 2071" transform="translate(2.015)">
          <g id="Group_2070" data-name="Group 2070" transform="translate(270.2 32)">
            <line id="Line_627" data-name="Line 627" x1="3.785" fill="none" stroke="#fff" stroke-miterlimit="10" stroke-width="1"/>
            <line id="Line_628" data-name="Line 628" x1="3.785" transform="translate(0 69.2)" fill="none" stroke="#fff" stroke-miterlimit="10" stroke-width="1"/>
            <line id="Line_629" data-name="Line 629" x1="3.785" transform="translate(0 138.5)" fill="none" stroke="#fff" stroke-miterlimit="10" stroke-width="1"/>
          </g>
        </g>
      </g>
      <g id="Group_2082" data-name="Group 2082" transform="translate(3)">
        <g id="Group_2079" data-name="Group 2079">
          <path id="Path_1875" data-name="Path 1875" d="M.447-3.806a7.061,7.061,0,0,1,.282-2.2A2.74,2.74,0,0,1,1.566-7.3a2.14,2.14,0,0,1,1.4-.453,2.28,2.28,0,0,1,1.09.25,2.083,2.083,0,0,1,.774.721,3.869,3.869,0,0,1,.479,1.147,7.624,7.624,0,0,1,.174,1.824A7.081,7.081,0,0,1,5.2-1.613a2.741,2.741,0,0,1-.834,1.29,2.14,2.14,0,0,1-1.4.455,2.118,2.118,0,0,1-1.753-.8A5.085,5.085,0,0,1,.447-3.806Zm.974,0a4.838,4.838,0,0,0,.445,2.529,1.311,1.311,0,0,0,1.1.629,1.31,1.31,0,0,0,1.1-.632,4.84,4.84,0,0,0,.445-2.527,4.837,4.837,0,0,0-.445-2.532,1.32,1.32,0,0,0-1.108-.626,1.214,1.214,0,0,0-1.042.553A4.894,4.894,0,0,0,1.421-3.806Z" transform="translate(26.29 174.54)" fill="#558ef9"/>
          <path id="Path_1874" data-name="Path 1874" d="M5.427-.911V0H.326A1.676,1.676,0,0,1,.437-.658a3.481,3.481,0,0,1,.624-1.026A9.772,9.772,0,0,1,2.3-2.853,10.508,10.508,0,0,0,4-4.487a1.957,1.957,0,0,0,.442-1.14,1.266,1.266,0,0,0-.4-.95,1.452,1.452,0,0,0-1.05-.387,1.48,1.48,0,0,0-1.095.411,1.553,1.553,0,0,0-.416,1.137l-.974-.1a2.4,2.4,0,0,1,.753-1.661,2.568,2.568,0,0,1,1.753-.571,2.446,2.446,0,0,1,1.758.616,2.022,2.022,0,0,1,.647,1.526,2.315,2.315,0,0,1-.189.911,3.534,3.534,0,0,1-.629.942A15.324,15.324,0,0,1,3.137-2.395q-.853.716-1.095.971a3.115,3.115,0,0,0-.4.513Zm1.016-2.9a7.061,7.061,0,0,1,.282-2.2A2.74,2.74,0,0,1,7.561-7.3a2.14,2.14,0,0,1,1.4-.453,2.28,2.28,0,0,1,1.09.25,2.083,2.083,0,0,1,.774.721A3.869,3.869,0,0,1,11.3-5.629a7.624,7.624,0,0,1,.174,1.824A7.081,7.081,0,0,1,11.2-1.613a2.741,2.741,0,0,1-.834,1.29,2.14,2.14,0,0,1-1.4.455,2.118,2.118,0,0,1-1.753-.8A5.085,5.085,0,0,1,6.443-3.806Zm.974,0a4.838,4.838,0,0,0,.445,2.529,1.311,1.311,0,0,0,1.1.629,1.31,1.31,0,0,0,1.1-.632A4.84,4.84,0,0,0,10.5-3.806a4.837,4.837,0,0,0-.445-2.532,1.32,1.32,0,0,0-1.108-.626,1.214,1.214,0,0,0-1.042.553A4.894,4.894,0,0,0,7.417-3.806ZM21.444-.226A.79.79,0,0,1,21.2.453.917.917,0,0,1,20.813.6a5.719,5.719,0,0,1-.779.037.275.275,0,0,1-.168-.032.418.418,0,0,1-.079-.174,1.92,1.92,0,0,0-.195-.421,7.638,7.638,0,0,0,.8.042.469.469,0,0,0,.332-.089.393.393,0,0,0,.084-.284V-2.284H17.586v1.132q.816-.095,1.421-.195-.268-.39-.3-.432a.144.144,0,0,1-.037-.068q0-.037.1-.079l.226-.1a.338.338,0,0,1,.089-.026q.032,0,.074.058a8.184,8.184,0,0,1,.863,1.411.258.258,0,0,1,.016.063q0,.042-.1.089L19.7-.311a.331.331,0,0,1-.116.042q-.037,0-.063-.063-.205-.453-.258-.563-1.563.274-3.737.484a1.358,1.358,0,0,0-.463.1.256.256,0,0,1-.126.063q-.074,0-.121-.142-.063-.226-.137-.6.232.005.426.005.368,0,.747-.026Q16.838-1.084,17-1.1V-2.284H13.954V-.379L13.975.647a.074.074,0,0,1-.084.084h-.5a.074.074,0,0,1-.084-.084l.021-1.026V-1.748l-.021-1a.074.074,0,0,1,.084-.084l1.521.021H17V-3.59H15.817l-1.479.021a.074.074,0,0,1-.084-.084l.021-.905v-1.09l-.021-.905a.074.074,0,0,1,.084-.084l1.479.021h3.106l1.49-.021a.074.074,0,0,1,.084.084l-.021.905v1.09l.021.905a.074.074,0,0,1-.084.084l-1.49-.021H17.586v.779h2.253l1.521-.021a.074.074,0,0,1,.084.084L21.423-1.69v.442ZM19.87-4.064v-.842H17.586v.842ZM17-4.064v-.842H14.88v.842ZM19.87-5.369v-.774H17.586v.774ZM17-5.369v-.774H14.88v.774ZM22.081-7.58q0,.084-.089.084l-1.411-.021H19.17l.021.495q0,.089-.084.089h-.468q-.095,0-.095-.089,0-.016.011-.168t.011-.326h-2.49l.021.495q0,.089-.084.089h-.474a.079.079,0,0,1-.089-.089q0-.016.011-.168t.011-.326H14.191L12.775-7.5a.074.074,0,0,1-.084-.084v-.432q0-.074.084-.074l1.416.021H15.47a4.716,4.716,0,0,0-.063-.884q.326.016.668.058.111.016.111.095a.286.286,0,0,1-.042.142,1.539,1.539,0,0,0-.068.59h2.49a4.641,4.641,0,0,0-.063-.874q.353.021.658.058.116.016.116.095a.287.287,0,0,1-.042.142,1.613,1.613,0,0,0-.063.579h1.411l1.411-.021q.089,0,.089.074Z" transform="translate(10.081 146.833)" fill="#558ef9"/>
          <path id="Path_1873" data-name="Path 1873" d="M3.485,0V-1.848H.137v-.869l3.521-5h.774v5H5.474v.869H4.432V0Zm0-2.716V-6.2L1.069-2.716Zm2.958-1.09a7.061,7.061,0,0,1,.282-2.2A2.74,2.74,0,0,1,7.561-7.3a2.14,2.14,0,0,1,1.4-.453,2.28,2.28,0,0,1,1.09.25,2.083,2.083,0,0,1,.774.721A3.869,3.869,0,0,1,11.3-5.629a7.624,7.624,0,0,1,.174,1.824A7.081,7.081,0,0,1,11.2-1.613a2.741,2.741,0,0,1-.834,1.29,2.14,2.14,0,0,1-1.4.455,2.118,2.118,0,0,1-1.753-.8A5.085,5.085,0,0,1,6.443-3.806Zm.974,0a4.838,4.838,0,0,0,.445,2.529,1.311,1.311,0,0,0,1.1.629,1.31,1.31,0,0,0,1.1-.632A4.84,4.84,0,0,0,10.5-3.806a4.837,4.837,0,0,0-.445-2.532,1.32,1.32,0,0,0-1.108-.626,1.214,1.214,0,0,0-1.042.553A4.894,4.894,0,0,0,7.417-3.806ZM21.444-.226A.79.79,0,0,1,21.2.453.917.917,0,0,1,20.813.6a5.719,5.719,0,0,1-.779.037.275.275,0,0,1-.168-.032.418.418,0,0,1-.079-.174,1.92,1.92,0,0,0-.195-.421,7.638,7.638,0,0,0,.8.042.469.469,0,0,0,.332-.089.393.393,0,0,0,.084-.284V-2.284H17.586v1.132q.816-.095,1.421-.195-.268-.39-.3-.432a.144.144,0,0,1-.037-.068q0-.037.1-.079l.226-.1a.338.338,0,0,1,.089-.026q.032,0,.074.058a8.184,8.184,0,0,1,.863,1.411.258.258,0,0,1,.016.063q0,.042-.1.089L19.7-.311a.331.331,0,0,1-.116.042q-.037,0-.063-.063-.205-.453-.258-.563-1.563.274-3.737.484a1.358,1.358,0,0,0-.463.1.256.256,0,0,1-.126.063q-.074,0-.121-.142-.063-.226-.137-.6.232.005.426.005.368,0,.747-.026Q16.838-1.084,17-1.1V-2.284H13.954V-.379L13.975.647a.074.074,0,0,1-.084.084h-.5a.074.074,0,0,1-.084-.084l.021-1.026V-1.748l-.021-1a.074.074,0,0,1,.084-.084l1.521.021H17V-3.59H15.817l-1.479.021a.074.074,0,0,1-.084-.084l.021-.905v-1.09l-.021-.905a.074.074,0,0,1,.084-.084l1.479.021h3.106l1.49-.021a.074.074,0,0,1,.084.084l-.021.905v1.09l.021.905a.074.074,0,0,1-.084.084l-1.49-.021H17.586v.779h2.253l1.521-.021a.074.074,0,0,1,.084.084L21.423-1.69v.442ZM19.87-4.064v-.842H17.586v.842ZM17-4.064v-.842H14.88v.842ZM19.87-5.369v-.774H17.586v.774ZM17-5.369v-.774H14.88v.774ZM22.081-7.58q0,.084-.089.084l-1.411-.021H19.17l.021.495q0,.089-.084.089h-.468q-.095,0-.095-.089,0-.016.011-.168t.011-.326h-2.49l.021.495q0,.089-.084.089h-.474a.079.079,0,0,1-.089-.089q0-.016.011-.168t.011-.326H14.191L12.775-7.5a.074.074,0,0,1-.084-.084v-.432q0-.074.084-.074l1.416.021H15.47a4.716,4.716,0,0,0-.063-.884q.326.016.668.058.111.016.111.095a.286.286,0,0,1-.042.142,1.539,1.539,0,0,0-.068.59h2.49a4.641,4.641,0,0,0-.063-.874q.353.021.658.058.116.016.116.095a.287.287,0,0,1-.042.142,1.613,1.613,0,0,0-.063.579h1.411l1.411-.021q.089,0,.089.074Z" transform="translate(10.07 119.126)" fill="#558ef9"/>
          <path id="Path_1872" data-name="Path 1872" d="M5.364-5.827l-.942.074a1.784,1.784,0,0,0-.358-.811,1.254,1.254,0,0,0-.947-.405,1.3,1.3,0,0,0-.795.253,2.159,2.159,0,0,0-.705.953,4.979,4.979,0,0,0-.268,1.784,2.2,2.2,0,0,1,.837-.774,2.251,2.251,0,0,1,1.037-.253,2.148,2.148,0,0,1,1.613.7,2.5,2.5,0,0,1,.666,1.8,2.966,2.966,0,0,1-.313,1.35A2.282,2.282,0,0,1,4.327-.2,2.35,2.35,0,0,1,3.085.132,2.427,2.427,0,0,1,1.153-.74,4.4,4.4,0,0,1,.405-3.611a5.147,5.147,0,0,1,.826-3.253,2.376,2.376,0,0,1,1.942-.884,2.179,2.179,0,0,1,1.492.511A2.168,2.168,0,0,1,5.364-5.827ZM1.495-2.5a2.2,2.2,0,0,0,.208.937,1.55,1.55,0,0,0,.582.682,1.454,1.454,0,0,0,.784.234A1.337,1.337,0,0,0,4.1-1.132a1.906,1.906,0,0,0,.432-1.316,1.784,1.784,0,0,0-.426-1.261,1.4,1.4,0,0,0-1.074-.461,1.462,1.462,0,0,0-1.09.461A1.66,1.66,0,0,0,1.495-2.5ZM6.443-3.806a7.061,7.061,0,0,1,.282-2.2A2.74,2.74,0,0,1,7.561-7.3a2.14,2.14,0,0,1,1.4-.453,2.28,2.28,0,0,1,1.09.25,2.083,2.083,0,0,1,.774.721A3.869,3.869,0,0,1,11.3-5.629a7.624,7.624,0,0,1,.174,1.824A7.081,7.081,0,0,1,11.2-1.613a2.741,2.741,0,0,1-.834,1.29,2.14,2.14,0,0,1-1.4.455,2.118,2.118,0,0,1-1.753-.8A5.085,5.085,0,0,1,6.443-3.806Zm.974,0a4.838,4.838,0,0,0,.445,2.529,1.311,1.311,0,0,0,1.1.629,1.31,1.31,0,0,0,1.1-.632A4.84,4.84,0,0,0,10.5-3.806a4.837,4.837,0,0,0-.445-2.532,1.32,1.32,0,0,0-1.108-.626,1.214,1.214,0,0,0-1.042.553A4.894,4.894,0,0,0,7.417-3.806ZM21.444-.226A.79.79,0,0,1,21.2.453.917.917,0,0,1,20.813.6a5.719,5.719,0,0,1-.779.037.275.275,0,0,1-.168-.032.418.418,0,0,1-.079-.174,1.92,1.92,0,0,0-.195-.421,7.638,7.638,0,0,0,.8.042.469.469,0,0,0,.332-.089.393.393,0,0,0,.084-.284V-2.284H17.586v1.132q.816-.095,1.421-.195-.268-.39-.3-.432a.144.144,0,0,1-.037-.068q0-.037.1-.079l.226-.1a.338.338,0,0,1,.089-.026q.032,0,.074.058a8.184,8.184,0,0,1,.863,1.411.258.258,0,0,1,.016.063q0,.042-.1.089L19.7-.311a.331.331,0,0,1-.116.042q-.037,0-.063-.063-.205-.453-.258-.563-1.563.274-3.737.484a1.358,1.358,0,0,0-.463.1.256.256,0,0,1-.126.063q-.074,0-.121-.142-.063-.226-.137-.6.232.005.426.005.368,0,.747-.026Q16.838-1.084,17-1.1V-2.284H13.954V-.379L13.975.647a.074.074,0,0,1-.084.084h-.5a.074.074,0,0,1-.084-.084l.021-1.026V-1.748l-.021-1a.074.074,0,0,1,.084-.084l1.521.021H17V-3.59H15.817l-1.479.021a.074.074,0,0,1-.084-.084l.021-.905v-1.09l-.021-.905a.074.074,0,0,1,.084-.084l1.479.021h3.106l1.49-.021a.074.074,0,0,1,.084.084l-.021.905v1.09l.021.905a.074.074,0,0,1-.084.084l-1.49-.021H17.586v.779h2.253l1.521-.021a.074.074,0,0,1,.084.084L21.423-1.69v.442ZM19.87-4.064v-.842H17.586v.842ZM17-4.064v-.842H14.88v.842ZM19.87-5.369v-.774H17.586v.774ZM17-5.369v-.774H14.88v.774ZM22.081-7.58q0,.084-.089.084l-1.411-.021H19.17l.021.495q0,.089-.084.089h-.468q-.095,0-.095-.089,0-.016.011-.168t.011-.326h-2.49l.021.495q0,.089-.084.089h-.474a.079.079,0,0,1-.089-.089q0-.016.011-.168t.011-.326H14.191L12.775-7.5a.074.074,0,0,1-.084-.084v-.432q0-.074.084-.074l1.416.021H15.47a4.716,4.716,0,0,0-.063-.884q.326.016.668.058.111.016.111.095a.286.286,0,0,1-.042.142,1.539,1.539,0,0,0-.068.59h2.49a4.641,4.641,0,0,0-.063-.874q.353.021.658.058.116.016.116.095a.287.287,0,0,1-.042.142,1.613,1.613,0,0,0-.063.579h1.411l1.411-.021q.089,0,.089.074Z" transform="translate(10.092 91.419)" fill="#558ef9"/>
          <path id="Path_1871" data-name="Path 1871" d="M1.905-4.185A1.783,1.783,0,0,1,1.032-4.8a1.611,1.611,0,0,1-.284-.958,1.873,1.873,0,0,1,.605-1.416,2.245,2.245,0,0,1,1.611-.574,2.26,2.26,0,0,1,1.626.587,1.9,1.9,0,0,1,.616,1.429,1.574,1.574,0,0,1-.282.934,1.776,1.776,0,0,1-.855.613,2.074,2.074,0,0,1,1.082.747,2.053,2.053,0,0,1,.371,1.232,2.217,2.217,0,0,1-.7,1.663A2.545,2.545,0,0,1,2.979.132,2.54,2.54,0,0,1,1.137-.545a2.25,2.25,0,0,1-.7-1.687A2.039,2.039,0,0,1,.819-3.492,1.911,1.911,0,0,1,1.905-4.185ZM1.716-5.79a1.2,1.2,0,0,0,.353.895,1.249,1.249,0,0,0,.916.347,1.225,1.225,0,0,0,.9-.345,1.14,1.14,0,0,0,.35-.845,1.182,1.182,0,0,0-.361-.876,1.228,1.228,0,0,0-.9-.355,1.24,1.24,0,0,0-.9.347A1.118,1.118,0,0,0,1.716-5.79ZM1.411-2.227a1.714,1.714,0,0,0,.192.784,1.356,1.356,0,0,0,.571.587,1.67,1.67,0,0,0,.816.208,1.529,1.529,0,0,0,1.121-.437,1.5,1.5,0,0,0,.442-1.111A1.52,1.52,0,0,0,4.1-3.327a1.56,1.56,0,0,0-1.14-.447,1.5,1.5,0,0,0-1.108.442A1.5,1.5,0,0,0,1.411-2.227ZM6.443-3.806a7.061,7.061,0,0,1,.282-2.2A2.74,2.74,0,0,1,7.561-7.3a2.14,2.14,0,0,1,1.4-.453,2.28,2.28,0,0,1,1.09.25,2.083,2.083,0,0,1,.774.721A3.869,3.869,0,0,1,11.3-5.629a7.624,7.624,0,0,1,.174,1.824A7.081,7.081,0,0,1,11.2-1.613a2.741,2.741,0,0,1-.834,1.29,2.14,2.14,0,0,1-1.4.455,2.118,2.118,0,0,1-1.753-.8A5.085,5.085,0,0,1,6.443-3.806Zm.974,0a4.838,4.838,0,0,0,.445,2.529,1.311,1.311,0,0,0,1.1.629,1.31,1.31,0,0,0,1.1-.632A4.84,4.84,0,0,0,10.5-3.806a4.837,4.837,0,0,0-.445-2.532,1.32,1.32,0,0,0-1.108-.626,1.214,1.214,0,0,0-1.042.553A4.894,4.894,0,0,0,7.417-3.806ZM21.444-.226A.79.79,0,0,1,21.2.453.917.917,0,0,1,20.813.6a5.719,5.719,0,0,1-.779.037.275.275,0,0,1-.168-.032.418.418,0,0,1-.079-.174,1.92,1.92,0,0,0-.195-.421,7.638,7.638,0,0,0,.8.042.469.469,0,0,0,.332-.089.393.393,0,0,0,.084-.284V-2.284H17.586v1.132q.816-.095,1.421-.195-.268-.39-.3-.432a.144.144,0,0,1-.037-.068q0-.037.1-.079l.226-.1a.338.338,0,0,1,.089-.026q.032,0,.074.058a8.184,8.184,0,0,1,.863,1.411.258.258,0,0,1,.016.063q0,.042-.1.089L19.7-.311a.331.331,0,0,1-.116.042q-.037,0-.063-.063-.205-.453-.258-.563-1.563.274-3.737.484a1.358,1.358,0,0,0-.463.1.256.256,0,0,1-.126.063q-.074,0-.121-.142-.063-.226-.137-.6.232.005.426.005.368,0,.747-.026Q16.838-1.084,17-1.1V-2.284H13.954V-.379L13.975.647a.074.074,0,0,1-.084.084h-.5a.074.074,0,0,1-.084-.084l.021-1.026V-1.748l-.021-1a.074.074,0,0,1,.084-.084l1.521.021H17V-3.59H15.817l-1.479.021a.074.074,0,0,1-.084-.084l.021-.905v-1.09l-.021-.905a.074.074,0,0,1,.084-.084l1.479.021h3.106l1.49-.021a.074.074,0,0,1,.084.084l-.021.905v1.09l.021.905a.074.074,0,0,1-.084.084l-1.49-.021H17.586v.779h2.253l1.521-.021a.074.074,0,0,1,.084.084L21.423-1.69v.442ZM19.87-4.064v-.842H17.586v.842ZM17-4.064v-.842H14.88v.842ZM19.87-5.369v-.774H17.586v.774ZM17-5.369v-.774H14.88v.774ZM22.081-7.58q0,.084-.089.084l-1.411-.021H19.17l.021.495q0,.089-.084.089h-.468q-.095,0-.095-.089,0-.016.011-.168t.011-.326h-2.49l.021.495q0,.089-.084.089h-.474a.079.079,0,0,1-.089-.089q0-.016.011-.168t.011-.326H14.191L12.775-7.5a.074.074,0,0,1-.084-.084v-.432q0-.074.084-.074l1.416.021H15.47a4.716,4.716,0,0,0-.063-.884q.326.016.668.058.111.016.111.095a.286.286,0,0,1-.042.142,1.539,1.539,0,0,0-.068.59h2.49a4.641,4.641,0,0,0-.063-.874q.353.021.658.058.116.016.116.095a.287.287,0,0,1-.042.142,1.613,1.613,0,0,0-.063.579h1.411l1.411-.021q.089,0,.089.074Z" transform="translate(10.081 63.712)" fill="#558ef9"/>
          <path id="Path_1870" data-name="Path 1870" d="M4.016,0H3.069V-6.037a4.9,4.9,0,0,1-.9.653,6.362,6.362,0,0,1-1,.49v-.916a5.722,5.722,0,0,0,1.39-.905,3.561,3.561,0,0,0,.842-1.032h.611ZM6.443-3.806a7.061,7.061,0,0,1,.282-2.2A2.74,2.74,0,0,1,7.561-7.3a2.14,2.14,0,0,1,1.4-.453,2.28,2.28,0,0,1,1.09.25,2.083,2.083,0,0,1,.774.721A3.869,3.869,0,0,1,11.3-5.629a7.624,7.624,0,0,1,.174,1.824A7.081,7.081,0,0,1,11.2-1.613a2.741,2.741,0,0,1-.834,1.29,2.14,2.14,0,0,1-1.4.455,2.118,2.118,0,0,1-1.753-.8A5.085,5.085,0,0,1,6.443-3.806Zm.974,0a4.838,4.838,0,0,0,.445,2.529,1.311,1.311,0,0,0,1.1.629,1.31,1.31,0,0,0,1.1-.632A4.84,4.84,0,0,0,10.5-3.806a4.837,4.837,0,0,0-.445-2.532,1.32,1.32,0,0,0-1.108-.626,1.214,1.214,0,0,0-1.042.553A4.894,4.894,0,0,0,7.417-3.806Zm5.022,0a7.061,7.061,0,0,1,.282-2.2A2.74,2.74,0,0,1,13.557-7.3a2.14,2.14,0,0,1,1.4-.453,2.28,2.28,0,0,1,1.09.25,2.083,2.083,0,0,1,.774.721A3.869,3.869,0,0,1,17.3-5.629a7.624,7.624,0,0,1,.174,1.824,7.081,7.081,0,0,1-.279,2.192,2.741,2.741,0,0,1-.834,1.29,2.14,2.14,0,0,1-1.4.455,2.118,2.118,0,0,1-1.753-.8A5.085,5.085,0,0,1,12.438-3.806Zm.974,0a4.838,4.838,0,0,0,.445,2.529,1.311,1.311,0,0,0,1.1.629,1.31,1.31,0,0,0,1.1-.632A4.84,4.84,0,0,0,16.5-3.806a4.837,4.837,0,0,0-.445-2.532,1.32,1.32,0,0,0-1.108-.626,1.214,1.214,0,0,0-1.042.553A4.894,4.894,0,0,0,13.412-3.806ZM27.44-.226a.79.79,0,0,1-.247.679A.917.917,0,0,1,26.808.6a5.719,5.719,0,0,1-.779.037A.275.275,0,0,1,25.86.605a.418.418,0,0,1-.079-.174,1.92,1.92,0,0,0-.195-.421,7.638,7.638,0,0,0,.8.042.469.469,0,0,0,.332-.089A.393.393,0,0,0,26.8-.321V-2.284H23.581v1.132Q24.4-1.247,25-1.347q-.268-.39-.3-.432a.144.144,0,0,1-.037-.068q0-.037.1-.079l.226-.1a.338.338,0,0,1,.089-.026q.032,0,.074.058a8.184,8.184,0,0,1,.863,1.411.258.258,0,0,1,.016.063q0,.042-.1.089l-.242.121a.331.331,0,0,1-.116.042q-.037,0-.063-.063-.205-.453-.258-.563-1.563.274-3.737.484a1.358,1.358,0,0,0-.463.1.256.256,0,0,1-.126.063q-.074,0-.121-.142-.063-.226-.137-.6.232.005.426.005.368,0,.747-.026Q22.834-1.084,23-1.1V-2.284H19.949V-.379L19.97.647a.074.074,0,0,1-.084.084h-.5A.074.074,0,0,1,19.3.647l.021-1.026V-1.748l-.021-1a.074.074,0,0,1,.084-.084l1.521.021H23V-3.59H21.813l-1.479.021a.074.074,0,0,1-.084-.084l.021-.905v-1.09l-.021-.905a.074.074,0,0,1,.084-.084l1.479.021h3.106l1.49-.021a.074.074,0,0,1,.084.084l-.021.905v1.09l.021.905a.074.074,0,0,1-.084.084l-1.49-.021H23.581v.779h2.253l1.521-.021a.074.074,0,0,1,.084.084L27.418-1.69v.442ZM25.866-4.064v-.842H23.581v.842ZM23-4.064v-.842H20.876v.842Zm2.869-1.305v-.774H23.581v.774ZM23-5.369v-.774H20.876v.774ZM28.076-7.58q0,.084-.089.084l-1.411-.021H25.166l.021.495q0,.089-.084.089h-.468q-.095,0-.095-.089,0-.016.011-.168t.011-.326h-2.49l.021.495q0,.089-.084.089h-.474a.079.079,0,0,1-.089-.089q0-.016.011-.168t.011-.326H20.186L18.77-7.5a.074.074,0,0,1-.084-.084v-.432q0-.074.084-.074l1.416.021h1.279a4.716,4.716,0,0,0-.063-.884q.326.016.668.058.111.016.111.095a.287.287,0,0,1-.042.142,1.539,1.539,0,0,0-.068.59h2.49a4.641,4.641,0,0,0-.063-.874q.353.021.658.058.116.016.116.095a.287.287,0,0,1-.042.142,1.613,1.613,0,0,0-.063.579h1.411l1.411-.021q.089,0,.089.074Z" transform="translate(4.656 36.005)" fill="#558ef9"/>
        </g>
        <line id="Line_643" data-name="Line 643" y1="138.5" transform="translate(35.3 32)" fill="none" stroke="#558ef9" stroke-miterlimit="10" stroke-width="1"/>
        <g id="Group_2081" data-name="Group 2081">
          <g id="Group_2080" data-name="Group 2080" transform="translate(35.3 32)">
            <line id="Line_644" data-name="Line 644" x2="3.571" transform="translate(0 138.5)" fill="none" stroke="#558ef9" stroke-miterlimit="10" stroke-width="1"/>
            <line id="Line_645" data-name="Line 645" x2="3.571" transform="translate(0 110.8)" fill="none" stroke="#558ef9" stroke-miterlimit="10" stroke-width="1"/>
            <line id="Line_646" data-name="Line 646" x2="3.571" transform="translate(0 83.1)" fill="none" stroke="#558ef9" stroke-miterlimit="10" stroke-width="1"/>
            <line id="Line_647" data-name="Line 647" x2="3.571" transform="translate(0 55.4)" fill="none" stroke="#558ef9" stroke-miterlimit="10" stroke-width="1"/>
            <line id="Line_648" data-name="Line 648" x2="3.571" transform="translate(0 27.7)" fill="none" stroke="#558ef9" stroke-miterlimit="10" stroke-width="1"/>
            <line id="Line_649" data-name="Line 649" x2="3.571" fill="none" stroke="#558ef9" stroke-miterlimit="10" stroke-width="1"/>
          </g>
        </g>
      </g>
      <g id="Group_2075" data-name="Group 2075">
        <g id="Group_2074" data-name="Group 2074">
          <g id="Group_2073" data-name="Group 2073">
            <line id="Line_630" data-name="Line 630" x1="38.4" y2="14.5" transform="translate(60.8 92.7)" fill="none" stroke="#fff" stroke-linecap="round" stroke-miterlimit="10" stroke-width="2"/>
            <line id="Line_631" data-name="Line 631" x1="38.3" y2="13.9" transform="translate(99.2 78.8)" fill="none" stroke="#fff" stroke-linecap="round" stroke-miterlimit="10" stroke-width="2"/>
            <line id="Line_632" data-name="Line 632" x1="38.4" y2="7.1" transform="translate(137.5 71.7)" fill="none" stroke="#fff" stroke-linecap="round" stroke-miterlimit="10" stroke-width="2"/>
            <line id="Line_633" data-name="Line 633" x1="38.3" y2="7.4" transform="translate(175.9 64.3)" fill="none" stroke="#fff" stroke-linecap="round" stroke-miterlimit="10" stroke-width="2"/>
            <line id="Line_634" data-name="Line 634" x1="38.4" y2="6.9" transform="translate(214.2 57.4)" fill="none" stroke="#fff" stroke-linecap="round" stroke-miterlimit="10" stroke-width="2"/>
          </g>
        </g>
      </g>
      <g id="Group_2088" data-name="Group 2088">
        <g id="Group_2087" data-name="Group 2087">
          <g id="Group_2086" data-name="Group 2086">
            <rect id="Rectangle_2668" data-name="Rectangle 2668" width="6" height="6" rx="3" transform="translate(57.8 104.2)" fill="#fff"/>
            <rect id="Rectangle_2669" data-name="Rectangle 2669" width="6" height="6" rx="3" transform="translate(96.2 89.7)" fill="#fff"/>
            <rect id="Rectangle_2670" data-name="Rectangle 2670" width="6" height="6" rx="3" transform="translate(134.5 75.8)" fill="#fff"/>
            <rect id="Rectangle_2671" data-name="Rectangle 2671" width="6" height="6" rx="3" transform="translate(172.9 68.7)" fill="#fff"/>
            <rect id="Rectangle_2672" data-name="Rectangle 2672" width="6" height="6" rx="3" transform="translate(211.2 61.3)" fill="#fff"/>
            <rect id="Rectangle_2673" data-name="Rectangle 2673" width="6" height="6" rx="3" transform="translate(249.6 54.4)" fill="#fff"/>
          </g>
        </g>
      </g>
    </g>
    <g id="Group_1689" data-name="Group 1689" transform="translate(120.984 299.358)">
      <g id="Group_1686" data-name="Group 1686" transform="translate(0 0)">
        <path id="Path_1869" data-name="Path 1869" d="M4.016,0H3.069V-6.037a4.9,4.9,0,0,1-.9.653,6.362,6.362,0,0,1-1,.49v-.916a5.722,5.722,0,0,0,1.39-.905,3.561,3.561,0,0,0,.842-1.032h.611ZM6.443-3.806a7.061,7.061,0,0,1,.282-2.2A2.74,2.74,0,0,1,7.561-7.3a2.14,2.14,0,0,1,1.4-.453,2.28,2.28,0,0,1,1.09.25,2.083,2.083,0,0,1,.774.721A3.869,3.869,0,0,1,11.3-5.629a7.624,7.624,0,0,1,.174,1.824A7.081,7.081,0,0,1,11.2-1.613a2.741,2.741,0,0,1-.834,1.29,2.14,2.14,0,0,1-1.4.455,2.118,2.118,0,0,1-1.753-.8A5.085,5.085,0,0,1,6.443-3.806Zm.974,0a4.838,4.838,0,0,0,.445,2.529,1.311,1.311,0,0,0,1.1.629,1.31,1.31,0,0,0,1.1-.632A4.84,4.84,0,0,0,10.5-3.806a4.837,4.837,0,0,0-.445-2.532,1.32,1.32,0,0,0-1.108-.626,1.214,1.214,0,0,0-1.042.553A4.894,4.894,0,0,0,7.417-3.806Zm5.027,1.769.947-.126A2.087,2.087,0,0,0,13.946-1a1.372,1.372,0,0,0,.955.355,1.531,1.531,0,0,0,1.129-.463,1.563,1.563,0,0,0,.461-1.147,1.454,1.454,0,0,0-.426-1.076,1.474,1.474,0,0,0-1.084-.424,2.72,2.72,0,0,0-.668.105l.105-.832a1.448,1.448,0,0,0,.153.011,1.951,1.951,0,0,0,1.09-.316,1.081,1.081,0,0,0,.484-.974,1.152,1.152,0,0,0-.353-.863,1.253,1.253,0,0,0-.911-.342,1.29,1.29,0,0,0-.921.347,1.744,1.744,0,0,0-.474,1.042l-.947-.168a2.435,2.435,0,0,1,.79-1.476,2.282,2.282,0,0,1,1.532-.524,2.523,2.523,0,0,1,1.163.271,1.961,1.961,0,0,1,.813.74,1.9,1.9,0,0,1,.282.995,1.629,1.629,0,0,1-.268.911,1.833,1.833,0,0,1-.795.653,1.791,1.791,0,0,1,1.063.655A2,2,0,0,1,17.5-2.279,2.278,2.278,0,0,1,16.76-.566a2.592,2.592,0,0,1-1.863.7,2.424,2.424,0,0,1-1.687-.605A2.341,2.341,0,0,1,12.443-2.037Z" transform="translate(1 11.916)" fill="#4891f2"/>
        <path id="Path_1868" data-name="Path 1868" d="M4.016,0H3.069V-6.037a4.9,4.9,0,0,1-.9.653,6.362,6.362,0,0,1-1,.49v-.916a5.722,5.722,0,0,0,1.39-.905,3.561,3.561,0,0,0,.842-1.032h.611ZM6.443-3.806a7.061,7.061,0,0,1,.282-2.2A2.74,2.74,0,0,1,7.561-7.3a2.14,2.14,0,0,1,1.4-.453,2.28,2.28,0,0,1,1.09.25,2.083,2.083,0,0,1,.774.721A3.869,3.869,0,0,1,11.3-5.629a7.624,7.624,0,0,1,.174,1.824A7.081,7.081,0,0,1,11.2-1.613a2.741,2.741,0,0,1-.834,1.29,2.14,2.14,0,0,1-1.4.455,2.118,2.118,0,0,1-1.753-.8A5.085,5.085,0,0,1,6.443-3.806Zm.974,0a4.838,4.838,0,0,0,.445,2.529,1.311,1.311,0,0,0,1.1.629,1.31,1.31,0,0,0,1.1-.632A4.84,4.84,0,0,0,10.5-3.806a4.837,4.837,0,0,0-.445-2.532,1.32,1.32,0,0,0-1.108-.626,1.214,1.214,0,0,0-1.042.553A4.894,4.894,0,0,0,7.417-3.806ZM15.475,0V-1.848H12.127v-.869l3.521-5h.774v5h1.042v.869H16.423V0Zm0-2.716V-6.2L13.059-2.716Z" transform="translate(39.294 11.916)" fill="#4891f2"/>
        <path id="Path_1867" data-name="Path 1867" d="M4.016,0H3.069V-6.037a4.9,4.9,0,0,1-.9.653,6.362,6.362,0,0,1-1,.49v-.916a5.722,5.722,0,0,0,1.39-.905,3.561,3.561,0,0,0,.842-1.032h.611ZM6.443-3.806a7.061,7.061,0,0,1,.282-2.2A2.74,2.74,0,0,1,7.561-7.3a2.14,2.14,0,0,1,1.4-.453,2.28,2.28,0,0,1,1.09.25,2.083,2.083,0,0,1,.774.721A3.869,3.869,0,0,1,11.3-5.629a7.624,7.624,0,0,1,.174,1.824A7.081,7.081,0,0,1,11.2-1.613a2.741,2.741,0,0,1-.834,1.29,2.14,2.14,0,0,1-1.4.455,2.118,2.118,0,0,1-1.753-.8A5.085,5.085,0,0,1,6.443-3.806Zm.974,0a4.838,4.838,0,0,0,.445,2.529,1.311,1.311,0,0,0,1.1.629,1.31,1.31,0,0,0,1.1-.632A4.84,4.84,0,0,0,10.5-3.806a4.837,4.837,0,0,0-.445-2.532,1.32,1.32,0,0,0-1.108-.626,1.214,1.214,0,0,0-1.042.553A4.894,4.894,0,0,0,7.417-3.806Zm5.022,1.784.995-.084a1.784,1.784,0,0,0,.513,1.092,1.393,1.393,0,0,0,.971.366,1.512,1.512,0,0,0,1.158-.516,1.944,1.944,0,0,0,.474-1.369,1.757,1.757,0,0,0-.455-1.279A1.588,1.588,0,0,0,14.9-4.279a1.652,1.652,0,0,0-.826.208,1.6,1.6,0,0,0-.579.54l-.89-.116.747-3.964h3.837v.905H14.112L13.7-4.632a2.511,2.511,0,0,1,1.458-.484,2.31,2.31,0,0,1,1.705.7,2.447,2.447,0,0,1,.695,1.8,2.81,2.81,0,0,1-.611,1.811,2.446,2.446,0,0,1-2.027.937A2.5,2.5,0,0,1,13.2-.458,2.3,2.3,0,0,1,12.438-2.021Z" transform="translate(78.783 11.916)" fill="#4891f2"/>
        <path id="Path_1866" data-name="Path 1866" d="M4.016,0H3.069V-6.037a4.9,4.9,0,0,1-.9.653,6.362,6.362,0,0,1-1,.49v-.916a5.722,5.722,0,0,0,1.39-.905,3.561,3.561,0,0,0,.842-1.032h.611ZM6.443-3.806a7.061,7.061,0,0,1,.282-2.2A2.74,2.74,0,0,1,7.561-7.3a2.14,2.14,0,0,1,1.4-.453,2.28,2.28,0,0,1,1.09.25,2.083,2.083,0,0,1,.774.721A3.869,3.869,0,0,1,11.3-5.629a7.624,7.624,0,0,1,.174,1.824A7.081,7.081,0,0,1,11.2-1.613a2.741,2.741,0,0,1-.834,1.29,2.14,2.14,0,0,1-1.4.455,2.118,2.118,0,0,1-1.753-.8A5.085,5.085,0,0,1,6.443-3.806Zm.974,0a4.838,4.838,0,0,0,.445,2.529,1.311,1.311,0,0,0,1.1.629,1.31,1.31,0,0,0,1.1-.632A4.84,4.84,0,0,0,10.5-3.806a4.837,4.837,0,0,0-.445-2.532,1.32,1.32,0,0,0-1.108-.626,1.214,1.214,0,0,0-1.042.553A4.894,4.894,0,0,0,7.417-3.806Zm9.938-2.021-.942.074a1.784,1.784,0,0,0-.358-.811,1.254,1.254,0,0,0-.947-.405,1.3,1.3,0,0,0-.795.253,2.159,2.159,0,0,0-.705.953,4.979,4.979,0,0,0-.268,1.784,2.2,2.2,0,0,1,.837-.774,2.251,2.251,0,0,1,1.037-.253,2.148,2.148,0,0,1,1.613.7,2.5,2.5,0,0,1,.666,1.8,2.966,2.966,0,0,1-.313,1.35,2.282,2.282,0,0,1-.861.955,2.35,2.35,0,0,1-1.242.332A2.427,2.427,0,0,1,13.143-.74,4.4,4.4,0,0,1,12.4-3.611a5.147,5.147,0,0,1,.826-3.253,2.376,2.376,0,0,1,1.942-.884,2.179,2.179,0,0,1,1.492.511A2.168,2.168,0,0,1,17.354-5.827ZM13.486-2.5a2.2,2.2,0,0,0,.208.937,1.55,1.55,0,0,0,.582.682,1.454,1.454,0,0,0,.784.234,1.337,1.337,0,0,0,1.032-.484,1.906,1.906,0,0,0,.432-1.316A1.784,1.784,0,0,0,16.1-3.708a1.4,1.4,0,0,0-1.074-.461,1.462,1.462,0,0,0-1.09.461A1.66,1.66,0,0,0,13.486-2.5Z" transform="translate(116.272 11.916)" fill="#4891f2"/>
        <path id="Path_1865" data-name="Path 1865" d="M4.016,0H3.069V-6.037a4.9,4.9,0,0,1-.9.653,6.362,6.362,0,0,1-1,.49v-.916a5.722,5.722,0,0,0,1.39-.905,3.561,3.561,0,0,0,.842-1.032h.611ZM6.443-3.806a7.061,7.061,0,0,1,.282-2.2A2.74,2.74,0,0,1,7.561-7.3a2.14,2.14,0,0,1,1.4-.453,2.28,2.28,0,0,1,1.09.25,2.083,2.083,0,0,1,.774.721A3.869,3.869,0,0,1,11.3-5.629a7.624,7.624,0,0,1,.174,1.824A7.081,7.081,0,0,1,11.2-1.613a2.741,2.741,0,0,1-.834,1.29,2.14,2.14,0,0,1-1.4.455,2.118,2.118,0,0,1-1.753-.8A5.085,5.085,0,0,1,6.443-3.806Zm.974,0a4.838,4.838,0,0,0,.445,2.529,1.311,1.311,0,0,0,1.1.629,1.31,1.31,0,0,0,1.1-.632A4.84,4.84,0,0,0,10.5-3.806a4.837,4.837,0,0,0-.445-2.532,1.32,1.32,0,0,0-1.108-.626,1.214,1.214,0,0,0-1.042.553A4.894,4.894,0,0,0,7.417-3.806Zm5.085-2.9v-.911h5v.737A10.526,10.526,0,0,0,16.036-4.8a12.7,12.7,0,0,0-1.119,2.674A9.939,9.939,0,0,0,14.554,0H13.58a9.456,9.456,0,0,1,.358-2.2,11.553,11.553,0,0,1,.982-2.487,10.661,10.661,0,0,1,1.361-2.019Z" transform="translate(154.713 11.916)" fill="#4891f2"/>
        <path id="Path_1864" data-name="Path 1864" d="M4.016,0H3.069V-6.037a4.9,4.9,0,0,1-.9.653,6.362,6.362,0,0,1-1,.49v-.916a5.722,5.722,0,0,0,1.39-.905,3.561,3.561,0,0,0,.842-1.032h.611ZM6.443-3.806a7.061,7.061,0,0,1,.282-2.2A2.74,2.74,0,0,1,7.561-7.3a2.14,2.14,0,0,1,1.4-.453,2.28,2.28,0,0,1,1.09.25,2.083,2.083,0,0,1,.774.721A3.869,3.869,0,0,1,11.3-5.629a7.624,7.624,0,0,1,.174,1.824A7.081,7.081,0,0,1,11.2-1.613a2.741,2.741,0,0,1-.834,1.29,2.14,2.14,0,0,1-1.4.455,2.118,2.118,0,0,1-1.753-.8A5.085,5.085,0,0,1,6.443-3.806Zm.974,0a4.838,4.838,0,0,0,.445,2.529,1.311,1.311,0,0,0,1.1.629,1.31,1.31,0,0,0,1.1-.632A4.84,4.84,0,0,0,10.5-3.806a4.837,4.837,0,0,0-.445-2.532,1.32,1.32,0,0,0-1.108-.626,1.214,1.214,0,0,0-1.042.553A4.894,4.894,0,0,0,7.417-3.806Zm6.48-.379a1.783,1.783,0,0,1-.874-.616,1.611,1.611,0,0,1-.284-.958,1.873,1.873,0,0,1,.605-1.416,2.245,2.245,0,0,1,1.611-.574,2.26,2.26,0,0,1,1.626.587A1.9,1.9,0,0,1,17.2-5.732a1.574,1.574,0,0,1-.282.934,1.776,1.776,0,0,1-.855.613,2.074,2.074,0,0,1,1.082.747,2.053,2.053,0,0,1,.371,1.232,2.217,2.217,0,0,1-.7,1.663A2.545,2.545,0,0,1,14.97.132a2.54,2.54,0,0,1-1.842-.676,2.25,2.25,0,0,1-.7-1.687,2.039,2.039,0,0,1,.382-1.261A1.911,1.911,0,0,1,13.9-4.185ZM13.707-5.79a1.2,1.2,0,0,0,.353.895,1.249,1.249,0,0,0,.916.347,1.225,1.225,0,0,0,.9-.345,1.14,1.14,0,0,0,.35-.845,1.182,1.182,0,0,0-.361-.876,1.228,1.228,0,0,0-.9-.355,1.24,1.24,0,0,0-.9.347A1.118,1.118,0,0,0,13.707-5.79ZM13.4-2.227a1.714,1.714,0,0,0,.192.784,1.356,1.356,0,0,0,.571.587,1.67,1.67,0,0,0,.816.208A1.529,1.529,0,0,0,16.1-1.084a1.5,1.5,0,0,0,.442-1.111,1.52,1.52,0,0,0-.455-1.132,1.56,1.56,0,0,0-1.14-.447,1.5,1.5,0,0,0-1.108.442A1.5,1.5,0,0,0,13.4-2.227Zm14.459-.921q0,.084-.1.084h-.474a.074.074,0,0,1-.084-.084V-4.2H19.591v1.047q0,.084-.089.084h-.484a.074.074,0,0,1-.084-.084l.021-.874v-.237l-.021-.411q0-.074.084-.074l.205.005q.2.011.432.016l-.105-2.511a6.157,6.157,0,0,0-.121-1.142,1.818,1.818,0,0,1,.537.174,8.876,8.876,0,0,0,.921-.337,1.778,1.778,0,0,0,.421-.258,3.7,3.7,0,0,1,.453.39.175.175,0,0,1,.063.116q0,.089-.121.089a1.106,1.106,0,0,0-.384.084q-.653.237-1.211.379l.021.537h.821l.647-.021a.074.074,0,0,1,.084.084v.358q0,.074-.084.074l-.647-.021h-.8L20.17-6h.8l.626-.021a.074.074,0,0,1,.084.084v.358q0,.074-.084.074l-.626-.021h-.779l.037.805h6.348l.042-.784h-.763l-.637.021q-.084,0-.084-.074v-.358A.074.074,0,0,1,25.218-6l.637.021h.795l.058-.747h-.842l-.637.021q-.084,0-.084-.074v-.342q0-.1.084-.1l.637.021h.863l.053-.742h-.874l-.763.021q-.1,0-.1-.084V-8.4q0-.089.1-.089l.763.026h.616l.774-.026a.088.088,0,0,1,.1.1q-.058.411-.1,1.205l-.137,2.458q.237-.005.453-.016l.147-.005q.1,0,.1.074L27.84-4.3v.279Zm.258,1.832a.074.074,0,0,1-.084.084l-1.39-.021H23.734v.247l.011.884a.776.776,0,0,1-.295.7,1.107,1.107,0,0,1-.495.142q-.284.032-.947.032a.358.358,0,0,1-.2-.032.406.406,0,0,1-.068-.174,2.119,2.119,0,0,0-.205-.442,10.561,10.561,0,0,0,1.1.053.561.561,0,0,0,.379-.095.389.389,0,0,0,.095-.3V-1.253H20.134l-1.395.021a.074.074,0,0,1-.084-.084v-.447a.074.074,0,0,1,.084-.084l1.395.021h2.974a6.011,6.011,0,0,0-.063-.679l.537.1a8.4,8.4,0,0,0,1.379-.668h-2.9l-1.39.021a.074.074,0,0,1-.084-.084v-.39q0-.074.084-.074l1.39.011h3.011a1.553,1.553,0,0,0,.258-.011.359.359,0,0,1,.116-.032q.089,0,.284.205.216.242.216.321a.123.123,0,0,1-.111.126,2.61,2.61,0,0,0-.421.216,10.712,10.712,0,0,1-1.679.795v.142h2.911l1.39-.021a.074.074,0,0,1,.084.084ZM24.66-7.374q.047.032.047.058t-.058.084l-.163.174q-.084.089-.116.089T24.3-7.011q-.368-.284-.763-.537a6.637,6.637,0,0,1-1.111.595.6.6,0,0,1-.163.053q-.047,0-.163-.126a1.035,1.035,0,0,0-.268-.226A5.834,5.834,0,0,0,23.1-7.817q-.168-.095-.811-.432-.058-.026-.058-.053t.058-.084l.174-.163q.058-.063.095-.063a.206.206,0,0,1,.068.016q.5.253.905.5l.29-.237a2.247,2.247,0,0,0,.353-.421,2.519,2.519,0,0,1,.411.268q.079.058.079.111t-.079.084a.687.687,0,0,0-.216.132l-.395.321Q24.344-7.6,24.66-7.374Zm0,2.116-.174.179q-.095.105-.121.105a.121.121,0,0,1-.063-.037q-.247-.195-.763-.542a5.489,5.489,0,0,1-1.1.584,1.26,1.26,0,0,1-.163.053q-.047,0-.153-.121a.938.938,0,0,0-.279-.232A6.309,6.309,0,0,0,23.1-5.822q-.253-.153-.79-.432-.063-.026-.063-.053a.134.134,0,0,1,.042-.074l.163-.174q.068-.074.1-.074a.16.16,0,0,1,.058.016q.463.232.921.511.116-.089.311-.258a1.775,1.775,0,0,0,.342-.411,2.386,2.386,0,0,1,.4.258q.079.058.079.105,0,.068-.089.1a.668.668,0,0,0-.216.116q-.016.016-.4.337.426.268.705.463.047.032.047.053A.181.181,0,0,1,24.66-5.258Zm14.159,3.4a.074.074,0,0,1-.084.084L37.325-1.8H34.9v.721L34.919.7a.065.065,0,0,1-.074.074H34.3q-.095,0-.095-.074l.021-1.779V-1.8H30.956l-1.416.021a.074.074,0,0,1-.084-.084v-.49a.074.074,0,0,1,.084-.084l1.416.021h.321V-4l-.021-.942a.074.074,0,0,1,.084-.084L32.851-5H34.23V-6.78H31.772A10.982,10.982,0,0,1,30.4-5.106q-.1.116-.142.116t-.147-.132a1.1,1.1,0,0,0-.368-.29,8.691,8.691,0,0,0,2.116-2.837,3.011,3.011,0,0,0,.226-.711q.274.068.668.205a.152.152,0,0,1,.105.142.211.211,0,0,1-.095.147,1.11,1.11,0,0,0-.274.39q-.237.474-.363.7h4.537l1.5-.021a.074.074,0,0,1,.084.084v.468a.074.074,0,0,1-.084.084l-1.5-.021H34.9V-5H36.2L37.7-5.022q.079,0,.079.084v.468q0,.084-.079.084L36.2-4.406H34.9v1.99h2.427l1.411-.021a.074.074,0,0,1,.084.084Zm-4.59-.553v-1.99H31.935v1.99Z" transform="translate(193.208 12)" fill="#4891f2"/>
      </g>
    </g>
  </g>
</svg>
