<svg xmlns="http://www.w3.org/2000/svg" width="268.176" height="284.964" viewBox="0 0 268.176 284.964">
  <g id="data3" transform="translate(8178.578 15051.964)">
    <g id="Group_1902" data-name="Group 1902" transform="translate(-8469 -15336)">
      <g id="data_3-04" transform="translate(290.422 300.193)">
        <rect id="Rectangle_2130" data-name="Rectangle 2130" width="32.881" height="18.53" transform="translate(46.68 250.277)" fill="none"/>
        <path id="Path_1543" data-name="Path 1543" d="M3.471-10.829a14.633,14.633,0,0,1-3.2,5.161,5.778,5.778,0,0,1,.546.949,15.069,15.069,0,0,0,1.3-1.6V.975h.923V-7.748a19.144,19.144,0,0,0,1.339-2.808ZM6.1.676H9.555V-.13H6.1ZM5.824-5.915V-8.879c.9-.143,1.82-.312,2.717-.494.039,1.222.117,2.379.208,3.458Zm6.383.9v-.9H9.633c-.1-1.131-.182-2.366-.221-3.64.858-.208,1.651-.429,2.327-.663l-.767-.728A33.953,33.953,0,0,1,4.914-9.555l.013.013H4.914v7.865a.866.866,0,0,1-.572.819,2.428,2.428,0,0,1,.364.793A18,18,0,0,1,8.229-1.183,5.328,5.328,0,0,1,8.2-1.989l-2.379.624V-5.018H8.84C9.217-1.521,9.958.871,11.31.91c.481,0,.936-.559,1.183-2.509a3.08,3.08,0,0,1-.689-.468c-.091,1.222-.247,1.9-.494,1.9-.7-.026-1.261-2-1.573-4.849Zm9.5-5.213a13.308,13.308,0,0,1,2.3,1.56l.6-.663a12.4,12.4,0,0,0-2.327-1.482Zm1.846,3.51a12.874,12.874,0,0,1-1.664,3.51,23.448,23.448,0,0,1-.715-4.511h4.134v-.949h-4.2c-.039-.7-.052-1.43-.052-2.184h-1c.013.741.026,1.469.078,2.184H14.716v3.627c0,1.677-.117,3.9-1.183,5.486a3.845,3.845,0,0,1,.806.65C15.509-.6,15.7-3.211,15.7-5.031v-.1H18.07c-.052,2.236-.117,3.055-.3,3.25-.078.117-.208.143-.39.143-.221,0-.78-.013-1.378-.065a2.009,2.009,0,0,1,.273.91,15,15,0,0,0,1.547,0,1.006,1.006,0,0,0,.78-.377c.273-.338.351-1.43.416-4.342v-.416H15.7v-1.69h4.485a25.562,25.562,0,0,0,.949,5.473A10.374,10.374,0,0,1,18.148.156a5.441,5.441,0,0,1,.7.767,11.623,11.623,0,0,0,2.678-2.158C22.126.1,22.906.9,23.907.9S25.246.26,25.428-1.95a2.285,2.285,0,0,1-.832-.52c-.091,1.729-.247,2.405-.611,2.405-.663,0-1.261-.741-1.742-2.015a14.659,14.659,0,0,0,2.288-4.394ZM37.947-8.385a8.014,8.014,0,0,0-1.339-1.872l-.65.364a8.552,8.552,0,0,1,1.3,1.937Zm-5.3-.884H30.5a10.53,10.53,0,0,0-.689-1.612l-.884.195c.2.442.442.975.585,1.417H26.741v.858h5.9ZM27.885-3.562a7.75,7.75,0,0,1-1.2,2.847c.2.117.546.351.7.468a9.837,9.837,0,0,0,1.3-3.146Zm.4-3.029h2.925v1.56H28.288Zm3.822,2.34V-7.384H27.443v3.133h1.95v4.2c0,.13-.039.169-.182.169s-.559.013-1.014,0A2.614,2.614,0,0,1,28.47.91a3.545,3.545,0,0,0,1.4-.143c.312-.143.39-.364.39-.806V-4.251Zm.325,2.808a8.673,8.673,0,0,0-.962-2.262l-.689.312a9.588,9.588,0,0,1,.923,2.288Zm5.915-5.2v-.871H35.386c.078-1.144.078-2.275.091-3.328h-.91c-.013,1.053-.013,2.184-.078,3.328H32.76v.871h1.677C34.2-3.9,33.553-1.2,31.681.442a2.594,2.594,0,0,1,.7.572c1.989-1.807,2.678-4.732,2.938-7.657ZM36.621-.052a.7.7,0,0,1-.312-.065c-.078-.052-.1-.221-.1-.494V-5.616h-.858v4.9c0,.819.091,1.027.3,1.183a1.365,1.365,0,0,0,.806.221h.832a1.748,1.748,0,0,0,.741-.13.78.78,0,0,0,.4-.507,8.158,8.158,0,0,0,.143-1.534,1.988,1.988,0,0,1-.754-.39,13.635,13.635,0,0,1-.065,1.4q-.039.293-.195.351a.726.726,0,0,1-.377.065Z" transform="translate(46.643 259.062)" fill="#d48773"/>
        <rect id="Rectangle_2131" data-name="Rectangle 2131" width="32.881" height="18.53" transform="translate(186.249 250.277)" fill="none"/>
        <path id="Path_1544" data-name="Path 1544" d="M8.281-2.34v1.209h-3.7V-2.34Zm.871-.728H3.679v3.3h.9V-.4H9.152Zm2.574-1.586H1.287V.988h.936V-3.835h8.541V-.026c0,.156-.052.2-.221.208S9.789.2,9.23.169a2.912,2.912,0,0,1,.312.715A5.848,5.848,0,0,0,11.258.767c.351-.13.468-.325.468-.793ZM9.334-6.071h-5.6v-1.17h5.6ZM2.782-7.956v2.6h7.54v-2.6Zm4.407-1.56c-.143-.416-.338-.962-.52-1.4l-.936.221c.13.364.286.806.4,1.183H.819v.832H12.142v-.832Zm14.521-.715a13.308,13.308,0,0,1,2.3,1.56l.6-.663a12.4,12.4,0,0,0-2.327-1.482Zm1.846,3.51a12.874,12.874,0,0,1-1.664,3.51,23.448,23.448,0,0,1-.715-4.511h4.134v-.949h-4.2c-.039-.7-.052-1.43-.052-2.184h-1c.013.741.026,1.469.078,2.184H14.716v3.627c0,1.677-.117,3.9-1.183,5.486a3.845,3.845,0,0,1,.806.65C15.509-.6,15.7-3.211,15.7-5.031v-.1H18.07c-.052,2.236-.117,3.055-.3,3.25-.078.117-.208.143-.39.143-.221,0-.78-.013-1.378-.065a2.009,2.009,0,0,1,.273.91,15,15,0,0,0,1.547,0,1.006,1.006,0,0,0,.78-.377c.273-.338.351-1.43.416-4.342v-.416H15.7v-1.69h4.485a25.562,25.562,0,0,0,.949,5.473A10.374,10.374,0,0,1,18.148.156a5.441,5.441,0,0,1,.7.767,11.623,11.623,0,0,0,2.678-2.158C22.126.1,22.906.9,23.907.9S25.246.26,25.428-1.95a2.285,2.285,0,0,1-.832-.52c-.091,1.729-.247,2.405-.611,2.405-.663,0-1.261-.741-1.742-2.015a14.659,14.659,0,0,0,2.288-4.394ZM37.947-8.385a8.014,8.014,0,0,0-1.339-1.872l-.65.364a8.552,8.552,0,0,1,1.3,1.937Zm-5.3-.884H30.5a10.53,10.53,0,0,0-.689-1.612l-.884.195c.2.442.442.975.585,1.417H26.741v.858h5.9ZM27.885-3.562a7.75,7.75,0,0,1-1.2,2.847c.2.117.546.351.7.468a9.837,9.837,0,0,0,1.3-3.146Zm.4-3.029h2.925v1.56H28.288Zm3.822,2.34V-7.384H27.443v3.133h1.95v4.2c0,.13-.039.169-.182.169s-.559.013-1.014,0A2.614,2.614,0,0,1,28.47.91a3.545,3.545,0,0,0,1.4-.143c.312-.143.39-.364.39-.806V-4.251Zm.325,2.808a8.673,8.673,0,0,0-.962-2.262l-.689.312a9.588,9.588,0,0,1,.923,2.288Zm5.915-5.2v-.871H35.386c.078-1.144.078-2.275.091-3.328h-.91c-.013,1.053-.013,2.184-.078,3.328H32.76v.871h1.677C34.2-3.9,33.553-1.2,31.681.442a2.594,2.594,0,0,1,.7.572c1.989-1.807,2.678-4.732,2.938-7.657ZM36.621-.052a.7.7,0,0,1-.312-.065c-.078-.052-.1-.221-.1-.494V-5.616h-.858v4.9c0,.819.091,1.027.3,1.183a1.365,1.365,0,0,0,.806.221h.832a1.748,1.748,0,0,0,.741-.13.78.78,0,0,0,.4-.507,8.158,8.158,0,0,0,.143-1.534,1.988,1.988,0,0,1-.754-.39,13.635,13.635,0,0,1-.065,1.4q-.039.293-.195.351a.726.726,0,0,1-.377.065Z" transform="translate(178.276 259.062)" fill="#d48773"/>
        <g id="Group_1640" data-name="Group 1640" transform="translate(0 0)">
          <g id="Group_1639" data-name="Group 1639" transform="translate(16.086)">
            <g id="Group_1636" data-name="Group 1636" transform="translate(134.103 92.494)">
              <g id="Group_1635" data-name="Group 1635">
                <rect id="Rectangle_2132" data-name="Rectangle 2132" width="48.258" height="69.705" transform="translate(0 76.408)" fill="#356bd0"/>
                <rect id="Rectangle_2133" data-name="Rectangle 2133" width="48.258" height="146.113" transform="translate(53.566)" fill="#356bd0"/>
              </g>
            </g>
            <g id="Group_1638" data-name="Group 1638">
              <g id="Group_1637" data-name="Group 1637">
                <rect id="Rectangle_2134" data-name="Rectangle 2134" width="48.258" height="209.195" transform="translate(0 29.491)" fill="#fff"/>
                <rect id="Rectangle_2135" data-name="Rectangle 2135" width="48.258" height="238.685" transform="translate(53.566)" fill="#fff"/>
              </g>
            </g>
          </g>
          <g id="Group_1630" data-name="Group 1630" transform="translate(0 238.607)">
            <line id="Line_118" data-name="Line 118" x2="268.176" fill="none" stroke="#55585f" stroke-miterlimit="10" stroke-width="1"/>
          </g>
        </g>
      </g>
      <path id="內文p" d="M3.132,14.156a2.857,2.857,0,0,0,2.88-3.024,2.51,2.51,0,0,0-2.652-2.8,2.558,2.558,0,0,0-1.308.348L2.268,6.14H5.592V5.192H1.308L1.032,9.32l.588.36a2.393,2.393,0,0,1,1.464-.516,1.78,1.78,0,0,1,1.824,2,1.9,1.9,0,0,1-1.872,2.076,2.894,2.894,0,0,1-2.16-.972l-.54.72A3.737,3.737,0,0,0,3.132,14.156Zm5.2,0a.793.793,0,0,0,.792-.828.794.794,0,1,0-1.584,0A.793.793,0,0,0,8.328,14.156Zm2.2-.156h5.532v-.948H13.62c-.444,0-.984.048-1.44.084,2.064-1.956,3.444-3.744,3.444-5.5a2.413,2.413,0,0,0-2.556-2.6,3.364,3.364,0,0,0-2.592,1.3l.636.624a2.463,2.463,0,0,1,1.824-1.02,1.546,1.546,0,0,1,1.62,1.74c0,1.512-1.272,3.264-4.032,5.676Zm8.592-3.408c1.212,0,2-1.02,2-2.8s-.792-2.76-2-2.76-1.992,1-1.992,2.76S17.916,10.592,19.116,10.592Zm0-.684c-.684,0-1.164-.708-1.164-2.112s.48-2.088,1.164-2.088,1.176.684,1.176,2.088S19.812,9.908,19.116,9.908Zm.264,4.248h.732l4.86-9.12h-.744Zm5.868,0c1.2,0,1.992-1.008,1.992-2.784s-.792-2.76-1.992-2.76-2,1-2,2.76S24.048,14.156,25.248,14.156Zm0-.672c-.7,0-1.164-.708-1.164-2.112s.468-2.088,1.164-2.088,1.164.684,1.164,2.088S25.932,13.484,25.248,13.484Z" transform="translate(448 447)" fill="#80adff"/>
      <path id="內文p-2" data-name="內文p" d="M1.056,14H5.88v-.912H4.116v-7.9h-.84a5.3,5.3,0,0,1-1.824.636v.7h1.56v6.564H1.056Zm8.94.156c1.668,0,2.736-1.524,2.736-4.584S11.664,5.036,10,5.036,7.248,6.512,7.248,9.572,8.316,14.156,10,14.156Zm0-.876c-1.008,0-1.68-1.116-1.68-3.708,0-2.568.672-3.66,1.68-3.66S11.664,7,11.664,9.572C11.664,12.164,10.992,13.28,10,13.28Zm4.992.876a.793.793,0,0,0,.792-.828.794.794,0,1,0-1.584,0A.793.793,0,0,0,14.988,14.156Zm3.228-6.264c0-1.2.648-1.992,1.488-1.992,1.128,0,1.8.96,1.92,2.772a2.305,2.305,0,0,1-1.836,1.176C18.744,9.848,18.216,9.08,18.216,7.892Zm1.248,6.264c1.656,0,3.192-1.368,3.192-4.932,0-2.8-1.26-4.188-2.952-4.188a2.641,2.641,0,0,0-2.52,2.856c0,1.824.96,2.772,2.424,2.772a2.737,2.737,0,0,0,2.028-1.08c-.084,2.724-1.068,3.66-2.208,3.66a1.94,1.94,0,0,1-1.464-.672l-.612.684A2.8,2.8,0,0,0,19.464,14.156Zm6.312-3.564c1.212,0,2-1.02,2-2.8s-.792-2.76-2-2.76-1.992,1-1.992,2.76S24.576,10.592,25.776,10.592Zm0-.684c-.684,0-1.164-.708-1.164-2.112s.48-2.088,1.164-2.088,1.176.684,1.176,2.088S26.472,9.908,25.776,9.908Zm.264,4.248h.732l4.86-9.12h-.744Zm5.868,0c1.2,0,1.992-1.008,1.992-2.784s-.792-2.76-1.992-2.76-2,1-2,2.76S30.708,14.156,31.908,14.156Zm0-.672c-.7,0-1.164-.708-1.164-2.112s.468-2.088,1.164-2.088,1.164.684,1.164,2.088S32.592,13.484,31.908,13.484Z" transform="translate(497 372)" fill="#80adff"/>
      <path id="內文p-3" data-name="內文p" d="M1.056,14H5.88v-.912H4.116v-7.9h-.84a5.3,5.3,0,0,1-1.824.636v.7h1.56v6.564H1.056Zm7.98,0h1.14c.132-3.444.516-5.5,2.58-8.136V5.192H7.248V6.14h4.26A13.027,13.027,0,0,0,9.036,14Zm5.952.156a.793.793,0,0,0,.792-.828.794.794,0,1,0-1.584,0A.793.793,0,0,0,14.988,14.156Zm5.016,0c1.656,0,2.76-1,2.76-2.28a2.567,2.567,0,0,0-1.488-2.3v-.06a2.884,2.884,0,0,0,1.176-2.124A2.225,2.225,0,0,0,20.04,5.072,2.238,2.238,0,0,0,17.628,7.3a2.445,2.445,0,0,0,1.188,2.028v.06a2.817,2.817,0,0,0-1.62,2.424A2.523,2.523,0,0,0,20,14.156Zm.6-4.932c-1.032-.408-1.98-.864-1.98-1.92a1.355,1.355,0,0,1,1.4-1.428,1.458,1.458,0,0,1,1.488,1.572A2.36,2.36,0,0,1,20.6,9.224Zm-.576,4.116a1.687,1.687,0,0,1-1.836-1.62,2.391,2.391,0,0,1,1.2-1.992c1.248.5,2.328.948,2.328,2.124A1.524,1.524,0,0,1,20.028,13.34Zm5.748-2.748c1.212,0,2-1.02,2-2.8s-.792-2.76-2-2.76-1.992,1-1.992,2.76S24.576,10.592,25.776,10.592Zm0-.684c-.684,0-1.164-.708-1.164-2.112s.48-2.088,1.164-2.088,1.176.684,1.176,2.088S26.472,9.908,25.776,9.908Zm.264,4.248h.732l4.86-9.12h-.744Zm5.868,0c1.2,0,1.992-1.008,1.992-2.784s-.792-2.76-1.992-2.76-2,1-2,2.76S30.708,14.156,31.908,14.156Zm0-.672c-.7,0-1.164-.708-1.164-2.112s.468-2.088,1.164-2.088,1.164.684,1.164,2.088S32.592,13.484,31.908,13.484Z" transform="translate(366 279)" fill="#fff"/>
    </g>
    <path id="內文p-4" data-name="內文p" d="M1.056,14H5.88v-.912H4.116v-7.9h-.84a5.3,5.3,0,0,1-1.824.636v.7h1.56v6.564H1.056Zm8.736.156a2.857,2.857,0,0,0,2.88-3.024,2.51,2.51,0,0,0-2.652-2.8,2.558,2.558,0,0,0-1.308.348L8.928,6.14h3.324V5.192H7.968L7.692,9.32l.588.36a2.393,2.393,0,0,1,1.464-.516,1.78,1.78,0,0,1,1.824,2A1.9,1.9,0,0,1,9.7,13.244a2.894,2.894,0,0,1-2.16-.972l-.54.72A3.737,3.737,0,0,0,9.792,14.156Zm5.2,0a.793.793,0,0,0,.792-.828.794.794,0,1,0-1.584,0A.793.793,0,0,0,14.988,14.156Zm5.184-4.8c1.068,0,1.6.756,1.6,1.944s-.66,2-1.5,2c-1.1,0-1.764-1-1.9-2.82A2.274,2.274,0,0,1,20.172,9.356Zm.1,4.8a2.641,2.641,0,0,0,2.52-2.856c0-1.836-.948-2.76-2.436-2.76a2.736,2.736,0,0,0-2,1.068c.048-2.736,1.068-3.66,2.268-3.66a1.86,1.86,0,0,1,1.416.672l.6-.684a2.7,2.7,0,0,0-2.052-.9c-1.7,0-3.252,1.32-3.252,4.764C17.328,12.7,18.576,14.156,20.268,14.156Zm5.508-3.564c1.212,0,2-1.02,2-2.8s-.792-2.76-2-2.76-1.992,1-1.992,2.76S24.576,10.592,25.776,10.592Zm0-.684c-.684,0-1.164-.708-1.164-2.112s.48-2.088,1.164-2.088,1.176.684,1.176,2.088S26.472,9.908,25.776,9.908Zm.264,4.248h.732l4.86-9.12h-.744Zm5.868,0c1.2,0,1.992-1.008,1.992-2.784s-.792-2.76-1.992-2.76-2,1-2,2.76S30.708,14.156,31.908,14.156Zm0-.672c-.7,0-1.164-.708-1.164-2.112s.468-2.088,1.164-2.088,1.164.684,1.164,2.088S32.592,13.484,31.908,13.484Z" transform="translate(-8154 -15028)" fill="#fff"/>
    <path id="內文p-5" data-name="內文p" d="M.528,14H6.06v-.948H3.624c-.444,0-.984.048-1.44.084,2.064-1.956,3.444-3.744,3.444-5.5a2.413,2.413,0,0,0-2.556-2.6A3.364,3.364,0,0,0,.48,6.332l.636.624A2.463,2.463,0,0,1,2.94,5.936a1.546,1.546,0,0,1,1.62,1.74c0,1.512-1.272,3.264-4.032,5.676ZM10,14.156c1.668,0,2.736-1.524,2.736-4.584S11.664,5.036,10,5.036,7.248,6.512,7.248,9.572,8.316,14.156,10,14.156Zm0-.876c-1.008,0-1.68-1.116-1.68-3.708,0-2.568.672-3.66,1.68-3.66S11.664,7,11.664,9.572C11.664,12.164,10.992,13.28,10,13.28Zm6.66.876c1.668,0,2.736-1.524,2.736-4.584s-1.068-4.536-2.736-4.536-2.748,1.476-2.748,4.536S14.976,14.156,16.656,14.156Zm0-.876c-1.008,0-1.68-1.116-1.68-3.708,0-2.568.672-3.66,1.68-3.66S18.324,7,18.324,9.572C18.324,12.164,17.652,13.28,16.656,13.28ZM21.54,7.892c0-1.2.648-1.992,1.488-1.992,1.128,0,1.8.96,1.92,2.772a2.305,2.305,0,0,1-1.836,1.176C22.068,9.848,21.54,9.08,21.54,7.892Zm1.248,6.264c1.656,0,3.192-1.368,3.192-4.932,0-2.8-1.26-4.188-2.952-4.188a2.641,2.641,0,0,0-2.52,2.856c0,1.824.96,2.772,2.424,2.772a2.737,2.737,0,0,0,2.028-1.08c-.084,2.724-1.068,3.66-2.208,3.66a1.94,1.94,0,0,1-1.464-.672l-.612.684A2.8,2.8,0,0,0,22.788,14.156Z" transform="translate(-8152 -14821)" fill="#b2aeae"/>
    <path id="內文p-6" data-name="內文p" d="M.528,14H6.06v-.948H3.624c-.444,0-.984.048-1.44.084,2.064-1.956,3.444-3.744,3.444-5.5a2.413,2.413,0,0,0-2.556-2.6A3.364,3.364,0,0,0,.48,6.332l.636.624A2.463,2.463,0,0,1,2.94,5.936a1.546,1.546,0,0,1,1.62,1.74c0,1.512-1.272,3.264-4.032,5.676ZM10,14.156c1.668,0,2.736-1.524,2.736-4.584S11.664,5.036,10,5.036,7.248,6.512,7.248,9.572,8.316,14.156,10,14.156Zm0-.876c-1.008,0-1.68-1.116-1.68-3.708,0-2.568.672-3.66,1.68-3.66S11.664,7,11.664,9.572C11.664,12.164,10.992,13.28,10,13.28Zm6.66.876c1.668,0,2.736-1.524,2.736-4.584s-1.068-4.536-2.736-4.536-2.748,1.476-2.748,4.536S14.976,14.156,16.656,14.156Zm0-.876c-1.008,0-1.68-1.116-1.68-3.708,0-2.568.672-3.66,1.68-3.66S18.324,7,18.324,9.572C18.324,12.164,17.652,13.28,16.656,13.28ZM21.54,7.892c0-1.2.648-1.992,1.488-1.992,1.128,0,1.8.96,1.92,2.772a2.305,2.305,0,0,1-1.836,1.176C22.068,9.848,21.54,9.08,21.54,7.892Zm1.248,6.264c1.656,0,3.192-1.368,3.192-4.932,0-2.8-1.26-4.188-2.952-4.188a2.641,2.641,0,0,0-2.52,2.856c0,1.824.96,2.772,2.424,2.772a2.737,2.737,0,0,0,2.028-1.08c-.084,2.724-1.068,3.66-2.208,3.66a1.94,1.94,0,0,1-1.464-.672l-.612.684A2.8,2.8,0,0,0,22.788,14.156Z" transform="translate(-8018 -14821)" fill="#e5e5e5" opacity="0.82"/>
    <path id="內文p-7" data-name="內文p" d="M.528,14H6.06v-.948H3.624c-.444,0-.984.048-1.44.084,2.064-1.956,3.444-3.744,3.444-5.5a2.413,2.413,0,0,0-2.556-2.6A3.364,3.364,0,0,0,.48,6.332l.636.624A2.463,2.463,0,0,1,2.94,5.936a1.546,1.546,0,0,1,1.62,1.74c0,1.512-1.272,3.264-4.032,5.676ZM10,14.156c1.668,0,2.736-1.524,2.736-4.584S11.664,5.036,10,5.036,7.248,6.512,7.248,9.572,8.316,14.156,10,14.156Zm0-.876c-1.008,0-1.68-1.116-1.68-3.708,0-2.568.672-3.66,1.68-3.66S11.664,7,11.664,9.572C11.664,12.164,10.992,13.28,10,13.28Zm4.38.72H19.2v-.912H17.436v-7.9H16.6a5.3,5.3,0,0,1-1.824.636v.7h1.56v6.564H14.376Zm8.952.156c1.656,0,2.76-1,2.76-2.28a2.567,2.567,0,0,0-1.488-2.3v-.06a2.884,2.884,0,0,0,1.176-2.124,2.225,2.225,0,0,0-2.412-2.316A2.238,2.238,0,0,0,20.952,7.3,2.445,2.445,0,0,0,22.14,9.332v.06a2.817,2.817,0,0,0-1.62,2.424A2.523,2.523,0,0,0,23.328,14.156Zm.6-4.932c-1.032-.408-1.98-.864-1.98-1.92a1.355,1.355,0,0,1,1.4-1.428A1.458,1.458,0,0,1,24.84,7.448,2.36,2.36,0,0,1,23.928,9.224Zm-.576,4.116a1.687,1.687,0,0,1-1.836-1.62,2.391,2.391,0,0,1,1.2-1.992c1.248.5,2.328.948,2.328,2.124A1.524,1.524,0,0,1,23.352,13.34Z" transform="translate(-8098 -14821)" fill="#b2aeae"/>
    <path id="內文p-8" data-name="內文p" d="M.528,14H6.06v-.948H3.624c-.444,0-.984.048-1.44.084,2.064-1.956,3.444-3.744,3.444-5.5a2.413,2.413,0,0,0-2.556-2.6A3.364,3.364,0,0,0,.48,6.332l.636.624A2.463,2.463,0,0,1,2.94,5.936a1.546,1.546,0,0,1,1.62,1.74c0,1.512-1.272,3.264-4.032,5.676ZM10,14.156c1.668,0,2.736-1.524,2.736-4.584S11.664,5.036,10,5.036,7.248,6.512,7.248,9.572,8.316,14.156,10,14.156Zm0-.876c-1.008,0-1.68-1.116-1.68-3.708,0-2.568.672-3.66,1.68-3.66S11.664,7,11.664,9.572C11.664,12.164,10.992,13.28,10,13.28Zm4.38.72H19.2v-.912H17.436v-7.9H16.6a5.3,5.3,0,0,1-1.824.636v.7h1.56v6.564H14.376Zm8.952.156c1.656,0,2.76-1,2.76-2.28a2.567,2.567,0,0,0-1.488-2.3v-.06a2.884,2.884,0,0,0,1.176-2.124,2.225,2.225,0,0,0-2.412-2.316A2.238,2.238,0,0,0,20.952,7.3,2.445,2.445,0,0,0,22.14,9.332v.06a2.817,2.817,0,0,0-1.62,2.424A2.523,2.523,0,0,0,23.328,14.156Zm.6-4.932c-1.032-.408-1.98-.864-1.98-1.92a1.355,1.355,0,0,1,1.4-1.428A1.458,1.458,0,0,1,24.84,7.448,2.36,2.36,0,0,1,23.928,9.224Zm-.576,4.116a1.687,1.687,0,0,1-1.836-1.62,2.391,2.391,0,0,1,1.2-1.992c1.248.5,2.328.948,2.328,2.124A1.524,1.524,0,0,1,23.352,13.34Z" transform="translate(-7964 -14821)" fill="#e5e5e5" opacity="0.82"/>
  </g>
</svg>
