<svg xmlns="http://www.w3.org/2000/svg" width="395.96" height="302.506" viewBox="0 0 395.96 302.506">
  <g id="data1" transform="translate(-196.576 -237)">
    <g id="Group_1580" data-name="Group 1580" transform="translate(-489 -825)">
      <rect id="Rectangle_2063" data-name="Rectangle 2063" width="145" height="31" rx="15.5" transform="translate(813 1062)" fill="#3d3c3c"/>
      <path id="內文p" d="M8.638,8.65A6.3,6.3,0,0,0,7.63,7.88a7.962,7.962,0,0,0,.812-.9l-.728-.238a5,5,0,0,1-.7.742c-.364-.2-.728-.406-1.078-.56l-.518.462a10.291,10.291,0,0,1,1.008.546,8.416,8.416,0,0,1-1.33.77,3.612,3.612,0,0,1,.574.546,9.907,9.907,0,0,0,1.4-.91,7.634,7.634,0,0,1,1.008.812ZM8.6,6.144c-.252-.2-.588-.42-.966-.658a7.19,7.19,0,0,0,.77-.854l-.728-.2a5.963,5.963,0,0,1-.658.686c-.364-.2-.714-.378-1.05-.518l-.5.462a9.33,9.33,0,0,1,.98.5,8.438,8.438,0,0,1-1.246.714,4.385,4.385,0,0,1,.588.5,9.727,9.727,0,0,0,1.3-.84,6.929,6.929,0,0,1,.966.714Zm-6.51,3.92h9.842V11.8H12.95V9.266H11.858c.112-1.246.238-3.052.308-4.438H8.932v.714h2.226l-.042.756H9v.714h2.072L11,7.768H8.918v.714h2.03c-.028.28-.056.532-.084.784H3.192l-.056-.784H5.082V7.768H3.094l-.056-.756H5.026V6.3H3L2.94,5.612A14.678,14.678,0,0,0,5.1,5.066l-.462-.644a26.2,26.2,0,0,1-2.7.686l.28,4.158H1.092V11.8h.994Zm11.144,3.4H7.63v-.252a14.589,14.589,0,0,0,3.164-1.736l-.63-.518-.21.056H3.374V11.8H8.848a13,13,0,0,1-2.226,1.064v.6H.784v.882H6.622V15.93c0,.2-.056.238-.294.252-.21,0-.994,0-1.862-.028a3.92,3.92,0,0,1,.364.882,8.377,8.377,0,0,0,2.254-.14c.434-.154.546-.392.546-.938v-1.61h5.6Zm8.33,2.156V12.066h4.494V11.058H21.56V8.006h5.012V6.984H21.56V4.3H20.5V6.984H17.654a19.216,19.216,0,0,0,.784-2.24l-1.05-.224A12.763,12.763,0,0,1,14.8,9.672a6.971,6.971,0,0,1,.952.616,12.561,12.561,0,0,0,1.456-2.282H20.5v3.052H16.338v1.008H20.5v3.556h-5.67V16.63h12.4V15.622Z" transform="translate(857 1067)" fill="#aca4a4"/>
      <path id="內文p-2" data-name="內文p" d="M11.844,9.336H7.756V7.978h4.088Zm0,2.114H7.756V10.078h4.088Zm0,2.156H7.756V12.234h4.088ZM6.79,7.166v7.252h6.034V7.166h-2.9c.126-.406.266-.868.392-1.33h3v-.9H6.258v.9H9.17C9.1,6.27,9,6.746,8.9,7.166Zm-1.428,5.39A27.411,27.411,0,0,0,6.552,9.5l-.644-.168-.154.042H4.732l.336-.434a7.8,7.8,0,0,0-1.092-.91,13.938,13.938,0,0,0,2.17-2.688L5.5,4.9l-.21.07H.882v.924H4.634A12.222,12.222,0,0,1,3.248,7.53c-.476-.294-.966-.588-1.414-.826l-.56.672a15.323,15.323,0,0,1,2.87,2H.574V10.3h2.3v5.53c0,.168-.056.224-.266.224-.182.014-.826.014-1.54,0a3.657,3.657,0,0,1,.322.98,5.736,5.736,0,0,0,1.974-.182c.406-.154.518-.462.518-1.008V10.3h1.47a19.078,19.078,0,0,1-.756,2.044Zm2.814,2.128a8.894,8.894,0,0,1-2.954,1.722,8.051,8.051,0,0,1,.686.7,10.079,10.079,0,0,0,3.178-1.89Zm2.156.588a17.138,17.138,0,0,1,2.45,1.834l.812-.6a16.643,16.643,0,0,0-2.478-1.764ZM21.126,6.088V5.276H17.36q.21-.378.378-.756l-.952-.28A8.4,8.4,0,0,1,14.6,7.208a5.838,5.838,0,0,1,.644.84,10.562,10.562,0,0,0,1.638-1.96Zm.518,1.358a7.631,7.631,0,0,0,1.148-1.372h2l-.686.308a4.743,4.743,0,0,1,.84,1.064Zm3.038,1.512h-7.14V8.146h7.14Zm0,1.47h-7.14v-.8h7.14Zm0,1.512h-7.14V11.1h7.14Zm-1.708,1.9H19.4a1.876,1.876,0,0,0,.014-.28v-.938h3.556Zm4.354-8.582h-4.06c.126-.266.252-.532.364-.812l-.994-.224A6.362,6.362,0,0,1,20.692,6.97c.224.112.616.322.854.476h-2.9l.84-.308a4.649,4.649,0,0,0-.616-1.008L18,6.424a5.253,5.253,0,0,1,.6,1.022H16.52v5.18H18.4v.924a2.068,2.068,0,0,1-.014.294H14.84v.868h3.248a4.227,4.227,0,0,1-2.7,1.666,4.623,4.623,0,0,1,.658.756c2.016-.672,2.856-1.54,3.178-2.422h3.752V17.05h1.05V14.712H27.23v-.868H24.024V12.626h1.722V7.446h-.7l.742-.336a4.775,4.775,0,0,0-.826-1.036h2.366Z" transform="translate(916 1067)" fill="#aca4a4"/>
      <line id="Line_56" data-name="Line 56" x2="24" transform="translate(827.5 1077.5)" fill="none" stroke="#fff" stroke-linecap="round" stroke-width="4"/>
      <rect id="Rectangle_2330" data-name="Rectangle 2330" width="15" height="15" rx="2" transform="translate(898 1071)" fill="#356bd0"/>
    </g>
    <g id="Group_1826" data-name="Group 1826" transform="translate(6 -24)">
      <path id="內文p-3" data-name="內文p" d="M22.077,16H27.7V14.936H25.647V5.724h-.98a6.182,6.182,0,0,1-2.128.742v.812h1.82v7.658H22.077Zm10.43.182c1.946,0,3.192-1.778,3.192-5.348s-1.246-5.292-3.192-5.292S29.3,7.264,29.3,10.834,30.547,16.182,32.507,16.182Zm0-1.022c-1.176,0-1.96-1.3-1.96-4.326,0-3,.784-4.27,1.96-4.27s1.946,1.274,1.946,4.27C34.453,13.858,33.669,15.16,32.507,15.16Zm7.77,1.022c1.946,0,3.192-1.778,3.192-5.348s-1.246-5.292-3.192-5.292-3.206,1.722-3.206,5.292S38.317,16.182,40.277,16.182Zm0-1.022c-1.176,0-1.96-1.3-1.96-4.326,0-3,.784-4.27,1.96-4.27s1.946,1.274,1.946,4.27C42.223,13.858,41.439,15.16,40.277,15.16Z" transform="translate(247 545)" fill="#d48773"/>
      <path id="內文p-4" data-name="內文p" d="M1.232,16H6.86V14.936H4.8V5.724h-.98a6.182,6.182,0,0,1-2.128.742v.812h1.82v7.658H1.232Zm10.43.182c1.946,0,3.192-1.778,3.192-5.348s-1.246-5.292-3.192-5.292S8.456,7.264,8.456,10.834,9.7,16.182,11.662,16.182Zm0-1.022c-1.176,0-1.96-1.3-1.96-4.326,0-3,.784-4.27,1.96-4.27s1.946,1.274,1.946,4.27C13.608,13.858,12.824,15.16,11.662,15.16Zm7.784,1.022c1.932,0,3.22-1.162,3.22-2.66a3,3,0,0,0-1.736-2.688v-.07A3.365,3.365,0,0,0,22.3,8.286a2.6,2.6,0,0,0-2.814-2.7,2.611,2.611,0,0,0-2.814,2.6,2.853,2.853,0,0,0,1.386,2.366v.07a3.287,3.287,0,0,0-1.89,2.828C16.17,15.034,17.556,16.182,19.446,16.182Zm.7-5.754c-1.2-.476-2.31-1.008-2.31-2.24a1.58,1.58,0,0,1,1.638-1.666A1.7,1.7,0,0,1,21.21,8.356,2.753,2.753,0,0,1,20.146,10.428Zm-.672,4.8a1.968,1.968,0,0,1-2.142-1.89,2.79,2.79,0,0,1,1.4-2.324c1.456.588,2.716,1.106,2.716,2.478A1.778,1.778,0,0,1,19.474,15.23Zm11.018-2.366V10.092h3.136v2.772Zm9.254,0H34.678V10.092h4.1v-.98h-4.1V6.984H39.1V5.976H30.758c.224-.476.448-.98.644-1.47l-1.05-.252a11.847,11.847,0,0,1-3.15,4.83,6.444,6.444,0,0,1,.9.658,12.935,12.935,0,0,0,2.128-2.758h3.4V9.112H29.456v3.752h-2.3v1.008h6.468v3.206h1.05V13.872h5.068Zm.854,5.642h.938L45.724,4.884H44.8ZM54.572,8.65a6.3,6.3,0,0,0-1.008-.77,7.962,7.962,0,0,0,.812-.9l-.728-.238a5,5,0,0,1-.7.742c-.364-.2-.728-.406-1.078-.56l-.518.462a10.291,10.291,0,0,1,1.008.546,8.416,8.416,0,0,1-1.33.77,3.613,3.613,0,0,1,.574.546,9.907,9.907,0,0,0,1.4-.91,7.634,7.634,0,0,1,1.008.812ZM54.53,6.144c-.252-.2-.588-.42-.966-.658a7.19,7.19,0,0,0,.77-.854l-.728-.2a5.963,5.963,0,0,1-.658.686c-.364-.2-.714-.378-1.05-.518l-.5.462a9.329,9.329,0,0,1,.98.5,8.438,8.438,0,0,1-1.246.714,4.385,4.385,0,0,1,.588.5,9.727,9.727,0,0,0,1.3-.84,6.929,6.929,0,0,1,.966.714Zm-6.51,3.92h9.842V11.8h1.022V9.266H57.792c.112-1.246.238-3.052.308-4.438H54.866v.714h2.226L57.05,6.3H54.936v.714h2.072l-.07.756H54.852v.714h2.03c-.028.28-.056.532-.084.784H49.126l-.056-.784h1.946V7.768H49.028l-.056-.756H50.96V6.3H48.93l-.056-.686a14.678,14.678,0,0,0,2.156-.546l-.462-.644a26.2,26.2,0,0,1-2.7.686l.28,4.158h-1.12V11.8h.994Zm11.144,3.4h-5.6v-.252a14.589,14.589,0,0,0,3.164-1.736l-.63-.518-.21.056h-6.58V11.8h5.474a13,13,0,0,1-2.226,1.064v.6H46.718v.882h5.838V15.93c0,.2-.056.238-.294.252-.21,0-.994,0-1.862-.028a3.921,3.921,0,0,1,.364.882,8.377,8.377,0,0,0,2.254-.14c.434-.154.546-.392.546-.938v-1.61h5.6Zm4.816-.6V10.092h3.136v2.772Zm9.254,0H68.166V10.092h4.1v-.98h-4.1V6.984H72.59V5.976H64.246c.224-.476.448-.98.644-1.47l-1.05-.252a11.847,11.847,0,0,1-3.15,4.83,6.443,6.443,0,0,1,.9.658,12.935,12.935,0,0,0,2.128-2.758h3.4V9.112H62.944v3.752h-2.3v1.008h6.468v3.206h1.05V13.872h5.068Z" transform="translate(489 545)" fill="#d48773"/>
      <path id="內文p-5" data-name="內文p" d="M12.272,8.728A6.821,6.821,0,0,0,10.544,7.64l-.56.592A6.475,6.475,0,0,1,11.7,9.352ZM8,15.192c-1.792.32-3.568.64-4.784.832l.16.9c1.312-.24,3.008-.576,4.672-.9ZM6.608,13.784H4.768v-1.6h1.84ZM3.936,11.432v3.1H7.472v-3.1Zm7.1-.272A11.009,11.009,0,0,1,9.856,14.1a23.317,23.317,0,0,1-.592-3.68h3.408v-.9H9.184c-.032-.56-.064-1.12-.1-1.7H8.064c.032.576.08,1.136.128,1.7H3.376v.9h4.9a22.162,22.162,0,0,0,.88,4.736,8.635,8.635,0,0,1-2.416,2.08,6.142,6.142,0,0,1,.7.752,10.034,10.034,0,0,0,2.112-1.84A2.612,2.612,0,0,0,11.216,17.7c.832.32,1.376-.32,1.584-2.064a2.994,2.994,0,0,1-.768-.528c-.112,1.024-.272,1.712-.5,1.648-.528-.08-.96-.624-1.3-1.472a12.417,12.417,0,0,0,1.776-3.92ZM2.5,18.456V7.432H13.472V18.456ZM1.36,6.344v13.92H2.5v-.736H13.472v.736H14.64V6.344Zm7.216,24.52v-4.24h4.592v4.24Zm-5.808,0v-4.24H7.344v4.24Zm5.808-5.408V22.608H7.344v2.848H1.6v7.568H2.768v-.992H7.344v5.184H8.576V32.032h4.592v.912h1.216V25.456ZM7.44,39.848v12.72c0,.32-.128.432-.464.432-.3.016-1.456.032-2.624-.016a5.675,5.675,0,0,1,.5,1.232A11.1,11.1,0,0,0,7.9,54.008c.56-.208.8-.56.8-1.44V39.848Zm3.824,4.032a27.044,27.044,0,0,1,3.024,7.152l1.248-.528a25.44,25.44,0,0,0-3.152-7.056Zm-8-.32A14.993,14.993,0,0,1,.576,50.136a6.427,6.427,0,0,1,1.12.624,17.946,17.946,0,0,0,2.88-6.96ZM6.736,61.776l-1.04.912A27.485,27.485,0,0,1,9.232,66.24l1.088-.912A30.018,30.018,0,0,0,6.736,61.776ZM10.192,84.12v1.488H5.632V84.12Zm1.072-.9H4.528v4.064h1.1V86.5h5.632Zm3.168-1.952H1.584v6.944H2.736V82.28H13.248v4.688c0,.192-.064.24-.272.256-.192,0-.928.016-1.616-.016a3.584,3.584,0,0,1,.384.88,7.2,7.2,0,0,0,2.112-.144c.432-.16.576-.4.576-.976Zm-2.944-1.744h-6.9v-1.44h6.9Zm-8.064-2.32v3.2H12.7v-3.2Zm5.424-1.92c-.176-.512-.416-1.184-.64-1.728l-1.152.272c.16.448.352.992.5,1.456H1.008v1.024H14.944V75.288ZM8.576,98.864v-4.24h4.592v4.24Zm-5.808,0v-4.24H7.344v4.24Zm5.808-5.408V90.608H7.344v2.848H1.6v7.568H2.768v-.992H7.344v5.184H8.576v-5.184h4.592v.912h1.216V93.456Zm6.256,17.864a12.717,12.717,0,0,0-1.28-2.7l-.88.32a12.982,12.982,0,0,1,1.232,2.752Zm-4.1-1.984H9.008a15.084,15.084,0,0,0-.672-1.616l-.976.208c.192.432.384.96.544,1.408H5.936v.944h4.8Zm-6.56,2.288H2.5v-2.24h1.68ZM2.5,115.912h1.68v2.176c-.576.128-1.152.256-1.68.368Zm1.68-.992H2.5v-2.288h1.68Zm1.712-5.536V108.3H.736v1.088h.848v9.264c-.368.048-.7.128-1.008.176l.24,1.024c.976-.24,2.16-.5,3.36-.784v3.168H5.12V109.384Zm1.344,9.68v-1.5H9.5v1.5Zm2.272-3.84V116.7H7.232v-1.472Zm4.624-.9a14.265,14.265,0,0,1-1.344,3.056c-.16-1.1-.288-2.448-.368-3.936h2.832v-1.04h-2.9c-.08-1.488-.112-3.1-.128-4.784h-1.04c.032,1.68.08,3.3.144,4.784H9.712c.176-.528.384-1.2.576-1.808l-.992-.176a16.769,16.769,0,0,1-.464,1.984H7.7a13.787,13.787,0,0,0-.448-1.968l-.88.128a15.7,15.7,0,0,1,.384,1.84H5.664v1.04h5.728a44.227,44.227,0,0,0,.544,5.2,12.643,12.643,0,0,1-1.5,1.68V114.36H6.288v6.688h.944v-1.12H9.5v.432h.9a10.385,10.385,0,0,1-1.344,1.072,5.254,5.254,0,0,1,.688.64,13.037,13.037,0,0,0,2.48-2.256c.4,1.488.96,2.352,1.76,2.368.544.016,1.072-.624,1.376-3.024a3.2,3.2,0,0,1-.768-.592c-.112,1.456-.32,2.32-.576,2.32-.4-.016-.736-.784-1.008-2.1a14.74,14.74,0,0,0,2.048-4ZM9.872,129.6a7.2,7.2,0,0,0-1.152-.88,9.1,9.1,0,0,0,.928-1.024l-.832-.272a5.714,5.714,0,0,1-.8.848c-.416-.224-.832-.464-1.232-.64l-.592.528a11.762,11.762,0,0,1,1.152.624,9.619,9.619,0,0,1-1.52.88,4.129,4.129,0,0,1,.656.624,11.322,11.322,0,0,0,1.6-1.04,8.725,8.725,0,0,1,1.152.928Zm-.048-2.864c-.288-.224-.672-.48-1.1-.752a8.217,8.217,0,0,0,.88-.976l-.832-.224a6.815,6.815,0,0,1-.752.784c-.416-.224-.816-.432-1.2-.592l-.576.528a10.664,10.664,0,0,1,1.12.576,9.643,9.643,0,0,1-1.424.816,5.013,5.013,0,0,1,.672.576,11.117,11.117,0,0,0,1.488-.96,7.917,7.917,0,0,1,1.1.816Zm-7.44,4.48H13.632V133.2H14.8v-2.9H13.552c.128-1.424.272-3.488.352-5.072h-3.7v.816h2.544l-.048.864H10.288v.816h2.368l-.08.864H10.192v.816h2.32c-.032.32-.064.608-.1.9H3.648l-.064-.9H5.808v-.816H3.536l-.064-.864H5.744v-.816H3.424l-.064-.784a16.774,16.774,0,0,0,2.464-.624l-.528-.736a29.948,29.948,0,0,1-3.088.784l.32,4.752H1.248v2.9H2.384ZM15.12,135.1H8.72v-.288a16.673,16.673,0,0,0,3.616-1.984l-.72-.592-.24.064H3.856v.9h6.256a14.851,14.851,0,0,1-2.544,1.216v.688H.9v1.008H7.568v1.808c0,.224-.064.272-.336.288-.24,0-1.136,0-2.128-.032a4.481,4.481,0,0,1,.416,1.008,9.574,9.574,0,0,0,2.576-.16c.5-.176.624-.448.624-1.072v-1.84h6.4ZM8.64,154.568V150.5h5.136v-1.152H8.64v-3.488h5.728V144.7H8.64v-3.072H7.424V144.7H4.176a21.961,21.961,0,0,0,.9-2.56l-1.2-.256a14.586,14.586,0,0,1-2.96,5.888,7.965,7.965,0,0,1,1.088.7,14.356,14.356,0,0,0,1.664-2.608h3.76v3.488H2.672V150.5H7.424v4.064H.944v1.152H15.12v-1.152ZM8.048,172.1c-.512-.272-1.2-.608-1.936-.928a3.46,3.46,0,0,0,1.2-1.984h1.7v-.864h-1.6v-.64H6.432v.64H4.416c.176-.352.352-.688.512-1.024H8.544v-1.488c.24.208.576.5.72.656a11.48,11.48,0,0,0,.88-1.776,22.736,22.736,0,0,0,1.184,4.224,7.935,7.935,0,0,1-3.312,3.216ZM6.3,169.184a3.073,3.073,0,0,1-1.2,1.584c-.592-.24-1.2-.448-1.776-.624.192-.3.384-.624.592-.96ZM2.5,165.472H4.48v1.056H2.5Zm4.992,0v1.056H5.424v-1.056Zm5.536-2.64a18.786,18.786,0,0,1-1.1,4.88,21.842,21.842,0,0,1-1.168-4.688l.08-.192Zm-10.24.352V162.16h1.7v1.024Zm1.7-2.7v.88h-1.7v-.88Zm2.768,0v.88H5.424v-.88Zm-1.824,2.7V162.16H7.248v1.024Zm9.872-.352V161.76H11.152c.256-.96.5-1.968.688-2.944l-1.04-.208a21.192,21.192,0,0,1-2.256,6.96v-.848H5.424v-.7h2.8v-1.808h.912v-.9H8.224v-1.664h-2.8v-1.04H4.48v1.04H1.856v1.664H.752v.9h1.1v1.808H4.48v.7H1.472V167.3H3.84c-.16.336-.32.672-.512,1.024H.768v.864H2.832c-.336.512-.672,1.024-.976,1.408a22.185,22.185,0,0,1,2.272.752A14.907,14.907,0,0,1,.64,172.416a2.714,2.714,0,0,1,.512.8,14.244,14.244,0,0,0,4.08-1.408,16.476,16.476,0,0,1,2.048.992l.384-.352a5.074,5.074,0,0,1,.544.8,9.466,9.466,0,0,0,3.648-3.232,8.1,8.1,0,0,0,2.8,3.136,4.3,4.3,0,0,1,.768-.912,7.331,7.331,0,0,1-2.96-3.28,18.655,18.655,0,0,0,1.616-6.128Z" transform="translate(190 288)" fill="#fff" opacity="0.86"/>
      <path id="內文p-6" data-name="內文p" d="M10.288,9.688h2.8A18.231,18.231,0,0,1,11.7,14.744,22.011,22.011,0,0,1,10.288,9.688ZM4.576,8.312H6.192A15.85,15.85,0,0,1,5.056,9.9h-.48ZM15.312,9.688V8.568H10.64A28.047,28.047,0,0,0,11.28,5.8L10.1,5.608a17.12,17.12,0,0,1-2.5,6.864l-.56-.416-.224.064H4.48c.4-.368.768-.768,1.136-1.168H8.4V9.9H6.464a17.673,17.673,0,0,0,2-3.584l-1.1-.32A15.845,15.845,0,0,1,6.224,8.264V7.288H4.576V5.608h-1.1v1.68h-2.1V8.312h2.1V9.9H.7v1.056H4.08A13.709,13.709,0,0,1,.592,13.48a11.031,11.031,0,0,1,.848.912A17.155,17.155,0,0,0,3.376,13.08h2.5A10.211,10.211,0,0,1,4.048,14.5v1.1c-1.264.144-2.416.288-3.328.4L.864,17.1c.912-.112,2-.272,3.184-.432v2.288c0,.176-.048.224-.272.24-.208,0-.88.016-1.68-.016a4.564,4.564,0,0,1,.384,1.04,6.6,6.6,0,0,0,2.128-.176c.448-.176.576-.464.576-1.072V16.52c1.04-.16,2.1-.3,3.152-.448l-.016-1.04c-1.056.144-2.112.288-3.136.416v-.64A12.72,12.72,0,0,0,7.6,12.7a6.061,6.061,0,0,1,.864.752A11.186,11.186,0,0,0,9.536,11.56a20.875,20.875,0,0,0,1.456,4.432,9,9,0,0,1-3.808,3.216A5.035,5.035,0,0,1,7.9,20.28a10.68,10.68,0,0,0,3.728-3.1A8.692,8.692,0,0,0,14.608,20.2a3.889,3.889,0,0,1,.832-1.008,7.874,7.874,0,0,1-3.088-3.136A18.215,18.215,0,0,0,14.3,9.688ZM13.328,30.96H2.992v2.848a6.389,6.389,0,0,1-1.632,4.8,3.269,3.269,0,0,1,.944.736,7.619,7.619,0,0,0,1.84-5.5V31.968H12.08V34.9c-2.784.5-5.7.96-7.5,1.232L4.96,37.2c1.968-.352,4.592-.9,7.12-1.408V37.84c0,.224-.1.32-.384.32-.24.016-1.312.016-2.3-.016a4.042,4.042,0,0,1,.336,1.024,12.858,12.858,0,0,0,2.864-.144c.544-.16.736-.464.736-1.184ZM4.656,33.392a28,28,0,0,1,5.856,1.568l.368-.88a28.536,28.536,0,0,0-5.84-1.456Zm-.288-4.224c.736-.592,1.488-1.232,2.224-1.936H10.24l-.672.432c.528.352,1.072.784,1.6,1.2ZM14.992,26.16H7.664c.384-.4.768-.832,1.136-1.248l-1.184-.5c-.464.592-.992,1.2-1.5,1.744H1.024v1.072H5.04a18.212,18.212,0,0,1-1.392,1.2,3.422,3.422,0,0,1-1.344.832c.128.32.288.88.352,1.12.544-.192,1.36-.208,9.552-.624.432.416.816.816,1.1,1.152l1.008-.688a23.634,23.634,0,0,0-3.552-2.992h4.224ZM8.832,45.5H5.888a15.055,15.055,0,0,0-.848-1.952l-1.04.3c.224.5.48,1.12.656,1.648H1.344v1.088H8.832ZM4.384,49.432a9.923,9.923,0,0,0-1.056-2.7l-1.008.256a12.434,12.434,0,0,1,.992,2.736ZM7.28,53.4v2.9H2.912V53.4ZM1.792,58.12h1.12v-.768H7.28v.64H8.448V52.328H1.792ZM6.944,46.68a22.284,22.284,0,0,1-1.168,3.1H.88v1.088h8.3V49.784H6.928c.4-.832.832-1.92,1.2-2.848Zm7.36-2.272-.192.064h-4.1V58.2h1.072V45.56h2.544c-.432,1.232-1.056,2.928-1.648,4.272a5.137,5.137,0,0,1,1.824,3.616,1.419,1.419,0,0,1-.416,1.248,1.571,1.571,0,0,1-.64.16,8.35,8.35,0,0,1-1.232-.032,2.839,2.839,0,0,1,.32,1.136,9.48,9.48,0,0,0,1.36-.032,2.038,2.038,0,0,0,.992-.336,2.387,2.387,0,0,0,.72-2.032A5.38,5.38,0,0,0,13.136,49.7c.672-1.472,1.408-3.3,1.984-4.752Zm-.768,23.976H8.864V66.832h4.672Zm0,2.416H8.864V69.232h4.672Zm0,2.464H8.864V71.7h4.672ZM7.76,65.9v8.288h6.9V65.9H11.344c.144-.464.3-.992.448-1.52h3.424V63.36H7.152v1.024H10.48c-.08.5-.192,1.04-.3,1.52Zm-1.632,6.16a31.327,31.327,0,0,0,1.36-3.488l-.736-.192-.176.048H5.408l.384-.5A8.911,8.911,0,0,0,4.544,66.9a15.929,15.929,0,0,0,2.48-3.072l-.736-.512-.24.08H1.008v1.056H5.3A13.968,13.968,0,0,1,3.712,66.32c-.544-.336-1.1-.672-1.616-.944l-.64.768a17.513,17.513,0,0,1,3.28,2.288H.656v1.056H3.28v6.32c0,.192-.064.256-.3.256-.208.016-.944.016-1.76,0a4.179,4.179,0,0,1,.368,1.12,6.555,6.555,0,0,0,2.256-.208c.464-.176.592-.528.592-1.152V69.488h1.68a21.8,21.8,0,0,1-.864,2.336ZM9.344,74.5a10.164,10.164,0,0,1-3.376,1.968,9.2,9.2,0,0,1,.784.8,11.519,11.519,0,0,0,3.632-2.16Zm2.464.672a19.586,19.586,0,0,1,2.8,2.1l.928-.688A19.021,19.021,0,0,0,12.7,74.56Zm-3.664,8.5v-.928H3.84q.24-.432.432-.864l-1.088-.32a9.6,9.6,0,0,1-2.5,3.392,6.672,6.672,0,0,1,.736.96A12.071,12.071,0,0,0,3.3,83.672Zm.592,1.552a8.721,8.721,0,0,0,1.312-1.568h2.288l-.784.352a5.42,5.42,0,0,1,.96,1.216Zm3.472,1.728H4.048v-.928h8.16Zm0,1.68H4.048V87.72h8.16Zm0,1.728H4.048V89.4h8.16Zm-1.952,2.176H6.176a2.144,2.144,0,0,0,.016-.32V91.144h4.064Zm4.976-9.808h-4.64c.144-.3.288-.608.416-.928l-1.136-.256A7.27,7.27,0,0,1,7.648,84.68c.256.128.7.368.976.544H5.312l.96-.352a5.314,5.314,0,0,0-.7-1.152l-.992.336a6,6,0,0,1,.688,1.168H2.88v5.92H5.024V92.2a2.363,2.363,0,0,1-.016.336H.96v.992H4.672c-.384.688-1.264,1.376-3.088,1.9a5.284,5.284,0,0,1,.752.864c2.3-.768,3.264-1.76,3.632-2.768h4.288V96.2h1.2V93.528H15.12v-.992H11.456V91.144h1.968v-5.92h-.8l.848-.384a5.457,5.457,0,0,0-.944-1.184h2.7Z" transform="translate(571 288)" fill="#4891f2" opacity="0.85"/>
      <g id="data_1-01" transform="translate(217.555 290.85)">
        <g id="Group_1825" data-name="Group 1825" transform="translate(50.789 0)">
          <g id="Group_1821" data-name="Group 1821" transform="translate(243.243)">
            <g id="Group_1818" data-name="Group 1818" transform="translate(3.86)">
              <path id="Path_1538" data-name="Path 1538" d="M3.058.143c1.529,0,2.508-1.4,2.508-4.2S4.587-8.217,3.058-8.217.539-6.864.539-4.059,1.518.143,3.058.143Zm0-.8c-.924,0-1.54-1.023-1.54-3.4,0-2.354.616-3.355,1.54-3.355s1.529,1,1.529,3.355C4.587-1.683,3.971-.66,3.058-.66Z" transform="translate(0 251.492)" fill="#4891f2" stroke="rgba(0,0,0,0)" stroke-width="1"/>
              <path id="Path_1537" data-name="Path 1537" d="M2.871.143a2.619,2.619,0,0,0,2.64-2.772A2.3,2.3,0,0,0,3.08-5.192a2.345,2.345,0,0,0-1.2.319l.2-2.332H5.126v-.869H1.2L.946-4.29l.539.33a2.194,2.194,0,0,1,1.342-.473A1.632,1.632,0,0,1,4.5-2.6a1.743,1.743,0,0,1-1.716,1.9A2.653,2.653,0,0,1,.8-1.584l-.5.66A3.425,3.425,0,0,0,2.871.143Zm6.292,0c1.529,0,2.508-1.4,2.508-4.2s-.979-4.158-2.508-4.158S6.644-6.864,6.644-4.059,7.623.143,9.163.143Zm0-.8c-.924,0-1.54-1.023-1.54-3.4,0-2.354.616-3.355,1.54-3.355s1.529,1,1.529,3.355C10.692-1.683,10.076-.66,9.163-.66Zm6.105.8c1.529,0,2.508-1.4,2.508-4.2S16.8-8.217,15.268-8.217s-2.519,1.353-2.519,4.158S13.728.143,15.268.143Zm0-.8c-.924,0-1.54-1.023-1.54-3.4,0-2.354.616-3.355,1.54-3.355s1.529,1,1.529,3.355C16.8-1.683,16.181-.66,15.268-.66Z" transform="translate(0 206.834)" fill="#4891f2" stroke="rgba(0,0,0,0)" stroke-width="1"/>
              <path id="Path_1536" data-name="Path 1536" d="M.968,0H5.39V-.836H3.773V-8.074H3a4.857,4.857,0,0,1-1.672.583v.638h1.43V-.836H.968Zm8.2.143c1.529,0,2.508-1.4,2.508-4.2s-.979-4.158-2.508-4.158S6.644-6.864,6.644-4.059,7.623.143,9.163.143Zm0-.8c-.924,0-1.54-1.023-1.54-3.4,0-2.354.616-3.355,1.54-3.355s1.529,1,1.529,3.355C10.692-1.683,10.076-.66,9.163-.66Zm6.105.8c1.529,0,2.508-1.4,2.508-4.2S16.8-8.217,15.268-8.217s-2.519,1.353-2.519,4.158S13.728.143,15.268.143Zm0-.8c-.924,0-1.54-1.023-1.54-3.4,0-2.354.616-3.355,1.54-3.355s1.529,1,1.529,3.355C16.8-1.683,16.181-.66,15.268-.66Zm6.105.8c1.529,0,2.508-1.4,2.508-4.2S22.9-8.217,21.373-8.217s-2.519,1.353-2.519,4.158S19.833.143,21.373.143Zm0-.8c-.924,0-1.54-1.023-1.54-3.4,0-2.354.616-3.355,1.54-3.355s1.529,1,1.529,3.355C22.9-1.683,22.286-.66,21.373-.66Z" transform="translate(0 158.375)" fill="#4891f2" stroke="rgba(0,0,0,0)" stroke-width="1"/>
              <path id="Path_1535" data-name="Path 1535" d="M.968,0H5.39V-.836H3.773V-8.074H3a4.857,4.857,0,0,1-1.672.583v.638h1.43V-.836H.968ZM8.976.143a2.619,2.619,0,0,0,2.64-2.772A2.3,2.3,0,0,0,9.185-5.192a2.345,2.345,0,0,0-1.2.319l.2-2.332h3.047v-.869H7.3L7.051-4.29l.539.33a2.194,2.194,0,0,1,1.342-.473A1.632,1.632,0,0,1,10.6-2.6a1.743,1.743,0,0,1-1.716,1.9,2.653,2.653,0,0,1-1.98-.891l-.495.66A3.425,3.425,0,0,0,8.976.143Zm6.292,0c1.529,0,2.508-1.4,2.508-4.2S16.8-8.217,15.268-8.217s-2.519,1.353-2.519,4.158S13.728.143,15.268.143Zm0-.8c-.924,0-1.54-1.023-1.54-3.4,0-2.354.616-3.355,1.54-3.355s1.529,1,1.529,3.355C16.8-1.683,16.181-.66,15.268-.66Zm6.105.8c1.529,0,2.508-1.4,2.508-4.2S22.9-8.217,21.373-8.217s-2.519,1.353-2.519,4.158S19.833.143,21.373.143Zm0-.8c-.924,0-1.54-1.023-1.54-3.4,0-2.354.616-3.355,1.54-3.355s1.529,1,1.529,3.355C22.9-1.683,22.286-.66,21.373-.66Z" transform="translate(0 109.917)" fill="#4891f2" stroke="rgba(0,0,0,0)" stroke-width="1"/>
              <path id="Path_1534" data-name="Path 1534" d="M.484,0H5.555V-.869H3.322c-.407,0-.9.044-1.32.077C3.894-2.585,5.159-4.224,5.159-5.83A2.212,2.212,0,0,0,2.816-8.217,3.084,3.084,0,0,0,.44-7.029l.583.572A2.258,2.258,0,0,1,2.7-7.392,1.418,1.418,0,0,1,4.18-5.8c0,1.386-1.166,2.992-3.7,5.2ZM9.163.143c1.529,0,2.508-1.4,2.508-4.2s-.979-4.158-2.508-4.158S6.644-6.864,6.644-4.059,7.623.143,9.163.143Zm0-.8c-.924,0-1.54-1.023-1.54-3.4,0-2.354.616-3.355,1.54-3.355s1.529,1,1.529,3.355C10.692-1.683,10.076-.66,9.163-.66Zm6.105.8c1.529,0,2.508-1.4,2.508-4.2S16.8-8.217,15.268-8.217s-2.519,1.353-2.519,4.158S13.728.143,15.268.143Zm0-.8c-.924,0-1.54-1.023-1.54-3.4,0-2.354.616-3.355,1.54-3.355s1.529,1,1.529,3.355C16.8-1.683,16.181-.66,15.268-.66Zm6.105.8c1.529,0,2.508-1.4,2.508-4.2S22.9-8.217,21.373-8.217s-2.519,1.353-2.519,4.158S19.833.143,21.373.143Zm0-.8c-.924,0-1.54-1.023-1.54-3.4,0-2.354.616-3.355,1.54-3.355s1.529,1,1.529,3.355C22.9-1.683,22.286-.66,21.373-.66Z" transform="translate(0 61.458)" fill="#4891f2" stroke="rgba(0,0,0,0)" stroke-width="1"/>
              <path id="Path_1533" data-name="Path 1533" d="M.484,0H5.555V-.869H3.322c-.407,0-.9.044-1.32.077C3.894-2.585,5.159-4.224,5.159-5.83A2.212,2.212,0,0,0,2.816-8.217,3.084,3.084,0,0,0,.44-7.029l.583.572A2.258,2.258,0,0,1,2.7-7.392,1.418,1.418,0,0,1,4.18-5.8c0,1.386-1.166,2.992-3.7,5.2ZM8.976.143a2.619,2.619,0,0,0,2.64-2.772A2.3,2.3,0,0,0,9.185-5.192a2.345,2.345,0,0,0-1.2.319l.2-2.332h3.047v-.869H7.3L7.051-4.29l.539.33a2.194,2.194,0,0,1,1.342-.473A1.632,1.632,0,0,1,10.6-2.6a1.743,1.743,0,0,1-1.716,1.9,2.653,2.653,0,0,1-1.98-.891l-.495.66A3.425,3.425,0,0,0,8.976.143Zm6.292,0c1.529,0,2.508-1.4,2.508-4.2S16.8-8.217,15.268-8.217s-2.519,1.353-2.519,4.158S13.728.143,15.268.143Zm0-.8c-.924,0-1.54-1.023-1.54-3.4,0-2.354.616-3.355,1.54-3.355s1.529,1,1.529,3.355C16.8-1.683,16.181-.66,15.268-.66Zm6.105.8c1.529,0,2.508-1.4,2.508-4.2S22.9-8.217,21.373-8.217s-2.519,1.353-2.519,4.158S19.833.143,21.373.143Zm0-.8c-.924,0-1.54-1.023-1.54-3.4,0-2.354.616-3.355,1.54-3.355s1.529,1,1.529,3.355C22.9-1.683,22.286-.66,21.373-.66ZM29.8-6.424l.55-.143a3.4,3.4,0,0,0-.44-.9l-.693.154a3.362,3.362,0,0,1,.407.891H27.654v.671h7.315v-.671H32.923c.154-.264.319-.583.495-.88l-.737-.187h1.925v-.638H31.768a11.423,11.423,0,0,0-.473-1.1l-.759.143a10.222,10.222,0,0,1,.385.957h-2.75v.638h4.411a8.308,8.308,0,0,1-.451,1.067Zm3.487,2.5H29.359v-.7h3.927Zm0,1.21H29.359v-.7h3.927Zm.8-2.464H28.578v3.014h2.079l-.4.308A11.057,11.057,0,0,1,31.823-.627l.517-.451a7.834,7.834,0,0,0-1.419-1.089h3.168Zm-6.71-3.982A12.828,12.828,0,0,1,24.827-4.8a6.565,6.565,0,0,1,.462.8,13.072,13.072,0,0,0,.924-1.166V.825h.781V-6.413a17.877,17.877,0,0,0,1.144-2.519ZM28.171.561A10.969,10.969,0,0,0,29.04-1.3L28.4-1.573a8.665,8.665,0,0,1-.88,1.782ZM30.723.143c-.484,0-.55-.033-.55-.286V-1.6h-.759V-.143c0,.748.253.946,1.232.946h1.8c.726,0,.957-.242,1.045-1.221a2.44,2.44,0,0,1-.682-.264c-.022.726-.1.825-.451.825Zm2.321-1.584A10.6,10.6,0,0,1,34.331.55L35,.22a11.123,11.123,0,0,0-1.309-1.936Zm11.781-6.9H37.081v.781h7.744ZM43.175-.132c-.429,0-.517-.077-.517-.451V-4.488h3.091V-5.28H36.124v.792h2.783c-.165,2.057-.572,3.773-2.915,4.664a2.2,2.2,0,0,1,.517.638c2.53-1.023,3.058-2.948,3.267-5.3h2.057V-.572c0,.935.264,1.221,1.243,1.221h1.573c.957,0,1.177-.517,1.265-2.387a2.538,2.538,0,0,1-.759-.363C45.1-.418,45.034-.132,44.594-.132Z" transform="translate(0 13)" fill="#4891f2" stroke="rgba(0,0,0,0)" stroke-width="1"/>
            </g>
            <line id="Line_409" data-name="Line 409" y1="242.292" transform="translate(0 8.96)" fill="none" stroke="#4891f2" stroke-miterlimit="10" stroke-width="1"/>
          </g>
          <g id="Group_1824" data-name="Group 1824" transform="translate(0 15.516)">
            <g id="Group_1823" data-name="Group 1823">
              <g id="Group_1822" data-name="Group 1822">
                <rect id="Rectangle_2322" data-name="Rectangle 2322" width="19.763" height="173.595" transform="translate(0 62.141)" fill="#356bd0"/>
                <rect id="Rectangle_2323" data-name="Rectangle 2323" width="19.763" height="186.803" transform="translate(27.46 48.934)" fill="#356bd0"/>
                <rect id="Rectangle_2324" data-name="Rectangle 2324" width="19.763" height="194.309" transform="translate(54.92 41.427)" fill="#356bd0"/>
                <rect id="Rectangle_2325" data-name="Rectangle 2325" width="19.763" height="200.77" transform="translate(82.379 34.966)" fill="#356bd0"/>
                <rect id="Rectangle_2326" data-name="Rectangle 2326" width="19.763" height="211.222" transform="translate(109.839 24.514)" fill="#356bd0"/>
                <rect id="Rectangle_2327" data-name="Rectangle 2327" width="19.763" height="218.823" transform="translate(137.299 16.913)" fill="#356bd0"/>
                <rect id="Rectangle_2328" data-name="Rectangle 2328" width="19.763" height="235.736" transform="translate(164.759)" fill="#356bd0"/>
                <rect id="Rectangle_2329" data-name="Rectangle 2329" width="19.763" height="233.076" transform="translate(192.219 2.66)" fill="#356bd0"/>
              </g>
            </g>
          </g>
          <path id="Path_1522" data-name="Path 1522" d="M0,0H19.763V238.207H0Z" transform="translate(219.678 13.045)" fill="#356bd0"/>
        </g>
        <g id="Group_1814" data-name="Group 1814" transform="translate(0 0)">
          <g id="Group_1803" data-name="Group 1803" transform="translate(46.989 251.252)">
            <line id="Line_374" data-name="Line 374" x2="247.043" fill="none" stroke="#787777" stroke-miterlimit="10" stroke-width="1"/>
          </g>
          <g id="Group_1807" data-name="Group 1807">
            <g id="Group_1804" data-name="Group 1804">
              <path id="Path_1542" data-name="Path 1542" d="M.484,0H5.555V-.869H3.322c-.407,0-.9.044-1.32.077C3.894-2.585,5.159-4.224,5.159-5.83A2.212,2.212,0,0,0,2.816-8.217,3.084,3.084,0,0,0,.44-7.029l.583.572A2.258,2.258,0,0,1,2.7-7.392,1.418,1.418,0,0,1,4.18-5.8c0,1.386-1.166,2.992-3.7,5.2ZM9.163.143c1.529,0,2.508-1.4,2.508-4.2s-.979-4.158-2.508-4.158S6.644-6.864,6.644-4.059,7.623.143,9.163.143Zm0-.8c-.924,0-1.54-1.023-1.54-3.4,0-2.354.616-3.355,1.54-3.355s1.529,1,1.529,3.355C10.692-1.683,10.076-.66,9.163-.66Zm6.105.8c1.529,0,2.508-1.4,2.508-4.2S16.8-8.217,15.268-8.217s-2.519,1.353-2.519,4.158S13.728.143,15.268.143Zm0-.8c-.924,0-1.54-1.023-1.54-3.4,0-2.354.616-3.355,1.54-3.355s1.529,1,1.529,3.355C16.8-1.683,16.181-.66,15.268-.66Z" transform="translate(22.445 255.15)" fill="#fff" stroke="rgba(0,0,0,0)" stroke-width="1"/>
              <path id="Path_1541" data-name="Path 1541" d="M.484,0H5.555V-.869H3.322c-.407,0-.9.044-1.32.077C3.894-2.585,5.159-4.224,5.159-5.83A2.212,2.212,0,0,0,2.816-8.217,3.084,3.084,0,0,0,.44-7.029l.583.572A2.258,2.258,0,0,1,2.7-7.392,1.418,1.418,0,0,1,4.18-5.8c0,1.386-1.166,2.992-3.7,5.2ZM8.976.143a2.619,2.619,0,0,0,2.64-2.772A2.3,2.3,0,0,0,9.185-5.192a2.345,2.345,0,0,0-1.2.319l.2-2.332h3.047v-.869H7.3L7.051-4.29l.539.33a2.194,2.194,0,0,1,1.342-.473A1.632,1.632,0,0,1,10.6-2.6a1.743,1.743,0,0,1-1.716,1.9,2.653,2.653,0,0,1-1.98-.891l-.495.66A3.425,3.425,0,0,0,8.976.143Zm6.292,0c1.529,0,2.508-1.4,2.508-4.2S16.8-8.217,15.268-8.217s-2.519,1.353-2.519,4.158S13.728.143,15.268.143Zm0-.8c-.924,0-1.54-1.023-1.54-3.4,0-2.354.616-3.355,1.54-3.355s1.529,1,1.529,3.355C16.8-1.683,16.181-.66,15.268-.66Z" transform="translate(22.445 174.15)" fill="#fff" stroke="rgba(0,0,0,0)" stroke-width="1"/>
              <path id="Path_1540" data-name="Path 1540" d="M2.9.143a2.347,2.347,0,0,0,2.585-2.3A2.074,2.074,0,0,0,3.784-4.2v-.044a2.013,2.013,0,0,0,1.43-1.947A2.072,2.072,0,0,0,2.871-8.217a3.228,3.228,0,0,0-2.255.968l.539.638a2.354,2.354,0,0,1,1.672-.781A1.238,1.238,0,0,1,4.191-6.116c0,.869-.572,1.54-2.233,1.54v.77c1.859,0,2.508.649,2.508,1.606A1.487,1.487,0,0,1,2.827-.693a2.666,2.666,0,0,1-2-.924l-.506.66A3.338,3.338,0,0,0,2.9.143Zm6.259,0c1.529,0,2.508-1.4,2.508-4.2s-.979-4.158-2.508-4.158S6.644-6.864,6.644-4.059,7.623.143,9.163.143Zm0-.8c-.924,0-1.54-1.023-1.54-3.4,0-2.354.616-3.355,1.54-3.355s1.529,1,1.529,3.355C10.692-1.683,10.076-.66,9.163-.66Zm6.105.8c1.529,0,2.508-1.4,2.508-4.2S16.8-8.217,15.268-8.217s-2.519,1.353-2.519,4.158S13.728.143,15.268.143Zm0-.8c-.924,0-1.54-1.023-1.54-3.4,0-2.354.616-3.355,1.54-3.355s1.529,1,1.529,3.355C16.8-1.683,16.181-.66,15.268-.66Z" transform="translate(22.445 94.15)" fill="#fff" stroke="rgba(0,0,0,0)" stroke-width="1"/>
              <path id="Path_1539" data-name="Path 1539" d="M2.9.143a2.347,2.347,0,0,0,2.585-2.3A2.074,2.074,0,0,0,3.784-4.2v-.044a2.013,2.013,0,0,0,1.43-1.947A2.072,2.072,0,0,0,2.871-8.217a3.228,3.228,0,0,0-2.255.968l.539.638a2.354,2.354,0,0,1,1.672-.781A1.238,1.238,0,0,1,4.191-6.116c0,.869-.572,1.54-2.233,1.54v.77c1.859,0,2.508.649,2.508,1.606A1.487,1.487,0,0,1,2.827-.693a2.666,2.666,0,0,1-2-.924l-.506.66A3.338,3.338,0,0,0,2.9.143Zm6.072,0a2.619,2.619,0,0,0,2.64-2.772A2.3,2.3,0,0,0,9.185-5.192a2.345,2.345,0,0,0-1.2.319l.2-2.332h3.047v-.869H7.3L7.051-4.29l.539.33a2.194,2.194,0,0,1,1.342-.473A1.632,1.632,0,0,1,10.6-2.6a1.743,1.743,0,0,1-1.716,1.9,2.653,2.653,0,0,1-1.98-.891l-.495.66A3.425,3.425,0,0,0,8.976.143Zm6.292,0c1.529,0,2.508-1.4,2.508-4.2S16.8-8.217,15.268-8.217s-2.519,1.353-2.519,4.158S13.728.143,15.268.143Zm0-.8c-.924,0-1.54-1.023-1.54-3.4,0-2.354.616-3.355,1.54-3.355s1.529,1,1.529,3.355C16.8-1.683,16.181-.66,15.268-.66Zm6.193-6.49h.8v-.682h1.342v-.693H22.264v-.682h-.8v.682H19.008v.693h2.453Zm-.429,2.893v-.792h2.376v.792Zm0-2.145h2.376v.792H21.032Zm5.577.792h-2.42V-6.4h2.42Zm0,1.353h-2.42v-.792h2.42ZM28.16-2.992H24.189v-.671h3.223V-7H20.251v3.333h3.157v.671H20.339v-.4h-.792v.4h-.44v.682h.44V.836h.792V-2.31h3.069v1.2c-.9.033-1.738.066-2.376.088l.066.715c1.243-.066,3.047-.154,4.818-.275a3.663,3.663,0,0,1,.264.649l.638-.231a6.364,6.364,0,0,0-1.133-1.958l-.6.2a7.159,7.159,0,0,1,.484.7l-1.375.055V-2.31h3.179V0c0,.121-.044.154-.176.165s-.539.011-1.056,0a3.068,3.068,0,0,1,.242.671,4.2,4.2,0,0,0,1.43-.121c.286-.132.352-.319.352-.7ZM26.1-8.525v-.682h-.8v.682H24.013v.693H25.3v.693h.8v-.693h2.5v-.693Zm8.25-.638c-.033,1.672.033,7.018-4.532,9.328a2.441,2.441,0,0,1,.66.638,8.811,8.811,0,0,0,4.356-6.094c.528,2.046,1.7,4.763,4.455,6.05a2.5,2.5,0,0,1,.594-.693C36-1.661,35.343-6.259,35.178-7.568c.055-.649.066-1.2.077-1.6Z" transform="translate(0.445 13.15)" fill="#fff" stroke="rgba(0,0,0,0)" stroke-width="1"/>
            </g>
            <line id="Line_385" data-name="Line 385" y1="242.292" transform="translate(46.989 8.96)" fill="none" stroke="#fff" stroke-miterlimit="10" stroke-width="1"/>
          </g>
          <g id="Group_1810" data-name="Group 1810" transform="translate(60.671 52.762)">
            <g id="Group_1809" data-name="Group 1809">
              <g id="Group_1808" data-name="Group 1808">
                <line id="Line_390" data-name="Line 390" x1="27.46" y1="19.383" fill="none" stroke="#fff" stroke-linecap="round" stroke-miterlimit="10" stroke-width="2"/>
                <line id="Line_391" data-name="Line 391" x1="27.46" y1="19.193" transform="translate(27.46 19.383)" fill="none" stroke="#fff" stroke-linecap="round" stroke-miterlimit="10" stroke-width="2"/>
                <line id="Line_392" data-name="Line 392" x1="27.46" y1="18.623" transform="translate(54.92 38.577)" fill="none" stroke="#fff" stroke-linecap="round" stroke-miterlimit="10" stroke-width="2"/>
                <line id="Line_393" data-name="Line 393" x1="27.46" y1="19.478" transform="translate(82.379 57.2)" fill="none" stroke="#fff" stroke-linecap="round" stroke-miterlimit="10" stroke-width="2"/>
                <line id="Line_394" data-name="Line 394" x1="27.46" y1="18.908" transform="translate(109.839 76.678)" fill="none" stroke="#fff" stroke-linecap="round" stroke-miterlimit="10" stroke-width="2"/>
                <line id="Line_395" data-name="Line 395" x1="27.46" y1="14.918" transform="translate(137.299 95.587)" fill="none" stroke="#fff" stroke-linecap="round" stroke-miterlimit="10" stroke-width="2"/>
                <line id="Line_396" data-name="Line 396" x1="27.46" y1="10.642" transform="translate(164.759 110.504)" fill="none" stroke="#fff" stroke-linecap="round" stroke-miterlimit="10" stroke-width="2"/>
                <line id="Line_397" data-name="Line 397" x1="27.46" y1="9.217" transform="translate(192.219 121.146)" fill="none" stroke="#fff" stroke-linecap="round" stroke-miterlimit="10" stroke-width="2"/>
              </g>
            </g>
          </g>
          <g id="Group_1813" data-name="Group 1813" transform="translate(57.821 49.912)">
            <g id="Group_1812" data-name="Group 1812">
              <g id="Group_1811" data-name="Group 1811">
                <rect id="Rectangle_2313" data-name="Rectangle 2313" width="5.701" height="5.701" rx="2.85" fill="#fff" stroke="#fff" stroke-miterlimit="10" stroke-width="0.5"/>
                <rect id="Rectangle_2314" data-name="Rectangle 2314" width="5.701" height="5.701" rx="2.85" transform="translate(27.46 19.383)" fill="#fff" stroke="#fff" stroke-miterlimit="10" stroke-width="0.5"/>
                <rect id="Rectangle_2315" data-name="Rectangle 2315" width="5.701" height="5.701" rx="2.85" transform="translate(54.92 38.577)" fill="#fff" stroke="#fff" stroke-miterlimit="10" stroke-width="0.5"/>
                <rect id="Rectangle_2316" data-name="Rectangle 2316" width="5.701" height="5.701" rx="2.85" transform="translate(82.379 57.2)" fill="#fff" stroke="#fff" stroke-miterlimit="10" stroke-width="0.5"/>
                <rect id="Rectangle_2317" data-name="Rectangle 2317" width="5.701" height="5.701" rx="2.85" transform="translate(109.839 76.678)" fill="#fff" stroke="#fff" stroke-miterlimit="10" stroke-width="0.5"/>
                <rect id="Rectangle_2318" data-name="Rectangle 2318" width="5.701" height="5.701" rx="2.85" transform="translate(137.299 95.587)" fill="#fff" stroke="#fff" stroke-miterlimit="10" stroke-width="0.5"/>
                <rect id="Rectangle_2319" data-name="Rectangle 2319" width="5.701" height="5.701" rx="2.85" transform="translate(164.759 110.504)" fill="#fff" stroke="#fff" stroke-miterlimit="10" stroke-width="0.5"/>
                <rect id="Rectangle_2320" data-name="Rectangle 2320" width="5.701" height="5.701" rx="2.85" transform="translate(192.219 121.146)" fill="#fff" stroke="#fff" stroke-miterlimit="10" stroke-width="0.5"/>
                <rect id="Rectangle_2321" data-name="Rectangle 2321" width="5.701" height="5.701" rx="2.85" transform="translate(219.678 130.363)" fill="#fff" stroke="#fff" stroke-miterlimit="10" stroke-width="0.5"/>
              </g>
            </g>
          </g>
        </g>
      </g>
    </g>
  </g>
</svg>
