<svg xmlns="http://www.w3.org/2000/svg" width="292.513" height="209.301" viewBox="0 0 292.513 209.301">
  <g id="data11_m" transform="translate(8888.698 11466.301)">
    <g id="Group_1952" data-name="Group 1952" transform="translate(-9114 -11761.897)">
      <g id="data_11-10" transform="translate(226 295)">
        <g id="Group_1759" data-name="Group 1759" transform="translate(0 0)">
          <g id="Group_1755" data-name="Group 1755" transform="translate(0 0)">
            <g id="Group_1752" data-name="Group 1752">
              <path id="Path_1656" data-name="Path 1656" d="M.415-3.53A6.55,6.55,0,0,1,.676-5.574a2.542,2.542,0,0,1,.776-1.194,1.985,1.985,0,0,1,1.3-.42,2.115,2.115,0,0,1,1.011.232,1.932,1.932,0,0,1,.718.669,3.589,3.589,0,0,1,.444,1.064A7.072,7.072,0,0,1,5.083-3.53,6.569,6.569,0,0,1,4.824-1.5,2.542,2.542,0,0,1,4.05-.3a1.985,1.985,0,0,1-1.3.422A1.964,1.964,0,0,1,1.123-.62,4.717,4.717,0,0,1,.415-3.53Zm.9,0a4.488,4.488,0,0,0,.413,2.346A1.216,1.216,0,0,0,2.749-.6a1.215,1.215,0,0,0,1.018-.586A4.49,4.49,0,0,0,4.18-3.53a4.487,4.487,0,0,0-.413-2.349A1.225,1.225,0,0,0,2.739-6.46a1.126,1.126,0,0,0-.967.513A4.54,4.54,0,0,0,1.318-3.53Z" transform="translate(12 155.255)" fill="#fff"/>
              <path id="Path_1655" data-name="Path 1655" d="M.415-1.875l.923-.078A1.655,1.655,0,0,0,1.814-.94a1.293,1.293,0,0,0,.9.339,1.4,1.4,0,0,0,1.074-.479,1.8,1.8,0,0,0,.439-1.27,1.63,1.63,0,0,0-.422-1.187A1.473,1.473,0,0,0,2.7-3.97a1.532,1.532,0,0,0-.767.193,1.489,1.489,0,0,0-.537.5L.571-3.384l.693-3.677h3.56v.84H1.968L1.582-4.3a2.329,2.329,0,0,1,1.353-.449A2.143,2.143,0,0,1,4.517-4.1a2.27,2.27,0,0,1,.645,1.67,2.607,2.607,0,0,1-.566,1.68,2.269,2.269,0,0,1-1.88.869A2.316,2.316,0,0,1,1.121-.425,2.134,2.134,0,0,1,.415-1.875ZM14.331-.21A.733.733,0,0,1,14.1.42a.851.851,0,0,1-.356.137,5.305,5.305,0,0,1-.723.034.255.255,0,0,1-.156-.029A.388.388,0,0,1,12.793.4,1.781,1.781,0,0,0,12.612.01a7.085,7.085,0,0,0,.742.039.435.435,0,0,0,.308-.083A.365.365,0,0,0,13.74-.3V-2.119H10.752v1.05q.757-.088,1.318-.181-.249-.361-.278-.4a.133.133,0,0,1-.034-.063q0-.034.093-.073l.21-.093a.314.314,0,0,1,.083-.024q.029,0,.068.054a7.592,7.592,0,0,1,.8,1.309.24.24,0,0,1,.015.059q0,.039-.093.083l-.225.112a.307.307,0,0,1-.107.039q-.034,0-.059-.059-.19-.42-.239-.522-1.45.254-3.467.449a1.26,1.26,0,0,0-.43.093.237.237,0,0,1-.117.059q-.068,0-.112-.132-.059-.21-.127-.557.215,0,.4,0,.342,0,.693-.024.918-.068,1.069-.083v-1.1H7.383V-.352L7.4.6a.069.069,0,0,1-.078.078H6.86A.069.069,0,0,1,6.782.6L6.8-.352v-1.27l-.02-.928a.069.069,0,0,1,.078-.078l1.411.02H10.21V-3.33h-1.1l-1.372.02a.069.069,0,0,1-.078-.078l.02-.84V-5.239l-.02-.84a.069.069,0,0,1,.078-.078l1.372.02h2.881l1.382-.02a.069.069,0,0,1,.078.078l-.02.84v1.011l.02.84a.069.069,0,0,1-.078.078l-1.382-.02h-1.24v.723h2.09l1.411-.02a.069.069,0,0,1,.078.078l-.02.981v.41Zm-1.46-3.56v-.781H10.752v.781Zm-2.661,0v-.781H8.242v.781ZM12.871-4.98V-5.7H10.752v.718Zm-2.661,0V-5.7H8.242v.718Zm4.712-2.051q0,.078-.083.078l-1.309-.02H12.222l.02.459q0,.083-.078.083h-.435q-.088,0-.088-.083,0-.015.01-.156t.01-.3H9.351l.02.459q0,.083-.078.083H8.853a.073.073,0,0,1-.083-.083q0-.015.01-.156t.01-.3H7.6l-1.313.02a.069.069,0,0,1-.078-.078v-.4q0-.068.078-.068L7.6-7.48H8.789A4.375,4.375,0,0,0,8.73-8.3q.3.015.62.054.1.015.1.088a.266.266,0,0,1-.039.132,1.428,1.428,0,0,0-.063.547h2.31a4.305,4.305,0,0,0-.059-.811q.327.02.61.054.107.015.107.088a.266.266,0,0,1-.039.132,1.5,1.5,0,0,0-.059.537H13.53l1.309-.02q.083,0,.083.068Z" transform="translate(4 132.055)" fill="#fff"/>
              <path id="Path_1654" data-name="Path 1654" d="M3.726,0H2.847V-5.6A4.543,4.543,0,0,1,2.014-5a5.9,5.9,0,0,1-.925.454v-.85a5.308,5.308,0,0,0,1.289-.84,3.3,3.3,0,0,0,.781-.957h.566ZM5.977-3.53a6.55,6.55,0,0,1,.261-2.043,2.542,2.542,0,0,1,.776-1.194,1.985,1.985,0,0,1,1.3-.42,2.115,2.115,0,0,1,1.011.232,1.932,1.932,0,0,1,.718.669,3.589,3.589,0,0,1,.444,1.064,7.072,7.072,0,0,1,.161,1.692A6.569,6.569,0,0,1,10.386-1.5,2.542,2.542,0,0,1,9.612-.3a1.985,1.985,0,0,1-1.3.422A1.964,1.964,0,0,1,6.685-.62,4.717,4.717,0,0,1,5.977-3.53Zm.9,0a4.488,4.488,0,0,0,.413,2.346A1.216,1.216,0,0,0,8.311-.6a1.215,1.215,0,0,0,1.018-.586A4.49,4.49,0,0,0,9.741-3.53a4.487,4.487,0,0,0-.413-2.349A1.225,1.225,0,0,0,8.3-6.46a1.126,1.126,0,0,0-.967.513A4.54,4.54,0,0,0,6.88-3.53ZM19.893-.21a.733.733,0,0,1-.229.63.851.851,0,0,1-.356.137,5.305,5.305,0,0,1-.723.034.255.255,0,0,1-.156-.029A.388.388,0,0,1,18.354.4,1.781,1.781,0,0,0,18.174.01a7.085,7.085,0,0,0,.742.039.435.435,0,0,0,.308-.083A.365.365,0,0,0,19.3-.3V-2.119H16.313v1.05q.757-.088,1.318-.181-.249-.361-.278-.4a.133.133,0,0,1-.034-.063q0-.034.093-.073l.21-.093a.314.314,0,0,1,.083-.024q.029,0,.068.054a7.592,7.592,0,0,1,.8,1.309.24.24,0,0,1,.015.059q0,.039-.093.083l-.225.112a.307.307,0,0,1-.107.039q-.034,0-.059-.059-.19-.42-.239-.522-1.45.254-3.467.449a1.26,1.26,0,0,0-.43.093.237.237,0,0,1-.117.059q-.068,0-.112-.132-.059-.21-.127-.557.215,0,.4,0,.342,0,.693-.024.918-.068,1.069-.083v-1.1H12.944V-.352l.02.952a.069.069,0,0,1-.078.078h-.464A.069.069,0,0,1,12.344.6l.02-.952v-1.27l-.02-.928a.069.069,0,0,1,.078-.078l1.411.02h1.938V-3.33h-1.1l-1.372.02a.069.069,0,0,1-.078-.078l.02-.84V-5.239l-.02-.84a.069.069,0,0,1,.078-.078l1.372.02h2.881l1.382-.02a.069.069,0,0,1,.078.078l-.02.84v1.011l.02.84a.069.069,0,0,1-.078.078l-1.382-.02h-1.24v.723H18.4l1.411-.02a.069.069,0,0,1,.078.078l-.02.981v.41Zm-1.46-3.56v-.781H16.313v.781Zm-2.661,0v-.781H13.8v.781ZM18.433-4.98V-5.7H16.313v.718Zm-2.661,0V-5.7H13.8v.718Zm4.712-2.051q0,.078-.083.078l-1.309-.02H17.783l.02.459q0,.083-.078.083H17.29q-.088,0-.088-.083,0-.015.01-.156t.01-.3h-2.31l.02.459q0,.083-.078.083h-.439a.073.073,0,0,1-.083-.083q0-.015.01-.156t.01-.3H13.164l-1.313.02a.069.069,0,0,1-.078-.078v-.4q0-.068.078-.068l1.313.02h1.187a4.375,4.375,0,0,0-.059-.82q.3.015.62.054.1.015.1.088a.266.266,0,0,1-.039.132,1.428,1.428,0,0,0-.063.547h2.31a4.305,4.305,0,0,0-.059-.811q.327.02.61.054.107.015.107.088a.266.266,0,0,1-.039.132,1.5,1.5,0,0,0-.059.537h1.309L20.4-7.5q.083,0,.083.068Z" transform="translate(1 106.444)" fill="#fff"/>
              <path id="Path_1653" data-name="Path 1653" d="M3.726,0H2.847V-5.6A4.543,4.543,0,0,1,2.014-5a5.9,5.9,0,0,1-.925.454v-.85a5.308,5.308,0,0,0,1.289-.84,3.3,3.3,0,0,0,.781-.957h.566ZM5.977-1.875,6.9-1.953A1.655,1.655,0,0,0,7.375-.94a1.293,1.293,0,0,0,.9.339,1.4,1.4,0,0,0,1.074-.479,1.8,1.8,0,0,0,.439-1.27,1.63,1.63,0,0,0-.422-1.187A1.473,1.473,0,0,0,8.262-3.97a1.532,1.532,0,0,0-.767.193,1.489,1.489,0,0,0-.537.5l-.825-.107.693-3.677h3.56v.84H7.529L7.144-4.3A2.329,2.329,0,0,1,8.5-4.746a2.143,2.143,0,0,1,1.582.649,2.27,2.27,0,0,1,.645,1.67,2.607,2.607,0,0,1-.566,1.68,2.269,2.269,0,0,1-1.88.869A2.316,2.316,0,0,1,6.682-.425,2.134,2.134,0,0,1,5.977-1.875ZM19.893-.21a.733.733,0,0,1-.229.63.851.851,0,0,1-.356.137,5.305,5.305,0,0,1-.723.034.255.255,0,0,1-.156-.029A.388.388,0,0,1,18.354.4,1.781,1.781,0,0,0,18.174.01a7.085,7.085,0,0,0,.742.039.435.435,0,0,0,.308-.083A.365.365,0,0,0,19.3-.3V-2.119H16.313v1.05q.757-.088,1.318-.181-.249-.361-.278-.4a.133.133,0,0,1-.034-.063q0-.034.093-.073l.21-.093a.314.314,0,0,1,.083-.024q.029,0,.068.054a7.592,7.592,0,0,1,.8,1.309.24.24,0,0,1,.015.059q0,.039-.093.083l-.225.112a.307.307,0,0,1-.107.039q-.034,0-.059-.059-.19-.42-.239-.522-1.45.254-3.467.449a1.26,1.26,0,0,0-.43.093.237.237,0,0,1-.117.059q-.068,0-.112-.132-.059-.21-.127-.557.215,0,.4,0,.342,0,.693-.024.918-.068,1.069-.083v-1.1H12.944V-.352l.02.952a.069.069,0,0,1-.078.078h-.464A.069.069,0,0,1,12.344.6l.02-.952v-1.27l-.02-.928a.069.069,0,0,1,.078-.078l1.411.02h1.938V-3.33h-1.1l-1.372.02a.069.069,0,0,1-.078-.078l.02-.84V-5.239l-.02-.84a.069.069,0,0,1,.078-.078l1.372.02h2.881l1.382-.02a.069.069,0,0,1,.078.078l-.02.84v1.011l.02.84a.069.069,0,0,1-.078.078l-1.382-.02h-1.24v.723H18.4l1.411-.02a.069.069,0,0,1,.078.078l-.02.981v.41Zm-1.46-3.56v-.781H16.313v.781Zm-2.661,0v-.781H13.8v.781ZM18.433-4.98V-5.7H16.313v.718Zm-2.661,0V-5.7H13.8v.718Zm4.712-2.051q0,.078-.083.078l-1.309-.02H17.783l.02.459q0,.083-.078.083H17.29q-.088,0-.088-.083,0-.015.01-.156t.01-.3h-2.31l.02.459q0,.083-.078.083h-.439a.073.073,0,0,1-.083-.083q0-.015.01-.156t.01-.3H13.164l-1.313.02a.069.069,0,0,1-.078-.078v-.4q0-.068.078-.068l1.313.02h1.187a4.375,4.375,0,0,0-.059-.82q.3.015.62.054.1.015.1.088a.266.266,0,0,1-.039.132,1.428,1.428,0,0,0-.063.547h2.31a4.305,4.305,0,0,0-.059-.811q.327.02.61.054.107.015.107.088a.266.266,0,0,1-.039.132,1.5,1.5,0,0,0-.059.537h1.309L20.4-7.5q.083,0,.083.068Z" transform="translate(1 81.833)" fill="#fff"/>
              <path id="Path_1652" data-name="Path 1652" d="M5.034-.845V0H.3a1.555,1.555,0,0,1,.1-.61,3.229,3.229,0,0,1,.579-.952,9.065,9.065,0,0,1,1.15-1.084A9.748,9.748,0,0,0,3.711-4.163a1.815,1.815,0,0,0,.41-1.057A1.175,1.175,0,0,0,3.748-6.1a1.347,1.347,0,0,0-.974-.359,1.373,1.373,0,0,0-1.016.381,1.441,1.441,0,0,0-.386,1.055l-.9-.093a2.224,2.224,0,0,1,.7-1.541,2.382,2.382,0,0,1,1.626-.53,2.269,2.269,0,0,1,1.631.571,1.876,1.876,0,0,1,.6,1.416,2.148,2.148,0,0,1-.176.845,3.278,3.278,0,0,1-.583.874A14.215,14.215,0,0,1,2.91-2.222q-.791.664-1.016.9a2.89,2.89,0,0,0-.371.476ZM5.977-3.53a6.55,6.55,0,0,1,.261-2.043,2.542,2.542,0,0,1,.776-1.194,1.985,1.985,0,0,1,1.3-.42,2.115,2.115,0,0,1,1.011.232,1.932,1.932,0,0,1,.718.669,3.589,3.589,0,0,1,.444,1.064,7.072,7.072,0,0,1,.161,1.692A6.569,6.569,0,0,1,10.386-1.5,2.542,2.542,0,0,1,9.612-.3a1.985,1.985,0,0,1-1.3.422A1.964,1.964,0,0,1,6.685-.62,4.717,4.717,0,0,1,5.977-3.53Zm.9,0a4.488,4.488,0,0,0,.413,2.346A1.216,1.216,0,0,0,8.311-.6a1.215,1.215,0,0,0,1.018-.586A4.49,4.49,0,0,0,9.741-3.53a4.487,4.487,0,0,0-.413-2.349A1.225,1.225,0,0,0,8.3-6.46a1.126,1.126,0,0,0-.967.513A4.54,4.54,0,0,0,6.88-3.53ZM19.893-.21a.733.733,0,0,1-.229.63.851.851,0,0,1-.356.137,5.305,5.305,0,0,1-.723.034.255.255,0,0,1-.156-.029A.388.388,0,0,1,18.354.4,1.781,1.781,0,0,0,18.174.01a7.085,7.085,0,0,0,.742.039.435.435,0,0,0,.308-.083A.365.365,0,0,0,19.3-.3V-2.119H16.313v1.05q.757-.088,1.318-.181-.249-.361-.278-.4a.133.133,0,0,1-.034-.063q0-.034.093-.073l.21-.093a.314.314,0,0,1,.083-.024q.029,0,.068.054a7.592,7.592,0,0,1,.8,1.309.24.24,0,0,1,.015.059q0,.039-.093.083l-.225.112a.307.307,0,0,1-.107.039q-.034,0-.059-.059-.19-.42-.239-.522-1.45.254-3.467.449a1.26,1.26,0,0,0-.43.093.237.237,0,0,1-.117.059q-.068,0-.112-.132-.059-.21-.127-.557.215,0,.4,0,.342,0,.693-.024.918-.068,1.069-.083v-1.1H12.944V-.352l.02.952a.069.069,0,0,1-.078.078h-.464A.069.069,0,0,1,12.344.6l.02-.952v-1.27l-.02-.928a.069.069,0,0,1,.078-.078l1.411.02h1.938V-3.33h-1.1l-1.372.02a.069.069,0,0,1-.078-.078l.02-.84V-5.239l-.02-.84a.069.069,0,0,1,.078-.078l1.372.02h2.881l1.382-.02a.069.069,0,0,1,.078.078l-.02.84v1.011l.02.84a.069.069,0,0,1-.078.078l-1.382-.02h-1.24v.723H18.4l1.411-.02a.069.069,0,0,1,.078.078l-.02.981v.41Zm-1.46-3.56v-.781H16.313v.781Zm-2.661,0v-.781H13.8v.781ZM18.433-4.98V-5.7H16.313v.718Zm-2.661,0V-5.7H13.8v.718Zm4.712-2.051q0,.078-.083.078l-1.309-.02H17.783l.02.459q0,.083-.078.083H17.29q-.088,0-.088-.083,0-.015.01-.156t.01-.3h-2.31l.02.459q0,.083-.078.083h-.439a.073.073,0,0,1-.083-.083q0-.015.01-.156t.01-.3H13.164l-1.313.02a.069.069,0,0,1-.078-.078v-.4q0-.068.078-.068l1.313.02h1.187a4.375,4.375,0,0,0-.059-.82q.3.015.62.054.1.015.1.088a.266.266,0,0,1-.039.132,1.428,1.428,0,0,0-.063.547h2.31a4.305,4.305,0,0,0-.059-.811q.327.02.61.054.107.015.107.088a.266.266,0,0,1-.039.132,1.5,1.5,0,0,0-.059.537h1.309L20.4-7.5q.083,0,.083.068Z" transform="translate(-1 57.898)" fill="#fff"/>
              <path id="Path_1651" data-name="Path 1651" d="M5.034-.845V0H.3a1.555,1.555,0,0,1,.1-.61,3.229,3.229,0,0,1,.579-.952,9.065,9.065,0,0,1,1.15-1.084A9.748,9.748,0,0,0,3.711-4.163a1.815,1.815,0,0,0,.41-1.057A1.175,1.175,0,0,0,3.748-6.1a1.347,1.347,0,0,0-.974-.359,1.373,1.373,0,0,0-1.016.381,1.441,1.441,0,0,0-.386,1.055l-.9-.093a2.224,2.224,0,0,1,.7-1.541,2.382,2.382,0,0,1,1.626-.53,2.269,2.269,0,0,1,1.631.571,1.876,1.876,0,0,1,.6,1.416,2.148,2.148,0,0,1-.176.845,3.278,3.278,0,0,1-.583.874A14.215,14.215,0,0,1,2.91-2.222q-.791.664-1.016.9a2.89,2.89,0,0,0-.371.476Zm.942-1.03L6.9-1.953A1.655,1.655,0,0,0,7.375-.94a1.293,1.293,0,0,0,.9.339,1.4,1.4,0,0,0,1.074-.479,1.8,1.8,0,0,0,.439-1.27,1.63,1.63,0,0,0-.422-1.187A1.473,1.473,0,0,0,8.262-3.97a1.532,1.532,0,0,0-.767.193,1.489,1.489,0,0,0-.537.5l-.825-.107.693-3.677h3.56v.84H7.529L7.144-4.3A2.329,2.329,0,0,1,8.5-4.746a2.143,2.143,0,0,1,1.582.649,2.27,2.27,0,0,1,.645,1.67,2.607,2.607,0,0,1-.566,1.68,2.269,2.269,0,0,1-1.88.869A2.316,2.316,0,0,1,6.682-.425,2.134,2.134,0,0,1,5.977-1.875ZM19.893-.21a.733.733,0,0,1-.229.63.851.851,0,0,1-.356.137,5.305,5.305,0,0,1-.723.034.255.255,0,0,1-.156-.029A.388.388,0,0,1,18.354.4,1.781,1.781,0,0,0,18.174.01a7.085,7.085,0,0,0,.742.039.435.435,0,0,0,.308-.083A.365.365,0,0,0,19.3-.3V-2.119H16.313v1.05q.757-.088,1.318-.181-.249-.361-.278-.4a.133.133,0,0,1-.034-.063q0-.034.093-.073l.21-.093a.314.314,0,0,1,.083-.024q.029,0,.068.054a7.592,7.592,0,0,1,.8,1.309.24.24,0,0,1,.015.059q0,.039-.093.083l-.225.112a.307.307,0,0,1-.107.039q-.034,0-.059-.059-.19-.42-.239-.522-1.45.254-3.467.449a1.26,1.26,0,0,0-.43.093.237.237,0,0,1-.117.059q-.068,0-.112-.132-.059-.21-.127-.557.215,0,.4,0,.342,0,.693-.024.918-.068,1.069-.083v-1.1H12.944V-.352l.02.952a.069.069,0,0,1-.078.078h-.464A.069.069,0,0,1,12.344.6l.02-.952v-1.27l-.02-.928a.069.069,0,0,1,.078-.078l1.411.02h1.938V-3.33h-1.1l-1.372.02a.069.069,0,0,1-.078-.078l.02-.84V-5.239l-.02-.84a.069.069,0,0,1,.078-.078l1.372.02h2.881l1.382-.02a.069.069,0,0,1,.078.078l-.02.84v1.011l.02.84a.069.069,0,0,1-.078.078l-1.382-.02h-1.24v.723H18.4l1.411-.02a.069.069,0,0,1,.078.078l-.02.981v.41Zm-1.46-3.56v-.781H16.313v.781Zm-2.661,0v-.781H13.8v.781ZM18.433-4.98V-5.7H16.313v.718Zm-2.661,0V-5.7H13.8v.718Zm4.712-2.051q0,.078-.083.078l-1.309-.02H17.783l.02.459q0,.083-.078.083H17.29q-.088,0-.088-.083,0-.015.01-.156t.01-.3h-2.31l.02.459q0,.083-.078.083h-.439a.073.073,0,0,1-.083-.083q0-.015.01-.156t.01-.3H13.164l-1.313.02a.069.069,0,0,1-.078-.078v-.4q0-.068.078-.068l1.313.02h1.187a4.375,4.375,0,0,0-.059-.82q.3.015.62.054.1.015.1.088a.266.266,0,0,1-.039.132,1.428,1.428,0,0,0-.063.547h2.31a4.305,4.305,0,0,0-.059-.811q.327.02.61.054.107.015.107.088a.266.266,0,0,1-.039.132,1.5,1.5,0,0,0-.059.537h1.309L20.4-7.5q.083,0,.083.068Z" transform="translate(-1 33.898)" fill="#fff"/>
              <path id="Path_1650" data-name="Path 1650" d="M.42-1.89,1.3-2.007A1.936,1.936,0,0,0,1.814-.93,1.272,1.272,0,0,0,2.7-.6a1.42,1.42,0,0,0,1.047-.43,1.45,1.45,0,0,0,.427-1.064,1.348,1.348,0,0,0-.4-1,1.367,1.367,0,0,0-1.006-.393,2.523,2.523,0,0,0-.62.1l.1-.771a1.343,1.343,0,0,0,.142.01A1.81,1.81,0,0,0,3.4-4.443a1,1,0,0,0,.449-.9,1.069,1.069,0,0,0-.327-.8,1.162,1.162,0,0,0-.845-.317,1.2,1.2,0,0,0-.854.322,1.618,1.618,0,0,0-.439.967L.508-5.332A2.259,2.259,0,0,1,1.24-6.7a2.117,2.117,0,0,1,1.421-.486,2.341,2.341,0,0,1,1.079.251,1.819,1.819,0,0,1,.754.686,1.762,1.762,0,0,1,.261.923,1.511,1.511,0,0,1-.249.845,1.7,1.7,0,0,1-.737.605,1.661,1.661,0,0,1,.986.608,1.85,1.85,0,0,1,.352,1.155A2.113,2.113,0,0,1,4.424-.525,2.4,2.4,0,0,1,2.7.127,2.249,2.249,0,0,1,1.13-.435,2.171,2.171,0,0,1,.42-1.89ZM5.977-3.53a6.55,6.55,0,0,1,.261-2.043,2.542,2.542,0,0,1,.776-1.194,1.985,1.985,0,0,1,1.3-.42,2.115,2.115,0,0,1,1.011.232,1.932,1.932,0,0,1,.718.669,3.589,3.589,0,0,1,.444,1.064,7.072,7.072,0,0,1,.161,1.692A6.569,6.569,0,0,1,10.386-1.5,2.542,2.542,0,0,1,9.612-.3a1.985,1.985,0,0,1-1.3.422A1.964,1.964,0,0,1,6.685-.62,4.717,4.717,0,0,1,5.977-3.53Zm.9,0a4.488,4.488,0,0,0,.413,2.346A1.216,1.216,0,0,0,8.311-.6a1.215,1.215,0,0,0,1.018-.586A4.49,4.49,0,0,0,9.741-3.53a4.487,4.487,0,0,0-.413-2.349A1.225,1.225,0,0,0,8.3-6.46a1.126,1.126,0,0,0-.967.513A4.54,4.54,0,0,0,6.88-3.53ZM19.893-.21a.733.733,0,0,1-.229.63.851.851,0,0,1-.356.137,5.305,5.305,0,0,1-.723.034.255.255,0,0,1-.156-.029A.388.388,0,0,1,18.354.4,1.781,1.781,0,0,0,18.174.01a7.085,7.085,0,0,0,.742.039.435.435,0,0,0,.308-.083A.365.365,0,0,0,19.3-.3V-2.119H16.313v1.05q.757-.088,1.318-.181-.249-.361-.278-.4a.133.133,0,0,1-.034-.063q0-.034.093-.073l.21-.093a.314.314,0,0,1,.083-.024q.029,0,.068.054a7.592,7.592,0,0,1,.8,1.309.24.24,0,0,1,.015.059q0,.039-.093.083l-.225.112a.307.307,0,0,1-.107.039q-.034,0-.059-.059-.19-.42-.239-.522-1.45.254-3.467.449a1.26,1.26,0,0,0-.43.093.237.237,0,0,1-.117.059q-.068,0-.112-.132-.059-.21-.127-.557.215,0,.4,0,.342,0,.693-.024.918-.068,1.069-.083v-1.1H12.944V-.352l.02.952a.069.069,0,0,1-.078.078h-.464A.069.069,0,0,1,12.344.6l.02-.952v-1.27l-.02-.928a.069.069,0,0,1,.078-.078l1.411.02h1.938V-3.33h-1.1l-1.372.02a.069.069,0,0,1-.078-.078l.02-.84V-5.239l-.02-.84a.069.069,0,0,1,.078-.078l1.372.02h2.881l1.382-.02a.069.069,0,0,1,.078.078l-.02.84v1.011l.02.84a.069.069,0,0,1-.078.078l-1.382-.02h-1.24v.723H18.4l1.411-.02a.069.069,0,0,1,.078.078l-.02.981v.41Zm-1.46-3.56v-.781H16.313v.781Zm-2.661,0v-.781H13.8v.781ZM18.433-4.98V-5.7H16.313v.718Zm-2.661,0V-5.7H13.8v.718Zm4.712-2.051q0,.078-.083.078l-1.309-.02H17.783l.02.459q0,.083-.078.083H17.29q-.088,0-.088-.083,0-.015.01-.156t.01-.3h-2.31l.02.459q0,.083-.078.083h-.439a.073.073,0,0,1-.083-.083q0-.015.01-.156t.01-.3H13.164l-1.313.02a.069.069,0,0,1-.078-.078v-.4q0-.068.078-.068l1.313.02h1.187a4.375,4.375,0,0,0-.059-.82q.3.015.62.054.1.015.1.088a.266.266,0,0,1-.039.132,1.428,1.428,0,0,0-.063.547h2.31a4.305,4.305,0,0,0-.059-.811q.327.02.61.054.107.015.107.088a.266.266,0,0,1-.039.132,1.5,1.5,0,0,0-.059.537h1.309L20.4-7.5q.083,0,.083.068Z" transform="translate(-1 8.898)" fill="#fff"/>
            </g>
            <path id="Path_1649" data-name="Path 1649" d="M0,147.647V0" transform="translate(23.804 5.999)" fill="none" stroke="#fff" stroke-width="1"/>
          </g>
          <g id="Group_1758" data-name="Group 1758" transform="translate(30.588 19.5)">
            <g id="Group_1757" data-name="Group 1757">
              <g id="Group_1756" data-name="Group 1756">
                <rect id="Rectangle_2216" data-name="Rectangle 2216" width="34.917" height="125.7" transform="translate(0 8.446)" fill="#fff"/>
                <rect id="Rectangle_2217" data-name="Rectangle 2217" width="34.917" height="134.146" transform="translate(48.484)" fill="#fff"/>
                <rect id="Rectangle_2218" data-name="Rectangle 2218" width="34.917" height="123.172" transform="translate(96.968 10.974)" fill="#fff"/>
                <rect id="Rectangle_2219" data-name="Rectangle 2219" width="34.917" height="114.992" transform="translate(145.453 19.154)" fill="#fff"/>
                <rect id="Rectangle_2220" data-name="Rectangle 2220" width="34.917" height="118.783" transform="translate(193.937 15.363)" fill="#fff"/>
              </g>
            </g>
          </g>
        </g>
        <g id="Group_1773" data-name="Group 1773" transform="translate(23.804 0)">
          <g id="Group_1762" data-name="Group 1762" transform="translate(0 153.646)">
            <line id="Line_295" data-name="Line 295" x2="242.487" fill="none" stroke="#55585f" stroke-miterlimit="10" stroke-width="1"/>
          </g>
          <g id="Group_1766" data-name="Group 1766" transform="translate(242.487 0)">
            <g id="Group_1763" data-name="Group 1763" transform="translate(3.755)">
              <path id="Path_1665" data-name="Path 1665" d="M3.726,0H2.847V-5.6A4.543,4.543,0,0,1,2.014-5a5.9,5.9,0,0,1-.925.454v-.85a5.308,5.308,0,0,0,1.289-.84,3.3,3.3,0,0,0,.781-.957h.566ZM5.977-3.53a6.55,6.55,0,0,1,.261-2.043,2.542,2.542,0,0,1,.776-1.194,1.985,1.985,0,0,1,1.3-.42,2.115,2.115,0,0,1,1.011.232,1.932,1.932,0,0,1,.718.669,3.589,3.589,0,0,1,.444,1.064,7.072,7.072,0,0,1,.161,1.692A6.569,6.569,0,0,1,10.386-1.5,2.542,2.542,0,0,1,9.612-.3a1.985,1.985,0,0,1-1.3.422A1.964,1.964,0,0,1,6.685-.62,4.717,4.717,0,0,1,5.977-3.53Zm.9,0a4.488,4.488,0,0,0,.413,2.346A1.216,1.216,0,0,0,8.311-.6a1.215,1.215,0,0,0,1.018-.586A4.49,4.49,0,0,0,9.741-3.53a4.487,4.487,0,0,0-.413-2.349A1.225,1.225,0,0,0,8.3-6.46a1.126,1.126,0,0,0-.967.513A4.54,4.54,0,0,0,6.88-3.53Zm4.658,0A6.55,6.55,0,0,1,11.8-5.574a2.542,2.542,0,0,1,.776-1.194,1.985,1.985,0,0,1,1.3-.42,2.115,2.115,0,0,1,1.011.232,1.932,1.932,0,0,1,.718.669,3.589,3.589,0,0,1,.444,1.064,7.072,7.072,0,0,1,.161,1.692A6.569,6.569,0,0,1,15.947-1.5a2.542,2.542,0,0,1-.774,1.2,1.985,1.985,0,0,1-1.3.422A1.964,1.964,0,0,1,12.246-.62,4.717,4.717,0,0,1,11.538-3.53Zm.9,0a4.488,4.488,0,0,0,.413,2.346A1.216,1.216,0,0,0,13.872-.6a1.215,1.215,0,0,0,1.018-.586A4.49,4.49,0,0,0,15.3-3.53a4.487,4.487,0,0,0-.413-2.349,1.225,1.225,0,0,0-1.028-.581,1.126,1.126,0,0,0-.967.513A4.54,4.54,0,0,0,12.441-3.53Zm4.658,0a6.55,6.55,0,0,1,.261-2.043,2.542,2.542,0,0,1,.776-1.194,1.985,1.985,0,0,1,1.3-.42,2.115,2.115,0,0,1,1.011.232,1.932,1.932,0,0,1,.718.669,3.589,3.589,0,0,1,.444,1.064,7.072,7.072,0,0,1,.161,1.692A6.569,6.569,0,0,1,21.509-1.5a2.542,2.542,0,0,1-.774,1.2,1.985,1.985,0,0,1-1.3.422A1.964,1.964,0,0,1,17.808-.62,4.717,4.717,0,0,1,17.1-3.53Zm.9,0a4.488,4.488,0,0,0,.413,2.346A1.216,1.216,0,0,0,19.434-.6a1.215,1.215,0,0,0,1.018-.586,4.49,4.49,0,0,0,.413-2.344,4.487,4.487,0,0,0-.413-2.349,1.225,1.225,0,0,0-1.028-.581,1.126,1.126,0,0,0-.967.513A4.54,4.54,0,0,0,18-3.53Z" transform="translate(0 156.666)" fill="#4891f2"/>
              <path id="Path_1664" data-name="Path 1664" d="M3.726,0H2.847V-5.6A4.543,4.543,0,0,1,2.014-5a5.9,5.9,0,0,1-.925.454v-.85a5.308,5.308,0,0,0,1.289-.84,3.3,3.3,0,0,0,.781-.957h.566ZM5.977-1.875,6.9-1.953A1.655,1.655,0,0,0,7.375-.94a1.293,1.293,0,0,0,.9.339,1.4,1.4,0,0,0,1.074-.479,1.8,1.8,0,0,0,.439-1.27,1.63,1.63,0,0,0-.422-1.187A1.473,1.473,0,0,0,8.262-3.97a1.532,1.532,0,0,0-.767.193,1.489,1.489,0,0,0-.537.5l-.825-.107.693-3.677h3.56v.84H7.529L7.144-4.3A2.329,2.329,0,0,1,8.5-4.746a2.143,2.143,0,0,1,1.582.649,2.27,2.27,0,0,1,.645,1.67,2.607,2.607,0,0,1-.566,1.68,2.269,2.269,0,0,1-1.88.869A2.316,2.316,0,0,1,6.682-.425,2.134,2.134,0,0,1,5.977-1.875ZM11.538-3.53A6.55,6.55,0,0,1,11.8-5.574a2.542,2.542,0,0,1,.776-1.194,1.985,1.985,0,0,1,1.3-.42,2.115,2.115,0,0,1,1.011.232,1.932,1.932,0,0,1,.718.669,3.589,3.589,0,0,1,.444,1.064,7.072,7.072,0,0,1,.161,1.692A6.569,6.569,0,0,1,15.947-1.5a2.542,2.542,0,0,1-.774,1.2,1.985,1.985,0,0,1-1.3.422A1.964,1.964,0,0,1,12.246-.62,4.717,4.717,0,0,1,11.538-3.53Zm.9,0a4.488,4.488,0,0,0,.413,2.346A1.216,1.216,0,0,0,13.872-.6a1.215,1.215,0,0,0,1.018-.586A4.49,4.49,0,0,0,15.3-3.53a4.487,4.487,0,0,0-.413-2.349,1.225,1.225,0,0,0-1.028-.581,1.126,1.126,0,0,0-.967.513A4.54,4.54,0,0,0,12.441-3.53Zm4.658,0a6.55,6.55,0,0,1,.261-2.043,2.542,2.542,0,0,1,.776-1.194,1.985,1.985,0,0,1,1.3-.42,2.115,2.115,0,0,1,1.011.232,1.932,1.932,0,0,1,.718.669,3.589,3.589,0,0,1,.444,1.064,7.072,7.072,0,0,1,.161,1.692A6.569,6.569,0,0,1,21.509-1.5a2.542,2.542,0,0,1-.774,1.2,1.985,1.985,0,0,1-1.3.422A1.964,1.964,0,0,1,17.808-.62,4.717,4.717,0,0,1,17.1-3.53Zm.9,0a4.488,4.488,0,0,0,.413,2.346A1.216,1.216,0,0,0,19.434-.6a1.215,1.215,0,0,0,1.018-.586,4.49,4.49,0,0,0,.413-2.344,4.487,4.487,0,0,0-.413-2.349,1.225,1.225,0,0,0-1.028-.581,1.126,1.126,0,0,0-.967.513A4.54,4.54,0,0,0,18-3.53Z" transform="translate(0 107.444)" fill="#4891f2"/>
              <path id="Path_1663" data-name="Path 1663" d="M5.034-.845V0H.3a1.555,1.555,0,0,1,.1-.61,3.229,3.229,0,0,1,.579-.952,9.065,9.065,0,0,1,1.15-1.084A9.748,9.748,0,0,0,3.711-4.163a1.815,1.815,0,0,0,.41-1.057A1.175,1.175,0,0,0,3.748-6.1a1.347,1.347,0,0,0-.974-.359,1.373,1.373,0,0,0-1.016.381,1.441,1.441,0,0,0-.386,1.055l-.9-.093a2.224,2.224,0,0,1,.7-1.541,2.382,2.382,0,0,1,1.626-.53,2.269,2.269,0,0,1,1.631.571,1.876,1.876,0,0,1,.6,1.416,2.148,2.148,0,0,1-.176.845,3.278,3.278,0,0,1-.583.874A14.215,14.215,0,0,1,2.91-2.222q-.791.664-1.016.9a2.89,2.89,0,0,0-.371.476ZM5.977-3.53a6.55,6.55,0,0,1,.261-2.043,2.542,2.542,0,0,1,.776-1.194,1.985,1.985,0,0,1,1.3-.42,2.115,2.115,0,0,1,1.011.232,1.932,1.932,0,0,1,.718.669,3.589,3.589,0,0,1,.444,1.064,7.072,7.072,0,0,1,.161,1.692A6.569,6.569,0,0,1,10.386-1.5,2.542,2.542,0,0,1,9.612-.3a1.985,1.985,0,0,1-1.3.422A1.964,1.964,0,0,1,6.685-.62,4.717,4.717,0,0,1,5.977-3.53Zm.9,0a4.488,4.488,0,0,0,.413,2.346A1.216,1.216,0,0,0,8.311-.6a1.215,1.215,0,0,0,1.018-.586A4.49,4.49,0,0,0,9.741-3.53a4.487,4.487,0,0,0-.413-2.349A1.225,1.225,0,0,0,8.3-6.46a1.126,1.126,0,0,0-.967.513A4.54,4.54,0,0,0,6.88-3.53Zm4.658,0A6.55,6.55,0,0,1,11.8-5.574a2.542,2.542,0,0,1,.776-1.194,1.985,1.985,0,0,1,1.3-.42,2.115,2.115,0,0,1,1.011.232,1.932,1.932,0,0,1,.718.669,3.589,3.589,0,0,1,.444,1.064,7.072,7.072,0,0,1,.161,1.692A6.569,6.569,0,0,1,15.947-1.5a2.542,2.542,0,0,1-.774,1.2,1.985,1.985,0,0,1-1.3.422A1.964,1.964,0,0,1,12.246-.62,4.717,4.717,0,0,1,11.538-3.53Zm.9,0a4.488,4.488,0,0,0,.413,2.346A1.216,1.216,0,0,0,13.872-.6a1.215,1.215,0,0,0,1.018-.586A4.49,4.49,0,0,0,15.3-3.53a4.487,4.487,0,0,0-.413-2.349,1.225,1.225,0,0,0-1.028-.581,1.126,1.126,0,0,0-.967.513A4.54,4.54,0,0,0,12.441-3.53Zm4.658,0a6.55,6.55,0,0,1,.261-2.043,2.542,2.542,0,0,1,.776-1.194,1.985,1.985,0,0,1,1.3-.42,2.115,2.115,0,0,1,1.011.232,1.932,1.932,0,0,1,.718.669,3.589,3.589,0,0,1,.444,1.064,7.072,7.072,0,0,1,.161,1.692A6.569,6.569,0,0,1,21.509-1.5a2.542,2.542,0,0,1-.774,1.2,1.985,1.985,0,0,1-1.3.422A1.964,1.964,0,0,1,17.808-.62,4.717,4.717,0,0,1,17.1-3.53Zm.9,0a4.488,4.488,0,0,0,.413,2.346A1.216,1.216,0,0,0,19.434-.6a1.215,1.215,0,0,0,1.018-.586,4.49,4.49,0,0,0,.413-2.344,4.487,4.487,0,0,0-.413-2.349,1.225,1.225,0,0,0-1.028-.581,1.126,1.126,0,0,0-.967.513A4.54,4.54,0,0,0,18-3.53Z" transform="translate(0 58.222)" fill="#4891f2"/>
              <path id="Path_1662" data-name="Path 1662" d="M5.034-.845V0H.3a1.555,1.555,0,0,1,.1-.61,3.229,3.229,0,0,1,.579-.952,9.065,9.065,0,0,1,1.15-1.084A9.748,9.748,0,0,0,3.711-4.163a1.815,1.815,0,0,0,.41-1.057A1.175,1.175,0,0,0,3.748-6.1a1.347,1.347,0,0,0-.974-.359,1.373,1.373,0,0,0-1.016.381,1.441,1.441,0,0,0-.386,1.055l-.9-.093a2.224,2.224,0,0,1,.7-1.541,2.382,2.382,0,0,1,1.626-.53,2.269,2.269,0,0,1,1.631.571,1.876,1.876,0,0,1,.6,1.416,2.148,2.148,0,0,1-.176.845,3.278,3.278,0,0,1-.583.874A14.215,14.215,0,0,1,2.91-2.222q-.791.664-1.016.9a2.89,2.89,0,0,0-.371.476Zm.942-1.03L6.9-1.953A1.655,1.655,0,0,0,7.375-.94a1.293,1.293,0,0,0,.9.339,1.4,1.4,0,0,0,1.074-.479,1.8,1.8,0,0,0,.439-1.27,1.63,1.63,0,0,0-.422-1.187A1.473,1.473,0,0,0,8.262-3.97a1.532,1.532,0,0,0-.767.193,1.489,1.489,0,0,0-.537.5l-.825-.107.693-3.677h3.56v.84H7.529L7.144-4.3A2.329,2.329,0,0,1,8.5-4.746a2.143,2.143,0,0,1,1.582.649,2.27,2.27,0,0,1,.645,1.67,2.607,2.607,0,0,1-.566,1.68,2.269,2.269,0,0,1-1.88.869A2.316,2.316,0,0,1,6.682-.425,2.134,2.134,0,0,1,5.977-1.875ZM11.538-3.53A6.55,6.55,0,0,1,11.8-5.574a2.542,2.542,0,0,1,.776-1.194,1.985,1.985,0,0,1,1.3-.42,2.115,2.115,0,0,1,1.011.232,1.932,1.932,0,0,1,.718.669,3.589,3.589,0,0,1,.444,1.064,7.072,7.072,0,0,1,.161,1.692A6.569,6.569,0,0,1,15.947-1.5a2.542,2.542,0,0,1-.774,1.2,1.985,1.985,0,0,1-1.3.422A1.964,1.964,0,0,1,12.246-.62,4.717,4.717,0,0,1,11.538-3.53Zm.9,0a4.488,4.488,0,0,0,.413,2.346A1.216,1.216,0,0,0,13.872-.6a1.215,1.215,0,0,0,1.018-.586A4.49,4.49,0,0,0,15.3-3.53a4.487,4.487,0,0,0-.413-2.349,1.225,1.225,0,0,0-1.028-.581,1.126,1.126,0,0,0-.967.513A4.54,4.54,0,0,0,12.441-3.53Zm4.658,0a6.55,6.55,0,0,1,.261-2.043,2.542,2.542,0,0,1,.776-1.194,1.985,1.985,0,0,1,1.3-.42,2.115,2.115,0,0,1,1.011.232,1.932,1.932,0,0,1,.718.669,3.589,3.589,0,0,1,.444,1.064,7.072,7.072,0,0,1,.161,1.692A6.569,6.569,0,0,1,21.509-1.5a2.542,2.542,0,0,1-.774,1.2,1.985,1.985,0,0,1-1.3.422A1.964,1.964,0,0,1,17.808-.62,4.717,4.717,0,0,1,17.1-3.53Zm.9,0a4.488,4.488,0,0,0,.413,2.346A1.216,1.216,0,0,0,19.434-.6a1.215,1.215,0,0,0,1.018-.586,4.49,4.49,0,0,0,.413-2.344,4.487,4.487,0,0,0-.413-2.349,1.225,1.225,0,0,0-1.028-.581,1.126,1.126,0,0,0-.967.513A4.54,4.54,0,0,0,18-3.53Z" transform="translate(0 9)" fill="#4891f2"/>
            </g>
            <line id="Line_302" data-name="Line 302" y1="147.647" transform="translate(0 5.999)" fill="none" stroke="#4891f2" stroke-miterlimit="10" stroke-width="1"/>
          </g>
          <g id="Group_1769" data-name="Group 1769" transform="translate(24.209 39.12)">
            <g id="Group_1768" data-name="Group 1768">
              <g id="Group_1767" data-name="Group 1767">
                <line id="Line_307" data-name="Line 307" x1="48.551" y2="15.297" transform="translate(0 70.897)" fill="none" stroke="#4891f2" stroke-linecap="round" stroke-miterlimit="10" stroke-width="2"/>
                <line id="Line_308" data-name="Line 308" x1="48.484" y2="4.523" transform="translate(48.551 66.375)" fill="none" stroke="#4891f2" stroke-linecap="round" stroke-miterlimit="10" stroke-width="2"/>
                <line id="Line_309" data-name="Line 309" x1="48.484" y2="10.442" transform="translate(97.035 55.933)" fill="none" stroke="#4891f2" stroke-linecap="round" stroke-miterlimit="10" stroke-width="2"/>
                <line id="Line_310" data-name="Line 310" x1="48.484" y2="55.933" transform="translate(145.519)" fill="none" stroke="#4891f2" stroke-linecap="round" stroke-miterlimit="10" stroke-width="2"/>
              </g>
            </g>
          </g>
          <g id="Group_1772" data-name="Group 1772" transform="translate(22.214 37.125)">
            <g id="Group_1771" data-name="Group 1771">
              <g id="Group_1770" data-name="Group 1770">
                <rect id="Rectangle_2221" data-name="Rectangle 2221" width="3.99" height="3.99" rx="1.995" transform="translate(0 86.194)" fill="#4891f2" stroke="#4891f2" stroke-miterlimit="10" stroke-width="0.5"/>
                <rect id="Rectangle_2222" data-name="Rectangle 2222" width="3.99" height="3.99" rx="1.995" transform="translate(48.551 70.897)" fill="#4891f2" stroke="#4891f2" stroke-miterlimit="10" stroke-width="0.5"/>
                <rect id="Rectangle_2223" data-name="Rectangle 2223" width="3.99" height="3.99" rx="1.995" transform="translate(97.035 66.375)" fill="#4891f2" stroke="#4891f2" stroke-miterlimit="10" stroke-width="0.5"/>
                <rect id="Rectangle_2224" data-name="Rectangle 2224" width="3.99" height="3.99" rx="1.995" transform="translate(145.519 55.933)" fill="#4891f2" stroke="#4891f2" stroke-miterlimit="10" stroke-width="0.5"/>
                <rect id="Rectangle_2225" data-name="Rectangle 2225" width="3.99" height="3.99" rx="1.995" transform="translate(194.003)" fill="#4891f2" stroke="#4891f2" stroke-miterlimit="10" stroke-width="0.5"/>
              </g>
            </g>
          </g>
        </g>
      </g>
      <path id="Path_1661" data-name="Path 1661" d="M.88,0H4.9V-.76H3.43V-7.34h-.7a4.416,4.416,0,0,1-1.52.53v.58h1.3V-.76H.88ZM8.33.13c1.39,0,2.28-1.27,2.28-3.82S9.72-7.47,8.33-7.47,6.04-6.24,6.04-3.69,6.93.13,8.33.13Zm0-.73c-.84,0-1.4-.93-1.4-3.09,0-2.14.56-3.05,1.4-3.05s1.39.91,1.39,3.05C9.72-1.53,9.16-.6,8.33-.6Zm5.41.73a2.134,2.134,0,0,0,2.35-2.09,1.886,1.886,0,0,0-1.55-1.86v-.04a1.83,1.83,0,0,0,1.3-1.77,1.883,1.883,0,0,0-2.13-1.84,2.935,2.935,0,0,0-2.05.88l.49.58a2.14,2.14,0,0,1,1.52-.71,1.125,1.125,0,0,1,1.24,1.16c0,.79-.52,1.4-2.03,1.4v.7c1.69,0,2.28.59,2.28,1.46A1.352,1.352,0,0,1,13.67-.63a2.423,2.423,0,0,1-1.82-.84l-.46.6A3.035,3.035,0,0,0,13.74.13Z" transform="translate(264.963 462.074)" fill="#d48773"/>
      <path id="Path_1660" data-name="Path 1660" d="M.88,0H4.9V-.76H3.43V-7.34h-.7a4.416,4.416,0,0,1-1.52.53v.58h1.3V-.76H.88ZM8.33.13c1.39,0,2.28-1.27,2.28-3.82S9.72-7.47,8.33-7.47,6.04-6.24,6.04-3.69,6.93.13,8.33.13Zm0-.73c-.84,0-1.4-.93-1.4-3.09,0-2.14.56-3.05,1.4-3.05s1.39.91,1.39,3.05C9.72-1.53,9.16-.6,8.33-.6Zm3.92-2.15,1.67-2.5c.21-.36.41-.72.59-1.08h.04c-.02.38-.05.97-.05,1.33v2.25ZM14.5,0h.86V-2.02h.97v-.73h-.97V-7.34H14.35L11.3-2.62v.6h3.2Z" transform="translate(313.418 462.074)" fill="#d48773"/>
      <path id="Path_1659" data-name="Path 1659" d="M.88,0H4.9V-.76H3.43V-7.34h-.7a4.416,4.416,0,0,1-1.52.53v.58h1.3V-.76H.88ZM8.33.13c1.39,0,2.28-1.27,2.28-3.82S9.72-7.47,8.33-7.47,6.04-6.24,6.04-3.69,6.93.13,8.33.13Zm0-.73c-.84,0-1.4-.93-1.4-3.09,0-2.14.56-3.05,1.4-3.05s1.39.91,1.39,3.05C9.72-1.53,9.16-.6,8.33-.6Zm5.38.73a2.38,2.38,0,0,0,2.4-2.52A2.092,2.092,0,0,0,13.9-4.72a2.132,2.132,0,0,0-1.09.29l.18-2.12h2.77v-.79H12.19L11.96-3.9l.49.3a2,2,0,0,1,1.22-.43,1.483,1.483,0,0,1,1.52,1.67A1.584,1.584,0,0,1,13.63-.63a2.411,2.411,0,0,1-1.8-.81l-.45.6A3.114,3.114,0,0,0,13.71.13Z" transform="translate(361.873 462.074)" fill="#d48773"/>
      <path id="Path_1658" data-name="Path 1658" d="M.88,0H4.9V-.76H3.43V-7.34h-.7a4.416,4.416,0,0,1-1.52.53v.58h1.3V-.76H.88ZM8.33.13c1.39,0,2.28-1.27,2.28-3.82S9.72-7.47,8.33-7.47,6.04-6.24,6.04-3.69,6.93.13,8.33.13Zm0-.73c-.84,0-1.4-.93-1.4-3.09,0-2.14.56-3.05,1.4-3.05s1.39.91,1.39,3.05C9.72-1.53,9.16-.6,8.33-.6Zm5.7-3.27c.89,0,1.33.63,1.33,1.62S14.81-.58,14.11-.58c-.92,0-1.47-.83-1.58-2.35A1.9,1.9,0,0,1,14.03-3.87Zm.08,4a2.2,2.2,0,0,0,2.1-2.38c0-1.53-.79-2.3-2.03-2.3a2.28,2.28,0,0,0-1.67.89c.04-2.28.89-3.05,1.89-3.05a1.55,1.55,0,0,1,1.18.56l.5-.57a2.252,2.252,0,0,0-1.71-.75c-1.42,0-2.71,1.1-2.71,3.97C11.66-1.08,12.7.13,14.11.13Z" transform="translate(410.328 462.074)" fill="#d48773"/>
      <path id="Path_1657" data-name="Path 1657" d="M.88,0H4.9V-.76H3.43V-7.34h-.7a4.416,4.416,0,0,1-1.52.53v.58h1.3V-.76H.88ZM8.33.13c1.39,0,2.28-1.27,2.28-3.82S9.72-7.47,8.33-7.47,6.04-6.24,6.04-3.69,6.93.13,8.33.13Zm0-.73c-.84,0-1.4-.93-1.4-3.09,0-2.14.56-3.05,1.4-3.05s1.39.91,1.39,3.05C9.72-1.53,9.16-.6,8.33-.6Zm4.75.6h.95c.11-2.87.43-4.58,2.15-6.78v-.56H11.59v.79h3.55A10.856,10.856,0,0,0,13.08,0Zm9.74-5.25a4.5,4.5,0,0,0-.72-.55,5.687,5.687,0,0,0,.58-.64l-.52-.17a3.571,3.571,0,0,1-.5.53c-.26-.14-.52-.29-.77-.4l-.37.33a7.351,7.351,0,0,1,.72.39,6.012,6.012,0,0,1-.95.55,2.58,2.58,0,0,1,.41.39,7.077,7.077,0,0,0,1-.65,5.453,5.453,0,0,1,.72.58Zm-.03-1.79c-.18-.14-.42-.3-.69-.47a5.136,5.136,0,0,0,.55-.61l-.52-.14a4.259,4.259,0,0,1-.47.49c-.26-.14-.51-.27-.75-.37l-.36.33a6.664,6.664,0,0,1,.7.36,6.027,6.027,0,0,1-.89.51,3.132,3.132,0,0,1,.42.36,6.948,6.948,0,0,0,.93-.6,4.949,4.949,0,0,1,.69.51Zm-4.65,2.8h7.03V-3h.73V-4.81h-.78c.08-.89.17-2.18.22-3.17H23.03v.51h1.59l-.03.54H23.08v.51h1.48l-.05.54H23.02v.51h1.45c-.02.2-.04.38-.06.56H18.93l-.04-.56h1.39v-.51H18.86l-.04-.54h1.42v-.51H18.79l-.04-.49a10.484,10.484,0,0,0,1.54-.39l-.33-.46a18.716,18.716,0,0,1-1.93.49l.2,2.97h-.8V-3h.71ZM26.1-1.81h-4v-.18a10.421,10.421,0,0,0,2.26-1.24l-.45-.37-.15.04h-4.7V-3h3.91a9.282,9.282,0,0,1-1.59.76v.43H17.21v.63h4.17V-.05c0,.14-.04.17-.21.18-.15,0-.71,0-1.33-.02a2.8,2.8,0,0,1,.26.63,5.984,5.984,0,0,0,1.61-.1c.31-.11.39-.28.39-.67V-1.18h4Zm3.44-.43V-4.22h2.24v1.98Zm6.61,0H32.53V-4.22h2.93v-.7H32.53V-6.44h3.16v-.72H29.73c.16-.34.32-.7.46-1.05l-.75-.18a8.462,8.462,0,0,1-2.25,3.45,4.6,4.6,0,0,1,.64.47,9.239,9.239,0,0,0,1.52-1.97h2.43v1.52H28.8v2.68H27.16v.72h4.62V.77h.75V-1.52h3.62Z" transform="translate(459.577 462.074)" fill="#d48773"/>
    </g>
    <g id="Group_1953" data-name="Group 1953" transform="translate(-9496 -12341.414)">
      <rect id="Rectangle_2063" data-name="Rectangle 2063" width="172" height="22" rx="11" transform="translate(659 1062.414)" fill="#3d3c3c"/>
      <path id="內文p" d="M7.88,5.43H5.32V4.64H7.88Zm0,1.31H5.32v-.8H7.88Zm-5.79-.8H4.6v.8H2.09Zm0-1.3H4.6v.79H2.09ZM8.62,4.1H1.37V7.28H8.62ZM3.04,9.59V8.75H4.6v.84Zm3.91-.84v.84H5.33V8.75Zm2.49,1.47V9.59H7.65V8.75H8.8V8.14H7.65V7.56h-.7v.58H5.33V7.51H4.6v.63H3.04V7.56H2.35v.58H1.06v.61H2.35v.84H.54v.63H4.6v.76H1.54v.62H4.6v1.15h.73V11.6H8.51v-.62H5.33v-.76Zm4.14.68a8.954,8.954,0,0,1-2.96.99,2.7,2.7,0,0,1,.45.56,9.289,9.289,0,0,0,3.07-1.29Zm2.42.35c.95.35,2.22.86,2.88,1.18l.46-.47c-.69-.32-1.96-.8-2.9-1.11Zm.59-5.22a7.823,7.823,0,0,1-.59.99l.35.11H13.59L14,7.02a4.022,4.022,0,0,0-.53-.99ZM15.35,9.77V9.02h3.13V8.45H15.35V7.73h3.62v-.6H16.68a11.005,11.005,0,0,0,.69-.92l-.65-.18h2.6V5.41H17.78c.26-.38.59-.93.87-1.44l-.76-.21a8.35,8.35,0,0,1-.77,1.52l.4.13H16.31V3.64H15.6V5.41H14.41V3.64h-.7V5.41H12.49l.5-.2a6.134,6.134,0,0,0-.85-1.47l-.63.22a7.883,7.883,0,0,1,.8,1.45H10.7v.62h2.58l-.53.14a4.271,4.271,0,0,1,.51.96H11.1v.6h3.52v.72H11.61v.57h3.01v.75H10.67v.63h3.95v2.37h.73V10.4h4.01V9.77ZM25.4,11.73V9.19h3.21V8.47H25.4V6.29h3.58V5.56H25.4V3.64h-.76V5.56H22.61a13.726,13.726,0,0,0,.56-1.6l-.75-.16a9.116,9.116,0,0,1-1.85,3.68,4.979,4.979,0,0,1,.68.44,8.972,8.972,0,0,0,1.04-1.63h2.35V8.47H21.67v.72h2.97v2.54H20.59v.72h8.86v-.72ZM38.19,7.94a6.492,6.492,0,0,0-.7-.87,6.655,6.655,0,0,0,.76-1.11l-.52-.08a5.7,5.7,0,0,1-.55.84c-.15-.15-.3-.3-.45-.44a5.8,5.8,0,0,0,.57-.86l-.51-.09a3.886,3.886,0,0,1-.41.62c-.17-.15-.35-.31-.53-.45l-.41.27a6.272,6.272,0,0,1,.62.56,5.208,5.208,0,0,1-.87.72,1.524,1.524,0,0,1,.34.33,5.745,5.745,0,0,0,.87-.72,6.047,6.047,0,0,1,.43.45,6.521,6.521,0,0,1-1.26,1.02,1.221,1.221,0,0,1,.33.35,6.731,6.731,0,0,0,1.25-1.03,9.527,9.527,0,0,1,.61.81Zm.2.65H35.05V5.2h3.34Zm.68-4.01H36.43c.14-.25.29-.56.43-.86l-.74-.15a9.492,9.492,0,0,1-.36,1.01H34.39V9.21h4.68ZM37.71,10.9a14.659,14.659,0,0,0-.96-1.53l-.49.23a17.6,17.6,0,0,1,.94,1.6ZM33.96,9.4a12.178,12.178,0,0,0-.63-1.92l-.53.15c.11.26.21.56.3.85l-1.54.26a19.027,19.027,0,0,0,2.17-3.3l-.62-.31a13.332,13.332,0,0,1-.71,1.35l-1.04.1a15.125,15.125,0,0,0,1.4-2.69l-.67-.27a12.71,12.71,0,0,1-1.18,2.52c-.18.3-.35.51-.51.55a6.6,6.6,0,0,1,.23.66,4.921,4.921,0,0,1,1.39-.25,10.936,10.936,0,0,1-.84,1.19c-.28.36-.51.62-.71.67a4.156,4.156,0,0,1,.22.65,10.786,10.786,0,0,1,2.58-.59,5.582,5.582,0,0,1,.13.57ZM31,10.02a9.338,9.338,0,0,1-.56,2.3,2.635,2.635,0,0,1,.54.2,12.426,12.426,0,0,0,.58-2.4Zm.91.1a17.33,17.33,0,0,1,.25,2.12l.56-.12c-.04-.58-.16-1.44-.28-2.12Zm.92-.19c.16.55.35,1.26.43,1.73l.51-.16a11.071,11.071,0,0,0-.44-1.71Zm1.41,2.32a9.631,9.631,0,0,0,.67-2.13l-.53-.19a8.591,8.591,0,0,1-.68,2.06Zm1.94-.29c-.38,0-.44-.04-.44-.27V9.93H35.1V11.7c0,.65.21.82,1.02.82h1.44c.66,0,.84-.27.91-1.36a1.758,1.758,0,0,1-.56-.24c-.04.92-.1,1.04-.41,1.04Zm2.01-1.86a18.41,18.41,0,0,1,.85,1.98l.56-.26c-.19-.51-.56-1.31-.88-1.94Zm6.39-6.43c-.03,1.52.03,6.38-4.12,8.48a2.219,2.219,0,0,1,.6.58,8.01,8.01,0,0,0,3.96-5.54,7.986,7.986,0,0,0,4.05,5.5,2.268,2.268,0,0,1,.54-.63c-3.53-1.57-4.13-5.75-4.28-6.94.05-.59.06-1.09.07-1.45Zm10.45,8.39c-.32-.17-.75-.38-1.21-.58a2.162,2.162,0,0,0,.75-1.24h1.06V9.7h-1V9.3h-.61v.4H52.76c.11-.22.22-.43.32-.64h2.26V8.13c.15.13.36.31.45.41a7.174,7.174,0,0,0,.55-1.11,14.21,14.21,0,0,0,.74,2.64,4.959,4.959,0,0,1-2.07,2.01Zm-1.09-1.82a1.921,1.921,0,0,1-.75.99c-.37-.15-.75-.28-1.11-.39.12-.19.24-.39.37-.6ZM51.56,7.92H52.8v.66H51.56Zm3.12,0v.66H53.39V7.92Zm3.46-1.65a11.741,11.741,0,0,1-.69,3.05,13.651,13.651,0,0,1-.73-2.93l.05-.12Zm-6.4.22V5.85H52.8v.64ZM52.8,4.8v.55H51.74V4.8Zm1.73,0v.55H53.39V4.8ZM53.39,6.49V5.85h1.14v.64Zm6.17-.22V5.6H56.97c.16-.6.31-1.23.43-1.84l-.65-.13a13.245,13.245,0,0,1-1.41,4.35V7.45H53.39V7.01h1.75V5.88h.57V5.32h-.57V4.28H53.39V3.63H52.8v.65H51.16V5.32h-.69v.56h.69V7.01H52.8v.44H50.92V9.06H52.4c-.1.21-.2.42-.32.64h-1.6v.54h1.29c-.21.32-.42.64-.61.88a13.864,13.864,0,0,1,1.42.47,9.317,9.317,0,0,1-2.18.67,1.7,1.7,0,0,1,.32.5,8.9,8.9,0,0,0,2.55-.88,10.3,10.3,0,0,1,1.28.62l.24-.22a3.171,3.171,0,0,1,.34.5,5.916,5.916,0,0,0,2.28-2.02,5.065,5.065,0,0,0,1.75,1.96,2.685,2.685,0,0,1,.48-.57,4.582,4.582,0,0,1-1.85-2.05A11.659,11.659,0,0,0,58.8,6.27Z" transform="translate(682 1065.414)" fill="#aca4a4"/>
      <path id="內文p-2" data-name="內文p" d="M8.19,7.94a6.491,6.491,0,0,0-.7-.87,6.655,6.655,0,0,0,.76-1.11l-.52-.08a5.7,5.7,0,0,1-.55.84c-.15-.15-.3-.3-.45-.44a5.8,5.8,0,0,0,.57-.86l-.51-.09a3.886,3.886,0,0,1-.41.62c-.17-.15-.35-.31-.53-.45l-.41.27a6.272,6.272,0,0,1,.62.56,5.208,5.208,0,0,1-.87.72,1.524,1.524,0,0,1,.34.33,5.745,5.745,0,0,0,.87-.72,6.047,6.047,0,0,1,.43.45A6.521,6.521,0,0,1,5.57,8.13a1.221,1.221,0,0,1,.33.35A6.731,6.731,0,0,0,7.15,7.45a9.526,9.526,0,0,1,.61.81Zm.2.65H5.05V5.2H8.39Zm.68-4.01H6.43c.14-.25.29-.56.43-.86l-.74-.15a9.492,9.492,0,0,1-.36,1.01H4.39V9.21H9.07ZM7.71,10.9a14.659,14.659,0,0,0-.96-1.53l-.49.23a17.6,17.6,0,0,1,.94,1.6ZM3.96,9.4a12.178,12.178,0,0,0-.63-1.92l-.53.15c.11.26.21.56.3.85l-1.54.26a19.027,19.027,0,0,0,2.17-3.3l-.62-.31A13.332,13.332,0,0,1,2.4,6.48l-1.04.1a15.125,15.125,0,0,0,1.4-2.69l-.67-.27A12.71,12.71,0,0,1,.91,6.14c-.18.3-.35.51-.51.55a6.6,6.6,0,0,1,.23.66A4.921,4.921,0,0,1,2.02,7.1a10.936,10.936,0,0,1-.84,1.19c-.28.36-.51.62-.71.67a4.156,4.156,0,0,1,.22.65,10.786,10.786,0,0,1,2.58-.59,5.582,5.582,0,0,1,.13.57ZM1,10.02a9.338,9.338,0,0,1-.56,2.3,2.635,2.635,0,0,1,.54.2,12.426,12.426,0,0,0,.58-2.4Zm.91.1a17.33,17.33,0,0,1,.25,2.12l.56-.12c-.04-.58-.16-1.44-.28-2.12Zm.92-.19c.16.55.35,1.26.43,1.73l.51-.16a11.071,11.071,0,0,0-.44-1.71Zm1.41,2.32a9.631,9.631,0,0,0,.67-2.13l-.53-.19a8.591,8.591,0,0,1-.68,2.06Zm1.94-.29c-.38,0-.44-.04-.44-.27V9.93H5.1V11.7c0,.65.21.82,1.02.82H7.56c.66,0,.84-.27.91-1.36a1.758,1.758,0,0,1-.56-.24c-.04.92-.1,1.04-.41,1.04ZM8.19,10.1a18.41,18.41,0,0,1,.85,1.98l.56-.26c-.19-.51-.56-1.31-.88-1.94Zm9.93-1.5v2.85H15.38V7.97h3.15V4.54h-.8v2.7H15.38V3.64h-.8v3.6H12.29V4.55h-.77V7.97h3.06v3.48h-2.7V8.6h-.8v3.58h7.04v.57h.8V8.6Zm9.55-3.02a4.263,4.263,0,0,0-1.08-.68l-.35.37a4.047,4.047,0,0,1,1.07.7ZM25,9.62c-1.12.2-2.23.4-2.99.52l.1.56c.82-.15,1.88-.36,2.92-.56Zm-.87-.88H22.98v-1h1.15ZM22.46,7.27V9.21h2.21V7.27ZM26.9,7.1a6.88,6.88,0,0,1-.74,1.84,14.573,14.573,0,0,1-.37-2.3h2.13V6.08H25.74c-.02-.35-.04-.7-.06-1.06h-.64c.02.36.05.71.08,1.06H22.11v.56h3.06a13.851,13.851,0,0,0,.55,2.96,5.4,5.4,0,0,1-1.51,1.3,3.839,3.839,0,0,1,.44.47,6.271,6.271,0,0,0,1.32-1.15,1.632,1.632,0,0,0,1.04.97c.52.2.86-.2.99-1.29a1.871,1.871,0,0,1-.48-.33c-.07.64-.17,1.07-.31,1.03-.33-.05-.6-.39-.81-.92a7.761,7.761,0,0,0,1.11-2.45Zm-5.34,4.56V4.77h6.86v6.89Zm-.71-7.57v8.7h.71v-.46h6.86v.46h.73V4.09Zm13.73-.42c-.03,1.52.03,6.38-4.12,8.48a2.219,2.219,0,0,1,.6.58,8.01,8.01,0,0,0,3.96-5.54,7.986,7.986,0,0,0,4.05,5.5,2.268,2.268,0,0,1,.54-.63c-3.53-1.57-4.13-5.75-4.28-6.94.05-.59.06-1.09.07-1.45Zm10.45,8.39c-.32-.17-.75-.38-1.21-.58a2.162,2.162,0,0,0,.75-1.24h1.06V9.7h-1V9.3h-.61v.4H42.76c.11-.22.22-.43.32-.64h2.26V8.13c.15.13.36.31.45.41a7.174,7.174,0,0,0,.55-1.11,14.21,14.21,0,0,0,.74,2.64,4.959,4.959,0,0,1-2.07,2.01Zm-1.09-1.82a1.921,1.921,0,0,1-.75.99c-.37-.15-.75-.28-1.11-.39.12-.19.24-.39.37-.6ZM41.56,7.92H42.8v.66H41.56Zm3.12,0v.66H43.39V7.92Zm3.46-1.65a11.741,11.741,0,0,1-.69,3.05,13.651,13.651,0,0,1-.73-2.93l.05-.12Zm-6.4.22V5.85H42.8v.64ZM42.8,4.8v.55H41.74V4.8Zm1.73,0v.55H43.39V4.8ZM43.39,6.49V5.85h1.14v.64Zm6.17-.22V5.6H46.97c.16-.6.31-1.23.43-1.84l-.65-.13a13.245,13.245,0,0,1-1.41,4.35V7.45H43.39V7.01h1.75V5.88h.57V5.32h-.57V4.28H43.39V3.63H42.8v.65H41.16V5.32h-.69v.56h.69V7.01H42.8v.44H40.92V9.06H42.4c-.1.21-.2.42-.32.64h-1.6v.54h1.29c-.21.32-.42.64-.61.88a13.864,13.864,0,0,1,1.42.47,9.317,9.317,0,0,1-2.18.67,1.7,1.7,0,0,1,.32.5,8.9,8.9,0,0,0,2.55-.88,10.3,10.3,0,0,1,1.28.62l.24-.22a3.171,3.171,0,0,1,.34.5,5.916,5.916,0,0,0,2.28-2.02,5.065,5.065,0,0,0,1.75,1.96,2.685,2.685,0,0,1,.48-.57,4.582,4.582,0,0,1-1.85-2.05A11.659,11.659,0,0,0,48.8,6.27Z" transform="translate(770 1065.414)" fill="#aca4a4"/>
      <rect id="Rectangle_2136" data-name="Rectangle 2136" width="10" height="9" rx="2" transform="translate(669 1069.414)" fill="#fff"/>
      <rect id="Rectangle_2137" data-name="Rectangle 2137" width="15" height="3" rx="1.5" transform="translate(753 1072.414)" fill="#4891f2"/>
    </g>
  </g>
</svg>
