<svg xmlns="http://www.w3.org/2000/svg" width="338.925" height="332.402" viewBox="0 0 338.925 332.402">
  <g id="data5" transform="translate(8213.925 14315)">
    <path id="Path_1557" data-name="Path 1557" d="M2,0H184a2,2,0,0,1,2,2V25a2,2,0,0,1-2,2H2a2,2,0,0,1-2-2V2A2,2,0,0,1,2,0Z" transform="translate(-8146 -14315)" fill="#eeeeef"/>
    <path id="內文p" d="M15.2,14.36V12.44H8.832a15.587,15.587,0,0,0,.1-1.92V9.912H13.84V7.976H8.928V5.448h-2V7.976H4.7c.224-.624.432-1.264.608-1.92L3.3,5.624A12.383,12.383,0,0,1,.7,10.968,13.8,13.8,0,0,1,2.56,11.992a11.937,11.937,0,0,0,1.3-2.08H6.928v.608A13.047,13.047,0,0,1,6.8,12.44H.816v1.92h5.44C5.488,16.12,3.872,17.7.512,18.7A7.377,7.377,0,0,1,1.728,20.36c3.616-1.1,5.44-2.912,6.336-4.944a9.273,9.273,0,0,0,6.352,4.976,7.135,7.135,0,0,1,1.28-1.808A8.207,8.207,0,0,1,9.632,14.36Zm3.168,2.064a7.1,7.1,0,0,1-2,2.928,10.732,10.732,0,0,1,1.52,1.072,10.237,10.237,0,0,0,2.288-3.552Zm9.952-6.336a16.491,16.491,0,0,1-1.008,3.92,19.029,19.029,0,0,1-1.2-3.92ZM21.472,9.016H19.2V7.576h2.272Zm0,2.88H19.2V10.44h2.272Zm0,2.9H19.2V13.32h2.272Zm10-4.7V8.3H26.688A24.618,24.618,0,0,0,27.3,5.752l-1.984-.3a15.441,15.441,0,0,1-1.984,5.728v-5.1h-5.92V16.3h5.92V12.808c.32.256.624.528.8.688a9.048,9.048,0,0,0,.72-.976,17.722,17.722,0,0,0,1.328,3.5,8.286,8.286,0,0,1-2.7,2.3,13.226,13.226,0,0,0-1.408-1.936l-1.536.672a12.678,12.678,0,0,1,1.648,2.656l1.024-.528a8.824,8.824,0,0,1,.7,1.232A10.565,10.565,0,0,0,27.28,17.8a9.309,9.309,0,0,0,3.088,2.576A7.329,7.329,0,0,1,31.7,18.664,7.95,7.95,0,0,1,28.48,16.04a18.484,18.484,0,0,0,1.856-5.952Zm4.8-1.968v2.816H34.8V8.12ZM34.8,15.608V12.6h1.472v3.008Zm3.248-9.184H33.04V18.712H34.8V17.3h3.248Zm.928,9.536a22.562,22.562,0,0,1,1.84,2.688l1.664-.976a20.5,20.5,0,0,0-1.92-2.56Zm8.432-7.136V7.16h-3.6V5.448H41.936V7.16h-3.6V8.824h3.6v1.52H38.848v1.648h5.1V13.24h-5.6v1.648h5.6v3.44c0,.224-.08.288-.336.288-.24,0-1.12,0-1.888-.032a6.928,6.928,0,0,1,.592,1.792,7.035,7.035,0,0,0,2.672-.32c.64-.288.816-.768.816-1.68V14.888h1.536V13.24H45.808V11.992h1.168V10.344H43.808V8.824Zm13.664,9.344v.672H57.68v-.672Zm-5.056,2.208H57.68v-.544h3.392v.544h1.744V17.208h-6.8Zm.16-3.68h6.512V15.72H56.176Zm6.512-2.464H56.176v.992h6.512ZM58.64,7.7a7.838,7.838,0,0,1-.336.736H55.968c.16-.24.336-.48.48-.736ZM55.6,9.752h1.776c-.144.7-.544,1.088-1.776,1.3Zm4.592,2.9c-.144-.4-.352-.9-.528-1.264l-1.472.416c.1.256.224.56.32.848H55.584c.016-.3.016-.608.016-.88v-.352a3.415,3.415,0,0,1,.464.832c2.128-.352,2.736-1.136,2.9-2.5h.928v.624c0,1.008.192,1.568,1.344,1.568h1.1a3.232,3.232,0,0,0,.944-.1c-.064-.384-.08-.72-.112-1.1a3.865,3.865,0,0,1-.864.1h-.592c-.256,0-.272-.144-.272-.448v-.64h1.728V8.44H60.112a13.465,13.465,0,0,0,.72-1.3l-1.184-.768-.256.064h-2.24c.112-.24.224-.5.336-.736l-1.712-.272a10.176,10.176,0,0,1-2.288,3.424V8.472H52.064V5.464H50.32V8.472H48.64v1.76h1.68v2.752c-.736.192-1.376.336-1.936.464l.416,1.824,1.52-.448v3.552c0,.208-.08.272-.272.272a12.618,12.618,0,0,1-1.312-.016,7.078,7.078,0,0,1,.48,1.76,4.086,4.086,0,0,0,2.208-.352c.48-.3.64-.784.64-1.664V14.328c.5-.144,1.008-.3,1.5-.464l-.224-1.712-1.28.352V10.232h1.3a4.15,4.15,0,0,1,.448.528l.16-.128v1.152c0,2.208-.128,5.44-1.424,7.728a5.837,5.837,0,0,1,1.424.864,16.3,16.3,0,0,0,1.584-6.768v.144h7.792v-1.1Zm8.672-1.472H75.12v.48H68.864ZM75.12,8.664v.464H68.864V8.664Zm0,1.712H68.864V9.928H75.12ZM66.512,12.76h5.072l-.528.352a5.728,5.728,0,0,1,1.456,1.072l.992-.7a4.02,4.02,0,0,0-.944-.72h4.832v1.28h1.7V11.656H77.04V7.784H72.592a2.709,2.709,0,0,0,.208-.5h6.176V5.944H64.992V7.288H70.8c-.032.16-.08.336-.128.5H67.04v3.872H64.88V14.04h1.632Zm8.416.672a11.215,11.215,0,0,1,1.52,2.048l1.392-.624a12.407,12.407,0,0,0-1.616-1.984ZM67.184,15.72a7.151,7.151,0,0,0,1.68-2.016l-1.248-.64a5.751,5.751,0,0,1-1.648,1.76Zm2.512,1.2h4.4a7.389,7.389,0,0,1-2.048.992A12.56,12.56,0,0,1,69.6,17Zm6.032-1.168-.352.08h-4.3a3.948,3.948,0,0,0,.448-.448h2.032c1.1,0,1.5-.32,1.632-1.5a4.534,4.534,0,0,1-1.216-.416c-.048.72-.16.848-.608.848H71.376c-.608,0-.72-.048-.72-.4v-.944h-1.5v.944c0,.624.112.992.48,1.2a9.955,9.955,0,0,1-1.376,1.04c-.192-.16-.352-.3-.512-.464L66.4,16.28c.176.176.352.368.528.528a12.463,12.463,0,0,1-1.664.64,4.33,4.33,0,0,1,1.1,1.184c.672-.272,1.312-.544,1.9-.832a13.561,13.561,0,0,0,1.36.72,34.168,34.168,0,0,1-5.136.432,6.445,6.445,0,0,1,.624,1.456,30.942,30.942,0,0,0,6.992-.992,31.849,31.849,0,0,0,6.432.944,7.2,7.2,0,0,1,.864-1.424,38.377,38.377,0,0,1-4.944-.48,7.129,7.129,0,0,0,2.384-2.016ZM83.1,7.864h3.008v2.192H83.1Zm1.632,5.2c.032-.432.064-.88.1-1.312h3.12V6.184H81.376v5.568h1.6c-.128,2.656-.448,5.536-2.544,7.264A5,5,0,0,1,81.7,20.408a9.077,9.077,0,0,0,2.816-5.68h1.776c-.112,2.528-.256,3.552-.5,3.824a.576.576,0,0,1-.528.208,12.891,12.891,0,0,1-1.568-.08,3.9,3.9,0,0,1,.48,1.648,11.806,11.806,0,0,0,1.936-.048,1.674,1.674,0,0,0,1.2-.592c.448-.544.608-2.08.768-5.936,0-.224.016-.688.016-.688Zm6.272-5.68H89.152v9.008h1.856Zm1.9-1.616v12.32c0,.288-.128.384-.432.384-.336,0-1.36,0-2.4-.032a6.953,6.953,0,0,1,.656,1.968,8.5,8.5,0,0,0,3.184-.368c.656-.3.88-.832.88-1.952V5.768Zm9.84-.3c-.064,2.7.24,9.872-6.256,13.344A6.106,6.106,0,0,1,98.08,20.36a13.034,13.034,0,0,0,5.888-7.664,12.382,12.382,0,0,0,6.256,7.568,5.075,5.075,0,0,1,1.392-1.648c-5.584-2.464-6.56-8.5-6.784-10.656.064-.96.1-1.824.112-2.5Zm15.392,3.2v6.1h1.024l-.56.544A30.849,30.849,0,0,1,121.2,17.56l1.248-1.328c-.528-.512-1.584-1.3-2.384-1.9v-.752h6.352V12.024h-6.352v-.96h5.92V9.576h-5.92V8.664H126.9V7.032h-9.328c.144-.384.288-.784.416-1.168l-1.936-.448a10.986,10.986,0,0,1-3.28,5.312,10.867,10.867,0,0,1,1.568,1.328,13.1,13.1,0,0,0,2.48-3.392ZM114.48,19.8a33.087,33.087,0,0,0,1.3-3.92l-1.68-.672a18.591,18.591,0,0,1-1.408,3.776Zm13.088-.656c-.384-1.088-1.216-2.8-1.856-4.112l-1.792.5c.272.64.592,1.376.9,2.1a5.391,5.391,0,0,1-1.712-.672c-.08,1.3-.224,1.5-.992,1.5h-2.864c-.96,0-1.136-.08-1.136-.56v-2.48h-1.888v2.512c0,1.68.576,2.224,2.864,2.224h3.168c1.744,0,2.336-.512,2.576-2.5.32.784.608,1.552.784,2.1Zm14.944-5.92c-.192,0-.208-.1-.208-.352V11.256h-1.072v1.6c0,.8.144,1.168.976,1.168h.56a2.52,2.52,0,0,0,.656-.064c-.032-.256-.048-.56-.064-.8a2.756,2.756,0,0,1-.624.064Zm-1.7.928V10.776h2.272V9.352h-2.272V8.616h-1.424v.736h-1.92v1.424h1.92v3.376ZM143.2,8.28V6.632h-5.456a12.578,12.578,0,0,0-.432-1.312l-1.92.352c.08.272.176.624.256.96h-6v4.4c0,2.384-.08,5.808-1.12,8.192a7.154,7.154,0,0,1,1.52,1.12c1.184-2.592,1.408-6.7,1.408-9.312V8.28Zm-8.08,5.84V10.776h1.936V9.352H135.12V8.616H133.7v.736h-1.744v1.424H133.7V14.12Zm-1.856-2.848h-1.04V11.9a2.164,2.164,0,0,1-.7,1.792,4.09,4.09,0,0,1,.912.736,3.286,3.286,0,0,0,.832-2.48Zm5.936,5.712c.272.336.592.72.912,1.088l-4.5.3a33.015,33.015,0,0,0,5.152-3.056l-1.408-.944a20.32,20.32,0,0,1-2.128,1.5l-2.384.112a19.683,19.683,0,0,0,2.528-1.584l-.976-.624h.3a1.858,1.858,0,0,0,.56-.064l-.016-.16a3.535,3.535,0,0,1,.832.688,2.985,2.985,0,0,0,.848-2.352V11.24h-1.04v.608a2.014,2.014,0,0,1-.64,1.616c-.016-.176-.016-.336-.032-.5a1.911,1.911,0,0,1-.512.048c-.16,0-.176-.08-.176-.32v-1.36H135.52V12.68c0,.56.08.88.432,1.024a14.29,14.29,0,0,1-2.688,1.792,3.053,3.053,0,0,1-1.04.4,12.225,12.225,0,0,1,.432,1.408,11.343,11.343,0,0,1,2.7-.3,17.132,17.132,0,0,1-1.808.912,6.146,6.146,0,0,1-1.9.7,14.908,14.908,0,0,1,.448,1.52c.592-.192,1.472-.208,9.008-.752.224.3.432.592.592.832l1.456-.768c-.608-.816-1.76-2.16-2.592-3.1Zm16.48-2.368h-5.792v-.688h5.792Zm-5.792,3.808v-.736h5.792v.736Zm5.792-1.92h-5.792v-.7h5.792Zm3.424-4.672v-1.5h-7.92c.1-.224.192-.464.272-.688h6.784V8.2h-6.272c.08-.256.16-.512.224-.768a53.941,53.941,0,0,0,5.984-.576l-1.12-1.36a81.029,81.029,0,0,1-11.216.64,4.891,4.891,0,0,1,.352,1.424c1.248.016,2.576,0,3.9-.048-.048.24-.112.464-.176.688h-3.9V9.64h3.392c-.1.224-.192.464-.3.688H144.9v1.5H148.3a10.662,10.662,0,0,1-3.9,3.728,11.028,11.028,0,0,1,1.2,1.536,12.245,12.245,0,0,0,2.464-1.92V20.44h1.824v-.576h5.792v.576h1.92V12.488h-7.488c.128-.224.256-.432.368-.656ZM175.056,8.44A13.806,13.806,0,0,0,172.688,5.9l-1.44.976a12.69,12.69,0,0,1,2.272,2.64Zm-2.048,3.872a13.3,13.3,0,0,1-1.52,2.176c-.176-.816-.336-1.744-.464-2.7h4.16V9.976h-4.352a39.425,39.425,0,0,1-.16-4.384h-2c.016,1.456.064,2.944.192,4.384h-3.072V7.816c.928-.192,1.808-.4,2.608-.64L167.12,5.56A40.629,40.629,0,0,1,160.768,6.9a7.265,7.265,0,0,1,.544,1.6c.816-.1,1.7-.208,2.56-.352V9.976h-3.024v1.808h3.024v2.144c-1.264.224-2.416.4-3.328.544l.464,1.92c.848-.16,1.84-.368,2.864-.576v2.32c0,.256-.1.336-.384.336-.288.016-1.216.032-2.112-.016a7.642,7.642,0,0,1,.672,1.92,6.877,6.877,0,0,0,2.88-.368c.64-.3.864-.816.864-1.856V15.416l2.608-.528-.144-1.728c-.816.144-1.648.3-2.464.448V11.784h3.248a29.652,29.652,0,0,0,.816,4.288,16.3,16.3,0,0,1-3.568,2.256,8.341,8.341,0,0,1,1.264,1.536,16.6,16.6,0,0,0,2.96-1.952c.688,1.568,1.584,2.528,2.752,2.528,1.456,0,2.048-.7,2.352-3.5a4.865,4.865,0,0,1-1.568-1.088c-.08,1.888-.272,2.656-.608,2.656-.48,0-.976-.736-1.408-1.968a15.807,15.807,0,0,0,2.656-3.5Z" transform="translate(-8141 -14315)" fill="#303236"/>
    <path id="Path_1555" data-name="Path 1555" d="M2,0H260.8a2,2,0,0,1,2,2V18a2,2,0,0,1-2,2H2a2,2,0,0,1-2-2V2A2,2,0,0,1,2,0Z" transform="translate(-8213.925 -14276)" fill="#4d505a"/>
    <path id="內文p-2" data-name="內文p" d="M11.344,15.176v2.56H4.56v-2.56Zm-8.736,5.2H4.56V19.56h6.784v.8h2.048V13.352H2.608Zm6.7-12.464C9.9,8.5,10.544,9.176,11.168,9.88l-6.56.208A26.3,26.3,0,0,0,8.1,6.008l-1.92-.816A21.349,21.349,0,0,1,2.784,9.544a3.3,3.3,0,0,1-1.328.928A14.567,14.567,0,0,1,2.08,12.3c.848-.288,1.984-.32,10.48-.736a14,14,0,0,1,.832,1.216l1.616-1.168A29.081,29.081,0,0,0,10.8,6.92Zm22.08,2.752a9.864,9.864,0,0,0-.72-1.712l-.784.288c.064.128.128.272.192.416l-.9.1A14.542,14.542,0,0,0,30.88,7.4L29.9,6.968c-.112.24-.24.48-.368.72L28.8,7.72a10.685,10.685,0,0,0,1.008-1.744l-1.024-.384a7.138,7.138,0,0,1-.976,2.048c-.176.24-.32.4-.512.432a5.14,5.14,0,0,1,.352.768,6.091,6.091,0,0,1,1.264-.192,10.039,10.039,0,0,1-.8.992,1.338,1.338,0,0,1-.752.56,3.412,3.412,0,0,1,.368.784,10.848,10.848,0,0,1,2.7-.5c.064.192.128.368.16.512Zm-1.5,2.672a8.746,8.746,0,0,0-.352-1.936l-.816.224a9.921,9.921,0,0,1,.32,2ZM27.68,11.32a5.2,5.2,0,0,1-.528,1.808,4.747,4.747,0,0,1,.768.56,6.8,6.8,0,0,0,.656-2.128Zm-.288-4.288H25.776l.64-.16A10.28,10.28,0,0,0,25.84,5.64L24.592,5.9a7.79,7.79,0,0,1,.48,1.136h-1.5v.992h3.824Zm-.32,2.64h-3.04v.864h3.04ZM25.12,11.816h.8v.7h-.8Zm-1.1,1.536h3.056V10.968H24.016ZM27.072,8.44h-3.04V9.3h3.04ZM23.84,10.632a10.843,10.843,0,0,0-.7-1.68l-.8.288c.064.128.144.272.208.416l-.912.1a13.633,13.633,0,0,0,1.712-2.336l-.976-.464a7.865,7.865,0,0,1-.384.72l-.72.032a8.271,8.271,0,0,0,.992-1.744l-1.024-.368a7.966,7.966,0,0,1-.96,2.048.838.838,0,0,1-.528.432,4.189,4.189,0,0,1,.384.752,4.247,4.247,0,0,1,1.248-.208,8.17,8.17,0,0,1-.8,1.024c-.288.3-.5.512-.752.544a5.5,5.5,0,0,1,.368.784,13.086,13.086,0,0,1,2.688-.5,5.1,5.1,0,0,1,.144.5Zm-.16,2.112A7.127,7.127,0,0,0,23.2,11.1l-.736.288A6.889,6.889,0,0,1,22.9,13.1Zm-1.312.448a7.145,7.145,0,0,0-.336-1.792l-.816.208a8.588,8.588,0,0,1,.3,1.856ZM20.16,7.256A11.586,11.586,0,0,0,17.84,5.64L16.752,6.92a10.706,10.706,0,0,1,2.24,1.76Zm-.32,4.08a10.684,10.684,0,0,0-2.384-1.5l-1.04,1.328a11.381,11.381,0,0,1,2.3,1.632ZM18.48,20.2c.624-1.552,1.28-3.392,1.792-5.1l-1.5-.96a48.82,48.82,0,0,1-1.984,5.12Zm1.648-8.8a5.408,5.408,0,0,1-.528,1.808,5.377,5.377,0,0,1,.784.56,7.364,7.364,0,0,0,.656-2.144Zm2.72,5.552.128-.512h7.088V13.8H20.992v1.056H28.3v.512H21.472a27.066,27.066,0,0,1-.72,2.736h8.1a1.612,1.612,0,0,1-.464.832,1.145,1.145,0,0,1-.688.128c-.384,0-1.456-.016-2.4-.112a3.217,3.217,0,0,1,.512,1.392c.992.032,1.952.048,2.48.032a2.518,2.518,0,0,0,1.488-.416,3.992,3.992,0,0,0,.976-2.336,4.277,4.277,0,0,0,.1-.672Zm7.136-5.568a8.846,8.846,0,0,1,.544,2.016l.8-.368a9.206,9.206,0,0,0-.576-1.936Zm6.72,7.84c2.4,0,3.984-1.376,3.984-3.168A3.444,3.444,0,0,0,38.7,12.888v-.08a3.449,3.449,0,0,0,1.52-2.7,3.107,3.107,0,0,0-3.44-3.152c-2.064,0-3.568,1.216-3.568,3.12a3.373,3.373,0,0,0,1.568,2.816v.08a3.445,3.445,0,0,0-2.032,3.088C32.752,17.912,34.448,19.224,36.7,19.224Zm.752-6.992c-1.248-.5-2.16-1.04-2.16-2.16A1.377,1.377,0,0,1,36.736,8.6,1.508,1.508,0,0,1,38.3,10.248,2.836,2.836,0,0,1,37.456,12.232Zm-.688,5.328a1.815,1.815,0,0,1-1.984-1.76,2.847,2.847,0,0,1,1.088-2.192c1.536.624,2.624,1.136,2.624,2.368A1.552,1.552,0,0,1,36.768,17.56ZM45.9,12.936c-1.024,0-1.68-.656-1.68-2.048,0-1.456.72-2.176,1.6-2.176,1.008,0,1.824.8,2.032,2.96A2.363,2.363,0,0,1,45.9,12.936ZM42.256,17.88A4.441,4.441,0,0,0,45.5,19.224c2.352,0,4.544-1.936,4.544-6.416,0-4.112-2.016-5.872-4.256-5.872a3.711,3.711,0,0,0-3.728,3.952c0,2.512,1.424,3.728,3.392,3.728a3.292,3.292,0,0,0,2.432-1.3c-.1,2.976-1.2,3.984-2.528,3.984a2.716,2.716,0,0,1-1.872-.832ZM54.24,14.44c1.7,0,2.9-1.392,2.9-3.776,0-2.368-1.2-3.728-2.9-3.728s-2.88,1.36-2.88,3.728C51.36,13.048,52.544,14.44,54.24,14.44Zm0-1.328c-.688,0-1.216-.7-1.216-2.448s.528-2.4,1.216-2.4,1.232.656,1.232,2.4S54.928,13.112,54.24,13.112Zm.4,6.112h1.376L62.464,6.936H61.072Zm8.208,0c1.68,0,2.9-1.408,2.9-3.776,0-2.384-1.216-3.744-2.9-3.744s-2.88,1.36-2.88,3.744C59.968,17.816,61.168,19.224,62.848,19.224Zm0-1.344c-.688,0-1.232-.688-1.232-2.432s.544-2.416,1.232-2.416,1.232.672,1.232,2.416S63.536,17.88,62.848,17.88Z" transform="translate(-7948 -14279)" fill="#4891f2"/>
    <path id="內文p-3" data-name="內文p" d="M6.16,19.224c3.136,0,5.3-2.352,5.3-6.192s-2.16-6.1-5.3-6.1-5.3,2.24-5.3,6.1C.864,16.872,3.024,19.224,6.16,19.224Zm0-2.048c-1.76,0-2.88-1.616-2.88-4.144,0-2.544,1.12-4.064,2.88-4.064s2.88,1.52,2.88,4.064C9.04,15.56,7.92,17.176,6.16,17.176ZM13.776,19h7.44V17.016H16.144V13.848H20.3V11.864h-4.16V9.128h4.9V7.16H13.776Zm14.672.224a4.792,4.792,0,0,0,3.776-1.744l-1.248-1.472a3.292,3.292,0,0,1-2.448,1.168c-1.872,0-3.088-1.552-3.088-4.128,0-2.544,1.344-4.08,3.136-4.08a3.053,3.053,0,0,1,2.176.992L32,8.456a4.83,4.83,0,0,0-3.472-1.52c-2.992,0-5.5,2.288-5.5,6.192C23.024,17.08,25.456,19.224,28.448,19.224ZM34.128,19H37.5c3.488,0,5.728-1.984,5.728-5.968,0-4-2.24-5.872-5.856-5.872H34.128ZM36.5,17.1V9.048h.736c2.208,0,3.584,1.088,3.584,3.984,0,2.88-1.376,4.064-3.584,4.064Zm22.88-3.92H53.088V8.328h5.36V6.44H45.712V8.328H51.1v4.848H44.88v1.936H51.1v5.28h1.984v-5.28h6.288ZM46.688,9.352a16.046,16.046,0,0,1,1.168,3.328l1.856-.576a14.6,14.6,0,0,0-1.28-3.264Zm9.344,3.3A31.305,31.305,0,0,0,57.792,9.3L55.76,8.792a18.959,18.959,0,0,1-1.392,3.376Zm8.256,1.808v-3.52h1.52V9.128h-1.52V5.656H62.512V9.128h-1.68v1.808h1.68v4.272c-.768.288-1.44.56-2,.752l.768,1.92c1.44-.672,3.216-1.52,4.88-2.352l-.448-1.664Zm3.344,1.856h4.88V14.68h-4.88Zm.784-4.72v1.632H72.16V11.592Zm6.928-3.744H69.616c.256-.656.48-1.3.672-1.968l-1.76-.432A15.109,15.109,0,0,1,65.84,11a11.15,11.15,0,0,1,1.584,1.008,14.791,14.791,0,0,0,1.44-2.432H73.52c-.144,5.712-.3,8.272-.8,8.784a.793.793,0,0,1-.688.256c-.464,0-1.456,0-2.592-.1a4.4,4.4,0,0,1,.656,1.856,19.86,19.86,0,0,0,2.64-.032,2.117,2.117,0,0,0,1.616-.928c.64-.88.816-3.392.992-10.656Zm5.168,11.376a4,4,0,0,0,4.144-4.16,3.438,3.438,0,0,0-3.648-3.76,3.062,3.062,0,0,0-1.424.336l.224-2.512h4.3V7.16H77.776l-.32,5.744,1.072.7a2.833,2.833,0,0,1,1.776-.624,1.916,1.916,0,0,1,2,2.144,1.988,1.988,0,0,1-2.1,2.176A3.68,3.68,0,0,1,77.6,16.1l-1.088,1.5A5.4,5.4,0,0,0,80.512,19.224Zm10.016-1.776c-.992,0-1.792-.832-2.016-2.992a2.338,2.338,0,0,1,1.936-1.248c1.024,0,1.68.656,1.68,2.064C92.128,16.712,91.408,17.448,90.528,17.448ZM94.112,8.28A4.386,4.386,0,0,0,90.9,6.936c-2.384,0-4.576,1.888-4.576,6.3,0,4.176,2,5.984,4.256,5.984a3.708,3.708,0,0,0,3.712-3.952c0-2.544-1.408-3.728-3.392-3.728a3.446,3.446,0,0,0-2.432,1.264c.1-2.96,1.216-3.984,2.576-3.984a2.57,2.57,0,0,1,1.824.864Zm4.224,6.16c1.7,0,2.9-1.392,2.9-3.776,0-2.368-1.2-3.728-2.9-3.728s-2.88,1.36-2.88,3.728C95.456,13.048,96.64,14.44,98.336,14.44Zm0-1.328c-.688,0-1.216-.7-1.216-2.448s.528-2.4,1.216-2.4,1.232.656,1.232,2.4S99.024,13.112,98.336,13.112Zm.4,6.112h1.376L106.56,6.936h-1.392Zm8.208,0c1.68,0,2.9-1.408,2.9-3.776,0-2.384-1.216-3.744-2.9-3.744s-2.88,1.36-2.88,3.744C104.064,17.816,105.264,19.224,106.944,19.224Zm0-1.344c-.688,0-1.232-.688-1.232-2.432s.544-2.416,1.232-2.416,1.232.672,1.232,2.416S107.632,17.88,106.944,17.88Z" transform="translate(-8123 -14250)" fill="#7e8391"/>
    <path id="Path_1559" data-name="Path 1559" d="M5.606,1.789a1,1,0,0,1,1.789,0l4.882,9.764A1,1,0,0,1,11.382,13H1.618a1,1,0,0,1-.894-1.447Z" transform="translate(-7974 -14279) rotate(180)" fill="#eeeeef"/>
    <path id="Path_1556" data-name="Path 1556" d="M2,0H234.8V20H2a2,2,0,0,1-2-2V2A2,2,0,0,1,2,0Z" transform="translate(-8213.925 -14276)" fill="#4891f2"/>
    <path id="Path_1558" data-name="Path 1558" d="M0,0V34" transform="translate(-8066.5 -14282.5)" fill="none" stroke="#f8f8f8" stroke-width="1" stroke-dasharray="1"/>
    <g id="Group_1907" data-name="Group 1907" transform="translate(-8466 -14536)">
      <rect id="Rectangle_2243" data-name="Rectangle 2243" width="262.8" height="20" rx="2" transform="translate(252.075 382)" fill="#4d505a"/>
      <path id="Rectangle_2241" data-name="Rectangle 2241" d="M2,0H221.6a0,0,0,0,1,0,0V20a0,0,0,0,1,0,0H2a2,2,0,0,1-2-2V2A2,2,0,0,1,2,0Z" transform="translate(252.075 382)" fill="#4891f2"/>
      <line id="Line_332" data-name="Line 332" y2="34" transform="translate(397.5 373.5)" fill="none" stroke="#f8f8f8" stroke-width="1" stroke-dasharray="1"/>
      <text id="內文p-4" data-name="內文p" transform="translate(518 379)" fill="#4891f2" font-size="16" font-family="SourceHanSansTW-Bold, Source Han Sans TW" font-weight="700"><tspan x="0" y="19">台灣84% </tspan></text>
      <path id="內文p-5" data-name="內文p" d="M6.16,19.224c3.136,0,5.3-2.352,5.3-6.192s-2.16-6.1-5.3-6.1-5.3,2.24-5.3,6.1C.864,16.872,3.024,19.224,6.16,19.224Zm0-2.048c-1.76,0-2.88-1.616-2.88-4.144,0-2.544,1.12-4.064,2.88-4.064s2.88,1.52,2.88,4.064C9.04,15.56,7.92,17.176,6.16,17.176ZM13.776,19h7.44V17.016H16.144V13.848H20.3V11.864h-4.16V9.128h4.9V7.16H13.776Zm14.672.224a4.792,4.792,0,0,0,3.776-1.744l-1.248-1.472a3.292,3.292,0,0,1-2.448,1.168c-1.872,0-3.088-1.552-3.088-4.128,0-2.544,1.344-4.08,3.136-4.08a3.053,3.053,0,0,1,2.176.992L32,8.456a4.83,4.83,0,0,0-3.472-1.52c-2.992,0-5.5,2.288-5.5,6.192C23.024,17.08,25.456,19.224,28.448,19.224ZM34.128,19H37.5c3.488,0,5.728-1.984,5.728-5.968,0-4-2.24-5.872-5.856-5.872H34.128ZM36.5,17.1V9.048h.736c2.208,0,3.584,1.088,3.584,3.984,0,2.88-1.376,4.064-3.584,4.064Zm22.88-3.92H53.088V8.328h5.36V6.44H45.712V8.328H51.1v4.848H44.88v1.936H51.1v5.28h1.984v-5.28h6.288ZM46.688,9.352a16.046,16.046,0,0,1,1.168,3.328l1.856-.576a14.6,14.6,0,0,0-1.28-3.264Zm9.344,3.3A31.305,31.305,0,0,0,57.792,9.3L55.76,8.792a18.959,18.959,0,0,1-1.392,3.376Zm8.256,1.808v-3.52h1.52V9.128h-1.52V5.656H62.512V9.128h-1.68v1.808h1.68v4.272c-.768.288-1.44.56-2,.752l.768,1.92c1.44-.672,3.216-1.52,4.88-2.352l-.448-1.664Zm3.344,1.856h4.88V14.68h-4.88Zm.784-4.72v1.632H72.16V11.592Zm6.928-3.744H69.616c.256-.656.48-1.3.672-1.968l-1.76-.432A15.109,15.109,0,0,1,65.84,11a11.15,11.15,0,0,1,1.584,1.008,14.791,14.791,0,0,0,1.44-2.432H73.52c-.144,5.712-.3,8.272-.8,8.784a.793.793,0,0,1-.688.256c-.464,0-1.456,0-2.592-.1a4.4,4.4,0,0,1,.656,1.856,19.86,19.86,0,0,0,2.64-.032,2.117,2.117,0,0,0,1.616-.928c.64-.88.816-3.392.992-10.656Zm5.168,11.376a4,4,0,0,0,4.144-4.16,3.438,3.438,0,0,0-3.648-3.76,3.062,3.062,0,0,0-1.424.336l.224-2.512h4.3V7.16H77.776l-.32,5.744,1.072.7a2.833,2.833,0,0,1,1.776-.624,1.916,1.916,0,0,1,2,2.144,1.988,1.988,0,0,1-2.1,2.176A3.68,3.68,0,0,1,77.6,16.1l-1.088,1.5A5.4,5.4,0,0,0,80.512,19.224Zm9.424,0a4,4,0,0,0,4.144-4.16,3.438,3.438,0,0,0-3.648-3.76,3.062,3.062,0,0,0-1.424.336l.224-2.512h4.3V7.16H87.2L86.88,12.9l1.072.7a2.833,2.833,0,0,1,1.776-.624,1.916,1.916,0,0,1,2,2.144,1.988,1.988,0,0,1-2.1,2.176,3.68,3.68,0,0,1-2.608-1.2l-1.088,1.5A5.4,5.4,0,0,0,89.936,19.224Zm8.4-4.784c1.7,0,2.9-1.392,2.9-3.776,0-2.368-1.2-3.728-2.9-3.728s-2.88,1.36-2.88,3.728C95.456,13.048,96.64,14.44,98.336,14.44Zm0-1.328c-.688,0-1.216-.7-1.216-2.448s.528-2.4,1.216-2.4,1.232.656,1.232,2.4S99.024,13.112,98.336,13.112Zm.4,6.112h1.376L106.56,6.936h-1.392Zm8.208,0c1.68,0,2.9-1.408,2.9-3.776,0-2.384-1.216-3.744-2.9-3.744s-2.88,1.36-2.88,3.744C104.064,17.816,105.264,19.224,106.944,19.224Zm0-1.344c-.688,0-1.232-.688-1.232-2.432s.544-2.416,1.232-2.416,1.232.672,1.232,2.416S107.632,17.88,106.944,17.88Z" transform="translate(343 407)" fill="#7e8391"/>
      <g id="Group_1778" data-name="Group 1778" transform="translate(-97 -1)">
        <rect id="Rectangle_2244" data-name="Rectangle 2244" width="187" height="27" rx="2" transform="translate(408 344)" fill="#eeeeef"/>
        <path id="Polygon_4" data-name="Polygon 4" d="M5.606,1.789a1,1,0,0,1,1.789,0l4.882,9.764A1,1,0,0,1,11.382,13H1.618a1,1,0,0,1-.894-1.447Z" transform="translate(575 380) rotate(180)" fill="#eeeeef"/>
        <text id="內文p-6" data-name="內文p" transform="translate(414 345)" fill="#303236" font-size="16" font-family="SourceHanSansTW-Bold, Source Han Sans TW" font-weight="700"><tspan x="0" y="19">失敗時怕自己其實沒天分</tspan></text>
      </g>
    </g>
    <g id="Group_1906" data-name="Group 1906" transform="translate(-8466 -14522)">
      <text id="內文p-7" data-name="內文p" transform="translate(520 489)" fill="#4891f2" font-size="16" font-family="SourceHanSansTW-Bold, Source Han Sans TW" font-weight="700"><tspan x="0" y="19">台灣77% </tspan></text>
      <path id="內文p-8" data-name="內文p" d="M6.16,19.224c3.136,0,5.3-2.352,5.3-6.192s-2.16-6.1-5.3-6.1-5.3,2.24-5.3,6.1C.864,16.872,3.024,19.224,6.16,19.224Zm0-2.048c-1.76,0-2.88-1.616-2.88-4.144,0-2.544,1.12-4.064,2.88-4.064s2.88,1.52,2.88,4.064C9.04,15.56,7.92,17.176,6.16,17.176ZM13.776,19h7.44V17.016H16.144V13.848H20.3V11.864h-4.16V9.128h4.9V7.16H13.776Zm14.672.224a4.792,4.792,0,0,0,3.776-1.744l-1.248-1.472a3.292,3.292,0,0,1-2.448,1.168c-1.872,0-3.088-1.552-3.088-4.128,0-2.544,1.344-4.08,3.136-4.08a3.053,3.053,0,0,1,2.176.992L32,8.456a4.83,4.83,0,0,0-3.472-1.52c-2.992,0-5.5,2.288-5.5,6.192C23.024,17.08,25.456,19.224,28.448,19.224ZM34.128,19H37.5c3.488,0,5.728-1.984,5.728-5.968,0-4-2.24-5.872-5.856-5.872H34.128ZM36.5,17.1V9.048h.736c2.208,0,3.584,1.088,3.584,3.984,0,2.88-1.376,4.064-3.584,4.064Zm22.88-3.92H53.088V8.328h5.36V6.44H45.712V8.328H51.1v4.848H44.88v1.936H51.1v5.28h1.984v-5.28h6.288ZM46.688,9.352a16.046,16.046,0,0,1,1.168,3.328l1.856-.576a14.6,14.6,0,0,0-1.28-3.264Zm9.344,3.3A31.305,31.305,0,0,0,57.792,9.3L55.76,8.792a18.959,18.959,0,0,1-1.392,3.376Zm8.256,1.808v-3.52h1.52V9.128h-1.52V5.656H62.512V9.128h-1.68v1.808h1.68v4.272c-.768.288-1.44.56-2,.752l.768,1.92c1.44-.672,3.216-1.52,4.88-2.352l-.448-1.664Zm3.344,1.856h4.88V14.68h-4.88Zm.784-4.72v1.632H72.16V11.592Zm6.928-3.744H69.616c.256-.656.48-1.3.672-1.968l-1.76-.432A15.109,15.109,0,0,1,65.84,11a11.15,11.15,0,0,1,1.584,1.008,14.791,14.791,0,0,0,1.44-2.432H73.52c-.144,5.712-.3,8.272-.8,8.784a.793.793,0,0,1-.688.256c-.464,0-1.456,0-2.592-.1a4.4,4.4,0,0,1,.656,1.856,19.86,19.86,0,0,0,2.64-.032,2.117,2.117,0,0,0,1.616-.928c.64-.88.816-3.392.992-10.656Zm5.168,11.376a4,4,0,0,0,4.144-4.16,3.438,3.438,0,0,0-3.648-3.76,3.062,3.062,0,0,0-1.424.336l.224-2.512h4.3V7.16H77.776l-.32,5.744,1.072.7a2.833,2.833,0,0,1,1.776-.624,1.916,1.916,0,0,1,2,2.144,1.988,1.988,0,0,1-2.1,2.176A3.68,3.68,0,0,1,77.6,16.1l-1.088,1.5A5.4,5.4,0,0,0,80.512,19.224Zm7.632-5.088,1.84-2.944c.336-.64.656-1.3.944-1.92h.064c-.032.688-.1,1.76-.1,2.448v2.416Zm6.352,0H93.088V7.16H90.272l-4.416,7.168v1.6H90.9V19h2.192V15.928H94.5Zm3.04,5.088a1.538,1.538,0,1,0-1.456-1.536A1.474,1.474,0,0,0,97.536,19.224Zm7.024,0a4,4,0,0,0,4.144-4.16,3.438,3.438,0,0,0-3.648-3.76,3.062,3.062,0,0,0-1.424.336l.224-2.512h4.3V7.16h-6.336L101.5,12.9l1.072.7a2.833,2.833,0,0,1,1.776-.624,1.916,1.916,0,0,1,2,2.144,1.988,1.988,0,0,1-2.1,2.176,3.68,3.68,0,0,1-2.608-1.2l-1.088,1.5A5.4,5.4,0,0,0,104.56,19.224Zm8.4-4.784c1.7,0,2.9-1.392,2.9-3.776,0-2.368-1.2-3.728-2.9-3.728s-2.88,1.36-2.88,3.728C110.08,13.048,111.264,14.44,112.96,14.44Zm0-1.328c-.688,0-1.216-.7-1.216-2.448s.528-2.4,1.216-2.4,1.232.656,1.232,2.4S113.648,13.112,112.96,13.112Zm.4,6.112h1.376l6.448-12.288h-1.392Zm8.208,0c1.68,0,2.9-1.408,2.9-3.776,0-2.384-1.216-3.744-2.9-3.744s-2.88,1.36-2.88,3.744C118.688,17.816,119.888,19.224,121.568,19.224Zm0-1.344c-.688,0-1.232-.688-1.232-2.432s.544-2.416,1.232-2.416,1.232.672,1.232,2.416S122.256,17.88,121.568,17.88Z" transform="translate(329 519)" fill="#7e8391"/>
      <g id="Group_1779" data-name="Group 1779" transform="translate(-97 108)">
        <rect id="Rectangle_2244-2" data-name="Rectangle 2244" width="222" height="27" rx="2" transform="translate(360 344)" fill="#eeeeef"/>
        <path id="Polygon_4-2" data-name="Polygon 4" d="M5.606,1.789a1,1,0,0,1,1.789,0l4.882,9.764A1,1,0,0,1,11.382,13H1.618a1,1,0,0,1-.894-1.447Z" transform="translate(558 380) rotate(180)" fill="#eeeeef"/>
        <text id="內文p-9" data-name="內文p" transform="translate(366 345)" fill="#303236" font-size="16" font-family="SourceHanSansTW-Bold, Source Han Sans TW" font-weight="700"><tspan x="0" y="19">失敗時會質疑自己的未來規劃</tspan></text>
      </g>
      <rect id="Rectangle_2250" data-name="Rectangle 2250" width="263.8" height="20" rx="2" transform="translate(252.075 491.5)" fill="#4d505a"/>
      <path id="Rectangle_2248" data-name="Rectangle 2248" d="M2,0H203.1a0,0,0,0,1,0,0V20a0,0,0,0,1,0,0H2a2,2,0,0,1-2-2V2A2,2,0,0,1,2,0Z" transform="translate(252.075 491.301)" fill="#4891f2"/>
      <line id="Line_358" data-name="Line 358" y2="34" transform="translate(394.5 485.5)" fill="none" stroke="#f8f8f8" stroke-width="1" stroke-dasharray="1"/>
    </g>
  </g>
</svg>
