<svg xmlns="http://www.w3.org/2000/svg" width="264.155" height="204.189" viewBox="0 0 264.155 204.189">
  <g id="data8_m" transform="translate(3.675 11.564)">
    <g id="data_7-07" transform="translate(0 6.446)">
      <g id="Group_1881" data-name="Group 1881" transform="translate(48.373 175.59)">
        <g id="Group_1878" data-name="Group 1878" transform="translate(0 1.476)">
          <path id="Path_1860" data-name="Path 1860" d="M.374-3.177A5.9,5.9,0,0,1,.609-5.016a2.288,2.288,0,0,1,.7-1.074,1.786,1.786,0,0,1,1.167-.378,1.9,1.9,0,0,1,.91.209,1.739,1.739,0,0,1,.646.6,3.23,3.23,0,0,1,.4.958,6.365,6.365,0,0,1,.145,1.523,5.912,5.912,0,0,1-.233,1.83,2.288,2.288,0,0,1-.7,1.077A1.786,1.786,0,0,1,2.474.11,1.768,1.768,0,0,1,1.011-.558,4.245,4.245,0,0,1,.374-3.177Zm.813,0a4.04,4.04,0,0,0,.371,2.112,1.094,1.094,0,0,0,.916.525,1.093,1.093,0,0,0,.916-.527,4.041,4.041,0,0,0,.371-2.109A4.038,4.038,0,0,0,3.39-5.291a1.1,1.1,0,0,0-.925-.523,1.014,1.014,0,0,0-.87.461A4.086,4.086,0,0,0,1.187-3.177Z" transform="translate(0 8)" fill="#6f727a"/>
          <path id="Path_1859" data-name="Path 1859" d="M3.353,0H2.562V-5.041a4.088,4.088,0,0,1-.749.545,5.311,5.311,0,0,1-.833.409v-.765a4.777,4.777,0,0,0,1.16-.756,2.973,2.973,0,0,0,.7-.861h.51ZM5.379-3.177a5.9,5.9,0,0,1,.235-1.839,2.288,2.288,0,0,1,.7-1.074,1.786,1.786,0,0,1,1.167-.378,1.9,1.9,0,0,1,.91.209,1.739,1.739,0,0,1,.646.6,3.23,3.23,0,0,1,.4.958A6.365,6.365,0,0,1,9.58-3.177a5.912,5.912,0,0,1-.233,1.83,2.288,2.288,0,0,1-.7,1.077A1.786,1.786,0,0,1,7.479.11,1.768,1.768,0,0,1,6.016-.558,4.245,4.245,0,0,1,5.379-3.177Zm.813,0a4.04,4.04,0,0,0,.371,2.112,1.094,1.094,0,0,0,.916.525A1.093,1.093,0,0,0,8.4-1.068a4.041,4.041,0,0,0,.371-2.109A4.038,4.038,0,0,0,8.4-5.291a1.1,1.1,0,0,0-.925-.523,1.014,1.014,0,0,0-.87.461A4.086,4.086,0,0,0,6.192-3.177Z" transform="translate(22.99 9)" fill="#6f727a"/>
          <path id="Path_1858" data-name="Path 1858" d="M4.531-.76V0H.272A1.4,1.4,0,0,1,.365-.549a2.906,2.906,0,0,1,.521-.857A8.159,8.159,0,0,1,1.92-2.382,8.773,8.773,0,0,0,3.34-3.746,1.634,1.634,0,0,0,3.709-4.7a1.057,1.057,0,0,0-.336-.793A1.213,1.213,0,0,0,2.5-5.814a1.235,1.235,0,0,0-.914.343,1.3,1.3,0,0,0-.347.949L.422-4.605A2,2,0,0,1,1.05-5.992a2.144,2.144,0,0,1,1.463-.477,2.042,2.042,0,0,1,1.468.514A1.688,1.688,0,0,1,4.522-4.68a1.933,1.933,0,0,1-.158.76,2.95,2.95,0,0,1-.525.787A12.793,12.793,0,0,1,2.619-2q-.712.6-.914.811a2.6,2.6,0,0,0-.334.428Zm.848-2.417a5.9,5.9,0,0,1,.235-1.839,2.288,2.288,0,0,1,.7-1.074,1.786,1.786,0,0,1,1.167-.378,1.9,1.9,0,0,1,.91.209,1.739,1.739,0,0,1,.646.6,3.23,3.23,0,0,1,.4.958A6.365,6.365,0,0,1,9.58-3.177a5.912,5.912,0,0,1-.233,1.83,2.288,2.288,0,0,1-.7,1.077A1.786,1.786,0,0,1,7.479.11,1.768,1.768,0,0,1,6.016-.558,4.245,4.245,0,0,1,5.379-3.177Zm.813,0a4.04,4.04,0,0,0,.371,2.112,1.094,1.094,0,0,0,.916.525A1.093,1.093,0,0,0,8.4-1.068a4.041,4.041,0,0,0,.371-2.109A4.038,4.038,0,0,0,8.4-5.291a1.1,1.1,0,0,0-.925-.523,1.014,1.014,0,0,0-.87.461A4.086,4.086,0,0,0,6.192-3.177Z" transform="translate(48.373 9)" fill="#6f727a"/>
          <path id="Path_1857" data-name="Path 1857" d="M.378-1.7l.791-.105a1.743,1.743,0,0,0,.464.969,1.145,1.145,0,0,0,.8.3,1.278,1.278,0,0,0,.943-.387,1.3,1.3,0,0,0,.385-.958,1.214,1.214,0,0,0-.356-.9A1.23,1.23,0,0,0,2.5-3.138a2.271,2.271,0,0,0-.558.088l.088-.694a1.209,1.209,0,0,0,.127.009A1.629,1.629,0,0,0,3.063-4a.9.9,0,0,0,.4-.813.962.962,0,0,0-.294-.721,1.046,1.046,0,0,0-.76-.286,1.077,1.077,0,0,0-.769.29,1.456,1.456,0,0,0-.4.87L.457-4.8a2.033,2.033,0,0,1,.659-1.233A1.906,1.906,0,0,1,2.4-6.469a2.107,2.107,0,0,1,.971.226,1.637,1.637,0,0,1,.679.617,1.586,1.586,0,0,1,.235.831,1.36,1.36,0,0,1-.224.76,1.53,1.53,0,0,1-.664.545,1.5,1.5,0,0,1,.888.547A1.665,1.665,0,0,1,4.6-1.9a1.9,1.9,0,0,1-.615,1.43A2.164,2.164,0,0,1,2.426.114,2.024,2.024,0,0,1,1.017-.391,1.954,1.954,0,0,1,.378-1.7Zm5-1.477a5.9,5.9,0,0,1,.235-1.839,2.288,2.288,0,0,1,.7-1.074,1.786,1.786,0,0,1,1.167-.378,1.9,1.9,0,0,1,.91.209,1.739,1.739,0,0,1,.646.6,3.23,3.23,0,0,1,.4.958A6.365,6.365,0,0,1,9.58-3.177a5.912,5.912,0,0,1-.233,1.83,2.288,2.288,0,0,1-.7,1.077A1.786,1.786,0,0,1,7.479.11,1.768,1.768,0,0,1,6.016-.558,4.245,4.245,0,0,1,5.379-3.177Zm.813,0a4.04,4.04,0,0,0,.371,2.112,1.094,1.094,0,0,0,.916.525A1.093,1.093,0,0,0,8.4-1.068a4.041,4.041,0,0,0,.371-2.109A4.038,4.038,0,0,0,8.4-5.291a1.1,1.1,0,0,0-.925-.523,1.014,1.014,0,0,0-.87.461A4.086,4.086,0,0,0,6.192-3.177Z" transform="translate(73.757 9)" fill="#6f727a"/>
          <path id="Path_1856" data-name="Path 1856" d="M2.909,0V-1.542H.114v-.725l2.94-4.175H3.7v4.175h.87v.725H3.7V0Zm0-2.268v-2.9L.892-2.268Zm2.47-.91a5.9,5.9,0,0,1,.235-1.839,2.288,2.288,0,0,1,.7-1.074,1.786,1.786,0,0,1,1.167-.378,1.9,1.9,0,0,1,.91.209,1.739,1.739,0,0,1,.646.6,3.23,3.23,0,0,1,.4.958A6.365,6.365,0,0,1,9.58-3.177a5.912,5.912,0,0,1-.233,1.83,2.288,2.288,0,0,1-.7,1.077A1.786,1.786,0,0,1,7.479.11,1.768,1.768,0,0,1,6.016-.558,4.245,4.245,0,0,1,5.379-3.177Zm.813,0a4.04,4.04,0,0,0,.371,2.112,1.094,1.094,0,0,0,.916.525A1.093,1.093,0,0,0,8.4-1.068a4.041,4.041,0,0,0,.371-2.109A4.038,4.038,0,0,0,8.4-5.291a1.1,1.1,0,0,0-.925-.523,1.014,1.014,0,0,0-.87.461A4.086,4.086,0,0,0,6.192-3.177Z" transform="translate(99.136 9)" fill="#6f727a"/>
          <path id="Path_1855" data-name="Path 1855" d="M.374-1.687l.831-.07a1.489,1.489,0,0,0,.428.912,1.163,1.163,0,0,0,.811.305A1.263,1.263,0,0,0,3.41-.971a1.623,1.623,0,0,0,.4-1.143,1.467,1.467,0,0,0-.38-1.068,1.326,1.326,0,0,0-1-.391,1.379,1.379,0,0,0-.69.174,1.34,1.34,0,0,0-.483.45l-.743-.1.624-3.309h3.2V-5.6H1.771L1.424-3.867a2.1,2.1,0,0,1,1.217-.4,1.928,1.928,0,0,1,1.424.584,2.043,2.043,0,0,1,.58,1.5,2.346,2.346,0,0,1-.51,1.512A2.042,2.042,0,0,1,2.443.11,2.084,2.084,0,0,1,1.009-.382,1.921,1.921,0,0,1,.374-1.687Zm5.005-1.49a5.9,5.9,0,0,1,.235-1.839,2.288,2.288,0,0,1,.7-1.074,1.786,1.786,0,0,1,1.167-.378,1.9,1.9,0,0,1,.91.209,1.739,1.739,0,0,1,.646.6,3.23,3.23,0,0,1,.4.958A6.365,6.365,0,0,1,9.58-3.177a5.912,5.912,0,0,1-.233,1.83,2.288,2.288,0,0,1-.7,1.077A1.786,1.786,0,0,1,7.479.11,1.768,1.768,0,0,1,6.016-.558,4.245,4.245,0,0,1,5.379-3.177Zm.813,0a4.04,4.04,0,0,0,.371,2.112,1.094,1.094,0,0,0,.916.525A1.093,1.093,0,0,0,8.4-1.068a4.041,4.041,0,0,0,.371-2.109A4.038,4.038,0,0,0,8.4-5.291a1.1,1.1,0,0,0-.925-.523,1.014,1.014,0,0,0-.87.461A4.086,4.086,0,0,0,6.192-3.177Z" transform="translate(124.524 9)" fill="#6f727a"/>
          <path id="Path_1854" data-name="Path 1854" d="M4.478-4.865,3.691-4.8a1.49,1.49,0,0,0-.3-.677A1.047,1.047,0,0,0,2.6-5.818a1.087,1.087,0,0,0-.664.211,1.8,1.8,0,0,0-.589.8,4.157,4.157,0,0,0-.224,1.49,1.833,1.833,0,0,1,.7-.646,1.879,1.879,0,0,1,.866-.211A1.793,1.793,0,0,1,4.036-3.6a2.09,2.09,0,0,1,.556,1.505A2.477,2.477,0,0,1,4.331-.965a1.905,1.905,0,0,1-.719.8A1.962,1.962,0,0,1,2.575.11,2.027,2.027,0,0,1,.962-.617a3.672,3.672,0,0,1-.624-2.4,4.3,4.3,0,0,1,.69-2.716A1.984,1.984,0,0,1,2.65-6.469,1.819,1.819,0,0,1,3.9-6.042,1.81,1.81,0,0,1,4.478-4.865ZM1.248-2.087a1.835,1.835,0,0,0,.174.782,1.294,1.294,0,0,0,.486.569,1.214,1.214,0,0,0,.655.2,1.116,1.116,0,0,0,.861-.4,1.591,1.591,0,0,0,.36-1.1A1.489,1.489,0,0,0,3.428-3.1a1.17,1.17,0,0,0-.9-.385,1.22,1.22,0,0,0-.91.385A1.386,1.386,0,0,0,1.248-2.087Zm4.131-1.09a5.9,5.9,0,0,1,.235-1.839,2.288,2.288,0,0,1,.7-1.074,1.786,1.786,0,0,1,1.167-.378,1.9,1.9,0,0,1,.91.209,1.739,1.739,0,0,1,.646.6,3.23,3.23,0,0,1,.4.958A6.365,6.365,0,0,1,9.58-3.177a5.912,5.912,0,0,1-.233,1.83,2.288,2.288,0,0,1-.7,1.077A1.786,1.786,0,0,1,7.479.11,1.768,1.768,0,0,1,6.016-.558,4.245,4.245,0,0,1,5.379-3.177Zm.813,0a4.04,4.04,0,0,0,.371,2.112,1.094,1.094,0,0,0,.916.525A1.093,1.093,0,0,0,8.4-1.068a4.041,4.041,0,0,0,.371-2.109A4.038,4.038,0,0,0,8.4-5.291a1.1,1.1,0,0,0-.925-.523,1.014,1.014,0,0,0-.87.461A4.086,4.086,0,0,0,6.192-3.177Z" transform="translate(149.912 9)" fill="#6f727a"/>
          <path id="Path_1853" data-name="Path 1853" d="M.426-5.6v-.76H4.6v.615A8.788,8.788,0,0,0,3.377-4a10.6,10.6,0,0,0-.934,2.232A8.3,8.3,0,0,0,2.14,0H1.327a7.9,7.9,0,0,1,.3-1.837,9.645,9.645,0,0,1,.82-2.076A8.9,8.9,0,0,1,3.582-5.6ZM5.379-3.177a5.9,5.9,0,0,1,.235-1.839,2.288,2.288,0,0,1,.7-1.074,1.786,1.786,0,0,1,1.167-.378,1.9,1.9,0,0,1,.91.209,1.739,1.739,0,0,1,.646.6,3.23,3.23,0,0,1,.4.958A6.365,6.365,0,0,1,9.58-3.177a5.912,5.912,0,0,1-.233,1.83,2.288,2.288,0,0,1-.7,1.077A1.786,1.786,0,0,1,7.479.11,1.768,1.768,0,0,1,6.016-.558,4.245,4.245,0,0,1,5.379-3.177Zm.813,0a4.04,4.04,0,0,0,.371,2.112,1.094,1.094,0,0,0,.916.525A1.093,1.093,0,0,0,8.4-1.068a4.041,4.041,0,0,0,.371-2.109A4.038,4.038,0,0,0,8.4-5.291a1.1,1.1,0,0,0-.925-.523,1.014,1.014,0,0,0-.87.461A4.086,4.086,0,0,0,6.192-3.177Z" transform="translate(175.292 9)" fill="#6f727a"/>
          <path id="Path_1852" data-name="Path 1852" d="M1.591-3.494a1.489,1.489,0,0,1-.729-.514,1.345,1.345,0,0,1-.237-.8A1.564,1.564,0,0,1,1.129-5.99a1.874,1.874,0,0,1,1.345-.479,1.887,1.887,0,0,1,1.358.49,1.586,1.586,0,0,1,.514,1.193,1.314,1.314,0,0,1-.235.78,1.483,1.483,0,0,1-.714.512,1.732,1.732,0,0,1,.9.624,1.714,1.714,0,0,1,.31,1.028A1.851,1.851,0,0,1,4.025-.453,2.125,2.125,0,0,1,2.487.11,2.12,2.12,0,0,1,.949-.455,1.878,1.878,0,0,1,.365-1.863,1.7,1.7,0,0,1,.683-2.916,1.6,1.6,0,0,1,1.591-3.494Zm-.158-1.34a1,1,0,0,0,.294.747,1.043,1.043,0,0,0,.765.29,1.023,1.023,0,0,0,.749-.288.952.952,0,0,0,.292-.705.987.987,0,0,0-.3-.732,1.025,1.025,0,0,0-.749-.3,1.035,1.035,0,0,0-.751.29A.934.934,0,0,0,1.433-4.834ZM1.178-1.859a1.431,1.431,0,0,0,.16.655,1.132,1.132,0,0,0,.477.49A1.394,1.394,0,0,0,2.5-.541a1.276,1.276,0,0,0,.936-.365A1.248,1.248,0,0,0,3.8-1.833a1.269,1.269,0,0,0-.38-.945,1.3,1.3,0,0,0-.951-.374,1.25,1.25,0,0,0-.925.369A1.256,1.256,0,0,0,1.178-1.859Zm4.2-1.318a5.9,5.9,0,0,1,.235-1.839,2.288,2.288,0,0,1,.7-1.074,1.786,1.786,0,0,1,1.167-.378,1.9,1.9,0,0,1,.91.209,1.739,1.739,0,0,1,.646.6,3.23,3.23,0,0,1,.4.958A6.365,6.365,0,0,1,9.58-3.177a5.912,5.912,0,0,1-.233,1.83,2.288,2.288,0,0,1-.7,1.077A1.786,1.786,0,0,1,7.479.11,1.768,1.768,0,0,1,6.016-.558,4.245,4.245,0,0,1,5.379-3.177Zm.813,0a4.04,4.04,0,0,0,.371,2.112,1.094,1.094,0,0,0,.916.525A1.093,1.093,0,0,0,8.4-1.068a4.041,4.041,0,0,0,.371-2.109A4.038,4.038,0,0,0,8.4-5.291a1.1,1.1,0,0,0-.925-.523,1.014,1.014,0,0,0-.87.461A4.086,4.086,0,0,0,6.192-3.177Z" transform="translate(200.675 9)" fill="#6f727a"/>
        </g>
        <line id="Line_480" data-name="Line 480" x2="203.067" transform="translate(2.38)" fill="none" stroke="#55585f" stroke-miterlimit="10" stroke-width="1"/>
      </g>
      <g id="Group_1884" data-name="Group 1884" transform="translate(50.754 0)">
        <line id="Line_490" data-name="Line 490" y1="175.59" fill="none" stroke="#55585f" stroke-miterlimit="10" stroke-width="1"/>
      </g>
      <g id="Group_1887" data-name="Group 1887" transform="translate(51.102 2.375)">
        <g id="Group_1886" data-name="Group 1886">
          <g id="Group_1885" data-name="Group 1885">
            <path id="Rectangle_2379" data-name="Rectangle 2379" d="M0,0H198.719a4,4,0,0,1,4,4V4a4,4,0,0,1-4,4H0A0,0,0,0,1,0,8V0A0,0,0,0,1,0,0Z" transform="translate(0 -0.337)" fill="#efefef"/>
            <path id="Rectangle_2380" data-name="Rectangle 2380" d="M0,0H196.209a4,4,0,0,1,4,4V4a4,4,0,0,1-4,4H0A0,0,0,0,1,0,8V0A0,0,0,0,1,0,0Z" transform="translate(0 14.663)" fill="#efefef"/>
            <path id="Rectangle_2381" data-name="Rectangle 2381" d="M0,0H196.209a4,4,0,0,1,4,4V4a4,4,0,0,1-4,4H0A0,0,0,0,1,0,8V0A0,0,0,0,1,0,0Z" transform="translate(0 29.662)" fill="#efefef"/>
            <path id="Rectangle_2382" data-name="Rectangle 2382" d="M0,0H191.12a4,4,0,0,1,4,4V4a4,4,0,0,1-4,4H0A0,0,0,0,1,0,8V0A0,0,0,0,1,0,0Z" transform="translate(0 44.663)" fill="#efefef"/>
            <path id="Rectangle_2383" data-name="Rectangle 2383" d="M0,0H191.12a4,4,0,0,1,4,4V4a4,4,0,0,1-4,4H0A0,0,0,0,1,0,8V0A0,0,0,0,1,0,0Z" transform="translate(0 58.663)" fill="#efefef"/>
            <path id="Rectangle_2384" data-name="Rectangle 2384" d="M0,0H191.12a4,4,0,0,1,4,4V4a4,4,0,0,1-4,4H0A0,0,0,0,1,0,8V0A0,0,0,0,1,0,0Z" transform="translate(0 73.662)" fill="#efefef"/>
            <path id="Rectangle_2385" data-name="Rectangle 2385" d="M0,0H186.032a4,4,0,0,1,4,4V4a4,4,0,0,1-4,4H0A0,0,0,0,1,0,8V0A0,0,0,0,1,0,0Z" transform="translate(0 88.663)" fill="#efefef"/>
            <path id="Rectangle_2386" data-name="Rectangle 2386" d="M0,0H135.612a9.106,9.106,0,0,1,9.106,9.106v0a9.106,9.106,0,0,1-9.106,9.106H0a0,0,0,0,1,0,0V0A0,0,0,0,1,0,0Z" transform="translate(0 103.663)" fill="#4891f2"/>
            <path id="Rectangle_2387" data-name="Rectangle 2387" d="M0,0H138.14a4,4,0,0,1,4,4V4a4,4,0,0,1-4,4H0A0,0,0,0,1,0,8V0A0,0,0,0,1,0,0Z" transform="translate(0 128.663)" fill="#efefef"/>
            <path id="Rectangle_2388" data-name="Rectangle 2388" d="M0,0H130.542a4,4,0,0,1,4,4V4a4,4,0,0,1-4,4H0A0,0,0,0,1,0,8V0A0,0,0,0,1,0,0Z" transform="translate(0 142.663)" fill="#efefef"/>
            <path id="Rectangle_2389" data-name="Rectangle 2389" d="M0,0H112.766a4,4,0,0,1,4,4V4a4,4,0,0,1-4,4H0A0,0,0,0,1,0,8V0A0,0,0,0,1,0,0Z" transform="translate(0 157.663)" fill="#efefef"/>
          </g>
        </g>
      </g>
      <g id="Group_1888" data-name="Group 1888" transform="translate(5 1.836)">
        <path id="Path_1851" data-name="Path 1851" d="M8.837-3.447q0,.074-.079.074L7.422-3.382H2.5v.858H7.106l1.35-.019a.074.074,0,0,1,.083.083q-.009.07-.065.6A9.218,9.218,0,0,1,8.266-.566,1.991,1.991,0,0,1,8.016.1a.917.917,0,0,1-.784.408q-.39,0-.677-.019A.3.3,0,0,1,6.406.455a.4.4,0,0,1-.042-.13,1.567,1.567,0,0,0-.139-.431,5.3,5.3,0,0,0,.872.07.513.513,0,0,0,.455-.209,2.821,2.821,0,0,0,.223-.77A8.667,8.667,0,0,0,7.9-2.06H3.363l-1.378.019a.066.066,0,0,1-.074-.074L1.93-3.238V-5.659l-.019-1.1a.066.066,0,0,1,.074-.074l1.3.019h.362a6.793,6.793,0,0,0,.311-.617,2.137,2.137,0,0,0,.153-.543q.38.074.589.135.107.028.107.1a.152.152,0,0,1-.074.116.508.508,0,0,0-.153.209q-.232.455-.315.6H5.9l1.313-.019q.065,0,.065.074l-.019.677V-5.4l.019.673q0,.074-.065.074L5.9-4.676H2.5v.789H7.422l1.336-.019q.079,0,.079.074ZM6.689-5.167V-6.313H2.5v1.146ZM2.013-1.387A5.609,5.609,0,0,1,1.15.4a.1.1,0,0,1-.07.046A.3.3,0,0,1,.951.38L.719.227Q.649.181.649.144A.124.124,0,0,1,.673.083a4.727,4.727,0,0,0,.858-1.642q.014-.06.051-.06a.211.211,0,0,1,.079.023l.246.083q.116.046.116.088A.107.107,0,0,1,2.013-1.387Zm1.6,1.5a.153.153,0,0,1,0,.037q0,.065-.121.074L3.164.255a.492.492,0,0,1-.056,0q-.079,0-.079-.088a7.737,7.737,0,0,0-.172-1.549.2.2,0,0,1,0-.037q0-.046.111-.056l.274-.042a.628.628,0,0,1,.065,0q.06,0,.079.074A9.731,9.731,0,0,1,3.609.116ZM5.3-.2a.384.384,0,0,1,0,.051q0,.046-.093.065L4.9-.019A.443.443,0,0,1,4.815,0Q4.769,0,4.75-.083a8.7,8.7,0,0,0-.362-1.331.107.107,0,0,1-.014-.042q0-.032.116-.065l.26-.065A.229.229,0,0,1,4.82-1.6q.042,0,.074.06A7.025,7.025,0,0,1,5.3-.2ZM6.8-.733a.228.228,0,0,1,.014.056q0,.032-.088.07l-.278.093A.252.252,0,0,1,6.369-.5q-.042,0-.06-.065a3.888,3.888,0,0,0-.427-.969.124.124,0,0,1-.023-.06q0-.037.1-.07l.2-.07a.331.331,0,0,1,.088-.023q.037,0,.083.06A4.024,4.024,0,0,1,6.8-.733Zm11.546-5.39q0,.065-.083.065l-1.257-.019H14.422v1.011h1.155l1.313-.019a.07.07,0,0,1,.079.079l-.019.775v.923l.019.779q0,.074-.079.074l-1.313-.019h-.283V-.524q0,.329.227.371a5.506,5.506,0,0,0,.9.056A2.234,2.234,0,0,0,17.539-.26a.632.632,0,0,0,.213-.4,5.031,5.031,0,0,0,.06-.617,1.683,1.683,0,0,0,.38.19q.158.056.158.125a.854.854,0,0,1-.014.111,2.911,2.911,0,0,1-.148.714.892.892,0,0,1-.26.334A3.106,3.106,0,0,1,16.4.436,4.554,4.554,0,0,1,15.1.32a.606.606,0,0,1-.39-.645V-2.472h-1.16A2.845,2.845,0,0,1,12.817-.6,4.419,4.419,0,0,1,10.641.561a.667.667,0,0,1-.135.028q-.056,0-.144-.162a1.037,1.037,0,0,0-.292-.343,3.955,3.955,0,0,0,2.38-1.136,2.281,2.281,0,0,0,.5-1.419H12.8l-1.313.019a.066.066,0,0,1-.074-.074l.019-.779V-4.23l-.019-.775q0-.079.074-.079l1.313.019h1.025V-6.077H11.495l-1.252.019q-.079,0-.079-.065v-.431q0-.074.079-.074l1.252.019h2.329v-.135a7.047,7.047,0,0,0-.079-1.16,6,6,0,0,1,.654.051q.125.019.125.083a.49.49,0,0,1-.046.162,3.454,3.454,0,0,0-.056.807v.19h2.584l1.257-.019q.083,0,.083.074ZM16.37-2.964v-1.61H12.01v1.61Zm9.866-.348q0,.074-.065.074L24.91-3.256h-.951v.408h.58l1.141-.019a.066.066,0,0,1,.074.074l-.019.6v.455l.019.594a.066.066,0,0,1-.074.074l-1.141-.023h-.371A5.41,5.41,0,0,0,26-.209a1.1,1.1,0,0,0-.218.274Q25.717.19,25.67.19a.354.354,0,0,1-.125-.042A5.054,5.054,0,0,1,23.931-.923q0,.649.028,1.09,0,.074.014.232,0,.065,0,.083,0,.079-.074.079h-.334q-.074,0-.074-.079,0-.019.009-.176.032-.482.046-1.229A5.783,5.783,0,0,1,21.528.353a.569.569,0,0,1-.144.042q-.051,0-.125-.13a.807.807,0,0,0-.227-.246,6.27,6.27,0,0,0,2.213-1.113h-.227l-1.141.023a.066.066,0,0,1-.074-.074l.019-.594v-.455l-.019-.6a.066.066,0,0,1,.074-.074l1.141.019h.5v-.408h-.886l-1.262.019q-.079,0-.079-.074v-.25q0-.074.079-.074l1.262.019h.886a3.2,3.2,0,0,0-.06-.543,3.767,3.767,0,0,1,.487.046q.111.019.111.07a.447.447,0,0,1-.046.111.785.785,0,0,0-.046.315h.951l1.262-.019q.065,0,.065.074ZM25.29-1.387v-.436H23.949v.436Zm0-.728v-.422H23.949v.422Zm-1.767.728v-.436H22.266v.436Zm0-.728v-.422H22.266v.422ZM27.512-.306a1.3,1.3,0,0,1-.065.478A.562.562,0,0,1,27.266.4a1.731,1.731,0,0,1-.979.181.316.316,0,0,1-.181-.032A.371.371,0,0,1,26.055.4a1.073,1.073,0,0,0-.139-.371,5.941,5.941,0,0,0,.635.037q.269,0,.339-.1a.625.625,0,0,0,.07-.357V-4.142H25.271l-1.011.019a.066.066,0,0,1-.074-.074l.019-.635v-.622l-.019-.654a.066.066,0,0,1,.074-.074l1.011.019h1.146l1.011-.019a.066.066,0,0,1,.074.074l-.019,1.141v3.335ZM26.96-4.5v-.482H24.71V-4.5Zm0-.826v-.464H24.71v.464ZM23.3-4.2a.066.066,0,0,1-.074.074l-.937-.019H20.6V-.9l.009,1.5a.057.057,0,0,1-.065.065h-.422q-.074,0-.074-.065l.019-1.5V-4.606l-.019-1.5a.066.066,0,0,1,.074-.074l1.058.019h1.1l.937-.019a.066.066,0,0,1,.074.074l-.023.7v.52ZM22.771-4.5v-.482H20.6V-4.5Zm0-.826v-.464H20.6v.464Zm5.121-1.549q0,.065-.079.065L26.58-6.833h-1.3l.019.4q0,.065-.079.065h-.4q-.074,0-.074-.065,0-.019,0-.135t.014-.264H22.674l.023.39q0,.065-.079.065h-.4q-.074,0-.074-.065,0-.019,0-.135t.014-.255H20.948L19.7-6.814q-.074,0-.074-.065v-.353a.066.066,0,0,1,.074-.074l1.248.019h1.215a2.9,2.9,0,0,0-.07-.645q.4.014.571.037.107.019.107.083a.273.273,0,0,1-.046.125.944.944,0,0,0-.051.4h2.092a3.1,3.1,0,0,0-.065-.645q.4.014.571.037.1.019.1.083a.273.273,0,0,1-.046.125,1.031,1.031,0,0,0-.046.4h1.3l1.234-.019q.079,0,.079.074Z" transform="translate(10 167.224)" fill="#efefef"/>
        <path id="Path_1850" data-name="Path 1850" d="M5-1.586a.066.066,0,0,1-.074.074L3.716-1.531H1.772L.561-1.512a.066.066,0,0,1-.074-.074v-.371a.066.066,0,0,1,.074-.074l.923.019V-6.007q-.339,0-.608.014l-.181,0q-.083,0-.083-.074v-.371q0-.074.083-.074l.789.019v-.218A6.093,6.093,0,0,0,1.419-7.83q.4.019.589.046.116.014.116.079a.579.579,0,0,1-.06.181,3.7,3.7,0,0,0-.046.807v.227H3.678v-.246a6.187,6.187,0,0,0-.065-1.123q.464.042.58.065t.1.079a.5.5,0,0,1-.046.181,3.9,3.9,0,0,0-.046.816v.227l.724-.019A.066.066,0,0,1,5-6.434v.371a.066.066,0,0,1-.074.074l-.1,0Q4.546-6,4.2-6.007v3.994l.724-.019A.066.066,0,0,1,5-1.958ZM3.678-2.013V-3.062H2.018v1.048Zm0-1.494V-4.532H2.018v1.025Zm0-1.48V-6.007H2.018v1.021Zm5.39.714q0,.074-.079.074L7.974-4.217v3.3L7.992.58q0,.079-.074.079H7.478Q7.4.659,7.4.58l.019-1.5v-3.3H6.007v.065a11.5,11.5,0,0,1-.278,2.844A5.065,5.065,0,0,1,4.81.552q-.088.116-.125.116T4.551.58A1.354,1.354,0,0,0,4.221.371,4.531,4.531,0,0,0,5.237-1.624a11.358,11.358,0,0,0,.218-2.528v-1.5A8.443,8.443,0,0,0,5.39-6.888,2.4,2.4,0,0,1,6-6.7,8.181,8.181,0,0,0,7.886-7.4a2.26,2.26,0,0,0,.45-.329,2.52,2.52,0,0,1,.427.427.205.205,0,0,1,.056.116q0,.079-.116.093a1.737,1.737,0,0,0-.329.116,13,13,0,0,1-2.366.8v1.452H7.886l1.1-.019q.079,0,.079.074ZM2.384-.969q0,.051-.074.1a.894.894,0,0,0-.2.218A6.732,6.732,0,0,1,.858.552.324.324,0,0,1,.724.617Q.687.617.589.492A1.186,1.186,0,0,0,.325.227a4.216,4.216,0,0,0,1.3-1.16,1.529,1.529,0,0,0,.209-.362,2.728,2.728,0,0,1,.464.223Q2.384-1.025,2.384-.969ZM4.448-.38a1.361,1.361,0,0,0-.3.269q-.079.093-.1.093a.334.334,0,0,1-.116-.074,4.577,4.577,0,0,1-.742-.877.15.15,0,0,1-.032-.065q0-.032.083-.079l.237-.139a.182.182,0,0,1,.079-.037q.023,0,.056.037A3.7,3.7,0,0,0,4.448-.38ZM18.61-3.113a1.13,1.13,0,0,0-.237.362q-.07.158-.121.158a.731.731,0,0,1-.139-.032A9.563,9.563,0,0,1,15.4-4.031a10.114,10.114,0,0,1-2.774,1.489.526.526,0,0,1-.144.046q-.051,0-.135-.153a1.127,1.127,0,0,0-.246-.339A9.016,9.016,0,0,0,14.95-4.393a6.657,6.657,0,0,1-1.118-1.359,6.777,6.777,0,0,1-1.076,1.039q-.1.083-.13.083t-.144-.125a.972.972,0,0,0-.306-.237A6.516,6.516,0,0,0,13.512-6.22a5.7,5.7,0,0,0,.71-1.076,2.634,2.634,0,0,0,.237-.659,3.694,3.694,0,0,1,.561.172.117.117,0,0,1,.083.107.15.15,0,0,1-.074.111.807.807,0,0,0-.172.241q-.176.334-.264.482H16.75a.514.514,0,0,0,.2-.028.292.292,0,0,1,.1-.037q.083,0,.264.181t.172.246a.157.157,0,0,1-.083.13.606.606,0,0,0-.2.227A7.921,7.921,0,0,1,15.827-4.4,9.526,9.526,0,0,0,18.61-3.113ZM16.662-6.35H14.278a.881.881,0,0,1-.065.1l-.06.083a5.269,5.269,0,0,0,1.229,1.424A6.1,6.1,0,0,0,16.662-6.35ZM17.4.58q0,.07-.074.07H16.88q-.074,0-.074-.07V.116H13.842V.571q0,.07-.074.07H13.35q-.088,0-.088-.07l.019-1.526v-.668l-.019-.96q0-.074.083-.074l1.15.019h1.665l1.16-.019a.066.066,0,0,1,.074.074l-.019.844v.784Zm-.589-.956V-2.157H13.842V-.376ZM11.958-2.148A14.8,14.8,0,0,1,11.04.083a1.822,1.822,0,0,0-.172.4q-.032.107-.1.107a.362.362,0,0,1-.13-.056,4.045,4.045,0,0,1-.45-.325,4.467,4.467,0,0,0,.45-.673,13.48,13.48,0,0,0,.928-2.273,1.878,1.878,0,0,0,.3.288q.13.1.13.153A.549.549,0,0,1,11.958-2.148Zm-.2-2.166q.037.037.037.056a.213.213,0,0,1-.046.088l-.2.264q-.074.1-.1.1a.114.114,0,0,1-.07-.042,6.408,6.408,0,0,0-1.28-1.03q-.046-.023-.046-.051a.183.183,0,0,1,.046-.088l.2-.25q.051-.06.083-.06a.15.15,0,0,1,.06.023A7.256,7.256,0,0,1,11.759-4.314Zm.561-2.3a.074.074,0,0,1,.032.051.244.244,0,0,1-.06.1l-.2.26q-.056.065-.093.065a.114.114,0,0,1-.07-.042,7.837,7.837,0,0,0-1.252-1.09.054.054,0,0,1-.032-.046q0-.032.06-.093l.19-.209q.06-.07.093-.07a.114.114,0,0,1,.051.019A6.938,6.938,0,0,1,12.32-6.61ZM27.883.135a.066.066,0,0,1-.074.074L26.649.19H24.075V.682q0,.079-.074.079h-.413q-.074,0-.074-.065l.019-1.136V-4.105q0-.26.019-.826-.274.408-.51.705-.093.1-.135.1T22.8-4.217a.789.789,0,0,0-.246-.241,6.6,6.6,0,0,0,1-1.429A7.8,7.8,0,0,0,24.1-7.171a3.682,3.682,0,0,0,.153-.714,4.365,4.365,0,0,1,.538.172q.107.037.107.111a.284.284,0,0,1-.083.144,1.522,1.522,0,0,0-.172.38q-.19.478-.436.969h1.354a6.7,6.7,0,0,0,.422-1.072,3.539,3.539,0,0,0,.121-.58,3.418,3.418,0,0,1,.543.148q.116.042.116.107a.177.177,0,0,1-.074.125.765.765,0,0,0-.172.32q-.278.705-.394.951h.506l1.113-.019a.066.066,0,0,1,.074.074v.38a.066.066,0,0,1-.074.074l-1.113-.019h-.6v1.35h.334l1.1-.019q.079,0,.079.083v.362q0,.074-.079.074l-1.1-.019h-.334v1.4h.343l1.09-.019q.079,0,.079.074v.371q0,.074-.079.074L26.375-1.9h-.343V-.315h.617l1.16-.019a.066.066,0,0,1,.074.074Zm-2.375-.45V-1.9H24.075V-.315Zm0-2.069v-1.4H24.075v1.4Zm0-1.883v-1.35H24.075v1.35ZM22.98-2.936a.107.107,0,0,1,.009.037q0,.046-.111.088l-.2.056a.45.45,0,0,1-.1.019q-.06,0-.074-.074l-.162-.552q-.4.056-.807.083V-.733L21.556.645q0,.079-.083.079H21.05q-.074,0-.074-.079l.019-1.378V-3.219l-.9.056a1.025,1.025,0,0,0-.348.07.286.286,0,0,1-.116.037q-.07,0-.093-.125-.042-.19-.088-.506.329.032.543.032h.135q.3-.38.728-1.021a11.985,11.985,0,0,0-1.382-1.452q-.037-.028-.037-.051A.316.316,0,0,1,19.5-6.3l.153-.181q.06-.065.083-.065t.06.037l.38.353a11.4,11.4,0,0,0,.733-1.276,2.414,2.414,0,0,0,.158-.445,4.933,4.933,0,0,1,.487.227q.107.065.107.116t-.083.116a.867.867,0,0,0-.2.264q-.431.747-.844,1.341.353.366.626.691.473-.761.8-1.331a2.172,2.172,0,0,0,.2-.455,3.737,3.737,0,0,1,.473.264q.088.06.088.107t-.093.125a1.732,1.732,0,0,0-.3.4q-.9,1.41-1.614,2.333.724-.042,1.47-.111a7.245,7.245,0,0,0-.3-.687.09.09,0,0,1-.019-.046q0-.037.121-.083l.172-.07a.38.38,0,0,1,.093-.023.069.069,0,0,1,.06.042A9.589,9.589,0,0,1,22.98-2.936Zm-2.449.617a.206.206,0,0,1-.037.116,1.01,1.01,0,0,0-.056.283,7.078,7.078,0,0,1-.431,1.786q-.056.153-.1.153a.363.363,0,0,1-.135-.065.993.993,0,0,0-.329-.144,6.387,6.387,0,0,0,.482-1.832q.014-.148.014-.274,0-.088,0-.195a3.748,3.748,0,0,1,.473.088Q20.531-2.366,20.531-2.319ZM22.9-.654a.377.377,0,0,1,0,.046q0,.046-.116.083l-.213.07a.45.45,0,0,1-.1.019q-.051,0-.06-.079a8.742,8.742,0,0,0-.436-1.832.14.14,0,0,1-.014-.046q0-.037.116-.074l.19-.06a.345.345,0,0,1,.083-.019q.037,0,.06.056A10.1,10.1,0,0,1,22.9-.654ZM36.7-5.042q0,.074-.079.074l-1.35-.019h-4.69v.019a17.194,17.194,0,0,1-.209,2.658,9.115,9.115,0,0,1-.348,1.433,5.4,5.4,0,0,1-.594,1.2q-.079.125-.1.125t-.13-.111a1.373,1.373,0,0,0-.353-.278,4.065,4.065,0,0,0,.682-1.3A8.353,8.353,0,0,0,29.813-2.5,19.4,19.4,0,0,0,30-5.455l-.019-1.832a.066.066,0,0,1,.074-.074l1.359.019h3.855l1.35-.019q.079,0,.079.074l-.019.724v.8Zm-.58-.478V-6.828H30.583V-5.52ZM37.1-1.169a2.857,2.857,0,0,1-.176.942.949.949,0,0,1-.278.339,4.1,4.1,0,0,1-2.213.353A4.631,4.631,0,0,1,32.345.209a.677.677,0,0,1-.232-.32,1.844,1.844,0,0,1-.06-.533V-2.992a11.672,11.672,0,0,0-.06-1.415q.38.014.64.046.125.014.125.093a.534.534,0,0,1-.06.181,4.735,4.735,0,0,0-.056,1.03v.682a12.365,12.365,0,0,0,2.728-1.16,2.118,2.118,0,0,0,.51-.39,2.832,2.832,0,0,1,.417.362.186.186,0,0,1,.07.135q0,.093-.125.111a3.109,3.109,0,0,0-.589.269,16.492,16.492,0,0,1-3.01,1.215v.854q0,.38.014.487a.345.345,0,0,0,.116.232A4.114,4.114,0,0,0,34.4-.088a3.862,3.862,0,0,0,1.814-.237.762.762,0,0,0,.25-.441,4.941,4.941,0,0,0,.079-.849,1.563,1.563,0,0,0,.408.209q.153.051.153.135Q37.1-1.248,37.1-1.169ZM46.967.051a.066.066,0,0,1-.074.074L45.672.107H39.846l-1.22.019a.066.066,0,0,1-.074-.074V-.38a.066.066,0,0,1,.074-.074l1.22.019H41.4V-2.25H40.176l-.807.019a.066.066,0,0,1-.074-.074l.019-.9V-4.226l-.019-.886a.066.066,0,0,1,.074-.074l.807.019H41.4V-6.675H39.985l-1.252.019a.066.066,0,0,1-.074-.074v-.422a.066.066,0,0,1,.074-.074l1.252.019h5.529l1.252-.019a.066.066,0,0,1,.074.074v.422a.066.066,0,0,1-.074.074l-1.252-.019H44.026v1.508h1.248l.816-.019q.07,0,.07.074l-.009.886V-3.2l.009.9q0,.074-.07.074l-.816-.019H44.026V-.436h1.647l1.22-.019a.066.066,0,0,1,.074.074ZM45.589-2.765V-4.653h-1.28l-.789.019a.066.066,0,0,1-.074-.074l.019-.761V-6.675h-1.5v1.2l.019.77q0,.074-.079.074l-.765-.019H39.874v1.888h1.262l.765-.019q.079,0,.079.074l-.019.83V-.436h1.5V-1.879l-.019-.83a.066.066,0,0,1,.074-.074l.789.019Z" transform="translate(-9 152.302)" fill="#efefef"/>
        <path id="Path_1849" data-name="Path 1849" d="M8.911-4.207q0,.074-.07.074L7.607-4.152H3.98a8.584,8.584,0,0,1-.988,1.294H4.778a5.693,5.693,0,0,0-.065-.951q.334.014.626.056.107.019.107.088a.5.5,0,0,1-.037.153,1.872,1.872,0,0,0-.07.654H6.49l1.387-.019a.066.066,0,0,1,.074.074l-.019.854v.515l.019.682a.687.687,0,0,1-.209.561A1.4,1.4,0,0,1,6.875,0q-.125,0-.237,0Q6.5,0,6.471-.046a.593.593,0,0,1-.06-.172,1.07,1.07,0,0,0-.162-.353q.431.042.8.042.325,0,.325-.353V-2.366H5.339V-.543L5.358.608q0,.065-.074.065h-.45q-.074,0-.074-.065l.019-1.15V-2.366H3V-.807l.019.789a.066.066,0,0,1-.074.074H2.5a.066.066,0,0,1-.074-.074l.019-.789V-2.329A10.457,10.457,0,0,1,.969-1.271a.806.806,0,0,1-.153.065Q.77-1.206.7-1.331a.931.931,0,0,0-.283-.3A7.734,7.734,0,0,0,3.344-4.152H1.879L.645-4.133q-.088,0-.088-.074v-.4q0-.074.088-.074l1.234.019H3.665q.158-.269.3-.561A1.744,1.744,0,0,0,4.1-5.673q.329.056.547.116.135.032.135.093a.136.136,0,0,1-.056.107.685.685,0,0,0-.2.237q-.2.376-.25.455H7.607l1.234-.019q.07,0,.07.074ZM7.227-5.515l-.2.255q-.06.079-.1.079a.145.145,0,0,1-.07-.032q-1.058-.617-1.893-1A15.848,15.848,0,0,1,1.842-5.191a.877.877,0,0,1-.13.019q-.07,0-.144-.144a1.142,1.142,0,0,0-.246-.334,14.8,14.8,0,0,0,3-.835q-.733-.3-1.967-.705Q2.3-7.2,2.3-7.232t.065-.1l.181-.19q.065-.065.1-.065A.2.2,0,0,1,2.7-7.58q1.262.4,2.231.807A11.658,11.658,0,0,0,6.248-7.58a1.514,1.514,0,0,0,.371-.343,4.834,4.834,0,0,1,.524.26q.083.051.083.111T7.1-7.445a1.025,1.025,0,0,0-.283.139,12.561,12.561,0,0,1-1.271.8q.705.32,1.67.835.056.028.056.06A.18.18,0,0,1,7.227-5.515Zm5.3-1.916L12.5-5.993v4.272l.009,1.3a.827.827,0,0,1-.227.682,1.211,1.211,0,0,1-.719.172l-.088,0q-.079,0-.1-.037a.59.59,0,0,1-.046-.148,1.242,1.242,0,0,0-.181-.39q.269.023.445.023.079,0,.162,0,.255-.014.255-.348V-2.607H10.975a8.79,8.79,0,0,1-.6,3.08Q10.316.6,10.279.6T10.163.524A1.1,1.1,0,0,0,9.834.292a5.671,5.671,0,0,0,.538-1.842,24.685,24.685,0,0,0,.135-2.983V-5.956l-.019-1.475a.074.074,0,0,1,.083-.083l.668.023h.552l.663-.023Q12.529-7.515,12.529-7.431Zm-.52,4.342v-1.74h-1v.306q0,.6-.019,1.433Zm0-2.222V-7h-1v1.688Zm4.949,1.257-.144.162q-.046.051-.07.051a.191.191,0,0,1-.07-.028q-.659-.334-.942-.459a8.163,8.163,0,0,1-1.341.455.653.653,0,0,1-.139.028q-.051,0-.116-.107a.7.7,0,0,0-.19-.19,9.129,9.129,0,0,0,1.331-.376q-.26-.107-1-.353-.046-.014-.046-.037t.056-.079L14.4-5.1q.051-.051.074-.051a.256.256,0,0,1,.051.009q.622.195,1.2.422a3.4,3.4,0,0,0,.552-.334,1.3,1.3,0,0,0,.255-.264,3.393,3.393,0,0,1,.325.176q.074.046.074.088t-.083.083a.935.935,0,0,0-.25.125q-.366.25-.455.3.1.046.8.38.051.032.051.051A.136.136,0,0,1,16.959-4.054Zm1.1.663q0,.074-.083.074L16.7-3.335H14.412l-1.285.019a.066.066,0,0,1-.074-.074l.023-.751v-.835l-.023-.751a.066.066,0,0,1,.074-.074l1.285.019H16.7L17.979-5.8q.083,0,.083.074l-.023.751v.835Zm-.515-.334v-1.67H13.559v1.67ZM17.293-.58a1.652,1.652,0,0,0-.037.237.372.372,0,0,1-.028.19.412.412,0,0,1-.153.07Q16.463.13,15.5.38q-.339.083-.362.1a.225.225,0,0,1-.111.056q-.056,0-.088-.107t-.111-.436a3.607,3.607,0,0,0,.436-.037v-2.12a5.047,5.047,0,0,0-.065-.96q.241.014.529.056.107.019.107.079a.259.259,0,0,1-.023.1q-.028.065-.037.083a2.593,2.593,0,0,0-.046.645V-.144A11.86,11.86,0,0,0,17.293-.58ZM14.937-.589a.944.944,0,0,0-.032.255.4.4,0,0,1-.023.181.572.572,0,0,1-.153.079q-.714.232-1.475.436a3.231,3.231,0,0,0-.357.1.261.261,0,0,1-.107.056q-.056,0-.083-.107-.1-.315-.125-.455a5.6,5.6,0,0,0,.561-.07v-2.05a5.047,5.047,0,0,0-.065-.96,5.289,5.289,0,0,1,.538.056q.093.019.093.079,0,.014-.046.181a2.593,2.593,0,0,0-.046.645V-.209A10.748,10.748,0,0,0,14.937-.589ZM18.81-.714Q18.689.543,18.2.543q-.4,0-.7-1.067a7.849,7.849,0,0,1-.3-1.832,5.977,5.977,0,0,0-.065-.751,4.929,4.929,0,0,1,.529.051q.107.014.107.074a.848.848,0,0,1-.056.19,1.022,1.022,0,0,0-.042.325q0,.028,0,.1a7.138,7.138,0,0,0,.255,1.642,2.8,2.8,0,0,0,.167.478q.1.2.148.2.107,0,.209-1.169a1.155,1.155,0,0,0,.255.237.192.192,0,0,1,.1.153Q18.819-.8,18.81-.714ZM18.021-6.22a.1.1,0,0,1,.037.06q0,.028-.056.06l-.237.135a.251.251,0,0,1-.093.032q-.032,0-.079-.051a6.024,6.024,0,0,0-.932-.886q-.083-.07-.083-.111t.074-.107a3.964,3.964,0,0,0,.524-.52,1.031,1.031,0,0,0,.19-.315,2.28,2.28,0,0,1,.408.144q.116.051.116.1t-.1.107a.907.907,0,0,0-.227.2q-.195.195-.436.4A6.3,6.3,0,0,1,18.021-6.22Zm-1.842.009a.081.081,0,0,1,.023.046q0,.032-.06.065l-.255.135a.261.261,0,0,1-.079.028.075.075,0,0,1-.056-.037,5.434,5.434,0,0,0-.858-.9q-.083-.07-.083-.1t.083-.116a3.967,3.967,0,0,0,.524-.52,1.536,1.536,0,0,0,.19-.325,3.643,3.643,0,0,1,.45.162q.083.037.083.083t-.107.107a1.821,1.821,0,0,0-.218.2q-.288.288-.436.417A7.137,7.137,0,0,1,16.18-6.211ZM14.4-7.7q0,.065-.1.107a2.454,2.454,0,0,0-.227.209,5.584,5.584,0,0,1-.436.417,4.386,4.386,0,0,1,.733.742.1.1,0,0,1,.023.056q0,.032-.07.065l-.25.125A.216.216,0,0,1,14-5.947q-.032,0-.06-.046a4.312,4.312,0,0,0-.775-.863.334.334,0,0,1-.074-.116q0-.042.074-.1a3.623,3.623,0,0,0,.533-.533,1,1,0,0,0,.181-.325q.162.046.417.144Q14.4-7.751,14.4-7.7Zm.617,5.413q.032.028.032.046a.159.159,0,0,1-.042.07l-.153.181q-.042.051-.06.051t-.051-.032a4.173,4.173,0,0,0-.8-.58Q13.9-2.579,13.9-2.6t.046-.07L14.06-2.8q.056-.065.083-.065a.135.135,0,0,1,.06.028A5.016,5.016,0,0,1,15.02-2.282Zm-.093,1.095a.063.063,0,0,1,.028.046.165.165,0,0,1-.037.07L14.765-.9q-.042.051-.065.051t-.051-.032a3.985,3.985,0,0,0-.789-.566q-.046-.032-.046-.051a.178.178,0,0,1,.046-.074l.116-.135q.056-.06.079-.06a.181.181,0,0,1,.065.023A5.567,5.567,0,0,1,14.927-1.187Zm2.115-1.044q.032.023.032.042a.132.132,0,0,1-.042.07l-.148.172q-.042.051-.065.051a.074.074,0,0,1-.051-.032A4.137,4.137,0,0,0,15.98-2.5q-.051-.032-.051-.051t.051-.07l.116-.125q.06-.06.083-.06a.157.157,0,0,1,.056.023A5.249,5.249,0,0,1,17.042-2.231ZM17.005-1.15q.032.028.032.046a.159.159,0,0,1-.042.07l-.144.181q-.037.046-.06.046a.077.077,0,0,1-.051-.028,3.806,3.806,0,0,0-.779-.571q-.046-.032-.046-.051a.178.178,0,0,1,.046-.074l.1-.13q.06-.065.083-.065a.15.15,0,0,1,.06.023A5.37,5.37,0,0,1,17.005-1.15Z" transform="translate(20 137.38)" fill="#efefef"/>
        <path id="Path_1848" data-name="Path 1848" d="M7.891.527Q7.891.61,7.8.61H7.319q-.068,0-.068-.083V.059h-4.5V.566q0,.083-.078.083H2.2q-.078,0-.078-.083l.02-1.787V-2.09l-.02-1.182A.069.069,0,0,1,2.2-3.35l1.382.02H6.431L7.8-3.35q.088,0,.088.078l-.02,1.05v.972ZM7.251-.5V-2.769h-4.5V-.5ZM9.067-4.482a.143.143,0,0,1,.029.063q0,.034-.1.107l-.288.19a.307.307,0,0,1-.127.063q-.029,0-.063-.049-.283-.405-.63-.815-3.13.4-6.094.552a1.408,1.408,0,0,0-.488.083.345.345,0,0,1-.171.059q-.083,0-.117-.122Q.942-4.619.869-5.01,1.2-5,1.514-5q.22,0,.386,0l.708-.029A22.153,22.153,0,0,0,3.9-7.651a2.649,2.649,0,0,0,.176-.679,4.112,4.112,0,0,1,.64.171q.151.059.151.142a.219.219,0,0,1-.078.146,1.588,1.588,0,0,0-.264.439A26.547,26.547,0,0,1,3.3-5.059q2.2-.127,4.16-.342A13.968,13.968,0,0,0,6.167-6.621q-.039-.034-.039-.059t.093-.1l.22-.146a.234.234,0,0,1,.112-.063.134.134,0,0,1,.078.034A15.134,15.134,0,0,1,9.067-4.482Zm10.068,3.34-.068.493a2.541,2.541,0,0,1-.259.9Q18.579.62,17.8.62q-.459,0-.83-.02a.383.383,0,0,1-.186-.044A.386.386,0,0,1,16.729.41a1.009,1.009,0,0,0-.142-.352,10.741,10.741,0,0,0,1.172.073q.464,0,.591-.259A1.958,1.958,0,0,0,18.5-.771H13.3l-.117.322q-.039.088-.1.088a.411.411,0,0,1-.073-.01L12.676-.43q-.107-.02-.107-.063a.345.345,0,0,1,.029-.1,9.248,9.248,0,0,0,.391-1.05,3.365,3.365,0,0,0,.1-.522.088.088,0,0,1,.1-.088l1.26.02h3.569v-.562H14.37l-1.362.02q-.078,0-.078-.088v-.322a.069.069,0,0,1,.078-.078l1.362.02H17.1l1.4-.02a.069.069,0,0,1,.078.078l-.02.522V-2.4l.02.552a.069.069,0,0,1-.078.078l-1.4-.02H13.618q-.117.415-.171.571h4.2l1.4-.02q.093,0,.093.073A.08.08,0,0,1,19.136-1.143Zm.371-4.434a.112.112,0,0,1,.015.044q0,.024-.083.063l-.151.068a.271.271,0,0,1-.093.034q-.029,0-.059-.063a2.448,2.448,0,0,1-.1-.239l-.571.083v1.128l.02.7q0,.083-.078.083h-.332q-.068,0-.068-.083l.02-.7V-5.527q-.371.039-.518.049a1.153,1.153,0,0,0-.352.073.212.212,0,0,1-.1.049q-.059,0-.088-.112a2.3,2.3,0,0,1-.078-.371q.142.01.249.01t.249-.01q.088-.088.469-.518a6.916,6.916,0,0,0-.815-.762q-.034-.024-.034-.044a.21.21,0,0,1,.049-.073L17.2-7.4q.044-.054.068-.054a.111.111,0,0,1,.063.034l.19.146a6.871,6.871,0,0,0,.41-.63,2.311,2.311,0,0,0,.146-.391,2.381,2.381,0,0,1,.391.171q.078.049.078.1t-.078.1a.619.619,0,0,0-.161.19,7.747,7.747,0,0,1-.518.713q.059.049.342.327a5.788,5.788,0,0,0,.376-.537,1.736,1.736,0,0,0,.19-.381,3.029,3.029,0,0,1,.352.21q.078.063.078.107t-.078.1a.819.819,0,0,0-.239.239,9.918,9.918,0,0,1-.933,1.079q.5-.044,1-.117l-.19-.312a.06.06,0,0,1-.015-.034q0-.029.063-.054l.151-.073a.236.236,0,0,1,.063-.02q.024,0,.059.039A4.888,4.888,0,0,1,19.507-5.576Zm-4.668.01a.112.112,0,0,1,.015.044q0,.024-.083.063l-.151.073a.3.3,0,0,1-.093.029q-.034,0-.059-.063t-.059-.132q-.034-.088-.039-.107l-.542.083v1.118l.02.7q0,.083-.078.083h-.332q-.068,0-.068-.083l.02-.7V-5.527q-.352.039-.488.049a1.153,1.153,0,0,0-.352.073.216.216,0,0,1-.1.049q-.059,0-.093-.112a2.3,2.3,0,0,1-.078-.371q.269.015.327.015t.132,0q.454-.5.488-.547a5.932,5.932,0,0,0-.85-.791q-.029-.029-.029-.044A.187.187,0,0,1,12.4-7.29l.142-.156q.044-.054.068-.054a.118.118,0,0,1,.063.029l.21.171a4.278,4.278,0,0,0,.4-.61,2.311,2.311,0,0,0,.146-.391,2.381,2.381,0,0,1,.391.171q.078.049.078.1t-.078.1a.619.619,0,0,0-.161.19q-.21.317-.508.688.239.22.352.342l.356-.518a1.736,1.736,0,0,0,.19-.381,3.029,3.029,0,0,1,.352.21q.078.063.078.107t-.078.1a.864.864,0,0,0-.244.239,8.961,8.961,0,0,1-.928,1.079q.288-.024.981-.107l-.19-.312A.06.06,0,0,1,14-6.323q0-.024.063-.054l.151-.073a.236.236,0,0,1,.063-.02q.024,0,.054.039A4.707,4.707,0,0,1,14.839-5.566Zm1.87,1.748a.069.069,0,0,1-.078.078l-.591-.02h-.41l-.586.02a.069.069,0,0,1-.078-.078l.024-.464v-.249l-.024-.454q0-.088.078-.088l.586.02h.41l.591-.02q.078,0,.078.088l-.02.454v.249Zm-.4-.283v-.61h-.942v.61Zm-4.072,1.89a19.729,19.729,0,0,1-.918,2.158,1.7,1.7,0,0,0-.19.43Q11.113.5,11.03.5a.23.23,0,0,1-.142-.059A3.807,3.807,0,0,1,10.459.1a3.9,3.9,0,0,0,.488-.747,14,14,0,0,0,.879-2.158,1.45,1.45,0,0,0,.293.288q.156.117.156.176A.368.368,0,0,1,12.236-2.212Zm.1-4.829q.034.034.034.054a.283.283,0,0,1-.063.107l-.21.239q-.068.083-.1.083a.093.093,0,0,1-.059-.034A6.942,6.942,0,0,0,10.8-7.632q-.054-.039-.054-.063t.068-.093L11-8.008q.063-.078.1-.078a.106.106,0,0,1,.054.024A6.718,6.718,0,0,1,12.339-7.041Zm-.322,2.393a.107.107,0,0,1,.039.063.225.225,0,0,1-.059.1l-.21.273q-.059.063-.078.063a.093.093,0,0,1-.059-.034,6.293,6.293,0,0,0-1.2-.972q-.054-.029-.054-.054a.186.186,0,0,1,.054-.093l.19-.254q.044-.059.073-.059a.166.166,0,0,1,.073.029A7.467,7.467,0,0,1,12.017-4.648Zm4.893-2.334a.073.073,0,0,1-.083.083l-.708-.02H15.5l-.728.02a.073.073,0,0,1-.083-.083v-.269q0-.078.083-.078l.728.02h.62l.708-.02q.083,0,.083.078Zm-.181-.776a.069.069,0,0,1-.078.078l-.581-.02h-.43l-.581.02a.069.069,0,0,1-.078-.078v-.249q0-.083.078-.083l.581.024h.43l.581-.024q.078,0,.078.083ZM16.68-5.5q0,.078-.083.078l-.557-.02h-.4l-.562.02A.069.069,0,0,1,15-5.5v-.239q0-.083.078-.083l.562.024h.4L16.6-5.82a.073.073,0,0,1,.083.083Zm0-.742q0,.078-.083.078l-.557-.02h-.4l-.562.02A.069.069,0,0,1,15-6.24v-.239a.069.069,0,0,1,.078-.078l.562.02h.4l.557-.02q.083,0,.083.078Zm-3.5,1.182a.151.151,0,0,1-.049.093.883.883,0,0,0-.122.259,6.19,6.19,0,0,1-.288.771q-.049.107-.093.107a.219.219,0,0,1-.088-.039,1.061,1.061,0,0,0-.269-.122,4.212,4.212,0,0,0,.347-.83,1.576,1.576,0,0,0,.083-.42,2.486,2.486,0,0,1,.356.093Q13.179-5.107,13.179-5.059Zm4.609,0a.151.151,0,0,1-.049.093.883.883,0,0,0-.122.259,5.935,5.935,0,0,1-.288.762q-.054.107-.093.107a.219.219,0,0,1-.088-.039A1.061,1.061,0,0,0,16.88-4a4.225,4.225,0,0,0,.347-.82,1.576,1.576,0,0,0,.083-.42,2.281,2.281,0,0,1,.356.093Q17.788-5.107,17.788-5.059Zm1.758.908a1.308,1.308,0,0,0-.259.122.218.218,0,0,1-.107.059q-.039,0-.083-.1a5.544,5.544,0,0,1-.366-.991.155.155,0,0,1-.01-.044q0-.034.1-.063L19-5.22a.269.269,0,0,1,.054-.01q.029,0,.044.054A4.514,4.514,0,0,0,19.546-4.15Zm-4.829-.166a.206.206,0,0,1,0,.034q0,.044-.083.063l-.2.049a.283.283,0,0,1-.073.015q-.039,0-.049-.063a4.081,4.081,0,0,0-.239-.889.112.112,0,0,1-.01-.034q0-.039.093-.059l.156-.039a.61.61,0,0,1,.063-.01q.029,0,.059.049A4.054,4.054,0,0,1,14.717-4.316Z" transform="translate(20 116.457)" fill="#4891f2"/>
        <path id="Path_1847" data-name="Path 1847" d="M7.552.274a.066.066,0,0,1-.074.074H7.018A.066.066,0,0,1,6.944.274v-.58h-4.4v.6q0,.074-.065.074H2.013A.066.066,0,0,1,1.939.292l.019-3.256V-4.8L1.939-7.19q0-.079.074-.079l1.322.019h2.82l1.322-.019q.074,0,.074.079L7.533-5.038v2.073ZM6.944-.849V-3.6h-4.4V-.849Zm0-3.284V-6.708h-4.4v2.574Zm11.7,2.667a1.64,1.64,0,0,0-.274.362q-.088.144-.116.144a.525.525,0,0,1-.139-.065,9.989,9.989,0,0,1-3.7-3.994q0,1.387.019,3.289h.682l1.188-.019q.079,0,.079.074v.408a.07.07,0,0,1-.079.079l-1.187-.019h-.673q.009.533.028,1.285.009.455.009.51a.066.066,0,0,1-.074.074h-.506a.066.066,0,0,1-.074-.074q0-.037,0-.3.019-.821.023-1.5h-.58L12.1-1.187q-.074,0-.074-.079v-.408a.066.066,0,0,1,.074-.074l1.178.019h.589q.028-1.382.028-3.191A9.966,9.966,0,0,1,10.432-.988a.46.46,0,0,1-.153.074q-.056,0-.116-.135a1.082,1.082,0,0,0-.283-.339,8.889,8.889,0,0,0,2.194-1.772A10,10,0,0,0,13.587-5.3H11.573l-1.266.019a.066.066,0,0,1-.074-.074v-.431a.066.066,0,0,1,.074-.074l1.266.019H13.86v-.844a7.123,7.123,0,0,0-.065-1.15,5.826,5.826,0,0,1,.654.056q.116.019.116.079a.3.3,0,0,1-.023.107,1.012,1.012,0,0,0-.032.1,3.815,3.815,0,0,0-.051.8v.854H16.94l1.271-.019a.066.066,0,0,1,.074.074v.431a.066.066,0,0,1-.074.074L16.94-5.3H14.723A9.66,9.66,0,0,0,18.647-1.466Z" transform="translate(20 98.535)" fill="#efefef"/>
        <path id="Path_1846" data-name="Path 1846" d="M8.906-3.479q0,.083-.088.083L7.575-3.414H1.953L.705-3.4q-.074,0-.074-.083V-3.85a.066.066,0,0,1,.074-.074l1.248.019h2.44V-4.82H3.052L1.712-4.8q-.065,0-.065-.074v-.362q0-.074.065-.074l1.341.019H4.393v-.835h-1.8l-1.331.019a.066.066,0,0,1-.074-.074v-.362a.066.066,0,0,1,.074-.074L2.588-6.6H5.381a9.729,9.729,0,0,0,.5-.854,1.763,1.763,0,0,0,.139-.436,3.466,3.466,0,0,1,.533.176q.107.056.107.116a.135.135,0,0,1-.088.116.551.551,0,0,0-.172.176q-.218.366-.464.705H6.949l1.322-.019a.066.066,0,0,1,.074.074v.362a.066.066,0,0,1-.074.074L6.949-6.128H4.963v.835H6.452l1.331-.019q.079,0,.079.074v.362q0,.074-.079.074L6.452-4.82H4.963v.914H7.575l1.243-.019q.088,0,.088.074Zm.111,3.6a1.016,1.016,0,0,0-.237.371Q8.7.663,8.633.663A.713.713,0,0,1,8.512.645,5.445,5.445,0,0,1,4.657-1.721a3.333,3.333,0,0,1-1,1.28A6.011,6.011,0,0,1,1.03.645,1,1,0,0,1,.9.663Q.83.663.761.5A1.088,1.088,0,0,0,.524.148,5.68,5.68,0,0,0,3.307-.835,2.482,2.482,0,0,0,4.142-1.92H2.185L.9-1.9A.066.066,0,0,1,.83-1.976v-.38A.066.066,0,0,1,.9-2.431l1.28.019h2.1a2.67,2.67,0,0,0,.06-.547,1.693,1.693,0,0,0-.023-.288q.339.028.543.065.153.032.153.107a.313.313,0,0,1-.065.158,2.54,2.54,0,0,0-.107.506h2.5l1.285-.019a.066.066,0,0,1,.074.074v.38a.066.066,0,0,1-.074.074L7.343-1.92H5.038A5.421,5.421,0,0,0,9.018.121Zm-5.2-7.13a.149.149,0,0,1,.023.065q0,.037-.1.083l-.246.125a.449.449,0,0,1-.121.046q-.032,0-.06-.056a3.348,3.348,0,0,0-.552-.826.137.137,0,0,1-.037-.07q0-.046.1-.083l.255-.116a.281.281,0,0,1,.093-.028.118.118,0,0,1,.07.037A4.571,4.571,0,0,1,3.813-7.009Zm13.429,5.33a1.5,1.5,0,0,1-.325.71.577.577,0,0,1-.427.162q-.594,0-1.072-1.118a6.493,6.493,0,0,1-1.48,1.15A.765.765,0,0,1,13.8-.71q-.056,0-.153-.125a1.162,1.162,0,0,0-.255-.246,5.346,5.346,0,0,0,1.832-1.35L15.2-2.514a12.7,12.7,0,0,1-.436-2.635H12.9l-1.3.019q-.088,0-.088-.074v-.343q0-.074.088-.074l1.3.019h1.837a2.537,2.537,0,0,1-.009-.255,6.2,6.2,0,0,0-.079-.789,2.678,2.678,0,0,1,.515.046q.153.028.153.1a.357.357,0,0,1-.046.144.672.672,0,0,0-.032.264V-5.6h.427l1.313-.019a.066.066,0,0,1,.074.074V-5.2a.066.066,0,0,1-.074.074l-1.313-.019h-.4A14.2,14.2,0,0,0,15.6-2.941a4.6,4.6,0,0,0,.408-.83,3.188,3.188,0,0,0,.218-.747,2.381,2.381,0,0,1,.464.2q.1.046.1.121,0,.037-.107.144a2.173,2.173,0,0,0-.218.436,7.682,7.682,0,0,1-.691,1.243,3.5,3.5,0,0,0,.408.8q.186.26.311.26.292,0,.38-.891a1.089,1.089,0,0,0,.278.25q.121.074.121.135A.732.732,0,0,1,17.242-1.679ZM14.143-2.8a.066.066,0,0,1-.074.074l-.71-.019h-.608l-.724.019a.066.066,0,0,1-.074-.074l.019-.6v-.469l-.019-.608a.066.066,0,0,1,.074-.074l.724.019h.608l.71-.019a.066.066,0,0,1,.074.074l-.019.608V-3.4Zm-.482-.325V-4.152H12.436v1.025Zm.779.659a1.834,1.834,0,0,0-.056.32.349.349,0,0,1-.046.181.412.412,0,0,1-.153.07q-.932.278-1.995.492a1.513,1.513,0,0,0-.39.125.247.247,0,0,1-.116.056q-.056,0-.093-.1a4.3,4.3,0,0,1-.144-.51,4.237,4.237,0,0,0,.844-.1A13.242,13.242,0,0,0,14.44-2.468ZM16.7-6.044a.1.1,0,0,1,.023.051q0,.019-.056.074l-.167.153a.269.269,0,0,1-.1.06q-.014,0-.051-.042a4.146,4.146,0,0,0-.617-.617q-.037-.028-.037-.042t.074-.074l.172-.13a.13.13,0,0,1,.074-.042.107.107,0,0,1,.056.032A5.646,5.646,0,0,1,16.7-6.044ZM18.04.631q0,.074-.083.074h-.431a.066.066,0,0,1-.074-.074V.116h-6.4V.631a.066.066,0,0,1-.074.074h-.441A.066.066,0,0,1,10.46.631l.019-3.558v-1.9L10.46-7.362a.066.066,0,0,1,.074-.074l1.322.019h4.787l1.313-.019q.083,0,.083.074l-.019,2.254v2.18ZM17.451-.39V-6.9h-6.4V-.39Z" transform="translate(20 82.612)" fill="#efefef"/>
        <path id="Path_1845" data-name="Path 1845" d="M9.175-1.072a1.616,1.616,0,0,0-.306.394q-.07.125-.116.125a.258.258,0,0,1-.13-.074A7.884,7.884,0,0,1,5.831-5.112q0,.473.042,2.728Q5.9-1,5.9-.343a.727.727,0,0,1-.334.673A2.44,2.44,0,0,1,4.444.492.3.3,0,0,1,4.272.464.492.492,0,0,1,4.2.3,1.241,1.241,0,0,0,4-.125q.478.037.8.037a.663.663,0,0,0,.4-.088.307.307,0,0,0,.1-.26V-6.745a6.424,6.424,0,0,0-.065-1.044,4.681,4.681,0,0,1,.622.046q.125.014.125.083a.706.706,0,0,1-.065.2,3,3,0,0,0-.046.705v.4a9.4,9.4,0,0,0,.7,2.148,10.6,10.6,0,0,0,1.2-1.368,2.09,2.09,0,0,0,.255-.455A4.122,4.122,0,0,1,8.54-5.7a.2.2,0,0,1,.083.135q0,.07-.107.121a2.374,2.374,0,0,0-.445.422A16.366,16.366,0,0,1,6.81-3.753,7.42,7.42,0,0,0,9.175-1.072Zm-4.2-3.762A.219.219,0,0,1,4.9-4.7a.577.577,0,0,0-.153.274,9.284,9.284,0,0,1-.914,2.217A8.027,8.027,0,0,1,2.574-.622a.332.332,0,0,1-.135.083q-.037,0-.125-.116A1.271,1.271,0,0,0,2-.946a6.914,6.914,0,0,0,1.466-1.8A8.337,8.337,0,0,0,4.235-4.7H3.358l-.816.019q-.065,0-.065-.079v-.408q0-.074.065-.074l.816.019h.9a.517.517,0,0,0,.181-.028.582.582,0,0,1,.1-.028q.083,0,.255.181Q4.977-4.894,4.977-4.833ZM2.412-2.774a19.4,19.4,0,0,1-1.076,2.4,2.386,2.386,0,0,0-.181.408q-.028.107-.111.107A.257.257,0,0,1,.891.07q-.218-.19-.4-.376A4.484,4.484,0,0,0,.965-.979,14.471,14.471,0,0,0,2.022-3.354a3.061,3.061,0,0,0,.292.283q.13.1.13.153A.7.7,0,0,1,2.412-2.774ZM2.449-5.91a.1.1,0,0,1,.023.056q0,.028-.06.088l-.269.246q-.07.07-.1.07T1.971-5.5A7.293,7.293,0,0,0,.728-6.963Q.682-7,.682-7.028t.083-.1L1-7.315q.065-.06.1-.06a.074.074,0,0,1,.051.032A8.579,8.579,0,0,1,2.449-5.91ZM18.323-3.191a.074.074,0,0,1-.083.083L16.9-3.126h-4.88v.677h4.606l1.336-.019q.088,0,.088.083-.019.107-.032.306-.019.227-.023.274a5.153,5.153,0,0,1-.45,2,.935.935,0,0,1-.789.39q-.408,0-.691-.019-.116-.009-.139-.037A.514.514,0,0,1,15.883.39a1.073,1.073,0,0,0-.144-.417,5.621,5.621,0,0,0,.877.074.482.482,0,0,0,.464-.218,5.24,5.24,0,0,0,.353-1.842H13.369V-.635h1.707V-1.16a2.813,2.813,0,0,0-.046-.538q.376.028.6.065.1.014.1.074a.657.657,0,0,1-.051.144.848.848,0,0,0-.046.315v.5l.019.343q0,.083-.079.083Q15.312-.19,14.25-.19H11.1V.218a.066.066,0,0,1-.074.074h-.408q-.079,0-.079-.074l.019-.51v-.77a2.653,2.653,0,0,0-.056-.608,5.013,5.013,0,0,1,.6.056q.1.014.1.074a.262.262,0,0,1-.051.135.686.686,0,0,0-.037.274v.5h1.7V-2.013l-1.3.019a.066.066,0,0,1-.074-.074l.019-1.15V-5.747l-.019-1.132a.066.066,0,0,1,.074-.074l1.294.019h.343l.274-.552A1.619,1.619,0,0,0,13.568-8a4.6,4.6,0,0,1,.594.13q.1.032.1.107,0,.046-.088.111a.494.494,0,0,0-.13.172q-.213.431-.274.543h1.517l1.29-.019q.079,0,.079.074l-.019.789v1.016l.019.779q0,.083-.079.083l-1.29-.019H12.019v.649H16.9L18.239-3.6q.083,0,.083.074Zm-2.25-1.484v-.71H12.019v.71Zm0-1.136V-6.49H12.019v.677Z" transform="translate(20 67.69)" fill="#efefef"/>
        <path id="Path_1844" data-name="Path 1844" d="M5.548-4.694a.142.142,0,0,1,.019.056q0,.042-.074.088l-.278.181a.3.3,0,0,1-.125.056q-.032,0-.065-.056A8.522,8.522,0,0,0,3.85-6a.105.105,0,0,1-.032-.06q0-.028.079-.083L4.133-6.3a.276.276,0,0,1,.1-.056q.019,0,.051.037A10.056,10.056,0,0,1,5.548-4.694Zm3.409,1.41a.066.066,0,0,1-.074.074L7.658-3.229H7.505v1.651L7.524-.3a.812.812,0,0,1-.246.654,2.611,2.611,0,0,1-1.294.19A.3.3,0,0,1,5.8.51.448.448,0,0,1,5.747.343a.988.988,0,0,0-.181-.427q.473.037,1.025.037.334,0,.334-.39V-3.229H2.565A7,7,0,0,1,2.022-.891,4.783,4.783,0,0,1,1.053.492q-.093.1-.135.1a.5.5,0,0,1-.13-.1A1.168,1.168,0,0,0,.39.255a4.379,4.379,0,0,0,1.132-1.5,6.266,6.266,0,0,0,.455-1.985H1.86L.635-3.21a.066.066,0,0,1-.074-.074v-.431q0-.065.074-.065l1.225.019h.153q.019-.473.019-.751V-5.859L2.013-7.315a.066.066,0,0,1,.074-.074L3.4-7.371H6.137L7.45-7.389a.066.066,0,0,1,.074.074L7.505-5.859v2.1h.153l1.225-.019q.074,0,.074.065ZM6.926-3.762V-6.837H2.612V-4.5q0,.288-.019.742ZM17.061-.042q.046.032.046.051a.236.236,0,0,1-.056.1l-.19.264q-.06.093-.1.093a.145.145,0,0,1-.07-.032A18.448,18.448,0,0,0,14.612-.775,10.733,10.733,0,0,1,11.012.6.639.639,0,0,1,10.9.622q-.074,0-.162-.172A1.748,1.748,0,0,0,10.5.139,10.39,10.39,0,0,0,14.06-1.048q-.645-.3-1.712-.733a9.487,9.487,0,0,1-1.234.687.526.526,0,0,1-.144.046q-.046,0-.111-.093a1.152,1.152,0,0,0-.264-.269,6.354,6.354,0,0,0,2.551-1.707,1.586,1.586,0,0,0,.278-.408q.264.065.524.153a.092.092,0,0,1,.065.1q0,.051-.088.1a.85.85,0,0,0-.246.227l-.046.046H15.79a.617.617,0,0,0,.19-.019.316.316,0,0,1,.1-.028.533.533,0,0,1,.278.162q.181.167.181.237a.125.125,0,0,1-.083.111.9.9,0,0,0-.25.209,8.14,8.14,0,0,1-1.113,1.1A20.87,20.87,0,0,1,17.061-.042ZM15.7-2.454H13.2q-.172.167-.39.343,1.1.431,1.767.738A5.38,5.38,0,0,0,15.7-2.454Zm2.908-.779a1.014,1.014,0,0,0-.218.362q-.07.172-.139.172a.521.521,0,0,1-.135-.032A8.113,8.113,0,0,1,14.44-4.755q0,.3.028.71.019.306.019.385a.066.066,0,0,1-.074.074h-.459a.066.066,0,0,1-.074-.074q0-.065.023-.45.019-.348.023-.635a7.964,7.964,0,0,1-3.535,2.009.489.489,0,0,1-.125.028q-.07,0-.139-.144A1.29,1.29,0,0,0,9.9-3.2a7.633,7.633,0,0,0,4.008-2.138V-6.559H11.625l-1.28.019a.066.066,0,0,1-.074-.074v-.362a.066.066,0,0,1,.074-.074l1.28.019h2.282v-.046a3.771,3.771,0,0,0-.065-.835,4.574,4.574,0,0,1,.608.06q.1.014.1.083a.319.319,0,0,1-.037.125,1.544,1.544,0,0,0-.056.538v.074h2.384l1.285-.019a.066.066,0,0,1,.074.074v.362a.066.066,0,0,1-.074.074l-1.285-.019H14.459V-5.3a6.688,6.688,0,0,0,1.948,1.35A12.229,12.229,0,0,0,18.61-3.233Zm-.482-1.443a1.19,1.19,0,0,0-.232.325q-.065.125-.111.125a.273.273,0,0,1-.116-.046A5.826,5.826,0,0,1,16.235-5.4a3.3,3.3,0,0,1-.571.645.278.278,0,0,1-.135.074q-.028,0-.1-.074a1.131,1.131,0,0,0-.274-.218,3.227,3.227,0,0,0,.872-1.016,1.577,1.577,0,0,0,.153-.417,3.2,3.2,0,0,1,.464.167q.074.042.074.1t-.074.1a.7.7,0,0,0-.162.232A4.92,4.92,0,0,0,18.128-4.676Zm-4.991-.329a2.126,2.126,0,0,0-.237.237q-.083.111-.121.111a.356.356,0,0,1-.144-.074,4.035,4.035,0,0,1-.7-.626,4.756,4.756,0,0,1-1.034,1.016.59.59,0,0,1-.135.065q-.037,0-.121-.111a.954.954,0,0,0-.269-.246,3.543,3.543,0,0,0,1.378-1.359,1.389,1.389,0,0,0,.172-.427,3.956,3.956,0,0,1,.478.167q.093.051.093.1a.125.125,0,0,1-.074.111.573.573,0,0,0-.181.2l-.056.107A3.644,3.644,0,0,0,13.137-5.005Z" transform="translate(20 51.768)" fill="#efefef"/>
        <path id="Path_1843" data-name="Path 1843" d="M4.161-6.281q0,.079-.083.079L2.964-6.225H2.718v.858h.162l.979-.019q.065,0,.065.074l-.009.867v1.252l.009.872q0,.074-.065.074l-.979-.019H2.718v.9h.19l1.123-.019q.074,0,.074.065v.371a.066.066,0,0,1-.074.074L2.908-.886h-.19V-.45L2.737.645q0,.065-.074.065H2.25q-.074,0-.074-.065L2.194-.45V-.886H1.749L.608-.867q-.065,0-.065-.074v-.371a.057.057,0,0,1,.065-.065l1.141.019h.445v-.9H2.022l-.969.019a.066.066,0,0,1-.074-.074L1-3.191V-4.444L.979-5.311a.066.066,0,0,1,.074-.074l.969.019h.172v-.858H1.823L.705-6.2a.07.07,0,0,1-.079-.079v-.362q0-.074.079-.074L1.823-6.7h.371V-6.8a7.244,7.244,0,0,0-.065-1.062q.343.014.58.046.107.019.107.088a1.209,1.209,0,0,1-.037.153,2.277,2.277,0,0,0-.06.663V-6.7h.246l1.113-.019q.083,0,.083.074ZM3.423-2.7v-.928H1.5V-2.7Zm0-1.354v-.877H1.5v.877ZM9.12-.571A.066.066,0,0,1,9.045-.5L7.784-.515h-.64V-.39L7.162.626A.066.066,0,0,1,7.088.7H6.67A.066.066,0,0,1,6.6.626L6.615-.39V-.515H5.52L4.258-.5q-.079,0-.079-.074V-.914q0-.074.079-.074l.13,0q.139.009.306.014v-.682l-.019-.543a.066.066,0,0,1,.074-.074L5.9-2.25h.714v-.677h-.7l-1.058.019q-.074,0-.074-.083l.023-.571v-.469L4.787-4.6q0-.083.074-.083l1.058.019H7.185l1.044-.019q.074,0,.074.083l-.019.571v.469l.019.571q0,.083-.074.083L7.185-2.927H7.144v.677H7.5l1.132-.019a.066.066,0,0,1,.074.074v.334a.066.066,0,0,1-.074.074L7.5-1.8H7.144v.835h.64L9.045-.988a.066.066,0,0,1,.074.074ZM7.76-3.344V-4.23H5.321v.886ZM6.615-.969V-1.8H5.209v.835ZM9.027-5.321q0,.083-.065.083L7.719-5.256H5.571l-1.248.019q-.065,0-.065-.083v-.325q0-.074.065-.074L5.437-5.7q.167-.436.306-.891l-.979.019q-.079,0-.079-.074v-.325q0-.074.079-.074l1.025.019h.074l.088-.315A2.208,2.208,0,0,0,6.026-7.9a3.928,3.928,0,0,1,.566.07q.116.014.116.083a.248.248,0,0,1-.065.135.731.731,0,0,0-.111.227l-.1.353h.617L8.1-7.046a.066.066,0,0,1,.074.074l-.019.543V-5.7l.807-.019q.065,0,.065.074ZM7.621-5.7v-.891H6.3q-.162.529-.292.891Zm9.621,4.022a1.5,1.5,0,0,1-.325.71.577.577,0,0,1-.427.162q-.594,0-1.072-1.118a6.493,6.493,0,0,1-1.48,1.15A.765.765,0,0,1,13.8-.71q-.056,0-.153-.125a1.162,1.162,0,0,0-.255-.246,5.346,5.346,0,0,0,1.832-1.35L15.2-2.514a12.7,12.7,0,0,1-.436-2.635H12.9l-1.3.019q-.088,0-.088-.074v-.343q0-.074.088-.074l1.3.019h1.837a2.537,2.537,0,0,1-.009-.255,6.2,6.2,0,0,0-.079-.789,2.678,2.678,0,0,1,.515.046q.153.028.153.1a.357.357,0,0,1-.046.144.672.672,0,0,0-.032.264V-5.6h.427l1.313-.019a.066.066,0,0,1,.074.074V-5.2a.066.066,0,0,1-.074.074l-1.313-.019h-.4A14.2,14.2,0,0,0,15.6-2.941a4.6,4.6,0,0,0,.408-.83,3.188,3.188,0,0,0,.218-.747,2.381,2.381,0,0,1,.464.2q.1.046.1.121,0,.037-.107.144a2.173,2.173,0,0,0-.218.436,7.682,7.682,0,0,1-.691,1.243,3.5,3.5,0,0,0,.408.8q.186.26.311.26.292,0,.38-.891a1.089,1.089,0,0,0,.278.25q.121.074.121.135A.732.732,0,0,1,17.242-1.679ZM14.143-2.8a.066.066,0,0,1-.074.074l-.71-.019h-.608l-.724.019a.066.066,0,0,1-.074-.074l.019-.6v-.469l-.019-.608a.066.066,0,0,1,.074-.074l.724.019h.608l.71-.019a.066.066,0,0,1,.074.074l-.019.608V-3.4Zm-.482-.325V-4.152H12.436v1.025Zm.779.659a1.834,1.834,0,0,0-.056.32.349.349,0,0,1-.046.181.412.412,0,0,1-.153.07q-.932.278-1.995.492a1.513,1.513,0,0,0-.39.125.247.247,0,0,1-.116.056q-.056,0-.093-.1a4.3,4.3,0,0,1-.144-.51,4.237,4.237,0,0,0,.844-.1A13.242,13.242,0,0,0,14.44-2.468ZM16.7-6.044a.1.1,0,0,1,.023.051q0,.019-.056.074l-.167.153a.269.269,0,0,1-.1.06q-.014,0-.051-.042a4.146,4.146,0,0,0-.617-.617q-.037-.028-.037-.042t.074-.074l.172-.13a.13.13,0,0,1,.074-.042.107.107,0,0,1,.056.032A5.646,5.646,0,0,1,16.7-6.044ZM18.04.631q0,.074-.083.074h-.431a.066.066,0,0,1-.074-.074V.116h-6.4V.631a.066.066,0,0,1-.074.074h-.441A.066.066,0,0,1,10.46.631l.019-3.558v-1.9L10.46-7.362a.066.066,0,0,1,.074-.074l1.322.019h4.787l1.313-.019q.083,0,.083.074l-.019,2.254v2.18ZM17.451-.39V-6.9h-6.4V-.39Z" transform="translate(20 37.845)" fill="#efefef"/>
        <path id="Path_1842" data-name="Path 1842" d="M8.985.056a1.161,1.161,0,0,0-.264.4q-.079.172-.153.172A.49.49,0,0,1,8.433.6,7,7,0,0,1,6.128-.38,4.911,4.911,0,0,1,4.6-1.967a3.854,3.854,0,0,1-.39.733A5.2,5.2,0,0,1,1.127.6Q1.016.617,1,.617.918.617.844.464A1.651,1.651,0,0,0,.58.125,4.95,4.95,0,0,0,3.781-1.6a2.525,2.525,0,0,0,.3-.6h-2.1L.719-2.176A.066.066,0,0,1,.645-2.25v-.4a.066.066,0,0,1,.074-.074l1.132.019V-4.026l-.019-.812a.066.066,0,0,1,.074-.074l1.341.019h1.16a6.316,6.316,0,0,0-.056-.993q.223.009.584.046.135.014.135.093a.969.969,0,0,1-.046.162,3.019,3.019,0,0,0-.056.691H6.174l1.331-.019a.066.066,0,0,1,.074.074l-.019.812v1.317l1.188-.019a.066.066,0,0,1,.074.074v.4a.066.066,0,0,1-.074.074L7.487-2.194H5.042A5.541,5.541,0,0,0,8.985.056ZM6.99-2.709V-4.388H4.959a10.984,10.984,0,0,1-.153,1.679ZM4.4-4.388H2.412v1.679H4.244A8.789,8.789,0,0,0,4.4-4.388ZM8.855-6.4q0,.074-.079.074L7.542-6.346H6.234l.019.77q0,.074-.079.074H5.757a.066.066,0,0,1-.074-.074l.019-.77H3.706l.019.77a.066.066,0,0,1-.074.074H3.219q-.065,0-.065-.074l.019-.77H1.9L.663-6.327A.066.066,0,0,1,.589-6.4v-.413a.066.066,0,0,1,.074-.074L1.9-6.87H3.173a4.807,4.807,0,0,0-.065-1q.292.014.6.046.1.019.1.088a.3.3,0,0,1-.046.121,2.632,2.632,0,0,0-.056.742H5.7a4.876,4.876,0,0,0-.065-1.007,4.633,4.633,0,0,1,.594.056q.107.019.107.088a.229.229,0,0,1-.046.121,2.276,2.276,0,0,0-.056.7v.046H7.542l1.234-.019q.079,0,.079.074Zm8.387,4.722a1.5,1.5,0,0,1-.325.71.577.577,0,0,1-.427.162q-.594,0-1.072-1.118a6.493,6.493,0,0,1-1.48,1.15A.765.765,0,0,1,13.8-.71q-.056,0-.153-.125a1.162,1.162,0,0,0-.255-.246,5.346,5.346,0,0,0,1.832-1.35L15.2-2.514a12.7,12.7,0,0,1-.436-2.635H12.9l-1.3.019q-.088,0-.088-.074v-.343q0-.074.088-.074l1.3.019h1.837a2.537,2.537,0,0,1-.009-.255,6.2,6.2,0,0,0-.079-.789,2.678,2.678,0,0,1,.515.046q.153.028.153.1a.357.357,0,0,1-.046.144.672.672,0,0,0-.032.264V-5.6h.427l1.313-.019a.066.066,0,0,1,.074.074V-5.2a.066.066,0,0,1-.074.074l-1.313-.019h-.4A14.2,14.2,0,0,0,15.6-2.941a4.6,4.6,0,0,0,.408-.83,3.188,3.188,0,0,0,.218-.747,2.381,2.381,0,0,1,.464.2q.1.046.1.121,0,.037-.107.144a2.173,2.173,0,0,0-.218.436,7.682,7.682,0,0,1-.691,1.243,3.5,3.5,0,0,0,.408.8q.186.26.311.26.292,0,.38-.891a1.089,1.089,0,0,0,.278.25q.121.074.121.135A.732.732,0,0,1,17.242-1.679ZM14.143-2.8a.066.066,0,0,1-.074.074l-.71-.019h-.608l-.724.019a.066.066,0,0,1-.074-.074l.019-.6v-.469l-.019-.608a.066.066,0,0,1,.074-.074l.724.019h.608l.71-.019a.066.066,0,0,1,.074.074l-.019.608V-3.4Zm-.482-.325V-4.152H12.436v1.025Zm.779.659a1.834,1.834,0,0,0-.056.32.349.349,0,0,1-.046.181.412.412,0,0,1-.153.07q-.932.278-1.995.492a1.513,1.513,0,0,0-.39.125.247.247,0,0,1-.116.056q-.056,0-.093-.1a4.3,4.3,0,0,1-.144-.51,4.237,4.237,0,0,0,.844-.1A13.242,13.242,0,0,0,14.44-2.468ZM16.7-6.044a.1.1,0,0,1,.023.051q0,.019-.056.074l-.167.153a.269.269,0,0,1-.1.06q-.014,0-.051-.042a4.146,4.146,0,0,0-.617-.617q-.037-.028-.037-.042t.074-.074l.172-.13a.13.13,0,0,1,.074-.042.107.107,0,0,1,.056.032A5.646,5.646,0,0,1,16.7-6.044ZM18.04.631q0,.074-.083.074h-.431a.066.066,0,0,1-.074-.074V.116h-6.4V.631a.066.066,0,0,1-.074.074h-.441A.066.066,0,0,1,10.46.631l.019-3.558v-1.9L10.46-7.362a.066.066,0,0,1,.074-.074l1.322.019h4.787l1.313-.019q.083,0,.083.074l-.019,2.254v2.18ZM17.451-.39V-6.9h-6.4V-.39Z" transform="translate(20 22.923)" fill="#efefef"/>
        <path id="Path_1841" data-name="Path 1841" d="M9.12-4.217a.066.066,0,0,1-.074.074L7.9-4.161H7.849V-.807L7.867.608a.066.066,0,0,1-.074.074H7.324A.066.066,0,0,1,7.25.608L7.269-.807V-4.161H5.854a12.055,12.055,0,0,1-.237,2.783A4.848,4.848,0,0,1,4.648.5q-.079.107-.135.107A.219.219,0,0,1,4.388.533,1,1,0,0,0,4.031.315,4.343,4.343,0,0,0,5.112-1.679,12.989,12.989,0,0,0,5.3-4.351V-5.52a12.032,12.032,0,0,0-.065-1.341,3.241,3.241,0,0,1,.617.19,8.763,8.763,0,0,0,1.888-.742,2.317,2.317,0,0,0,.478-.343,2.925,2.925,0,0,1,.417.431.214.214,0,0,1,.056.13q0,.07-.125.088A1.067,1.067,0,0,0,8.22-7a12.326,12.326,0,0,1-2.366.858v1.461H7.9l1.15-.019a.066.066,0,0,1,.074.074ZM4.7-2.63q0,.074-.079.074L3.479-2.574h-.3a3.376,3.376,0,0,0,.654.714,6.03,6.03,0,0,0,.751.5,1.051,1.051,0,0,0-.227.334q-.056.111-.083.111T4.142-1a4.3,4.3,0,0,1-1.16-1.271q.009.9.042,1.93.023.751.023.9,0,.074-.083.074H2.537q-.079,0-.079-.074,0-.209.019-1.044.028-.983.042-1.675A6.044,6.044,0,0,1,.9-.2a.331.331,0,0,1-.139.074q-.037,0-.1-.111A1.036,1.036,0,0,0,.408-.589a5.909,5.909,0,0,0,1.9-1.985H1.823l-1.16.019A.066.066,0,0,1,.589-2.63v-.38q0-.079.074-.079l1.16.019h.668v-.019a4.489,4.489,0,0,0-.06-.891q.3.014.58.046.1.019.1.079a.3.3,0,0,1-.037.13,2.188,2.188,0,0,0-.051.635v.019h.459l1.146-.019A.07.07,0,0,1,4.7-3.01Zm.162-1.6q0,.074-.079.074L3.609-4.17H1.777L.6-4.152a.066.066,0,0,1-.074-.074V-4.62A.066.066,0,0,1,.6-4.694l1.178.019H3.029a7.716,7.716,0,0,0,.436-1.081,1.709,1.709,0,0,0,.088-.413q.32.074.51.135.116.037.116.116a.178.178,0,0,1-.065.111.686.686,0,0,0-.144.218,9.9,9.9,0,0,1-.417.914h.056l1.178-.019q.079,0,.079.074Zm-.153-2.24q0,.074-.079.074L3.507-6.411H1.93L.8-6.392a.066.066,0,0,1-.074-.074v-.371q0-.079.074-.079l1.132.023h.547v-.3a2.763,2.763,0,0,0-.065-.682,5.579,5.579,0,0,1,.617.046q.125.014.125.074A.428.428,0,0,1,3.1-7.58a.93.93,0,0,0-.051.39v.3h.459l1.127-.023a.07.07,0,0,1,.079.079ZM2.278-5.149a.153.153,0,0,1,.009.046q0,.051-.093.088l-.237.1a.474.474,0,0,1-.107.023q-.051,0-.065-.074a4.669,4.669,0,0,0-.362-.946.142.142,0,0,1-.019-.056q0-.037.116-.079l.218-.079a.182.182,0,0,1,.06-.014q.037,0,.07.056A4.013,4.013,0,0,1,2.278-5.149ZM18.174.162A.066.066,0,0,1,18.1.237h-.45q-.065,0-.065-.074V-.543H15.618v.77A.066.066,0,0,1,15.544.3h-.422q-.083,0-.083-.074l.019-2.89V-4.342l-.019-2.185q0-.074.083-.074l.96.019H17.14L18.1-6.6a.066.066,0,0,1,.074.074l-.019,1.948V-2.7Zm-.589-1.22v-5.01H15.618v5.01Zm-3.391-4.75q-.019.288-.019.84A30.452,30.452,0,0,1,13.9-.742Q13.74.264,12.872.264q-.329,0-.635-.028Q12.1.223,12.079.19a.527.527,0,0,1-.032-.172A1.144,1.144,0,0,0,11.926-.4a4.973,4.973,0,0,0,.9.083.407.407,0,0,0,.362-.162A1.26,1.26,0,0,0,13.35-1a30.013,30.013,0,0,0,.255-4.351h-1.35a14.988,14.988,0,0,1-.362,2.639,8.015,8.015,0,0,1-.566,1.651A6.3,6.3,0,0,1,10.46.255q-.088.107-.125.107t-.111-.1a1.689,1.689,0,0,0-.38-.348,5.72,5.72,0,0,0,1.007-1.4,7.064,7.064,0,0,0,.506-1.443,12.016,12.016,0,0,0,.32-2.421h-.32l-1.132.019a.066.066,0,0,1-.074-.074v-.408q0-.079.074-.079l1.132.019H11.7q.009-.283.009-.872a9.076,9.076,0,0,0-.065-1.169q.348.014.654.056.107.014.107.1a1.087,1.087,0,0,1-.056.209,3.912,3.912,0,0,0-.06.872q0,.278-.019.807h.7l1.141-.019A.074.074,0,0,1,14.194-5.808ZM28.166.083a1.282,1.282,0,0,0-.255.348q-.079.153-.144.153a.328.328,0,0,1-.135-.037A7.521,7.521,0,0,1,25.346-.914,6.908,6.908,0,0,1,23.119.547a.393.393,0,0,1-.144.037q-.046,0-.139-.135a1.359,1.359,0,0,0-.269-.283,6.813,6.813,0,0,0,2.4-1.48,7.334,7.334,0,0,1-1.3-2.3h-.417A12.965,12.965,0,0,1,23.1-2.254,5.448,5.448,0,0,1,21.913.385q-.1.116-.135.116T21.658.408a1,1,0,0,0-.353-.232A4.517,4.517,0,0,0,22.567-2.38a16.633,16.633,0,0,0,.172-2.6L22.72-6.415a.066.066,0,0,1,.074-.074l1.3.019h.77v-.116A8.2,8.2,0,0,0,24.8-7.849q.288.014.608.046.116.014.116.088a1.234,1.234,0,0,1-.07.2,5.444,5.444,0,0,0-.037.928v.116h1.8a.658.658,0,0,0,.19-.028.475.475,0,0,1,.107-.028.452.452,0,0,1,.255.153q.172.158.172.237a.166.166,0,0,1-.074.125.742.742,0,0,0-.153.227,7.574,7.574,0,0,1-.571.956q-.1.125-.144.125a.806.806,0,0,1-.153-.065.94.94,0,0,0-.311-.135,4.487,4.487,0,0,0,.654-1.062H25.42V-4.1h1.072a.622.622,0,0,0,.223-.037.257.257,0,0,1,.083-.019q.088,0,.255.181t.172.255a.16.16,0,0,1-.074.111.628.628,0,0,0-.172.25,8.5,8.5,0,0,1-1.266,2.032A6.991,6.991,0,0,0,28.166.083ZM24.868-4.1V-5.965H23.291v1.053q0,.227-.019.816Zm1.624.482H24.2A6.282,6.282,0,0,0,25.336-1.7,7.2,7.2,0,0,0,26.491-3.614Zm-4.2-1.294a.066.066,0,0,1-.074.074l-.872-.019h-.1v2.765a8.593,8.593,0,0,0,1.016-.469.978.978,0,0,0-.032.255q0,.046,0,.1t0,.083A.193.193,0,0,1,22.215-2a.512.512,0,0,1-.144.1,19.447,19.447,0,0,1-1.855.77.99.99,0,0,0-.325.162.184.184,0,0,1-.125.065q-.07,0-.1-.1a5.539,5.539,0,0,1-.181-.529,4,4,0,0,0,.77-.19q.065-.019.445-.153V-4.852H20.48l-.877.019a.066.066,0,0,1-.074-.074v-.4q0-.079.074-.079l.877.019H20.7V-6.485a9.549,9.549,0,0,0-.065-1.3q.32.014.617.056.107.019.107.079a.252.252,0,0,1-.019.079q-.023.06-.032.093a5.2,5.2,0,0,0-.056.979v1.136h.1l.872-.019q.074,0,.074.079Z" transform="translate(10 9)" fill="#efefef"/>
      </g>
    </g>
    <path id="Path_1768" data-name="Path 1768" d="M0,0V178" transform="translate(228.307 2.983)" fill="none" stroke="#df5a5a" stroke-linecap="round" stroke-width="1" stroke-dasharray="1 1"/>
    <path id="p" d="M.489,7.975l1.5-.156a1.29,1.29,0,0,0,.381.808,1.035,1.035,0,0,0,.73.3,1.014,1.014,0,0,0,.8-.384,1.747,1.747,0,0,0,.328-1.157A1.586,1.586,0,0,0,3.907,6.3a1.083,1.083,0,0,0-.846-.363A1.537,1.537,0,0,0,1.9,6.509L.671,6.332l.773-4.1H5.436V3.646H2.589L2.353,4.983a2.307,2.307,0,0,1,2.734.478,2.631,2.631,0,0,1,.7,1.9,2.843,2.843,0,0,1-.564,1.735,2.5,2.5,0,0,1-2.132,1.042,2.647,2.647,0,0,1-1.778-.585A2.411,2.411,0,0,1,.489,7.975Zm6.1-4.34v-1.4h5.162v1.1a8.122,8.122,0,0,0-1.3,1.8,10.523,10.523,0,0,0-1.007,2.5A9.272,9.272,0,0,0,9.1,10H7.643a10.117,10.117,0,0,1,.674-3.33,11.1,11.1,0,0,1,1.7-3.035Zm6.128.435A2.271,2.271,0,0,1,13.178,2.5a1.619,1.619,0,0,1,1.26-.51,1.656,1.656,0,0,1,1.286.508,2.269,2.269,0,0,1,.465,1.571,2.271,2.271,0,0,1-.465,1.568,1.619,1.619,0,0,1-1.26.51,1.656,1.656,0,0,1-1.286-.508A2.269,2.269,0,0,1,12.713,4.07ZM13.89,4.06a2.035,2.035,0,0,0,.177,1.031.427.427,0,0,0,.371.193.432.432,0,0,0,.376-.193,2.09,2.09,0,0,0,.172-1.031,2.055,2.055,0,0,0-.172-1.026.453.453,0,0,0-.747-.005A2.035,2.035,0,0,0,13.89,4.06Zm1.7,6.241H14.47l4.195-8.309H19.75Zm2.438-2.068a2.271,2.271,0,0,1,.465-1.568,1.843,1.843,0,0,1,2.546,0A2.271,2.271,0,0,1,21.5,8.233a2.28,2.28,0,0,1-.465,1.574,1.619,1.619,0,0,1-1.26.51,1.652,1.652,0,0,1-1.286-.51A2.28,2.28,0,0,1,18.025,8.233ZM19.2,8.228a2,2,0,0,0,.177,1.026.424.424,0,0,0,.371.2.419.419,0,0,0,.371-.193A2.035,2.035,0,0,0,20.3,8.228,2.09,2.09,0,0,0,20.125,7.2.432.432,0,0,0,19.75,7a.419.419,0,0,0-.371.193A2.035,2.035,0,0,0,19.2,8.228Z" transform="translate(168 115.483)" fill="#fff"/>
    <path id="Path_1840" data-name="Path 1840" d="M.459-3.312a3.7,3.7,0,0,1,.909-2.651,3.091,3.091,0,0,1,2.347-.958,3.256,3.256,0,0,1,1.7.45A2.939,2.939,0,0,1,6.566-5.216a4.075,4.075,0,0,1,.4,1.825A4.007,4.007,0,0,1,6.545-1.54,2.85,2.85,0,0,1,5.362-.3a3.38,3.38,0,0,1-1.651.42A3.215,3.215,0,0,1,1.995-.348,2.985,2.985,0,0,1,.849-1.614,3.838,3.838,0,0,1,.459-3.312Zm.928.014a2.724,2.724,0,0,0,.661,1.937,2.174,2.174,0,0,0,1.658.707,2.171,2.171,0,0,0,1.672-.714A2.888,2.888,0,0,0,6.035-3.4a3.484,3.484,0,0,0-.281-1.45,2.156,2.156,0,0,0-.821-.96A2.226,2.226,0,0,0,3.72-6.146a2.3,2.3,0,0,0-1.644.656A2.932,2.932,0,0,0,1.387-3.3ZM8.141,0V-6.8h4.917V-6H9.041v2.083H12.8v.8H9.041V-.8h4.175V0Zm11.17-2.384.9.227A3.029,3.029,0,0,1,19.193-.466a2.805,2.805,0,0,1-1.8.582,3.23,3.23,0,0,1-1.788-.448,2.8,2.8,0,0,1-1.048-1.3A4.626,4.626,0,0,1,14.2-3.451,4.007,4.007,0,0,1,14.6-5.3a2.781,2.781,0,0,1,1.155-1.2,3.375,3.375,0,0,1,1.649-.411,2.788,2.788,0,0,1,1.716.52,2.7,2.7,0,0,1,.969,1.461l-.886.209a2.1,2.1,0,0,0-.687-1.081,1.829,1.829,0,0,0-1.132-.339,2.2,2.2,0,0,0-1.31.376,1.984,1.984,0,0,0-.74,1.009,4.062,4.062,0,0,0-.213,1.306,4.15,4.15,0,0,0,.253,1.515,1.883,1.883,0,0,0,.786.967,2.205,2.205,0,0,0,1.155.32A1.935,1.935,0,0,0,18.6-1.09,2.231,2.231,0,0,0,19.311-2.384ZM21.319,0V-6.8h2.343a5.682,5.682,0,0,1,1.211.1,2.3,2.3,0,0,1,1,.487,2.767,2.767,0,0,1,.8,1.162,4.561,4.561,0,0,1,.267,1.617,4.75,4.75,0,0,1-.181,1.373,3.331,3.331,0,0,1-.464.99,2.464,2.464,0,0,1-.619.617,2.524,2.524,0,0,1-.812.341A4.633,4.633,0,0,1,23.773,0Zm.9-.8h1.452a3.523,3.523,0,0,0,1.055-.125,1.51,1.51,0,0,0,.61-.353,2.145,2.145,0,0,0,.5-.86,4.207,4.207,0,0,0,.179-1.31,3.164,3.164,0,0,0-.35-1.64,1.763,1.763,0,0,0-.851-.768A3.518,3.518,0,0,0,23.648-6H22.219ZM36.358-2.774q0,.074-.079.074l-1.243-.019H32.461V-.427L32.48.58a.066.066,0,0,1-.074.074H31.9A.066.066,0,0,1,31.826.58l.019-1.007V-2.718h-2.5L28.11-2.7a.066.066,0,0,1-.074-.074v-.45A.066.066,0,0,1,28.11-3.3l1.234.019h2.5V-6.754H29.878l-1.313.019a.066.066,0,0,1-.074-.074V-7.25a.066.066,0,0,1,.074-.074l1.313.019h4.7l1.3-.019q.079,0,.079.074v.441q0,.074-.079.074l-1.3-.019h-2.12V-3.28h2.574L36.279-3.3q.079,0,.079.074ZM35.351-5.965q0,.042-.083.111a.736.736,0,0,0-.172.26,11.407,11.407,0,0,1-1.039,1.726q-.093.125-.13.125a.533.533,0,0,1-.144-.074,1.239,1.239,0,0,0-.343-.162,8.389,8.389,0,0,0,1.123-1.851,2.051,2.051,0,0,0,.144-.478,4.038,4.038,0,0,1,.561.237Q35.351-6.026,35.351-5.965ZM30.727-4.1a.2.2,0,0,1,.009.046q0,.037-.088.07l-.32.135a.448.448,0,0,1-.121.037q-.028,0-.051-.07a9.57,9.57,0,0,0-1.03-2.06.081.081,0,0,1-.023-.046q0-.032.111-.088l.264-.139a.2.2,0,0,1,.079-.032q.023,0,.056.051A9.386,9.386,0,0,1,30.727-4.1ZM45.621-6.109q-.023.241-.023.724a31.5,31.5,0,0,1-.292,4.541,2.291,2.291,0,0,1-.427,1.1.982.982,0,0,1-.77.329q-.3,0-.891-.056a.322.322,0,0,1-.172-.051A.46.46,0,0,1,43,.315a1.537,1.537,0,0,0-.153-.441,6.955,6.955,0,0,0,1.243.135.51.51,0,0,0,.459-.343,2.815,2.815,0,0,0,.2-.719,29.306,29.306,0,0,0,.264-4.588H41.651A8.023,8.023,0,0,1,40.709-4.2q-.079.1-.125.1t-.13-.107a.971.971,0,0,0-.3-.246,7.517,7.517,0,0,0,1.512-2.584,3.95,3.95,0,0,0,.19-.849,4.674,4.674,0,0,1,.571.162q.13.046.13.116a.269.269,0,0,1-.093.162,1.554,1.554,0,0,0-.227.473q-.209.538-.334.8h2.5l1.127-.019Q45.621-6.193,45.621-6.109ZM40.5-2.556a1.721,1.721,0,0,0-.023.274.894.894,0,0,0,0,.1q0,.088,0,.093a.164.164,0,0,1-.026.1.508.508,0,0,1-.141.086,17.593,17.593,0,0,1-2.092.951A2.074,2.074,0,0,0,37.9-.8a.208.208,0,0,1-.139.074q-.065,0-.107-.093a3.345,3.345,0,0,1-.209-.543,4.428,4.428,0,0,0,.923-.227l.371-.135v-3.01h-.26l-.863.019q-.079,0-.079-.074v-.4q0-.088.079-.088l.863.019h.26V-6.383a9.184,9.184,0,0,0-.07-1.313q.32.014.617.056.107.019.107.088a1.166,1.166,0,0,1-.037.162,4.922,4.922,0,0,0-.06.988v1.146h.116l.854-.019q.079,0,.079.088v.4q0,.074-.079.074l-.854-.019h-.116v2.783A10.789,10.789,0,0,0,40.5-2.556Zm3.683-.237a1.771,1.771,0,0,0-.014.237q0,.074,0,.162v.032q0,.042,0,.056a.158.158,0,0,1-.037.116.681.681,0,0,1-.13.079,14.185,14.185,0,0,1-2.3,1.085.974.974,0,0,0-.329.172.223.223,0,0,1-.144.074q-.065,0-.107-.093a2.573,2.573,0,0,1-.209-.552,3.96,3.96,0,0,0,.923-.246A17.76,17.76,0,0,0,44.188-2.792ZM43.928-3.8a.066.066,0,0,1-.074.074l-.807-.019H42.3l-.8.019a.066.066,0,0,1-.074-.074v-.408q0-.079.074-.079l.8.019h.751l.807-.019q.074,0,.074.079ZM46.9-5.91v-.8h4.4v.649a9.277,9.277,0,0,0-1.287,1.837,11.188,11.188,0,0,0-.986,2.356A8.758,8.758,0,0,0,48.706,0h-.858a8.333,8.333,0,0,1,.315-1.939,10.181,10.181,0,0,1,.865-2.192,9.4,9.4,0,0,1,1.2-1.779Zm5.228,2.556A6.223,6.223,0,0,1,52.373-5.3a2.415,2.415,0,0,1,.738-1.134,1.886,1.886,0,0,1,1.232-.4,2.009,2.009,0,0,1,.96.22,1.836,1.836,0,0,1,.682.635,3.409,3.409,0,0,1,.422,1.011,6.719,6.719,0,0,1,.153,1.607,6.24,6.24,0,0,1-.246,1.932,2.415,2.415,0,0,1-.735,1.136,1.886,1.886,0,0,1-1.236.4A1.866,1.866,0,0,1,52.8-.589,4.481,4.481,0,0,1,52.125-3.354Zm.858,0a4.264,4.264,0,0,0,.392,2.229,1.155,1.155,0,0,0,.967.554,1.154,1.154,0,0,0,.967-.557A4.265,4.265,0,0,0,55.7-3.354a4.263,4.263,0,0,0-.392-2.231,1.163,1.163,0,0,0-.976-.552,1.07,1.07,0,0,0-.918.487A4.313,4.313,0,0,0,52.983-3.354Zm4.583-1.814a2.067,2.067,0,0,1,.366-1.239,1.227,1.227,0,0,1,1.062-.51,1.378,1.378,0,0,1,1.06.457,1.92,1.92,0,0,1,.42,1.343,1.906,1.906,0,0,1-.424,1.329A1.359,1.359,0,0,1,59-3.321a1.321,1.321,0,0,1-1.027-.459A2.028,2.028,0,0,1,57.566-5.167Zm1.452-1.174a.628.628,0,0,0-.517.269,1.7,1.7,0,0,0-.206.988,1.532,1.532,0,0,0,.209.921.632.632,0,0,0,.515.267.632.632,0,0,0,.522-.269,1.694,1.694,0,0,0,.206-.983,1.542,1.542,0,0,0-.209-.925A.636.636,0,0,0,59.018-6.341Zm0,6.592,3.72-7.167h.677L59.714.25ZM61.963-1.6a2.064,2.064,0,0,1,.366-1.241A1.233,1.233,0,0,1,63.4-3.344a1.378,1.378,0,0,1,1.06.457,1.92,1.92,0,0,1,.42,1.343,1.906,1.906,0,0,1-.424,1.329A1.364,1.364,0,0,1,63.4.25a1.318,1.318,0,0,1-1.027-.462A2.029,2.029,0,0,1,61.963-1.6ZM63.42-2.769A.632.632,0,0,0,62.9-2.5a1.7,1.7,0,0,0-.206.988,1.533,1.533,0,0,0,.209.918.63.63,0,0,0,.515.269.636.636,0,0,0,.526-.269,1.694,1.694,0,0,0,.206-.983,1.542,1.542,0,0,0-.209-.925A.636.636,0,0,0,63.42-2.769Z" transform="translate(195.603 -3.679)" fill="#df5a5a"/>
  </g>
</svg>
