<svg xmlns="http://www.w3.org/2000/svg" width="310.221" height="222.969" viewBox="0 0 310.221 222.969">
  <g id="data1_m" transform="translate(8864.568 16024)">
    <g id="Group_1927" data-name="Group 1927" transform="translate(-9574 -17086)">
      <rect id="Rectangle_2063" data-name="Rectangle 2063" width="100" height="25" rx="12.5" transform="translate(813 1062)" fill="#3d3c3c"/>
      <path id="內文p" d="M6.17,6.75a4.5,4.5,0,0,0-.72-.55,5.687,5.687,0,0,0,.58-.64l-.52-.17a3.571,3.571,0,0,1-.5.53c-.26-.14-.52-.29-.77-.4l-.37.33a7.351,7.351,0,0,1,.72.39,6.011,6.011,0,0,1-.95.55,2.58,2.58,0,0,1,.41.39,7.076,7.076,0,0,0,1-.65,5.453,5.453,0,0,1,.72.58ZM6.14,4.96c-.18-.14-.42-.3-.69-.47A5.136,5.136,0,0,0,6,3.88l-.52-.14a4.259,4.259,0,0,1-.47.49c-.26-.14-.51-.27-.75-.37l-.36.33a6.664,6.664,0,0,1,.7.36,6.027,6.027,0,0,1-.89.51,3.132,3.132,0,0,1,.42.36,6.948,6.948,0,0,0,.93-.6,4.949,4.949,0,0,1,.69.51ZM1.49,7.76H8.52V9h.73V7.19H8.47c.08-.89.17-2.18.22-3.17H6.38v.51H7.97l-.03.54H6.43v.51H7.91l-.05.54H6.37v.51H7.82c-.02.2-.04.38-.06.56H2.28l-.04-.56H3.63V6.12H2.21l-.04-.54H3.59V5.07H2.14L2.1,4.58a10.484,10.484,0,0,0,1.54-.39l-.33-.46a18.716,18.716,0,0,1-1.93.49l.2,2.97H.78V9h.71Zm7.96,2.43h-4v-.18A10.421,10.421,0,0,0,7.71,8.77L7.26,8.4l-.15.04H2.41V9H6.32a9.282,9.282,0,0,1-1.59.76v.43H.56v.63H4.73v1.13c0,.14-.04.17-.21.18-.15,0-.71,0-1.33-.02a2.8,2.8,0,0,1,.26.63,5.984,5.984,0,0,0,1.61-.1c.31-.11.39-.28.39-.67V10.82h4Zm5.95,1.54V9.19h3.21V8.47H15.4V6.29h3.58V5.56H15.4V3.64h-.76V5.56H12.61a13.726,13.726,0,0,0,.56-1.6l-.75-.16a9.116,9.116,0,0,1-1.85,3.68,4.979,4.979,0,0,1,.68.44,8.972,8.972,0,0,0,1.04-1.63h2.35V8.47H11.67v.72h2.97v2.54H10.59v.72h8.86v-.72Z" transform="translate(844 1066)" fill="#aca4a4"/>
      <path id="內文p-2" data-name="內文p" d="M8.46,7.24H5.54V6.27H8.46Zm0,1.51H5.54V7.77H8.46Zm0,1.54H5.54V9.31H8.46ZM4.85,5.69v5.18H9.16V5.69H7.09c.09-.29.19-.62.28-.95H9.51V4.1H4.47v.64H6.55c-.05.31-.12.65-.19.95ZM3.83,9.54a19.579,19.579,0,0,0,.85-2.18l-.46-.12-.11.03H3.38l.24-.31a5.569,5.569,0,0,0-.78-.65A9.956,9.956,0,0,0,4.39,4.39l-.46-.32-.15.05H.63v.66H3.31a8.73,8.73,0,0,1-.99,1.17c-.34-.21-.69-.42-1.01-.59l-.4.48A10.945,10.945,0,0,1,2.96,7.27H.41v.66H2.05v3.95c0,.12-.04.16-.19.16-.13.01-.59.01-1.1,0a2.612,2.612,0,0,1,.23.7,4.1,4.1,0,0,0,1.41-.13c.29-.11.37-.33.37-.72V7.93H3.82a13.627,13.627,0,0,1-.54,1.46Zm2.01,1.52a6.353,6.353,0,0,1-2.11,1.23,5.751,5.751,0,0,1,.49.5,7.2,7.2,0,0,0,2.27-1.35Zm1.54.42a12.242,12.242,0,0,1,1.75,1.31l.58-.43A11.888,11.888,0,0,0,7.94,11.1Zm7.71-6.56V4.34H12.4q.15-.27.27-.54l-.68-.2a6,6,0,0,1-1.56,2.12,4.17,4.17,0,0,1,.46.6,7.544,7.544,0,0,0,1.17-1.4Zm.37.97a5.451,5.451,0,0,0,.82-.98h1.43l-.49.22a3.388,3.388,0,0,1,.6.76Zm2.17,1.08h-5.1V6.39h5.1Zm0,1.05h-5.1V7.45h5.1Zm0,1.08h-5.1V8.5h5.1Zm-1.22,1.36H13.86a1.34,1.34,0,0,0,.01-.2V9.59h2.54Zm3.11-6.13h-2.9c.09-.19.18-.38.26-.58l-.71-.16a4.544,4.544,0,0,1-1.39,1.96c.16.08.44.23.61.34H13.32l.6-.22a3.321,3.321,0,0,0-.44-.72l-.62.21a3.752,3.752,0,0,1,.43.73H11.8v3.7h1.34v.66a1.477,1.477,0,0,1-.01.21H10.6v.62h2.32a3.019,3.019,0,0,1-1.93,1.19,3.3,3.3,0,0,1,.47.54c1.44-.48,2.04-1.1,2.27-1.73h2.68v1.67h.75V11.08h2.29v-.62H17.16V9.59h1.23V5.89h-.5l.53-.24a3.41,3.41,0,0,0-.59-.74h1.69Z" transform="translate(881 1066)" fill="#aca4a4"/>
      <line id="Line_56" data-name="Line 56" x2="14" transform="translate(824.668 1074.473)" fill="none" stroke="#fff" stroke-linecap="round" stroke-width="3"/>
      <rect id="Rectangle_2331" data-name="Rectangle 2331" width="10" height="10" rx="2" transform="translate(869 1069)" fill="#356bd0"/>
    </g>
    <g id="Group_1926" data-name="Group 1926" transform="translate(-9040 -16286.042)">
      <path id="內文p-3" data-name="內文p" d="M14.811,13h4.422v-.836H17.615V4.926h-.77a4.857,4.857,0,0,1-1.672.583v.638H16.6v6.017H14.811Zm8.2.143c1.529,0,2.508-1.4,2.508-4.2s-.979-4.158-2.508-4.158-2.519,1.353-2.519,4.158S21.465,13.143,23.006,13.143Zm0-.8c-.924,0-1.54-1.023-1.54-3.4,0-2.354.616-3.355,1.54-3.355s1.529,1,1.529,3.355C24.535,11.317,23.919,12.34,23.006,12.34Zm6.1.8c1.529,0,2.508-1.4,2.508-4.2s-.979-4.158-2.508-4.158-2.519,1.353-2.519,4.158S27.57,13.143,29.111,13.143Zm0-.8c-.924,0-1.54-1.023-1.54-3.4,0-2.354.616-3.355,1.54-3.355s1.529,1,1.529,3.355C30.639,11.317,30.024,12.34,29.111,12.34Z" transform="translate(231 471.042)" fill="#d48773"/>
      <path id="內文p-4" data-name="內文p" d="M.968,13H5.39v-.836H3.773V4.926H3a4.857,4.857,0,0,1-1.672.583v.638h1.43v6.017H.968Zm8.2.143c1.529,0,2.508-1.4,2.508-4.2s-.979-4.158-2.508-4.158S6.644,6.136,6.644,8.941,7.623,13.143,9.163,13.143Zm0-.8c-.924,0-1.54-1.023-1.54-3.4,0-2.354.616-3.355,1.54-3.355s1.529,1,1.529,3.355C10.692,11.317,10.076,12.34,9.163,12.34Zm6.116.8a2.255,2.255,0,0,0,2.53-2.09,2.353,2.353,0,0,0-1.364-2.112V8.886a2.644,2.644,0,0,0,1.078-1.947,2.039,2.039,0,0,0-2.211-2.123A2.051,2.051,0,0,0,13.1,6.862,2.242,2.242,0,0,0,14.19,8.721v.055A2.583,2.583,0,0,0,12.7,11,2.313,2.313,0,0,0,15.279,13.143Zm.55-4.521c-.946-.374-1.815-.792-1.815-1.76A1.242,1.242,0,0,1,15.3,5.553a1.337,1.337,0,0,1,1.364,1.441A2.163,2.163,0,0,1,15.829,8.622ZM15.3,12.4a1.546,1.546,0,0,1-1.683-1.485,2.192,2.192,0,0,1,1.1-1.826c1.144.462,2.134.869,2.134,1.947A1.4,1.4,0,0,1,15.3,12.4Zm8.657-1.859V8.358h2.464v2.178Zm7.271,0H27.247V8.358H30.47v-.77H27.247V5.916h3.476V5.124H24.167c.176-.374.352-.77.506-1.155l-.825-.2a9.309,9.309,0,0,1-2.475,3.8,5.063,5.063,0,0,1,.7.517,10.163,10.163,0,0,0,1.672-2.167h2.673V7.588H23.144v2.948h-1.8v.792h5.082v2.519h.825V11.328h3.982Zm.671,4.433h.737l3.289-10.7H35.2ZM42.878,7.225a4.949,4.949,0,0,0-.792-.605,6.256,6.256,0,0,0,.638-.7l-.572-.187a3.928,3.928,0,0,1-.55.583c-.286-.154-.572-.319-.847-.44l-.407.363a8.086,8.086,0,0,1,.792.429,6.612,6.612,0,0,1-1.045.605,2.838,2.838,0,0,1,.451.429,7.784,7.784,0,0,0,1.1-.715,6,6,0,0,1,.792.638Zm-.033-1.969c-.2-.154-.462-.33-.759-.517a5.649,5.649,0,0,0,.605-.671l-.572-.154a4.685,4.685,0,0,1-.517.539c-.286-.154-.561-.3-.825-.407l-.4.363a7.331,7.331,0,0,1,.77.4,6.63,6.63,0,0,1-.979.561,3.446,3.446,0,0,1,.462.4,7.643,7.643,0,0,0,1.023-.66,5.444,5.444,0,0,1,.759.561ZM37.73,8.336h7.733V9.7h.8V7.709h-.858c.088-.979.187-2.4.242-3.487H43.109v.561h1.749l-.033.594H43.164v.561h1.628l-.055.594H43.1v.561h1.6c-.022.22-.044.418-.066.616H38.6l-.044-.616h1.529V6.532H38.522l-.044-.594H40.04V5.377h-1.6L38.4,4.838A11.533,11.533,0,0,0,40.1,4.409L39.732,3.9a20.588,20.588,0,0,1-2.123.539l.22,3.267h-.88V9.7h.781Zm8.756,2.673h-4.4v-.2a11.463,11.463,0,0,0,2.486-1.364l-.495-.407-.165.044h-5.17V9.7h4.3a10.21,10.21,0,0,1-1.749.836v.473H36.707V11.7h4.587v1.243c0,.154-.044.187-.231.2-.165,0-.781,0-1.463-.022a3.08,3.08,0,0,1,.286.693,6.582,6.582,0,0,0,1.771-.11c.341-.121.429-.308.429-.737V11.7h4.4Zm3.784-.473V8.358h2.464v2.178Zm7.271,0H53.559V8.358h3.223v-.77H53.559V5.916h3.476V5.124H50.479c.176-.374.352-.77.506-1.155l-.825-.2a9.309,9.309,0,0,1-2.475,3.8,5.063,5.063,0,0,1,.7.517,10.163,10.163,0,0,0,1.672-2.167h2.673V7.588H49.456v2.948h-1.8v.792h5.082v2.519h.825V11.328h3.982Z" transform="translate(399 470.042)" fill="#d48773"/>
      <path id="內文p-5" data-name="內文p" d="M9.2,6.3a5.116,5.116,0,0,0-1.3-.816l-.42.444a4.856,4.856,0,0,1,1.284.84ZM6,11.144c-1.344.24-2.676.48-3.588.624l.12.672c.984-.18,2.256-.432,3.5-.672ZM4.956,10.088H3.576v-1.2h1.38Zm-2-1.764v2.328H5.6V8.324Zm5.328-.2a8.256,8.256,0,0,1-.888,2.208,17.488,17.488,0,0,1-.444-2.76H9.5V6.9H6.888c-.024-.42-.048-.84-.072-1.272H6.048c.024.432.06.852.1,1.272H2.532v.672H6.2a16.622,16.622,0,0,0,.66,3.552,6.476,6.476,0,0,1-1.812,1.56,4.607,4.607,0,0,1,.528.564,7.525,7.525,0,0,0,1.584-1.38,1.959,1.959,0,0,0,1.248,1.164c.624.24,1.032-.24,1.188-1.548a2.246,2.246,0,0,1-.576-.4c-.084.768-.2,1.284-.372,1.236-.4-.06-.72-.468-.972-1.1a9.313,9.313,0,0,0,1.332-2.94ZM1.872,13.592V5.324H10.1v8.268ZM1.02,4.508v10.44h.852V14.4H10.1v.552h.876V4.508Zm5.412,19.64v-3.18H9.876v3.18Zm-4.356,0v-3.18H5.508v3.18Zm4.356-4.056V17.956H5.508v2.136H1.2v5.676h.876v-.744H5.508v3.888h.924V25.024H9.876v.684h.912V20.092ZM5.58,32.136v9.54c0,.24-.1.324-.348.324-.228.012-1.092.024-1.968-.012a4.257,4.257,0,0,1,.372.924,8.328,8.328,0,0,0,2.292-.156c.42-.156.6-.42.6-1.08v-9.54ZM8.448,35.16a20.283,20.283,0,0,1,2.268,5.364l.936-.4a19.08,19.08,0,0,0-2.364-5.292Zm-6-.24A11.245,11.245,0,0,1,.432,39.852a4.82,4.82,0,0,1,.84.468,13.459,13.459,0,0,0,2.16-5.22Zm2.6,14.912-.78.684A20.614,20.614,0,0,1,6.924,53.18L7.74,52.5A22.514,22.514,0,0,0,5.052,49.832ZM7.644,67.84v1.116H4.224V67.84Zm.8-.672H3.4v3.048h.828v-.588H8.448ZM10.824,65.7H1.188v5.208h.864V66.46H9.936v3.516c0,.144-.048.18-.2.192s-.7.012-1.212-.012a2.688,2.688,0,0,1,.288.66,5.4,5.4,0,0,0,1.584-.108c.324-.12.432-.3.432-.732ZM8.616,64.4H3.444v-1.08H8.616Zm-6.048-1.74v2.4h6.96v-2.4Zm4.068-1.44c-.132-.384-.312-.888-.48-1.3l-.864.2c.12.336.264.744.372,1.092H.756v.768H11.208v-.768Zm-.2,18.932v-3.18H9.876v3.18Zm-4.356,0v-3.18H5.508v3.18Zm4.356-4.056V73.956H5.508v2.136H1.2v5.676h.876v-.744H5.508v3.888h.924V81.024H9.876v.684h.912V76.092ZM11.124,90.74a9.538,9.538,0,0,0-.96-2.028l-.66.24a9.737,9.737,0,0,1,.924,2.064ZM8.052,89.252h-1.3a11.312,11.312,0,0,0-.5-1.212L5.52,88.2c.144.324.288.72.408,1.056H4.452v.708h3.6Zm-4.92,1.716H1.872v-1.68h1.26Zm-1.26,3.216h1.26v1.632c-.432.1-.864.192-1.26.276Zm1.26-.744H1.872V91.724h1.26Zm1.284-4.152v-.816H.552v.816h.636v6.948c-.276.036-.528.1-.756.132l.18.768c.732-.18,1.62-.372,2.52-.588v2.376H3.84V89.288Zm1.008,7.26V95.42h1.7v1.128Zm1.7-2.88v1.1h-1.7v-1.1ZM10.6,93a10.7,10.7,0,0,1-1.008,2.292c-.12-.828-.216-1.836-.276-2.952h2.124v-.78H9.264c-.06-1.116-.084-2.328-.1-3.588h-.78c.024,1.26.06,2.472.108,3.588H7.284c.132-.4.288-.9.432-1.356l-.744-.132a12.577,12.577,0,0,1-.348,1.488H5.772a10.34,10.34,0,0,0-.336-1.476l-.66.1a11.779,11.779,0,0,1,.288,1.38H4.248v.78h4.3a33.17,33.17,0,0,0,.408,3.9A9.482,9.482,0,0,1,7.824,97.5V93.02H4.716v5.016h.708V97.2h1.7v.324H7.8a7.788,7.788,0,0,1-1.008.8,3.941,3.941,0,0,1,.516.48,9.778,9.778,0,0,0,1.86-1.692c.3,1.116.72,1.764,1.32,1.776.408.012.8-.468,1.032-2.268a2.4,2.4,0,0,1-.576-.444c-.084,1.092-.24,1.74-.432,1.74-.3-.012-.552-.588-.756-1.572a11.055,11.055,0,0,0,1.536-3ZM7.4,105.7a5.4,5.4,0,0,0-.864-.66,6.825,6.825,0,0,0,.7-.768l-.624-.2a4.286,4.286,0,0,1-.6.636c-.312-.168-.624-.348-.924-.48l-.444.4a8.82,8.82,0,0,1,.864.468,7.214,7.214,0,0,1-1.14.66,3.1,3.1,0,0,1,.492.468,8.492,8.492,0,0,0,1.2-.78,6.543,6.543,0,0,1,.864.7Zm-.036-2.148c-.216-.168-.5-.36-.828-.564a6.163,6.163,0,0,0,.66-.732l-.624-.168a5.111,5.111,0,0,1-.564.588c-.312-.168-.612-.324-.9-.444l-.432.4a8,8,0,0,1,.84.432,7.232,7.232,0,0,1-1.068.612,3.76,3.76,0,0,1,.5.432,8.337,8.337,0,0,0,1.116-.72A5.938,5.938,0,0,1,6.9,104Zm-5.58,3.36h8.436V108.4H11.1v-2.172h-.936c.1-1.068.2-2.616.264-3.8H7.656v.612H9.564l-.036.648H7.716v.612H9.492l-.06.648H7.644v.612h1.74c-.024.24-.048.456-.072.672H2.736l-.048-.672H4.356v-.612h-1.7L2.6,104.3h1.7v-.612H2.568L2.52,103.1a12.581,12.581,0,0,0,1.848-.468l-.4-.552a22.462,22.462,0,0,1-2.316.588l.24,3.564H.936V108.4h.852Zm9.552,2.916H6.54v-.216a12.5,12.5,0,0,0,2.712-1.488l-.54-.444-.18.048H2.892v.672H7.584a11.138,11.138,0,0,1-1.908.912v.516h-5v.756h5v1.356c0,.168-.048.2-.252.216-.18,0-.852,0-1.6-.024a3.36,3.36,0,0,1,.312.756,7.18,7.18,0,0,0,1.932-.12c.372-.132.468-.336.468-.8v-1.38h4.8ZM6.48,125.676v-3.048h3.852v-.864H6.48v-2.616h4.3v-.876H6.48v-2.3H5.568v2.3H3.132a16.471,16.471,0,0,0,.672-1.92l-.9-.192a10.939,10.939,0,0,1-2.22,4.416,5.975,5.975,0,0,1,.816.528,10.767,10.767,0,0,0,1.248-1.956h2.82v2.616H2v.864H5.568v3.048H.708v.864H11.34v-.864Zm-.444,14.4c-.384-.2-.9-.456-1.452-.7a2.6,2.6,0,0,0,.9-1.488H6.756v-.648h-1.2v-.48H4.824v.48H3.312c.132-.264.264-.516.384-.768H6.408v-1.116c.18.156.432.372.54.492a8.609,8.609,0,0,0,.66-1.332,17.053,17.053,0,0,0,.888,3.168A5.951,5.951,0,0,1,6.012,140.1Zm-1.308-2.184a2.3,2.3,0,0,1-.9,1.188c-.444-.18-.9-.336-1.332-.468.144-.228.288-.468.444-.72ZM1.872,135.1H3.36v.792H1.872Zm3.744,0v.792H4.068V135.1Zm4.152-1.98a14.09,14.09,0,0,1-.828,3.66,16.381,16.381,0,0,1-.876-3.516l.06-.144Zm-7.68.264v-.768H3.36v.768ZM3.36,131.36v.66H2.088v-.66Zm2.076,0v.66H4.068v-.66Zm-1.368,2.028v-.768H5.436v.768Zm7.4-.264v-.8H8.364c.192-.72.372-1.476.516-2.208l-.78-.156a15.894,15.894,0,0,1-1.692,5.22v-.636H4.068v-.528h2.1v-1.356h.684v-.672H6.168v-1.248h-2.1v-.78H3.36v.78H1.392v1.248H.564v.672h.828v1.356H3.36v.528H1.1v1.932H2.88c-.12.252-.24.5-.384.768H.576v.648H2.124c-.252.384-.5.768-.732,1.056a16.639,16.639,0,0,1,1.7.564,11.18,11.18,0,0,1-2.616.8,2.036,2.036,0,0,1,.384.6,10.683,10.683,0,0,0,3.06-1.056,12.354,12.354,0,0,1,1.536.744l.288-.264a3.805,3.805,0,0,1,.408.6,7.1,7.1,0,0,0,2.736-2.424,6.078,6.078,0,0,0,2.1,2.352,3.222,3.222,0,0,1,.576-.684,5.5,5.5,0,0,1-2.22-2.46,13.991,13.991,0,0,0,1.212-4.6Z" transform="translate(175 288.042)" fill="#fff" opacity="0.86"/>
      <path id="內文p-6" data-name="內文p" d="M7.716,7.016h2.1a13.673,13.673,0,0,1-1.044,3.792A16.508,16.508,0,0,1,7.716,7.016ZM3.432,5.984H4.644a11.887,11.887,0,0,1-.852,1.188h-.36Zm8.052,1.032v-.84H7.98A21.035,21.035,0,0,0,8.46,4.1l-.888-.144A12.84,12.84,0,0,1,5.7,9.1l-.42-.312-.168.048H3.36c.3-.276.576-.576.852-.876H6.3V7.172H4.848a13.255,13.255,0,0,0,1.5-2.688l-.828-.24a11.884,11.884,0,0,1-.852,1.7V5.216H3.432V3.956H2.6v1.26H1.032v.768H2.6V7.172H.528v.792H3.06A10.282,10.282,0,0,1,.444,9.86a8.273,8.273,0,0,1,.636.684A12.866,12.866,0,0,0,2.532,9.56H4.4a7.658,7.658,0,0,1-1.368,1.068v.828c-.948.108-1.812.216-2.5.3l.108.816c.684-.084,1.5-.2,2.388-.324v1.716c0,.132-.036.168-.2.18s-.66.012-1.26-.012a3.423,3.423,0,0,1,.288.78,4.95,4.95,0,0,0,1.6-.132c.336-.132.432-.348.432-.8V12.14c.78-.12,1.572-.228,2.364-.336l-.012-.78c-.792.108-1.584.216-2.352.312v-.48A9.54,9.54,0,0,0,5.7,9.272a4.545,4.545,0,0,1,.648.564,8.39,8.39,0,0,0,.8-1.416,15.656,15.656,0,0,0,1.092,3.324,6.751,6.751,0,0,1-2.856,2.412,3.776,3.776,0,0,1,.54.8,8.01,8.01,0,0,0,2.8-2.328A6.519,6.519,0,0,0,10.956,14.9a2.916,2.916,0,0,1,.624-.756,5.906,5.906,0,0,1-2.316-2.352,13.661,13.661,0,0,0,1.464-4.776ZM10,22.72H2.244v2.136a4.792,4.792,0,0,1-1.224,3.6,2.452,2.452,0,0,1,.708.552,5.714,5.714,0,0,0,1.38-4.128v-1.4H9.06v2.2c-2.088.372-4.272.72-5.628.924l.288.8c1.476-.264,3.444-.672,5.34-1.056V27.88c0,.168-.072.24-.288.24-.18.012-.984.012-1.728-.012a3.031,3.031,0,0,1,.252.768,9.644,9.644,0,0,0,2.148-.108c.408-.12.552-.348.552-.888Zm-6.5,1.824A21,21,0,0,1,7.884,25.72l.276-.66a21.4,21.4,0,0,0-4.38-1.092Zm-.216-3.168c.552-.444,1.116-.924,1.668-1.452H7.68l-.5.324c.4.264.8.588,1.2.9Zm7.968-2.256h-5.5c.288-.3.576-.624.852-.936l-.888-.372c-.348.444-.744.9-1.128,1.308H.768v.8H3.78a13.659,13.659,0,0,1-1.044.9,2.567,2.567,0,0,1-1.008.624c.1.24.216.66.264.84.408-.144,1.02-.156,7.164-.468.324.312.612.612.828.864l.756-.516a17.725,17.725,0,0,0-2.664-2.244h3.168ZM6.624,33.372H4.416a11.291,11.291,0,0,0-.636-1.464L3,32.136c.168.372.36.84.492,1.236H1.008v.816H6.624ZM3.288,36.324A7.442,7.442,0,0,0,2.5,34.3l-.756.192a9.325,9.325,0,0,1,.744,2.052ZM5.46,39.3v2.172H2.184V39.3ZM1.344,42.84h.84v-.576H5.46v.48h.876V38.5H1.344Zm3.864-8.58a16.713,16.713,0,0,1-.876,2.328H.66V37.4H6.888v-.816H5.2c.3-.624.624-1.44.9-2.136Zm5.52-1.7-.144.048H7.512V42.9h.8V33.42h1.908c-.324.924-.792,2.2-1.236,3.2a3.853,3.853,0,0,1,1.368,2.712,1.064,1.064,0,0,1-.312.936,1.179,1.179,0,0,1-.48.12,6.262,6.262,0,0,1-.924-.024,2.129,2.129,0,0,1,.24.852A7.111,7.111,0,0,0,9.9,41.2a1.528,1.528,0,0,0,.744-.252,1.79,1.79,0,0,0,.54-1.524,4.035,4.035,0,0,0-1.332-2.892c.5-1.1,1.056-2.472,1.488-3.564Zm-.576,17.732h-3.5V49.124h3.5Zm0,1.812h-3.5V50.924h3.5Zm0,1.848h-3.5V52.772h3.5ZM5.82,48.428v6.216h5.172V48.428H8.508c.108-.348.228-.744.336-1.14h2.568V46.52H5.364v.768h2.5c-.06.372-.144.78-.228,1.14ZM4.6,53.048a23.5,23.5,0,0,0,1.02-2.616l-.552-.144-.132.036H4.056l.288-.372a6.683,6.683,0,0,0-.936-.78,11.947,11.947,0,0,0,1.86-2.3l-.552-.384-.18.06H.756v.792H3.972a10.476,10.476,0,0,1-1.188,1.4c-.408-.252-.828-.5-1.212-.708l-.48.576a13.134,13.134,0,0,1,2.46,1.716H.492v.792H2.46v4.74c0,.144-.048.192-.228.192-.156.012-.708.012-1.32,0a3.134,3.134,0,0,1,.276.84,4.916,4.916,0,0,0,1.692-.156c.348-.132.444-.4.444-.864V51.116h1.26a16.353,16.353,0,0,1-.648,1.752Zm2.412,1.824a7.623,7.623,0,0,1-2.532,1.476,6.9,6.9,0,0,1,.588.6,8.64,8.64,0,0,0,2.724-1.62Zm1.848.5a14.69,14.69,0,0,1,2.1,1.572l.7-.516A14.265,14.265,0,0,0,9.528,54.92ZM6.108,61.5v-.7H2.88q.18-.324.324-.648l-.816-.24A7.2,7.2,0,0,1,.516,62.464a5,5,0,0,1,.552.72,9.053,9.053,0,0,0,1.4-1.68Zm.444,1.164a6.541,6.541,0,0,0,.984-1.176H9.252l-.588.264a4.065,4.065,0,0,1,.72.912Zm2.6,1.3H3.036v-.7h6.12Zm0,1.26H3.036V64.54h6.12Zm0,1.3H3.036V65.8h6.12ZM7.692,68.152H4.632a1.608,1.608,0,0,0,.012-.24v-.8H7.692ZM11.424,60.8H7.944c.108-.228.216-.456.312-.7L7.4,59.908A5.453,5.453,0,0,1,5.736,62.26c.192.1.528.276.732.408H3.984L4.7,62.4a3.985,3.985,0,0,0-.528-.864l-.744.252a4.5,4.5,0,0,1,.516.876H2.16v4.44H3.768V67.9a1.772,1.772,0,0,1-.012.252H.72V68.9H3.5a3.623,3.623,0,0,1-2.316,1.428,3.963,3.963,0,0,1,.564.648C3.48,70.4,4.2,69.652,4.476,68.9H7.692v2h.9v-2H11.34v-.744H8.592V67.108h1.476v-4.44h-.6l.636-.288a4.093,4.093,0,0,0-.708-.888h2.028Z" transform="translate(474 288.042)" fill="#4891f2" opacity="0.85"/>
      <g id="data_1-01" transform="translate(209.251 289.999)">
        <g id="Group_1825" data-name="Group 1825" transform="translate(36.465 0.041)">
          <g id="Group_1821" data-name="Group 1821" transform="translate(173.983)">
            <g id="Group_1818" data-name="Group 1818" transform="translate(2.761)">
              <path id="Path_1764" data-name="Path 1764" d="M1.668.078c.834,0,1.368-.762,1.368-2.292S2.5-4.482,1.668-4.482.294-3.744.294-2.214.828.078,1.668.078Zm0-.438c-.5,0-.84-.558-.84-1.854s.336-1.83.84-1.83S2.5-3.5,2.5-2.214,2.166-.36,1.668-.36Z" transform="translate(0 177.585)" fill="#4891f2" stroke="rgba(0,0,0,0)" stroke-width="1"/>
              <path id="Path_1763" data-name="Path 1763" d="M1.827.091a1.666,1.666,0,0,0,1.68-1.764A1.464,1.464,0,0,0,1.96-3.3a1.492,1.492,0,0,0-.763.2l.126-1.484H3.262v-.553H.763L.6-2.73l.343.21a1.4,1.4,0,0,1,.854-.3A1.038,1.038,0,0,1,2.863-1.652,1.109,1.109,0,0,1,1.771-.441a1.688,1.688,0,0,1-1.26-.567L.2-.588A2.18,2.18,0,0,0,1.827.091Zm4,0c.973,0,1.6-.889,1.6-2.674S6.8-5.229,5.831-5.229s-1.6.861-1.6,2.646S4.851.091,5.831.091Zm0-.511c-.588,0-.98-.651-.98-2.163s.392-2.135.98-2.135.973.637.973,2.135S6.412-.42,5.831-.42ZM9.716.091c.973,0,1.6-.889,1.6-2.674s-.623-2.646-1.6-2.646-1.6.861-1.6,2.646S8.736.091,9.716.091Zm0-.511c-.588,0-.98-.651-.98-2.163s.392-2.135.98-2.135.973.637.973,2.135S10.3-.42,9.716-.42Z" transform="translate(0 146.643)" fill="#4891f2" stroke="rgba(0,0,0,0)" stroke-width="1"/>
              <path id="Path_1762" data-name="Path 1762" d="M.616,0H3.43V-.532H2.4V-5.138h-.49a3.091,3.091,0,0,1-1.064.371v.406h.91V-.532H.616ZM5.831.091c.973,0,1.6-.889,1.6-2.674S6.8-5.229,5.831-5.229s-1.6.861-1.6,2.646S4.851.091,5.831.091Zm0-.511c-.588,0-.98-.651-.98-2.163s.392-2.135.98-2.135.973.637.973,2.135S6.412-.42,5.831-.42ZM9.716.091c.973,0,1.6-.889,1.6-2.674s-.623-2.646-1.6-2.646-1.6.861-1.6,2.646S8.736.091,9.716.091Zm0-.511c-.588,0-.98-.651-.98-2.163s.392-2.135.98-2.135.973.637.973,2.135S10.3-.42,9.716-.42ZM13.6.091c.973,0,1.6-.889,1.6-2.674s-.623-2.646-1.6-2.646S12-4.368,12-2.583,12.621.091,13.6.091Zm0-.511c-.588,0-.98-.651-.98-2.163s.392-2.135.98-2.135.973.637.973,2.135S14.182-.42,13.6-.42Z" transform="translate(0 111.982)" fill="#4891f2" stroke="rgba(0,0,0,0)" stroke-width="1"/>
              <path id="Path_1761" data-name="Path 1761" d="M.616,0H3.43V-.532H2.4V-5.138h-.49a3.091,3.091,0,0,1-1.064.371v.406h.91V-.532H.616Zm5.1.091a1.666,1.666,0,0,0,1.68-1.764A1.464,1.464,0,0,0,5.845-3.3a1.492,1.492,0,0,0-.763.2l.126-1.484H7.147v-.553h-2.5L4.487-2.73l.343.21a1.4,1.4,0,0,1,.854-.3A1.038,1.038,0,0,1,6.748-1.652,1.109,1.109,0,0,1,5.656-.441,1.688,1.688,0,0,1,4.4-1.008l-.315.42A2.18,2.18,0,0,0,5.712.091Zm4,0c.973,0,1.6-.889,1.6-2.674s-.623-2.646-1.6-2.646-1.6.861-1.6,2.646S8.736.091,9.716.091Zm0-.511c-.588,0-.98-.651-.98-2.163s.392-2.135.98-2.135.973.637.973,2.135S10.3-.42,9.716-.42ZM13.6.091c.973,0,1.6-.889,1.6-2.674s-.623-2.646-1.6-2.646S12-4.368,12-2.583,12.621.091,13.6.091Zm0-.511c-.588,0-.98-.651-.98-2.163s.392-2.135.98-2.135.973.637.973,2.135S14.182-.42,13.6-.42Z" transform="translate(0 77.321)" fill="#4891f2" stroke="rgba(0,0,0,0)" stroke-width="1"/>
              <path id="Path_1760" data-name="Path 1760" d="M.308,0H3.535V-.553H2.114c-.259,0-.574.028-.84.049,1.2-1.141,2.009-2.184,2.009-3.206A1.408,1.408,0,0,0,1.792-5.229,1.962,1.962,0,0,0,.28-4.473l.371.364a1.437,1.437,0,0,1,1.064-.6A.9.9,0,0,1,2.66-3.689c0,.882-.742,1.9-2.352,3.311ZM5.831.091c.973,0,1.6-.889,1.6-2.674S6.8-5.229,5.831-5.229s-1.6.861-1.6,2.646S4.851.091,5.831.091Zm0-.511c-.588,0-.98-.651-.98-2.163s.392-2.135.98-2.135.973.637.973,2.135S6.412-.42,5.831-.42ZM9.716.091c.973,0,1.6-.889,1.6-2.674s-.623-2.646-1.6-2.646-1.6.861-1.6,2.646S8.736.091,9.716.091Zm0-.511c-.588,0-.98-.651-.98-2.163s.392-2.135.98-2.135.973.637.973,2.135S10.3-.42,9.716-.42ZM13.6.091c.973,0,1.6-.889,1.6-2.674s-.623-2.646-1.6-2.646S12-4.368,12-2.583,12.621.091,13.6.091Zm0-.511c-.588,0-.98-.651-.98-2.163s.392-2.135.98-2.135.973.637.973,2.135S14.182-.42,13.6-.42Z" transform="translate(0 42.661)" fill="#4891f2" stroke="rgba(0,0,0,0)" stroke-width="1"/>
              <path id="Path_1759" data-name="Path 1759" d="M.308,0H3.535V-.553H2.114c-.259,0-.574.028-.84.049,1.2-1.141,2.009-2.184,2.009-3.206A1.408,1.408,0,0,0,1.792-5.229,1.962,1.962,0,0,0,.28-4.473l.371.364a1.437,1.437,0,0,1,1.064-.6A.9.9,0,0,1,2.66-3.689c0,.882-.742,1.9-2.352,3.311Zm5.4.091a1.666,1.666,0,0,0,1.68-1.764A1.464,1.464,0,0,0,5.845-3.3a1.492,1.492,0,0,0-.763.2l.126-1.484H7.147v-.553h-2.5L4.487-2.73l.343.21a1.4,1.4,0,0,1,.854-.3A1.038,1.038,0,0,1,6.748-1.652,1.109,1.109,0,0,1,5.656-.441,1.688,1.688,0,0,1,4.4-1.008l-.315.42A2.18,2.18,0,0,0,5.712.091Zm4,0c.973,0,1.6-.889,1.6-2.674s-.623-2.646-1.6-2.646-1.6.861-1.6,2.646S8.736.091,9.716.091Zm0-.511c-.588,0-.98-.651-.98-2.163s.392-2.135.98-2.135.973.637.973,2.135S10.3-.42,9.716-.42ZM13.6.091c.973,0,1.6-.889,1.6-2.674s-.623-2.646-1.6-2.646S12-4.368,12-2.583,12.621.091,13.6.091Zm0-.511c-.588,0-.98-.651-.98-2.163s.392-2.135.98-2.135.973.637.973,2.135S14.182-.42,13.6-.42Zm5.362-3.668.35-.091a2.161,2.161,0,0,0-.28-.574l-.441.1a2.139,2.139,0,0,1,.259.567H17.6v.427h4.655v-.427h-1.3c.1-.168.2-.371.315-.56L20.8-4.767h1.225v-.406H20.216a7.269,7.269,0,0,0-.3-.7l-.483.091a6.5,6.5,0,0,1,.245.609h-1.75v.406h2.807a5.287,5.287,0,0,1-.287.679ZM21.182-2.5h-2.5v-.448h2.5Zm0,.77h-2.5v-.448h2.5ZM21.693-3.3H18.186v1.918h1.323l-.252.2a7.036,7.036,0,0,1,.994.784l.329-.287a4.986,4.986,0,0,0-.9-.693h2.016Zm-4.27-2.534A8.163,8.163,0,0,1,15.8-3.052a4.178,4.178,0,0,1,.294.511,8.319,8.319,0,0,0,.588-.742V.525h.5V-4.081a11.377,11.377,0,0,0,.728-1.6Zm.5,6.188A6.98,6.98,0,0,0,18.48-.826L18.074-1a5.514,5.514,0,0,1-.56,1.134ZM19.551.091c-.308,0-.35-.021-.35-.182v-.924h-.483v.924c0,.476.161.6.784.6H20.65c.462,0,.609-.154.665-.777a1.553,1.553,0,0,1-.434-.168c-.014.462-.063.525-.287.525ZM21.028-.917A6.745,6.745,0,0,1,21.847.35l.427-.21a7.079,7.079,0,0,0-.833-1.232Zm7.5-4.389H23.6v.5h4.928ZM27.475-.084c-.273,0-.329-.049-.329-.287V-2.856h1.967v-.5H22.988v.5h1.771c-.1,1.309-.364,2.4-1.855,2.968a1.4,1.4,0,0,1,.329.406c1.61-.651,1.946-1.876,2.079-3.374h1.309V-.364c0,.6.168.777.791.777h1c.609,0,.749-.329.805-1.519a1.615,1.615,0,0,1-.483-.231C28.7-.266,28.658-.084,28.378-.084Z" transform="translate(0 8)" fill="#4891f2" stroke="rgba(0,0,0,0)" stroke-width="1"/>
            </g>
            <line id="Line_409" data-name="Line 409" y1="173.304" transform="translate(0 6.409)" fill="none" stroke="#4891f2" stroke-miterlimit="10" stroke-width="1"/>
          </g>
          <g id="Group_1824" data-name="Group 1824" transform="translate(0 11.098)">
            <g id="Group_1823" data-name="Group 1823">
              <g id="Group_1822" data-name="Group 1822">
                <rect id="Rectangle_2322" data-name="Rectangle 2322" width="14.136" height="124.167" transform="translate(0 44.447)" fill="#356bd0"/>
                <rect id="Rectangle_2323" data-name="Rectangle 2323" width="14.136" height="133.614" transform="translate(19.641 35.001)" fill="#356bd0"/>
                <rect id="Rectangle_2324" data-name="Rectangle 2324" width="14.136" height="138.983" transform="translate(39.282 29.632)" fill="#356bd0"/>
                <rect id="Rectangle_2325" data-name="Rectangle 2325" width="14.136" height="143.604" transform="translate(58.923 25.01)" fill="#356bd0"/>
                <rect id="Rectangle_2326" data-name="Rectangle 2326" width="14.136" height="151.08" transform="translate(78.564 17.534)" fill="#356bd0"/>
                <rect id="Rectangle_2327" data-name="Rectangle 2327" width="14.136" height="156.517" transform="translate(98.205 12.097)" fill="#356bd0"/>
                <rect id="Rectangle_2328" data-name="Rectangle 2328" width="14.136" height="168.614" transform="translate(117.846)" fill="#356bd0"/>
                <rect id="Rectangle_2329" data-name="Rectangle 2329" width="14.136" height="166.711" transform="translate(137.487 1.903)" fill="#356bd0"/>
              </g>
            </g>
          </g>
          <path id="Path_1522" data-name="Path 1522" d="M0,0H14.136V170.381H0Z" transform="translate(157.128 9.331)" fill="#356bd0"/>
        </g>
        <g id="Group_1814" data-name="Group 1814" transform="translate(0 0)">
          <g id="Group_1803" data-name="Group 1803" transform="translate(33.747 179.753)">
            <line id="Line_374" data-name="Line 374" x2="176.702" fill="none" stroke="#787777" stroke-miterlimit="10" stroke-width="1"/>
          </g>
          <g id="Group_1807" data-name="Group 1807">
            <g id="Group_1804" data-name="Group 1804">
              <path id="Path_1758" data-name="Path 1758" d="M.352,0H4.04V-.632H2.416c-.3,0-.656.032-.96.056,1.376-1.3,2.3-2.5,2.3-3.664a1.609,1.609,0,0,0-1.7-1.736A2.243,2.243,0,0,0,.32-5.112L.744-4.7a1.642,1.642,0,0,1,1.216-.68,1.031,1.031,0,0,1,1.08,1.16C3.04-3.208,2.192-2.04.352-.432ZM6.664.1C7.776.1,8.488-.912,8.488-2.952S7.776-5.976,6.664-5.976s-1.832.984-1.832,3.024S5.544.1,6.664.1Zm0-.584c-.672,0-1.12-.744-1.12-2.472,0-1.712.448-2.44,1.12-2.44s1.112.728,1.112,2.44C7.776-1.224,7.328-.48,6.664-.48ZM11.1.1c1.112,0,1.824-1.016,1.824-3.056S12.216-5.976,11.1-5.976s-1.832.984-1.832,3.024S9.984.1,11.1.1Zm0-.584c-.672,0-1.12-.744-1.12-2.472,0-1.712.448-2.44,1.12-2.44s1.112.728,1.112,2.44C12.216-1.224,11.768-.48,11.1-.48Z" transform="translate(16.749 182.043)" fill="#fff" stroke="rgba(0,0,0,0)" stroke-width="1"/>
              <path id="Path_1757" data-name="Path 1757" d="M.352,0H4.04V-.632H2.416c-.3,0-.656.032-.96.056,1.376-1.3,2.3-2.5,2.3-3.664a1.609,1.609,0,0,0-1.7-1.736A2.243,2.243,0,0,0,.32-5.112L.744-4.7a1.642,1.642,0,0,1,1.216-.68,1.031,1.031,0,0,1,1.08,1.16C3.04-3.208,2.192-2.04.352-.432ZM6.528.1a1.9,1.9,0,0,0,1.92-2.016A1.674,1.674,0,0,0,6.68-3.776a1.705,1.705,0,0,0-.872.232l.144-1.7H8.168v-.632H5.312L5.128-3.12l.392.24A1.6,1.6,0,0,1,6.5-3.224,1.187,1.187,0,0,1,7.712-1.888,1.267,1.267,0,0,1,6.464-.5a1.929,1.929,0,0,1-1.44-.648l-.36.48A2.491,2.491,0,0,0,6.528.1ZM11.1.1c1.112,0,1.824-1.016,1.824-3.056S12.216-5.976,11.1-5.976s-1.832.984-1.832,3.024S9.984.1,11.1.1Zm0-.584c-.672,0-1.12-.744-1.12-2.472,0-1.712.448-2.44,1.12-2.44s1.112.728,1.112,2.44C12.216-1.224,11.768-.48,11.1-.48Z" transform="translate(16.749 124.043)" fill="#fff" stroke="rgba(0,0,0,0)" stroke-width="1"/>
              <path id="Path_1756" data-name="Path 1756" d="M2.112.1a1.707,1.707,0,0,0,1.88-1.672,1.508,1.508,0,0,0-1.24-1.488v-.032A1.464,1.464,0,0,0,3.792-4.5a1.507,1.507,0,0,0-1.7-1.472,2.348,2.348,0,0,0-1.64.7l.392.464a1.712,1.712,0,0,1,1.216-.568.9.9,0,0,1,.992.928c0,.632-.416,1.12-1.624,1.12v.56c1.352,0,1.824.472,1.824,1.168A1.081,1.081,0,0,1,2.056-.5,1.939,1.939,0,0,1,.6-1.176L.232-.7A2.428,2.428,0,0,0,2.112.1ZM6.664.1C7.776.1,8.488-.912,8.488-2.952S7.776-5.976,6.664-5.976s-1.832.984-1.832,3.024S5.544.1,6.664.1Zm0-.584c-.672,0-1.12-.744-1.12-2.472,0-1.712.448-2.44,1.12-2.44s1.112.728,1.112,2.44C7.776-1.224,7.328-.48,6.664-.48ZM11.1.1c1.112,0,1.824-1.016,1.824-3.056S12.216-5.976,11.1-5.976s-1.832.984-1.832,3.024S9.984.1,11.1.1Zm0-.584c-.672,0-1.12-.744-1.12-2.472,0-1.712.448-2.44,1.12-2.44s1.112.728,1.112,2.44C12.216-1.224,11.768-.48,11.1-.48Z" transform="translate(16.749 67.043)" fill="#fff" stroke="rgba(0,0,0,0)" stroke-width="1"/>
              <path id="Path_1755" data-name="Path 1755" d="M1.848.091A1.494,1.494,0,0,0,3.493-1.372a1.32,1.32,0,0,0-1.085-1.3V-2.7a1.281,1.281,0,0,0,.91-1.239A1.318,1.318,0,0,0,1.827-5.229a2.054,2.054,0,0,0-1.435.616l.343.406A1.5,1.5,0,0,1,1.8-4.7a.788.788,0,0,1,.868.812c0,.553-.364.98-1.421.98v.49c1.183,0,1.6.413,1.6,1.022A.946.946,0,0,1,1.8-.441,1.7,1.7,0,0,1,.525-1.029L.2-.609A2.124,2.124,0,0,0,1.848.091Zm3.864,0a1.666,1.666,0,0,0,1.68-1.764A1.464,1.464,0,0,0,5.845-3.3a1.492,1.492,0,0,0-.763.2l.126-1.484H7.147v-.553h-2.5L4.487-2.73l.343.21a1.4,1.4,0,0,1,.854-.3A1.038,1.038,0,0,1,6.748-1.652,1.109,1.109,0,0,1,5.656-.441,1.688,1.688,0,0,1,4.4-1.008l-.315.42A2.18,2.18,0,0,0,5.712.091Zm4,0c.973,0,1.6-.889,1.6-2.674s-.623-2.646-1.6-2.646-1.6.861-1.6,2.646S8.736.091,9.716.091Zm0-.511c-.588,0-.98-.651-.98-2.163s.392-2.135.98-2.135.973.637.973,2.135S10.3-.42,9.716-.42Zm3.941-4.13h.511v-.434h.854v-.441h-.854v-.434h-.511v.434H12.1v.441h1.561Zm-.273,1.841v-.5H14.9v.5Zm0-1.365H14.9v.5H13.384Zm3.549.5h-1.54v-.5h1.54Zm0,.861h-1.54v-.5h1.54Zm.987.805H15.393v-.427h2.051V-4.452H12.887v2.121H14.9V-1.9H12.943v-.252h-.5V-1.9h-.28v.434h.28v2h.5v-2H14.9v.763c-.574.021-1.106.042-1.512.056l.042.455c.791-.042,1.939-.1,3.066-.175a2.331,2.331,0,0,1,.168.413l.406-.147a4.05,4.05,0,0,0-.721-1.246l-.385.126a4.556,4.556,0,0,1,.308.448l-.875.035V-1.47h2.023V0c0,.077-.028.1-.112.105s-.343.007-.672,0a1.952,1.952,0,0,1,.154.427A2.675,2.675,0,0,0,17.7.455c.182-.084.224-.2.224-.448ZM16.611-5.425v-.434H16.1v.434h-.819v.441H16.1v.441h.511v-.441H18.2v-.441Zm5.25-.406c-.021,1.064.021,4.466-2.884,5.936a1.553,1.553,0,0,1,.42.406,5.607,5.607,0,0,0,2.772-3.878A5.59,5.59,0,0,0,25,.483a1.588,1.588,0,0,1,.378-.441c-2.471-1.1-2.891-4.025-3-4.858.035-.413.042-.763.049-1.015Z" transform="translate(-0.251 8.043)" fill="#fff" stroke="rgba(0,0,0,0)" stroke-width="1"/>
            </g>
            <line id="Line_385" data-name="Line 385" y1="173.304" transform="translate(33.747 6.45)" fill="none" stroke="#fff" stroke-miterlimit="10" stroke-width="1"/>
          </g>
          <g id="Group_1810" data-name="Group 1810" transform="translate(43.533 37.78)">
            <g id="Group_1809" data-name="Group 1809" transform="translate(0)">
              <g id="Group_1808" data-name="Group 1808">
                <line id="Line_390" data-name="Line 390" x1="19.641" y1="13.864" fill="none" stroke="#fff" stroke-linecap="round" stroke-miterlimit="10" stroke-width="2"/>
                <line id="Line_391" data-name="Line 391" x1="19.641" y1="13.728" transform="translate(19.641 13.864)" fill="none" stroke="#fff" stroke-linecap="round" stroke-miterlimit="10" stroke-width="2"/>
                <line id="Line_392" data-name="Line 392" x1="19.641" y1="13.321" transform="translate(39.282 27.593)" fill="none" stroke="#fff" stroke-linecap="round" stroke-miterlimit="10" stroke-width="2"/>
                <line id="Line_393" data-name="Line 393" x1="19.641" y1="13.932" transform="translate(58.923 40.913)" fill="none" stroke="#fff" stroke-linecap="round" stroke-miterlimit="10" stroke-width="2"/>
                <line id="Line_394" data-name="Line 394" x1="19.641" y1="13.524" transform="translate(78.564 54.845)" fill="none" stroke="#fff" stroke-linecap="round" stroke-miterlimit="10" stroke-width="2"/>
                <line id="Line_395" data-name="Line 395" x1="19.641" y1="10.67" transform="translate(98.205 68.37)" fill="none" stroke="#fff" stroke-linecap="round" stroke-miterlimit="10" stroke-width="2"/>
                <line id="Line_396" data-name="Line 396" x1="19.641" y1="7.612" transform="translate(117.846 79.04)" fill="none" stroke="#fff" stroke-linecap="round" stroke-miterlimit="10" stroke-width="2"/>
                <line id="Line_397" data-name="Line 397" x1="19.641" y1="6.592" transform="translate(137.487 86.652)" fill="none" stroke="#fff" stroke-linecap="round" stroke-miterlimit="10" stroke-width="2"/>
              </g>
            </g>
          </g>
          <g id="Group_1813" data-name="Group 1813" transform="translate(41.494 35.741)">
            <g id="Group_1812" data-name="Group 1812" transform="translate(0 0)">
              <g id="Group_1811" data-name="Group 1811">
                <rect id="Rectangle_2313" data-name="Rectangle 2313" width="4.078" height="4.078" rx="2.039" fill="#fff" stroke="#fff" stroke-miterlimit="10" stroke-width="0.5"/>
                <rect id="Rectangle_2314" data-name="Rectangle 2314" width="4.078" height="4.078" rx="2.039" transform="translate(19.641 13.864)" fill="#fff" stroke="#fff" stroke-miterlimit="10" stroke-width="0.5"/>
                <rect id="Rectangle_2315" data-name="Rectangle 2315" width="4.078" height="4.078" rx="2.039" transform="translate(39.282 27.593)" fill="#fff" stroke="#fff" stroke-miterlimit="10" stroke-width="0.5"/>
                <rect id="Rectangle_2316" data-name="Rectangle 2316" width="4.078" height="4.078" rx="2.039" transform="translate(58.923 40.913)" fill="#fff" stroke="#fff" stroke-miterlimit="10" stroke-width="0.5"/>
                <rect id="Rectangle_2317" data-name="Rectangle 2317" width="4.078" height="4.078" rx="2.039" transform="translate(78.564 54.845)" fill="#fff" stroke="#fff" stroke-miterlimit="10" stroke-width="0.5"/>
                <rect id="Rectangle_2318" data-name="Rectangle 2318" width="4.078" height="4.078" rx="2.039" transform="translate(98.205 68.37)" fill="#fff" stroke="#fff" stroke-miterlimit="10" stroke-width="0.5"/>
                <rect id="Rectangle_2319" data-name="Rectangle 2319" width="4.078" height="4.078" rx="2.039" transform="translate(117.846 79.04)" fill="#fff" stroke="#fff" stroke-miterlimit="10" stroke-width="0.5"/>
                <rect id="Rectangle_2320" data-name="Rectangle 2320" width="4.078" height="4.078" rx="2.039" transform="translate(137.487 86.652)" fill="#fff" stroke="#fff" stroke-miterlimit="10" stroke-width="0.5"/>
                <rect id="Rectangle_2321" data-name="Rectangle 2321" width="4.078" height="4.078" rx="2.039" transform="translate(157.129 93.244)" fill="#fff" stroke="#fff" stroke-miterlimit="10" stroke-width="0.5"/>
              </g>
            </g>
          </g>
        </g>
      </g>
    </g>
  </g>
</svg>
