<svg xmlns="http://www.w3.org/2000/svg" width="353.048" height="315.393" viewBox="0 0 353.048 315.393">
  <g id="data7" transform="translate(8244.948 13405.746)">
    <path id="Path_1565" data-name="Path 1565" d="M4.452.156c2.208,0,3.756-1.764,3.756-4.584S6.66-8.964,4.452-8.964.7-7.248.7-4.428,2.244.156,4.452.156Zm0-.972c-1.584,0-2.616-1.416-2.616-3.612S2.868-7.992,4.452-7.992,7.068-6.636,7.068-4.428,6.024-.816,4.452-.816ZM10.1,0h5.208V-.948H11.22v-3.2h3.336V-5.1H11.22V-7.86h3.96v-.948H10.1Zm10.38.156a3.4,3.4,0,0,0,2.7-1.26l-.612-.7a2.674,2.674,0,0,1-2.04.984c-1.68,0-2.736-1.392-2.736-3.612,0-2.2,1.1-3.564,2.772-3.564a2.4,2.4,0,0,1,1.8.84l.6-.72a3.252,3.252,0,0,0-2.412-1.092c-2.232,0-3.9,1.728-3.9,4.572S18.3.156,20.484.156ZM24.816,0h2.256c2.652,0,4.1-1.644,4.1-4.428s-1.452-4.38-4.152-4.38H24.816Zm1.116-.912V-7.9h1c2.076,0,3.1,1.236,3.1,3.468S29-.912,26.928-.912Zm17.28-3.252h-4.92V-8.352H42.54v-.876H33.156v.876H37.38v4.188H32.532v.876H37.38v4.2h.912v-4.2h4.92ZM34-7.524a14.043,14.043,0,0,1,1.08,2.748l.84-.288a11.5,11.5,0,0,0-1.14-2.7Zm6.36,2.784a23.561,23.561,0,0,0,1.476-2.82L40.9-7.824a17.907,17.907,0,0,1-1.3,2.832ZM49.02-1.98h4.056v-.8H49.02ZM49.3-5.508v.816h3.576v-.816Zm1.068-2.544A17.045,17.045,0,0,0,51.036-9.8l-.9-.228a12.643,12.643,0,0,1-1.824,3.768v-.768H46.92V-9.78h-.864v2.748H44.508v.852h1.548v4.092c-.66.3-1.272.576-1.752.768l.336.9c1.116-.54,2.6-1.272,4-1.956l-.24-.816c-.492.228-1,.468-1.476.7V-6.18h1.344a7.53,7.53,0,0,1-.564.648c.228.132.636.384.816.516a12.017,12.017,0,0,0,1.452-2.2h4.26C54.072-2.376,53.892-.528,53.5-.12a.6.6,0,0,1-.516.192,17.568,17.568,0,0,1-1.812-.084A2.244,2.244,0,0,1,51.456.9a13.859,13.859,0,0,0,1.86.012A1.205,1.205,0,0,0,54.3.42c.48-.6.636-2.5.828-8,0-.12.012-.468.012-.468Z" transform="translate(-8016 -13395.714)" fill="#bfbfbf"/>
    <g id="Group_1913" data-name="Group 1913" transform="translate(-5581 -2935)">
      <g id="data_7-06" transform="translate(-2718.799 -10552.1)">
        <g id="Group_1868" data-name="Group 1868">
          <g id="Group_1865" data-name="Group 1865">
            <path id="Path_1582" data-name="Path 1582" d="M.582-4.953A9.19,9.19,0,0,1,.949-7.82,3.566,3.566,0,0,1,2.038-9.495a2.785,2.785,0,0,1,1.819-.589,2.967,2.967,0,0,1,1.418.325,2.711,2.711,0,0,1,1.007.939,5.035,5.035,0,0,1,.623,1.493,9.922,9.922,0,0,1,.226,2.374A9.216,9.216,0,0,1,6.768-2.1,3.567,3.567,0,0,1,5.682-.421,2.785,2.785,0,0,1,3.857.171,2.756,2.756,0,0,1,1.576-.87,6.618,6.618,0,0,1,.582-4.953Zm1.267,0a6.3,6.3,0,0,0,.579,3.292,1.706,1.706,0,0,0,1.428.819,1.7,1.7,0,0,0,1.428-.822,6.3,6.3,0,0,0,.579-3.288,6.3,6.3,0,0,0-.579-3.3,1.718,1.718,0,0,0-1.442-.815,1.58,1.58,0,0,0-1.356.719A6.369,6.369,0,0,0,1.85-4.953Z" transform="translate(97.191 396.575)" fill="#55585f"/>
            <path id="Path_1581" data-name="Path 1581" d="M7.063-1.185V0H.425A2.181,2.181,0,0,1,.569-.856,4.53,4.53,0,0,1,1.38-2.192,12.718,12.718,0,0,1,2.994-3.713,13.676,13.676,0,0,0,5.206-5.84a2.547,2.547,0,0,0,.575-1.483A1.648,1.648,0,0,0,5.258-8.56a1.89,1.89,0,0,0-1.367-.5,1.926,1.926,0,0,0-1.425.534,2.022,2.022,0,0,0-.541,1.48L.658-7.179a3.12,3.12,0,0,1,.98-2.161,3.342,3.342,0,0,1,2.281-.743,3.183,3.183,0,0,1,2.288.8A2.631,2.631,0,0,1,7.049-7.3,3.013,3.013,0,0,1,6.8-6.111a4.6,4.6,0,0,1-.819,1.226,19.943,19.943,0,0,1-1.9,1.767q-1.11.932-1.425,1.264a4.055,4.055,0,0,0-.521.668Z" transform="translate(157.052 396.575)" fill="#55585f"/>
            <path id="Path_1580" data-name="Path 1580" d="M4.535,0V-2.4H.178v-1.13l4.583-6.508H5.768v6.508H7.125V-2.4H5.768V0Zm0-3.535V-8.063L1.391-3.535Z" transform="translate(216.905 396.575)" fill="#55585f"/>
            <path id="Path_1579" data-name="Path 1579" d="M6.981-7.583l-1.226.1a2.322,2.322,0,0,0-.466-1.055A1.632,1.632,0,0,0,4.055-9.07a1.694,1.694,0,0,0-1.034.329A2.81,2.81,0,0,0,2.1-7.5a6.48,6.48,0,0,0-.349,2.322A2.857,2.857,0,0,1,2.843-6.186a2.929,2.929,0,0,1,1.35-.329,2.8,2.8,0,0,1,2.1.908,3.258,3.258,0,0,1,.867,2.346A3.861,3.861,0,0,1,6.751-1.5,2.97,2.97,0,0,1,5.631-.26,3.058,3.058,0,0,1,4.014.171,3.159,3.159,0,0,1,1.5-.962,5.724,5.724,0,0,1,.527-4.7,6.7,6.7,0,0,1,1.6-8.933a3.092,3.092,0,0,1,2.528-1.151,2.836,2.836,0,0,1,1.942.664A2.821,2.821,0,0,1,6.981-7.583ZM1.946-3.254a2.86,2.86,0,0,0,.271,1.219,2.017,2.017,0,0,0,.757.887,1.893,1.893,0,0,0,1.021.3,1.74,1.74,0,0,0,1.343-.63A2.481,2.481,0,0,0,5.9-3.185a2.321,2.321,0,0,0-.555-1.641,1.823,1.823,0,0,0-1.4-.6,1.9,1.9,0,0,0-1.418.6A2.161,2.161,0,0,0,1.946-3.254Z" transform="translate(276.779 396.575)" fill="#55585f"/>
            <path id="Path_1578" data-name="Path 1578" d="M2.48-5.446a2.321,2.321,0,0,1-1.137-.8,2.1,2.1,0,0,1-.37-1.247,2.438,2.438,0,0,1,.788-1.843,2.922,2.922,0,0,1,2.1-.747,2.941,2.941,0,0,1,2.117.764,2.472,2.472,0,0,1,.8,1.86,2.049,2.049,0,0,1-.367,1.216,2.311,2.311,0,0,1-1.113.8A2.7,2.7,0,0,1,6.7-4.473a2.672,2.672,0,0,1,.483,1.6A2.885,2.885,0,0,1,6.275-.706a3.312,3.312,0,0,1-2.4.877,3.305,3.305,0,0,1-2.4-.88A2.928,2.928,0,0,1,.569-2.9a2.654,2.654,0,0,1,.5-1.641A2.487,2.487,0,0,1,2.48-5.446ZM2.233-7.536a1.564,1.564,0,0,0,.459,1.165,1.626,1.626,0,0,0,1.192.452,1.594,1.594,0,0,0,1.168-.449,1.484,1.484,0,0,0,.456-1.1,1.538,1.538,0,0,0-.469-1.141A1.6,1.6,0,0,0,3.871-9.07,1.614,1.614,0,0,0,2.7-8.618,1.455,1.455,0,0,0,2.233-7.536ZM1.836-2.9a2.231,2.231,0,0,0,.25,1.021,1.765,1.765,0,0,0,.743.764,2.173,2.173,0,0,0,1.062.271A1.99,1.99,0,0,0,5.35-1.411a1.946,1.946,0,0,0,.575-1.445A1.978,1.978,0,0,0,5.333-4.33,2.031,2.031,0,0,0,3.85-4.912a1.949,1.949,0,0,0-1.442.575A1.958,1.958,0,0,0,1.836-2.9Z" transform="translate(336.633 396.575)" fill="#55585f"/>
            <path id="Path_1577" data-name="Path 1577" d="M5.227,0H3.994V-7.858a6.373,6.373,0,0,1-1.168.849,8.279,8.279,0,0,1-1.3.637V-7.563A7.447,7.447,0,0,0,3.336-8.741a4.635,4.635,0,0,0,1.1-1.343h.795ZM8.385-4.953A9.19,9.19,0,0,1,8.751-7.82,3.566,3.566,0,0,1,9.841-9.495a2.785,2.785,0,0,1,1.819-.589,2.967,2.967,0,0,1,1.418.325,2.711,2.711,0,0,1,1.007.939,5.035,5.035,0,0,1,.623,1.493,9.922,9.922,0,0,1,.226,2.374A9.216,9.216,0,0,1,14.571-2.1,3.567,3.567,0,0,1,13.485-.421,2.785,2.785,0,0,1,11.66.171,2.756,2.756,0,0,1,9.378-.87,6.618,6.618,0,0,1,8.385-4.953Zm1.267,0a6.3,6.3,0,0,0,.579,3.292,1.706,1.706,0,0,0,1.428.819,1.7,1.7,0,0,0,1.428-.822,6.3,6.3,0,0,0,.579-3.288,6.3,6.3,0,0,0-.579-3.3,1.718,1.718,0,0,0-1.442-.815,1.58,1.58,0,0,0-1.356.719A6.369,6.369,0,0,0,9.652-4.953Z" transform="translate(392.965 396.575)" fill="#55585f"/>
          </g>
          <line id="Line_459" data-name="Line 459" x2="299.3" transform="translate(100.7 381.4)" fill="none" stroke="#55585f" stroke-miterlimit="10" stroke-width="1"/>
        </g>
        <g id="Group_1871" data-name="Group 1871" transform="translate(0 28.5)">
          <line id="Line_466" data-name="Line 466" y1="270.8" transform="translate(100.7 82.1)" fill="none" stroke="#55585f" stroke-miterlimit="10" stroke-width="1"/>
        </g>
        <g id="Group_1874" data-name="Group 1874" transform="translate(0.61)">
          <g id="Group_1873" data-name="Group 1873" transform="translate(100.7 110.6)">
            <g id="Group_1872" data-name="Group 1872">
              <rect id="Rectangle_2367" data-name="Rectangle 2367" width="242.09" height="18" fill="#efefef"/>
              <rect id="Rectangle_2368" data-name="Rectangle 2368" width="228.09" height="18" transform="translate(0 24.9)" fill="#efefef"/>
              <rect id="Rectangle_2369" data-name="Rectangle 2369" width="227.19" height="18" transform="translate(0 49.846)" fill="#efefef"/>
              <rect id="Rectangle_2370" data-name="Rectangle 2370" width="223.89" height="18" transform="translate(0 74.869)" fill="#efefef"/>
              <rect id="Rectangle_2371" data-name="Rectangle 2371" width="220.29" height="18" transform="translate(0 99.792)" fill="#efefef"/>
              <rect id="Rectangle_2373" data-name="Rectangle 2373" width="209.49" height="18" transform="translate(0 124.715)" fill="#efefef"/>
              <rect id="Rectangle_2374" data-name="Rectangle 2374" width="202" height="18" transform="translate(0 149.738)" fill="#efefef"/>
              <rect id="Rectangle_2375" data-name="Rectangle 2375" width="195.1" height="18" transform="translate(0 174.661)" fill="#4891f2"/>
              <rect id="Rectangle_2376" data-name="Rectangle 2376" width="195.1" height="18" transform="translate(0 199.584)" fill="#efefef"/>
              <rect id="Rectangle_2377" data-name="Rectangle 2377" width="187.7" height="18" transform="translate(0 224.63)" fill="#efefef"/>
              <rect id="Rectangle_2378" data-name="Rectangle 2378" width="185" height="18" transform="translate(0 249.53)" fill="#efefef"/>
            </g>
          </g>
        </g>
        <g id="Group_1875" data-name="Group 1875">
          <path id="Path_1576" data-name="Path 1576" d="M11.153.4a.1.1,0,0,1-.11.11h-.678a.1.1,0,0,1-.11-.11V-.452H3.761V.432q0,.11-.1.11H2.973a.1.1,0,0,1-.11-.11l.027-4.809V-7.083l-.027-3.535q0-.116.11-.116l1.952.027H9.091l1.952-.027q.11,0,.11.116L11.125-7.44v3.062Zm-.9-1.658V-5.316H3.761v4.062Zm0-4.85v-3.8H3.761v3.8ZM27.539-2.165a2.421,2.421,0,0,0-.4.534q-.13.212-.171.212a.775.775,0,0,1-.206-.1,14.752,14.752,0,0,1-5.46-5.9q0,2.048.027,4.857h1.007l1.754-.027q.116,0,.116.11v.6a.1.1,0,0,1-.116.116l-1.754-.027h-.993q.014.788.041,1.9.014.671.014.754a.1.1,0,0,1-.11.11h-.747a.1.1,0,0,1-.11-.11q0-.055.007-.438.027-1.213.034-2.213h-.856l-1.74.027q-.11,0-.11-.116v-.6a.1.1,0,0,1,.11-.11l1.74.027h.87q.041-2.041.041-4.713a14.718,14.718,0,0,1-5.117,5.809.679.679,0,0,1-.226.11q-.082,0-.171-.2a1.6,1.6,0,0,0-.418-.5,13.127,13.127,0,0,0,3.24-2.617A14.762,14.762,0,0,0,20.065-7.83H17.092l-1.87.027a.1.1,0,0,1-.11-.11v-.637a.1.1,0,0,1,.11-.11l1.87.027h3.377V-9.878a10.519,10.519,0,0,0-.1-1.7,8.6,8.6,0,0,1,.966.082q.171.027.171.116a.447.447,0,0,1-.034.158,1.5,1.5,0,0,0-.048.151,5.633,5.633,0,0,0-.075,1.178v1.26h3.665L26.9-8.659a.1.1,0,0,1,.11.11v.637a.1.1,0,0,1-.11.11L25.018-7.83H21.743A14.267,14.267,0,0,0,27.539-2.165Z" transform="translate(67.983 374.166)" fill="#efefef"/>
          <path id="Path_1575" data-name="Path 1575" d="M10.707.829q0,.1-.11.1H9.961q-.11,0-.11-.1V.212H4.158V.87a.1.1,0,0,1-.116.116h-.63q-.1,0-.1-.116l.014-2.555V-2.932L3.316-4.617q0-.11.1-.11L5.3-4.7H8.728l1.863-.027q.116,0,.116.11l-.014,1.5v1.4ZM9.851-.486v-1.48H4.158v1.48Zm0-2.165V-4H4.158v1.35ZM13.358-5.1a1.724,1.724,0,0,0-.39.507q-.137.253-.212.253a.628.628,0,0,1-.192-.055,18.24,18.24,0,0,1-5.247-3.2q0,.76.041,1.665.027.664.027.692a.1.1,0,0,1-.11.11H6.583a.1.1,0,0,1-.11-.11q0-.021.034-.884.027-.767.034-1.445A15.894,15.894,0,0,1,1.48-4.371a.64.64,0,0,1-.185.055q-.082,0-.212-.247a1.487,1.487,0,0,0-.363-.445A15.649,15.649,0,0,0,5.912-7.83H3.172l-1.9.027q-.116,0-.116-.11V-8.46q0-.1.116-.1l1.9.027H6.515v-1.4q-1.932.192-3.466.281-.1.007-.137.007A.22.22,0,0,1,2.74-9.7a1.141,1.141,0,0,1-.1-.192,1.631,1.631,0,0,0-.308-.473q1.987-.069,4.4-.295A24.018,24.018,0,0,0,9.57-11.1a4.588,4.588,0,0,0,.945-.295,3.874,3.874,0,0,1,.74.534.275.275,0,0,1,.1.2q0,.137-.281.137a5.368,5.368,0,0,0-.829.1q-1.267.247-2.9.425v1.473h3.494l1.9-.027q.116,0,.116.1v.548q0,.11-.116.11l-1.9-.027H7.919A18.3,18.3,0,0,0,10.55-6.213,21.271,21.271,0,0,0,13.358-5.1Zm14.3,1.281a1.194,1.194,0,0,0-.363.486q-.1.2-.178.2a.506.506,0,0,1-.212-.082,7.615,7.615,0,0,1-3.316-3.062H21.312a7.946,7.946,0,0,1-.939,1.5.3.3,0,0,1,.1-.014l1.288.027h1.308l1.35-.027q.11,0,.11.1L24.5-3.72v.747l.027.952a.1.1,0,0,1-.11.11l-1.35-.027H20.428V-1a1.417,1.417,0,0,0,.123.788,5.685,5.685,0,0,0,2.37.24A12.945,12.945,0,0,0,24.7-.055a1.191,1.191,0,0,0,.623-.24,1.083,1.083,0,0,0,.295-.534,7.3,7.3,0,0,0,.116-.884,2.92,2.92,0,0,0,.493.295q.253.116.253.219,0,.034-.014.144A2.177,2.177,0,0,1,25.874.336,1.866,1.866,0,0,1,24.86.7a16.5,16.5,0,0,1-2.007.089A19.426,19.426,0,0,1,20.661.706a1.318,1.318,0,0,1-.7-.24,1.752,1.752,0,0,1-.336-1.281V-1.829L19.6-2.555a.1.1,0,0,1,.11-.11l1.391.027h2.61V-4.055H21.757l-1.3.027a.1.1,0,0,1-.11-.11v-.6A10.384,10.384,0,0,1,18.339-2.9a.776.776,0,0,1-.226.11q-.069,0-.185-.192a1.279,1.279,0,0,0-.377-.411,9.627,9.627,0,0,0,1.815-1.384,6.4,6.4,0,0,0,1.1-1.493h-.534l-1.993.027q-.11,0-.11-.123v-.521q0-.123.11-.123l1.993.027h.548v-1.74L18.716-8.7q-.11,0-.11-.1v-.562a.1.1,0,0,1,.11-.11l1.767.027v-.589a8.213,8.213,0,0,0-.082-1.459q.452.021.843.069.164.027.164.116a.531.531,0,0,1-.069.219,3.437,3.437,0,0,0-.082,1.041v.6h2.295v-.589a7,7,0,0,0-.1-1.459q.466.021.856.069.171.027.171.116a.531.531,0,0,1-.069.219,3.184,3.184,0,0,0-.089,1.041v.6h.336L26.6-9.467a.1.1,0,0,1,.11.11V-8.8q0,.1-.11.1l-1.939-.027h-.336v1.74h1.028l1.987-.027q.1,0,.1.123v.521q0,.123-.1.123l-1.987-.027h-.918A7.09,7.09,0,0,0,27.662-3.816Zm-4.11-3.172v-1.74H21.257v1.74Zm-6.124,3.8Q16.962-1.767,16.174.069a3.656,3.656,0,0,0-.233.63q0,.171-.116.171a.553.553,0,0,1-.212-.082,6.551,6.551,0,0,1-.671-.452A5.724,5.724,0,0,0,15.571-.7a18.557,18.557,0,0,0,1.24-3.316A1.676,1.676,0,0,0,17.3-3.6q.178.1.178.192A1.226,1.226,0,0,1,17.428-3.185Zm.548-6.638a.188.188,0,0,1,.048.11.288.288,0,0,1-.1.158l-.308.384q-.1.11-.137.11T17.4-9.118a9.514,9.514,0,0,0-1.836-1.6q-.062-.034-.062-.069t.1-.137l.308-.322q.1-.1.144-.1a.173.173,0,0,1,.082.027A9.674,9.674,0,0,1,17.976-9.824Zm-.651,3.439q.055.055.055.082a.212.212,0,0,1-.069.116l-.336.39q-.123.151-.158.151a.131.131,0,0,1-.082-.048,9.45,9.45,0,0,0-1.891-1.535q-.069-.034-.069-.069t.082-.123l.295-.356q.069-.1.137-.1a.213.213,0,0,1,.089.027A11.134,11.134,0,0,1,17.325-6.385Z" transform="translate(67.983 349.225)" fill="#efefef"/>
          <path id="Path_1574" data-name="Path 1574" d="M6.145-9.276q0,.116-.123.116L4.377-9.193H4.014v1.267h.24L5.7-7.953q.1,0,.1.11L5.782-6.563v1.85L5.8-3.425q0,.11-.1.11L4.254-3.343h-.24v1.336H4.3l1.658-.027q.11,0,.11.1v.548a.1.1,0,0,1-.11.11L4.3-1.308H4.014v.644L4.042.952q0,.1-.11.1h-.61q-.11,0-.11-.1L3.24-.664v-.644H2.583L.9-1.281q-.1,0-.1-.11v-.548a.085.085,0,0,1,.1-.1l1.685.027H3.24V-3.343H2.987l-1.432.027a.1.1,0,0,1-.11-.11l.027-1.288v-1.85L1.445-7.844a.1.1,0,0,1,.11-.11l1.432.027H3.24V-9.193H2.692l-1.651.034a.1.1,0,0,1-.116-.116V-9.81q0-.11.116-.11l1.651.027H3.24v-.158a10.7,10.7,0,0,0-.1-1.569q.507.021.856.069.158.027.158.13a1.786,1.786,0,0,1-.055.226,3.363,3.363,0,0,0-.089.98v.322h.363L6.022-9.92q.123,0,.123.11ZM5.056-3.987v-1.37H2.22v1.37Zm0-2V-7.282H2.22v1.295ZM13.468-.843a.1.1,0,0,1-.11.11L11.5-.76H10.55v.185l.027,1.5a.1.1,0,0,1-.11.11H9.851a.1.1,0,0,1-.11-.11l.027-1.5V-.76H8.152L6.289-.733q-.116,0-.116-.11V-1.35q0-.11.116-.11l.192.007q.206.014.452.021V-2.439l-.027-.8a.1.1,0,0,1,.11-.11l1.7.027H9.769v-1H8.741L7.179-4.3q-.11,0-.11-.123L7.1-5.261v-.692L7.07-6.8q0-.123.11-.123l1.562.027h1.87l1.541-.027q.11,0,.11.123l-.027.843v.692l.027.843q0,.123-.11.123l-1.541-.027H10.55v1h.521l1.672-.027a.1.1,0,0,1,.11.11v.493a.1.1,0,0,1-.11.11L11.07-2.665H10.55v1.233H11.5l1.863-.027a.1.1,0,0,1,.11.11Zm-2.007-4.1V-6.248h-3.6v1.308ZM9.769-1.432V-2.665H7.693v1.233Zm3.562-6.426q0,.123-.1.123L11.4-7.762H8.227l-1.843.027q-.1,0-.1-.123v-.48q0-.11.1-.11l1.644.027q.247-.644.452-1.315l-1.445.027q-.116,0-.116-.11v-.48q0-.11.116-.11l1.514.027h.11l.13-.466a3.261,3.261,0,0,0,.11-.815,5.8,5.8,0,0,1,.836.1q.171.021.171.123a.366.366,0,0,1-.1.2,1.079,1.079,0,0,0-.164.336l-.144.521h.911l1.548-.027a.1.1,0,0,1,.11.11l-.027.8v1.076l1.192-.027q.1,0,.1.11Zm-2.076-.562V-9.735H9.3q-.24.781-.432,1.315ZM25.463-2.48a2.218,2.218,0,0,1-.48,1.048.852.852,0,0,1-.63.24q-.877,0-1.582-1.651a9.588,9.588,0,0,1-2.185,1.7,1.129,1.129,0,0,1-.2.1q-.082,0-.226-.185a1.715,1.715,0,0,0-.377-.363A7.894,7.894,0,0,0,22.49-3.59l-.041-.123A18.754,18.754,0,0,1,21.805-7.6H19.051l-1.918.027q-.13,0-.13-.11v-.507q0-.11.13-.11l1.918.027h2.713a3.747,3.747,0,0,1-.014-.377,9.155,9.155,0,0,0-.116-1.165,3.955,3.955,0,0,1,.76.069q.226.041.226.151a.527.527,0,0,1-.069.212.992.992,0,0,0-.048.39v.719h.63L25.073-8.3a.1.1,0,0,1,.11.11v.507a.1.1,0,0,1-.11.11L23.134-7.6h-.589a20.976,20.976,0,0,0,.493,3.261,6.789,6.789,0,0,0,.6-1.226,4.709,4.709,0,0,0,.322-1.1,3.517,3.517,0,0,1,.685.295q.144.069.144.178,0,.055-.158.212a3.209,3.209,0,0,0-.322.644,11.344,11.344,0,0,1-1.021,1.836,5.172,5.172,0,0,0,.6,1.185q.274.384.459.384.432,0,.562-1.315a1.608,1.608,0,0,0,.411.37q.178.11.178.2A1.082,1.082,0,0,1,25.463-2.48ZM20.887-4.138a.1.1,0,0,1-.11.11l-1.048-.027h-.9l-1.069.027a.1.1,0,0,1-.11-.11l.027-.884v-.692l-.027-.9a.1.1,0,0,1,.11-.11l1.069.027h.9l1.048-.027a.1.1,0,0,1,.11.11l-.027.9v.692Zm-.712-.48V-6.131H18.366v1.514Zm1.151.973a2.709,2.709,0,0,0-.082.473.515.515,0,0,1-.069.267.608.608,0,0,1-.226.1q-1.377.411-2.946.726a2.235,2.235,0,0,0-.575.185.365.365,0,0,1-.171.082q-.082,0-.137-.144a6.354,6.354,0,0,1-.212-.754,6.257,6.257,0,0,0,1.247-.144A19.556,19.556,0,0,0,21.326-3.644Zm3.343-5.282a.148.148,0,0,1,.034.075q0,.027-.082.11l-.247.226a.4.4,0,0,1-.151.089q-.021,0-.075-.062a6.123,6.123,0,0,0-.911-.911q-.055-.041-.055-.062t.11-.11l.253-.192a.193.193,0,0,1,.11-.062.158.158,0,0,1,.082.048A8.338,8.338,0,0,1,24.669-8.926ZM26.642.932q0,.11-.123.11h-.637a.1.1,0,0,1-.11-.11V.171H16.318v.76a.1.1,0,0,1-.11.11h-.651a.1.1,0,0,1-.11-.11l.027-5.254v-2.8l-.027-3.747a.1.1,0,0,1,.11-.11l1.952.027h7.07l1.939-.027q.123,0,.123.11l-.027,3.329v3.22Zm-.87-1.507v-9.618H16.318V-.575Z" transform="translate(67.983 324.282)" fill="#efefef"/>
          <path id="Path_1573" data-name="Path 1573" d="M11.07.74q0,.116-.123.116h-.678q-.1,0-.1-.116V.082H3.857V.795q0,.116-.11.116H3.083q-.11,0-.11-.116L3-1.713V-2.932L2.973-4.59a.1.1,0,0,1,.11-.11l1.939.027h4L10.947-4.7q.123,0,.123.11l-.027,1.473v1.363Zm-.9-1.445V-3.884H3.857V-.706Zm2.548-5.583a.2.2,0,0,1,.041.089q0,.048-.137.151l-.4.267a.431.431,0,0,1-.178.089q-.041,0-.089-.069-.4-.569-.884-1.144-4.391.562-8.549.774a1.975,1.975,0,0,0-.685.116.484.484,0,0,1-.24.082q-.116,0-.164-.171-.11-.377-.212-.925.466.021.9.021.308,0,.541-.007l.993-.041a31.08,31.08,0,0,0,1.815-3.679,3.716,3.716,0,0,0,.247-.952,5.769,5.769,0,0,1,.9.24q.212.082.212.2a.307.307,0,0,1-.11.206,2.227,2.227,0,0,0-.37.617A37.245,37.245,0,0,1,4.631-7.1q3.083-.178,5.837-.48A19.6,19.6,0,0,0,8.652-9.289Q8.6-9.337,8.6-9.371t.13-.144l.308-.206a.329.329,0,0,1,.158-.089.188.188,0,0,1,.11.048A21.232,21.232,0,0,1,12.721-6.289ZM26.847-1.6l-.1.692a3.566,3.566,0,0,1-.363,1.26Q26.066.87,24.97.87q-.644,0-1.165-.027a.537.537,0,0,1-.26-.062A.542.542,0,0,1,23.47.575a1.415,1.415,0,0,0-.2-.493,15.069,15.069,0,0,0,1.644.1q.651,0,.829-.363a2.746,2.746,0,0,0,.206-.9h-7.3l-.164.452q-.055.123-.137.123a.577.577,0,0,1-.1-.014L17.784-.6q-.151-.027-.151-.089a.484.484,0,0,1,.041-.137A12.974,12.974,0,0,0,18.222-2.3a4.721,4.721,0,0,0,.144-.733.124.124,0,0,1,.137-.123l1.767.027h5.008v-.788H20.161l-1.911.027q-.11,0-.11-.123v-.452a.1.1,0,0,1,.11-.11l1.911.027H23.99l1.966-.027a.1.1,0,0,1,.11.11l-.027.733v.363l.027.774a.1.1,0,0,1-.11.11L23.99-2.514H19.106q-.164.582-.24.8h5.891l1.966-.027q.13,0,.13.1A.113.113,0,0,1,26.847-1.6Zm.521-6.22a.158.158,0,0,1,.021.062q0,.034-.116.089l-.212.1a.38.38,0,0,1-.13.048q-.041,0-.082-.089a3.435,3.435,0,0,1-.137-.336l-.8.116v1.582l.027.98q0,.116-.11.116h-.466q-.1,0-.1-.116l.027-.98v-1.5q-.521.055-.726.069a1.617,1.617,0,0,0-.493.1.3.3,0,0,1-.144.069q-.082,0-.123-.158a3.225,3.225,0,0,1-.11-.521q.2.014.349.014t.349-.014q.123-.123.658-.726a9.7,9.7,0,0,0-1.144-1.069q-.048-.034-.048-.062a.294.294,0,0,1,.069-.1l.2-.226q.062-.075.1-.075a.155.155,0,0,1,.089.048l.267.206a9.64,9.64,0,0,0,.575-.884,3.242,3.242,0,0,0,.206-.548,3.341,3.341,0,0,1,.548.24q.11.069.11.144t-.11.137a.868.868,0,0,0-.226.267,10.869,10.869,0,0,1-.726,1q.082.069.48.459a8.12,8.12,0,0,0,.527-.754,2.436,2.436,0,0,0,.267-.534,4.25,4.25,0,0,1,.493.295q.11.089.11.151t-.11.144a1.148,1.148,0,0,0-.336.336A13.915,13.915,0,0,1,25.08-8.234q.7-.062,1.4-.164l-.267-.438a.085.085,0,0,1-.021-.048q0-.041.089-.075l.212-.1a.331.331,0,0,1,.089-.027q.034,0,.082.055A6.857,6.857,0,0,1,27.368-7.823Zm-6.549.014a.158.158,0,0,1,.021.062q0,.034-.116.089l-.212.1a.424.424,0,0,1-.13.041q-.048,0-.082-.089-.034-.069-.082-.185t-.055-.151l-.76.116v1.569l.027.98q0,.116-.11.116h-.466q-.1,0-.1-.116l.027-.98v-1.5q-.493.055-.685.069a1.617,1.617,0,0,0-.493.1.3.3,0,0,1-.137.069q-.082,0-.13-.158a3.224,3.224,0,0,1-.11-.521q.377.021.459.021t.185-.007q.637-.706.685-.767a8.322,8.322,0,0,0-1.192-1.11q-.041-.041-.041-.062a.263.263,0,0,1,.069-.11l.2-.219q.062-.075.1-.075a.166.166,0,0,1,.089.041l.295.24a6,6,0,0,0,.562-.856,3.242,3.242,0,0,0,.206-.548,3.341,3.341,0,0,1,.548.24q.11.069.11.144t-.11.137a.868.868,0,0,0-.226.267q-.295.445-.712.966.336.308.493.48l.5-.726a2.436,2.436,0,0,0,.267-.534,4.249,4.249,0,0,1,.493.295q.11.089.11.151t-.11.144a1.212,1.212,0,0,0-.343.336,12.572,12.572,0,0,1-1.3,1.514q.4-.034,1.377-.151l-.267-.438a.085.085,0,0,1-.021-.048q0-.034.089-.075l.212-.1a.331.331,0,0,1,.089-.027q.034,0,.075.055A6.6,6.6,0,0,1,20.819-7.81Zm2.624,2.452a.1.1,0,0,1-.11.11L22.5-5.275h-.575l-.822.027a.1.1,0,0,1-.11-.11l.034-.651v-.349L21-6.994q0-.123.11-.123l.822.027H22.5l.829-.027q.11,0,.11.123l-.027.637v.349Zm-.562-.4v-.856H21.558v.856ZM17.167-3.1A27.68,27.68,0,0,1,15.879-.075a2.384,2.384,0,0,0-.267.6Q15.592.7,15.475.7a.322.322,0,0,1-.2-.082,5.341,5.341,0,0,1-.6-.48,5.478,5.478,0,0,0,.685-1.048,19.641,19.641,0,0,0,1.233-3.028,2.034,2.034,0,0,0,.411.4q.219.164.219.247A.516.516,0,0,1,17.167-3.1Zm.144-6.775q.048.048.048.075a.4.4,0,0,1-.089.151l-.295.336q-.1.116-.144.116a.131.131,0,0,1-.082-.048,9.74,9.74,0,0,0-1.6-1.459q-.075-.055-.075-.089t.1-.13l.26-.308q.089-.11.137-.11a.148.148,0,0,1,.075.034A9.426,9.426,0,0,1,17.311-9.878Zm-.452,3.357a.15.15,0,0,1,.055.089.315.315,0,0,1-.082.144l-.295.384q-.082.089-.11.089a.131.131,0,0,1-.082-.048A8.829,8.829,0,0,0,14.66-7.227q-.075-.041-.075-.075a.261.261,0,0,1,.075-.13l.267-.356q.062-.082.1-.082a.233.233,0,0,1,.1.041A10.476,10.476,0,0,1,16.859-6.522ZM23.723-9.8a.1.1,0,0,1-.116.116l-.993-.027h-.87l-1.021.027a.1.1,0,0,1-.116-.116v-.377q0-.11.116-.11l1.021.027h.87l.993-.027q.116,0,.116.11Zm-.253-1.089a.1.1,0,0,1-.11.11l-.815-.027h-.6l-.815.027a.1.1,0,0,1-.11-.11v-.349q0-.116.11-.116l.815.034h.6l.815-.034q.11,0,.11.116ZM23.4-7.714q0,.11-.116.11L22.5-7.631h-.562l-.788.027a.1.1,0,0,1-.11-.11v-.336q0-.116.11-.116l.788.034H22.5l.781-.034a.1.1,0,0,1,.116.116Zm0-1.041q0,.11-.116.11L22.5-8.673h-.562l-.788.027a.1.1,0,0,1-.11-.11v-.336a.1.1,0,0,1,.11-.11l.788.027H22.5l.781-.027q.116,0,.116.11ZM18.489-7.1a.213.213,0,0,1-.069.13,1.239,1.239,0,0,0-.171.363,8.684,8.684,0,0,1-.4,1.082q-.069.151-.13.151a.308.308,0,0,1-.123-.055,1.488,1.488,0,0,0-.377-.171A5.909,5.909,0,0,0,17.7-6.761a2.211,2.211,0,0,0,.116-.589,3.488,3.488,0,0,1,.5.13Q18.489-7.166,18.489-7.1Zm6.467,0a.213.213,0,0,1-.069.13,1.239,1.239,0,0,0-.171.363,8.326,8.326,0,0,1-.4,1.069q-.075.151-.13.151a.308.308,0,0,1-.123-.055,1.488,1.488,0,0,0-.377-.171,5.928,5.928,0,0,0,.486-1.151,2.211,2.211,0,0,0,.116-.589,3.2,3.2,0,0,1,.5.13Q24.956-7.166,24.956-7.1Zm2.466,1.274a1.835,1.835,0,0,0-.363.171.307.307,0,0,1-.151.082q-.055,0-.116-.137A7.778,7.778,0,0,1,26.278-7.1a.217.217,0,0,1-.014-.062q0-.048.137-.089l.253-.075a.378.378,0,0,1,.075-.014q.041,0,.062.075A6.333,6.333,0,0,0,27.423-5.823Zm-6.775-.233a.289.289,0,0,1,.007.048q0,.062-.116.089l-.281.069a.4.4,0,0,1-.1.021q-.055,0-.069-.089a5.726,5.726,0,0,0-.336-1.247.157.157,0,0,1-.014-.048q0-.055.13-.082l.219-.055a.856.856,0,0,1,.089-.014q.041,0,.082.069A5.687,5.687,0,0,1,20.647-6.056Z" transform="translate(67.983 299.341)" fill="#4891f2"/>
          <path id="Path_1572" data-name="Path 1572" d="M13.153-5.138q0,.123-.13.123l-1.836-.027h-8.3l-1.843.027q-.11,0-.11-.123v-.548a.1.1,0,0,1,.11-.11l1.843.027h3.6v-1.35H4.508l-1.98.027q-.1,0-.1-.11v-.534q0-.11.1-.11l1.98.027h1.98V-9.049H3.823l-1.966.027a.1.1,0,0,1-.11-.11v-.534a.1.1,0,0,1,.11-.11l1.966.027H7.947a14.368,14.368,0,0,0,.733-1.26,2.6,2.6,0,0,0,.206-.644,5.119,5.119,0,0,1,.788.26q.158.082.158.171a.2.2,0,0,1-.13.171.813.813,0,0,0-.253.26q-.322.541-.685,1.041h1.5l1.952-.027a.1.1,0,0,1,.11.11v.534a.1.1,0,0,1-.11.11l-1.952-.027H7.33v1.233h2.2L11.5-7.844q.116,0,.116.11V-7.2q0,.11-.116.11L9.529-7.118H7.33v1.35h3.857L13.023-5.8q.13,0,.13.11ZM13.317.178a1.5,1.5,0,0,0-.349.548q-.123.253-.219.253a1.053,1.053,0,0,1-.178-.027Q8.454.116,6.878-2.542A4.922,4.922,0,0,1,5.405-.651,8.877,8.877,0,0,1,1.521.952,1.481,1.481,0,0,1,1.329.98q-.1,0-.206-.24A1.607,1.607,0,0,0,.774.219a8.389,8.389,0,0,0,4.11-1.452,3.666,3.666,0,0,0,1.233-1.6H3.227l-1.891.027a.1.1,0,0,1-.11-.11V-3.48a.1.1,0,0,1,.11-.11l1.891.027h3.1a3.943,3.943,0,0,0,.089-.808A2.5,2.5,0,0,0,6.385-4.8q.5.041.8.1.226.048.226.158a.463.463,0,0,1-.1.233,3.751,3.751,0,0,0-.158.747h3.686l1.9-.027a.1.1,0,0,1,.11.11v.562a.1.1,0,0,1-.11.11l-1.9-.027H7.44Q9.056-.425,13.317.178ZM5.631-10.351a.221.221,0,0,1,.034.1q0,.055-.151.123l-.363.185a.662.662,0,0,1-.178.069q-.048,0-.089-.082a4.945,4.945,0,0,0-.815-1.219.2.2,0,0,1-.055-.1q0-.069.144-.123l.377-.171a.414.414,0,0,1,.137-.041.174.174,0,0,1,.1.055A6.75,6.75,0,0,1,5.631-10.351ZM25.463-2.48a2.218,2.218,0,0,1-.48,1.048.852.852,0,0,1-.63.24q-.877,0-1.582-1.651a9.588,9.588,0,0,1-2.185,1.7,1.129,1.129,0,0,1-.2.1q-.082,0-.226-.185a1.715,1.715,0,0,0-.377-.363A7.894,7.894,0,0,0,22.49-3.59l-.041-.123A18.754,18.754,0,0,1,21.805-7.6H19.051l-1.918.027q-.13,0-.13-.11v-.507q0-.11.13-.11l1.918.027h2.713a3.747,3.747,0,0,1-.014-.377,9.155,9.155,0,0,0-.116-1.165,3.955,3.955,0,0,1,.76.069q.226.041.226.151a.527.527,0,0,1-.069.212.992.992,0,0,0-.048.39v.719h.63L25.073-8.3a.1.1,0,0,1,.11.11v.507a.1.1,0,0,1-.11.11L23.134-7.6h-.589a20.976,20.976,0,0,0,.493,3.261,6.789,6.789,0,0,0,.6-1.226,4.709,4.709,0,0,0,.322-1.1,3.517,3.517,0,0,1,.685.295q.144.069.144.178,0,.055-.158.212a3.209,3.209,0,0,0-.322.644,11.344,11.344,0,0,1-1.021,1.836,5.172,5.172,0,0,0,.6,1.185q.274.384.459.384.432,0,.562-1.315a1.608,1.608,0,0,0,.411.37q.178.11.178.2A1.082,1.082,0,0,1,25.463-2.48ZM20.887-4.138a.1.1,0,0,1-.11.11l-1.048-.027h-.9l-1.069.027a.1.1,0,0,1-.11-.11l.027-.884v-.692l-.027-.9a.1.1,0,0,1,.11-.11l1.069.027h.9l1.048-.027a.1.1,0,0,1,.11.11l-.027.9v.692Zm-.712-.48V-6.131H18.366v1.514Zm1.151.973a2.709,2.709,0,0,0-.082.473.515.515,0,0,1-.069.267.608.608,0,0,1-.226.1q-1.377.411-2.946.726a2.235,2.235,0,0,0-.575.185.365.365,0,0,1-.171.082q-.082,0-.137-.144a6.354,6.354,0,0,1-.212-.754,6.257,6.257,0,0,0,1.247-.144A19.556,19.556,0,0,0,21.326-3.644Zm3.343-5.282a.148.148,0,0,1,.034.075q0,.027-.082.11l-.247.226a.4.4,0,0,1-.151.089q-.021,0-.075-.062a6.123,6.123,0,0,0-.911-.911q-.055-.041-.055-.062t.11-.11l.253-.192a.193.193,0,0,1,.11-.062.158.158,0,0,1,.082.048A8.338,8.338,0,0,1,24.669-8.926ZM26.642.932q0,.11-.123.11h-.637a.1.1,0,0,1-.11-.11V.171H16.318v.76a.1.1,0,0,1-.11.11h-.651a.1.1,0,0,1-.11-.11l.027-5.254v-2.8l-.027-3.747a.1.1,0,0,1,.11-.11l1.952.027h7.07l1.939-.027q.123,0,.123.11l-.027,3.329v3.22Zm-.87-1.507v-9.618H16.318V-.575Z" transform="translate(67.983 274.398)" fill="#efefef"/>
          <path id="Path_1571" data-name="Path 1571" d="M13.228-9.543a.1.1,0,0,1-.11.11l-1.966-.027H8.947v1.144h1.562l1.925-.027a.1.1,0,0,1,.11.11l-.027.98v.945l.027.98a.1.1,0,0,1-.11.11l-1.925-.027H6.857L4.932-5.22a.1.1,0,0,1-.11-.11l.027-.98v-.945l-.027-.98a.1.1,0,0,1,.11-.11l1.925.027H8.152V-9.461H6.439l-1.952.027a.1.1,0,0,1-.11-.11v-.534a.1.1,0,0,1,.11-.11l1.952.027H8.152v-.39a5.318,5.318,0,0,0-.1-1.178,7.508,7.508,0,0,1,.891.082q.164.021.164.11a1.044,1.044,0,0,1-.069.226,1.917,1.917,0,0,0-.089.712v.438h2.206l1.966-.027a.1.1,0,0,1,.11.11Zm-3.8,3.651V-7.673H7.885v1.781Zm2.3,0V-7.673H10.187v1.781Zm-4.6,0V-7.673h-1.5v1.781ZM4.316-7.8a.211.211,0,0,1-.11.171,1.286,1.286,0,0,0-.343.4,13.3,13.3,0,0,1-.781,1.254V-.939L3.11.87q0,.1-.11.1H2.35q-.11,0-.11-.1L2.268-.939V-3.466q0-.507.027-1.514A11.728,11.728,0,0,1,1.076-3.727Q.952-3.6.891-3.6T.74-3.788A1.31,1.31,0,0,0,.39-4.234,11.238,11.238,0,0,0,3.22-7.686a2.984,2.984,0,0,0,.267-.692,2.968,2.968,0,0,1,.692.4Q4.316-7.864,4.316-7.8ZM13.2-3.72q0,.11-.116.11l-1.959-.027H6.145L4.192-3.61a.1.1,0,0,1-.11-.11v-.534a.1.1,0,0,1,.11-.11l1.952.027h4.98l1.959-.027q.116,0,.116.11ZM11.317-.843a2.3,2.3,0,0,1-.26.939,1.135,1.135,0,0,1-.411.377,4.547,4.547,0,0,1-1.9.253A6.234,6.234,0,0,1,7.179.589a.782.782,0,0,1-.6-.829V-1.767a9.22,9.22,0,0,0-.055-1.055,7.993,7.993,0,0,1,.849.089q.171.014.171.11a.849.849,0,0,1-.055.171,1.9,1.9,0,0,0-.082.671V-.644a.479.479,0,0,0,.363.527,4.955,4.955,0,0,0,1.069.082A3.505,3.505,0,0,0,10.166-.2q.363-.192.384-1.247a2.489,2.489,0,0,0,.527.267q.253.089.253.2Q11.331-.952,11.317-.843ZM4.33-10.94q0,.089-.123.151a1.313,1.313,0,0,0-.37.336,14.539,14.539,0,0,1-2.494,2.6.526.526,0,0,1-.212.11q-.048,0-.178-.2a1.358,1.358,0,0,0-.377-.425A9.927,9.927,0,0,0,3.138-10.9a2.625,2.625,0,0,0,.329-.63,4.685,4.685,0,0,1,.726.4Q4.33-11.043,4.33-10.94ZM5.748-2.22A6.758,6.758,0,0,1,4.556.226Q4.5.3,4.453.3A.433.433,0,0,1,4.316.253L3.857.014Q3.74-.048,3.74-.1a.166.166,0,0,1,.041-.089A5.65,5.65,0,0,0,4.946-2.5q.027-.089.082-.089a.774.774,0,0,1,.171.048l.411.158q.151.062.151.116A.11.11,0,0,1,5.748-2.22ZM13.441-.281a.217.217,0,0,1,.014.062q0,.048-.13.123l-.418.219a.384.384,0,0,1-.144.055q-.062,0-.1-.1a10.317,10.317,0,0,0-1.26-2.213.166.166,0,0,1-.041-.082q0-.041.123-.1l.4-.2A.376.376,0,0,1,12-2.548q.034,0,.089.069A11.909,11.909,0,0,1,13.441-.281ZM10.125-1.952a.123.123,0,0,1,.034.075q0,.048-.089.123l-.349.267a.437.437,0,0,1-.171.1q-.034,0-.082-.069a8.253,8.253,0,0,0-1.26-1.377q-.055-.041-.055-.069t.123-.137l.308-.212a.3.3,0,0,1,.13-.075.158.158,0,0,1,.082.048A8.628,8.628,0,0,1,10.125-1.952ZM25.463-2.48a2.218,2.218,0,0,1-.48,1.048.852.852,0,0,1-.63.24q-.877,0-1.582-1.651a9.588,9.588,0,0,1-2.185,1.7,1.129,1.129,0,0,1-.2.1q-.082,0-.226-.185a1.715,1.715,0,0,0-.377-.363A7.894,7.894,0,0,0,22.49-3.59l-.041-.123A18.754,18.754,0,0,1,21.805-7.6H19.051l-1.918.027q-.13,0-.13-.11v-.507q0-.11.13-.11l1.918.027h2.713a3.747,3.747,0,0,1-.014-.377,9.155,9.155,0,0,0-.116-1.165,3.955,3.955,0,0,1,.76.069q.226.041.226.151a.527.527,0,0,1-.069.212.992.992,0,0,0-.048.39v.719h.63L25.073-8.3a.1.1,0,0,1,.11.11v.507a.1.1,0,0,1-.11.11L23.134-7.6h-.589a20.976,20.976,0,0,0,.493,3.261,6.789,6.789,0,0,0,.6-1.226,4.709,4.709,0,0,0,.322-1.1,3.517,3.517,0,0,1,.685.295q.144.069.144.178,0,.055-.158.212a3.209,3.209,0,0,0-.322.644,11.344,11.344,0,0,1-1.021,1.836,5.172,5.172,0,0,0,.6,1.185q.274.384.459.384.432,0,.562-1.315a1.608,1.608,0,0,0,.411.37q.178.11.178.2A1.082,1.082,0,0,1,25.463-2.48ZM20.887-4.138a.1.1,0,0,1-.11.11l-1.048-.027h-.9l-1.069.027a.1.1,0,0,1-.11-.11l.027-.884v-.692l-.027-.9a.1.1,0,0,1,.11-.11l1.069.027h.9l1.048-.027a.1.1,0,0,1,.11.11l-.027.9v.692Zm-.712-.48V-6.131H18.366v1.514Zm1.151.973a2.709,2.709,0,0,0-.082.473.515.515,0,0,1-.069.267.608.608,0,0,1-.226.1q-1.377.411-2.946.726a2.235,2.235,0,0,0-.575.185.365.365,0,0,1-.171.082q-.082,0-.137-.144a6.354,6.354,0,0,1-.212-.754,6.257,6.257,0,0,0,1.247-.144A19.556,19.556,0,0,0,21.326-3.644Zm3.343-5.282a.148.148,0,0,1,.034.075q0,.027-.082.11l-.247.226a.4.4,0,0,1-.151.089q-.021,0-.075-.062a6.123,6.123,0,0,0-.911-.911q-.055-.041-.055-.062t.11-.11l.253-.192a.193.193,0,0,1,.11-.062.158.158,0,0,1,.082.048A8.338,8.338,0,0,1,24.669-8.926ZM26.642.932q0,.11-.123.11h-.637a.1.1,0,0,1-.11-.11V.171H16.318v.76a.1.1,0,0,1-.11.11h-.651a.1.1,0,0,1-.11-.11l.027-5.254v-2.8l-.027-3.747a.1.1,0,0,1,.11-.11l1.952.027h7.07l1.939-.027q.123,0,.123.11l-.027,3.329v3.22Zm-.87-1.507v-9.618H16.318V-.575Z" transform="translate(67.983 249.457)" fill="#efefef"/>
          <path id="Path_1570" data-name="Path 1570" d="M13.228-5.953q0,.11-.116.11l-1.918-.027H9.118a12.219,12.219,0,0,1-.493,1.48H10.7l1.856-.027a.1.1,0,0,1,.11.11l-.027,1.487v1.014l.014,1.582A.991.991,0,0,1,12.358.6a2.389,2.389,0,0,1-1.151.212.547.547,0,0,1-.26-.034.317.317,0,0,1-.075-.192,1.314,1.314,0,0,0-.24-.575q.377.027.815.027a.412.412,0,0,0,.343-.116.574.574,0,0,0,.075-.343V-3.692h-1.5v2.555L10.392.4q0,.116-.123.116H9.735q-.11,0-.11-.116l.027-1.541V-3.692H8.221v2.555L8.248.4q0,.116-.123.116H7.59q-.11,0-.11-.116l.027-1.541V-3.692H6.1V-.774l.027,1.6a.1.1,0,0,1-.11.11h-.61A.1.1,0,0,1,5.3.829l.027-1.6V-2.891L5.3-4.309a.1.1,0,0,1,.11-.11L7.3-4.391h.493a10.018,10.018,0,0,0,.5-1.48H6.946l-1.939.027q-.116,0-.116-.11v-.562q0-.11.116-.11L6.946-6.6h4.247l1.918-.027q.116,0,.116.11ZM4.672-9.892q0,.13-.116.13L3.336-9.789h-.1v2.932l1.1-.027a.1.1,0,0,1,.11.11v.589a.1.1,0,0,1-.11.11L3.24-6.1v3.213l1.4-.63a1.849,1.849,0,0,0-.034.363q0,.075.007.144.014.13.014.185,0,.13-.226.247A25.492,25.492,0,0,1,1.918-1.528a3.219,3.219,0,0,0-.658.267.271.271,0,0,1-.185.1q-.082,0-.151-.137Q.849-1.48.658-2.076A10.6,10.6,0,0,0,1.98-2.411l.445-.158V-6.1H2.254l-1.1.027q-.116,0-.116-.11v-.589q0-.11.116-.11l1.1.027h.171V-9.789H2.172L.966-9.762q-.11,0-.11-.13v-.575a.1.1,0,0,1,.11-.11l1.206.027H3.336l1.219-.027q.116,0,.116.11Zm7.926-.781a.774.774,0,0,1-.055.178,1.742,1.742,0,0,0-.082.658v.856l.027,1.069a.1.1,0,0,1-.11.11L10.55-7.83h-3.1L5.638-7.8a.1.1,0,0,1-.11-.11l.027-1.069v-.856a4.538,4.538,0,0,0-.1-1.048A6.5,6.5,0,0,1,6.3-10.8q.158.021.158.116a.728.728,0,0,1-.069.233,1.686,1.686,0,0,0-.075.617v1.308H8.543v-1.644A8.563,8.563,0,0,0,8.46-11.6q.336.014.87.075.158.021.158.11a.9.9,0,0,1-.089.253,4.26,4.26,0,0,0-.069.993v1.644h2.343V-9.817a5.7,5.7,0,0,0-.082-1.069,7.66,7.66,0,0,1,.849.082Q12.6-10.783,12.6-10.673Zm14.5,4.645a.1.1,0,0,1-.11.11l-1.87-.027h-3.7V-.575h2.843L26.21-.6a.1.1,0,0,1,.11.11V.144a.1.1,0,0,1-.11.11L24.258.226H17.839L15.886.253q-.116,0-.116-.11V-.493q0-.11.116-.11l1.952.027H20.5V-5.946H17.01l-1.856.027a.1.1,0,0,1-.11-.11v-.651a.1.1,0,0,1,.11-.11l1.856.027H20.5V-9.57a10.625,10.625,0,0,0-.1-1.767,8.966,8.966,0,0,1,1.014.089q.158.021.158.123a.673.673,0,0,1-.075.24,5.132,5.132,0,0,0-.082,1.26v2.864h3.7l1.87-.027a.1.1,0,0,1,.11.11Z" transform="translate(67.983 223.573)" fill="#efefef"/>
          <path id="Path_1569" data-name="Path 1569" d="M9.056-1.384q0,.11-.116.11H8.392a.1.1,0,0,1-.11-.11v-.452H5.953v.712q0,.116-.11.116H5.282a.1.1,0,0,1-.116-.116l.027-2.1V-4.11l-.027-1.26a.1.1,0,0,1,.11-.11l1.254.027H7.693L8.947-5.48a.1.1,0,0,1,.11.11L9.029-4.33v.939ZM8.282-2.535v-2.22H5.953v2.22Zm4.9-4.473q0,.11-.116.11l-.192-.007q-.6-.014-1.377-.021v4.542l.014,1.946A1.323,1.323,0,0,1,11.173.6a1.427,1.427,0,0,1-.6.247A6.546,6.546,0,0,1,9.522.911H9.276A.508.508,0,0,1,9.008.87.511.511,0,0,1,8.94.63,1.913,1.913,0,0,0,8.686.014,10.59,10.59,0,0,0,9.837.082a.94.94,0,0,0,.658-.171.65.65,0,0,0,.144-.473V-6.926H6.878L4.912-6.9q-.1,0-.1-.11v-.569q0-.123.1-.123l1.966.027h4.254L13.064-7.7q.116,0,.116.123Zm-.062-2.726q0,.11-.1.11l-1.836-.027H9.248l.027.966q0,.116-.11.116H8.549a.1.1,0,0,1-.116-.116l.027-.966H5.528l.027.966q0,.116-.11.116H4.83a.1.1,0,0,1-.116-.116l.027-.966H2.85l-1.822.027q-.116,0-.116-.11v-.6q0-.11.116-.11l1.822.027H4.741a7.641,7.641,0,0,0-.1-1.274q.418.021.87.075.158.021.158.123a.373.373,0,0,1-.055.185,2.425,2.425,0,0,0-.089.891H8.46a6.717,6.717,0,0,0-.082-1.274q.6.027.856.055.151.027.151.13a.485.485,0,0,1-.055.2,2.615,2.615,0,0,0-.082.891h1.939l1.836-.027q.1,0,.1.11Zm-8.5,1.541q0,.075-.123.185a1.3,1.3,0,0,0-.253.39q-.322.658-.8,1.445V-.939L3.466.9q0,.1-.11.1H2.679q-.11,0-.11-.1L2.6-.939V-3.322q0-.062.041-1.74a11.222,11.222,0,0,1-1.4,1.5q-.144.123-.192.123T.87-3.6a1.633,1.633,0,0,0-.363-.466A9.768,9.768,0,0,0,3.494-7.926a3.391,3.391,0,0,0,.226-.747q.473.185.726.308Q4.617-8.269,4.617-8.193Zm20.1,3.3q0,.11-.1.11l-1.863-.027h-1.4v.6h.856l1.685-.027a.1.1,0,0,1,.11.11l-.027.884v.671L24-1.692a.1.1,0,0,1-.11.11l-1.685-.034h-.548A7.99,7.99,0,0,0,24.367-.308a1.629,1.629,0,0,0-.322.4q-.1.185-.164.185A.523.523,0,0,1,23.7.219a7.464,7.464,0,0,1-2.384-1.582q.007.959.041,1.61.007.11.021.343.007.1.007.123,0,.116-.11.116h-.493q-.11,0-.11-.116,0-.027.014-.26.048-.712.069-1.815A8.54,8.54,0,0,1,17.763.521a.841.841,0,0,1-.212.062q-.075,0-.185-.192A1.191,1.191,0,0,0,17.03.027,9.259,9.259,0,0,0,20.3-1.617h-.336l-1.685.034a.1.1,0,0,1-.11-.11l.027-.877V-3.24l-.027-.884a.1.1,0,0,1,.11-.11l1.685.027H20.7v-.6H19.387l-1.863.027q-.116,0-.116-.11v-.37q0-.11.116-.11l1.863.027H20.7a4.726,4.726,0,0,0-.089-.8,5.564,5.564,0,0,1,.719.069q.164.027.164.1a.659.659,0,0,1-.069.164,1.159,1.159,0,0,0-.069.466h1.4l1.863-.027q.1,0,.1.11Zm-1.4,2.843v-.644h-1.98v.644Zm0-1.076v-.623h-1.98v.623Zm-2.61,1.076v-.644H18.853v.644Zm0-1.076v-.623H18.853v.623ZM26.6-.452a1.925,1.925,0,0,1-.1.706.83.83,0,0,1-.267.336,2.556,2.556,0,0,1-1.445.267.466.466,0,0,1-.267-.048.548.548,0,0,1-.075-.219,1.584,1.584,0,0,0-.206-.548A8.773,8.773,0,0,0,25.182.1q.4,0,.5-.144a.923.923,0,0,0,.1-.527V-6.117H23.292L21.8-6.09a.1.1,0,0,1-.11-.11l.027-.939v-.918l-.027-.966a.1.1,0,0,1,.11-.11l1.493.027h1.692l1.493-.027a.1.1,0,0,1,.11.11l-.027,1.685v4.926Zm-.815-6.2v-.712H22.463v.712Zm0-1.219v-.685H22.463v.685ZM20.373-6.2a.1.1,0,0,1-.11.11L18.88-6.117H16.4v4.8L16.414.9a.085.085,0,0,1-.1.1h-.623q-.11,0-.11-.1l.027-2.22V-6.8l-.027-2.22a.1.1,0,0,1,.11-.11l1.562.027H18.88l1.384-.027a.1.1,0,0,1,.11.11l-.034,1.028v.767ZM19.6-6.652v-.712H16.4v.712Zm0-1.219v-.685H16.4v.685Zm7.563-2.288q0,.1-.116.1l-1.822-.027H23.305l.027.589q0,.1-.116.1h-.589q-.11,0-.11-.1,0-.027.007-.2t.021-.39h-3.09l.034.575q0,.1-.116.1h-.589q-.11,0-.11-.1,0-.027.007-.2t.021-.377H16.907l-1.843.027q-.11,0-.11-.1v-.521a.1.1,0,0,1,.11-.11l1.843.027H18.7a4.286,4.286,0,0,0-.1-.952q.6.021.843.055.158.027.158.123a.4.4,0,0,1-.069.185,1.394,1.394,0,0,0-.075.589h3.09a4.58,4.58,0,0,0-.1-.952q.589.021.843.055.151.027.151.123a.4.4,0,0,1-.069.185,1.522,1.522,0,0,0-.069.589h1.918l1.822-.027q.116,0,.116.11Z" transform="translate(67.983 198.632)" fill="#efefef"/>
          <path id="Path_1568" data-name="Path 1568" d="M10.687-4.467l-.055,1.014a10.766,10.766,0,0,1-.6,3.569A1.261,1.261,0,0,1,8.81.8Q8.207.8,7.741.76A.435.435,0,0,1,7.494.692.841.841,0,0,1,7.419.438a2.172,2.172,0,0,0-.2-.6,7.076,7.076,0,0,0,1.336.13,1,1,0,0,0,.514-.1.765.765,0,0,0,.267-.377,12.144,12.144,0,0,0,.438-3.309h-3A5.578,5.578,0,0,1,5.138-.733,7.15,7.15,0,0,1,2.048.815a1.337,1.337,0,0,1-.185.027q-.082,0-.212-.24A1.632,1.632,0,0,0,1.26.1,6.768,6.768,0,0,0,4.576-1.356,4.378,4.378,0,0,0,5.905-3.816H5.33l-1.856.027q-.1,0-.1-.11V-4.48q0-.11.1-.11l1.856.027H8.693l1.87-.027A.109.109,0,0,1,10.687-4.467Zm2.439-5.028a.1.1,0,0,1-.11.11L11.18-9.413H9.228l.027.925q0,.13-.11.13H8.529q-.116,0-.116-.13l.014-.281q.007-.295.014-.644H5.494l.027.939q0,.116-.11.116H4.8q-.11,0-.11-.116l.007-.288q.014-.3.021-.651H2.857l-1.836.027a.1.1,0,0,1-.11-.11v-.61a.1.1,0,0,1,.11-.11l1.836.027H4.713a7.185,7.185,0,0,0-.089-1.432,6.8,6.8,0,0,1,.87.082q.158.027.158.116a.351.351,0,0,1-.069.192,3.184,3.184,0,0,0-.089,1.041H8.44a6.78,6.78,0,0,0-.1-1.445,7.593,7.593,0,0,1,.884.082q.144.027.144.13a.427.427,0,0,1-.055.178,3.378,3.378,0,0,0-.089,1.055H11.18l1.836-.027a.1.1,0,0,1,.11.11Zm.144,5.467a2.1,2.1,0,0,0-.425.534q-.123.212-.164.212a.526.526,0,0,1-.212-.11,10.479,10.479,0,0,1-2.124-1.747A9.256,9.256,0,0,1,9.063-6.974h-2.1L5.72-6.946a.1.1,0,0,1-.11-.11v-.575q0-.116.11-.116l1.247.027H8.234l1.26-.027a.143.143,0,0,1,.137.11,2.825,2.825,0,0,0,.24.521A7.65,7.65,0,0,0,13.269-4.028ZM5.035-7a.241.241,0,0,1-.123.185,1.274,1.274,0,0,0-.343.4A11.221,11.221,0,0,1,1.528-3.459a.526.526,0,0,1-.212.11q-.055,0-.185-.212a1.861,1.861,0,0,0-.4-.418,8.4,8.4,0,0,0,3.1-2.795A3.156,3.156,0,0,0,4.179-7.5q.5.212.719.336Q5.035-7.077,5.035-7Zm19.681,2.11q0,.11-.1.11l-1.863-.027h-1.4v.6h.856l1.685-.027a.1.1,0,0,1,.11.11l-.027.884v.671L24-1.692a.1.1,0,0,1-.11.11l-1.685-.034h-.548A7.99,7.99,0,0,0,24.367-.308a1.629,1.629,0,0,0-.322.4q-.1.185-.164.185A.523.523,0,0,1,23.7.219a7.464,7.464,0,0,1-2.384-1.582q.007.959.041,1.61.007.11.021.343.007.1.007.123,0,.116-.11.116h-.493q-.11,0-.11-.116,0-.027.014-.26.048-.712.069-1.815A8.54,8.54,0,0,1,17.763.521a.841.841,0,0,1-.212.062q-.075,0-.185-.192A1.191,1.191,0,0,0,17.03.027,9.259,9.259,0,0,0,20.3-1.617h-.336l-1.685.034a.1.1,0,0,1-.11-.11l.027-.877V-3.24l-.027-.884a.1.1,0,0,1,.11-.11l1.685.027H20.7v-.6H19.387l-1.863.027q-.116,0-.116-.11v-.37q0-.11.116-.11l1.863.027H20.7a4.726,4.726,0,0,0-.089-.8,5.564,5.564,0,0,1,.719.069q.164.027.164.1a.659.659,0,0,1-.069.164,1.159,1.159,0,0,0-.069.466h1.4l1.863-.027q.1,0,.1.11Zm-1.4,2.843v-.644h-1.98v.644Zm0-1.076v-.623h-1.98v.623Zm-2.61,1.076v-.644H18.853v.644Zm0-1.076v-.623H18.853v.623ZM26.6-.452a1.925,1.925,0,0,1-.1.706.83.83,0,0,1-.267.336,2.556,2.556,0,0,1-1.445.267.466.466,0,0,1-.267-.048.548.548,0,0,1-.075-.219,1.584,1.584,0,0,0-.206-.548A8.773,8.773,0,0,0,25.182.1q.4,0,.5-.144a.923.923,0,0,0,.1-.527V-6.117H23.292L21.8-6.09a.1.1,0,0,1-.11-.11l.027-.939v-.918l-.027-.966a.1.1,0,0,1,.11-.11l1.493.027h1.692l1.493-.027a.1.1,0,0,1,.11.11l-.027,1.685v4.926Zm-.815-6.2v-.712H22.463v.712Zm0-1.219v-.685H22.463v.685ZM20.373-6.2a.1.1,0,0,1-.11.11L18.88-6.117H16.4v4.8L16.414.9a.085.085,0,0,1-.1.1h-.623q-.11,0-.11-.1l.027-2.22V-6.8l-.027-2.22a.1.1,0,0,1,.11-.11l1.562.027H18.88l1.384-.027a.1.1,0,0,1,.11.11l-.034,1.028v.767ZM19.6-6.652v-.712H16.4v.712Zm0-1.219v-.685H16.4v.685Zm7.563-2.288q0,.1-.116.1l-1.822-.027H23.305l.027.589q0,.1-.116.1h-.589q-.11,0-.11-.1,0-.027.007-.2t.021-.39h-3.09l.034.575q0,.1-.116.1h-.589q-.11,0-.11-.1,0-.027.007-.2t.021-.377H16.907l-1.843.027q-.11,0-.11-.1v-.521a.1.1,0,0,1,.11-.11l1.843.027H18.7a4.286,4.286,0,0,0-.1-.952q.6.021.843.055.158.027.158.123a.4.4,0,0,1-.069.185,1.394,1.394,0,0,0-.075.589h3.09a4.58,4.58,0,0,0-.1-.952q.589.021.843.055.151.027.151.123a.4.4,0,0,1-.069.185,1.522,1.522,0,0,0-.069.589h1.918l1.822-.027q.116,0,.116.11Z" transform="translate(67.983 173.689)" fill="#efefef"/>
          <path id="Path_1567" data-name="Path 1567" d="M13.482-3.185a1.946,1.946,0,0,0-.438.534q-.1.2-.151.2a.506.506,0,0,1-.212-.082A12.674,12.674,0,0,1,9.118-5.289H4.809A12.806,12.806,0,0,1,1.487-2.466a.871.871,0,0,1-.2.1q-.055,0-.185-.212a1.193,1.193,0,0,0-.4-.459,10.737,10.737,0,0,0,3.09-2.247H2.946l-1.856.027q-.11,0-.11-.123v-.521a.1.1,0,0,1,.11-.11l1.856.027H4.377a8.086,8.086,0,0,0,.856-1.466H4.6l-1.959.034a.1.1,0,0,1-.116-.116v-.521q0-.11.116-.11L4.6-8.138h.932q.164-.452.4-1.295H3.775l-1.952.027q-.116,0-.116-.11v-.534q0-.11.116-.11l1.952.027H6.1a6.356,6.356,0,0,0,.185-1.288q0-.137-.014-.281a5.669,5.669,0,0,1,.87.123q.226.048.226.158a.338.338,0,0,1-.082.192,3.223,3.223,0,0,0-.315.973l-.027.123h3.254l1.952-.027q.116,0,.116.11v.534q0,.11-.116.11l-1.952-.027H6.775q-.24.843-.411,1.295h3.1l1.966-.027a.1.1,0,0,1,.11.11v.521q0,.116-.11.116L9.467-7.453H8.529a7.414,7.414,0,0,0,.925,1.466H11.1l1.85-.027a.1.1,0,0,1,.11.11v.521q0,.123-.11.123L11.1-5.289h-1A12.116,12.116,0,0,0,13.482-3.185ZM8.57-5.987a10.239,10.239,0,0,1-.829-1.466H6.1a11.032,11.032,0,0,1-.781,1.466ZM7.508-4.645a.855.855,0,0,1-.089.267,3.728,3.728,0,0,0-.069.952v1.843l.027,1.26A1.056,1.056,0,0,1,7,.6a3.3,3.3,0,0,1-1.589.24A.428.428,0,0,1,5.165.8a.624.624,0,0,1-.089-.24A1.533,1.533,0,0,0,4.8-.027,9.161,9.161,0,0,0,5.878.027a.769.769,0,0,0,.541-.144.5.5,0,0,0,.13-.39V-3.453a6.629,6.629,0,0,0-.1-1.391q.137.007.884.089Q7.508-4.734,7.508-4.645Zm5,4.377a1.282,1.282,0,0,0-.4.438q-.123.206-.206.206a.863.863,0,0,1-.2-.048A12.491,12.491,0,0,1,8.09-1.63q-.055-.041-.055-.075,0-.055.13-.144l.26-.212a.307.307,0,0,1,.151-.082.137.137,0,0,1,.075.041A10.575,10.575,0,0,0,12.509-.267ZM5.837-1.726a1.481,1.481,0,0,1,.027.192q0,.1-.24.233A18.825,18.825,0,0,1,2.857-.082,1.525,1.525,0,0,0,2.37.13a.324.324,0,0,1-.185.11Q2.1.24,2.035.116A5.351,5.351,0,0,1,1.754-.6a5.639,5.639,0,0,0,.952-.226A17.644,17.644,0,0,0,5.8-2.172v.123A1.8,1.8,0,0,0,5.837-1.726Zm4.288-1.918q0,.082-.123.123a.839.839,0,0,0-.295.185,11.069,11.069,0,0,1-1.082.884.579.579,0,0,1-.2.11q-.055,0-.219-.171a1.816,1.816,0,0,0-.356-.267,6.406,6.406,0,0,0,1.267-.993,1.887,1.887,0,0,0,.308-.432A6.725,6.725,0,0,1,10-3.829.241.241,0,0,1,10.125-3.644Zm-4.364.671q.055.048.055.082t-.082.11L5.48-2.5q-.11.137-.164.137-.034,0-.082-.062a5.959,5.959,0,0,0-1.24-1.1q-.048-.027-.048-.062t.1-.151L4.3-3.987a.23.23,0,0,1,.13-.075.233.233,0,0,1,.082.034A7.282,7.282,0,0,1,5.761-2.973Zm19.7.493a2.218,2.218,0,0,1-.48,1.048.852.852,0,0,1-.63.24q-.877,0-1.582-1.651a9.588,9.588,0,0,1-2.185,1.7,1.129,1.129,0,0,1-.2.1q-.082,0-.226-.185a1.715,1.715,0,0,0-.377-.363A7.894,7.894,0,0,0,22.49-3.59l-.041-.123A18.754,18.754,0,0,1,21.805-7.6H19.051l-1.918.027q-.13,0-.13-.11v-.507q0-.11.13-.11l1.918.027h2.713a3.747,3.747,0,0,1-.014-.377,9.155,9.155,0,0,0-.116-1.165,3.955,3.955,0,0,1,.76.069q.226.041.226.151a.527.527,0,0,1-.069.212.992.992,0,0,0-.048.39v.719h.63L25.073-8.3a.1.1,0,0,1,.11.11v.507a.1.1,0,0,1-.11.11L23.134-7.6h-.589a20.976,20.976,0,0,0,.493,3.261,6.789,6.789,0,0,0,.6-1.226,4.709,4.709,0,0,0,.322-1.1,3.517,3.517,0,0,1,.685.295q.144.069.144.178,0,.055-.158.212a3.209,3.209,0,0,0-.322.644,11.344,11.344,0,0,1-1.021,1.836,5.172,5.172,0,0,0,.6,1.185q.274.384.459.384.432,0,.562-1.315a1.608,1.608,0,0,0,.411.37q.178.11.178.2A1.082,1.082,0,0,1,25.463-2.48ZM20.887-4.138a.1.1,0,0,1-.11.11l-1.048-.027h-.9l-1.069.027a.1.1,0,0,1-.11-.11l.027-.884v-.692l-.027-.9a.1.1,0,0,1,.11-.11l1.069.027h.9l1.048-.027a.1.1,0,0,1,.11.11l-.027.9v.692Zm-.712-.48V-6.131H18.366v1.514Zm1.151.973a2.709,2.709,0,0,0-.082.473.515.515,0,0,1-.069.267.608.608,0,0,1-.226.1q-1.377.411-2.946.726a2.235,2.235,0,0,0-.575.185.365.365,0,0,1-.171.082q-.082,0-.137-.144a6.354,6.354,0,0,1-.212-.754,6.257,6.257,0,0,0,1.247-.144A19.556,19.556,0,0,0,21.326-3.644Zm3.343-5.282a.148.148,0,0,1,.034.075q0,.027-.082.11l-.247.226a.4.4,0,0,1-.151.089q-.021,0-.075-.062a6.123,6.123,0,0,0-.911-.911q-.055-.041-.055-.062t.11-.11l.253-.192a.193.193,0,0,1,.11-.062.158.158,0,0,1,.082.048A8.338,8.338,0,0,1,24.669-8.926ZM26.642.932q0,.11-.123.11h-.637a.1.1,0,0,1-.11-.11V.171H16.318v.76a.1.1,0,0,1-.11.11h-.651a.1.1,0,0,1-.11-.11l.027-5.254v-2.8l-.027-3.747a.1.1,0,0,1,.11-.11l1.952.027h7.07l1.939-.027q.123,0,.123.11l-.027,3.329v3.22Zm-.87-1.507v-9.618H16.318V-.575Z" transform="translate(67.983 148.748)" fill="#efefef"/>
          <path id="Path_1566" data-name="Path 1566" d="M13.146-4.514q0,.123-.11.123l-1.829-.027H2.836l-1.829.027q-.11,0-.11-.123v-.452a.1.1,0,0,1,.11-.11l1.829.027H6.549v-.87H3.973l-1.966.014q-.116,0-.116-.1v-.452q0-.11.116-.11l1.966.027H6.549v-.87H4.713l-2.007.027a.1.1,0,0,1-.11-.11l.027-1.144V-9.878L2.6-11.016a.1.1,0,0,1,.11-.11l2.007.027H9.3l2.007-.027a.1.1,0,0,1,.11.11l-.027,1.137v1.247l.027,1.144a.1.1,0,0,1-.11.11L9.3-7.405H7.337v.87h2.72l1.966-.027a.1.1,0,0,1,.11.11V-6q0,.1-.11.1l-1.966-.014H7.337v.87h3.871l1.829-.027a.1.1,0,0,1,.11.11ZM10.6-7.981v-.973H7.337v.973Zm0-1.548v-.952H7.337v.952ZM6.549-7.981v-.973H3.412v.973Zm0-1.548v-.952H3.412v.952ZM12.906.466a.1.1,0,0,1-.11.11L10.927.548H3.172L1.288.575a.1.1,0,0,1-.11-.11V-.069a.1.1,0,0,1,.11-.11l1.884.027H6.535v-1.1H4.768l-1.959.027q-.13,0-.13-.11v-.493q0-.11.13-.11L4.768-1.9H6.535v-.055a6.1,6.1,0,0,0-.1-1.233,7.628,7.628,0,0,1,.87.082q.151.021.151.11a.569.569,0,0,1-.055.2,3.032,3.032,0,0,0-.082.843V-1.9H9.371l1.98-.027a.1.1,0,0,1,.11.11v.493a.1.1,0,0,1-.11.11l-1.98-.027H7.323v1.1h3.6L12.8-.178a.1.1,0,0,1,.11.11ZM3.268-3.692A8.11,8.11,0,0,1,1.7-2.035a.224.224,0,0,1-.11.062.261.261,0,0,1-.13-.075l-.336-.281q-.11-.1-.11-.137t.055-.075a5.42,5.42,0,0,0,1.459-1.5q.048-.075.1-.075a.435.435,0,0,1,.164.062l.356.185q.151.075.151.123A.079.079,0,0,1,3.268-3.692Zm9.44,1.123a.133.133,0,0,1,.027.069q0,.048-.123.13l-.349.226a.408.408,0,0,1-.164.069q-.048,0-.089-.075a9.711,9.711,0,0,0-1.336-1.582q-.055-.048-.055-.075,0-.048.13-.116L11.07-4.1a.448.448,0,0,1,.144-.055.2.2,0,0,1,.11.055A10.829,10.829,0,0,1,12.708-2.569ZM5.8-2.624q0,.027,0,.041,0,.082-.171.116l-.39.069a.967.967,0,0,1-.123.014q-.075,0-.089-.116a6.022,6.022,0,0,0-.253-1.3.289.289,0,0,1-.007-.048q0-.048.164-.075L5.289-4a.385.385,0,0,1,.089-.014q.069,0,.11.1A5.544,5.544,0,0,1,5.8-2.624Zm3.322-.11a.129.129,0,0,1,.007.041q0,.062-.144.11l-.4.144a.482.482,0,0,1-.1.021q-.055,0-.089-.11a7.064,7.064,0,0,0-.562-1.26.117.117,0,0,1-.021-.055q0-.041.13-.082L8.3-4.042a.377.377,0,0,1,.1-.027q.034,0,.082.069A7.619,7.619,0,0,1,9.118-2.733Zm18-7.179A.1.1,0,0,1,27-9.8L25.162-9.83H22.572v2.158h1.541l1.98-.027a.1.1,0,0,1,.11.11l-.027,2.432v2.343L26.2.706a.1.1,0,0,1-.11.11h-.664a.1.1,0,0,1-.11-.11V-.1H16.736V.733a.1.1,0,0,1-.11.11h-.651a.1.1,0,0,1-.11-.11L15.893-2.8V-4.891l-.027-2.7a.1.1,0,0,1,.11-.11l1.98.027h1.322q.027-.9.027-1.459v-.7h-2.37L15.092-9.8a.1.1,0,0,1-.11-.11v-.637a.1.1,0,0,1,.11-.11l1.843.027h8.227L27-10.659a.1.1,0,0,1,.11.11ZM25.319-.884V-6.9H22.572v2.226q0,.521.137.617a1.14,1.14,0,0,0,.562.1,1.125,1.125,0,0,0,.63-.123.715.715,0,0,0,.192-.48,10.309,10.309,0,0,0,.048-1.089,2.039,2.039,0,0,0,.507.267.415.415,0,0,1,.212.116.332.332,0,0,1,.041.192,1.117,1.117,0,0,1-.007.123q-.062,1.24-.445,1.514a1.932,1.932,0,0,1-1.137.267,2.789,2.789,0,0,1-1.178-.185q-.4-.2-.4-.932V-6.9H20.058a7.086,7.086,0,0,1-.651,2.562,4.527,4.527,0,0,1-1.48,1.672.341.341,0,0,1-.2.1q-.082,0-.233-.151A1.514,1.514,0,0,0,17-3.042a4.2,4.2,0,0,0,1.685-1.747,6.192,6.192,0,0,0,.527-2.11h-2.48V-.884ZM21.73-7.673V-9.83H20.147v.74q0,.521-.027,1.418Zm19.49,3.035a.1.1,0,0,1-.11.11l-1.836-.027h-.2V-2.1L39.089-.39A1.131,1.131,0,0,1,38.705.6a3.735,3.735,0,0,1-1.795.24.446.446,0,0,1-.267-.048.443.443,0,0,1-.1-.219A1.972,1.972,0,0,0,36.28.014q.651.055,1.281.055A.844.844,0,0,0,38.1-.055a.534.534,0,0,0,.13-.411v-4.09H30.868l-1.829.027a.1.1,0,0,1-.11-.11V-5.22a.1.1,0,0,1,.11-.11l1.829.027h8.406L41.11-5.33a.1.1,0,0,1,.11.11Zm-.308-5.515a.1.1,0,0,1-.11.11l-1.726-.027v1.514l.014,1.576A1.7,1.7,0,0,1,39-6.344a.855.855,0,0,1-.295.329,3.019,3.019,0,0,1-1.5.226h-.281a.549.549,0,0,1-.281-.041.464.464,0,0,1-.082-.212A1.478,1.478,0,0,0,36.28-6.6q.658.055,1.281.055a.859.859,0,0,0,.548-.123.517.517,0,0,0,.123-.4v-3H31.286l-1.891.027q-.116,0-.116-.11v-.582q0-.11.116-.11l1.891.027H38.9l1.9-.027a.1.1,0,0,1,.11.11ZM35.7-.432q0,.11-.116.11H35a.1.1,0,0,1-.11-.11V-.9H31.834v.712a.1.1,0,0,1-.116.116h-.589q-.11,0-.11-.116l.027-1.733v-.623l-.027-.925a.1.1,0,0,1,.11-.11l1.432.027h1.6l1.432-.027q.116,0,.116.11l-.027.76v.644Zm-.815-1.11V-2.9H31.834v1.363ZM35.7-6.693q0,.11-.116.11l-1.4-.027H32.636l-1.425.027a.1.1,0,0,1-.11-.11l.027-.829v-.671L31.1-9.022a.1.1,0,0,1,.11-.11l1.425.027h1.555l1.4-.027q.116,0,.116.11l-.027.829v.671Zm-.8-.548V-8.474h-3v1.233Z" transform="translate(53.953 123.806)" fill="#efefef"/>
        </g>
      </g>
      <line id="Line_479" data-name="Line 479" x1="1" y2="283" transform="translate(-2407.5 -10452.5)" fill="none" stroke="#707070" stroke-width="1" stroke-dasharray="1"/>
    </g>
    <path id="內文p" d="M3.516,9.356c1.068,0,1.6.756,1.6,1.944s-.66,2-1.5,2c-1.1,0-1.764-1-1.9-2.82A2.274,2.274,0,0,1,3.516,9.356Zm.1,4.8A2.641,2.641,0,0,0,6.132,11.3c0-1.836-.948-2.76-2.436-2.76a2.736,2.736,0,0,0-2,1.068C1.74,6.872,2.76,5.948,3.96,5.948a1.86,1.86,0,0,1,1.416.672l.6-.684a2.7,2.7,0,0,0-2.052-.9C2.22,5.036.672,6.356.672,9.8.672,12.7,1.92,14.156,3.612,14.156Zm4.716,0a.793.793,0,0,0,.792-.828.794.794,0,1,0-1.584,0A.793.793,0,0,0,8.328,14.156Zm4.8,0a2.857,2.857,0,0,0,2.88-3.024,2.51,2.51,0,0,0-2.652-2.8,2.558,2.558,0,0,0-1.308.348l.216-2.544h3.324V5.192H11.3L11.028,9.32l.588.36a2.393,2.393,0,0,1,1.464-.516,1.78,1.78,0,0,1,1.824,2,1.9,1.9,0,0,1-1.872,2.076,2.894,2.894,0,0,1-2.16-.972l-.54.72A3.737,3.737,0,0,0,13.128,14.156ZM17.184,14h5.532v-.948H20.28c-.444,0-.984.048-1.44.084,2.064-1.956,3.444-3.744,3.444-5.5a2.413,2.413,0,0,0-2.556-2.6,3.364,3.364,0,0,0-2.592,1.3l.636.624A2.463,2.463,0,0,1,19.6,5.936a1.546,1.546,0,0,1,1.62,1.74c0,1.512-1.272,3.264-4.032,5.676Z" transform="translate(-8031 -13201)" fill="#fff"/>
  </g>
</svg>
