<svg xmlns="http://www.w3.org/2000/svg" width="306.558" height="216.633" viewBox="0 0 306.558 216.633">
  <g id="data_1_pc_m" transform="translate(-69.574 -134.367)">
    <g id="Group_2142" data-name="Group 2142">
      <g id="Group_1580" data-name="Group 1580" transform="translate(-704 -737)">
        <rect id="Rectangle_2063" data-name="Rectangle 2063" width="252" height="27" rx="13.5" transform="translate(801 1061)" fill="#3d3c3c"/>
        <path id="內文p" d="M8.437-7.062A4.689,4.689,0,0,0,7.249-7.81L6.864-7.4a4.451,4.451,0,0,1,1.177.77ZM5.5-2.618c-1.232.22-2.453.44-3.289.572l.11.616c.9-.165,2.068-.4,3.212-.616Zm-.957-.968H3.278v-1.1H4.543ZM2.706-5.2v2.134H5.137V-5.2ZM7.59-5.39a7.568,7.568,0,0,1-.814,2.024A16.03,16.03,0,0,1,6.369-5.9H8.712v-.616h-2.4c-.022-.385-.044-.77-.066-1.166h-.7c.022.4.055.781.088,1.166H2.321V-5.9H5.687A15.237,15.237,0,0,0,6.292-2.64,5.937,5.937,0,0,1,4.631-1.21a4.223,4.223,0,0,1,.484.517A6.9,6.9,0,0,0,6.567-1.958,1.8,1.8,0,0,0,7.711-.891c.572.22.946-.22,1.089-1.419a2.059,2.059,0,0,1-.528-.363c-.077.7-.187,1.177-.341,1.133-.363-.055-.66-.429-.891-1.012a8.537,8.537,0,0,0,1.221-2.7ZM1.716-.374V-7.953H9.262V-.374ZM.935-8.7V.869h.781V.363H9.262V.869h.8V-8.7ZM16.9-3.531V-6.446h3.157v2.915Zm-3.993,0V-6.446h3.146v2.915ZM16.9-7.249V-9.207h-.847v1.958H12.1v5.2h.8v-.682h3.146V.836H16.9V-2.728h3.157V-2.1h.836V-7.249ZM27.115-9.042V-.3c0,.22-.088.3-.319.3-.209.011-1,.022-1.8-.011a3.9,3.9,0,0,1,.341.847,7.634,7.634,0,0,0,2.1-.143c.385-.143.55-.385.55-.99V-9.042ZM29.744-6.27a18.593,18.593,0,0,1,2.079,4.917l.858-.363a17.49,17.49,0,0,0-2.167-4.851Zm-5.5-.22A10.308,10.308,0,0,1,22.4-1.969a4.419,4.419,0,0,1,.77.429,12.338,12.338,0,0,0,1.98-4.785Zm13.387.836-.715.627a18.9,18.9,0,0,1,2.431,2.442l.748-.627A20.638,20.638,0,0,0,37.631-5.654ZM51.007-1.98V-.957H47.872V-1.98Zm.737-.616H47.113V.2h.759V-.341h3.872Zm2.178-1.342H45.089V.836h.792V-3.245h7.227V-.022c0,.132-.044.165-.187.176S52.283.165,51.81.143a2.464,2.464,0,0,1,.264.605,4.949,4.949,0,0,0,1.452-.1c.3-.11.4-.275.4-.671ZM51.9-5.137H47.157v-.99H51.9Zm-5.544-1.6v2.2h6.38v-2.2Zm3.729-1.32c-.121-.352-.286-.814-.44-1.188l-.792.187c.11.308.242.682.341,1h-4.5v.7h9.581v-.7ZM60.9-3.531V-6.446h3.157v2.915Zm-3.993,0V-6.446h3.146v2.915ZM60.9-7.249V-9.207h-.847v1.958H56.1v5.2h.8v-.682h3.146V.836H60.9V-2.728h3.157V-2.1h.836V-7.249Zm15.3.594a8.743,8.743,0,0,0-.88-1.859l-.605.22A8.925,8.925,0,0,1,75.559-6.4ZM73.381-8.019H72.193a10.371,10.371,0,0,0-.462-1.111l-.671.143c.132.3.264.66.374.968H70.081v.649h3.3Zm-4.51,1.573H67.716v-1.54h1.155ZM67.716-3.5h1.155V-2c-.4.088-.792.176-1.155.253Zm1.155-.682H67.716V-5.753h1.155Zm1.177-3.806v-.748H66.506v.748h.583v6.369c-.253.033-.484.088-.693.121l.165.7c.671-.165,1.485-.341,2.31-.539V.847h.649V-7.986Zm.924,6.655V-2.365h1.562v1.034Zm1.562-2.64v1.012H70.972V-3.971Zm3.179-.616a9.807,9.807,0,0,1-.924,2.1c-.11-.759-.2-1.683-.253-2.706h1.947v-.715H74.492C74.437-6.93,74.415-8.041,74.4-9.2h-.715c.022,1.155.055,2.266.1,3.289H72.677c.121-.363.264-.825.4-1.243l-.682-.121a11.529,11.529,0,0,1-.319,1.364h-.781a9.479,9.479,0,0,0-.308-1.353l-.605.088a10.8,10.8,0,0,1,.264,1.265h-.748v.715h3.938a30.4,30.4,0,0,0,.374,3.575A8.691,8.691,0,0,1,73.172-.462v-4.1H70.323v4.6h.649v-.77h1.562v.3h.616A7.14,7.14,0,0,1,72.226.3a3.612,3.612,0,0,1,.473.44A8.963,8.963,0,0,0,74.4-.814C74.679.209,75.064.8,75.614.814c.374.011.737-.429.946-2.079a2.2,2.2,0,0,1-.528-.407c-.077,1-.22,1.6-.4,1.6-.275-.011-.506-.539-.693-1.441a10.134,10.134,0,0,0,1.408-2.75Zm8.074-1.188A4.95,4.95,0,0,0,83-6.38a6.257,6.257,0,0,0,.638-.7l-.572-.187a3.928,3.928,0,0,1-.55.583c-.286-.154-.572-.319-.847-.44l-.407.363a8.086,8.086,0,0,1,.792.429A6.613,6.613,0,0,1,81-5.731a2.838,2.838,0,0,1,.451.429,7.784,7.784,0,0,0,1.1-.715,6,6,0,0,1,.792.638Zm-.033-1.969c-.2-.154-.462-.33-.759-.517a5.649,5.649,0,0,0,.6-.671l-.572-.154a4.685,4.685,0,0,1-.517.539c-.286-.154-.561-.3-.825-.407l-.4.363a7.331,7.331,0,0,1,.77.4,6.63,6.63,0,0,1-.979.561,3.446,3.446,0,0,1,.462.4,7.643,7.643,0,0,0,1.023-.66,5.444,5.444,0,0,1,.759.561Zm-5.115,3.08h7.733V-3.3h.8V-5.291h-.858c.088-.979.187-2.4.242-3.487H84.018v.561h1.749l-.033.594H84.073v.561H85.7l-.055.594H84.007v.561h1.6c-.022.22-.044.418-.066.616H79.508l-.044-.616h1.529v-.561H79.431l-.044-.594h1.562v-.561H79.354l-.044-.539A11.533,11.533,0,0,0,81-8.591L80.641-9.1a20.588,20.588,0,0,1-2.123.539l.22,3.267h-.88V-3.3h.781ZM87.4-1.991H83v-.2a11.463,11.463,0,0,0,2.486-1.364l-.5-.407-.165.044h-5.17V-3.3h4.3a10.21,10.21,0,0,1-1.749.836v.473H77.616V-1.3H82.2V-.055c0,.154-.044.187-.231.2-.165,0-.781,0-1.463-.022a3.08,3.08,0,0,1,.286.693A6.582,6.582,0,0,0,82.566.7C82.907.583,83,.4,83-.033V-1.3h4.4ZM93.94-.3V-3.091h3.531v-.792H93.94v-2.4h3.938v-.8H93.94V-9.2H93.1v2.112H90.871a15.1,15.1,0,0,0,.616-1.76l-.825-.176a10.028,10.028,0,0,1-2.035,4.048,5.477,5.477,0,0,1,.748.484,9.87,9.87,0,0,0,1.144-1.793H93.1v2.4H89.837v.792H93.1V-.3H88.649V.5H98.4V-.3Zm10.593.363c-.352-.187-.825-.418-1.331-.638a2.378,2.378,0,0,0,.825-1.364h1.166V-2.53h-1.1v-.44h-.671v.44h-1.386c.121-.242.242-.473.352-.7h2.486V-4.257c.165.143.4.341.5.451a7.892,7.892,0,0,0,.6-1.221,15.631,15.631,0,0,0,.814,2.9A5.455,5.455,0,0,1,104.511.088Zm-1.2-2a2.113,2.113,0,0,1-.825,1.089c-.407-.165-.825-.308-1.221-.429.132-.209.264-.429.407-.66Zm-2.618-2.552h1.364v.726h-1.364Zm3.432,0v.726h-1.419v-.726ZM107.954-6.3a12.915,12.915,0,0,1-.759,3.355,15.016,15.016,0,0,1-.8-3.223l.055-.132Zm-7.04.242v-.7h1.166v.7ZM102.08-7.92v.605h-1.166V-7.92Zm1.9,0v.605h-1.254V-7.92Zm-1.254,1.859v-.7h1.254v.7Zm6.787-.242V-7.04h-2.849c.176-.66.341-1.353.473-2.024l-.715-.143a14.57,14.57,0,0,1-1.551,4.785v-.583h-2.145v-.484h1.925V-6.732h.627v-.616h-.627V-8.492h-1.925v-.715h-.649v.715h-1.8v1.144h-.759v.616h.759v1.243h1.8v.484h-2.068v1.771h1.628c-.11.231-.22.462-.352.7h-1.76v.594h1.419c-.231.352-.462.7-.671.968a15.251,15.251,0,0,1,1.562.517,10.248,10.248,0,0,1-2.4.737,1.866,1.866,0,0,1,.352.55A9.793,9.793,0,0,0,102.6-.132,11.327,11.327,0,0,1,104,.55l.264-.242a3.488,3.488,0,0,1,.374.55,6.508,6.508,0,0,0,2.508-2.222A5.571,5.571,0,0,0,109.076.792,2.953,2.953,0,0,1,109.6.165a5.04,5.04,0,0,1-2.035-2.255A12.825,12.825,0,0,0,108.68-6.3Z" transform="translate(844 1078)" fill="#aca4a4"/>
        <path id="內文p-2" data-name="內文p" d="M7.073-6.4H9a12.534,12.534,0,0,1-.957,3.476A15.133,15.133,0,0,1,7.073-6.4ZM3.146-7.348H4.257a10.9,10.9,0,0,1-.781,1.089h-.33Zm7.381.946v-.77H7.315a19.282,19.282,0,0,0,.44-1.9l-.814-.132A11.77,11.77,0,0,1,5.225-4.488L4.84-4.774l-.154.044H3.08c.275-.253.528-.528.781-.8H5.775v-.726H4.444A12.15,12.15,0,0,0,5.819-8.723l-.759-.22a10.894,10.894,0,0,1-.781,1.562v-.671H3.146V-9.207H2.387v1.155H.946v.7H2.387v1.089H.484v.726H2.805A9.425,9.425,0,0,1,.407-3.8a7.584,7.584,0,0,1,.583.627,11.794,11.794,0,0,0,1.331-.9H4.037a7.02,7.02,0,0,1-1.254.979v.759c-.869.1-1.661.2-2.288.275l.1.748c.627-.077,1.375-.187,2.189-.3V-.033c0,.121-.033.154-.187.165S1.991.143,1.441.121a3.138,3.138,0,0,1,.264.715A4.538,4.538,0,0,0,3.168.715c.308-.121.4-.319.4-.737V-1.705c.715-.11,1.441-.209,2.167-.308L5.72-2.728c-.726.1-1.452.2-2.156.286v-.44A8.745,8.745,0,0,0,5.225-4.334a4.167,4.167,0,0,1,.594.517,7.691,7.691,0,0,0,.737-1.3,14.352,14.352,0,0,0,1,3.047A6.189,6.189,0,0,1,4.939.143,3.461,3.461,0,0,1,5.434.88,7.342,7.342,0,0,0,8-1.254,5.976,5.976,0,0,0,10.043.825a2.673,2.673,0,0,1,.572-.693A5.414,5.414,0,0,1,8.492-2.024,12.523,12.523,0,0,0,9.834-6.4ZM20.163-4.84H13.057v1.958a4.393,4.393,0,0,1-1.122,3.3,2.247,2.247,0,0,1,.649.506A5.238,5.238,0,0,0,13.849-2.86V-4.147h5.456v2.013c-1.914.341-3.916.66-5.159.847l.264.737c1.353-.242,3.157-.616,4.9-.968V-.11c0,.154-.066.22-.264.22-.165.011-.9.011-1.584-.011a2.779,2.779,0,0,1,.231.7A8.84,8.84,0,0,0,19.657.7c.374-.11.506-.319.506-.814ZM14.2-3.168A19.25,19.25,0,0,1,18.227-2.09L18.48-2.7a19.619,19.619,0,0,0-4.015-1Zm-.2-2.9c.506-.407,1.023-.847,1.529-1.331H18.04l-.462.3c.363.242.737.539,1.1.825Zm7.3-2.068H16.269c.264-.275.528-.572.781-.858l-.814-.341c-.319.407-.682.825-1.034,1.2H11.7V-7.4h2.761a12.521,12.521,0,0,1-.957.825,2.353,2.353,0,0,1-.924.572c.088.22.2.6.242.77.374-.132.935-.143,6.567-.429.3.286.561.561.759.792l.693-.473A16.248,16.248,0,0,0,18.4-7.4h2.9Zm6.765.231H26.048a10.35,10.35,0,0,0-.583-1.342l-.715.209c.154.341.33.77.451,1.133H22.924v.748h5.148ZM25.014-5.2a6.822,6.822,0,0,0-.726-1.859l-.693.176a8.548,8.548,0,0,1,.682,1.881Zm1.991,2.728V-.484H24V-2.475ZM23.232.77H24V.242h3v.44h.8V-3.212H23.232ZM26.774-7.1a15.32,15.32,0,0,1-.8,2.134H22.6v.748h5.709v-.748H26.763c.275-.572.572-1.32.825-1.958Zm5.06-1.562-.132.044H28.886V.825h.737v-8.69h1.749c-.3.847-.726,2.013-1.133,2.937a3.532,3.532,0,0,1,1.254,2.486.976.976,0,0,1-.286.858,1.08,1.08,0,0,1-.44.11A5.741,5.741,0,0,1,29.92-1.5a1.952,1.952,0,0,1,.22.781,6.518,6.518,0,0,0,.935-.022,1.4,1.4,0,0,0,.682-.231,1.641,1.641,0,0,0,.495-1.4,3.7,3.7,0,0,0-1.221-2.651C31.493-6.028,32-7.282,32.4-8.283ZM42.306-5.236H39.094V-6.3h3.212Zm0,1.661H39.094V-4.653h3.212Zm0,1.694H39.094V-2.959h3.212Zm-3.971-5.06v5.7h4.741v-5.7H40.8c.1-.319.209-.682.308-1.045h2.354v-.7H37.917v.7h2.288c-.055.341-.132.715-.209,1.045ZM37.213-2.706a21.537,21.537,0,0,0,.935-2.4l-.506-.132-.121.033h-.8l.264-.341a6.126,6.126,0,0,0-.858-.715,10.951,10.951,0,0,0,1.7-2.112l-.506-.352-.165.055H33.693v.726h2.948a9.6,9.6,0,0,1-1.089,1.287c-.374-.231-.759-.462-1.111-.649L34-6.776A12.04,12.04,0,0,1,36.256-5.2H33.451v.726h1.8V-.132c0,.132-.044.176-.209.176-.143.011-.649.011-1.21,0a2.873,2.873,0,0,1,.253.77A4.507,4.507,0,0,0,35.64.671c.319-.121.407-.363.407-.792V-4.477H37.2a14.99,14.99,0,0,1-.594,1.606Zm2.211,1.672A6.988,6.988,0,0,1,37.1.319a6.326,6.326,0,0,1,.539.55,7.92,7.92,0,0,0,2.5-1.485Zm1.694.462A13.466,13.466,0,0,1,43.043.869L43.681.4A13.076,13.076,0,0,0,41.734-.99ZM49.6-7.788v-.638H46.64q.165-.3.3-.594l-.748-.22a6.6,6.6,0,0,1-1.716,2.332,4.587,4.587,0,0,1,.506.66,8.3,8.3,0,0,0,1.287-1.54Zm.407,1.067a6,6,0,0,0,.9-1.078h1.573l-.539.242a3.726,3.726,0,0,1,.66.836Zm2.387,1.188h-5.61v-.638h5.61Zm0,1.155h-5.61v-.627h5.61Zm0,1.188h-5.61v-.66h5.61Zm-1.342,1.5H48.246a1.475,1.475,0,0,0,.011-.22v-.737h2.794Zm3.421-6.743h-3.19c.1-.209.2-.418.286-.638l-.781-.176A5,5,0,0,1,49.258-7.1c.176.088.484.253.671.374H47.652l.66-.242a3.653,3.653,0,0,0-.484-.792l-.682.231a4.127,4.127,0,0,1,.473.8H45.98v4.07h1.474v.726a1.625,1.625,0,0,1-.011.231H44.66v.682h2.552A3.321,3.321,0,0,1,45.089.3a3.633,3.633,0,0,1,.517.594c1.584-.528,2.244-1.21,2.5-1.9h2.948V.825h.825V-1.012H54.4v-.682H51.876v-.957h1.353v-4.07h-.55l.583-.264a3.752,3.752,0,0,0-.649-.814h1.859Z" transform="translate(983 1078)" fill="#aca4a4"/>
        <line id="Line_56" data-name="Line 56" x2="14" transform="translate(824.668 1073.473)" fill="none" stroke="#fff" stroke-linecap="round" stroke-width="3"/>
        <rect id="Rectangle_2331" data-name="Rectangle 2331" width="18" height="10" rx="2" transform="translate(961 1070)" fill="#356bd0"/>
      </g>
      <g id="data_m-01" transform="translate(68.344 123.04)">
        <g id="Group_2000" data-name="Group 2000">
          <g id="Group_1996" data-name="Group 1996" transform="translate(-5)">
            <g id="Group_1993" data-name="Group 1993">
              <path id="Path_1779" data-name="Path 1779" d="M5.369-3.806A7.415,7.415,0,0,1,5.2-2.127,3.912,3.912,0,0,1,4.7-.892a2.227,2.227,0,0,1-.795.763A2.176,2.176,0,0,1,2.837.132a2.032,2.032,0,0,1-1.013-.25,2.124,2.124,0,0,1-.75-.729A3.7,3.7,0,0,1,.611-2.024a7.274,7.274,0,0,1-.158-1.6A8.234,8.234,0,0,1,.618-5.369,4,4,0,0,1,1.105-6.64a2.167,2.167,0,0,1,.8-.774A2.239,2.239,0,0,1,3-7.674Q5.369-7.674,5.369-3.806Zm-.884.084q0-3.221-1.532-3.221-1.616,0-1.616,3.279,0,3.058,1.584,3.058Q4.485-.605,4.485-3.721Z" transform="translate(269.515 175.587)" fill="#558ef9"/>
              <path id="Path_1778" data-name="Path 1778" d="M5.1-2.305a2.541,2.541,0,0,1-.189,1,2.187,2.187,0,0,1-.54.768,2.416,2.416,0,0,1-.845.495,3.3,3.3,0,0,1-1.1.174A3.039,3.039,0,0,1,.863-.184V-1.1a2.874,2.874,0,0,0,1.574.495,2.13,2.13,0,0,0,.74-.121,1.643,1.643,0,0,0,.561-.337,1.442,1.442,0,0,0,.355-.521,1.764,1.764,0,0,0,.124-.668,1.432,1.432,0,0,0-.495-1.155,2.17,2.17,0,0,0-1.437-.418q-.153,0-.321.005l-.337.013Q1.458-3.8,1.3-3.79t-.292.026l.258-3.785h3.49v.779H2.011L1.858-4.553q.168-.011.358-.018t.337-.008a3.388,3.388,0,0,1,1.074.158,2.275,2.275,0,0,1,.8.45,1.887,1.887,0,0,1,.5.716A2.518,2.518,0,0,1,5.1-2.305ZM15.812-4.053a.074.074,0,0,1-.084.084L14.3-3.99H11.5v2.879l.021,1.69q0,.089-.084.089h-.574q-.084,0-.084-.089l.021-1.69V-3.99H8.074l-1.426.021a.074.074,0,0,1-.084-.084v-.532q0-.074.084-.074l1.426.011H10.8v-2.49q-1.29.226-2.942.4-.1.011-.132.011-.1,0-.163-.174a1.468,1.468,0,0,0-.247-.453A24.132,24.132,0,0,0,13.149-8.38a2.427,2.427,0,0,0,.721-.342,4.1,4.1,0,0,1,.526.39q.121.1.121.168,0,.126-.247.142a4.288,4.288,0,0,0-.626.174A19.079,19.079,0,0,1,11.5-7.28v2.632h2.8l1.426-.011q.084,0,.084.074ZM26.045-.226A.79.79,0,0,1,25.8.453.917.917,0,0,1,25.413.6a5.719,5.719,0,0,1-.779.037.275.275,0,0,1-.168-.032.418.418,0,0,1-.079-.174,1.92,1.92,0,0,0-.195-.421,7.638,7.638,0,0,0,.8.042.469.469,0,0,0,.332-.089.393.393,0,0,0,.084-.284V-2.284H22.186v1.132q.816-.095,1.421-.195-.268-.39-.3-.432a.144.144,0,0,1-.037-.068q0-.037.1-.079l.226-.1a.338.338,0,0,1,.089-.026q.032,0,.074.058a8.184,8.184,0,0,1,.863,1.411.258.258,0,0,1,.016.063q0,.042-.1.089L24.3-.311a.331.331,0,0,1-.116.042q-.037,0-.063-.063-.205-.453-.258-.563-1.563.274-3.737.484a1.358,1.358,0,0,0-.463.1.256.256,0,0,1-.126.063q-.074,0-.121-.142-.063-.226-.137-.6.232.005.426.005.368,0,.747-.026.99-.074,1.153-.089V-2.284H18.554V-.379L18.575.647a.074.074,0,0,1-.084.084h-.5a.074.074,0,0,1-.084-.084l.021-1.026V-1.748l-.021-1a.074.074,0,0,1,.084-.084l1.521.021H21.6V-3.59H20.418l-1.479.021a.074.074,0,0,1-.084-.084l.021-.905v-1.09l-.021-.905a.074.074,0,0,1,.084-.084l1.479.021h3.106l1.49-.021a.074.074,0,0,1,.084.084l-.021.905v1.09l.021.905a.074.074,0,0,1-.084.084l-1.49-.021H22.186v.779h2.253l1.521-.021a.074.074,0,0,1,.084.084L26.024-1.69v.442ZM24.471-4.064v-.842H22.186v.842Zm-2.869,0v-.842H19.481v.842Zm2.869-1.305v-.774H22.186v.774Zm-2.869,0v-.774H19.481v.774ZM26.682-7.58q0,.084-.089.084l-1.411-.021H23.771l.021.495q0,.089-.084.089h-.468q-.095,0-.095-.089,0-.016.011-.168t.011-.326h-2.49l.021.495q0,.089-.084.089h-.474a.079.079,0,0,1-.089-.089q0-.016.011-.168t.011-.326H18.791L17.375-7.5a.074.074,0,0,1-.084-.084v-.432q0-.074.084-.074l1.416.021H20.07a4.716,4.716,0,0,0-.063-.884q.326.016.668.058.111.016.111.095a.286.286,0,0,1-.042.142,1.539,1.539,0,0,0-.068.59h2.49a4.641,4.641,0,0,0-.063-.874q.353.021.658.058.116.016.116.095a.287.287,0,0,1-.042.142,1.613,1.613,0,0,0-.063.579h1.411l1.411-.021q.089,0,.089.074Z" transform="translate(269.515 147.88)" fill="#558ef9"/>
              <path id="Path_1777" data-name="Path 1777" d="M3.811,0H2.948V-6.522a2,2,0,0,1-.292.229,4.762,4.762,0,0,1-.432.255q-.239.126-.505.237a3.672,3.672,0,0,1-.518.174V-6.5a5.018,5.018,0,0,0,.6-.213q.318-.134.626-.3t.582-.347a4.618,4.618,0,0,0,.474-.355h.326ZM14.9-2.448q0,.095-.089.095l-1.39-.021H11.148l-1.4.021q-.089,0-.089-.095l.026-.842v-.926l-.026-.842q0-.095.089-.095l1.4.021h2.274l1.39-.021q.089,0,.089.095l-.021.842v.926Zm-.637-.411v-.668H10.285v.668Zm0-1.142v-.647H10.285V-4Zm-5.1-4.643A.228.228,0,0,1,9.08-8.5a1.492,1.492,0,0,0-.216.421,14.472,14.472,0,0,1-.7,1.616v5.432L8.19.668q0,.074-.089.074H7.585A.065.065,0,0,1,7.511.668l.021-1.695V-3.764q0-1.053.011-1.595A11.817,11.817,0,0,1,6.537-4q-.074.084-.116.084t-.1-.121a1.313,1.313,0,0,0-.258-.411,11.631,11.631,0,0,0,2.19-3.8,2.515,2.515,0,0,0,.163-.721,4.25,4.25,0,0,1,.632.195Q9.169-8.706,9.169-8.643ZM15.991-5.8q0,.074-.089.074L14.4-5.748H10.548l-1.521.021q-.089,0-.089-.074v-.39q0-.084.089-.084l1.521.021h.363a4.755,4.755,0,0,0-.368-.784.162.162,0,0,1-.021-.063q0-.026.1-.058l.3-.095a.284.284,0,0,1,.084-.021q.037,0,.079.063a5.648,5.648,0,0,1,.421.958h1.626q.121-.258.258-.584A1.662,1.662,0,0,0,13.5-7.3a5.131,5.131,0,0,1,.6.142q.121.042.121.105t-.089.121A.618.618,0,0,0,14-6.737q-.147.316-.247.484H14.4L15.9-6.274q.089,0,.089.084Zm-.542-1.726a.074.074,0,0,1-.084.084L13.9-7.464H11.012l-1.469.021a.074.074,0,0,1-.084-.084v-.39A.074.074,0,0,1,9.543-8l1.469.021h.947v-.253A3.633,3.633,0,0,0,11.9-8.99a4.46,4.46,0,0,1,.679.053q.132.021.132.079a.955.955,0,0,1-.068.174,1.474,1.474,0,0,0-.042.453v.253h1.3L15.365-8a.074.074,0,0,1,.084.084ZM14.438-.484a1.569,1.569,0,0,1-.2.642.884.884,0,0,1-.305.263,3.761,3.761,0,0,1-1.5.195A4.849,4.849,0,0,1,11.191.511a.652.652,0,0,1-.463-.684v-.905a6.945,6.945,0,0,0-.042-.805,5.671,5.671,0,0,1,.637.063q.105.011.105.084a.359.359,0,0,1-.042.132,1.51,1.51,0,0,0-.053.495v.7q0,.353.279.416A5.892,5.892,0,0,0,12.5.058a2.815,2.815,0,0,0,1.079-.132q.268-.132.279-.853a1.625,1.625,0,0,0,.421.195q.174.047.174.137A.982.982,0,0,1,14.438-.484ZM10.027-1.4A5.893,5.893,0,0,1,9.2.274q-.047.058-.079.058A.2.2,0,0,1,9.027.29L8.7.121Q8.606.074,8.606.037a.134.134,0,0,1,.032-.058,4.633,4.633,0,0,0,.821-1.584q.016-.079.058-.079a.239.239,0,0,1,.089.026l.337.126q.089.032.089.079A.331.331,0,0,1,10.027-1.4ZM16.054-.216a.14.14,0,0,1,.026.063q0,.037-.1.1l-.295.184a.26.26,0,0,1-.111.053q-.037,0-.068-.068A7.725,7.725,0,0,0,14.575-1.4a.127.127,0,0,1-.032-.068q0-.032.089-.084l.268-.163A.309.309,0,0,1,15-1.753a.119.119,0,0,1,.068.037A7.5,7.5,0,0,1,16.054-.216ZM13.3-1.226a.14.14,0,0,1,.026.063q0,.032-.079.095l-.237.184A.352.352,0,0,1,12.87-.8q-.021,0-.058-.053a4.471,4.471,0,0,0-.847-.969.086.086,0,0,1-.032-.053q0-.032.1-.1l.226-.147a.207.207,0,0,1,.1-.053.141.141,0,0,1,.074.037A6.019,6.019,0,0,1,13.3-1.226Zm8.4-1.079a2.541,2.541,0,0,1-.189,1,2.187,2.187,0,0,1-.54.768,2.416,2.416,0,0,1-.845.495,3.3,3.3,0,0,1-1.1.174,3.039,3.039,0,0,1-1.563-.316V-1.1a2.874,2.874,0,0,0,1.574.495,2.13,2.13,0,0,0,.74-.121,1.643,1.643,0,0,0,.561-.337,1.442,1.442,0,0,0,.355-.521,1.764,1.764,0,0,0,.124-.668,1.432,1.432,0,0,0-.495-1.155,2.17,2.17,0,0,0-1.437-.418q-.153,0-.321.005l-.337.013q-.168.008-.329.018t-.292.026l.258-3.785h3.49v.779H18.6l-.153,2.216q.168-.011.358-.018t.337-.008a3.388,3.388,0,0,1,1.074.158,2.275,2.275,0,0,1,.8.45,1.887,1.887,0,0,1,.5.716A2.518,2.518,0,0,1,21.692-2.305ZM32.4-4.053a.074.074,0,0,1-.084.084L30.892-3.99h-2.8v2.879l.021,1.69q0,.089-.084.089h-.574q-.084,0-.084-.089l.021-1.69V-3.99H24.666l-1.426.021a.074.074,0,0,1-.084-.084v-.532q0-.074.084-.074l1.426.011h2.727v-2.49q-1.29.226-2.942.4-.1.011-.132.011-.1,0-.163-.174a1.468,1.468,0,0,0-.247-.453A24.132,24.132,0,0,0,29.74-8.38a2.427,2.427,0,0,0,.721-.342,4.1,4.1,0,0,1,.526.39q.121.1.121.168,0,.126-.247.142a4.288,4.288,0,0,0-.626.174,19.079,19.079,0,0,1-2.142.568v2.632h2.8l1.426-.011q.084,0,.084.074ZM42.636-.226a.79.79,0,0,1-.247.679A.917.917,0,0,1,42,.6a5.719,5.719,0,0,1-.779.037.275.275,0,0,1-.168-.032.418.418,0,0,1-.079-.174,1.92,1.92,0,0,0-.195-.421,7.638,7.638,0,0,0,.8.042.469.469,0,0,0,.332-.089A.393.393,0,0,0,42-.321V-2.284H38.777v1.132q.816-.095,1.421-.195-.268-.39-.3-.432a.144.144,0,0,1-.037-.068q0-.037.1-.079l.226-.1a.338.338,0,0,1,.089-.026q.032,0,.074.058a8.184,8.184,0,0,1,.863,1.411.259.259,0,0,1,.016.063q0,.042-.1.089l-.242.121a.331.331,0,0,1-.116.042q-.037,0-.063-.063-.205-.453-.258-.563-1.563.274-3.737.484a1.358,1.358,0,0,0-.463.1.256.256,0,0,1-.126.063q-.074,0-.121-.142-.063-.226-.137-.6.232.005.426.005.368,0,.747-.026.99-.074,1.153-.089V-2.284H35.146V-.379L35.167.647a.074.074,0,0,1-.084.084h-.5A.074.074,0,0,1,34.5.647l.021-1.026V-1.748l-.021-1a.074.074,0,0,1,.084-.084l1.521.021h2.09V-3.59H37.009l-1.479.021a.074.074,0,0,1-.084-.084l.021-.905v-1.09l-.021-.905a.074.074,0,0,1,.084-.084l1.479.021h3.106l1.49-.021a.074.074,0,0,1,.084.084l-.021.905v1.09l.021.905a.074.074,0,0,1-.084.084l-1.49-.021H38.777v.779H41.03l1.521-.021a.074.074,0,0,1,.084.084L42.615-1.69v.442ZM41.062-4.064v-.842H38.777v.842Zm-2.869,0v-.842H36.072v.842Zm2.869-1.305v-.774H38.777v.774Zm-2.869,0v-.774H36.072v.774ZM43.273-7.58q0,.084-.089.084l-1.411-.021H40.362l.021.495q0,.089-.084.089H39.83q-.095,0-.095-.089,0-.016.011-.168t.011-.326h-2.49l.021.495q0,.089-.084.089H36.73a.079.079,0,0,1-.089-.089q0-.016.011-.168t.011-.326H35.382L33.966-7.5a.074.074,0,0,1-.084-.084v-.432q0-.074.084-.074l1.416.021h1.279a4.716,4.716,0,0,0-.063-.884q.326.016.668.058.111.016.111.095a.287.287,0,0,1-.042.142,1.539,1.539,0,0,0-.068.59h2.49a4.641,4.641,0,0,0-.063-.874q.353.021.658.058.116.016.116.095a.287.287,0,0,1-.042.142,1.613,1.613,0,0,0-.063.579h1.411l1.411-.021q.089,0,.089.074Z" transform="translate(269.516 92.466)" fill="#558ef9"/>
              <path id="Path_1776" data-name="Path 1776" d="M4.064-5.569a1.561,1.561,0,0,0-.108-.605A1.2,1.2,0,0,0,3.661-6.6a1.208,1.208,0,0,0-.44-.255,1.721,1.721,0,0,0-.547-.084,1.811,1.811,0,0,0-.495.068,2.4,2.4,0,0,0-.471.189,2.9,2.9,0,0,0-.442.29,3.194,3.194,0,0,0-.4.374v-.926a2.581,2.581,0,0,1,.813-.54,2.863,2.863,0,0,1,1.1-.187,2.649,2.649,0,0,1,.858.134,1.967,1.967,0,0,1,.684.392,1.813,1.813,0,0,1,.455.637,2.148,2.148,0,0,1,.166.869,2.978,2.978,0,0,1-.1.811,2.507,2.507,0,0,1-.311.684,3.3,3.3,0,0,1-.524.616,7.419,7.419,0,0,1-.742.6q-.532.379-.876.647a3.874,3.874,0,0,0-.547.5,1.459,1.459,0,0,0-.284.468,1.638,1.638,0,0,0-.082.54H5.232V0H.574V-.374a3.114,3.114,0,0,1,.105-.853,2.214,2.214,0,0,1,.347-.7,3.885,3.885,0,0,1,.634-.663q.392-.332.961-.747A6.073,6.073,0,0,0,3.308-3.9a2.928,2.928,0,0,0,.445-.537,1.928,1.928,0,0,0,.239-.545A2.349,2.349,0,0,0,4.064-5.569ZM14.9-2.448q0,.095-.089.095l-1.39-.021H11.148l-1.4.021q-.089,0-.089-.095l.026-.842v-.926l-.026-.842q0-.095.089-.095l1.4.021h2.274l1.39-.021q.089,0,.089.095l-.021.842v.926Zm-.637-.411v-.668H10.285v.668Zm0-1.142v-.647H10.285V-4Zm-5.1-4.643A.228.228,0,0,1,9.08-8.5a1.492,1.492,0,0,0-.216.421,14.472,14.472,0,0,1-.7,1.616v5.432L8.19.668q0,.074-.089.074H7.585A.065.065,0,0,1,7.511.668l.021-1.695V-3.764q0-1.053.011-1.595A11.817,11.817,0,0,1,6.537-4q-.074.084-.116.084t-.1-.121a1.313,1.313,0,0,0-.258-.411,11.631,11.631,0,0,0,2.19-3.8,2.515,2.515,0,0,0,.163-.721,4.25,4.25,0,0,1,.632.195Q9.169-8.706,9.169-8.643ZM15.991-5.8q0,.074-.089.074L14.4-5.748H10.548l-1.521.021q-.089,0-.089-.074v-.39q0-.084.089-.084l1.521.021h.363a4.755,4.755,0,0,0-.368-.784.162.162,0,0,1-.021-.063q0-.026.1-.058l.3-.095a.284.284,0,0,1,.084-.021q.037,0,.079.063a5.648,5.648,0,0,1,.421.958h1.626q.121-.258.258-.584A1.662,1.662,0,0,0,13.5-7.3a5.131,5.131,0,0,1,.6.142q.121.042.121.105t-.089.121A.618.618,0,0,0,14-6.737q-.147.316-.247.484H14.4L15.9-6.274q.089,0,.089.084Zm-.542-1.726a.074.074,0,0,1-.084.084L13.9-7.464H11.012l-1.469.021a.074.074,0,0,1-.084-.084v-.39A.074.074,0,0,1,9.543-8l1.469.021h.947v-.253A3.633,3.633,0,0,0,11.9-8.99a4.46,4.46,0,0,1,.679.053q.132.021.132.079a.955.955,0,0,1-.068.174,1.474,1.474,0,0,0-.042.453v.253h1.3L15.365-8a.074.074,0,0,1,.084.084ZM14.438-.484a1.569,1.569,0,0,1-.2.642.884.884,0,0,1-.305.263,3.761,3.761,0,0,1-1.5.195A4.849,4.849,0,0,1,11.191.511a.652.652,0,0,1-.463-.684v-.905a6.945,6.945,0,0,0-.042-.805,5.671,5.671,0,0,1,.637.063q.105.011.105.084a.359.359,0,0,1-.042.132,1.51,1.51,0,0,0-.053.495v.7q0,.353.279.416A5.892,5.892,0,0,0,12.5.058a2.815,2.815,0,0,0,1.079-.132q.268-.132.279-.853a1.625,1.625,0,0,0,.421.195q.174.047.174.137A.982.982,0,0,1,14.438-.484ZM10.027-1.4A5.893,5.893,0,0,1,9.2.274q-.047.058-.079.058A.2.2,0,0,1,9.027.29L8.7.121Q8.606.074,8.606.037a.134.134,0,0,1,.032-.058,4.633,4.633,0,0,0,.821-1.584q.016-.079.058-.079a.239.239,0,0,1,.089.026l.337.126q.089.032.089.079A.331.331,0,0,1,10.027-1.4ZM16.054-.216a.14.14,0,0,1,.026.063q0,.037-.1.1l-.295.184a.26.26,0,0,1-.111.053q-.037,0-.068-.068A7.725,7.725,0,0,0,14.575-1.4a.127.127,0,0,1-.032-.068q0-.032.089-.084l.268-.163A.309.309,0,0,1,15-1.753a.119.119,0,0,1,.068.037A7.5,7.5,0,0,1,16.054-.216ZM13.3-1.226a.14.14,0,0,1,.026.063q0,.032-.079.095l-.237.184A.352.352,0,0,1,12.87-.8q-.021,0-.058-.053a4.471,4.471,0,0,0-.847-.969.086.086,0,0,1-.032-.053q0-.032.1-.1l.226-.147a.207.207,0,0,1,.1-.053.141.141,0,0,1,.074.037A6.019,6.019,0,0,1,13.3-1.226Zm8.4-1.079a2.541,2.541,0,0,1-.189,1,2.187,2.187,0,0,1-.54.768,2.416,2.416,0,0,1-.845.495,3.3,3.3,0,0,1-1.1.174,3.039,3.039,0,0,1-1.563-.316V-1.1a2.874,2.874,0,0,0,1.574.495,2.13,2.13,0,0,0,.74-.121,1.643,1.643,0,0,0,.561-.337,1.442,1.442,0,0,0,.355-.521,1.764,1.764,0,0,0,.124-.668,1.432,1.432,0,0,0-.495-1.155,2.17,2.17,0,0,0-1.437-.418q-.153,0-.321.005l-.337.013q-.168.008-.329.018t-.292.026l.258-3.785h3.49v.779H18.6l-.153,2.216q.168-.011.358-.018t.337-.008a3.388,3.388,0,0,1,1.074.158,2.275,2.275,0,0,1,.8.45,1.887,1.887,0,0,1,.5.716A2.518,2.518,0,0,1,21.692-2.305ZM32.4-4.053a.074.074,0,0,1-.084.084L30.892-3.99h-2.8v2.879l.021,1.69q0,.089-.084.089h-.574q-.084,0-.084-.089l.021-1.69V-3.99H24.666l-1.426.021a.074.074,0,0,1-.084-.084v-.532q0-.074.084-.074l1.426.011h2.727v-2.49q-1.29.226-2.942.4-.1.011-.132.011-.1,0-.163-.174a1.468,1.468,0,0,0-.247-.453A24.132,24.132,0,0,0,29.74-8.38a2.427,2.427,0,0,0,.721-.342,4.1,4.1,0,0,1,.526.39q.121.1.121.168,0,.126-.247.142a4.288,4.288,0,0,0-.626.174,19.079,19.079,0,0,1-2.142.568v2.632h2.8l1.426-.011q.084,0,.084.074ZM42.636-.226a.79.79,0,0,1-.247.679A.917.917,0,0,1,42,.6a5.719,5.719,0,0,1-.779.037.275.275,0,0,1-.168-.032.418.418,0,0,1-.079-.174,1.92,1.92,0,0,0-.195-.421,7.638,7.638,0,0,0,.8.042.469.469,0,0,0,.332-.089A.393.393,0,0,0,42-.321V-2.284H38.777v1.132q.816-.095,1.421-.195-.268-.39-.3-.432a.144.144,0,0,1-.037-.068q0-.037.1-.079l.226-.1a.338.338,0,0,1,.089-.026q.032,0,.074.058a8.184,8.184,0,0,1,.863,1.411.259.259,0,0,1,.016.063q0,.042-.1.089l-.242.121a.331.331,0,0,1-.116.042q-.037,0-.063-.063-.205-.453-.258-.563-1.563.274-3.737.484a1.358,1.358,0,0,0-.463.1.256.256,0,0,1-.126.063q-.074,0-.121-.142-.063-.226-.137-.6.232.005.426.005.368,0,.747-.026.99-.074,1.153-.089V-2.284H35.146V-.379L35.167.647a.074.074,0,0,1-.084.084h-.5A.074.074,0,0,1,34.5.647l.021-1.026V-1.748l-.021-1a.074.074,0,0,1,.084-.084l1.521.021h2.09V-3.59H37.009l-1.479.021a.074.074,0,0,1-.084-.084l.021-.905v-1.09l-.021-.905a.074.074,0,0,1,.084-.084l1.479.021h3.106l1.49-.021a.074.074,0,0,1,.084.084l-.021.905v1.09l.021.905a.074.074,0,0,1-.084.084l-1.49-.021H38.777v.779H41.03l1.521-.021a.074.074,0,0,1,.084.084L42.615-1.69v.442ZM41.062-4.064v-.842H38.777v.842Zm-2.869,0v-.842H36.072v.842Zm2.869-1.305v-.774H38.777v.774Zm-2.869,0v-.774H36.072v.774ZM43.273-7.58q0,.084-.089.084l-1.411-.021H40.362l.021.495q0,.089-.084.089H39.83q-.095,0-.095-.089,0-.016.011-.168t.011-.326h-2.49l.021.495q0,.089-.084.089H36.73a.079.079,0,0,1-.089-.089q0-.016.011-.168t.011-.326H35.382L33.966-7.5a.074.074,0,0,1-.084-.084v-.432q0-.074.084-.074l1.416.021h1.279a4.716,4.716,0,0,0-.063-.884q.326.016.668.058.111.016.111.095a.287.287,0,0,1-.042.142,1.539,1.539,0,0,0-.068.59h2.49a4.641,4.641,0,0,0-.063-.874q.353.021.658.058.116.016.116.095a.287.287,0,0,1-.042.142,1.613,1.613,0,0,0-.063.579h1.411l1.411-.021q.089,0,.089.074Z" transform="translate(269.515 37.052)" fill="#558ef9"/>
              <path id="Path_1775" data-name="Path 1775" d="M10.222-1.479A2.237,2.237,0,0,1,9.7.074a1.331,1.331,0,0,1-.658.279,5.729,5.729,0,0,1-.937.058,3.7,3.7,0,0,1-1.4-.174.742.742,0,0,1-.384-.347,1.773,1.773,0,0,1-.1-.69V-4.711H4.432A6.5,6.5,0,0,1,3.648-1.19,5.259,5.259,0,0,1,1.326.495a.731.731,0,0,1-.184.053Q1.09.547.984.4A1.925,1.925,0,0,0,.626-.011,5.95,5.95,0,0,0,2.484-.947,2.982,2.982,0,0,0,3.448-2.39a7.969,7.969,0,0,0,.295-2.321h-1.5L.821-4.69q-.089,0-.089-.084v-.5q0-.084.089-.084l1.421.021h6.3l1.421-.021q.089,0,.089.084v.5q0,.084-.089.084L8.538-4.711H6.922V-1a1.86,1.86,0,0,0,.047.532.307.307,0,0,0,.2.168,3.6,3.6,0,0,0,.958.084,3.435,3.435,0,0,0,.716-.053.89.89,0,0,0,.395-.195,2.7,2.7,0,0,0,.337-1.532,2.664,2.664,0,0,0,.484.258q.174.074.174.153A1,1,0,0,1,10.222-1.479ZM9-7.48a.074.074,0,0,1-.084.084L7.385-7.417H3.458L1.932-7.4q-.089,0-.089-.084V-7.99q0-.084.089-.084l1.526.021H7.385l1.532-.021A.074.074,0,0,1,9-7.99Z" transform="translate(269.515 20.052)" fill="#558ef9"/>
            </g>
            <line id="Line_543" data-name="Line 543" y1="138.5" transform="translate(267 33)" fill="none" stroke="#558ef9" stroke-miterlimit="10" stroke-width="1"/>
            <g id="Group_1995" data-name="Group 1995" transform="translate(1.964)">
              <g id="Group_1994" data-name="Group 1994" transform="translate(262 33)">
                <line id="Line_545" data-name="Line 545" x2="2.736" transform="translate(0 110.8)" fill="none" stroke="#558ef9" stroke-miterlimit="10" stroke-width="1"/>
                <line id="Line_546" data-name="Line 546" x2="2.736" transform="translate(0 55.4)" fill="none" stroke="#558ef9" stroke-miterlimit="10" stroke-width="1"/>
                <line id="Line_547" data-name="Line 547" x2="2.736" transform="translate(0)" fill="none" stroke="#558ef9" stroke-miterlimit="10" stroke-width="1"/>
              </g>
            </g>
          </g>
          <g id="Group_1999" data-name="Group 1999">
            <g id="Group_1998" data-name="Group 1998">
              <g id="Group_1997" data-name="Group 1997">
                <rect id="Rectangle_2604" data-name="Rectangle 2604" width="20.7" height="99.3" transform="translate(35.3 72.3)" fill="#356bd0"/>
                <rect id="Rectangle_2605" data-name="Rectangle 2605" width="20.7" height="106.8" transform="translate(64.1 64.7)" fill="#356bd0"/>
                <rect id="Rectangle_2606" data-name="Rectangle 2606" width="20.7" height="111.1" transform="translate(92.9 60.4)" fill="#356bd0"/>
                <rect id="Rectangle_2607" data-name="Rectangle 2607" width="20.7" height="114.8" transform="translate(121.6 56.8)" fill="#356bd0"/>
                <rect id="Rectangle_2608" data-name="Rectangle 2608" width="20.7" height="120.8" transform="translate(150.4 50.8)" fill="#356bd0"/>
                <rect id="Rectangle_2609" data-name="Rectangle 2609" width="20.7" height="125.1" transform="translate(179.1 46.4)" fill="#356bd0"/>
                <rect id="Rectangle_2610" data-name="Rectangle 2610" width="20.7" height="134.8" transform="translate(207.9 36.7)" fill="#356bd0"/>
                <rect id="Rectangle_2611" data-name="Rectangle 2611" width="20.7" height="136.2" transform="translate(236.6 35.4)" fill="#356bd0"/>
              </g>
            </g>
          </g>
          <g id="Group_1992" data-name="Group 1992">
            <line id="Line_533" data-name="Line 533" x2="230.1" transform="translate(31.3 171.5)" fill="none" stroke="#356bd0" stroke-miterlimit="10" stroke-width="1"/>
          </g>
        </g>
        <g id="Group_1989" data-name="Group 1989">
          <g id="Group_1982" data-name="Group 1982">
            <g id="Group_1979" data-name="Group 1979">
              <path id="Path_1774" data-name="Path 1774" d="M4.064-5.569a1.561,1.561,0,0,0-.108-.605A1.2,1.2,0,0,0,3.661-6.6a1.208,1.208,0,0,0-.44-.255,1.721,1.721,0,0,0-.547-.084,1.811,1.811,0,0,0-.495.068,2.4,2.4,0,0,0-.471.189,2.9,2.9,0,0,0-.442.29,3.194,3.194,0,0,0-.4.374v-.926a2.581,2.581,0,0,1,.813-.54,2.863,2.863,0,0,1,1.1-.187,2.649,2.649,0,0,1,.858.134,1.967,1.967,0,0,1,.684.392,1.813,1.813,0,0,1,.455.637,2.148,2.148,0,0,1,.166.869,2.978,2.978,0,0,1-.1.811,2.507,2.507,0,0,1-.311.684,3.3,3.3,0,0,1-.524.616,7.419,7.419,0,0,1-.742.6q-.532.379-.876.647a3.874,3.874,0,0,0-.547.5,1.459,1.459,0,0,0-.284.468,1.638,1.638,0,0,0-.082.54H5.232V0H.574V-.374a3.114,3.114,0,0,1,.105-.853,2.214,2.214,0,0,1,.347-.7,3.885,3.885,0,0,1,.634-.663q.392-.332.961-.747A6.073,6.073,0,0,0,3.308-3.9a2.928,2.928,0,0,0,.445-.537,1.928,1.928,0,0,0,.239-.545A2.349,2.349,0,0,0,4.064-5.569ZM11.18-3.806a7.415,7.415,0,0,1-.171,1.679,3.912,3.912,0,0,1-.495,1.234,2.227,2.227,0,0,1-.795.763A2.176,2.176,0,0,1,8.648.132a2.032,2.032,0,0,1-1.013-.25,2.124,2.124,0,0,1-.75-.729,3.7,3.7,0,0,1-.463-1.176,7.274,7.274,0,0,1-.158-1.6A8.234,8.234,0,0,1,6.43-5.369,4,4,0,0,1,6.916-6.64a2.167,2.167,0,0,1,.8-.774,2.239,2.239,0,0,1,1.092-.261Q11.18-7.674,11.18-3.806Zm-.884.084q0-3.221-1.532-3.221-1.616,0-1.616,3.279,0,3.058,1.584,3.058Q10.3-.605,10.3-3.721Zm6.7-.084a7.415,7.415,0,0,1-.171,1.679,3.912,3.912,0,0,1-.495,1.234,2.227,2.227,0,0,1-.795.763,2.176,2.176,0,0,1-1.071.261,2.032,2.032,0,0,1-1.013-.25,2.124,2.124,0,0,1-.75-.729,3.7,3.7,0,0,1-.463-1.176,7.274,7.274,0,0,1-.158-1.6,8.234,8.234,0,0,1,.166-1.748,4,4,0,0,1,.487-1.271,2.167,2.167,0,0,1,.8-.774,2.239,2.239,0,0,1,1.092-.261Q16.991-7.674,16.991-3.806Zm-.884.084q0-3.221-1.532-3.221-1.616,0-1.616,3.279,0,3.058,1.584,3.058Q16.107-.605,16.107-3.721Zm10.78,3.5a.79.79,0,0,1-.247.679A.917.917,0,0,1,26.255.6a5.719,5.719,0,0,1-.779.037.275.275,0,0,1-.168-.032.418.418,0,0,1-.079-.174,1.92,1.92,0,0,0-.195-.421,7.638,7.638,0,0,0,.8.042.469.469,0,0,0,.332-.089.393.393,0,0,0,.084-.284V-2.284H23.029v1.132q.816-.095,1.421-.195-.268-.39-.3-.432a.144.144,0,0,1-.037-.068q0-.037.1-.079l.226-.1a.338.338,0,0,1,.089-.026q.032,0,.074.058a8.184,8.184,0,0,1,.863,1.411.258.258,0,0,1,.016.063q0,.042-.1.089l-.242.121a.331.331,0,0,1-.116.042q-.037,0-.063-.063-.205-.453-.258-.563-1.563.274-3.737.484a1.358,1.358,0,0,0-.463.1.256.256,0,0,1-.126.063q-.074,0-.121-.142-.063-.226-.137-.6.232.005.426.005.368,0,.747-.026.99-.074,1.153-.089V-2.284H19.4V-.379L19.418.647a.074.074,0,0,1-.084.084h-.5a.074.074,0,0,1-.084-.084L18.77-.379V-1.748l-.021-1a.074.074,0,0,1,.084-.084l1.521.021h2.09V-3.59H21.26l-1.479.021a.074.074,0,0,1-.084-.084l.021-.905v-1.09L19.7-6.553a.074.074,0,0,1,.084-.084l1.479.021h3.106l1.49-.021a.074.074,0,0,1,.084.084l-.021.905v1.09l.021.905a.074.074,0,0,1-.084.084l-1.49-.021H23.029v.779h2.253L26.8-2.832a.074.074,0,0,1,.084.084L26.866-1.69v.442ZM25.313-4.064v-.842H23.029v.842Zm-2.869,0v-.842H20.323v.842Zm2.869-1.305v-.774H23.029v.774Zm-2.869,0v-.774H20.323v.774ZM27.524-7.58q0,.084-.089.084l-1.411-.021H24.613l.021.495q0,.089-.084.089h-.468q-.095,0-.095-.089,0-.016.011-.168t.011-.326h-2.49l.021.495q0,.089-.084.089h-.474a.079.079,0,0,1-.089-.089q0-.016.011-.168t.011-.326H19.633L18.218-7.5a.074.074,0,0,1-.084-.084v-.432q0-.074.084-.074l1.416.021h1.279a4.716,4.716,0,0,0-.063-.884q.326.016.668.058.111.016.111.095a.287.287,0,0,1-.042.142,1.539,1.539,0,0,0-.068.59h2.49a4.641,4.641,0,0,0-.063-.874q.353.021.658.058.116.016.116.095a.287.287,0,0,1-.042.142,1.613,1.613,0,0,0-.063.579h1.411l1.411-.021q.089,0,.089.074Z" transform="translate(0.656 175.495)" fill="#fff"/>
              <path id="Path_1773" data-name="Path 1773" d="M4.064-5.569a1.561,1.561,0,0,0-.108-.605A1.2,1.2,0,0,0,3.661-6.6a1.208,1.208,0,0,0-.44-.255,1.721,1.721,0,0,0-.547-.084,1.811,1.811,0,0,0-.495.068,2.4,2.4,0,0,0-.471.189,2.9,2.9,0,0,0-.442.29,3.194,3.194,0,0,0-.4.374v-.926a2.581,2.581,0,0,1,.813-.54,2.863,2.863,0,0,1,1.1-.187,2.649,2.649,0,0,1,.858.134,1.967,1.967,0,0,1,.684.392,1.813,1.813,0,0,1,.455.637,2.148,2.148,0,0,1,.166.869,2.978,2.978,0,0,1-.1.811,2.507,2.507,0,0,1-.311.684,3.3,3.3,0,0,1-.524.616,7.419,7.419,0,0,1-.742.6q-.532.379-.876.647a3.874,3.874,0,0,0-.547.5,1.459,1.459,0,0,0-.284.468,1.638,1.638,0,0,0-.082.54H5.232V0H.574V-.374a3.114,3.114,0,0,1,.105-.853,2.214,2.214,0,0,1,.347-.7,3.885,3.885,0,0,1,.634-.663q.392-.332.961-.747A6.073,6.073,0,0,0,3.308-3.9a2.928,2.928,0,0,0,.445-.537,1.928,1.928,0,0,0,.239-.545A2.349,2.349,0,0,0,4.064-5.569Zm6.848,3.263a2.541,2.541,0,0,1-.189,1,2.187,2.187,0,0,1-.54.768,2.416,2.416,0,0,1-.845.495,3.3,3.3,0,0,1-1.1.174A3.039,3.039,0,0,1,6.674-.184V-1.1a2.874,2.874,0,0,0,1.574.495,2.13,2.13,0,0,0,.74-.121,1.643,1.643,0,0,0,.561-.337A1.442,1.442,0,0,0,9.9-1.584a1.764,1.764,0,0,0,.124-.668,1.432,1.432,0,0,0-.495-1.155A2.17,2.17,0,0,0,8.1-3.827q-.153,0-.321.005l-.337.013q-.168.008-.329.018t-.292.026l.258-3.785h3.49v.779H7.822L7.669-4.553q.168-.011.358-.018t.337-.008a3.388,3.388,0,0,1,1.074.158,2.275,2.275,0,0,1,.8.45,1.887,1.887,0,0,1,.5.716A2.518,2.518,0,0,1,10.912-2.305Zm6.08-1.5a7.415,7.415,0,0,1-.171,1.679,3.912,3.912,0,0,1-.495,1.234,2.227,2.227,0,0,1-.795.763,2.176,2.176,0,0,1-1.071.261,2.032,2.032,0,0,1-1.013-.25,2.124,2.124,0,0,1-.75-.729,3.7,3.7,0,0,1-.463-1.176,7.274,7.274,0,0,1-.158-1.6,8.234,8.234,0,0,1,.166-1.748,4,4,0,0,1,.487-1.271,2.167,2.167,0,0,1,.8-.774,2.239,2.239,0,0,1,1.092-.261Q16.991-7.674,16.991-3.806Zm-.884.084q0-3.221-1.532-3.221-1.616,0-1.616,3.279,0,3.058,1.584,3.058Q16.107-.605,16.107-3.721Zm10.78,3.5a.79.79,0,0,1-.247.679A.917.917,0,0,1,26.255.6a5.719,5.719,0,0,1-.779.037.275.275,0,0,1-.168-.032.418.418,0,0,1-.079-.174,1.92,1.92,0,0,0-.195-.421,7.638,7.638,0,0,0,.8.042.469.469,0,0,0,.332-.089.393.393,0,0,0,.084-.284V-2.284H23.029v1.132q.816-.095,1.421-.195-.268-.39-.3-.432a.144.144,0,0,1-.037-.068q0-.037.1-.079l.226-.1a.338.338,0,0,1,.089-.026q.032,0,.074.058a8.184,8.184,0,0,1,.863,1.411.258.258,0,0,1,.016.063q0,.042-.1.089l-.242.121a.331.331,0,0,1-.116.042q-.037,0-.063-.063-.205-.453-.258-.563-1.563.274-3.737.484a1.358,1.358,0,0,0-.463.1.256.256,0,0,1-.126.063q-.074,0-.121-.142-.063-.226-.137-.6.232.005.426.005.368,0,.747-.026.99-.074,1.153-.089V-2.284H19.4V-.379L19.418.647a.074.074,0,0,1-.084.084h-.5a.074.074,0,0,1-.084-.084L18.77-.379V-1.748l-.021-1a.074.074,0,0,1,.084-.084l1.521.021h2.09V-3.59H21.26l-1.479.021a.074.074,0,0,1-.084-.084l.021-.905v-1.09L19.7-6.553a.074.074,0,0,1,.084-.084l1.479.021h3.106l1.49-.021a.074.074,0,0,1,.084.084l-.021.905v1.09l.021.905a.074.074,0,0,1-.084.084l-1.49-.021H23.029v.779h2.253L26.8-2.832a.074.074,0,0,1,.084.084L26.866-1.69v.442ZM25.313-4.064v-.842H23.029v.842Zm-2.869,0v-.842H20.323v.842Zm2.869-1.305v-.774H23.029v.774Zm-2.869,0v-.774H20.323v.774ZM27.524-7.58q0,.084-.089.084l-1.411-.021H24.613l.021.495q0,.089-.084.089h-.468q-.095,0-.095-.089,0-.016.011-.168t.011-.326h-2.49l.021.495q0,.089-.084.089h-.474a.079.079,0,0,1-.089-.089q0-.016.011-.168t.011-.326H19.633L18.218-7.5a.074.074,0,0,1-.084-.084v-.432q0-.074.084-.074l1.416.021h1.279a4.716,4.716,0,0,0-.063-.884q.326.016.668.058.111.016.111.095a.287.287,0,0,1-.042.142,1.539,1.539,0,0,0-.068.59h2.49a4.641,4.641,0,0,0-.063-.874q.353.021.658.058.116.016.116.095a.287.287,0,0,1-.042.142,1.613,1.613,0,0,0-.063.579h1.411l1.411-.021q.089,0,.089.074Z" transform="translate(0.656 129.316)" fill="#fff"/>
              <path id="Path_1772" data-name="Path 1772" d="M5.016-2.137a2.2,2.2,0,0,1-.192.929,2.051,2.051,0,0,1-.542.716,2.5,2.5,0,0,1-.84.461A3.4,3.4,0,0,1,2.363.132,3.136,3.136,0,0,1,.647-.279v-.926a2.75,2.75,0,0,0,1.748.6,2.375,2.375,0,0,0,.713-.1,1.6,1.6,0,0,0,.547-.29,1.286,1.286,0,0,0,.353-.458,1.43,1.43,0,0,0,.124-.605q0-1.479-2.105-1.479H1.4v-.732h.595q1.863,0,1.863-1.39,0-1.284-1.421-1.284a2.42,2.42,0,0,0-1.5.537v-.837a3.28,3.28,0,0,1,1.716-.432,2.637,2.637,0,0,1,.858.132,1.966,1.966,0,0,1,.658.368,1.633,1.633,0,0,1,.424.568,1.755,1.755,0,0,1,.15.732A1.842,1.842,0,0,1,3.237-3.958v.021a2.381,2.381,0,0,1,.711.187,1.9,1.9,0,0,1,.563.376,1.678,1.678,0,0,1,.371.545A1.739,1.739,0,0,1,5.016-2.137ZM11.18-3.806a7.415,7.415,0,0,1-.171,1.679,3.912,3.912,0,0,1-.495,1.234,2.227,2.227,0,0,1-.795.763A2.176,2.176,0,0,1,8.648.132a2.032,2.032,0,0,1-1.013-.25,2.124,2.124,0,0,1-.75-.729,3.7,3.7,0,0,1-.463-1.176,7.274,7.274,0,0,1-.158-1.6A8.234,8.234,0,0,1,6.43-5.369,4,4,0,0,1,6.916-6.64a2.167,2.167,0,0,1,.8-.774,2.239,2.239,0,0,1,1.092-.261Q11.18-7.674,11.18-3.806Zm-.884.084q0-3.221-1.532-3.221-1.616,0-1.616,3.279,0,3.058,1.584,3.058Q10.3-.605,10.3-3.721Zm6.7-.084a7.415,7.415,0,0,1-.171,1.679,3.912,3.912,0,0,1-.495,1.234,2.227,2.227,0,0,1-.795.763,2.176,2.176,0,0,1-1.071.261,2.032,2.032,0,0,1-1.013-.25,2.124,2.124,0,0,1-.75-.729,3.7,3.7,0,0,1-.463-1.176,7.274,7.274,0,0,1-.158-1.6,8.234,8.234,0,0,1,.166-1.748,4,4,0,0,1,.487-1.271,2.167,2.167,0,0,1,.8-.774,2.239,2.239,0,0,1,1.092-.261Q16.991-7.674,16.991-3.806Zm-.884.084q0-3.221-1.532-3.221-1.616,0-1.616,3.279,0,3.058,1.584,3.058Q16.107-.605,16.107-3.721Zm10.78,3.5a.79.79,0,0,1-.247.679A.917.917,0,0,1,26.255.6a5.719,5.719,0,0,1-.779.037.275.275,0,0,1-.168-.032.418.418,0,0,1-.079-.174,1.92,1.92,0,0,0-.195-.421,7.638,7.638,0,0,0,.8.042.469.469,0,0,0,.332-.089.393.393,0,0,0,.084-.284V-2.284H23.029v1.132q.816-.095,1.421-.195-.268-.39-.3-.432a.144.144,0,0,1-.037-.068q0-.037.1-.079l.226-.1a.338.338,0,0,1,.089-.026q.032,0,.074.058a8.184,8.184,0,0,1,.863,1.411.258.258,0,0,1,.016.063q0,.042-.1.089l-.242.121a.331.331,0,0,1-.116.042q-.037,0-.063-.063-.205-.453-.258-.563-1.563.274-3.737.484a1.358,1.358,0,0,0-.463.1.256.256,0,0,1-.126.063q-.074,0-.121-.142-.063-.226-.137-.6.232.005.426.005.368,0,.747-.026.99-.074,1.153-.089V-2.284H19.4V-.379L19.418.647a.074.074,0,0,1-.084.084h-.5a.074.074,0,0,1-.084-.084L18.77-.379V-1.748l-.021-1a.074.074,0,0,1,.084-.084l1.521.021h2.09V-3.59H21.26l-1.479.021a.074.074,0,0,1-.084-.084l.021-.905v-1.09L19.7-6.553a.074.074,0,0,1,.084-.084l1.479.021h3.106l1.49-.021a.074.074,0,0,1,.084.084l-.021.905v1.09l.021.905a.074.074,0,0,1-.084.084l-1.49-.021H23.029v.779h2.253L26.8-2.832a.074.074,0,0,1,.084.084L26.866-1.69v.442ZM25.313-4.064v-.842H23.029v.842Zm-2.869,0v-.842H20.323v.842Zm2.869-1.305v-.774H23.029v.774Zm-2.869,0v-.774H20.323v.774ZM27.524-7.58q0,.084-.089.084l-1.411-.021H24.613l.021.495q0,.089-.084.089h-.468q-.095,0-.095-.089,0-.016.011-.168t.011-.326h-2.49l.021.495q0,.089-.084.089h-.474a.079.079,0,0,1-.089-.089q0-.016.011-.168t.011-.326H19.633L18.218-7.5a.074.074,0,0,1-.084-.084v-.432q0-.074.084-.074l1.416.021h1.279a4.716,4.716,0,0,0-.063-.884q.326.016.668.058.111.016.111.095a.287.287,0,0,1-.042.142,1.539,1.539,0,0,0-.068.59h2.49a4.641,4.641,0,0,0-.063-.874q.353.021.658.058.116.016.116.095a.287.287,0,0,1-.042.142,1.613,1.613,0,0,0-.063.579h1.411l1.411-.021q.089,0,.089.074Z" transform="translate(0.656 83.138)" fill="#fff"/>
              <path id="Path_1771" data-name="Path 1771" d="M5.016-2.137a2.2,2.2,0,0,1-.192.929,2.051,2.051,0,0,1-.542.716,2.5,2.5,0,0,1-.84.461A3.4,3.4,0,0,1,2.363.132,3.136,3.136,0,0,1,.647-.279v-.926a2.75,2.75,0,0,0,1.748.6,2.375,2.375,0,0,0,.713-.1,1.6,1.6,0,0,0,.547-.29,1.286,1.286,0,0,0,.353-.458,1.43,1.43,0,0,0,.124-.605q0-1.479-2.105-1.479H1.4v-.732h.595q1.863,0,1.863-1.39,0-1.284-1.421-1.284a2.42,2.42,0,0,0-1.5.537v-.837a3.28,3.28,0,0,1,1.716-.432,2.637,2.637,0,0,1,.858.132,1.966,1.966,0,0,1,.658.368,1.633,1.633,0,0,1,.424.568,1.755,1.755,0,0,1,.15.732A1.842,1.842,0,0,1,3.237-3.958v.021a2.381,2.381,0,0,1,.711.187,1.9,1.9,0,0,1,.563.376,1.678,1.678,0,0,1,.371.545A1.739,1.739,0,0,1,5.016-2.137Zm5.9-.168a2.541,2.541,0,0,1-.189,1,2.187,2.187,0,0,1-.54.768,2.416,2.416,0,0,1-.845.495,3.3,3.3,0,0,1-1.1.174A3.039,3.039,0,0,1,6.674-.184V-1.1a2.874,2.874,0,0,0,1.574.495,2.13,2.13,0,0,0,.74-.121,1.643,1.643,0,0,0,.561-.337A1.442,1.442,0,0,0,9.9-1.584a1.764,1.764,0,0,0,.124-.668,1.432,1.432,0,0,0-.495-1.155A2.17,2.17,0,0,0,8.1-3.827q-.153,0-.321.005l-.337.013q-.168.008-.329.018t-.292.026l.258-3.785h3.49v.779H7.822L7.669-4.553q.168-.011.358-.018t.337-.008a3.388,3.388,0,0,1,1.074.158,2.275,2.275,0,0,1,.8.45,1.887,1.887,0,0,1,.5.716A2.518,2.518,0,0,1,10.912-2.305Zm6.08-1.5a7.415,7.415,0,0,1-.171,1.679,3.912,3.912,0,0,1-.495,1.234,2.227,2.227,0,0,1-.795.763,2.176,2.176,0,0,1-1.071.261,2.032,2.032,0,0,1-1.013-.25,2.124,2.124,0,0,1-.75-.729,3.7,3.7,0,0,1-.463-1.176,7.274,7.274,0,0,1-.158-1.6,8.234,8.234,0,0,1,.166-1.748,4,4,0,0,1,.487-1.271,2.167,2.167,0,0,1,.8-.774,2.239,2.239,0,0,1,1.092-.261Q16.991-7.674,16.991-3.806Zm-.884.084q0-3.221-1.532-3.221-1.616,0-1.616,3.279,0,3.058,1.584,3.058Q16.107-.605,16.107-3.721Zm10.78,3.5a.79.79,0,0,1-.247.679A.917.917,0,0,1,26.255.6a5.719,5.719,0,0,1-.779.037.275.275,0,0,1-.168-.032.418.418,0,0,1-.079-.174,1.92,1.92,0,0,0-.195-.421,7.638,7.638,0,0,0,.8.042.469.469,0,0,0,.332-.089.393.393,0,0,0,.084-.284V-2.284H23.029v1.132q.816-.095,1.421-.195-.268-.39-.3-.432a.144.144,0,0,1-.037-.068q0-.037.1-.079l.226-.1a.338.338,0,0,1,.089-.026q.032,0,.074.058a8.184,8.184,0,0,1,.863,1.411.258.258,0,0,1,.016.063q0,.042-.1.089l-.242.121a.331.331,0,0,1-.116.042q-.037,0-.063-.063-.205-.453-.258-.563-1.563.274-3.737.484a1.358,1.358,0,0,0-.463.1.256.256,0,0,1-.126.063q-.074,0-.121-.142-.063-.226-.137-.6.232.005.426.005.368,0,.747-.026.99-.074,1.153-.089V-2.284H19.4V-.379L19.418.647a.074.074,0,0,1-.084.084h-.5a.074.074,0,0,1-.084-.084L18.77-.379V-1.748l-.021-1a.074.074,0,0,1,.084-.084l1.521.021h2.09V-3.59H21.26l-1.479.021a.074.074,0,0,1-.084-.084l.021-.905v-1.09L19.7-6.553a.074.074,0,0,1,.084-.084l1.479.021h3.106l1.49-.021a.074.074,0,0,1,.084.084l-.021.905v1.09l.021.905a.074.074,0,0,1-.084.084l-1.49-.021H23.029v.779h2.253L26.8-2.832a.074.074,0,0,1,.084.084L26.866-1.69v.442ZM25.313-4.064v-.842H23.029v.842Zm-2.869,0v-.842H20.323v.842Zm2.869-1.305v-.774H23.029v.774Zm-2.869,0v-.774H20.323v.774ZM27.524-7.58q0,.084-.089.084l-1.411-.021H24.613l.021.495q0,.089-.084.089h-.468q-.095,0-.095-.089,0-.016.011-.168t.011-.326h-2.49l.021.495q0,.089-.084.089h-.474a.079.079,0,0,1-.089-.089q0-.016.011-.168t.011-.326H19.633L18.218-7.5a.074.074,0,0,1-.084-.084v-.432q0-.074.084-.074l1.416.021h1.279a4.716,4.716,0,0,0-.063-.884q.326.016.668.058.111.016.111.095a.287.287,0,0,1-.042.142,1.539,1.539,0,0,0-.068.59h2.49a4.641,4.641,0,0,0-.063-.874q.353.021.658.058.116.016.116.095a.287.287,0,0,1-.042.142,1.613,1.613,0,0,0-.063.579h1.411l1.411-.021q.089,0,.089.074Z" transform="translate(0.656 36.96)" fill="#fff"/>
              <path id="Path_1770" data-name="Path 1770" d="M10.133-.074a1.4,1.4,0,0,0-.374.437q-.095.153-.142.153A.329.329,0,0,1,9.454.442,8.63,8.63,0,0,1,5.443-5.5,7.982,7.982,0,0,1,1.337.432a.55.55,0,0,1-.163.074q-.037,0-.147-.163a1.664,1.664,0,0,0-.4-.384A7.32,7.32,0,0,0,4.032-3.316a8.3,8.3,0,0,0,.926-4.037,11.755,11.755,0,0,0-.074-1.279,5.618,5.618,0,0,1,.805.084q.153.037.153.132a.637.637,0,0,1-.063.211,1.548,1.548,0,0,0-.095.605q0,.379-.016.563a10.487,10.487,0,0,0,1.484,4.2A8.41,8.41,0,0,0,10.133-.074Z" transform="translate(0.656 19.96)" fill="#fff"/>
            </g>
            <line id="Line_521" data-name="Line 521" y1="138.6" transform="translate(31.3 32.9)" fill="none" stroke="#fff" stroke-miterlimit="10" stroke-width="1"/>
            <g id="Group_1981" data-name="Group 1981">
              <g id="Group_1980" data-name="Group 1980" transform="translate(31.3 32.9)">
                <line id="Line_523" data-name="Line 523" x2="2.856" transform="translate(0 92.4)" fill="none" stroke="#fff" stroke-miterlimit="10" stroke-width="1"/>
                <line id="Line_524" data-name="Line 524" x2="2.856" transform="translate(0 46.2)" fill="none" stroke="#fff" stroke-miterlimit="10" stroke-width="1"/>
                <line id="Line_525" data-name="Line 525" x2="2.856" fill="none" stroke="#fff" stroke-miterlimit="10" stroke-width="1"/>
              </g>
            </g>
          </g>
          <g id="Group_1985" data-name="Group 1985">
            <g id="Group_1984" data-name="Group 1984">
              <g id="Group_1983" data-name="Group 1983">
                <line id="Line_526" data-name="Line 526" x1="28.7" y1="11.1" transform="translate(45.7 57.9)" fill="none" stroke="#fff" stroke-linecap="round" stroke-miterlimit="10" stroke-width="2"/>
                <line id="Line_527" data-name="Line 527" x1="28.8" y1="11" transform="translate(74.4 69)" fill="none" stroke="#fff" stroke-linecap="round" stroke-miterlimit="10" stroke-width="2"/>
                <line id="Line_528" data-name="Line 528" x1="28.8" y1="10.6" transform="translate(103.2 80)" fill="none" stroke="#fff" stroke-linecap="round" stroke-miterlimit="10" stroke-width="2"/>
                <line id="Line_529" data-name="Line 529" x1="28.7" y1="11.2" transform="translate(132 90.6)" fill="none" stroke="#fff" stroke-linecap="round" stroke-miterlimit="10" stroke-width="2"/>
                <line id="Line_530" data-name="Line 530" x1="28.8" y1="10.8" transform="translate(160.7 101.8)" fill="none" stroke="#fff" stroke-linecap="round" stroke-miterlimit="10" stroke-width="2"/>
                <line id="Line_531" data-name="Line 531" x1="28.7" y1="8.5" transform="translate(189.5 112.6)" fill="none" stroke="#fff" stroke-linecap="round" stroke-miterlimit="10" stroke-width="2"/>
                <line id="Line_532" data-name="Line 532" x1="28.8" y1="6.1" transform="translate(218.2 121.1)" fill="none" stroke="#fff" stroke-linecap="round" stroke-miterlimit="10" stroke-width="2"/>
              </g>
            </g>
          </g>
          <g id="Group_1988" data-name="Group 1988">
            <g id="Group_1987" data-name="Group 1987">
              <g id="Group_1986" data-name="Group 1986">
                <rect id="Rectangle_2596" data-name="Rectangle 2596" width="6" height="6" rx="3" transform="translate(42.7 54.9)" fill="#fff"/>
                <rect id="Rectangle_2597" data-name="Rectangle 2597" width="6" height="6" rx="3" transform="translate(71.4 66)" fill="#fff"/>
                <rect id="Rectangle_2598" data-name="Rectangle 2598" width="6" height="6" rx="3" transform="translate(100.2 77)" fill="#fff"/>
                <rect id="Rectangle_2599" data-name="Rectangle 2599" width="6" height="6" rx="3" transform="translate(129 87.6)" fill="#fff"/>
                <rect id="Rectangle_2600" data-name="Rectangle 2600" width="6" height="6" rx="3" transform="translate(157.7 98.8)" fill="#fff"/>
                <rect id="Rectangle_2601" data-name="Rectangle 2601" width="6" height="6" rx="3" transform="translate(186.5 109.6)" fill="#fff"/>
                <rect id="Rectangle_2602" data-name="Rectangle 2602" width="6" height="6" rx="3" transform="translate(215.2 118.1)" fill="#fff"/>
                <rect id="Rectangle_2603" data-name="Rectangle 2603" width="6" height="6" rx="3" transform="translate(244 124.2)" fill="#fff"/>
              </g>
            </g>
          </g>
        </g>
      </g>
    </g>
    <path id="內文p-3" data-name="內文p" d="M-4.977,0h-.947V-6.037a4.9,4.9,0,0,1-.9.653,6.362,6.362,0,0,1-1,.49v-.916a5.722,5.722,0,0,0,1.39-.905,3.561,3.561,0,0,0,.842-1.032h.611ZM-2.55-3.806a7.061,7.061,0,0,1,.282-2.2A2.74,2.74,0,0,1-1.432-7.3a2.14,2.14,0,0,1,1.4-.453,2.28,2.28,0,0,1,1.09.25,2.083,2.083,0,0,1,.774.721,3.869,3.869,0,0,1,.479,1.147,7.624,7.624,0,0,1,.174,1.824A7.081,7.081,0,0,1,2.2-1.613a2.741,2.741,0,0,1-.834,1.29,2.14,2.14,0,0,1-1.4.455,2.118,2.118,0,0,1-1.753-.8A5.085,5.085,0,0,1-2.55-3.806Zm.974,0a4.838,4.838,0,0,0,.445,2.529,1.311,1.311,0,0,0,1.1.629,1.31,1.31,0,0,0,1.1-.632,4.84,4.84,0,0,0,.445-2.527,4.837,4.837,0,0,0-.445-2.532A1.32,1.32,0,0,0-.045-6.964a1.214,1.214,0,0,0-1.042.553A4.894,4.894,0,0,0-1.576-3.806Zm5.022,0a7.061,7.061,0,0,1,.282-2.2A2.74,2.74,0,0,1,4.564-7.3a2.14,2.14,0,0,1,1.4-.453,2.28,2.28,0,0,1,1.09.25,2.083,2.083,0,0,1,.774.721A3.869,3.869,0,0,1,8.3-5.629a7.624,7.624,0,0,1,.174,1.824A7.081,7.081,0,0,1,8.2-1.613a2.741,2.741,0,0,1-.834,1.29,2.14,2.14,0,0,1-1.4.455,2.118,2.118,0,0,1-1.753-.8A5.085,5.085,0,0,1,3.445-3.806Zm.974,0a4.838,4.838,0,0,0,.445,2.529,1.311,1.311,0,0,0,1.1.629,1.31,1.31,0,0,0,1.1-.632A4.84,4.84,0,0,0,7.5-3.806a4.837,4.837,0,0,0-.445-2.532,1.32,1.32,0,0,0-1.108-.626,1.214,1.214,0,0,0-1.042.553A4.894,4.894,0,0,0,4.419-3.806Z" transform="translate(114 311)" fill="#558ef9"/>
    <path id="內文p-4" data-name="內文p" d="M4.016,0H3.069V-6.037a4.9,4.9,0,0,1-.9.653,6.362,6.362,0,0,1-1,.49v-.916a5.722,5.722,0,0,0,1.39-.905,3.561,3.561,0,0,0,.842-1.032h.611ZM6.443-3.806a7.061,7.061,0,0,1,.282-2.2A2.74,2.74,0,0,1,7.561-7.3a2.14,2.14,0,0,1,1.4-.453,2.28,2.28,0,0,1,1.09.25,2.083,2.083,0,0,1,.774.721A3.869,3.869,0,0,1,11.3-5.629a7.624,7.624,0,0,1,.174,1.824A7.081,7.081,0,0,1,11.2-1.613a2.741,2.741,0,0,1-.834,1.29,2.14,2.14,0,0,1-1.4.455,2.118,2.118,0,0,1-1.753-.8A5.085,5.085,0,0,1,6.443-3.806Zm.974,0a4.838,4.838,0,0,0,.445,2.529,1.311,1.311,0,0,0,1.1.629,1.31,1.31,0,0,0,1.1-.632A4.84,4.84,0,0,0,10.5-3.806a4.837,4.837,0,0,0-.445-2.532,1.32,1.32,0,0,0-1.108-.626,1.214,1.214,0,0,0-1.042.553A4.894,4.894,0,0,0,7.417-3.806Zm6.48-.379a1.783,1.783,0,0,1-.874-.616,1.611,1.611,0,0,1-.284-.958,1.873,1.873,0,0,1,.605-1.416,2.245,2.245,0,0,1,1.611-.574,2.26,2.26,0,0,1,1.626.587A1.9,1.9,0,0,1,17.2-5.732a1.574,1.574,0,0,1-.282.934,1.776,1.776,0,0,1-.855.613,2.074,2.074,0,0,1,1.082.747,2.053,2.053,0,0,1,.371,1.232,2.217,2.217,0,0,1-.7,1.663A2.545,2.545,0,0,1,14.97.132a2.54,2.54,0,0,1-1.842-.676,2.25,2.25,0,0,1-.7-1.687,2.039,2.039,0,0,1,.382-1.261A1.911,1.911,0,0,1,13.9-4.185ZM13.707-5.79a1.2,1.2,0,0,0,.353.895,1.249,1.249,0,0,0,.916.347,1.225,1.225,0,0,0,.9-.345,1.14,1.14,0,0,0,.35-.845,1.182,1.182,0,0,0-.361-.876,1.228,1.228,0,0,0-.9-.355,1.24,1.24,0,0,0-.9.347A1.118,1.118,0,0,0,13.707-5.79ZM13.4-2.227a1.714,1.714,0,0,0,.192.784,1.356,1.356,0,0,0,.571.587,1.67,1.67,0,0,0,.816.208A1.529,1.529,0,0,0,16.1-1.084a1.5,1.5,0,0,0,.442-1.111,1.52,1.52,0,0,0-.455-1.132,1.56,1.56,0,0,0-1.14-.447,1.5,1.5,0,0,0-1.108.442A1.5,1.5,0,0,0,13.4-2.227Zm10.115-.188V-4.549h2.415v2.134Zm7.126,0h-3.9V-4.549H29.9V-5.3H26.739V-6.942h3.406v-.776H23.721c.172-.367.345-.755.5-1.132l-.809-.194a9.123,9.123,0,0,1-2.425,3.719,4.962,4.962,0,0,1,.69.507,9.96,9.96,0,0,0,1.639-2.124h2.62V-5.3H22.718v2.889H20.95v.776h4.98V.83h.809V-1.639h3.9ZM31.3,1.93h.722L35.245-8.559h-.711ZM42.058-5.66a4.85,4.85,0,0,0-.776-.593,6.131,6.131,0,0,0,.625-.69l-.561-.183a3.85,3.85,0,0,1-.539.571c-.28-.151-.561-.313-.83-.431l-.4.356a7.924,7.924,0,0,1,.776.42,6.48,6.48,0,0,1-1.024.593,2.781,2.781,0,0,1,.442.42,7.628,7.628,0,0,0,1.078-.7,5.878,5.878,0,0,1,.776.625Zm-.032-1.93c-.194-.151-.453-.323-.744-.507a5.536,5.536,0,0,0,.593-.658L41.314-8.9a4.591,4.591,0,0,1-.507.528c-.28-.151-.55-.291-.808-.4l-.388.356a7.184,7.184,0,0,1,.755.388,6.5,6.5,0,0,1-.959.55,3.377,3.377,0,0,1,.453.388,7.49,7.49,0,0,0,1-.647,5.335,5.335,0,0,1,.744.55ZM37.013-4.571h7.578v1.337h.787V-5.185h-.841c.086-.959.183-2.35.237-3.417h-2.49v.55H44l-.032.582H42.338v.55h1.6l-.054.582H42.273v.55h1.563c-.022.216-.043.41-.065.6H37.864l-.043-.6h1.5v-.55H37.789l-.043-.582h1.531v-.55H37.713L37.67-8a11.3,11.3,0,0,0,1.66-.42l-.356-.5a20.176,20.176,0,0,1-2.081.528l.216,3.2h-.862v1.951h.765Zm8.581,2.62H41.282v-.194a11.233,11.233,0,0,0,2.436-1.337l-.485-.4-.162.043H38v.6h4.215a10.006,10.006,0,0,1-1.714.819v.464h-4.5v.679h4.5V-.054c0,.151-.043.183-.226.194-.162,0-.765,0-1.434-.022a3.019,3.019,0,0,1,.28.679A6.45,6.45,0,0,0,40.861.69c.334-.119.42-.3.42-.722v-1.24h4.312ZM49.3-2.415V-4.549h2.415v2.134Zm7.126,0h-3.9V-4.549h3.159V-5.3H52.525V-6.942h3.406v-.776H49.507c.172-.367.345-.755.5-1.132l-.808-.194a9.123,9.123,0,0,1-2.426,3.719,4.961,4.961,0,0,1,.69.507A9.96,9.96,0,0,0,49.1-6.942h2.62V-5.3H48.5v2.889H46.736v.776h4.98V.83h.808V-1.639h3.9Z" transform="translate(306 311)" fill="#558ef9"/>
  </g>
</svg>
