<svg xmlns="http://www.w3.org/2000/svg" width="354.848" height="306.772" viewBox="0 0 354.848 306.772">
  <g id="data2_pc" transform="translate(-77.845 -97.263)">
    <g id="data_m-02" transform="translate(77 93)">
      <g id="Group_2007" data-name="Group 2007" transform="translate(325.868 0)">
        <g id="Group_2004" data-name="Group 2004" transform="translate(10.42)">
          <path id="Path_1790" data-name="Path 1790" d="M6.475-4.589a8.942,8.942,0,0,1-.206,2.025,4.718,4.718,0,0,1-.6,1.489,2.685,2.685,0,0,1-.958.92A2.624,2.624,0,0,1,3.421.159,2.45,2.45,0,0,1,2.2-.143a2.561,2.561,0,0,1-.9-.879A4.456,4.456,0,0,1,.736-2.441a8.772,8.772,0,0,1-.19-1.927,9.93,9.93,0,0,1,.2-2.107,4.82,4.82,0,0,1,.587-1.533,2.613,2.613,0,0,1,.962-.933,2.7,2.7,0,0,1,1.317-.314Q6.475-9.255,6.475-4.589Zm-1.066.1q0-3.885-1.847-3.885-1.949,0-1.949,3.955Q1.612-.73,3.523-.73,5.408-.73,5.408-4.488Z" transform="translate(1.291 210.011)" fill="#558ef9"/>
          <path id="Path_1789" data-name="Path 1789" d="M4.6,0H3.555V-7.865a2.41,2.41,0,0,1-.352.276,5.743,5.743,0,0,1-.521.308q-.289.152-.609.286a4.429,4.429,0,0,1-.625.209V-7.839A6.052,6.052,0,0,0,2.174-8.1q.384-.162.755-.362t.7-.419A5.569,5.569,0,0,0,4.2-9.306H4.6ZM17.97-2.952q0,.114-.108.114l-1.676-.025H13.444l-1.688.025q-.108,0-.108-.114l.032-1.016V-5.084L11.648-6.1q0-.114.108-.114l1.688.025h2.742l1.676-.025q.108,0,.108.114l-.025,1.016v1.117Zm-.768-.5v-.806H12.4v.806Zm0-1.377V-5.6H12.4v.781Zm-6.145-5.6a.274.274,0,0,1-.108.178,1.8,1.8,0,0,0-.26.508,17.452,17.452,0,0,1-.844,1.949v6.551L9.877.806Q9.877.9,9.769.9H9.147A.079.079,0,0,1,9.058.806l.025-2.044v-3.3q0-1.27.013-1.923A14.251,14.251,0,0,1,7.884-4.818q-.089.1-.14.1t-.121-.146a1.583,1.583,0,0,0-.311-.5A14.027,14.027,0,0,0,9.953-9.934a3.033,3.033,0,0,0,.2-.87,5.126,5.126,0,0,1,.762.235Q11.058-10.5,11.058-10.423ZM19.284-7q0,.089-.108.089l-1.815-.025h-4.64l-1.834.025q-.108,0-.108-.089v-.47q0-.1.108-.1l1.834.025h.438a5.734,5.734,0,0,0-.444-.946.2.2,0,0,1-.025-.076q0-.032.121-.07l.362-.114a.343.343,0,0,1,.1-.025q.044,0,.1.076a6.812,6.812,0,0,1,.508,1.155h1.961q.146-.311.311-.7a2,2,0,0,0,.133-.559,6.188,6.188,0,0,1,.724.171q.146.051.146.127t-.108.146a.746.746,0,0,0-.165.235q-.178.381-.3.584h.781l1.815-.025q.108,0,.108.1ZM18.63-9.077a.09.09,0,0,1-.1.1L16.758-9H13.279l-1.771.025a.09.09,0,0,1-.1-.1v-.47a.09.09,0,0,1,.1-.1l1.771.025h1.143v-.3a4.381,4.381,0,0,0-.076-.914,5.379,5.379,0,0,1,.819.063q.159.025.159.1a1.152,1.152,0,0,1-.083.209,1.778,1.778,0,0,0-.051.546v.3h1.568l1.771-.025a.09.09,0,0,1,.1.1ZM17.412-.584A1.892,1.892,0,0,1,17.17.19,1.066,1.066,0,0,1,16.8.508a4.536,4.536,0,0,1-1.809.235A5.848,5.848,0,0,1,13.5.616a.786.786,0,0,1-.559-.825V-1.3a8.375,8.375,0,0,0-.051-.971,6.839,6.839,0,0,1,.768.076q.127.013.127.1a.433.433,0,0,1-.051.159,1.821,1.821,0,0,0-.063.6V-.5q0,.425.336.5A7.106,7.106,0,0,0,15.069.07a3.394,3.394,0,0,0,1.3-.159q.324-.159.336-1.028a1.96,1.96,0,0,0,.508.235q.209.057.209.165A1.185,1.185,0,0,1,17.412-.584Zm-5.319-1.1A7.106,7.106,0,0,1,11.1.33Q11.039.4,11,.4a.245.245,0,0,1-.114-.051l-.394-.2q-.114-.057-.114-.1a.162.162,0,0,1,.038-.07,5.588,5.588,0,0,0,.99-1.911q.019-.1.07-.1A.288.288,0,0,1,11.584-2l.406.152q.108.038.108.1A.4.4,0,0,1,12.092-1.688ZM19.36-.26a.169.169,0,0,1,.032.076q0,.044-.121.121l-.355.222a.314.314,0,0,1-.133.063q-.044,0-.083-.083a9.316,9.316,0,0,0-1.124-1.828.154.154,0,0,1-.038-.083q0-.038.108-.1l.324-.2a.373.373,0,0,1,.114-.044.144.144,0,0,1,.083.044A9.046,9.046,0,0,1,19.36-.26ZM16.034-1.479a.169.169,0,0,1,.032.076q0,.038-.1.114l-.286.222a.425.425,0,0,1-.165.1q-.025,0-.07-.063A5.392,5.392,0,0,0,14.428-2.2a.1.1,0,0,1-.038-.063q0-.038.121-.121l.273-.178a.25.25,0,0,1,.121-.063.17.17,0,0,1,.089.044A7.258,7.258,0,0,1,16.034-1.479Z" transform="translate(0.014 177.192)" fill="#558ef9"/>
          <path id="Path_1788" data-name="Path 1788" d="M4.9-6.716a1.882,1.882,0,0,0-.13-.73,1.446,1.446,0,0,0-.355-.517,1.456,1.456,0,0,0-.53-.308,2.076,2.076,0,0,0-.66-.1,2.184,2.184,0,0,0-.6.083,2.9,2.9,0,0,0-.568.229,3.5,3.5,0,0,0-.533.349,3.852,3.852,0,0,0-.479.451V-8.379a3.112,3.112,0,0,1,.981-.651,3.453,3.453,0,0,1,1.323-.225,3.2,3.2,0,0,1,1.035.162,2.372,2.372,0,0,1,.825.473,2.186,2.186,0,0,1,.549.768A2.59,2.59,0,0,1,5.96-6.8a3.592,3.592,0,0,1-.124.978A3.023,3.023,0,0,1,5.462-5a3.982,3.982,0,0,1-.632.743,8.946,8.946,0,0,1-.9.724q-.641.457-1.057.781a4.672,4.672,0,0,0-.66.606,1.759,1.759,0,0,0-.343.565,1.975,1.975,0,0,0-.1.651H6.31V0H.692V-.451A3.756,3.756,0,0,1,.819-1.479a2.67,2.67,0,0,1,.419-.844A4.685,4.685,0,0,1,2-3.123q.473-.4,1.158-.9A7.324,7.324,0,0,0,3.99-4.7a3.531,3.531,0,0,0,.536-.647,2.325,2.325,0,0,0,.289-.657A2.833,2.833,0,0,0,4.9-6.716ZM17.97-2.952q0,.114-.108.114l-1.676-.025H13.444l-1.688.025q-.108,0-.108-.114l.032-1.016V-5.084L11.648-6.1q0-.114.108-.114l1.688.025h2.742l1.676-.025q.108,0,.108.114l-.025,1.016v1.117Zm-.768-.5v-.806H12.4v.806Zm0-1.377V-5.6H12.4v.781Zm-6.145-5.6a.274.274,0,0,1-.108.178,1.8,1.8,0,0,0-.26.508,17.452,17.452,0,0,1-.844,1.949v6.551L9.877.806Q9.877.9,9.769.9H9.147A.079.079,0,0,1,9.058.806l.025-2.044v-3.3q0-1.27.013-1.923A14.251,14.251,0,0,1,7.884-4.818q-.089.1-.14.1t-.121-.146a1.583,1.583,0,0,0-.311-.5A14.027,14.027,0,0,0,9.953-9.934a3.033,3.033,0,0,0,.2-.87,5.126,5.126,0,0,1,.762.235Q11.058-10.5,11.058-10.423ZM19.284-7q0,.089-.108.089l-1.815-.025h-4.64l-1.834.025q-.108,0-.108-.089v-.47q0-.1.108-.1l1.834.025h.438a5.734,5.734,0,0,0-.444-.946.2.2,0,0,1-.025-.076q0-.032.121-.07l.362-.114a.343.343,0,0,1,.1-.025q.044,0,.1.076a6.812,6.812,0,0,1,.508,1.155h1.961q.146-.311.311-.7a2,2,0,0,0,.133-.559,6.188,6.188,0,0,1,.724.171q.146.051.146.127t-.108.146a.746.746,0,0,0-.165.235q-.178.381-.3.584h.781l1.815-.025q.108,0,.108.1ZM18.63-9.077a.09.09,0,0,1-.1.1L16.758-9H13.279l-1.771.025a.09.09,0,0,1-.1-.1v-.47a.09.09,0,0,1,.1-.1l1.771.025h1.143v-.3a4.381,4.381,0,0,0-.076-.914,5.379,5.379,0,0,1,.819.063q.159.025.159.1a1.152,1.152,0,0,1-.083.209,1.778,1.778,0,0,0-.051.546v.3h1.568l1.771-.025a.09.09,0,0,1,.1.1ZM17.412-.584A1.892,1.892,0,0,1,17.17.19,1.066,1.066,0,0,1,16.8.508a4.536,4.536,0,0,1-1.809.235A5.848,5.848,0,0,1,13.5.616a.786.786,0,0,1-.559-.825V-1.3a8.375,8.375,0,0,0-.051-.971,6.839,6.839,0,0,1,.768.076q.127.013.127.1a.433.433,0,0,1-.051.159,1.821,1.821,0,0,0-.063.6V-.5q0,.425.336.5A7.106,7.106,0,0,0,15.069.07a3.394,3.394,0,0,0,1.3-.159q.324-.159.336-1.028a1.96,1.96,0,0,0,.508.235q.209.057.209.165A1.185,1.185,0,0,1,17.412-.584Zm-5.319-1.1A7.106,7.106,0,0,1,11.1.33Q11.039.4,11,.4a.245.245,0,0,1-.114-.051l-.394-.2q-.114-.057-.114-.1a.162.162,0,0,1,.038-.07,5.588,5.588,0,0,0,.99-1.911q.019-.1.07-.1A.288.288,0,0,1,11.584-2l.406.152q.108.038.108.1A.4.4,0,0,1,12.092-1.688ZM19.36-.26a.169.169,0,0,1,.032.076q0,.044-.121.121l-.355.222a.314.314,0,0,1-.133.063q-.044,0-.083-.083a9.316,9.316,0,0,0-1.124-1.828.154.154,0,0,1-.038-.083q0-.038.108-.1l.324-.2a.373.373,0,0,1,.114-.044.144.144,0,0,1,.083.044A9.046,9.046,0,0,1,19.36-.26ZM16.034-1.479a.169.169,0,0,1,.032.076q0,.038-.1.114l-.286.222a.425.425,0,0,1-.165.1q-.025,0-.07-.063A5.392,5.392,0,0,0,14.428-2.2a.1.1,0,0,1-.038-.063q0-.038.121-.121l.273-.178a.25.25,0,0,1,.121-.063.17.17,0,0,1,.089.044A7.258,7.258,0,0,1,16.034-1.479Z" transform="translate(0.014 141.819)" fill="#558ef9"/>
          <path id="Path_1787" data-name="Path 1787" d="M6.049-2.577a2.654,2.654,0,0,1-.232,1.12,2.474,2.474,0,0,1-.654.863,3.018,3.018,0,0,1-1.012.555,4.1,4.1,0,0,1-1.3.2,3.781,3.781,0,0,1-2.069-.5V-1.454A3.316,3.316,0,0,0,2.888-.73a2.864,2.864,0,0,0,.86-.121,1.929,1.929,0,0,0,.66-.349,1.551,1.551,0,0,0,.425-.552,1.725,1.725,0,0,0,.149-.73q0-1.784-2.539-1.784H1.688v-.882h.717q2.247,0,2.247-1.676,0-1.549-1.714-1.549a2.918,2.918,0,0,0-1.809.647V-8.734A3.955,3.955,0,0,1,3.2-9.255,3.18,3.18,0,0,1,4.234-9.1a2.371,2.371,0,0,1,.793.444,1.969,1.969,0,0,1,.511.686,2.116,2.116,0,0,1,.181.882A2.222,2.222,0,0,1,3.9-4.773v.025a2.872,2.872,0,0,1,.857.225,2.287,2.287,0,0,1,.679.454,2.023,2.023,0,0,1,.448.657A2.1,2.1,0,0,1,6.049-2.577ZM17.97-2.952q0,.114-.108.114l-1.676-.025H13.444l-1.688.025q-.108,0-.108-.114l.032-1.016V-5.084L11.648-6.1q0-.114.108-.114l1.688.025h2.742l1.676-.025q.108,0,.108.114l-.025,1.016v1.117Zm-.768-.5v-.806H12.4v.806Zm0-1.377V-5.6H12.4v.781Zm-6.145-5.6a.274.274,0,0,1-.108.178,1.8,1.8,0,0,0-.26.508,17.452,17.452,0,0,1-.844,1.949v6.551L9.877.806Q9.877.9,9.769.9H9.147A.079.079,0,0,1,9.058.806l.025-2.044v-3.3q0-1.27.013-1.923A14.251,14.251,0,0,1,7.884-4.818q-.089.1-.14.1t-.121-.146a1.583,1.583,0,0,0-.311-.5A14.027,14.027,0,0,0,9.953-9.934a3.033,3.033,0,0,0,.2-.87,5.126,5.126,0,0,1,.762.235Q11.058-10.5,11.058-10.423ZM19.284-7q0,.089-.108.089l-1.815-.025h-4.64l-1.834.025q-.108,0-.108-.089v-.47q0-.1.108-.1l1.834.025h.438a5.734,5.734,0,0,0-.444-.946.2.2,0,0,1-.025-.076q0-.032.121-.07l.362-.114a.343.343,0,0,1,.1-.025q.044,0,.1.076a6.812,6.812,0,0,1,.508,1.155h1.961q.146-.311.311-.7a2,2,0,0,0,.133-.559,6.188,6.188,0,0,1,.724.171q.146.051.146.127t-.108.146a.746.746,0,0,0-.165.235q-.178.381-.3.584h.781l1.815-.025q.108,0,.108.1ZM18.63-9.077a.09.09,0,0,1-.1.1L16.758-9H13.279l-1.771.025a.09.09,0,0,1-.1-.1v-.47a.09.09,0,0,1,.1-.1l1.771.025h1.143v-.3a4.381,4.381,0,0,0-.076-.914,5.379,5.379,0,0,1,.819.063q.159.025.159.1a1.152,1.152,0,0,1-.083.209,1.778,1.778,0,0,0-.051.546v.3h1.568l1.771-.025a.09.09,0,0,1,.1.1ZM17.412-.584A1.892,1.892,0,0,1,17.17.19,1.066,1.066,0,0,1,16.8.508a4.536,4.536,0,0,1-1.809.235A5.848,5.848,0,0,1,13.5.616a.786.786,0,0,1-.559-.825V-1.3a8.375,8.375,0,0,0-.051-.971,6.839,6.839,0,0,1,.768.076q.127.013.127.1a.433.433,0,0,1-.051.159,1.821,1.821,0,0,0-.063.6V-.5q0,.425.336.5A7.106,7.106,0,0,0,15.069.07a3.394,3.394,0,0,0,1.3-.159q.324-.159.336-1.028a1.96,1.96,0,0,0,.508.235q.209.057.209.165A1.185,1.185,0,0,1,17.412-.584Zm-5.319-1.1A7.106,7.106,0,0,1,11.1.33Q11.039.4,11,.4a.245.245,0,0,1-.114-.051l-.394-.2q-.114-.057-.114-.1a.162.162,0,0,1,.038-.07,5.588,5.588,0,0,0,.99-1.911q.019-.1.07-.1A.288.288,0,0,1,11.584-2l.406.152q.108.038.108.1A.4.4,0,0,1,12.092-1.688ZM19.36-.26a.169.169,0,0,1,.032.076q0,.044-.121.121l-.355.222a.314.314,0,0,1-.133.063q-.044,0-.083-.083a9.316,9.316,0,0,0-1.124-1.828.154.154,0,0,1-.038-.083q0-.038.108-.1l.324-.2a.373.373,0,0,1,.114-.044.144.144,0,0,1,.083.044A9.046,9.046,0,0,1,19.36-.26ZM16.034-1.479a.169.169,0,0,1,.032.076q0,.038-.1.114l-.286.222a.425.425,0,0,1-.165.1q-.025,0-.07-.063A5.392,5.392,0,0,0,14.428-2.2a.1.1,0,0,1-.038-.063q0-.038.121-.121l.273-.178a.25.25,0,0,1,.121-.063.17.17,0,0,1,.089.044A7.258,7.258,0,0,1,16.034-1.479Z" transform="translate(0.014 106.447)" fill="#558ef9"/>
          <path id="Path_1786" data-name="Path 1786" d="M5.4-9.1v6.011H6.563v.952H5.4V0H4.367V-2.139H.089v-.9q.6-.673,1.206-1.438T2.46-6.03Q3.015-6.817,3.488-7.6a14.358,14.358,0,0,0,.8-1.5ZM1.263-3.091h3.1V-7.547q-.476.832-.9,1.485T2.656-4.875q-.384.533-.733.965Zm16.707.14q0,.114-.108.114l-1.676-.025H13.444l-1.688.025q-.108,0-.108-.114l.032-1.016V-5.084L11.648-6.1q0-.114.108-.114l1.688.025h2.742l1.676-.025q.108,0,.108.114l-.025,1.016v1.117Zm-.768-.5v-.806H12.4v.806Zm0-1.377V-5.6H12.4v.781Zm-6.145-5.6a.274.274,0,0,1-.108.178,1.8,1.8,0,0,0-.26.508,17.452,17.452,0,0,1-.844,1.949v6.551L9.877.806Q9.877.9,9.769.9H9.147A.079.079,0,0,1,9.058.806l.025-2.044v-3.3q0-1.27.013-1.923A14.251,14.251,0,0,1,7.884-4.818q-.089.1-.14.1t-.121-.146a1.583,1.583,0,0,0-.311-.5A14.027,14.027,0,0,0,9.953-9.934a3.033,3.033,0,0,0,.2-.87,5.126,5.126,0,0,1,.762.235Q11.058-10.5,11.058-10.423ZM19.284-7q0,.089-.108.089l-1.815-.025h-4.64l-1.834.025q-.108,0-.108-.089v-.47q0-.1.108-.1l1.834.025h.438a5.734,5.734,0,0,0-.444-.946.2.2,0,0,1-.025-.076q0-.032.121-.07l.362-.114a.343.343,0,0,1,.1-.025q.044,0,.1.076a6.812,6.812,0,0,1,.508,1.155h1.961q.146-.311.311-.7a2,2,0,0,0,.133-.559,6.188,6.188,0,0,1,.724.171q.146.051.146.127t-.108.146a.746.746,0,0,0-.165.235q-.178.381-.3.584h.781l1.815-.025q.108,0,.108.1ZM18.63-9.077a.09.09,0,0,1-.1.1L16.758-9H13.279l-1.771.025a.09.09,0,0,1-.1-.1v-.47a.09.09,0,0,1,.1-.1l1.771.025h1.143v-.3a4.381,4.381,0,0,0-.076-.914,5.379,5.379,0,0,1,.819.063q.159.025.159.1a1.152,1.152,0,0,1-.083.209,1.778,1.778,0,0,0-.051.546v.3h1.568l1.771-.025a.09.09,0,0,1,.1.1ZM17.412-.584A1.892,1.892,0,0,1,17.17.19,1.066,1.066,0,0,1,16.8.508a4.536,4.536,0,0,1-1.809.235A5.848,5.848,0,0,1,13.5.616a.786.786,0,0,1-.559-.825V-1.3a8.375,8.375,0,0,0-.051-.971,6.839,6.839,0,0,1,.768.076q.127.013.127.1a.433.433,0,0,1-.051.159,1.821,1.821,0,0,0-.063.6V-.5q0,.425.336.5A7.106,7.106,0,0,0,15.069.07a3.394,3.394,0,0,0,1.3-.159q.324-.159.336-1.028a1.96,1.96,0,0,0,.508.235q.209.057.209.165A1.185,1.185,0,0,1,17.412-.584Zm-5.319-1.1A7.106,7.106,0,0,1,11.1.33Q11.039.4,11,.4a.245.245,0,0,1-.114-.051l-.394-.2q-.114-.057-.114-.1a.162.162,0,0,1,.038-.07,5.588,5.588,0,0,0,.99-1.911q.019-.1.07-.1A.288.288,0,0,1,11.584-2l.406.152q.108.038.108.1A.4.4,0,0,1,12.092-1.688ZM19.36-.26a.169.169,0,0,1,.032.076q0,.044-.121.121l-.355.222a.314.314,0,0,1-.133.063q-.044,0-.083-.083a9.316,9.316,0,0,0-1.124-1.828.154.154,0,0,1-.038-.083q0-.038.108-.1l.324-.2a.373.373,0,0,1,.114-.044.144.144,0,0,1,.083.044A9.046,9.046,0,0,1,19.36-.26ZM16.034-1.479a.169.169,0,0,1,.032.076q0,.038-.1.114l-.286.222a.425.425,0,0,1-.165.1q-.025,0-.07-.063A5.392,5.392,0,0,0,14.428-2.2a.1.1,0,0,1-.038-.063q0-.038.121-.121l.273-.178a.25.25,0,0,1,.121-.063.17.17,0,0,1,.089.044A7.258,7.258,0,0,1,16.034-1.479Z" transform="translate(0 71.075)" fill="#558ef9"/>
          <path id="Path_1785" data-name="Path 1785" d="M6.151-2.78a3.064,3.064,0,0,1-.229,1.206,2.637,2.637,0,0,1-.651.927,2.913,2.913,0,0,1-1.019.6A3.984,3.984,0,0,1,2.926.159,3.665,3.665,0,0,1,1.041-.222v-1.1a3.466,3.466,0,0,0,1.9.6,2.568,2.568,0,0,0,.892-.146,1.982,1.982,0,0,0,.676-.406,1.739,1.739,0,0,0,.428-.628,2.127,2.127,0,0,0,.149-.806,1.727,1.727,0,0,0-.6-1.393,2.617,2.617,0,0,0-1.733-.5q-.184,0-.387.006t-.406.016q-.2.01-.4.022t-.352.032L1.523-9.1H5.732v.939H2.425L2.241-5.491q.2-.013.432-.022t.406-.01a4.085,4.085,0,0,1,1.295.19,2.744,2.744,0,0,1,.968.543,2.275,2.275,0,0,1,.6.863A3.036,3.036,0,0,1,6.151-2.78ZM17.97-2.952q0,.114-.108.114l-1.676-.025H13.444l-1.688.025q-.108,0-.108-.114l.032-1.016V-5.084L11.648-6.1q0-.114.108-.114l1.688.025h2.742l1.676-.025q.108,0,.108.114l-.025,1.016v1.117Zm-.768-.5v-.806H12.4v.806Zm0-1.377V-5.6H12.4v.781Zm-6.145-5.6a.274.274,0,0,1-.108.178,1.8,1.8,0,0,0-.26.508,17.452,17.452,0,0,1-.844,1.949v6.551L9.877.806Q9.877.9,9.769.9H9.147A.079.079,0,0,1,9.058.806l.025-2.044v-3.3q0-1.27.013-1.923A14.251,14.251,0,0,1,7.884-4.818q-.089.1-.14.1t-.121-.146a1.583,1.583,0,0,0-.311-.5A14.027,14.027,0,0,0,9.953-9.934a3.033,3.033,0,0,0,.2-.87,5.126,5.126,0,0,1,.762.235Q11.058-10.5,11.058-10.423ZM19.284-7q0,.089-.108.089l-1.815-.025h-4.64l-1.834.025q-.108,0-.108-.089v-.47q0-.1.108-.1l1.834.025h.438a5.734,5.734,0,0,0-.444-.946.2.2,0,0,1-.025-.076q0-.032.121-.07l.362-.114a.343.343,0,0,1,.1-.025q.044,0,.1.076a6.812,6.812,0,0,1,.508,1.155h1.961q.146-.311.311-.7a2,2,0,0,0,.133-.559,6.188,6.188,0,0,1,.724.171q.146.051.146.127t-.108.146a.746.746,0,0,0-.165.235q-.178.381-.3.584h.781l1.815-.025q.108,0,.108.1ZM18.63-9.077a.09.09,0,0,1-.1.1L16.758-9H13.279l-1.771.025a.09.09,0,0,1-.1-.1v-.47a.09.09,0,0,1,.1-.1l1.771.025h1.143v-.3a4.381,4.381,0,0,0-.076-.914,5.379,5.379,0,0,1,.819.063q.159.025.159.1a1.152,1.152,0,0,1-.083.209,1.778,1.778,0,0,0-.051.546v.3h1.568l1.771-.025a.09.09,0,0,1,.1.1ZM17.412-.584A1.892,1.892,0,0,1,17.17.19,1.066,1.066,0,0,1,16.8.508a4.536,4.536,0,0,1-1.809.235A5.848,5.848,0,0,1,13.5.616a.786.786,0,0,1-.559-.825V-1.3a8.375,8.375,0,0,0-.051-.971,6.839,6.839,0,0,1,.768.076q.127.013.127.1a.433.433,0,0,1-.051.159,1.821,1.821,0,0,0-.063.6V-.5q0,.425.336.5A7.106,7.106,0,0,0,15.069.07a3.394,3.394,0,0,0,1.3-.159q.324-.159.336-1.028a1.96,1.96,0,0,0,.508.235q.209.057.209.165A1.185,1.185,0,0,1,17.412-.584Zm-5.319-1.1A7.106,7.106,0,0,1,11.1.33Q11.039.4,11,.4a.245.245,0,0,1-.114-.051l-.394-.2q-.114-.057-.114-.1a.162.162,0,0,1,.038-.07,5.588,5.588,0,0,0,.99-1.911q.019-.1.07-.1A.288.288,0,0,1,11.584-2l.406.152q.108.038.108.1A.4.4,0,0,1,12.092-1.688ZM19.36-.26a.169.169,0,0,1,.032.076q0,.044-.121.121l-.355.222a.314.314,0,0,1-.133.063q-.044,0-.083-.083a9.316,9.316,0,0,0-1.124-1.828.154.154,0,0,1-.038-.083q0-.038.108-.1l.324-.2a.373.373,0,0,1,.114-.044.144.144,0,0,1,.083.044A9.046,9.046,0,0,1,19.36-.26ZM16.034-1.479a.169.169,0,0,1,.032.076q0,.038-.1.114l-.286.222a.425.425,0,0,1-.165.1q-.025,0-.07-.063A5.392,5.392,0,0,0,14.428-2.2a.1.1,0,0,1-.038-.063q0-.038.121-.121l.273-.178a.25.25,0,0,1,.121-.063.17.17,0,0,1,.089.044A7.258,7.258,0,0,1,16.034-1.479Z" transform="translate(0.014 35.703)" fill="#558ef9"/>
          <path id="Path_1784" data-name="Path 1784" d="M11.379-1.646A2.491,2.491,0,0,1,10.8.082a1.482,1.482,0,0,1-.732.311A6.378,6.378,0,0,1,9.023.457,4.122,4.122,0,0,1,7.465.264a.826.826,0,0,1-.428-.387,1.974,1.974,0,0,1-.111-.768V-5.244H4.934a7.241,7.241,0,0,1-.873,3.92A5.854,5.854,0,0,1,1.477.551a.813.813,0,0,1-.205.059Q1.213.609,1.1.445A2.143,2.143,0,0,0,.7-.012,6.623,6.623,0,0,0,2.766-1.055,3.319,3.319,0,0,0,3.838-2.66a8.87,8.87,0,0,0,.328-2.584H2.5L.914-5.221q-.1,0-.1-.094v-.557q0-.094.1-.094L2.5-5.941H9.5l1.582-.023q.1,0,.1.094v.557q0,.094-.1.094L9.5-5.244h-1.8v4.131a2.07,2.07,0,0,0,.053.592.342.342,0,0,0,.223.188A4,4,0,0,0,9.047-.24a3.824,3.824,0,0,0,.8-.059.991.991,0,0,0,.439-.217,3.006,3.006,0,0,0,.375-1.705,2.965,2.965,0,0,0,.539.287q.193.082.193.17A1.115,1.115,0,0,1,11.379-1.646ZM10.02-8.326a.083.083,0,0,1-.094.094L8.221-8.256H3.85l-1.7.023q-.1,0-.1-.094v-.568q0-.094.1-.094l1.7.023H8.221l1.705-.023a.083.083,0,0,1,.094.094Z" transform="translate(0.014 16)" fill="#558ef9"/>
        </g>
        <path id="Path_1767" data-name="Path 1767" d="M0,176.817V0" transform="translate(7.66 31.875)" fill="none" stroke="#558ef9" stroke-width="1"/>
        <g id="Group_2006" data-name="Group 2006" transform="translate(0 31.875)">
          <g id="Group_2005" data-name="Group 2005">
            <line id="Line_550" data-name="Line 550" x2="7.405" transform="translate(0 176.817)" fill="none" stroke="#558ef9" stroke-miterlimit="10" stroke-width="1"/>
            <line id="Line_551" data-name="Line 551" x2="7.405" transform="translate(0 141.453)" fill="none" stroke="#558ef9" stroke-miterlimit="10" stroke-width="1"/>
            <line id="Line_552" data-name="Line 552" x2="7.405" transform="translate(0 106.09)" fill="none" stroke="#558ef9" stroke-miterlimit="10" stroke-width="1"/>
            <line id="Line_553" data-name="Line 553" x2="7.405" transform="translate(0 70.727)" fill="none" stroke="#558ef9" stroke-miterlimit="10" stroke-width="1"/>
            <line id="Line_554" data-name="Line 554" x2="7.405" transform="translate(0 35.363)" fill="none" stroke="#558ef9" stroke-miterlimit="10" stroke-width="1"/>
            <line id="Line_555" data-name="Line 555" x2="7.405" fill="none" stroke="#558ef9" stroke-miterlimit="10" stroke-width="1"/>
          </g>
        </g>
      </g>
      <g id="Group_2010" data-name="Group 2010" transform="translate(40.409 38.897)">
        <g id="Group_2009" data-name="Group 2009">
          <g id="Group_2008" data-name="Group 2008">
            <rect id="Rectangle_2612" data-name="Rectangle 2612" width="35.236" height="91.919" transform="translate(0 77.876)" fill="#356bd0"/>
            <rect id="Rectangle_2613" data-name="Rectangle 2613" width="35.236" height="148.602" transform="translate(49.023 21.32)" fill="#356bd0"/>
            <rect id="Rectangle_2614" data-name="Rectangle 2614" width="35.236" height="138.006" transform="translate(97.919 31.916)" fill="#356bd0"/>
            <rect id="Rectangle_2615" data-name="Rectangle 2615" width="35.236" height="148.602" transform="translate(146.943 21.32)" fill="#356bd0"/>
            <rect id="Rectangle_2616" data-name="Rectangle 2616" width="35.236" height="169.795" transform="translate(195.839)" fill="#356bd0"/>
            <rect id="Rectangle_2617" data-name="Rectangle 2617" width="35.236" height="138.006" transform="translate(244.734 31.916)" fill="#356bd0"/>
          </g>
        </g>
      </g>
      <g id="Group_2032" data-name="Group 2032" transform="translate(0 0)">
        <g id="Group_2017" data-name="Group 2017" transform="translate(0 0)">
          <g id="Group_2014" data-name="Group 2014">
            <path id="Path_1783" data-name="Path 1783" d="M4.242,0H3.281V-7.26A2.224,2.224,0,0,1,2.956-7a5.3,5.3,0,0,1-.48.284q-.267.141-.562.264a4.088,4.088,0,0,1-.577.193v-.973a5.586,5.586,0,0,0,.671-.237q.354-.149.7-.334t.647-.387a5.14,5.14,0,0,0,.527-.4h.363Zm8.2-4.236a8.254,8.254,0,0,1-.19,1.869A4.355,4.355,0,0,1,11.7-.993a2.479,2.479,0,0,1-.885.85,2.422,2.422,0,0,1-1.192.29A2.262,2.262,0,0,1,8.5-.132a2.364,2.364,0,0,1-.835-.812,4.113,4.113,0,0,1-.516-1.31,8.1,8.1,0,0,1-.176-1.778,9.166,9.166,0,0,1,.185-1.945A4.45,4.45,0,0,1,7.7-7.392a2.412,2.412,0,0,1,.888-.861A2.492,2.492,0,0,1,9.8-8.543Q12.445-8.543,12.445-4.236Zm-.984.094q0-3.586-1.705-3.586-1.8,0-1.8,3.65,0,3.4,1.764,3.4Q11.461-.674,11.461-4.143Zm12,3.891A.88.88,0,0,1,23.186.5a1.021,1.021,0,0,1-.428.164,6.366,6.366,0,0,1-.867.041A.306.306,0,0,1,21.7.674.466.466,0,0,1,21.615.48,2.137,2.137,0,0,0,21.4.012a8.5,8.5,0,0,0,.891.047.522.522,0,0,0,.369-.1.438.438,0,0,0,.094-.316V-2.543H19.166v1.26q.908-.105,1.582-.217-.3-.434-.334-.48a.16.16,0,0,1-.041-.076q0-.041.111-.088l.252-.111a.377.377,0,0,1,.1-.029q.035,0,.082.064a9.111,9.111,0,0,1,.961,1.57.288.288,0,0,1,.018.07q0,.047-.111.1l-.27.135a.369.369,0,0,1-.129.047q-.041,0-.07-.07-.229-.5-.287-.627-1.74.3-4.16.539a1.511,1.511,0,0,0-.516.111.285.285,0,0,1-.141.07q-.082,0-.135-.158-.07-.252-.152-.668.258.006.475.006.41,0,.832-.029,1.1-.082,1.283-.1V-2.543H15.123V-.422L15.146.721a.083.083,0,0,1-.094.094H14.5A.083.083,0,0,1,14.4.721l.023-1.143V-1.945L14.4-3.059a.083.083,0,0,1,.094-.094l1.693.023h2.326V-4H17.2l-1.646.023a.083.083,0,0,1-.094-.094l.023-1.008V-6.287l-.023-1.008a.083.083,0,0,1,.094-.094l1.646.023h3.457l1.658-.023a.083.083,0,0,1,.094.094l-.023,1.008v1.213l.023,1.008a.083.083,0,0,1-.094.094L20.654-4H19.166v.867h2.508l1.693-.023a.083.083,0,0,1,.094.094l-.023,1.178v.492ZM21.709-4.523v-.937H19.166v.938Zm-3.193,0v-.937H16.154v.938Zm3.193-1.453v-.861H19.166v.861Zm-3.193,0v-.861H16.154v.861ZM24.17-8.437q0,.094-.1.094L22.5-8.367H20.93l.023.551q0,.1-.094.1h-.521q-.105,0-.105-.1,0-.018.012-.187t.012-.363H17.484l.023.551q0,.1-.094.1h-.527a.088.088,0,0,1-.1-.1q0-.018.012-.187t.012-.363H15.387l-1.576.023a.083.083,0,0,1-.094-.094v-.48q0-.082.094-.082l1.576.023h1.424a5.249,5.249,0,0,0-.07-.984q.363.018.744.064.123.018.123.105a.319.319,0,0,1-.047.158,1.714,1.714,0,0,0-.076.656h2.771a5.166,5.166,0,0,0-.07-.973q.393.023.732.064.129.018.129.105A.319.319,0,0,1,21-9.621a1.8,1.8,0,0,0-.07.645H22.5L24.07-9q.1,0,.1.082Z" transform="translate(0 211.564)" fill="#fff"/>
            <path id="Path_1782" data-name="Path 1782" d="M4.242,0H3.281V-7.26A2.224,2.224,0,0,1,2.956-7a5.3,5.3,0,0,1-.48.284q-.267.141-.562.264a4.088,4.088,0,0,1-.577.193v-.973a5.586,5.586,0,0,0,.671-.237q.354-.149.7-.334t.647-.387a5.14,5.14,0,0,0,.527-.4h.363Zm7.9-2.566a2.828,2.828,0,0,1-.211,1.113,2.434,2.434,0,0,1-.6.855,2.689,2.689,0,0,1-.94.551A3.678,3.678,0,0,1,9.17.146,3.383,3.383,0,0,1,7.43-.205v-1.02a3.2,3.2,0,0,0,1.752.551A2.371,2.371,0,0,0,10-.809a1.829,1.829,0,0,0,.624-.375,1.606,1.606,0,0,0,.4-.58,1.963,1.963,0,0,0,.138-.744,1.594,1.594,0,0,0-.551-1.286,2.415,2.415,0,0,0-1.6-.466q-.17,0-.357.006l-.375.015q-.187.009-.366.021t-.325.029L7.875-8.4H11.76v.867H8.707l-.17,2.467q.188-.012.4-.021T9.311-5.1a3.771,3.771,0,0,1,1.2.176,2.533,2.533,0,0,1,.894.5,2.1,2.1,0,0,1,.557.8A2.8,2.8,0,0,1,12.146-2.566ZM23.461-.252A.88.88,0,0,1,23.186.5a1.021,1.021,0,0,1-.428.164,6.366,6.366,0,0,1-.867.041A.306.306,0,0,1,21.7.674.466.466,0,0,1,21.615.48,2.137,2.137,0,0,0,21.4.012a8.5,8.5,0,0,0,.891.047.522.522,0,0,0,.369-.1.438.438,0,0,0,.094-.316V-2.543H19.166v1.26q.908-.105,1.582-.217-.3-.434-.334-.48a.16.16,0,0,1-.041-.076q0-.041.111-.088l.252-.111a.377.377,0,0,1,.1-.029q.035,0,.082.064a9.111,9.111,0,0,1,.961,1.57.288.288,0,0,1,.018.07q0,.047-.111.1l-.27.135a.369.369,0,0,1-.129.047q-.041,0-.07-.07-.229-.5-.287-.627-1.74.3-4.16.539a1.511,1.511,0,0,0-.516.111.285.285,0,0,1-.141.07q-.082,0-.135-.158-.07-.252-.152-.668.258.006.475.006.41,0,.832-.029,1.1-.082,1.283-.1V-2.543H15.123V-.422L15.146.721a.083.083,0,0,1-.094.094H14.5A.083.083,0,0,1,14.4.721l.023-1.143V-1.945L14.4-3.059a.083.083,0,0,1,.094-.094l1.693.023h2.326V-4H17.2l-1.646.023a.083.083,0,0,1-.094-.094l.023-1.008V-6.287l-.023-1.008a.083.083,0,0,1,.094-.094l1.646.023h3.457l1.658-.023a.083.083,0,0,1,.094.094l-.023,1.008v1.213l.023,1.008a.083.083,0,0,1-.094.094L20.654-4H19.166v.867h2.508l1.693-.023a.083.083,0,0,1,.094.094l-.023,1.178v.492ZM21.709-4.523v-.937H19.166v.938Zm-3.193,0v-.937H16.154v.938Zm3.193-1.453v-.861H19.166v.861Zm-3.193,0v-.861H16.154v.861ZM24.17-8.437q0,.094-.1.094L22.5-8.367H20.93l.023.551q0,.1-.094.1h-.521q-.105,0-.105-.1,0-.018.012-.187t.012-.363H17.484l.023.551q0,.1-.094.1h-.527a.088.088,0,0,1-.1-.1q0-.018.012-.187t.012-.363H15.387l-1.576.023a.083.083,0,0,1-.094-.094v-.48q0-.082.094-.082l1.576.023h1.424a5.249,5.249,0,0,0-.07-.984q.363.018.744.064.123.018.123.105a.319.319,0,0,1-.047.158,1.714,1.714,0,0,0-.076.656h2.771a5.166,5.166,0,0,0-.07-.973q.393.023.732.064.129.018.129.105A.319.319,0,0,1,21-9.621a1.8,1.8,0,0,0-.07.645H22.5L24.07-9q.1,0,.1.082Z" transform="translate(0 123.133)" fill="#fff"/>
            <path id="Path_1781" data-name="Path 1781" d="M4.9-6.716a1.882,1.882,0,0,0-.13-.73,1.446,1.446,0,0,0-.355-.517,1.456,1.456,0,0,0-.53-.308,2.076,2.076,0,0,0-.66-.1,2.184,2.184,0,0,0-.6.083,2.9,2.9,0,0,0-.568.229,3.5,3.5,0,0,0-.533.349,3.852,3.852,0,0,0-.479.451V-8.379a3.112,3.112,0,0,1,.981-.651,3.453,3.453,0,0,1,1.323-.225,3.2,3.2,0,0,1,1.035.162,2.372,2.372,0,0,1,.825.473,2.186,2.186,0,0,1,.549.768A2.59,2.59,0,0,1,5.96-6.8a3.592,3.592,0,0,1-.124.978A3.023,3.023,0,0,1,5.462-5a3.982,3.982,0,0,1-.632.743,8.946,8.946,0,0,1-.9.724q-.641.457-1.057.781a4.672,4.672,0,0,0-.66.606,1.759,1.759,0,0,0-.343.565,1.975,1.975,0,0,0-.1.651H6.31V0H.692V-.451A3.756,3.756,0,0,1,.819-1.479a2.67,2.67,0,0,1,.419-.844A4.685,4.685,0,0,1,2-3.123q.473-.4,1.158-.9A7.324,7.324,0,0,0,3.99-4.7a3.531,3.531,0,0,0,.536-.647,2.325,2.325,0,0,0,.289-.657A2.833,2.833,0,0,0,4.9-6.716Zm8.582,2.126a8.942,8.942,0,0,1-.206,2.025,4.718,4.718,0,0,1-.6,1.489,2.685,2.685,0,0,1-.958.92,2.624,2.624,0,0,1-1.292.314,2.45,2.45,0,0,1-1.222-.3,2.561,2.561,0,0,1-.9-.879,4.456,4.456,0,0,1-.559-1.419,8.772,8.772,0,0,1-.19-1.927,9.93,9.93,0,0,1,.2-2.107,4.82,4.82,0,0,1,.587-1.533A2.613,2.613,0,0,1,9.3-8.941a2.7,2.7,0,0,1,1.317-.314Q13.482-9.255,13.482-4.589Zm-1.066.1q0-3.885-1.847-3.885-1.949,0-1.949,3.955Q8.62-.73,10.531-.73,12.416-.73,12.416-4.488Zm13,4.215a.953.953,0,0,1-.3.819,1.106,1.106,0,0,1-.463.178,6.9,6.9,0,0,1-.939.044.331.331,0,0,1-.2-.038.5.5,0,0,1-.1-.209,2.315,2.315,0,0,0-.235-.508,9.21,9.21,0,0,0,.965.051.566.566,0,0,0,.4-.108.474.474,0,0,0,.1-.343V-2.755H20.763V-1.39q.984-.114,1.714-.235-.324-.47-.362-.521a.173.173,0,0,1-.044-.083q0-.044.121-.1l.273-.121a.408.408,0,0,1,.108-.032q.038,0,.089.07A9.87,9.87,0,0,1,23.7-.7a.312.312,0,0,1,.019.076q0,.051-.121.108l-.292.146a.4.4,0,0,1-.14.051q-.044,0-.076-.076-.248-.546-.311-.679Q20.9-.749,18.275-.5a1.637,1.637,0,0,0-.559.121.308.308,0,0,1-.152.076q-.089,0-.146-.171-.076-.273-.165-.724.279.006.514.006.444,0,.9-.032,1.193-.089,1.39-.108V-2.755H16.383v2.3L16.409.781a.09.09,0,0,1-.1.1h-.6a.09.09,0,0,1-.1-.1l.025-1.238v-1.65L15.6-3.313a.09.09,0,0,1,.1-.1l1.834.025h2.52v-.939H18.63L16.847-4.3a.09.09,0,0,1-.1-.1L16.771-5.5V-6.811L16.745-7.9a.09.09,0,0,1,.1-.1l1.784.025h3.745L24.172-8a.09.09,0,0,1,.1.1l-.025,1.092V-5.5l.025,1.092a.09.09,0,0,1-.1.1l-1.8-.025H20.763v.939H23.48l1.834-.025a.09.09,0,0,1,.1.1l-.025,1.276V-1.5ZM23.518-4.9V-5.916H20.763V-4.9Zm-3.459,0V-5.916H17.5V-4.9Zm3.459-1.574v-.933H20.763v.933Zm-3.459,0v-.933H17.5v.933Zm6.125-2.666q0,.1-.108.1l-1.7-.025h-1.7l.025.6q0,.108-.1.108h-.565q-.114,0-.114-.108,0-.019.013-.2t.013-.394h-3l.025.6q0,.108-.1.108h-.571a.1.1,0,0,1-.108-.108q0-.019.013-.2t.013-.394H16.669l-1.708.025a.09.09,0,0,1-.1-.1v-.521q0-.089.1-.089l1.708.025h1.542a5.687,5.687,0,0,0-.076-1.066q.394.019.806.07.133.019.133.114a.346.346,0,0,1-.051.171,1.856,1.856,0,0,0-.083.711h3a5.6,5.6,0,0,0-.076-1.054q.425.025.793.07.14.019.14.114a.346.346,0,0,1-.051.171,1.946,1.946,0,0,0-.076.7h1.7l1.7-.025q.108,0,.108.089Z" transform="translate(0.153 35)" fill="#fff"/>
            <path id="Path_1780" data-name="Path 1780" d="M12.327-1.784A2.7,2.7,0,0,1,11.7.089a1.606,1.606,0,0,1-.793.336A6.909,6.909,0,0,1,9.775.5,4.466,4.466,0,0,1,8.087.286a.894.894,0,0,1-.463-.419A2.138,2.138,0,0,1,7.5-.965V-5.681H5.345A7.844,7.844,0,0,1,4.4-1.435,6.342,6.342,0,0,1,1.6.6.881.881,0,0,1,1.377.66q-.063,0-.19-.178a2.321,2.321,0,0,0-.432-.5A7.175,7.175,0,0,0,3-1.143,3.6,3.6,0,0,0,4.158-2.882a9.61,9.61,0,0,0,.355-2.8H2.7L.99-5.656q-.108,0-.108-.1v-.6q0-.1.108-.1L2.7-6.437H10.3l1.714-.025q.108,0,.108.1v.6q0,.1-.108.1L10.3-5.681H8.347v4.475A2.243,2.243,0,0,0,8.4-.565a.371.371,0,0,0,.241.2A4.338,4.338,0,0,0,9.8-.26a4.142,4.142,0,0,0,.863-.063,1.073,1.073,0,0,0,.476-.235,3.257,3.257,0,0,0,.406-1.847,3.212,3.212,0,0,0,.584.311q.209.089.209.184A1.208,1.208,0,0,1,12.327-1.784ZM10.854-9.02a.09.09,0,0,1-.1.1L8.906-8.944H4.17L2.33-8.918q-.108,0-.108-.1v-.616q0-.1.108-.1l1.841.025H8.906l1.847-.025a.09.09,0,0,1,.1.1Z" transform="translate(0.153 14)" fill="#fff"/>
          </g>
          <line id="Line_563" data-name="Line 563" y1="176.817" transform="translate(32.238 31.875)" fill="none" stroke="#fff" stroke-miterlimit="10" stroke-width="1"/>
          <g id="Group_2016" data-name="Group 2016" transform="translate(32.238 31.875)">
            <g id="Group_2015" data-name="Group 2015">
              <line id="Line_564" data-name="Line 564" x2="7.277" transform="translate(0 176.817)" fill="none" stroke="#fff" stroke-miterlimit="10" stroke-width="1"/>
              <line id="Line_565" data-name="Line 565" x2="7.277" transform="translate(0 88.472)" fill="none" stroke="#fff" stroke-miterlimit="10" stroke-width="1"/>
              <line id="Line_566" data-name="Line 566" x2="7.277" fill="none" stroke="#fff" stroke-miterlimit="10" stroke-width="1"/>
            </g>
          </g>
        </g>
        <g id="Group_2024" data-name="Group 2024" transform="translate(61.601 32.003)">
          <g id="Group_2019" data-name="Group 2019">
            <g id="Group_2018" data-name="Group 2018">
              <line id="Line_567" data-name="Line 567" x1="58.726" y2="3.575" transform="translate(0 26.554)" fill="none" stroke="#fff" stroke-linecap="round" stroke-miterlimit="10" stroke-width="2"/>
              <line id="Line_568" data-name="Line 568" x1="58.726" y2="4.213" transform="translate(58.726 22.341)" fill="none" stroke="#fff" stroke-linecap="round" stroke-miterlimit="10" stroke-width="2"/>
              <line id="Line_569" data-name="Line 569" x1="58.726" y2="6.256" transform="translate(117.452 16.086)" fill="none" stroke="#fff" stroke-linecap="round" stroke-miterlimit="10" stroke-width="2"/>
              <line id="Line_570" data-name="Line 570" x1="58.726" y2="16.086" transform="translate(176.178)" fill="none" stroke="#fff" stroke-linecap="round" stroke-miterlimit="10" stroke-width="2"/>
            </g>
          </g>
          <g id="Group_2021" data-name="Group 2021" transform="translate(0 124.729)">
            <g id="Group_2020" data-name="Group 2020">
              <line id="Line_571" data-name="Line 571" x1="58.726" y2="6.639" transform="translate(0 27.703)" fill="none" stroke="#1feac3" stroke-linecap="round" stroke-miterlimit="10" stroke-width="2"/>
              <line id="Line_572" data-name="Line 572" x1="58.726" y2="11.107" transform="translate(58.726 16.596)" fill="none" stroke="#1feac3" stroke-linecap="round" stroke-miterlimit="10" stroke-width="2"/>
              <line id="Line_573" data-name="Line 573" x1="58.726" y2="6.511" transform="translate(117.452 10.086)" fill="none" stroke="#1feac3" stroke-linecap="round" stroke-miterlimit="10" stroke-width="2"/>
              <line id="Line_574" data-name="Line 574" x1="58.726" y2="10.086" transform="translate(176.178)" fill="none" stroke="#1feac3" stroke-linecap="round" stroke-miterlimit="10" stroke-width="2"/>
            </g>
          </g>
          <g id="Group_2023" data-name="Group 2023" transform="translate(0 24.001)">
            <g id="Group_2022" data-name="Group 2022">
              <line id="Line_575" data-name="Line 575" x1="58.726" y2="10.341" transform="translate(0 45.321)" fill="none" stroke="#ff6cd7" stroke-linecap="round" stroke-miterlimit="10" stroke-width="2"/>
              <line id="Line_576" data-name="Line 576" x1="58.726" y2="15.065" transform="translate(58.726 30.257)" fill="none" stroke="#ff6cd7" stroke-linecap="round" stroke-miterlimit="10" stroke-width="2"/>
              <line id="Line_577" data-name="Line 577" x1="58.726" y2="17.362" transform="translate(117.452 12.894)" fill="none" stroke="#ff6cd7" stroke-linecap="round" stroke-miterlimit="10" stroke-width="2"/>
              <line id="Line_578" data-name="Line 578" x1="58.726" y2="12.894" transform="translate(176.178)" fill="none" stroke="#ff6cd7" stroke-linecap="round" stroke-miterlimit="10" stroke-width="2"/>
            </g>
          </g>
        </g>
        <g id="Group_2031" data-name="Group 2031" transform="translate(57.771 28.173)">
          <g id="Group_2026" data-name="Group 2026">
            <g id="Group_2025" data-name="Group 2025">
              <rect id="Rectangle_2618" data-name="Rectangle 2618" width="7.66" height="7.66" rx="3.83" transform="translate(0 30.129)" fill="#fff"/>
              <rect id="Rectangle_2619" data-name="Rectangle 2619" width="7.66" height="7.66" rx="3.83" transform="translate(58.726 26.554)" fill="#fff"/>
              <rect id="Rectangle_2620" data-name="Rectangle 2620" width="7.66" height="7.66" rx="3.83" transform="translate(117.452 22.341)" fill="#fff"/>
              <rect id="Rectangle_2621" data-name="Rectangle 2621" width="7.66" height="7.66" rx="3.83" transform="translate(176.178 16.086)" fill="#fff"/>
              <rect id="Rectangle_2622" data-name="Rectangle 2622" width="7.66" height="7.66" rx="3.83" transform="translate(234.904)" fill="#fff"/>
            </g>
          </g>
          <g id="Group_2028" data-name="Group 2028" transform="translate(0 124.729)">
            <g id="Group_2027" data-name="Group 2027">
              <rect id="Rectangle_2623" data-name="Rectangle 2623" width="7.66" height="7.66" rx="3.83" transform="translate(0 34.342)" fill="#1feac3"/>
              <rect id="Rectangle_2624" data-name="Rectangle 2624" width="7.66" height="7.66" rx="3.83" transform="translate(58.726 27.703)" fill="#1feac3"/>
              <rect id="Rectangle_2625" data-name="Rectangle 2625" width="7.66" height="7.66" rx="3.83" transform="translate(117.452 16.596)" fill="#1feac3"/>
              <rect id="Rectangle_2626" data-name="Rectangle 2626" width="7.66" height="7.66" rx="3.83" transform="translate(176.178 10.086)" fill="#1feac3"/>
              <rect id="Rectangle_2627" data-name="Rectangle 2627" width="7.66" height="7.66" rx="3.83" transform="translate(234.904)" fill="#1feac3"/>
            </g>
          </g>
          <g id="Group_2030" data-name="Group 2030" transform="translate(0 24.001)">
            <g id="Group_2029" data-name="Group 2029">
              <rect id="Rectangle_2628" data-name="Rectangle 2628" width="7.66" height="7.66" rx="3.83" transform="translate(0 55.662)" fill="#ff6cd7"/>
              <rect id="Rectangle_2629" data-name="Rectangle 2629" width="7.66" height="7.66" rx="3.83" transform="translate(58.726 45.321)" fill="#ff6cd7"/>
              <rect id="Rectangle_2630" data-name="Rectangle 2630" width="7.66" height="7.66" rx="3.83" transform="translate(117.452 30.257)" fill="#ff6cd7"/>
              <rect id="Rectangle_2631" data-name="Rectangle 2631" width="7.66" height="7.66" rx="3.83" transform="translate(176.178 12.894)" fill="#ff6cd7"/>
              <rect id="Rectangle_2632" data-name="Rectangle 2632" width="7.66" height="7.66" rx="3.83" transform="translate(234.904)" fill="#ff6cd7"/>
            </g>
          </g>
        </g>
      </g>
      <g id="Group_2003" data-name="Group 2003" transform="translate(33.642 208.692)">
        <line id="Line_548" data-name="Line 548" x2="293.63" fill="none" stroke="#356bd0" stroke-miterlimit="10" stroke-width="1"/>
      </g>
    </g>
    <path id="內文p" d="M4.843,0H3.7V-7.281a5.905,5.905,0,0,1-1.082.787,7.672,7.672,0,0,1-1.2.59v-1.1A6.9,6.9,0,0,0,3.091-8.1,4.3,4.3,0,0,0,4.107-9.344h.736ZM7.77-4.589a8.515,8.515,0,0,1,.34-2.656A3.3,3.3,0,0,1,9.118-8.8,2.58,2.58,0,0,1,10.8-9.344a2.75,2.75,0,0,1,1.314.3,2.512,2.512,0,0,1,.933.87,4.665,4.665,0,0,1,.578,1.384,9.194,9.194,0,0,1,.209,2.2A8.539,8.539,0,0,1,13.5-1.946,3.305,3.305,0,0,1,12.5-.39,2.58,2.58,0,0,1,10.8.159,2.554,2.554,0,0,1,8.69-.806,6.132,6.132,0,0,1,7.77-4.589Zm1.174,0a5.835,5.835,0,0,0,.536,3.05A1.581,1.581,0,0,0,10.8-.781a1.579,1.579,0,0,0,1.323-.762,5.837,5.837,0,0,0,.536-3.047,5.833,5.833,0,0,0-.536-3.053A1.592,1.592,0,0,0,10.791-8.4a1.464,1.464,0,0,0-1.257.667A5.9,5.9,0,0,0,8.944-4.589Zm6.132-3.5v-1.1H21.1V-8.3a12.694,12.694,0,0,0-1.761,2.514,15.309,15.309,0,0,0-1.349,3.225A11.985,11.985,0,0,0,17.551,0H16.377a11.4,11.4,0,0,1,.432-2.653,13.932,13.932,0,0,1,1.184-3,12.857,12.857,0,0,1,1.641-2.434ZM33.323-6.825a5.849,5.849,0,0,0-.936-.715,7.393,7.393,0,0,0,.754-.832l-.676-.221a4.643,4.643,0,0,1-.65.689c-.338-.182-.676-.377-1-.52l-.481.429a9.556,9.556,0,0,1,.936.507,7.815,7.815,0,0,1-1.235.715,3.354,3.354,0,0,1,.533.507,9.2,9.2,0,0,0,1.3-.845,7.088,7.088,0,0,1,.936.754Zm-.039-2.327c-.234-.182-.546-.39-.9-.611a6.676,6.676,0,0,0,.715-.793l-.676-.182a5.537,5.537,0,0,1-.611.637c-.338-.182-.663-.351-.975-.481l-.468.429a8.663,8.663,0,0,1,.91.468,7.835,7.835,0,0,1-1.157.663,4.072,4.072,0,0,1,.546.468,9.032,9.032,0,0,0,1.209-.78,6.433,6.433,0,0,1,.9.663Zm-6.045,3.64h9.139V-3.9h.949V-6.253H36.313c.1-1.157.221-2.834.286-4.121h-3v.663h2.067l-.039.7H33.661v.663h1.924l-.065.7H33.583v.663h1.885c-.026.26-.052.494-.078.728H28.266l-.052-.728h1.807v-.663H28.175l-.052-.7h1.846v-.663H28.084l-.052-.637a13.63,13.63,0,0,0,2-.507l-.429-.6a24.331,24.331,0,0,1-2.509.637l.26,3.861h-1.04V-3.9h.923ZM37.587-2.353h-5.2v-.234A13.547,13.547,0,0,0,35.325-4.2L34.74-4.68l-.195.052h-6.11V-3.9h5.083a12.066,12.066,0,0,1-2.067.988v.559H26.03v.819h5.421V-.065c0,.182-.052.221-.273.234-.195,0-.923,0-1.729-.026a3.64,3.64,0,0,1,.338.819A7.779,7.779,0,0,0,31.88.832c.4-.143.507-.364.507-.871v-1.5h5.2Zm4.472-.559V-5.486h2.912v2.574Zm8.593,0H45.946V-5.486h3.809V-6.4H45.946V-8.372h4.108v-.936H42.306c.208-.442.416-.91.6-1.365l-.975-.234A11,11,0,0,1,39-6.422a5.983,5.983,0,0,1,.832.611,12.011,12.011,0,0,0,1.976-2.561h3.159V-6.4H41.1v3.484H38.965v.936h6.006V1h.975V-1.976h4.706Z" transform="translate(371.154 319)" fill="#558ef9"/>
    <path id="內文p-2" data-name="內文p" d="M-5.54,0H-6.595V-6.721a5.451,5.451,0,0,1-1,.727,7.082,7.082,0,0,1-1.11.545v-1.02A6.369,6.369,0,0,0-7.157-7.477,3.964,3.964,0,0,0-6.22-8.625h.68Zm2.7-4.236a7.86,7.86,0,0,1,.313-2.452,3.05,3.05,0,0,1,.932-1.433,2.382,2.382,0,0,1,1.556-.5,2.538,2.538,0,0,1,1.213.278,2.319,2.319,0,0,1,.861.8,4.307,4.307,0,0,1,.533,1.277,8.487,8.487,0,0,1,.193,2.03A7.882,7.882,0,0,1,2.452-1.8,3.051,3.051,0,0,1,1.523-.36,2.382,2.382,0,0,1-.038.146,2.357,2.357,0,0,1-1.989-.744,5.661,5.661,0,0,1-2.839-4.236Zm1.084,0a5.386,5.386,0,0,0,.5,2.815,1.459,1.459,0,0,0,1.222.7,1.458,1.458,0,0,0,1.222-.7,5.388,5.388,0,0,0,.5-2.812,5.384,5.384,0,0,0-.5-2.818,1.47,1.47,0,0,0-1.233-.7,1.351,1.351,0,0,0-1.16.615A5.448,5.448,0,0,0-1.755-4.236ZM9.308-6.486,8.259-6.4a1.986,1.986,0,0,0-.4-.9,1.4,1.4,0,0,0-1.055-.451,1.449,1.449,0,0,0-.885.281,2.4,2.4,0,0,0-.785,1.061,5.542,5.542,0,0,0-.3,1.986,2.444,2.444,0,0,1,.932-.861,2.506,2.506,0,0,1,1.154-.281,2.391,2.391,0,0,1,1.8.776A2.787,2.787,0,0,1,9.46-2.789a3.3,3.3,0,0,1-.349,1.5A2.54,2.54,0,0,1,8.153-.223,2.616,2.616,0,0,1,6.771.146a2.7,2.7,0,0,1-2.15-.97,4.9,4.9,0,0,1-.832-3.2,5.73,5.73,0,0,1,.92-3.621A2.645,2.645,0,0,1,6.87-8.625a2.426,2.426,0,0,1,1.661.568A2.413,2.413,0,0,1,9.308-6.486ZM5-2.783A2.447,2.447,0,0,0,5.232-1.74a1.725,1.725,0,0,0,.647.759,1.619,1.619,0,0,0,.873.261A1.488,1.488,0,0,0,7.9-1.26a2.122,2.122,0,0,0,.48-1.465,1.986,1.986,0,0,0-.475-1.4,1.56,1.56,0,0,0-1.2-.513A1.627,1.627,0,0,0,5.5-4.128,1.848,1.848,0,0,0,5-2.783Z" transform="translate(330.154 319)" fill="#558ef9"/>
    <path id="內文p-3" data-name="內文p" d="M-5.54,0H-6.595V-6.721a5.451,5.451,0,0,1-1,.727,7.082,7.082,0,0,1-1.11.545v-1.02A6.369,6.369,0,0,0-7.157-7.477,3.964,3.964,0,0,0-6.22-8.625h.68Zm2.7-4.236a7.86,7.86,0,0,1,.313-2.452,3.05,3.05,0,0,1,.932-1.433,2.382,2.382,0,0,1,1.556-.5,2.538,2.538,0,0,1,1.213.278,2.319,2.319,0,0,1,.861.8,4.307,4.307,0,0,1,.533,1.277,8.487,8.487,0,0,1,.193,2.03A7.882,7.882,0,0,1,2.452-1.8,3.051,3.051,0,0,1,1.523-.36,2.382,2.382,0,0,1-.038.146,2.357,2.357,0,0,1-1.989-.744,5.661,5.661,0,0,1-2.839-4.236Zm1.084,0a5.386,5.386,0,0,0,.5,2.815,1.459,1.459,0,0,0,1.222.7,1.458,1.458,0,0,0,1.222-.7,5.388,5.388,0,0,0,.5-2.812,5.384,5.384,0,0,0-.5-2.818,1.47,1.47,0,0,0-1.233-.7,1.351,1.351,0,0,0-1.16.615A5.448,5.448,0,0,0-1.755-4.236ZM9.378-1.014V0H3.7a1.866,1.866,0,0,1,.123-.732,3.875,3.875,0,0,1,.694-1.143,10.878,10.878,0,0,1,1.38-1.3A11.7,11.7,0,0,0,7.79-5a2.178,2.178,0,0,0,.492-1.269,1.409,1.409,0,0,0-.448-1.058,1.617,1.617,0,0,0-1.169-.431,1.647,1.647,0,0,0-1.219.457,1.729,1.729,0,0,0-.463,1.266L3.9-6.141a2.668,2.668,0,0,1,.838-1.849,2.858,2.858,0,0,1,1.951-.636,2.723,2.723,0,0,1,1.957.686,2.251,2.251,0,0,1,.721,1.7,2.577,2.577,0,0,1-.211,1.014,3.934,3.934,0,0,1-.7,1.049A17.058,17.058,0,0,1,6.829-2.666q-.949.8-1.219,1.081a3.468,3.468,0,0,0-.445.571Z" transform="translate(135.154 319)" fill="#558ef9"/>
    <g id="Group_2118" data-name="Group 2118" transform="translate(78.172 341.889)">
      <g id="Group_2033" data-name="Group 2033" transform="translate(0 0)">
        <path id="內文p-4" data-name="內文p" d="M11.268-5.7v-.912H6.312A27.863,27.863,0,0,0,6.5-10.02h-.96a25.559,25.559,0,0,1-.18,3.408H.792V-5.7H5.22A7.79,7.79,0,0,1,.552.168,2.574,2.574,0,0,1,1.224.9,8.4,8.4,0,0,0,6.012-5.04,9.688,9.688,0,0,0,10.788.9,4.589,4.589,0,0,1,11.46.06,8.748,8.748,0,0,1,6.744-5.7ZM19.4-6.3a5.4,5.4,0,0,0-.864-.66,6.824,6.824,0,0,0,.7-.768l-.624-.2a4.285,4.285,0,0,1-.6.636c-.312-.168-.624-.348-.924-.48l-.444.4a8.821,8.821,0,0,1,.864.468,7.214,7.214,0,0,1-1.14.66,3.1,3.1,0,0,1,.492.468,8.492,8.492,0,0,0,1.2-.78,6.543,6.543,0,0,1,.864.7Zm-.036-2.148c-.216-.168-.5-.36-.828-.564a6.163,6.163,0,0,0,.66-.732l-.624-.168a5.111,5.111,0,0,1-.564.588c-.312-.168-.612-.324-.9-.444l-.432.4a8,8,0,0,1,.84.432,7.233,7.233,0,0,1-1.068.612,3.759,3.759,0,0,1,.5.432,8.337,8.337,0,0,0,1.116-.72A5.939,5.939,0,0,1,18.9-8Zm-5.58,3.36h8.436V-3.6H23.1V-5.772h-.936c.1-1.068.2-2.616.264-3.8H19.656v.612h1.908l-.036.648H19.716V-7.7h1.776l-.06.648H19.644v.612h1.74c-.024.24-.048.456-.072.672H14.736l-.048-.672h1.668v-.612h-1.7L14.6-7.7h1.7v-.612h-1.74L14.52-8.9a12.581,12.581,0,0,0,1.848-.468l-.4-.552a22.46,22.46,0,0,1-2.316.588l.24,3.564h-.96V-3.6h.852ZM23.34-2.172h-4.8v-.216a12.5,12.5,0,0,0,2.712-1.488l-.54-.444-.18.048h-5.64V-3.6h4.692a11.138,11.138,0,0,1-1.908.912v.516h-5v.756h5V-.06c0,.168-.048.2-.252.216-.18,0-.852,0-1.6-.024a3.36,3.36,0,0,1,.312.756,7.18,7.18,0,0,0,1.932-.12c.372-.132.468-.336.468-.8v-1.38h4.8Zm10.4-3.048a7.511,7.511,0,0,1-2.2,3.288A8.392,8.392,0,0,1,29.316-5.22ZM28.128-8.6h3.228c-.192.864-.432,1.8-.648,2.544H28.08c.036-.516.048-1.008.048-1.464Zm6.168,2.5-.168.048h-2.46c.264-.96.576-2.316.816-3.42H25.128V-8.6h2.1v1.08c0,2.124-.2,5.112-2.748,7.476a3.593,3.593,0,0,1,.648.756,9.414,9.414,0,0,0,2.88-5.928h.444a10.112,10.112,0,0,0,2.376,3.852,10.175,10.175,0,0,1-3.6,1.56,3.112,3.112,0,0,1,.5.816,11.242,11.242,0,0,0,3.8-1.752A9.257,9.257,0,0,0,34.908.924a3.867,3.867,0,0,1,.612-.84,9.379,9.379,0,0,1-3.24-1.428,8.842,8.842,0,0,0,2.64-4.488ZM43.4-6.3a5.4,5.4,0,0,0-.864-.66,6.824,6.824,0,0,0,.7-.768l-.624-.2a4.285,4.285,0,0,1-.6.636c-.312-.168-.624-.348-.924-.48l-.444.4a8.821,8.821,0,0,1,.864.468,7.214,7.214,0,0,1-1.14.66,3.1,3.1,0,0,1,.492.468,8.492,8.492,0,0,0,1.2-.78,6.543,6.543,0,0,1,.864.7Zm-.036-2.148c-.216-.168-.5-.36-.828-.564a6.163,6.163,0,0,0,.66-.732l-.624-.168a5.111,5.111,0,0,1-.564.588c-.312-.168-.612-.324-.9-.444l-.432.4a8,8,0,0,1,.84.432,7.233,7.233,0,0,1-1.068.612,3.759,3.759,0,0,1,.5.432,8.337,8.337,0,0,0,1.116-.72A5.939,5.939,0,0,1,42.9-8Zm-5.58,3.36h8.436V-3.6H47.1V-5.772h-.936c.1-1.068.2-2.616.264-3.8H43.656v.612h1.908l-.036.648H43.716V-7.7h1.776l-.06.648H43.644v.612h1.74c-.024.24-.048.456-.072.672H38.736l-.048-.672h1.668v-.612h-1.7L38.6-7.7h1.7v-.612h-1.74L38.52-8.9a12.581,12.581,0,0,0,1.848-.468l-.4-.552a22.46,22.46,0,0,1-2.316.588l.24,3.564h-.96V-3.6h.852ZM47.34-2.172h-4.8v-.216a12.5,12.5,0,0,0,2.712-1.488l-.54-.444-.18.048h-5.64V-3.6h4.692a11.138,11.138,0,0,1-1.908.912v.516h-5v.756h5V-.06c0,.168-.048.2-.252.216-.18,0-.852,0-1.6-.024a3.36,3.36,0,0,1,.312.756,7.18,7.18,0,0,0,1.932-.12c.372-.132.468-.336.468-.8v-1.38h4.8Zm6.108-5.592h5.04v1.308h.852V-8.544H56.352l.252-.1a8.144,8.144,0,0,0-.78-1.488l-.8.264a6.4,6.4,0,0,1,.648,1.32H52.62v2.088h.828ZM58.38-5.64v-.792h-4.8v.792ZM51.84-9.588l-.144.036H48.984V.9h.8V-8.736h1.584c-.252.8-.612,1.836-.948,2.7a3.549,3.549,0,0,1,1.068,2.412,1.041,1.041,0,0,1-.252.84.716.716,0,0,1-.372.108,3.45,3.45,0,0,1-.7-.012A1.807,1.807,0,0,1,50.4-1.9a4.436,4.436,0,0,0,.8-.024,1.189,1.189,0,0,0,.624-.228A1.7,1.7,0,0,0,52.3-3.54a3.728,3.728,0,0,0-1.08-2.592c.408-.96.84-2.124,1.2-3.108ZM57.612,0c-.264,0-.312-.048-.312-.348V-3.48h2.124V-4.3H52.668v.816h1.668C54.18-1.62,53.7-.444,51.636.2a2.679,2.679,0,0,1,.516.708C54.42.12,55-1.284,55.2-3.48h1.26V-.336c0,.852.192,1.1,1.032,1.1h1.056c.72,0,.948-.4,1.02-1.956a1.982,1.982,0,0,1-.768-.324C58.776-.2,58.728,0,58.464,0Z" transform="translate(25.981 58.111)" fill="#aca4a4"/>
        <path id="內文p-5" data-name="內文p" d="M7.644-2.16v1.116H4.224V-2.16Zm.8-.672H3.4V.216h.828V-.372H8.448ZM10.824-4.3H1.188V.912h.864V-3.54H9.936V-.024c0,.144-.048.18-.2.192S9.036.18,8.52.156a2.688,2.688,0,0,1,.288.66A5.4,5.4,0,0,0,10.392.708c.324-.12.432-.3.432-.732ZM8.616-5.6H3.444v-1.08H8.616ZM2.568-7.344v2.4h6.96v-2.4Zm4.068-1.44c-.132-.384-.312-.888-.48-1.3l-.864.2c.12.336.264.744.372,1.092H.756v.768H11.208v-.768Zm11.8,4.932v-3.18h3.444v3.18Zm-4.356,0v-3.18h3.432v3.18Zm4.356-4.056v-2.136h-.924v2.136H13.2v5.676h.876v-.744h3.432V.912h.924V-2.976h3.444v.684h.912V-7.908Zm16.692.648a9.538,9.538,0,0,0-.96-2.028l-.66.24a9.737,9.737,0,0,1,.924,2.064ZM32.052-8.748h-1.3a11.312,11.312,0,0,0-.5-1.212L29.52-9.8c.144.324.288.72.408,1.056H28.452v.708h3.6Zm-4.92,1.716h-1.26v-1.68h1.26Zm-1.26,3.216h1.26v1.632c-.432.1-.864.192-1.26.276Zm1.26-.744h-1.26V-6.276h1.26Zm1.284-4.152v-.816H24.552v.816h.636v6.948c-.276.036-.528.1-.756.132l.18.768c.732-.18,1.62-.372,2.52-.588V.924h.708V-8.712Zm1.008,7.26V-2.58h1.7v1.128Zm1.7-2.88v1.1h-1.7v-1.1ZM34.6-5a10.7,10.7,0,0,1-1.008,2.292c-.12-.828-.216-1.836-.276-2.952h2.124v-.78H33.264c-.06-1.116-.084-2.328-.1-3.588h-.78c.024,1.26.06,2.472.108,3.588H31.284c.132-.4.288-.9.432-1.356l-.744-.132a12.577,12.577,0,0,1-.348,1.488h-.852a10.341,10.341,0,0,0-.336-1.476l-.66.1a11.779,11.779,0,0,1,.288,1.38h-.816v.78h4.3a33.17,33.17,0,0,0,.408,3.9A9.482,9.482,0,0,1,31.824-.5V-4.98H28.716V.036h.708V-.8h1.7V-.48H31.8a7.789,7.789,0,0,1-1.008.8,3.94,3.94,0,0,1,.516.48,9.778,9.778,0,0,0,1.86-1.692c.3,1.116.72,1.764,1.32,1.776C34.9.9,35.292.42,35.52-1.38a2.4,2.4,0,0,1-.576-.444c-.084,1.092-.24,1.74-.432,1.74-.3-.012-.552-.588-.756-1.572a11.055,11.055,0,0,0,1.536-3Z" transform="translate(99.981 37.111)" fill="#aca4a4"/>
        <path id="內文p-6" data-name="內文p" d="M9.2-7.7a5.116,5.116,0,0,0-1.3-.816l-.42.444a4.856,4.856,0,0,1,1.284.84ZM6-2.856c-1.344.24-2.676.48-3.588.624l.12.672c.984-.18,2.256-.432,3.5-.672ZM4.956-3.912H3.576v-1.2h1.38Zm-2-1.764v2.328H5.6V-5.676Zm5.328-.2a8.256,8.256,0,0,1-.888,2.208,17.488,17.488,0,0,1-.444-2.76H9.5V-7.1H6.888c-.024-.42-.048-.84-.072-1.272H6.048c.024.432.06.852.1,1.272H2.532v.672H6.2a16.622,16.622,0,0,0,.66,3.552A6.476,6.476,0,0,1,5.052-1.32a4.607,4.607,0,0,1,.528.564,7.525,7.525,0,0,0,1.584-1.38A1.959,1.959,0,0,0,8.412-.972c.624.24,1.032-.24,1.188-1.548a2.246,2.246,0,0,1-.576-.4c-.084.768-.2,1.284-.372,1.236-.4-.06-.72-.468-.972-1.1a9.313,9.313,0,0,0,1.332-2.94ZM1.872-.408V-8.676H10.1V-.408ZM1.02-9.492V.948h.852V.4H10.1V.948h.876V-9.492Zm17.412,5.64v-3.18h3.444v3.18Zm-4.356,0v-3.18h3.432v3.18Zm4.356-4.056v-2.136h-.924v2.136H13.2v5.676h.876v-.744h3.432V.912h.924V-2.976h3.444v.684h.912V-7.908ZM29.58-9.864v9.54c0,.24-.1.324-.348.324C29,.012,28.14.024,27.264-.012a4.256,4.256,0,0,1,.372.924A8.328,8.328,0,0,0,29.928.756c.42-.156.6-.42.6-1.08v-9.54ZM32.448-6.84a20.283,20.283,0,0,1,2.268,5.364l.936-.4a19.08,19.08,0,0,0-2.364-5.292Zm-6-.24a11.245,11.245,0,0,1-2.016,4.932,4.82,4.82,0,0,1,.84.468,13.459,13.459,0,0,0,2.16-5.22Z" transform="translate(25.981 37.111)" fill="#aca4a4"/>
        <path id="內文p-7" data-name="內文p" d="M11.052-8.028v-.8H3.66c.18-.336.336-.684.492-1.02L3.276-10.1A11.267,11.267,0,0,1,.516-6.1c.228.132.6.384.792.528a13.951,13.951,0,0,0,1.9-2.46Zm-4.284,6.6.408-.444a9.05,9.05,0,0,0-2.28-1.5l-.5.492A10.809,10.809,0,0,1,6.54-1.428H2.832c.1-.576.2-1.248.3-1.944H8.88c-.048.816-.1,1.452-.144,1.944Zm2.22-4.6c-.024.708-.048,1.32-.072,1.884H6.864l.516-.528A9.157,9.157,0,0,0,5.2-5.988l-.5.5A8.593,8.593,0,0,1,6.828-4.14h-3.6c.1-.636.18-1.272.264-1.884ZM11.46-3.348v-.816H9.78c.024-.648.06-1.38.084-2.22,0-.108.012-.432.012-.432H2.7c-.084.8-.216,1.728-.336,2.652H.552v.816H2.244c-.156,1.008-.324,1.98-.456,2.7h.48v.012H8.64a1.683,1.683,0,0,1-.24.7.476.476,0,0,1-.444.168A13.25,13.25,0,0,1,6.564.18a1.811,1.811,0,0,1,.228.708A13.8,13.8,0,0,0,8.328.912,1.1,1.1,0,0,0,9.168.48,2.783,2.783,0,0,0,9.516-.636h1.536v-.792H9.612c.06-.5.1-1.14.144-1.92Zm8.808-4.92a18.25,18.25,0,0,0-.6-1.86l-.84.216A13.265,13.265,0,0,1,19.392-8Zm2.64.4H16.44v.864h6.468Zm-4,6.636a47.513,47.513,0,0,0-.888-5.04l-.8.18a43.139,43.139,0,0,1,.816,5.112ZM15.456-10A13.338,13.338,0,0,1,12.5-5.232a4.333,4.333,0,0,1,.5.876A12.2,12.2,0,0,0,14.2-5.808V.9h.888V-7.2A17.018,17.018,0,0,0,16.3-9.744Zm5.5,9.564c.432-1.6.924-3.936,1.236-5.772l-.924-.168a52.082,52.082,0,0,1-1.14,5.94H15.936V.432H23.4V-.432ZM31.4-6.3a5.4,5.4,0,0,0-.864-.66,6.824,6.824,0,0,0,.7-.768l-.624-.2a4.285,4.285,0,0,1-.6.636c-.312-.168-.624-.348-.924-.48l-.444.4a8.821,8.821,0,0,1,.864.468,7.214,7.214,0,0,1-1.14.66,3.1,3.1,0,0,1,.492.468,8.492,8.492,0,0,0,1.2-.78,6.543,6.543,0,0,1,.864.7Zm-.036-2.148c-.216-.168-.5-.36-.828-.564a6.163,6.163,0,0,0,.66-.732l-.624-.168a5.111,5.111,0,0,1-.564.588c-.312-.168-.612-.324-.9-.444l-.432.4a8,8,0,0,1,.84.432,7.233,7.233,0,0,1-1.068.612,3.759,3.759,0,0,1,.5.432,8.337,8.337,0,0,0,1.116-.72A5.939,5.939,0,0,1,30.9-8Zm-5.58,3.36h8.436V-3.6H35.1V-5.772h-.936c.1-1.068.2-2.616.264-3.8H31.656v.612h1.908l-.036.648H31.716V-7.7h1.776l-.06.648H31.644v.612h1.74c-.024.24-.048.456-.072.672H26.736l-.048-.672h1.668v-.612h-1.7L26.6-7.7h1.7v-.612h-1.74L26.52-8.9a12.581,12.581,0,0,0,1.848-.468l-.4-.552a22.46,22.46,0,0,1-2.316.588l.24,3.564h-.96V-3.6h.852ZM35.34-2.172h-4.8v-.216a12.5,12.5,0,0,0,2.712-1.488l-.54-.444-.18.048h-5.64V-3.6h4.692a11.138,11.138,0,0,1-1.908.912v.516h-5v.756h5V-.06c0,.168-.048.2-.252.216-.18,0-.852,0-1.6-.024a3.36,3.36,0,0,1,.312.756,7.18,7.18,0,0,0,1.932-.12c.372-.132.468-.336.468-.8v-1.38h4.8ZM42.48-.324V-3.372h3.852v-.864H42.48V-6.852h4.3v-.876h-4.3v-2.3h-.912v2.3H39.132a16.472,16.472,0,0,0,.672-1.92l-.9-.192a10.939,10.939,0,0,1-2.22,4.416A5.975,5.975,0,0,1,37.5-4.9a10.767,10.767,0,0,0,1.248-1.956h2.82v2.616H38v.864h3.564V-.324h-4.86V.54H47.34V-.324Zm16.872-3.84h-4.92V-8.352H58.68v-.876H49.3v.876H53.52v4.188H48.672v.876H53.52v4.2h.912v-4.2h4.92Zm-9.216-3.36a14.043,14.043,0,0,1,1.08,2.748l.84-.288a11.5,11.5,0,0,0-1.14-2.7ZM56.5-4.74a23.561,23.561,0,0,0,1.476-2.82l-.936-.264a17.907,17.907,0,0,1-1.3,2.832ZM65.16-1.98h4.056v-.8H65.16Zm.276-3.528v.816h3.576v-.816ZM66.5-8.052A17.045,17.045,0,0,0,67.176-9.8l-.9-.228a12.643,12.643,0,0,1-1.824,3.768v-.768H63.06V-9.78H62.2v2.748H60.648v.852H62.2v4.092c-.66.3-1.272.576-1.752.768l.336.9c1.116-.54,2.6-1.272,4-1.956l-.24-.816c-.492.228-1,.468-1.476.7V-6.18H64.4a7.53,7.53,0,0,1-.564.648c.228.132.636.384.816.516a12.017,12.017,0,0,0,1.452-2.2h4.26c-.156,4.836-.336,6.684-.732,7.092a.6.6,0,0,1-.516.192,17.568,17.568,0,0,1-1.812-.084A2.244,2.244,0,0,1,67.6.9a13.859,13.859,0,0,0,1.86.012A1.205,1.205,0,0,0,70.44.42c.48-.6.636-2.5.828-8,0-.12.012-.468.012-.468Zm9.048-1.584A8.357,8.357,0,0,1,72.468-5.2a4.951,4.951,0,0,1,.744.66,10.464,10.464,0,0,0,3.264-4.872Zm-1.284,4.1v.864h2.448C76.428-2.64,75.768-.744,72.948.2a2.736,2.736,0,0,1,.576.78c3.048-1.116,3.828-3.276,4.14-5.652h3.1c-.144,3.024-.312,4.224-.624,4.524-.12.132-.252.156-.5.156-.288,0-1.02-.012-1.8-.084a1.982,1.982,0,0,1,.288.9A17.206,17.206,0,0,0,80,.852,1.22,1.22,0,0,0,80.94.42c.408-.456.576-1.836.744-5.52.012-.12.024-.432.024-.432Zm3.156-4.3v.84h2.124A9.322,9.322,0,0,0,82.956-4.56a5.362,5.362,0,0,1,.636-.8,8.014,8.014,0,0,1-3.408-4.464Zm9.96,4.68-.78.312V-6.792h.78v-.816H86.6v-2.424h-.78v2.424h-1.26v.816h1.26v2.268c-.54.216-1.02.4-1.428.54l.288.828,1.14-.48V-.048c0,.144-.06.192-.192.192-.108,0-.516,0-.948-.012a3.6,3.6,0,0,1,.24.78,3.037,3.037,0,0,0,1.32-.156c.264-.144.36-.36.36-.816V-3.948c.312-.144.648-.288.96-.42ZM92.652-2.22h.972V-.408h-.972Zm.972-4.644v1.548h-.972V-6.864Zm0,3.948h-.972V-4.6h.972Zm-2.9-1.692h-.9V-5.736h.9Zm-2.484,0V-5.736h.876v1.128Zm.528-3.78H90.3v.816H88.764Zm6.768,7.98H94.308V-2.22h1.008v-.7H94.308V-4.6h.972v-.72h-.972V-6.864h1.02v-.78H92.616a17.974,17.974,0,0,0,.624-2.064,8.883,8.883,0,0,1,.792,2l.684-.264a8.711,8.711,0,0,0-.852-2l-.612.228.036-.156-.708-.144a11.106,11.106,0,0,1-1.392,3.708H89.82V-7h1.188V-8.388h.684v-.636h-.684v-1.008H90.3v1.008H88.764v-1.008H88.08v1.008h-.768v.636h.768V-7h1.032v.66H87.624V-4.02h1.488v.66H87.576v.636H89.1a4.863,4.863,0,0,1-.084.744H87.264v.66h1.56A3.091,3.091,0,0,1,87.012.372a3.051,3.051,0,0,1,.42.552,3.772,3.772,0,0,0,1.9-1.584A9.212,9.212,0,0,1,90.936.7L91.392.12a9.786,9.786,0,0,0-1.8-1.4L89.6-1.32h1.932v-.66H89.748a7.187,7.187,0,0,0,.06-.744h1.56V-3.36H89.82v-.66h1.524V-5.88a2.712,2.712,0,0,1,.264.264c.108-.168.216-.348.324-.528V.924h.72V.276h2.88Zm4.884-4.4H97.9V-7.32h2.52ZM97.9-1.14V-4.02h2.52v2.88ZM98.9-10.068a14.811,14.811,0,0,1-.48,1.944H97.08V.612H97.9V-.336h3.336V-8.124H99.24c.2-.516.42-1.176.624-1.764Zm8.2,1.908h-3.588a16.855,16.855,0,0,0,.516-1.728l-.852-.2a12.176,12.176,0,0,1-1.836,4.356,6.558,6.558,0,0,1,.732.5,10.1,10.1,0,0,0,1.128-2.1h3.048c-.156,4.776-.336,6.6-.732,7.02-.12.156-.252.18-.492.18-.276,0-1,0-1.776-.072a2.064,2.064,0,0,1,.3.876,12.647,12.647,0,0,0,1.776.012,1.194,1.194,0,0,0,.948-.48c.48-.588.636-2.436.828-7.908Zm-1.9,5.4a23.479,23.479,0,0,0-1.884-2.712l-.7.408a21.35,21.35,0,0,1,1.824,2.772Zm10.512-4.224h2.1a13.673,13.673,0,0,1-1.044,3.792A16.508,16.508,0,0,1,115.716-6.984Zm-4.284-1.032h1.212a11.887,11.887,0,0,1-.852,1.188h-.36Zm8.052,1.032v-.84h-3.5a21.036,21.036,0,0,0,.48-2.076l-.888-.144A12.84,12.84,0,0,1,113.7-4.9l-.42-.312-.168.048H111.36c.3-.276.576-.576.852-.876H114.3v-.792h-1.452a13.255,13.255,0,0,0,1.5-2.688l-.828-.24a11.884,11.884,0,0,1-.852,1.7v-.732h-1.236v-1.26H110.6v1.26h-1.572v.768H110.6v1.188h-2.076v.792h2.532a10.282,10.282,0,0,1-2.616,1.9,8.274,8.274,0,0,1,.636.684,12.866,12.866,0,0,0,1.452-.984H112.4a7.658,7.658,0,0,1-1.368,1.068v.828c-.948.108-1.812.216-2.5.3l.108.816c.684-.084,1.5-.2,2.388-.324V-.036c0,.132-.036.168-.2.18s-.66.012-1.26-.012a3.423,3.423,0,0,1,.288.78,4.951,4.951,0,0,0,1.6-.132c.336-.132.432-.348.432-.8V-1.86c.78-.12,1.572-.228,2.364-.336l-.012-.78c-.792.108-1.584.216-2.352.312v-.48A9.54,9.54,0,0,0,113.7-4.728a4.545,4.545,0,0,1,.648.564,8.389,8.389,0,0,0,.8-1.416,15.656,15.656,0,0,0,1.092,3.324A6.752,6.752,0,0,1,113.388.156a3.776,3.776,0,0,1,.54.8,8.01,8.01,0,0,0,2.8-2.328A6.519,6.519,0,0,0,118.956.9a2.916,2.916,0,0,1,.624-.756,5.906,5.906,0,0,1-2.316-2.352,13.661,13.661,0,0,0,1.464-4.776ZM130-5.28h-7.752v2.136a4.792,4.792,0,0,1-1.224,3.6,2.452,2.452,0,0,1,.708.552,5.714,5.714,0,0,0,1.38-4.128v-1.4h5.952v2.2c-2.088.372-4.272.72-5.628.924l.288.8c1.476-.264,3.444-.672,5.34-1.056V-.12c0,.168-.072.24-.288.24-.18.012-.984.012-1.728-.012a3.031,3.031,0,0,1,.252.768,9.644,9.644,0,0,0,2.148-.108c.408-.12.552-.348.552-.888Zm-6.5,1.824a21,21,0,0,1,4.392,1.176l.276-.66a21.4,21.4,0,0,0-4.38-1.092Zm-.216-3.168c.552-.444,1.116-.924,1.668-1.452h2.736l-.5.324c.4.264.8.588,1.2.9Zm7.968-2.256h-5.5c.288-.3.576-.624.852-.936l-.888-.372c-.348.444-.744.9-1.128,1.308h-3.816v.8h3.012a13.659,13.659,0,0,1-1.044.9,2.567,2.567,0,0,1-1.008.624c.1.24.216.66.264.84.408-.144,1.02-.156,7.164-.468.324.312.612.612.828.864l.756-.516a17.725,17.725,0,0,0-2.664-2.244h3.168Zm12.048-.564h-6.324v.816h6.324ZM143.22-4.02a13.854,13.854,0,0,0-1.44-2.04c.408-.6.888-1.356,1.236-1.968l-.792-.216a20.341,20.341,0,0,1-1.332,2.208A13.128,13.128,0,0,1,142.5-3.672Zm-3.048-4.212a20.17,20.17,0,0,1-1.3,2.184A10.771,10.771,0,0,1,140.364-3.7l.744-.336a16.107,16.107,0,0,0-1.356-2.04c.4-.588.864-1.356,1.2-1.956ZM139.02-3.984A14.432,14.432,0,0,0,137.7-6.06a22.738,22.738,0,0,0,1.188-1.98l-.78-.2c-.276.564-.792,1.476-1.26,2.208a12.1,12.1,0,0,1,1.428,2.364Zm-2.184.924a15.413,15.413,0,0,0-.78-2.46l-.684.192c.144.36.276.768.408,1.176l-1.884.24a23.9,23.9,0,0,0,2.664-3.864l-.768-.456a16.888,16.888,0,0,1-.864,1.6l-1.236.108a21.342,21.342,0,0,0,1.824-3.192l-.792-.324a16.6,16.6,0,0,1-1.584,3.012c-.252.372-.456.612-.66.66a7.921,7.921,0,0,1,.276.792,6.285,6.285,0,0,1,1.656-.276c-.432.636-.8,1.14-.984,1.356-.348.432-.624.732-.888.792a5.709,5.709,0,0,1,.288.828,14.727,14.727,0,0,1,3.144-.588,6.227,6.227,0,0,1,.132.648Zm-3.78.7a13.5,13.5,0,0,1-.576,2.8c.18.072.552.192.708.276a15.168,15.168,0,0,0,.612-2.952Zm1.224.084a21.174,21.174,0,0,1,.3,2.532l.72-.12a20.274,20.274,0,0,0-.336-2.52Zm1.164-.216a16.17,16.17,0,0,1,.588,2.028l.66-.228a13.334,13.334,0,0,0-.612-2ZM140.5-.18V-2.46h2.436v-.8h-5.7v.8h2.388V-.18h-3.06V.636h6.852V-.18Zm7.728-.66a14.483,14.483,0,0,1-3.54,1.092,4.76,4.76,0,0,1,.636.672,17.218,17.218,0,0,0,3.708-1.4Zm-1.152-1.344h6v.756h-6Zm3.852-4.02v.828h.84V-6.2H154.3a.778.778,0,0,1-.144.432c-.06.072-.144.084-.276.084s-.456-.012-.828-.048a1.338,1.338,0,0,1,.144.384H147.84a2.505,2.505,0,0,0,.852-.852Zm-2.688-1.308a2.119,2.119,0,0,1-.18.72h-1.584q.054-.342.108-.72Zm.84-1.272h1.848V-8.1h-1.848Zm4.548,0V-8.1h-1.86v-.684Zm-2.7,1.992h-1.992a2.825,2.825,0,0,0,.12-.72h1.872Zm2.148,2.76h-6v-.744h6Zm0,1.284h-6V-3.48h6Zm.888,1.9V-5.124c.12,0,.228-.012.312-.012a.852.852,0,0,0,.576-.216c.168-.156.24-.5.312-1.152.012-.108.024-.288.024-.288h-3.42v-.72h2.676v-1.86h-2.676v-.66h-.84v.66h-1.848v-.66h-.816v.66h-2.928v.588h2.928V-8.1h-2.388c-.072.624-.192,1.368-.3,1.9h2.04a5.872,5.872,0,0,1-2.892,1.116,3.161,3.161,0,0,1,.42.7c.4-.084.756-.168,1.068-.264v3.8h5.316l-.444.432A29.223,29.223,0,0,1,154.608.864l.672-.552a32.5,32.5,0,0,0-3.372-1.164Z" transform="translate(-0.019 13.111)" fill="#aca4a4"/>
        <path id="內文p-8" data-name="內文p" d="M6.5-3.588V-5.58H9.732v1.992Zm-3.8,0c.036-.444.048-.888.048-1.284V-5.58H5.616v1.992ZM5.616-8.34v1.92H2.748V-8.34ZM9.732-6.42H6.5V-8.34H9.732Zm.876-2.772H1.872v4.32C1.872-3.2,1.752-1.092.432.4a2.912,2.912,0,0,1,.684.588,6.89,6.89,0,0,0,1.5-3.72h3V.8H6.5v-3.54H9.732V-.3c0,.228-.084.3-.324.312-.216,0-1.032.012-1.872-.024a3.527,3.527,0,0,1,.3.864A7.83,7.83,0,0,0,10.068.708c.384-.156.54-.42.54-1Zm5.268.78a7.608,7.608,0,0,0-1.032-1.668l-.78.3a7,7,0,0,1,.972,1.7ZM14.664-5.58c.024-.528.036-1.092.048-1.656h2.76v-.828H12.648v.828h1.188C13.8-3.984,13.692-1.32,12.408.228a2.309,2.309,0,0,1,.672.648c1.08-1.3,1.428-3.264,1.56-5.64h1.536c-.12,3.108-.252,4.248-.48,4.512a.34.34,0,0,1-.348.156c-.168,0-.5,0-.924-.036a2.036,2.036,0,0,1,.228.816A6.329,6.329,0,0,0,15.744.672.819.819,0,0,0,16.428.3c.336-.432.468-1.716.612-5.472.012-.12.012-.408.012-.408Zm3.648,4.116A17.015,17.015,0,0,1,21.552.648l.6-.78a18.327,18.327,0,0,0-3.276-2ZM21.72-3.852a15.167,15.167,0,0,0-2.1-1.572l-.576.576a16.976,16.976,0,0,1,2.064,1.656ZM20.088-10.1a7.349,7.349,0,0,1-3,4.272,3.39,3.39,0,0,1,.624.708A7.793,7.793,0,0,0,20.3-8.316,9.194,9.194,0,0,0,22.968-5.2a3.507,3.507,0,0,1,.66-.732,8.281,8.281,0,0,1-2.94-3.264,6.061,6.061,0,0,0,.216-.66Zm11.628,3.12h2.1a13.673,13.673,0,0,1-1.044,3.792A16.508,16.508,0,0,1,31.716-6.984ZM27.432-8.016h1.212a11.887,11.887,0,0,1-.852,1.188h-.36Zm8.052,1.032v-.84h-3.5A21.035,21.035,0,0,0,32.46-9.9l-.888-.144A12.84,12.84,0,0,1,29.7-4.9l-.42-.312-.168.048H27.36c.3-.276.576-.576.852-.876H30.3v-.792H28.848a13.255,13.255,0,0,0,1.5-2.688l-.828-.24a11.884,11.884,0,0,1-.852,1.7v-.732H27.432v-1.26H26.6v1.26H25.032v.768H26.6v1.188H24.528v.792H27.06a10.282,10.282,0,0,1-2.616,1.9,8.273,8.273,0,0,1,.636.684,12.866,12.866,0,0,0,1.452-.984H28.4a7.658,7.658,0,0,1-1.368,1.068v.828c-.948.108-1.812.216-2.5.3l.108.816c.684-.084,1.5-.2,2.388-.324V-.036c0,.132-.036.168-.2.18s-.66.012-1.26-.012a3.423,3.423,0,0,1,.288.78,4.951,4.951,0,0,0,1.6-.132c.336-.132.432-.348.432-.8V-1.86c.78-.12,1.572-.228,2.364-.336l-.012-.78c-.792.108-1.584.216-2.352.312v-.48A9.54,9.54,0,0,0,29.7-4.728a4.545,4.545,0,0,1,.648.564,8.39,8.39,0,0,0,.8-1.416,15.657,15.657,0,0,0,1.092,3.324A6.751,6.751,0,0,1,29.388.156a3.776,3.776,0,0,1,.54.8,8.01,8.01,0,0,0,2.8-2.328A6.519,6.519,0,0,0,34.956.9,2.916,2.916,0,0,1,35.58.144a5.906,5.906,0,0,1-2.316-2.352,13.661,13.661,0,0,0,1.464-4.776ZM39.9-3.072V-1.02H37.812V-3.072Zm-.108-4.4v1.764h-1.98V-7.476Zm-1.98,2.52h2.772V-8.244H38.82c.216-.492.468-1.116.66-1.656l-.96-.144A13.654,13.654,0,0,1,38-8.244H37v8.8h.816v-.8H40.7V-3.84H37.812ZM47.424-8.6v-.8h-6.36v.8H43.8v1.476H41.508V-.876h.816V-6.312H43.8V.9h.84V-6.312h1.6v4.488c0,.12-.036.168-.168.168s-.492,0-.924-.012a3.082,3.082,0,0,1,.24.78,3.391,3.391,0,0,0,1.332-.144c.276-.132.348-.384.348-.78V-7.128H44.64V-8.6Zm6.984,4.128h1.644l-.288.252a9.138,9.138,0,0,1,.912.372l-2.268.036Zm-3.7-.6V-5.82h2.832v.744Zm0-2.04h2.832v.72H50.712Zm6.612,0v.72H54.408v-.72Zm0,2.04H54.408V-5.82h2.916Zm2.088,2.592H56.556v-.768l1.188-.036a8.1,8.1,0,0,1,.684.48l.528-.5a9.805,9.805,0,0,0-2.148-1.164H58.2V-7.728H54.408V-8.4h4.524v-.72H54.408v-.9h-.864v.9h-4.6v.72h4.6v.672H49.872v3.252h3.672v.66c-1.716.024-3.288.036-4.476.036l.036.7c1.728-.024,4.128-.072,6.588-.144v.744H48.6v.732h2.484l-.588.5a10.35,10.35,0,0,1,1.98,1.56l.636-.588a10,10,0,0,0-1.968-1.476h4.548V-.06c0,.156-.06.2-.24.216s-.864.012-1.6-.012a2.721,2.721,0,0,1,.288.768A6.948,6.948,0,0,0,56.076.78c.384-.12.48-.36.48-.816V-1.752h2.856ZM64.3-1.32A10.745,10.745,0,0,1,60.744-.132a3.238,3.238,0,0,1,.54.672,11.147,11.147,0,0,0,3.684-1.548Zm2.9.42C68.34-.48,69.864.132,70.656.516l.552-.564c-.828-.384-2.352-.96-3.48-1.332Zm.708-6.264A9.387,9.387,0,0,1,67.2-5.976l.42.132H64.308l.492-.132a4.826,4.826,0,0,0-.636-1.188ZM66.42-2.676v-.9h3.756V-4.26H66.42v-.864h4.344v-.72H68.016a13.207,13.207,0,0,0,.828-1.1l-.78-.216h3.12v-.744H69.336c.312-.456.708-1.116,1.044-1.728l-.912-.252a10.02,10.02,0,0,1-.924,1.824l.48.156H67.572v-2.124H66.72v2.124H65.292v-2.124h-.84v2.124H62.988l.6-.24a7.361,7.361,0,0,0-1.02-1.764l-.756.264a9.46,9.46,0,0,1,.96,1.74H60.84v.744h3.1L63.3-7a5.125,5.125,0,0,1,.612,1.152H61.32v.72h4.224v.864H61.932v.684h3.612v.9H60.8v.756h4.74V.924h.876V-1.92h4.812v-.756Zm8.376.3V-6.3H76v-.828H74.8V-9.9h-.828v2.772H72.7V-6.3h1.272v4.224c-.54.192-1.02.372-1.428.492l.288.888c.96-.372,2.184-.864,3.324-1.332L76-2.82Zm6.636-.552v1h-3.5v-1Zm-3.5,2.556v-.9h3.5v.9ZM77.1.888h.828V.324h3.5V.888h.852v-4.5H77.1ZM77.316-9.7a9.532,9.532,0,0,1,.84,1.392l.768-.372a5.828,5.828,0,0,0-.864-1.332Zm.276,2.568a6.313,6.313,0,0,1,.816,1.716l.54-.228a6.85,6.85,0,0,0-.84-1.68Zm3.132,1.74a18.4,18.4,0,0,0,1.092-1.7L81.2-7.32a10.556,10.556,0,0,1-.936,1.74Zm1.356.4H80.016V-7.668H82.08ZM77.22-7.668h2.1v2.676h-2.1ZM81.2-8.3c.324-.42.684-.948,1.008-1.44l-.912-.324A10.844,10.844,0,0,1,80.28-8.3h-3.8v3.948h6.372V-8.3Zm13,3.432a5.9,5.9,0,0,0,1.068-.072c-.036-.2-.072-.54-.1-.78a5.183,5.183,0,0,1-1,.072H91.968c-.384,0-.48-.144-.48-.576V-7.584h3.228v-.792H91.488v-1.656h-.876v3.78c0,1.008.288,1.38,1.344,1.38ZM86.28-3.9a19.666,19.666,0,0,1,1.9,1.3l.48-.492a21.181,21.181,0,0,0-1.908-1.248Zm-.1-1.128h2.484V-2.6c-.96.48-1.908.96-2.58,1.26a11.365,11.365,0,0,0,.1-1.512ZM89.52-5.8H85.356v2.928A5.323,5.323,0,0,1,84.6.324a2.748,2.748,0,0,1,.612.624A4.681,4.681,0,0,0,86.076-1.3l.312.72c.672-.384,1.488-.852,2.28-1.32V-.048c0,.156-.036.2-.2.2S87.816.168,87.24.144a2.981,2.981,0,0,1,.288.744A4.664,4.664,0,0,0,89.1.744c.324-.132.42-.336.42-.792Zm-1.488-3.1c.252.372.5.78.744,1.188l-2.46.168a15.872,15.872,0,0,0,1.668-2.208l-.888-.3a12.426,12.426,0,0,1-1.524,2.2,1.421,1.421,0,0,1-.636.468,5.827,5.827,0,0,1,.288.84c.276-.132.7-.18,3.948-.444.156.3.288.576.384.816l.768-.348a16.423,16.423,0,0,0-1.572-2.652ZM92.16.024c-.564,0-.672-.072-.672-.468v-1.8h3.36v-.8h-3.36V-4.476h-.876V-.444c0,.984.3,1.26,1.464,1.26H94.2c1,0,1.26-.408,1.368-1.968a2.717,2.717,0,0,1-.792-.336C94.716-.2,94.632.024,94.128.024Zm8.256-4.836H97.9V-7.32h2.52ZM97.9-1.14V-4.02h2.52v2.88ZM98.9-10.068a14.811,14.811,0,0,1-.48,1.944H97.08V.612H97.9V-.336h3.336V-8.124H99.24c.2-.516.42-1.176.624-1.764Zm8.2,1.908h-3.588a16.855,16.855,0,0,0,.516-1.728l-.852-.2a12.176,12.176,0,0,1-1.836,4.356,6.558,6.558,0,0,1,.732.5,10.1,10.1,0,0,0,1.128-2.1h3.048c-.156,4.776-.336,6.6-.732,7.02-.12.156-.252.18-.492.18-.276,0-1,0-1.776-.072a2.064,2.064,0,0,1,.3.876,12.647,12.647,0,0,0,1.776.012,1.194,1.194,0,0,0,.948-.48c.48-.588.636-2.436.828-7.908Zm-1.9,5.4a23.479,23.479,0,0,0-1.884-2.712l-.7.408a21.35,21.35,0,0,1,1.824,2.772Zm14.088-6.684h-6.324v.816h6.324ZM119.22-4.02a13.854,13.854,0,0,0-1.44-2.04c.408-.6.888-1.356,1.236-1.968l-.792-.216a20.34,20.34,0,0,1-1.332,2.208A13.127,13.127,0,0,1,118.5-3.672Zm-3.048-4.212a20.167,20.167,0,0,1-1.3,2.184A10.771,10.771,0,0,1,116.364-3.7l.744-.336a16.107,16.107,0,0,0-1.356-2.04c.4-.588.864-1.356,1.2-1.956ZM115.02-3.984A14.432,14.432,0,0,0,113.7-6.06a22.736,22.736,0,0,0,1.188-1.98l-.78-.2c-.276.564-.792,1.476-1.26,2.208a12.1,12.1,0,0,1,1.428,2.364Zm-2.184.924a15.413,15.413,0,0,0-.78-2.46l-.684.192c.144.36.276.768.408,1.176l-1.884.24a23.9,23.9,0,0,0,2.664-3.864l-.768-.456a16.886,16.886,0,0,1-.864,1.6l-1.236.108a21.342,21.342,0,0,0,1.824-3.192l-.792-.324a16.6,16.6,0,0,1-1.584,3.012c-.252.372-.456.612-.66.66a7.923,7.923,0,0,1,.276.792,6.285,6.285,0,0,1,1.656-.276c-.432.636-.8,1.14-.984,1.356-.348.432-.624.732-.888.792a5.709,5.709,0,0,1,.288.828,14.727,14.727,0,0,1,3.144-.588,6.227,6.227,0,0,1,.132.648Zm-3.78.7a13.5,13.5,0,0,1-.576,2.8c.18.072.552.192.708.276a15.166,15.166,0,0,0,.612-2.952Zm1.224.084a21.172,21.172,0,0,1,.3,2.532l.72-.12a20.273,20.273,0,0,0-.336-2.52Zm1.164-.216a16.169,16.169,0,0,1,.588,2.028l.66-.228a13.334,13.334,0,0,0-.612-2ZM116.5-.18V-2.46h2.436v-.8h-5.7v.8h2.388V-.18h-3.06V.636h6.852V-.18Zm7.728-.66a14.483,14.483,0,0,1-3.54,1.092,4.759,4.759,0,0,1,.636.672,17.218,17.218,0,0,0,3.708-1.4Zm-1.152-1.344h6v.756h-6Zm3.852-4.02v.828h.84V-6.2H130.3a.778.778,0,0,1-.144.432c-.06.072-.144.084-.276.084s-.456-.012-.828-.048a1.338,1.338,0,0,1,.144.384H123.84a2.5,2.5,0,0,0,.852-.852Zm-2.688-1.308a2.119,2.119,0,0,1-.18.72h-1.584q.054-.342.108-.72Zm.84-1.272h1.848V-8.1h-1.848Zm4.548,0V-8.1h-1.86v-.684Zm-2.7,1.992h-1.992a2.825,2.825,0,0,0,.12-.72h1.872Zm2.148,2.76h-6v-.744h6Zm0,1.284h-6V-3.48h6Zm.888,1.9V-5.124c.12,0,.228-.012.312-.012a.852.852,0,0,0,.576-.216c.168-.156.24-.5.312-1.152.012-.108.024-.288.024-.288h-3.42v-.72h2.676v-1.86h-2.676v-.66h-.84v.66h-1.848v-.66h-.816v.66h-2.928v.588h2.928V-8.1h-2.388c-.072.624-.192,1.368-.3,1.9h2.04a5.872,5.872,0,0,1-2.892,1.116,3.161,3.161,0,0,1,.42.7c.4-.084.756-.168,1.068-.264v3.8h5.316l-.444.432A29.223,29.223,0,0,1,130.608.864l.672-.552a32.5,32.5,0,0,0-3.372-1.164Z" transform="translate(214.981 13.111)" fill="#aca4a4"/>
        <line id="Line_56" data-name="Line 56" x2="15.32" transform="translate(3.296 54.299)" fill="none" stroke="#fff" stroke-linecap="round" stroke-width="5"/>
        <line id="Line_116" data-name="Line 116" x2="15.32" transform="translate(77.342 33.873)" fill="none" stroke="#1feac3" stroke-linecap="round" stroke-width="5"/>
        <line id="Line_117" data-name="Line 117" x2="15.32" transform="translate(3.296 33.873)" fill="none" stroke="#ff6cd7" stroke-linecap="round" stroke-width="5"/>
        <text id="內文p-9" data-name="內文p" transform="translate(243.981 40.111)" fill="#aca4a4" font-size="12" font-family="SourceHanSansTW-Regular, Source Han Sans TW"><tspan x="0" y="0">教師</tspan></text>
        <rect id="Rectangle_2331" data-name="Rectangle 2331" width="24" height="14" rx="2" transform="translate(214.981 29.111)" fill="#356bd0"/>
      </g>
      <line id="Line_579" data-name="Line 579" y2="62.556" transform="translate(189.687 -0.41)" fill="none" stroke="#5b5757" stroke-width="1"/>
    </g>
  </g>
</svg>
